<svg width="24" height="24" viewBox="0 0 24 24" fill="none" xmlns="http://www.w3.org/2000/svg">
<path d="M5.99902 13C6.54902 13 6.99902 12.55 6.99902 12C6.99902 11.45 6.54902 11 5.99902 11C5.44902 11 4.99902 11.45 4.99902 12C4.99902 12.55 5.44902 13 5.99902 13Z" stroke="#72706D" stroke-width="2.10172"/>
<path d="M5.99902 7C6.54902 7 6.99902 6.55 6.99902 6C6.99902 5.45 6.54902 5 5.99902 5C5.44902 5 4.99902 5.45 4.99902 6C4.99902 6.55 5.44902 7 5.99902 7Z" stroke="#72706D" stroke-width="2.10172"/>
<path d="M5.99902 19C6.54902 19 6.99902 18.55 6.99902 18C6.99902 17.45 6.54902 17 5.99902 17C5.44902 17 4.99902 17.45 4.99902 18C4.99902 18.55 5.44902 19 5.99902 19Z" stroke="#72706D" stroke-width="2.10172"/>
<path d="M11.998 13C12.548 13 12.998 12.55 12.998 12C12.998 11.45 12.548 11 11.998 11C11.448 11 10.998 11.45 10.998 12C10.998 12.55 11.448 13 11.998 13Z" stroke="#72706D" stroke-width="2.10172"/>
<path d="M11.998 7C12.548 7 12.998 6.55 12.998 6C12.998 5.45 12.548 5 11.998 5C11.448 5 10.998 5.45 10.998 6C10.998 6.55 11.448 7 11.998 7Z" stroke="#72706D" stroke-width="2.10172"/>
<path d="M11.998 19C12.548 19 12.998 18.55 12.998 18C12.998 17.45 12.548 17 11.998 17C11.448 17 10.998 17.45 10.998 18C10.998 18.55 11.448 19 11.998 19Z" stroke="#72706D" stroke-width="2.10172"/>
<path d="M17.998 13C18.548 13 18.998 12.55 18.998 12C18.998 11.45 18.548 11 17.998 11C17.448 11 16.998 11.45 16.998 12C16.998 12.55 17.448 13 17.998 13Z" stroke="#72706D" stroke-width="2.10172"/>
<path d="M17.998 7C18.548 7 18.998 6.55 18.998 6C18.998 5.45 18.548 5 17.998 5C17.448 5 16.998 5.45 16.998 6C16.998 6.55 17.448 7 17.998 7Z" stroke="#72706D" stroke-width="2.10172"/>
<path d="M17.998 19C18.548 19 18.998 18.55 18.998 18C18.998 17.45 18.548 17 17.998 17C17.448 17 16.998 17.45 16.998 18C16.998 18.55 17.448 19 17.998 19Z" stroke="#72706D" stroke-width="2.10172"/>
</svg>
