<svg width="46" height="46" viewBox="0 0 46 46" fill="none" xmlns="http://www.w3.org/2000/svg">
<g clip-path="url(#clip0_970_1910)">
<path d="M23 46C35.7025 46 46 35.7025 46 23C46 10.2975 35.7025 0 23 0C10.2975 0 0 10.2975 0 23C0 35.7025 10.2975 46 23 46Z" fill="#FADC00" fill-opacity="0.33"/>
<path d="M23 42C33.4934 42 42 33.4934 42 23C42 12.5066 33.4934 4 23 4C12.5066 4 4 12.5066 4 23C4 33.4934 12.5066 42 23 42Z" fill="#FADC00" fill-opacity="0.35"/>
<path d="M23 38C31.2843 38 38 31.2843 38 23C38 14.7157 31.2843 8 23 8C14.7157 8 8 14.7157 8 23C8 31.2843 14.7157 38 23 38Z" fill="#FADC00"/>
<path d="M16.999 24C17.549 24 17.999 23.55 17.999 23C17.999 22.45 17.549 22 16.999 22C16.449 22 15.999 22.45 15.999 23C15.999 23.55 16.449 24 16.999 24Z" stroke="black" stroke-width="2.10172"/>
<path d="M16.999 18C17.549 18 17.999 17.55 17.999 17C17.999 16.45 17.549 16 16.999 16C16.449 16 15.999 16.45 15.999 17C15.999 17.55 16.449 18 16.999 18Z" stroke="black" stroke-width="2.10172"/>
<path d="M16.999 30C17.549 30 17.999 29.55 17.999 29C17.999 28.45 17.549 28 16.999 28C16.449 28 15.999 28.45 15.999 29C15.999 29.55 16.449 30 16.999 30Z" stroke="black" stroke-width="2.10172"/>
<path d="M22.998 24C23.548 24 23.998 23.55 23.998 23C23.998 22.45 23.548 22 22.998 22C22.448 22 21.998 22.45 21.998 23C21.998 23.55 22.448 24 22.998 24Z" stroke="black" stroke-width="2.10172"/>
<path d="M22.998 18C23.548 18 23.998 17.55 23.998 17C23.998 16.45 23.548 16 22.998 16C22.448 16 21.998 16.45 21.998 17C21.998 17.55 22.448 18 22.998 18Z" stroke="black" stroke-width="2.10172"/>
<path d="M22.998 30C23.548 30 23.998 29.55 23.998 29C23.998 28.45 23.548 28 22.998 28C22.448 28 21.998 28.45 21.998 29C21.998 29.55 22.448 30 22.998 30Z" stroke="black" stroke-width="2.10172"/>
<path d="M28.998 24C29.548 24 29.998 23.55 29.998 23C29.998 22.45 29.548 22 28.998 22C28.448 22 27.998 22.45 27.998 23C27.998 23.55 28.448 24 28.998 24Z" stroke="black" stroke-width="2.10172"/>
<path d="M28.998 18C29.548 18 29.998 17.55 29.998 17C29.998 16.45 29.548 16 28.998 16C28.448 16 27.998 16.45 27.998 17C27.998 17.55 28.448 18 28.998 18Z" stroke="black" stroke-width="2.10172"/>
<path d="M28.998 30C29.548 30 29.998 29.55 29.998 29C29.998 28.45 29.548 28 28.998 28C28.448 28 27.998 28.45 27.998 29C27.998 29.55 28.448 30 28.998 30Z" stroke="black" stroke-width="2.10172"/>
</g>
<defs>
<clipPath id="clip0_970_1910">
<rect width="46" height="46" fill="white"/>
</clipPath>
</defs>
</svg>
