<svg width="25" height="25" viewBox="0 0 25 25" fill="none" xmlns="http://www.w3.org/2000/svg">
<path d="M21.875 12.5H18.8233C18.2775 12.5 18.0046 12.5 17.7743 12.6232C17.544 12.7466 17.3926 12.9735 17.0899 13.4277L16.2434 14.6973C15.9407 15.1515 15.7894 15.3784 15.5591 15.5018C15.3287 15.625 15.0558 15.625 14.51 15.625H10.49C9.94417 15.625 9.67127 15.625 9.44097 15.5018C9.21066 15.3784 9.05928 15.1515 8.75653 14.6973L7.91014 13.4277C7.60739 12.9735 7.45601 12.7466 7.2257 12.6232C6.9954 12.5 6.7225 12.5 6.1767 12.5H3.125" stroke="#72706D" stroke-width="1.58"/>
<path d="M5.20833 9.375L3.43009 11.1532C3.23475 11.3485 3.125 11.6135 3.125 11.8898V17.7083C3.125 18.859 4.05774 19.7917 5.20833 19.7917H19.7917C20.9423 19.7917 21.875 18.859 21.875 17.7083V11.8898C21.875 11.6135 21.7652 11.3485 21.5699 11.1532L19.7917 9.375" stroke="#72706D" stroke-width="1.58" stroke-linecap="round"/>
<path d="M8.85352 7.29264L12.4993 10.4176M12.4993 10.4176L16.1452 7.29264M12.4993 10.4176V3.12598" stroke="#72706D" stroke-width="1.58"/>
</svg>
