<svg width="46" height="46" viewBox="0 0 46 46" fill="none" xmlns="http://www.w3.org/2000/svg">
<g clip-path="url(#clip0_970_1906)">
<path d="M23 46C35.7025 46 46 35.7025 46 23C46 10.2975 35.7025 0 23 0C10.2975 0 0 10.2975 0 23C0 35.7025 10.2975 46 23 46Z" fill="#FADC00" fill-opacity="0.33"/>
<path d="M23 42C33.4934 42 42 33.4934 42 23C42 12.5066 33.4934 4 23 4C12.5066 4 4 12.5066 4 23C4 33.4934 12.5066 42 23 42Z" fill="#FADC00" fill-opacity="0.35"/>
<path d="M23 38C31.2843 38 38 31.2843 38 23C38 14.7157 31.2843 8 23 8C14.7157 8 8 14.7157 8 23C8 31.2843 14.7157 38 23 38Z" fill="#FADC00"/>
<path d="M32.875 22.5H29.8233C29.2775 22.5 29.0046 22.5 28.7743 22.6232C28.544 22.7466 28.3926 22.9735 28.0899 23.4277L27.2434 24.6973C26.9407 25.1515 26.7894 25.3784 26.5591 25.5018C26.3287 25.625 26.0558 25.625 25.51 25.625H21.49C20.9442 25.625 20.6713 25.625 20.441 25.5018C20.2107 25.3784 20.0593 25.1515 19.7565 24.6973L18.9101 23.4277C18.6074 22.9735 18.456 22.7466 18.2257 22.6232C17.9954 22.5 17.7225 22.5 17.1767 22.5H14.125" stroke="black" stroke-width="1.58"/>
<path d="M16.2083 19.375L14.4301 21.1532C14.2348 21.3485 14.125 21.6135 14.125 21.8898V27.7083C14.125 28.859 15.0577 29.7917 16.2083 29.7917H30.7917C31.9423 29.7917 32.875 28.859 32.875 27.7083V21.8898C32.875 21.6135 32.7652 21.3485 32.5699 21.1532L30.7917 19.375" stroke="black" stroke-width="1.58" stroke-linecap="round"/>
<path d="M19.8535 17.2926L23.4993 20.4176M23.4993 20.4176L27.1452 17.2926M23.4993 20.4176V13.126" stroke="black" stroke-width="1.58"/>
</g>
<defs>
<clipPath id="clip0_970_1906">
<rect width="46" height="46" fill="white"/>
</clipPath>
</defs>
</svg>
