<svg width="40" height="40" viewBox="0 0 40 40" fill="none" xmlns="http://www.w3.org/2000/svg">
<path d="M39.08 21.5366C36.232 19.3126 32.656 17.9766 28.76 17.9766C19.48 17.9766 11.96 25.4966 11.96 34.7766C11.96 36.0166 12.104 37.2246 12.36 38.3926H39.08V21.5366Z" fill="#E8E8E8"/>
<path d="M38.0804 24.1926C37.6004 22.8486 36.0004 22.2646 34.6884 22.8166L22.1284 28.1446C22.4964 27.8806 22.8004 27.5126 22.9764 27.0646C23.4884 25.8006 22.8804 24.3766 21.6164 23.8646L14.8964 21.1446C13.5204 20.5846 11.9764 20.6006 10.6084 21.1846L4.85645 23.6246L8.12044 31.3206L10.7924 30.1846L19.2004 33.5846C20.0804 33.9446 21.0724 33.9366 21.9444 33.5606L36.7364 27.2806C37.3604 27.0166 37.8164 26.5206 38.0564 25.9446C38.2644 25.4086 38.2964 24.7766 38.0804 24.1926Z" fill="white"/>
<path d="M4.33583 36.1601L1.42383 23.2481L4.18383 22.0801L8.89583 33.1841L4.33583 36.1601Z" fill="#A3A3A3"/>
<path d="M26.6956 22.0718C32.1787 22.0718 36.6236 17.6269 36.6236 12.1438C36.6236 6.66074 32.1787 2.21582 26.6956 2.21582C21.2125 2.21582 16.7676 6.66074 16.7676 12.1438C16.7676 17.6269 21.2125 22.0718 26.6956 22.0718Z" fill="#E4E4E4"/>
<path d="M38.3917 25.0804C38.0717 24.9924 37.7357 25.1924 37.6557 25.5044C37.6157 25.6564 37.6397 25.8244 37.7197 25.9604C37.7997 26.0964 37.9277 26.1924 38.0797 26.2404C38.1357 26.2484 38.1837 26.2564 38.2397 26.2564C38.5037 26.2564 38.7437 26.0724 38.8157 25.8084C38.9037 25.4884 38.7117 25.1604 38.3917 25.0804Z" fill="#505050"/>
<path d="M37 26.4958C36.872 26.5918 36.736 26.6798 36.584 26.7438L21.792 33.0158C21.072 33.3198 20.24 33.3278 19.512 33.0318L11.096 29.6318C10.952 29.5678 10.784 29.5758 10.64 29.6318L8.51997 30.5358L5.72797 23.9438L10.928 21.7438C12.144 21.2238 13.536 21.2158 14.76 21.7038L21.48 24.4238C22.184 24.7118 22.648 25.3838 22.648 26.1438C22.648 26.3758 22.6 26.6158 22.504 26.8398C22.392 27.1278 22.2 27.3758 21.96 27.5678C21.736 27.5918 21.528 27.5838 21.296 27.5278C21.216 27.5118 21.144 27.4878 21.056 27.4558L15.224 25.7438C14.912 25.6478 14.568 25.8398 14.48 26.1438C14.384 26.4638 14.568 26.7998 14.88 26.8958L20.632 28.5758C20.752 28.6238 20.88 28.6638 21.016 28.6958C21.264 28.7598 21.512 28.7918 21.768 28.7918C21.952 28.7918 22.144 28.7678 22.328 28.7358C22.352 28.7278 22.376 28.7118 22.4 28.7038C22.416 28.6958 22.432 28.7038 22.448 28.6958L35.016 23.3678C35.264 23.2638 35.536 23.2078 35.808 23.2078C36.608 23.2078 37.296 23.6478 37.576 24.3198C37.696 24.6158 38.056 24.7678 38.36 24.6398C38.504 24.5838 38.624 24.4638 38.688 24.3198C38.744 24.1758 38.744 24.0078 38.688 23.8558C38.216 22.7358 37.088 22.0078 35.808 22.0078C35.368 22.0078 34.944 22.0958 34.544 22.2638L23.76 26.8398C23.816 26.6078 23.848 26.3758 23.848 26.1438C23.848 24.8958 23.096 23.7838 21.928 23.3118L15.208 20.5918C13.696 19.9838 11.96 19.9918 10.456 20.6398L5.25597 22.8478L4.83197 21.8398C4.70397 21.5438 4.34397 21.3998 4.04797 21.5278L1.28797 22.6958C1.01597 22.8078 0.871973 23.0958 0.935973 23.3758L3.83997 36.2958C3.87997 36.4878 4.01597 36.6398 4.19997 36.7198C4.27197 36.7438 4.35197 36.7598 4.42397 36.7598C4.54397 36.7598 4.65597 36.7278 4.75197 36.6638L9.31997 33.6878C9.55997 33.5278 9.65597 33.2158 9.54397 32.9518L8.98397 31.6398L10.88 30.8398L19.056 34.1438C19.56 34.3518 20.088 34.4558 20.632 34.4558C21.192 34.4558 21.744 34.3438 22.264 34.1198L37.056 27.8478C37.296 27.7438 37.528 27.6078 37.736 27.4398C38 27.2398 38.048 26.8638 37.84 26.5998C37.648 26.3438 37.256 26.2958 37 26.4958ZM4.82397 35.1838L2.21597 23.5998L3.95997 22.8638L4.38397 23.8638C4.38397 23.8638 7.65597 31.5758 7.66397 31.5758L8.24797 32.9598L4.82397 35.1838Z" fill="#505050"/>
<path d="M26.7917 22.6802C32.5997 22.6802 37.3277 17.9522 37.3277 12.1442C37.3277 6.33621 32.5997 1.61621 26.7917 1.61621C20.9837 1.61621 16.2637 6.33621 16.2637 12.1442C16.2637 17.9522 20.9837 22.6802 26.7917 22.6802ZM26.7917 2.81621C31.9357 2.81621 36.1277 7.00021 36.1277 12.1442C36.1277 17.2882 31.9437 21.4802 26.7917 21.4802C21.6397 21.4802 17.4557 17.2962 17.4557 12.1442C17.4637 7.00021 21.6477 2.81621 26.7917 2.81621Z" fill="#505050"/>
<path d="M21.9357 13.1845C21.9357 13.5125 22.2077 13.7845 22.5357 13.7845H23.3357C23.5757 14.4805 23.9677 15.1285 24.5197 15.6805C25.4797 16.6405 26.7517 17.1525 28.0477 17.1525C28.5757 17.1525 29.1037 17.0725 29.6157 16.8965C29.9277 16.7925 30.1037 16.4565 29.9997 16.1365C29.8957 15.8245 29.5597 15.6485 29.2397 15.7525C27.8717 16.2005 26.3837 15.8485 25.3597 14.8245C25.0477 14.5125 24.8157 14.1525 24.6397 13.7765H28.3597C28.6877 13.7765 28.9597 13.5045 28.9597 13.1765C28.9597 12.8485 28.6877 12.5765 28.3597 12.5765H24.2957C24.2637 12.2805 24.2637 11.9845 24.2957 11.6965H28.3597C28.6877 11.6965 28.9597 11.4245 28.9597 11.0965C28.9597 10.7685 28.6877 10.4965 28.3597 10.4965H24.6397C24.8237 10.1205 25.0477 9.76055 25.3597 9.44855C26.3837 8.42455 27.8717 8.07255 29.2397 8.52055C29.5517 8.62455 29.8957 8.45655 29.9997 8.13655C30.1037 7.82455 29.9357 7.48055 29.6157 7.37655C27.8157 6.77655 25.8637 7.24855 24.5117 8.59255C23.9597 9.14455 23.5677 9.79255 23.3277 10.4885H22.5277C22.1997 10.4885 21.9277 10.7605 21.9277 11.0885C21.9277 11.4165 22.1997 11.6885 22.5277 11.6885H23.0717C23.0477 11.9845 23.0477 12.2805 23.0717 12.5685H22.5277C22.2077 12.5845 21.9357 12.8565 21.9357 13.1845Z" fill="#505050"/>
</svg>
