<svg width="40" height="40" viewBox="0 0 40 40" fill="none" xmlns="http://www.w3.org/2000/svg">
<path d="M39.1041 15.2C37.4721 14.672 35.7281 14.376 33.9201 14.376C24.6401 14.376 17.1201 21.896 17.1201 31.176C17.1201 33.632 17.6561 35.96 18.6081 38.064H39.1041V15.2Z" fill="#E8E8E8"/>
<path d="M33.3922 2.53613H6.40822C5.53622 2.53613 4.82422 3.24813 4.82422 4.12013V22.9041H34.9682V4.12013C34.9682 3.25613 34.2642 2.53613 33.3922 2.53613Z" fill="#D4D4D4"/>
<path d="M38.3039 27.9601H1.50391L4.83191 22.9121H34.9679L38.3039 27.9601Z" fill="#CDCDCD"/>
<path d="M38.3039 27.96H1.50391V31.16H38.3039V27.96Z" fill="#EAEAEA"/>
<path d="M12.7841 17.2637H10.2881V20.9117H12.7841V17.2637Z" fill="white"/>
<path d="M17.8876 14.8877H15.3916V20.9117H17.8876V14.8877Z" fill="#EBEBEB"/>
<path d="M22.9921 11.7363H20.4961V20.9123H22.9921V11.7363Z" fill="white"/>
<path d="M28.6884 8.16016H26.1924V20.9122H28.6884V8.16016Z" fill="#EBEBEB"/>
<path d="M4.83242 16.0564C5.16379 16.0564 5.43242 15.7878 5.43242 15.4564C5.43242 15.1251 5.16379 14.8564 4.83242 14.8564C4.50105 14.8564 4.23242 15.1251 4.23242 15.4564C4.23242 15.7878 4.50105 16.0564 4.83242 16.0564Z" fill="#505050"/>
<path d="M38.8963 27.9443C38.8963 27.9283 38.8883 27.9123 38.8883 27.8963C38.8803 27.8163 38.8563 27.7363 38.8163 27.6723C38.8083 27.6643 38.8083 27.6483 38.8003 27.6323L35.5683 22.7283V6.94434C35.5763 6.92834 35.5763 6.91234 35.5763 6.90434C35.5763 6.89634 35.5763 6.89634 35.5683 6.88834V4.12034C35.5683 2.92034 34.5923 1.94434 33.3923 1.94434H6.4163C5.2083 1.94434 4.2323 2.92034 4.2323 4.12034V13.8563C4.2323 14.1923 4.5043 14.4563 4.8323 14.4563C5.1603 14.4563 5.4323 14.1923 5.4323 13.8563V4.12034C5.4323 3.58434 5.8723 3.14434 6.4163 3.13634H33.3923C33.9283 3.14434 34.3683 3.58434 34.3683 4.12034V6.90434C34.3683 6.92034 34.3763 6.92834 34.3763 6.94434L34.3683 22.3123H5.4323V17.0563C5.4323 16.7283 5.1603 16.4563 4.8323 16.4563C4.5043 16.4563 4.2403 16.7203 4.2323 17.0483V17.0563V22.7283L1.0003 27.6323C0.992297 27.6403 0.992297 27.6563 0.984297 27.6723C0.944297 27.7443 0.920297 27.8163 0.912297 27.8963C0.912297 27.9123 0.904297 27.9283 0.904297 27.9443C0.904297 27.9523 0.904297 27.9523 0.904297 27.9603V31.1603C0.904297 31.4883 1.1763 31.7603 1.5043 31.7603H38.3043C38.6323 31.7603 38.9043 31.4883 38.9043 31.1603V27.9603C38.9043 27.9523 38.8963 27.9523 38.8963 27.9443ZM5.1523 23.5123H34.6483L37.1843 27.3603H2.6163L5.1523 23.5123ZM37.7043 30.5603H2.1043V28.5603H37.7043V30.5603Z" fill="#505050"/>
<path d="M9.68848 17.2641V20.9121C9.68848 21.2401 9.96048 21.5121 10.2885 21.5121H12.7845C13.1125 21.5121 13.3845 21.2401 13.3845 20.9121V17.2641C13.3845 16.9361 13.1125 16.6641 12.7845 16.6641H10.2885C9.96048 16.6641 9.68848 16.9361 9.68848 17.2641ZM10.8885 17.8641H12.1845V20.3121H10.8885V17.8641Z" fill="#505050"/>
<path d="M15.392 14.2881C15.064 14.2881 14.792 14.5601 14.792 14.8881V20.9121C14.792 21.2401 15.064 21.5121 15.392 21.5121H17.888C18.216 21.5121 18.488 21.2401 18.488 20.9121V14.8881C18.488 14.5601 18.216 14.2881 17.888 14.2881H15.392ZM17.288 20.3121H15.992V15.4881H17.288V20.3121Z" fill="#505050"/>
<path d="M20.4965 11.1367C20.1685 11.1367 19.8965 11.4087 19.8965 11.7367V20.9127C19.8965 21.2407 20.1685 21.5127 20.4965 21.5127H22.9925C23.3205 21.5127 23.5925 21.2407 23.5925 20.9127V11.7367C23.5925 11.4087 23.3205 11.1367 22.9925 11.1367H20.4965ZM22.3925 20.3127H21.0965V12.3367H22.3925V20.3127Z" fill="#505050"/>
<path d="M28.6888 21.5125C29.0168 21.5125 29.2888 21.2405 29.2888 20.9125V8.16055C29.2888 7.83255 29.0168 7.56055 28.6888 7.56055H26.1928C25.8648 7.56055 25.5928 7.83255 25.5928 8.16055V20.9125C25.5928 21.2405 25.8648 21.5125 26.1928 21.5125H28.6888ZM26.7928 8.76055H28.0888V20.3125H26.7928V8.76055Z" fill="#505050"/>
<path d="M11.8961 14.1365C12.0161 14.2965 12.2001 14.3845 12.3841 14.3845C12.5041 14.3845 12.6321 14.3445 12.7361 14.2645L22.0721 7.43254L21.9201 8.40054C21.8721 8.72854 22.0961 9.03254 22.4241 9.08854C22.4561 9.09654 22.4881 9.09654 22.5201 9.09654C22.8081 9.09654 23.0641 8.88854 23.1121 8.58454L23.4801 6.18454C23.5281 5.85654 23.3041 5.55254 22.9761 5.49654L20.5761 5.12854C20.2561 5.08054 19.9441 5.30454 19.8881 5.63254C19.8401 5.96054 20.0641 6.26454 20.3921 6.32054L21.3601 6.47254L12.0241 13.3045C11.7521 13.4965 11.6961 13.8645 11.8961 14.1365Z" fill="#505050"/>
</svg>
