<svg width="40" height="40" viewBox="0 0 40 40" fill="none" xmlns="http://www.w3.org/2000/svg">
<g clip-path="url(#clip0_787_2291)">
<path d="M15.8887 1.7043C15.8887 10.9843 23.4087 18.5043 32.6887 18.5043C34.9607 18.5043 37.1207 18.0483 39.0967 17.2323V0.904297H15.9287C15.9207 1.1683 15.8887 1.4323 15.8887 1.7043Z" fill="#EAEAEA"/>
<path d="M28.6642 38.4964C33.9838 38.4964 38.2962 34.184 38.2962 28.8644C38.2962 23.5448 33.9838 19.2324 28.6642 19.2324C23.3446 19.2324 19.0322 23.5448 19.0322 28.8644C19.0322 34.184 23.3446 38.4964 28.6642 38.4964Z" fill="#EBEBEB"/>
<path d="M28.6636 36.0958C24.6796 36.0958 21.4316 32.8478 21.4316 28.8638C21.4316 24.8798 24.6796 21.6318 28.6636 21.6318C32.6556 21.6318 35.8956 24.8798 35.8956 28.8638C35.8956 32.8478 32.6556 36.0958 28.6636 36.0958Z" fill="#E4E4E4"/>
<path d="M20.4879 23.7843C19.5599 25.2643 19.0319 27.0003 19.0319 28.8723C19.0319 30.7443 19.5599 32.4803 20.4879 33.9603C20.6879 34.2963 20.9119 34.6083 21.1599 34.9123C22.6399 36.7523 24.7839 38.0323 27.2239 38.4003C27.0319 38.4723 26.8239 38.5043 26.5999 38.5043H3.34391C2.31991 38.5043 1.50391 37.6803 1.50391 36.6563V3.54429C1.50391 2.52029 2.31991 1.69629 3.34391 1.69629H26.6079C27.6319 1.69629 28.4559 2.52029 28.4559 3.54429V19.2403C26.1919 19.2883 24.1199 20.1203 22.4959 21.4803C21.7039 22.1283 21.0239 22.9043 20.4879 23.7843Z" fill="white"/>
<path d="M26.0721 4.07227H3.87207V10.6003H26.0721V4.07227Z" fill="#D4D4D4"/>
<path d="M9.45607 13.6406H3.87207V19.2246H9.45607V13.6406Z" fill="#D4D4D4"/>
<path d="M17.7676 13.6406H12.1836V19.2246H17.7676V13.6406Z" fill="#D4D4D4"/>
<path d="M26.0723 13.6406H20.4883V19.2246H26.0723V13.6406Z" fill="#D4D4D4"/>
<path d="M9.45607 21.4805H3.87207V27.0645H9.45607V21.4805Z" fill="#FFFEF1"/>
<path d="M17.7676 21.4805H12.1836V27.0645H17.7676V21.4805Z" fill="#FFFEF1"/>
<path d="M9.45607 29.3203H3.87207V34.9043H9.45607V29.3203Z" fill="#FFFEF1"/>
<path d="M17.7676 29.3203H12.1836V34.9043H17.7676V29.3203Z" fill="#FFFEF1"/>
<path d="M29.0483 18.6567V3.54468C29.0483 2.20068 27.9523 1.09668 26.6003 1.09668H3.3443C2.0003 1.09668 0.904297 2.20068 0.904297 3.54468V30.8087C0.904297 31.1447 1.1683 31.4087 1.5043 31.4087C1.8323 31.4087 2.1043 31.1447 2.1043 30.8087C2.1043 30.8087 2.1043 30.8007 2.0963 30.8007V3.54468C2.1043 2.84868 2.6483 2.29668 3.3443 2.29668H25.1363C25.1523 2.29668 25.1683 2.30468 25.1923 2.29668H26.6003C27.2883 2.29668 27.8483 2.85668 27.8483 3.54468V18.6727C27.4483 18.7047 27.0563 18.7527 26.6723 18.8327V13.6407C26.6723 13.3127 26.4003 13.0407 26.0723 13.0407H20.4883C20.1603 13.0407 19.8883 13.3127 19.8883 13.6407V19.2247C19.8883 19.5527 20.1603 19.8247 20.4883 19.8247H23.8963C20.6483 21.5447 18.4323 24.9527 18.4323 28.8727C18.4323 32.7847 20.6403 36.1847 23.8643 37.9047H3.3443C2.6483 37.9047 2.1043 37.3607 2.0963 36.6647V34.0167C2.0963 33.6887 1.8323 33.4167 1.5043 33.4167C1.1683 33.4167 0.904297 33.6887 0.904297 34.0167V36.6647C0.904297 38.0087 2.0003 39.1047 3.3443 39.1047H26.6003C26.7523 39.1047 26.8883 39.0487 26.9923 38.9527C27.5363 39.0407 28.0963 39.1047 28.6723 39.1047C34.3123 39.1047 38.9043 34.5127 38.9043 28.8727C38.8963 23.3527 34.5123 18.8567 29.0483 18.6567ZM21.0883 14.2407H25.4723V18.6247H21.0883V14.2407ZM28.6643 37.8967C23.6803 37.8967 19.6323 33.8487 19.6323 28.8647C19.6323 23.8807 23.6803 19.8327 28.6643 19.8327C33.6483 19.8327 37.6963 23.8807 37.6963 28.8647C37.6963 33.8487 33.6483 37.8967 28.6643 37.8967Z" fill="#505050"/>
<path d="M28.664 21.0322C24.344 21.0322 20.832 24.5442 20.832 28.8642C20.832 33.1842 24.344 36.6962 28.664 36.6962C32.984 36.6962 36.496 33.1842 36.496 28.8642C36.496 24.5442 32.984 21.0322 28.664 21.0322ZM28.664 35.4962C25.008 35.4962 22.032 32.5202 22.032 28.8642C22.032 25.2082 25.008 22.2322 28.664 22.2322C32.32 22.2322 35.296 25.2082 35.296 28.8642C35.296 32.5202 32.32 35.4962 28.664 35.4962Z" fill="#505050"/>
<path d="M28.6642 25.809C29.3442 25.809 29.8962 26.361 29.8962 27.033C29.8962 27.361 30.1682 27.633 30.4962 27.633C30.8242 27.633 31.0962 27.361 31.0962 27.033C31.0962 25.905 30.3122 24.961 29.2642 24.689V24.265C29.2642 23.937 28.9922 23.665 28.6642 23.665C28.3362 23.665 28.0642 23.937 28.0642 24.265V24.689C27.0162 24.961 26.2402 25.905 26.2402 27.033C26.2402 28.369 27.3282 29.465 28.6642 29.465C29.3442 29.465 29.8962 30.017 29.8962 30.689C29.8962 31.369 29.3442 31.921 28.6642 31.921C27.9842 31.921 27.4402 31.369 27.4402 30.689C27.4402 30.361 27.1682 30.089 26.8402 30.089C26.5122 30.089 26.2402 30.361 26.2402 30.689C26.2402 31.817 27.0162 32.761 28.0642 33.033V33.457C28.0642 33.785 28.3362 34.057 28.6642 34.057C28.9922 34.057 29.2642 33.785 29.2642 33.457V33.041C30.3122 32.769 31.0962 31.825 31.0962 30.697C31.0962 29.361 30.0082 28.273 28.6642 28.273C27.9842 28.273 27.4402 27.721 27.4402 27.041C27.4402 26.361 27.9842 25.809 28.6642 25.809Z" fill="#505050"/>
<path d="M1.5043 33.0086C1.8323 33.0086 2.0963 32.7366 2.0963 32.4086C2.0963 32.0806 1.8323 31.8086 1.5043 31.8086C1.1683 31.8086 0.904297 32.0806 0.904297 32.4086C0.904297 32.7366 1.1683 33.0086 1.5043 33.0086Z" fill="#505050"/>
<path d="M26.6725 10.6007V4.07266C26.6725 3.74466 26.4005 3.47266 26.0725 3.47266H3.87246C3.54446 3.47266 3.27246 3.74466 3.27246 4.07266V10.6007C3.27246 10.9287 3.54446 11.2007 3.87246 11.2007H26.0725C26.4005 11.2007 26.6725 10.9287 26.6725 10.6007ZM25.4725 10.0007H4.47246V4.67266H25.4725V10.0007Z" fill="#505050"/>
<path d="M3.27246 19.225C3.27246 19.553 3.54446 19.825 3.87246 19.825H9.45646C9.78446 19.825 10.0565 19.553 10.0565 19.225V13.641C10.0565 13.313 9.78446 13.041 9.45646 13.041H3.87246C3.54446 13.041 3.27246 13.313 3.27246 13.641V19.225ZM4.47246 14.241H8.85646V18.625H4.47246V14.241Z" fill="#505050"/>
<path d="M18.3602 13.641C18.3602 13.313 18.0882 13.041 17.7602 13.041H12.1762C11.8482 13.041 11.5762 13.313 11.5762 13.641V19.225C11.5762 19.553 11.8482 19.825 12.1762 19.825H17.7602C18.0882 19.825 18.3602 19.553 18.3602 19.225V13.641ZM17.1602 18.625H12.7762V14.241H17.1602V18.625Z" fill="#505050"/>
<path d="M3.27246 27.0649C3.27246 27.3929 3.54446 27.6649 3.87246 27.6649H9.45646C9.78446 27.6649 10.0565 27.3929 10.0565 27.0649V21.4809C10.0565 21.1529 9.78446 20.8809 9.45646 20.8809H3.87246C3.54446 20.8809 3.27246 21.1529 3.27246 21.4809V27.0649ZM4.47246 22.0809H8.85646V26.4649H4.47246V22.0809Z" fill="#505050"/>
<path d="M18.3602 21.4809C18.3602 21.1529 18.0882 20.8809 17.7602 20.8809H12.1762C11.8482 20.8809 11.5762 21.1529 11.5762 21.4809V27.0649C11.5762 27.3929 11.8482 27.6649 12.1762 27.6649H17.7602C18.0882 27.6649 18.3602 27.3929 18.3602 27.0649V21.4809ZM17.1602 26.4649H12.7762V22.0809H17.1602V26.4649Z" fill="#505050"/>
<path d="M3.27246 34.9047C3.27246 35.2327 3.54446 35.5047 3.87246 35.5047H9.45646C9.78446 35.5047 10.0565 35.2327 10.0565 34.9047V29.3207C10.0565 28.9927 9.78446 28.7207 9.45646 28.7207H3.87246C3.54446 28.7207 3.27246 28.9927 3.27246 29.3207V34.9047ZM4.47246 29.9207H8.85646V34.3047H4.47246V29.9207Z" fill="#505050"/>
<path d="M17.7602 28.7207H12.1762C11.8482 28.7207 11.5762 28.9927 11.5762 29.3207V34.9047C11.5762 35.2327 11.8482 35.5047 12.1762 35.5047H17.7602C18.0882 35.5047 18.3602 35.2327 18.3602 34.9047V29.3207C18.3602 28.9847 18.0962 28.7207 17.7602 28.7207ZM17.1602 34.3047H12.7762V29.9207H17.1602V34.3047Z" fill="#505050"/>
</g>
<defs>
<clipPath id="clip0_787_2291">
<rect width="40" height="40" fill="white"/>
</clipPath>
</defs>
</svg>
