<svg width="40" height="40" viewBox="0 0 40 40" fill="none" xmlns="http://www.w3.org/2000/svg">
<path d="M14.1444 10.6729C9.65636 10.6729 5.58436 12.4489 2.56836 15.3129V39.0968H26.2484C29.1524 36.0808 30.9444 31.9849 30.9444 27.4649C30.9444 18.1929 23.4244 10.6729 14.1444 10.6729Z" fill="#E5E5E5"/>
<path d="M13.0959 35.4969H6.71191V1.50488H32.8159V4.30488" fill="#D4D4D4"/>
<path d="M36.8237 4.30469H13.0957V38.2967H36.8237V4.30469Z" fill="white"/>
<path d="M13.0961 27.0322C12.7681 27.0322 12.4961 27.2962 12.4961 27.6322C12.4961 27.9602 12.7681 28.2242 13.0961 28.2242C13.4241 28.2242 13.6961 27.9602 13.6961 27.6322C13.6961 27.2962 13.4241 27.0322 13.0961 27.0322Z" fill="#505050"/>
<path d="M37.2561 3.88048C37.1441 3.76848 36.9841 3.70448 36.8241 3.70448H33.4161V1.49648C33.4161 1.16848 33.1441 0.896484 32.8161 0.896484H6.72012C6.39212 0.896484 6.12012 1.16848 6.12012 1.49648V35.4885C6.12012 35.8165 6.39212 36.0885 6.72012 36.0885H12.5041V38.2965C12.5041 38.4565 12.5681 38.6085 12.6801 38.7205C12.7921 38.8325 12.9441 38.8965 13.1041 38.8965H36.8321C37.0001 38.8965 37.1441 38.8325 37.2561 38.7205C37.3681 38.6085 37.4321 38.4565 37.4321 38.2965V10.8885C37.4321 10.8725 37.4321 10.8645 37.4321 10.8485V4.30448C37.4241 4.14448 37.3601 3.99248 37.2561 3.88048ZM36.2241 37.6965H13.6961V35.4965C13.6961 35.4965 13.6961 35.4965 13.6961 35.4885C13.6961 35.4805 13.6961 35.4885 13.6961 35.4805V29.2245C13.6961 28.8885 13.4241 28.6245 13.0961 28.6245C12.7681 28.6245 12.4961 28.8885 12.4961 29.2245V34.8805H7.32012V2.09648H32.2241V3.70448H13.1041C12.9441 3.70448 12.7921 3.76848 12.6801 3.88048C12.5681 3.99248 12.5041 4.14448 12.5041 4.30448V26.0325C12.5041 26.3605 12.7761 26.6325 13.1041 26.6325C13.4321 26.6325 13.7041 26.3605 13.7041 26.0325V4.90448H36.2321V37.6965H36.2241Z" fill="#505050"/>
<path d="M24.4643 10.616H33.5283C33.8563 10.616 34.1283 10.344 34.1283 10.016C34.1283 9.68802 33.8563 9.41602 33.5283 9.41602H24.4643C24.1363 9.41602 23.8643 9.68802 23.8643 10.016C23.8643 10.344 24.1283 10.616 24.4643 10.616Z" fill="#505050"/>
<path d="M24.4643 14.448H33.5283C33.8563 14.448 34.1283 14.176 34.1283 13.848C34.1283 13.52 33.8563 13.248 33.5283 13.248H24.4643C24.1363 13.248 23.8643 13.52 23.8643 13.848C23.8643 14.176 24.1283 14.448 24.4643 14.448Z" fill="#505050"/>
<path d="M24.4643 18.2723H33.5283C33.8563 18.2723 34.1283 18.0003 34.1283 17.6723C34.1283 17.3443 33.8563 17.0723 33.5283 17.0723H24.4643C24.1363 17.0723 23.8643 17.3443 23.8643 17.6723C23.8643 18.0003 24.1283 18.2723 24.4643 18.2723Z" fill="#505050"/>
<path d="M16.3998 22.1043H33.5278C33.8558 22.1043 34.1278 21.8323 34.1278 21.5043C34.1278 21.1763 33.8558 20.9043 33.5278 20.9043H16.3998C16.0718 20.9043 15.7998 21.1763 15.7998 21.5043C15.7998 21.8323 16.0718 22.1043 16.3998 22.1043Z" fill="#505050"/>
<path d="M16.3998 25.9363H33.5278C33.8558 25.9363 34.1278 25.6643 34.1278 25.3363C34.1278 25.0083 33.8558 24.7363 33.5278 24.7363H16.3998C16.0718 24.7363 15.7998 25.0083 15.7998 25.3363C15.7998 25.6643 16.0718 25.9363 16.3998 25.9363Z" fill="#505050"/>
<path d="M16.3998 29.7684H28.0238C28.3518 29.7684 28.6238 29.4964 28.6238 29.1684C28.6238 28.8404 28.3518 28.5684 28.0238 28.5684H16.3998C16.0718 28.5684 15.7998 28.8404 15.7998 29.1684C15.7998 29.4964 16.0718 29.7684 16.3998 29.7684Z" fill="#505050"/>
<path d="M16.3998 33.2889H28.0238C28.3518 33.2889 28.6238 33.0169 28.6238 32.6889C28.6238 32.3609 28.3518 32.0889 28.0238 32.0889H16.3998C16.0718 32.0889 15.7998 32.3609 15.7998 32.6889C15.7998 33.0169 16.0718 33.2889 16.3998 33.2889Z" fill="#505050"/>
<path d="M18.9125 15.9208C18.3445 15.9208 17.8885 15.4648 17.8885 14.8968C17.8885 14.5688 17.6165 14.2968 17.2885 14.2968C16.9605 14.2968 16.6885 14.5688 16.6885 14.8968C16.6885 15.9128 17.3765 16.7608 18.3125 17.0248V17.3528C18.3125 17.6808 18.5845 17.9528 18.9125 17.9528C19.2405 17.9528 19.5125 17.6808 19.5125 17.3528V17.0248C20.4485 16.7608 21.1365 15.9128 21.1365 14.8968C21.1365 13.6728 20.1365 12.6728 18.9125 12.6728C18.3445 12.6728 17.8885 12.2168 17.8885 11.6488C17.8885 11.0808 18.3445 10.6248 18.9125 10.6248C19.4805 10.6248 19.9365 11.0808 19.9365 11.6488C19.9365 11.9768 20.2085 12.2488 20.5365 12.2488C20.8645 12.2488 21.1365 11.9768 21.1365 11.6488C21.1365 10.6328 20.4485 9.78477 19.5125 9.52077V9.19277C19.5125 8.86477 19.2405 8.59277 18.9125 8.59277C18.5845 8.59277 18.3125 8.86477 18.3125 9.19277V9.52077C17.3765 9.78477 16.6885 10.6328 16.6885 11.6488C16.6885 12.8728 17.6885 13.8728 18.9125 13.8728C19.4805 13.8728 19.9365 14.3288 19.9365 14.8968C19.9365 15.4648 19.4805 15.9208 18.9125 15.9208Z" fill="#505050"/>
</svg>
