<svg width="40" height="40" viewBox="0 0 40 40" fill="none" xmlns="http://www.w3.org/2000/svg">
<path d="M31.8238 35.1043C31.8238 27.4163 25.7119 20.9843 18.0239 20.9043C17.9679 20.9043 17.9039 20.9043 17.8479 20.9043C8.56785 20.9043 1.04785 28.4243 1.04785 37.7043C1.04785 38.1763 1.07985 38.6403 1.11985 39.1043H31.8238V35.1043Z" fill="#E8E8E8"/>
<path d="M9.49614 28.0967H4.74414V32.8487H9.49614V28.0967Z" fill="black"/>
<path d="M20.5356 5.08105H26.4396V38.3051H2.14355V5.08105H8.04755" fill="white"/>
<path d="M20.7992 6.58488H7.7832L8.4072 3.08088H12.7192C12.7192 2.20088 13.4312 1.50488 14.2952 1.50488C15.1672 1.50488 15.8712 2.20888 15.8712 3.08088H20.1832L20.7992 6.58488Z" fill="#C6C6C6"/>
<path d="M9.49614 11.6562H4.74414V16.4083H9.49614V11.6562Z" fill="#D4D4D4"/>
<path d="M9.49614 19.8809H4.74414V24.6329H9.49614V19.8809Z" fill="#D4D4D4"/>
<path d="M9.49614 28.0967H4.74414V32.8487H9.49614V28.0967Z" fill="#D4D4D4"/>
<path d="M30.4883 8.30497V28.977L33.0003 34.009L35.5123 28.977V8.30497C35.5123 6.92097 34.3843 5.79297 33.0003 5.79297C31.6083 5.79297 30.4883 6.92097 30.4883 8.30497Z" fill="#BABABA"/>
<path d="M30.4883 28.8164V28.9764L33.0003 34.0084L35.5123 28.9764V28.8164H30.4883Z" fill="white"/>
<path d="M4.15234 32.8481C4.15234 33.1761 4.42434 33.4481 4.75234 33.4481H9.50434C9.83234 33.4481 10.1043 33.1761 10.1043 32.8481V28.0961C10.1043 27.7681 9.83234 27.4961 9.50434 27.4961H4.75234C4.42434 27.4961 4.15234 27.7681 4.15234 28.0961V32.8481ZM5.35234 28.6961H8.90434V32.2481H5.35234V28.6961Z" fill="#505050"/>
<path d="M23.6399 28.7924C23.6399 28.4644 23.3679 28.1924 23.0399 28.1924H12.2719C11.9439 28.1924 11.6719 28.4644 11.6719 28.7924C11.6719 29.1204 11.9439 29.3924 12.2719 29.3924H23.0399C23.3759 29.3924 23.6399 29.1204 23.6399 28.7924Z" fill="#505050"/>
<path d="M12.2719 30.8643C11.9439 30.8643 11.6719 31.1363 11.6719 31.4643C11.6719 31.7923 11.9439 32.0643 12.2719 32.0643H16.9119C17.2399 32.0643 17.5119 31.7923 17.5119 31.4643C17.5119 31.1363 17.2399 30.8643 16.9119 30.8643H12.2719Z" fill="#505050"/>
<path d="M26.4477 35.7684C26.779 35.7684 27.0477 35.4997 27.0477 35.1684C27.0477 34.837 26.779 34.5684 26.4477 34.5684C26.1163 34.5684 25.8477 34.837 25.8477 35.1684C25.8477 35.4997 26.1163 35.7684 26.4477 35.7684Z" fill="#505050"/>
<path d="M26.4479 4.48048H21.0479L20.7759 2.96848C20.7199 2.68848 20.4719 2.47248 20.1839 2.47248H16.3919C16.1279 1.54448 15.2639 0.896484 14.2959 0.896484C13.3199 0.896484 12.4639 1.54448 12.1999 2.47248H8.40795C8.11195 2.47248 7.86395 2.68848 7.81595 2.96848L7.54395 4.48048H2.14395C1.98395 4.48048 1.83195 4.54448 1.71995 4.65648C1.60795 4.76848 1.54395 4.92048 1.54395 5.08048V38.2965C1.54395 38.4565 1.60795 38.6085 1.71995 38.7205C1.83195 38.8325 1.98395 38.8965 2.14395 38.8965H26.4479C26.6079 38.8965 26.7599 38.8325 26.8719 38.7205C26.9839 38.6085 27.0479 38.4565 27.0479 38.2965V36.7685C27.0479 36.4405 26.7759 36.1685 26.4479 36.1685C26.1119 36.1685 25.8479 36.4405 25.8479 36.7685V37.6965H2.74395V5.68048H7.33595L7.19195 6.47248C7.15995 6.64848 7.20795 6.82448 7.32795 6.96048C7.43995 7.09648 7.60795 7.17648 7.78395 7.17648H20.8079C20.9839 7.17648 21.1519 7.09648 21.2639 6.96048C21.3759 6.82448 21.4239 6.64848 21.3999 6.47248L21.2559 5.68048H25.8479V33.5685C25.8479 33.9045 26.1119 34.1685 26.4479 34.1685C26.7759 34.1685 27.0479 33.9045 27.0479 33.5685V5.08048C27.0479 4.92048 26.9839 4.76848 26.8719 4.65648C26.7519 4.54448 26.6079 4.48048 26.4479 4.48048ZM8.49595 5.97648L8.91195 3.67248H12.7119C12.8799 3.67248 13.0239 3.61648 13.1359 3.49648C13.2559 3.38448 13.3119 3.24048 13.3119 3.07248C13.3119 2.53648 13.7519 2.09648 14.2959 2.09648C14.8319 2.09648 15.2719 2.53648 15.2719 3.07248C15.2719 3.23248 15.3359 3.39248 15.4479 3.49648C15.5599 3.60848 15.7119 3.67248 15.8719 3.67248H19.6799L20.0879 5.97648H8.49595Z" fill="#505050"/>
<path d="M4.75234 17.0008H9.49634C9.65634 17.0008 9.80834 16.9368 9.92034 16.8248C10.0323 16.7128 10.0963 16.5608 10.0963 16.4008V11.6488C10.0963 11.4888 10.0323 11.3368 9.92034 11.2248C9.80834 11.1128 9.65634 11.0488 9.49634 11.0488H4.75234C4.59234 11.0488 4.44034 11.1128 4.32834 11.2248C4.21634 11.3368 4.15234 11.4888 4.15234 11.6488V16.4008C4.15234 16.5528 4.21634 16.7128 4.32834 16.8248C4.44034 16.9368 4.59234 17.0008 4.75234 17.0008ZM5.34434 12.2488H8.89634V15.8008H5.34434V12.2488Z" fill="#505050"/>
<path d="M12.2719 12.9441H23.0399C23.3759 12.9441 23.6399 12.6721 23.6399 12.3441C23.6399 12.0081 23.3759 11.7441 23.0399 11.7441H12.2719C11.9439 11.7441 11.6719 12.0081 11.6719 12.3441C11.6719 12.6721 11.9439 12.9441 12.2719 12.9441Z" fill="#505050"/>
<path d="M12.2719 15.616H16.9199C17.2479 15.616 17.5199 15.344 17.5199 15.016C17.5199 14.68 17.2479 14.416 16.9199 14.416H12.2719C11.9439 14.416 11.6719 14.68 11.6719 15.016C11.6719 15.344 11.9439 15.616 12.2719 15.616Z" fill="#505050"/>
<path d="M4.15234 24.6245C4.15234 24.7845 4.21634 24.9365 4.32834 25.0485C4.43234 25.1605 4.59234 25.2245 4.75234 25.2245H9.49634C9.65634 25.2245 9.80834 25.1605 9.92034 25.0485C10.0323 24.9365 10.0963 24.7845 10.0963 24.6245V19.8725C10.0963 19.7125 10.0323 19.5605 9.92034 19.4485C9.80834 19.3365 9.65634 19.2725 9.49634 19.2725H4.75234C4.59234 19.2725 4.43234 19.3365 4.32834 19.4485C4.21634 19.5605 4.15234 19.7125 4.15234 19.8725V24.6245ZM5.34434 20.4725H8.89634V24.0245H5.34434V20.4725Z" fill="#505050"/>
<path d="M12.2719 21.1688H23.0399C23.3759 21.1688 23.6399 20.8968 23.6399 20.5688C23.6399 20.2328 23.3759 19.9688 23.0399 19.9688H12.2719C11.9439 19.9688 11.6719 20.2328 11.6719 20.5688C11.6719 20.8968 11.9439 21.1688 12.2719 21.1688Z" fill="#505050"/>
<path d="M12.2719 23.8406H16.9199C17.2479 23.8406 17.5199 23.5686 17.5199 23.2406C17.5199 22.9046 17.2479 22.6406 16.9199 22.6406H12.2719C11.9439 22.6406 11.6719 22.9046 11.6719 23.2406C11.6719 23.5686 11.9439 23.8406 12.2719 23.8406Z" fill="#505050"/>
<path d="M35.5121 25.4969C35.8435 25.4969 36.1121 25.2282 36.1121 24.8969C36.1121 24.5655 35.8435 24.2969 35.5121 24.2969C35.1807 24.2969 34.9121 24.5655 34.9121 24.8969C34.9121 25.2282 35.1807 25.4969 35.5121 25.4969Z" fill="#505050"/>
<path d="M38.7757 10.2244C38.6637 10.1124 38.5117 10.0484 38.3517 10.0484H36.1117V8.30438C36.1117 6.58438 34.7197 5.19238 32.9997 5.19238C31.2877 5.19238 29.8877 6.58438 29.8877 8.30438V28.9844L29.8957 29.0244C29.9037 29.0964 29.9197 29.1684 29.9437 29.2324V29.2484L32.4557 34.2804C32.5597 34.4884 32.7677 34.6084 32.9917 34.6084C33.2237 34.6084 33.4317 34.4884 33.5277 34.2804L36.0477 29.2404V29.2244C36.0797 29.1524 36.1037 29.0724 36.1037 28.9844V26.5044C36.1037 26.1684 35.8397 25.9044 35.5037 25.9044C35.1757 25.9044 34.9037 26.1684 34.9037 26.5044V28.3844H31.0797V11.2484H34.9037V23.2964C34.9037 23.6244 35.1757 23.8964 35.5037 23.8964C35.8397 23.8964 36.1037 23.6244 36.1037 23.2964V11.2484H37.7437V20.4404C37.7437 20.7764 38.0157 21.0404 38.3437 21.0404C38.6717 21.0404 38.9437 20.7764 38.9437 20.4404V10.6484C38.9517 10.4884 38.8877 10.3364 38.7757 10.2244ZM32.9997 32.6644L31.4557 29.5764H34.5357L32.9997 32.6644ZM31.0877 10.0484V8.30438C31.0957 7.24838 31.9517 6.39238 32.9997 6.39238C34.0557 6.39238 34.9117 7.24838 34.9117 8.30438V10.0484H31.0877Z" fill="#505050"/>
</svg>
