<svg width="40" height="40" viewBox="0 0 40 40" fill="none" xmlns="http://www.w3.org/2000/svg">
<path d="M15.7441 1.7043C15.7441 10.9843 23.2641 18.5043 32.5441 18.5043C34.8161 18.5043 36.9761 18.0483 38.9521 17.2323V0.904297H15.7841C15.7761 1.1683 15.7441 1.4323 15.7441 1.7043Z" fill="#E5E5E5"/>
<path d="M37.2875 17.1129C36.9595 16.7849 36.5035 16.5689 36.0075 16.5449C34.8715 16.4809 33.9515 17.4649 33.9515 18.6009V24.8649C33.8715 24.5129 33.6955 24.1769 33.4235 23.9129C32.6635 23.1449 31.4235 23.1529 30.6555 23.9129L26.5755 27.993C25.7355 28.833 25.2715 29.9689 25.2715 31.1449V36.121H31.9195V33.8089L37.0315 28.705C37.5675 28.169 37.8715 27.4409 37.8715 26.6889V18.497C37.8555 17.961 37.6395 17.4729 37.2875 17.1129Z" fill="white"/>
<path d="M33.5199 36.1123H23.9199V38.4963H33.5199V36.1123Z" fill="#E8E8E8"/>
<path d="M12.9275 27.9851L8.84746 23.9051C8.08746 23.1451 6.84746 23.1371 6.07946 23.9051C5.80746 24.1771 5.63146 24.5131 5.55146 24.8571V18.5931C5.55146 17.4571 4.62346 16.4731 3.49546 16.5371C2.99946 16.5611 2.54346 16.7771 2.21546 17.1051C1.86346 17.4571 1.64746 17.9531 1.64746 18.4891V26.6731C1.64746 27.4331 1.95146 28.1531 2.48746 28.6891L7.59946 33.7931V36.1051H14.2475V31.1291C14.2395 29.9531 13.7675 28.8251 12.9275 27.9851Z" fill="white"/>
<path d="M5.98105 38.5029L15.5811 38.5029L15.5811 36.1189L5.98105 36.1189L5.98105 38.5029Z" fill="#E8E8E8"/>
<path d="M19.7515 24.2491C25.9768 24.2491 31.0235 19.2024 31.0235 12.9771C31.0235 6.75172 25.9768 1.70508 19.7515 1.70508C13.5261 1.70508 8.47949 6.75172 8.47949 12.9771C8.47949 19.2024 13.5261 24.2491 19.7515 24.2491Z" fill="#E8E8E8"/>
<path d="M19.7517 21.0485C15.3037 21.0485 11.6797 17.4245 11.6797 12.9765C11.6797 8.52848 15.2957 4.89648 19.7517 4.89648C24.2077 4.89648 27.8237 8.52048 27.8237 12.9685C27.8237 17.4165 24.1997 21.0485 19.7517 21.0485Z" fill="#A3A3A3"/>
<path d="M37.7121 16.6882C37.2641 16.2402 36.6641 15.9682 36.0401 15.9442C35.3601 15.9122 34.7041 16.1522 34.1921 16.6322C33.6561 17.1442 33.3441 17.8562 33.3441 18.6002V23.0962C32.9521 22.8642 32.5041 22.7362 32.0401 22.7362C31.3601 22.7362 30.7121 23.0002 30.2321 23.4882L26.1521 27.5682C25.1921 28.5282 24.6721 29.7922 24.6721 31.1522V35.5282H23.9281C23.6001 35.5282 23.3281 35.8002 23.3281 36.1282V38.5122C23.3281 38.8402 23.6001 39.1122 23.9281 39.1122H33.5281C33.8561 39.1122 34.1281 38.8402 34.1281 38.5122V36.1282C34.1281 35.8002 33.8561 35.5282 33.5281 35.5282H32.5201V34.0642L37.4481 29.1362C38.1041 28.4882 38.4641 27.6162 38.4641 26.6962V18.4962C38.4641 17.8162 38.2001 17.1762 37.7121 16.6882ZM32.9281 37.8962H24.5281V36.7122H25.2721H31.9201H32.9281V37.8962ZM37.2641 26.6802C37.2641 27.2802 37.0321 27.8482 36.6001 28.2722L31.4961 33.3762C31.3841 33.4882 31.3201 33.6402 31.3201 33.8002V35.5122H25.8721V31.1362C25.8721 30.1042 26.2721 29.1362 27.0081 28.4082L31.0881 24.3282C31.3441 24.0722 31.6641 23.9442 32.0481 23.9282C32.4081 23.9282 32.7441 24.0722 33.0081 24.3282C33.1601 24.4802 33.2561 24.6642 33.3281 24.8642C33.2801 25.0002 33.2161 25.1362 33.1201 25.2642C33.0881 25.3122 33.0481 25.3522 32.9681 25.4402L29.9281 29.1522C29.7201 29.4082 29.7521 29.7842 30.0081 30.0002C30.1201 30.0882 30.2561 30.1362 30.3921 30.1362C30.5681 30.1362 30.7361 30.0642 30.8561 29.9202L33.8561 26.2562C33.9441 26.1762 34.0161 26.0802 34.0881 25.9922C34.2961 25.7202 34.4321 25.4162 34.5121 25.0962C34.5201 25.0802 34.5201 25.0722 34.5281 25.0562C34.5361 25.0322 34.5441 25.0082 34.5521 24.9842C34.5601 24.9682 34.5521 24.9442 34.5521 24.9282C34.5521 24.9042 34.5681 24.8802 34.5681 24.8642V18.6002C34.5681 18.1922 34.7361 17.7922 35.0401 17.5042C35.3041 17.2482 35.6561 17.1282 36.0001 17.1442C36.3361 17.1602 36.6481 17.3042 36.8801 17.5362C37.1361 17.8002 37.2801 18.1362 37.2801 18.4962V26.6802H37.2641Z" fill="#505050"/>
<path d="M15.5839 35.5124H14.8399V31.1364C14.8399 29.7844 14.3119 28.5124 13.3599 27.5524L9.27985 23.4724C8.79985 22.9924 8.15185 22.7204 7.47185 22.7204C7.47185 22.7204 7.47185 22.7204 7.46385 22.7204C6.99985 22.7204 6.55185 22.8484 6.15985 23.0804V18.5924C6.15985 17.8564 5.84785 17.1364 5.31185 16.6244C4.79985 16.1444 4.14385 15.8884 3.47185 15.9364C2.83985 15.9684 2.24785 16.2324 1.79185 16.6884C1.31185 17.1764 1.04785 17.8164 1.04785 18.4964V26.6804C1.04785 27.6004 1.40785 28.4724 2.05585 29.1204L6.99185 34.0484V35.5124H5.97585C5.64785 35.5124 5.37585 35.7844 5.37585 36.1124V38.4964C5.37585 38.8244 5.64785 39.0964 5.97585 39.0964H15.5759C15.9039 39.0964 16.1759 38.8244 16.1759 38.4964V36.1124C16.1839 35.7844 15.9119 35.5124 15.5839 35.5124ZM8.01585 33.3844L2.91185 28.2804C2.48785 27.8564 2.24785 27.2884 2.24785 26.6884V18.4964C2.24785 18.1364 2.39185 17.7924 2.63985 17.5364C2.87985 17.2964 3.19185 17.1524 3.52785 17.1364C3.87985 17.1124 4.21585 17.2484 4.48785 17.4964C4.78385 17.7764 4.95985 18.1764 4.95985 18.5924V24.8564C4.95985 24.8804 4.96785 24.8964 4.97585 24.9204C4.97585 24.9364 4.97585 24.9604 4.97585 24.9764C4.98385 25.0004 4.99185 25.0244 4.99985 25.0484C4.99985 25.0564 5.00785 25.0724 5.00785 25.0804C5.08785 25.4004 5.22385 25.7044 5.43185 25.9764C5.50385 26.0724 5.58385 26.1604 5.62385 26.2004L8.66385 29.9124C8.78385 30.0564 8.95185 30.1284 9.12785 30.1284C9.26385 30.1284 9.39985 30.0804 9.51185 29.9924C9.76785 29.7844 9.80785 29.4084 9.59185 29.1444L6.51185 25.3844C6.47185 25.3444 6.43185 25.2964 6.39185 25.2484C6.29585 25.1204 6.23185 24.9844 6.19185 24.8484C6.25585 24.6484 6.35985 24.4644 6.51185 24.3044C6.76785 24.0484 7.10385 23.9044 7.46385 23.9044C7.82385 23.9044 8.16785 24.0484 8.42385 24.3044L12.5039 28.3844C13.2319 29.1124 13.6319 30.0884 13.6319 31.1124V35.4884H8.18385V33.7764C8.19185 33.6484 8.12785 33.4964 8.01585 33.3844ZM14.9839 37.8964H6.57585V36.7124H7.58385H14.2319H14.9759V37.8964H14.9839Z" fill="#505050"/>
<path d="M9.45625 8.33623C9.54425 8.37623 9.64025 8.40023 9.73625 8.40023C9.96025 8.40023 10.1603 8.28023 10.2723 8.08023C10.4163 7.78423 10.3043 7.41623 10.0083 7.27223C9.72025 7.12023 9.34425 7.24023 9.20025 7.52823V7.53623C9.12825 7.67223 9.11225 7.83223 9.16025 7.98423C9.20825 8.13623 9.31225 8.26423 9.45625 8.33623Z" fill="#505050"/>
<path d="M31.6239 12.9687C31.6239 6.42468 26.3039 1.09668 19.7519 1.09668C15.9199 1.09668 12.3039 2.96068 10.0799 6.08868C9.88788 6.36068 9.95188 6.73668 10.2159 6.92868C10.4799 7.11268 10.8719 7.04868 11.0559 6.78468C13.0639 3.97668 16.3119 2.29668 19.7519 2.29668C25.6319 2.31268 30.4159 7.09668 30.4239 12.9687C30.4159 18.8487 25.6319 23.6327 19.7519 23.6487C13.8799 23.6327 9.09588 18.8487 9.07988 12.9687C9.07988 11.7767 9.27988 10.5927 9.67188 9.46468C9.77588 9.15268 9.60788 8.81668 9.29588 8.70468C8.99988 8.60068 8.63988 8.76868 8.53588 9.07268C8.10388 10.3207 7.87988 11.6327 7.87988 12.9687C7.87988 19.5207 13.2079 24.8407 19.7519 24.8487C26.3039 24.8407 31.6239 19.5207 31.6239 12.9687Z" fill="#505050"/>
<path d="M19.7521 21.6489C24.5361 21.6489 28.4241 17.7609 28.4241 12.9769C28.4241 8.19287 24.5361 4.29688 19.7521 4.29688C14.9681 4.29688 11.0801 8.18487 11.0801 12.9689C11.0801 17.7529 14.9681 21.6489 19.7521 21.6489ZM19.7521 5.49688C23.8721 5.49688 27.2241 8.84887 27.2241 12.9689C27.2241 17.0889 23.8721 20.4409 19.7521 20.4409C15.6321 20.4409 12.2801 17.0889 12.2801 12.9689C12.2801 8.84887 15.6321 5.49688 19.7521 5.49688Z" fill="#505050"/>
<path d="M19.7516 15.8883C19.1116 15.8883 18.5916 15.3683 18.5916 14.7283C18.5916 14.4003 18.3196 14.1283 17.9916 14.1283C17.6636 14.1283 17.3916 14.4003 17.3916 14.7283C17.3916 15.8163 18.1436 16.7283 19.1516 17.0003V17.3923C19.1516 17.7203 19.4236 17.9923 19.7516 17.9923C20.0796 17.9923 20.3516 17.7203 20.3516 17.3923V17.0003C21.3596 16.7363 22.1116 15.8243 22.1116 14.7283C22.1116 13.4243 21.0556 12.3683 19.7516 12.3683C19.1116 12.3683 18.5916 11.8483 18.5916 11.2083C18.5916 10.5683 19.1116 10.0483 19.7516 10.0483C20.3916 10.0483 20.9116 10.5683 20.9116 11.2083C20.9116 11.5363 21.1836 11.8083 21.5116 11.8083C21.8396 11.8083 22.1116 11.5363 22.1116 11.2083C22.1116 10.1203 21.3596 9.20834 20.3516 8.93634V8.54434C20.3516 8.21634 20.0796 7.94434 19.7516 7.94434C19.4236 7.94434 19.1516 8.21634 19.1516 8.54434V8.93634C18.1436 9.20034 17.3916 10.1123 17.3916 11.2083C17.3916 12.5123 18.4476 13.5683 19.7516 13.5683C20.3916 13.5683 20.9116 14.0883 20.9116 14.7283C20.9116 15.3683 20.3916 15.8883 19.7516 15.8883Z" fill="#505050"/>
</svg>
