<svg width="40" height="40" viewBox="0 0 40 40" fill="none" xmlns="http://www.w3.org/2000/svg">
<g clip-path="url(#clip0_787_2460)">
<path d="M0.959961 16.6885C3.63196 18.7685 6.98396 20.0245 10.632 20.0245C19.328 20.0245 26.376 12.9765 26.376 4.28048C26.376 3.12048 26.24 1.98448 26 0.896484H0.959961V16.6885Z" fill="#E8E8E8"/>
<path d="M12.0556 13.6484C17.8082 13.6484 22.4716 11.3167 22.4716 8.44042C22.4716 5.56412 17.8082 3.23242 12.0556 3.23242C6.30305 3.23242 1.63965 5.56412 1.63965 8.44042C1.63965 11.3167 6.30305 13.6484 12.0556 13.6484Z" fill="#CDCDCD"/>
<path d="M22.4716 8.43262C22.4716 8.44062 22.4716 8.44062 22.4716 8.43262C22.4716 11.3126 17.8076 13.6406 12.0556 13.6406C6.30365 13.6406 1.63965 11.3126 1.63965 8.44062V13.6486C1.63965 16.5286 6.30365 18.8566 12.0556 18.8566C17.8076 18.8566 22.4716 16.5286 22.4716 13.6486V8.43262Z" fill="white"/>
<path d="M12.0556 18.8486C6.30365 18.8486 1.63965 16.5206 1.63965 13.6406V18.8486C1.63965 21.7286 6.30365 24.0566 12.0556 24.0566C17.8076 24.0566 22.4716 21.7286 22.4716 18.8486V13.6406C22.4716 16.5206 17.8076 18.8486 12.0556 18.8486Z" fill="#CDCDCD"/>
<path d="M12.0556 24.0566C6.30365 24.0566 1.63965 21.7286 1.63965 18.8486V24.0566C1.63965 26.9366 6.30365 29.2646 12.0556 29.2646C17.8076 29.2646 22.4716 26.9366 22.4716 24.0566V18.8486C22.4716 21.7286 17.8076 24.0566 12.0556 24.0566Z" fill="white"/>
<path d="M12.0556 29.2725C6.30365 29.2725 1.63965 26.9445 1.63965 24.0645V29.2725C1.63965 32.1525 6.30365 34.4805 12.0556 34.4805C17.8076 34.4805 22.4716 32.1525 22.4716 29.2725V24.0645C22.4716 26.9365 17.8076 29.2725 12.0556 29.2725Z" fill="#CDCDCD"/>
<path d="M28.0234 38.5049C33.776 38.5049 38.4394 33.8414 38.4394 28.0889C38.4394 22.3363 33.776 17.6729 28.0234 17.6729C22.2708 17.6729 17.6074 22.3363 17.6074 28.0889C17.6074 33.8414 22.2708 38.5049 28.0234 38.5049Z" fill="#E4E4E4"/>
<path d="M28.0238 36.1041C23.6078 36.1041 20.0078 32.5121 20.0078 28.0881C20.0078 23.6641 23.6078 20.0801 28.0238 20.0801C32.4398 20.0801 36.0398 23.6721 36.0398 28.0961C36.0398 32.5201 32.4478 36.1041 28.0238 36.1041Z" fill="#A3A3A3"/>
<path d="M33.4556 19.9132C33.5516 19.9772 33.6716 20.0172 33.7916 20.0172C33.9916 20.0172 34.1756 19.9132 34.2876 19.7452C34.4716 19.4732 34.3996 19.0972 34.1196 18.9132C33.8556 18.7372 33.4636 18.8172 33.2876 19.0812C33.1996 19.2172 33.1676 19.3772 33.1996 19.5372C33.2316 19.6892 33.3196 19.8252 33.4556 19.9132Z" fill="#505050"/>
<path d="M35.456 19.9608C35.216 19.7368 34.824 19.7608 34.6 19.9928C34.496 20.1128 34.44 20.2648 34.448 20.4248C34.456 20.5848 34.528 20.7368 34.64 20.8408C34.648 20.8488 34.648 20.8488 34.656 20.8488C36.68 22.7048 37.84 25.3448 37.84 28.0888C37.832 33.4968 33.432 37.8968 28.032 37.9048C22.624 37.8968 18.224 33.4968 18.216 28.0888C18.224 22.6888 22.624 18.2888 28.032 18.2808C29.464 18.2808 30.848 18.5768 32.144 19.1768C32.44 19.3128 32.808 19.1768 32.944 18.8888C33.08 18.5848 32.944 18.2248 32.648 18.0888C31.192 17.4168 29.64 17.0808 28.032 17.0808C26.248 17.0808 24.568 17.5128 23.072 18.2728V13.6488V8.44081C23.072 8.43281 23.072 8.43281 23.072 8.42481C23.056 5.17681 18.224 2.63281 12.056 2.63281C5.89604 2.63281 1.07204 5.16881 1.04804 8.41681C1.04804 8.42481 1.04004 8.43281 1.04004 8.44081V29.2728C1.04004 32.5288 5.88004 35.0808 12.056 35.0808C14.456 35.0808 16.792 34.6728 18.704 33.9288C20.656 37.0328 24.104 39.1128 28.032 39.1128C34.104 39.1128 39.04 34.1768 39.04 28.0968C39.04 25.0008 37.728 22.0408 35.456 19.9608ZM2.24004 11.1048C4.04004 12.9848 7.71204 14.2488 12.056 14.2488C16.4 14.2488 20.064 12.9848 21.872 11.1048V13.6488C21.872 16.1448 17.376 18.2568 12.056 18.2568C6.73604 18.2568 2.24004 16.1448 2.24004 13.6488V11.1048ZM12.056 3.83281C17.376 3.83281 21.872 5.94481 21.872 8.44081C21.872 10.9368 17.376 13.0488 12.056 13.0488C6.73604 13.0488 2.24004 10.9368 2.24004 8.44081C2.24004 5.94481 6.73604 3.83281 12.056 3.83281ZM12.056 19.4488C16.4 19.4488 20.064 18.1848 21.872 16.3048V18.8488C21.872 18.8808 21.888 18.9128 21.896 18.9528C20.64 19.8008 19.568 20.9048 18.752 22.1848C16.92 23.0088 14.552 23.4568 12.064 23.4568C6.74404 23.4568 2.24804 21.3448 2.24804 18.8488V16.3048C4.04804 18.1928 7.71204 19.4488 12.056 19.4488ZM12.056 24.6568C14.144 24.6568 16.152 24.3528 17.888 23.7928C17.336 25.0888 17.032 26.5048 17.016 28.0008C15.52 28.4328 13.824 28.6648 12.056 28.6648C6.73604 28.6648 2.24004 26.5528 2.24004 24.0568V21.5208C4.04804 23.4008 7.71204 24.6568 12.056 24.6568ZM12.056 33.8728C6.73604 33.8728 2.24004 31.7608 2.24004 29.2648V26.7208C4.04804 28.6008 7.71204 29.8648 12.056 29.8648C13.824 29.8648 15.536 29.6408 17.072 29.2248C17.208 30.5208 17.576 31.7368 18.112 32.8568C16.368 33.5208 14.248 33.8728 12.056 33.8728Z" fill="#505050"/>
<path d="M28.0242 19.4805C23.2722 19.4805 19.4082 23.3445 19.4082 28.0965C19.4082 32.8485 23.2722 36.7125 28.0242 36.7125C32.7762 36.7125 36.6402 32.8405 36.6402 28.0885C36.6402 23.3365 32.7762 19.4805 28.0242 19.4805ZM28.0242 35.5045C23.9362 35.5045 20.6082 32.1765 20.6082 28.0885C20.6082 24.0005 23.9362 20.6725 28.0242 20.6725C32.1122 20.6725 35.4402 24.0005 35.4402 28.0885C35.4402 32.1765 32.1122 35.5045 28.0242 35.5045Z" fill="#505050"/>
<path d="M28.0241 25.1772C28.6641 25.1772 29.1841 25.6972 29.1841 26.3372C29.1841 26.6652 29.4561 26.9372 29.7841 26.9372C30.1121 26.9372 30.3841 26.6652 30.3841 26.3372C30.3841 25.2492 29.6321 24.3372 28.6241 24.0652V23.6732C28.6241 23.3452 28.3521 23.0732 28.0241 23.0732C27.6961 23.0732 27.4241 23.3452 27.4241 23.6732V24.0652C26.4161 24.3292 25.6641 25.2412 25.6641 26.3372C25.6641 27.6412 26.7201 28.6972 28.0241 28.6972C28.6641 28.6972 29.1841 29.2172 29.1841 29.8572C29.1841 30.4972 28.6641 31.0172 28.0241 31.0172C27.3841 31.0172 26.8641 30.4972 26.8641 29.8572C26.8641 29.5292 26.5921 29.2572 26.2641 29.2572C25.9361 29.2572 25.6641 29.5292 25.6641 29.8572C25.6641 30.9452 26.4161 31.8572 27.4241 32.1292V32.5212C27.4241 32.8492 27.6961 33.1212 28.0241 33.1212C28.3521 33.1212 28.6241 32.8492 28.6241 32.5212V32.1292C29.6321 31.8652 30.3841 30.9532 30.3841 29.8572C30.3841 28.5532 29.3281 27.4972 28.0241 27.4972C27.3841 27.4972 26.8641 26.9772 26.8641 26.3372C26.8641 25.6972 27.3841 25.1772 28.0241 25.1772Z" fill="#505050"/>
</g>
<defs>
<clipPath id="clip0_787_2460">
<rect width="40" height="40" fill="white"/>
</clipPath>
</defs>
</svg>
