<svg width="40" height="40" viewBox="0 0 40 40" fill="none" xmlns="http://www.w3.org/2000/svg">
<g clip-path="url(#clip0_787_2537)">
<path d="M0.751953 22.4243C2.69595 23.2083 4.81595 23.6563 7.04795 23.6563C16.328 23.6563 23.848 16.1363 23.848 6.8563C23.848 4.7603 23.448 2.7523 22.744 0.904297H0.751953V22.4243Z" fill="#E8E8E8"/>
<path d="M38.2645 24.8005H33.1925V31.4565C33.1925 32.4405 32.4005 33.2405 31.4085 33.2405H24.4325V38.5125H10.8565V26.2565C7.7205 23.5605 5.8005 19.4885 6.0165 14.9845C6.3605 8.00046 11.9605 2.24846 18.9365 1.73646C26.9525 1.15246 33.6565 7.33646 33.9365 15.1445L38.2645 24.8005Z" fill="white"/>
<path d="M29.7764 15.8407C29.7764 18.9367 28.3924 21.7127 26.2004 23.5847C24.4244 25.0967 22.1204 26.0087 19.6084 26.0087C17.0964 26.0087 14.7924 25.0967 13.0164 23.5847C10.8324 21.7127 9.44043 18.9447 9.44043 15.8407C9.44043 12.7447 10.8244 9.96866 13.0164 8.10466C14.7924 6.59266 17.0964 5.68066 19.6084 5.68066C22.1204 5.68066 24.4244 6.59266 26.2004 8.10466C28.3924 9.96866 29.7764 12.7367 29.7764 15.8407Z" fill="#D4D4D4"/>
<path d="M11.2328 29.8484C11.5642 29.8484 11.8328 29.5798 11.8328 29.2484C11.8328 28.9171 11.5642 28.6484 11.2328 28.6484C10.9014 28.6484 10.6328 28.9171 10.6328 29.2484C10.6328 29.5798 10.9014 29.8484 11.2328 29.8484Z" fill="#505050"/>
<path d="M39.1924 24.5522L34.9124 15.0002C34.8404 13.3842 34.4964 11.8002 33.9044 10.2882L33.8964 10.2722C32.8244 7.59222 31.0004 5.31222 28.6244 3.67222C25.8964 1.78422 22.6644 0.88822 19.2644 1.13622C15.7444 1.40022 12.4324 2.95222 9.93637 5.51222C7.44037 8.07222 5.96837 11.4242 5.80037 14.9522C5.78437 15.1682 5.77637 15.4002 5.77637 15.6802C5.77637 19.8162 7.55237 23.7682 10.6324 26.5282V27.6482C10.6324 27.9762 10.9044 28.2482 11.2324 28.2482C11.5684 28.2482 11.8324 27.9762 11.8324 27.6482C11.8324 27.6402 11.8324 27.6402 11.8324 27.6322V26.2562C11.8324 26.0802 11.7604 25.9122 11.6244 25.8002C8.67237 23.2562 6.97637 19.5682 6.97637 15.6802C6.97637 15.4402 6.98437 15.2242 6.99237 15.0162C7.31237 8.38422 12.7444 2.81622 19.3524 2.33622C19.6804 2.31222 20.0164 2.29622 20.3604 2.29622C25.8484 2.29622 30.7204 5.59222 32.7684 10.6802L32.7764 10.7122C32.7764 10.7122 32.7764 10.7202 32.7844 10.7202C33.3444 12.1362 33.6644 13.6322 33.7204 15.1762L33.7684 15.3922L37.7124 24.1922H33.5684C33.4084 24.1922 33.2564 24.2562 33.1444 24.3682C33.0324 24.4802 32.9684 24.6322 32.9684 24.7922V31.4482C32.9684 32.0962 32.4404 32.6242 31.7924 32.6242H24.8164C24.6564 32.6242 24.5044 32.6882 24.3924 32.8002C24.2804 32.9122 24.2164 33.0722 24.2164 33.2242V37.8962H11.8324V30.8482C11.8324 30.5202 11.5684 30.2482 11.2324 30.2482C10.9044 30.2482 10.6324 30.5202 10.6324 30.8482V38.4962C10.6324 38.6562 10.6964 38.8082 10.8084 38.9202C10.9204 39.0322 11.0804 39.0962 11.2324 39.0962H24.8164C24.9764 39.0962 25.1284 39.0322 25.2404 38.9202C25.3524 38.8082 25.4164 38.6562 25.4164 38.4962V33.8242H31.7924C33.0964 33.8242 34.1684 32.7602 34.1684 31.4482V25.3922H38.6404C38.8484 25.3922 39.0404 25.2882 39.1444 25.1202C39.2564 24.9522 39.2724 24.7282 39.1924 24.5522Z" fill="#505050"/>
<path d="M26.9766 24.0403C29.3846 21.9843 30.7606 19.0003 30.7606 15.8403C30.7606 12.6883 29.3846 9.69627 26.9766 7.64027C25.0326 5.98427 22.5526 5.07227 19.9926 5.07227C17.4326 5.07227 14.9526 5.98427 13.0086 7.64027C10.6086 9.69627 9.22461 12.6803 9.22461 15.8403C9.22461 18.9923 10.6006 21.9843 13.0086 24.0403C14.9526 25.6963 17.4326 26.6083 19.9926 26.6083C22.5526 26.6083 25.0246 25.6963 26.9766 24.0403ZM23.8486 22.5763C24.4646 22.8483 25.0566 23.1843 25.6086 23.5843C24.6966 24.2483 23.6726 24.7363 22.5926 25.0483C22.8486 24.7043 23.0966 24.3043 23.3206 23.8563C23.5126 23.4563 23.6886 23.0243 23.8486 22.5763ZM22.2486 23.3123C21.7526 24.3203 21.1766 24.9843 20.5926 25.2643V21.7843C21.3206 21.8323 22.0326 21.9603 22.7206 22.1603C22.5766 22.5683 22.4166 22.9603 22.2486 23.3123ZM20.5926 20.5763V16.4323H23.6806C23.6406 18.0723 23.4326 19.6403 23.0726 21.0083C22.2726 20.7763 21.4406 20.6243 20.5926 20.5763ZM20.5926 15.2403V11.0963C21.4406 11.0483 22.2726 10.9043 23.0726 10.6643C23.4326 12.0323 23.6406 13.6003 23.6806 15.2403H20.5926ZM20.5926 9.89627V6.41627C21.1766 6.68827 21.7446 7.36027 22.2486 8.36827C22.4246 8.72027 22.5766 9.11227 22.7206 9.52027C22.0326 9.72827 21.3126 9.84827 20.5926 9.89627ZM23.3206 7.83227C23.0966 7.38427 22.8566 6.98427 22.5926 6.63227C23.6726 6.93627 24.6966 7.43227 25.6086 8.09627C25.0566 8.49627 24.4646 8.83227 23.8486 9.10427C23.6886 8.65627 23.5126 8.22427 23.3206 7.83227ZM16.1366 9.10427C15.5206 8.83227 14.9286 8.49627 14.3766 8.09627C15.2886 7.43227 16.3126 6.93627 17.3926 6.63227C17.1366 6.97627 16.8886 7.37627 16.6646 7.83227C16.4726 8.22427 16.2966 8.65627 16.1366 9.10427ZM17.7366 8.36827C18.2326 7.36027 18.8086 6.69627 19.3926 6.41627V9.89627C18.6646 9.84827 17.9526 9.72027 17.2646 9.52027C17.4086 9.11227 17.5606 8.72027 17.7366 8.36827ZM19.3926 11.0963V15.2403H16.3046C16.3446 13.6003 16.5526 12.0323 16.9126 10.6643C17.7126 10.9043 18.5446 11.0483 19.3926 11.0963ZM19.3926 16.4403V20.5843C18.5446 20.6323 17.7126 20.7763 16.9126 21.0163C16.5526 19.6483 16.3446 18.0803 16.3046 16.4403H19.3926ZM19.3926 21.7763V25.2563C18.8086 24.9843 18.2406 24.3123 17.7366 23.3123C17.5606 22.9603 17.4086 22.5683 17.2646 22.1523C17.9526 21.9523 18.6646 21.8243 19.3926 21.7763ZM16.6646 23.8483C16.8886 24.2963 17.1286 24.6963 17.3926 25.0403C16.3126 24.7363 15.2886 24.2403 14.3766 23.5763C14.9286 23.1763 15.5206 22.8403 16.1366 22.5683C16.2966 23.0243 16.4726 23.4563 16.6646 23.8483ZM26.5446 22.7923C25.8246 22.2323 25.0326 21.7763 24.2006 21.4243C24.6006 19.9283 24.8326 18.2163 24.8806 16.4403H29.5286C29.3766 18.8563 28.3126 21.1203 26.5446 22.7923ZM29.5286 15.2403H24.8806C24.8406 13.4563 24.6006 11.7523 24.2006 10.2563C25.0326 9.90427 25.8166 9.44827 26.5446 8.88827C28.3126 10.5603 29.3766 12.8243 29.5286 15.2403ZM13.4326 8.88827C14.1526 9.44027 14.9446 9.90427 15.7766 10.2563C15.3766 11.7523 15.1446 13.4563 15.0966 15.2403H10.4486C10.6086 12.8243 11.6726 10.5603 13.4326 8.88827ZM10.4566 16.4403H15.1046C15.1446 18.2163 15.3846 19.9283 15.7846 21.4243C14.9526 21.7763 14.1686 22.2403 13.4406 22.7923C11.6726 21.1203 10.6086 18.8563 10.4566 16.4403Z" fill="#505050"/>
</g>
<defs>
<clipPath id="clip0_787_2537">
<rect width="40" height="40" fill="white"/>
</clipPath>
</defs>
</svg>
