<svg width="40" height="40" viewBox="0 0 40 40" fill="none" xmlns="http://www.w3.org/2000/svg">
<path d="M12.4725 9.59961C7.98448 9.59961 3.91248 11.3756 0.896484 14.2396V38.0236H24.5765C27.4805 35.0076 29.2725 30.9116 29.2725 26.3916C29.2725 17.1196 21.7525 9.59961 12.4725 9.59961Z" fill="#E8E8E8"/>
<path d="M30.352 35.9833C34.8498 35.9833 38.496 32.3371 38.496 27.8393C38.496 23.3415 34.8498 19.6953 30.352 19.6953C25.8542 19.6953 22.208 23.3415 22.208 27.8393C22.208 32.3371 25.8542 35.9833 30.352 35.9833Z" fill="#EBEBEB"/>
<path d="M30.3524 33.5915C27.1844 33.5915 24.6084 31.0155 24.6084 27.8475C24.6084 24.6795 27.1844 22.1035 30.3524 22.1035C33.5204 22.1035 36.0964 24.6795 36.0964 27.8475C36.1044 31.0075 33.5204 33.5915 30.3524 33.5915Z" fill="#E4E4E4"/>
<path d="M19.3477 18.9816V14.1816H16.1477V18.9816H19.3477Z" fill="white"/>
<path d="M31.9841 6.47949H3.2401C2.3921 6.47949 1.7041 7.15949 1.7041 8.01549V12.4315C1.7041 13.1675 2.2241 13.7995 2.9521 13.9435L16.1521 16.4955V14.1835H19.3521V16.4475L32.2801 13.9435C33.0081 13.7995 33.5281 13.1675 33.5281 12.4315V8.01549C33.5201 7.16749 32.8241 6.47949 31.9841 6.47949Z" fill="#D4D4D4"/>
<path d="M32.2719 13.9435L19.3439 16.4475V18.9835H16.1439V16.4955L2.94392 13.9435C2.93592 13.9435 2.92792 13.9355 2.91992 13.9355V27.4395C2.91992 28.2955 3.60792 28.9835 4.46392 28.9835H22.2959C22.2399 28.6075 22.2079 28.2315 22.2079 27.8395C22.2079 23.3435 25.8559 19.6955 30.3519 19.6955C31.0239 19.6955 31.6719 19.7835 32.2959 19.9355V13.9355C32.2879 13.9355 32.2799 13.9435 32.2719 13.9435Z" fill="#CDCDCD"/>
<path d="M32.8965 19.4798V14.3598C33.6245 14.0078 34.1205 13.2718 34.1205 12.4318V8.01577C34.1205 7.06377 33.4965 6.27177 32.6325 5.99177C32.5365 5.92777 32.4245 5.87977 32.2965 5.87977H31.9765C31.9685 5.87977 31.9685 5.87977 31.9685 5.87977H24.1205V3.36777C24.1205 2.59977 23.4885 1.96777 22.7205 1.96777H12.4965C11.7285 1.96777 11.0965 2.59977 11.0965 3.36777V5.87977H3.24049C2.06449 5.87977 1.10449 6.83977 1.10449 8.01577V12.4318C1.10449 13.2718 1.60049 14.0078 2.32049 14.3598V27.4398C2.32049 28.6238 3.28049 29.5838 4.46449 29.5838H21.7845C22.5925 33.5758 26.1285 36.5918 30.3525 36.5918C35.1765 36.5918 39.0965 32.6718 39.0965 27.8478C39.0965 23.9038 36.4805 20.5678 32.8965 19.4798ZM2.29649 8.01577C2.30449 7.49577 2.71249 7.07977 3.24049 7.07977H17.3045C17.6325 7.07977 17.9045 6.80777 17.9045 6.47977C17.9045 6.15177 17.6325 5.87977 17.3045 5.87977H12.2965V3.36777C12.2965 3.25577 12.3845 3.16777 12.4965 3.16777H22.7205C22.8325 3.16777 22.9205 3.25577 22.9205 3.36777V5.87977H20.5045C20.1765 5.87977 19.9045 6.15177 19.9045 6.47977C19.9045 6.80777 20.1765 7.07977 20.5045 7.07977H31.9845C32.4965 7.07977 32.9205 7.50377 32.9205 8.01577V12.4318C32.9205 12.8798 32.6005 13.2718 32.1605 13.3598H32.1525C32.1525 13.3598 32.1445 13.3598 32.1445 13.3678L19.9445 15.7278V14.1918C19.9445 13.8638 19.6725 13.5918 19.3445 13.5918H16.1445C15.8165 13.5918 15.5445 13.8638 15.5445 14.1918V15.7758L3.08849 13.3598C3.07249 13.3598 3.06449 13.3518 3.04849 13.3518C2.60849 13.2558 2.29649 12.8718 2.29649 12.4318V8.01577ZM18.7445 14.7838V18.3838H16.7445V14.7838H18.7445ZM4.46449 28.3838C3.94449 28.3838 3.52049 27.9598 3.52049 27.4398V14.6638L15.5445 16.9918V18.9758C15.5445 19.3038 15.8165 19.5758 16.1445 19.5758H19.3445C19.6725 19.5758 19.9445 19.3038 19.9445 18.9758V16.9358L31.6965 14.6558V19.1998C31.2565 19.1278 30.8085 19.0878 30.3525 19.0878C25.5285 19.0878 21.6085 23.0078 21.6085 27.8318C21.6085 28.0158 21.6245 28.1918 21.6325 28.3758H4.46449V28.3838ZM30.3525 35.3918C26.1925 35.3918 22.8085 32.0078 22.8085 27.8478C22.8085 23.6878 26.1925 20.3038 30.3525 20.3038C34.5125 20.3038 37.8965 23.6878 37.8965 27.8478C37.8965 32.0078 34.5125 35.3918 30.3525 35.3918Z" fill="#505050"/>
<path d="M30.3528 21.4961C26.8568 21.4961 24.0088 24.3441 24.0088 27.8401C24.0088 31.3361 26.8568 34.1841 30.3528 34.1841C33.8488 34.1841 36.6968 31.3361 36.6968 27.8401C36.6968 24.3441 33.8568 21.4961 30.3528 21.4961ZM30.3528 32.9921C27.5128 32.9921 25.2088 30.6801 25.2088 27.8481C25.2088 25.0081 27.5128 22.7041 30.3528 22.7041C33.1928 22.7041 35.4968 25.0161 35.4968 27.8481C35.4968 30.6801 33.1928 32.9921 30.3528 32.9921Z" fill="#505050"/>
<path d="M30.3528 25.2873C30.8888 25.2873 31.3288 25.7273 31.3288 26.2633C31.3288 26.5913 31.6008 26.8633 31.9288 26.8633C32.2568 26.8633 32.5288 26.5913 32.5288 26.2633C32.5288 25.2713 31.8568 24.4393 30.9528 24.1833V23.8793C30.9528 23.5513 30.6808 23.2793 30.3528 23.2793C30.0248 23.2793 29.7528 23.5513 29.7528 23.8793V24.1833C28.8488 24.4473 28.1768 25.2713 28.1768 26.2633C28.1768 27.4633 29.1528 28.4393 30.3528 28.4393C30.8888 28.4393 31.3288 28.8793 31.3288 29.4153C31.3288 29.9513 30.8968 30.3993 30.3528 30.3993C29.8088 30.3993 29.3768 29.9593 29.3768 29.4233C29.3768 29.0953 29.1048 28.8233 28.7768 28.8233C28.4488 28.8233 28.1768 29.0953 28.1768 29.4233C28.1768 30.4153 28.8488 31.2473 29.7528 31.5033V31.8073C29.7528 32.1353 30.0248 32.4073 30.3528 32.4073C30.6808 32.4073 30.9528 32.1353 30.9528 31.8073V31.5033C31.8568 31.2393 32.5288 30.4153 32.5288 29.4233C32.5288 28.2233 31.5528 27.2473 30.3528 27.2473C29.8168 27.2473 29.3768 26.8073 29.3768 26.2713C29.3768 25.7353 29.8168 25.2873 30.3528 25.2873Z" fill="#505050"/>
<path d="M18.9047 7.07988C19.2361 7.07988 19.5047 6.81125 19.5047 6.47988C19.5047 6.14851 19.2361 5.87988 18.9047 5.87988C18.5733 5.87988 18.3047 6.14851 18.3047 6.47988C18.3047 6.81125 18.5733 7.07988 18.9047 7.07988Z" fill="#505050"/>
</svg>
