<svg width="40" height="40" viewBox="0 0 40 40" fill="none" xmlns="http://www.w3.org/2000/svg">
<g clip-path="url(#clip0_787_2548)">
<path d="M0.767578 22.4243C2.71158 23.2083 4.83158 23.6563 7.06358 23.6563C16.3436 23.6563 23.8636 16.1363 23.8636 6.8563C23.8636 4.7603 23.4636 2.7523 22.7596 0.904297H0.767578V22.4243Z" fill="#E8E8E8"/>
<path d="M38.6315 16.3681C38.6315 24.4641 32.0715 31.0321 23.9755 31.0321C15.8715 31.0321 9.31152 24.4641 9.31152 16.3681C9.31152 8.27211 15.8795 1.70411 23.9755 1.70411C32.0635 1.69611 38.6315 8.27211 38.6315 16.3681Z" fill="#D4D4D4"/>
<path d="M23.9761 27.4717C17.8561 27.4717 12.8721 22.4877 12.8721 16.3677C12.8721 10.2477 17.8481 5.26367 23.9761 5.26367C30.0961 5.26367 35.0721 10.2477 35.0721 16.3677C35.0721 22.4877 30.0881 27.4717 23.9761 27.4717Z" fill="white"/>
<path d="M11.3359 23.8164L2.91189 32.2324C1.47989 33.6724 1.47989 35.9924 2.91189 37.4164C4.35189 38.8564 6.67189 38.8564 8.09589 37.4164L16.5199 28.9924H16.5279" fill="#CDCDCD"/>
<path d="M23.9674 1.09668C20.0954 1.09668 16.3994 2.55268 13.5674 5.19268C10.7514 7.82468 9.03938 11.3767 8.75138 15.2007C8.73538 15.3607 8.79138 15.5207 8.89538 15.6407C8.99938 15.7607 9.14338 15.8327 9.30338 15.8487C9.63138 15.8727 9.91138 15.6247 9.94338 15.3047V15.2967C10.4954 8.00868 16.6554 2.29668 23.9674 2.29668C31.7114 2.31268 38.0154 8.62468 38.0314 16.3607C38.0154 24.1047 31.7114 30.4167 23.9674 30.4327C17.0074 30.4327 11.0234 25.2407 10.0474 18.3527C9.99938 18.0327 9.68738 17.7927 9.36738 17.8487C9.20738 17.8727 9.07138 17.9527 8.97538 18.0807C8.87138 18.2087 8.83138 18.3687 8.85538 18.5207C9.11138 20.3527 9.71138 22.1047 10.5914 23.7047L2.47938 31.8167C0.815377 33.4807 0.823377 36.1927 2.47938 37.8487C3.28738 38.6567 4.35938 39.1047 5.49538 39.1047C5.49538 39.1047 5.49538 39.1047 5.50338 39.1047C6.63938 39.1047 7.71138 38.6567 8.51138 37.8487L16.6234 29.7367C18.8554 30.9607 21.3754 31.6327 23.9594 31.6327C32.3754 31.6327 39.2234 24.7847 39.2234 16.3607C39.2314 7.94468 32.3834 1.09668 23.9674 1.09668ZM5.50338 37.9047C4.67938 37.9047 3.91138 37.5847 3.32738 37.0007C2.13538 35.8087 2.13538 33.8567 3.32738 32.6647L3.98338 32.0087L8.31938 36.3447L7.66338 37.0007C7.08738 37.5767 6.31938 37.8967 5.50338 37.9047ZM9.17538 35.4967L4.83938 31.1607L11.2314 24.7687C11.9834 25.9047 12.8794 26.9447 13.9194 27.8567C14.4394 28.3127 14.9994 28.7207 15.5754 29.0967L9.17538 35.4967Z" fill="#505050"/>
<path d="M9.31094 17.449H9.33494C9.49494 17.441 9.63894 17.377 9.75094 17.257C9.86294 17.145 9.91894 16.985 9.91094 16.833C9.90294 16.505 9.63894 16.249 9.31094 16.249H9.29494C9.13494 16.257 8.98294 16.321 8.87894 16.441C8.76694 16.553 8.71094 16.705 8.71094 16.865C8.72694 17.193 8.99094 17.449 9.31094 17.449Z" fill="#505050"/>
<path d="M23.9677 28.073C30.4157 28.073 35.6637 22.825 35.6637 16.369C35.6637 9.91304 30.4157 4.66504 23.9677 4.66504C17.5117 4.66504 12.2637 9.91304 12.2637 16.369C12.2637 22.817 17.5117 28.073 23.9677 28.073ZM23.9677 5.86504C29.7597 5.86504 34.4637 10.577 34.4637 16.369C34.4637 22.161 29.7517 26.873 23.9677 26.873C18.1757 26.873 13.4637 22.161 13.4637 16.369C13.4637 10.577 18.1757 5.86504 23.9677 5.86504Z" fill="#505050"/>
<path d="M23.9675 21.4646C22.7275 21.4646 21.7195 20.4566 21.7195 19.2166C21.7195 18.8886 21.4475 18.6166 21.1195 18.6166C20.7915 18.6166 20.5195 18.8886 20.5195 19.2166C20.5195 20.9126 21.7515 22.3206 23.3675 22.6006V23.5286C23.3675 23.8566 23.6395 24.1286 23.9675 24.1286C24.2955 24.1286 24.5675 23.8566 24.5675 23.5286V22.6006C26.1835 22.3126 27.4155 20.9126 27.4155 19.2166C27.4155 17.3126 25.8715 15.7686 23.9675 15.7686C22.7275 15.7686 21.7195 14.7606 21.7195 13.5206C21.7195 12.2806 22.7275 11.2726 23.9675 11.2726C25.2075 11.2726 26.2155 12.2806 26.2155 13.5206C26.2155 13.8486 26.4875 14.1206 26.8155 14.1206C27.1435 14.1206 27.4155 13.8486 27.4155 13.5206C27.4155 11.8246 26.1835 10.4166 24.5675 10.1366V9.20059C24.5675 8.87259 24.2955 8.60059 23.9675 8.60059C23.6395 8.60059 23.3675 8.87259 23.3675 9.20059V10.1286C21.7515 10.4166 20.5195 11.8166 20.5195 13.5126C20.5195 15.4166 22.0635 16.9606 23.9675 16.9606C25.2075 16.9606 26.2155 17.9686 26.2155 19.2086C26.2155 20.4486 25.2075 21.4646 23.9675 21.4646Z" fill="#505050"/>
</g>
<defs>
<clipPath id="clip0_787_2548">
<rect width="40" height="40" fill="white"/>
</clipPath>
</defs>
</svg>
