<svg width="40" height="40" viewBox="0 0 40 40" fill="none" xmlns="http://www.w3.org/2000/svg">
<path d="M26.7359 34.1516C26.7359 24.8716 19.2159 17.3516 9.93591 17.3516C7.34391 17.3516 4.90391 17.9516 2.71191 18.9996V39.1996H25.9599C26.4639 37.6076 26.7359 35.9116 26.7359 34.1516Z" fill="#E8E8E8"/>
<path d="M36.6884 8.0236C36.6884 11.6876 33.7204 14.6636 30.0564 14.6636C29.4164 14.6636 28.8004 14.5676 28.2164 14.3996L24.8324 16.6556L25.6404 12.9676C24.2884 11.7436 23.4404 9.9836 23.4404 8.0236C23.4404 4.3596 26.4084 1.3916 30.0724 1.3916C33.7204 1.3996 36.6884 4.3676 36.6884 8.0236Z" fill="#A3A3A3"/>
<path d="M20.4399 18.0401V26.4961C20.4399 27.6721 19.4879 28.6241 18.3119 28.6241H17.2639V38.2001H10.3039V28.6161H9.25593C8.07993 28.6161 7.12793 27.6641 7.12793 26.4881V18.0401C7.12793 16.8641 8.07993 15.9121 9.25593 15.9121H18.3119C19.4879 15.9121 20.4399 16.8641 20.4399 18.0401Z" fill="#E3E3E3"/>
<path d="M9.07227 8.35965C9.07227 5.75165 11.1843 3.63965 13.7923 3.63965C16.4003 3.63965 18.5123 5.75165 18.5123 8.35965C18.5123 10.9676 16.4003 13.0796 13.7923 13.0796C11.1843 13.0716 9.07227 10.9596 9.07227 8.35965Z" fill="#E3E3E3"/>
<path d="M18.3123 15.3115H9.25632C7.76032 15.3115 6.53632 16.5355 6.52832 18.0315V18.6395C6.52832 18.9675 6.80032 19.2395 7.12832 19.2395C7.46432 19.2395 7.72832 18.9675 7.72832 18.6395V18.0315C7.72832 17.1915 8.41632 16.5035 9.25632 16.5035H18.3123C19.1523 16.5035 19.8403 17.1915 19.8403 18.0315V26.4875C19.8403 27.3275 19.1523 28.0155 18.3123 28.0155H17.8643V24.9035C17.8643 24.5755 17.5923 24.3035 17.2643 24.3035C16.9363 24.3035 16.6643 24.5755 16.6643 24.9035V28.6155V37.5915H14.3843V34.2635C14.3843 33.9355 14.1123 33.6635 13.7843 33.6635C13.4563 33.6635 13.1843 33.9355 13.1843 34.2635V37.5915H10.9043V28.6315C10.9043 28.6235 10.9043 28.6235 10.9043 28.6155V24.9035C10.9043 24.5755 10.6323 24.3035 10.3043 24.3035C9.97632 24.3035 9.70432 24.5755 9.70432 24.9035V28.0155H9.25632C8.41632 28.0155 7.72832 27.3275 7.72832 26.4875V21.8395C7.72832 21.5115 7.46432 21.2395 7.12832 21.2395C6.80032 21.2395 6.52832 21.5115 6.52832 21.8395V26.4875C6.53632 27.9915 7.76032 29.2155 9.25632 29.2155H9.70432V38.1915C9.70432 38.3515 9.76832 38.5035 9.88032 38.6155C9.99232 38.7275 10.1523 38.7915 10.3043 38.7915H17.2643C17.4243 38.7915 17.5683 38.7355 17.6883 38.6155C17.8003 38.5035 17.8643 38.3515 17.8643 38.1915V29.2155H18.3123C19.8163 29.2155 21.0403 27.9915 21.0403 26.4875V18.0315C21.0403 16.5355 19.8163 15.3115 18.3123 15.3115Z" fill="#505050"/>
<path d="M7.12832 20.8396C7.45969 20.8396 7.72832 20.571 7.72832 20.2396C7.72832 19.9083 7.45969 19.6396 7.12832 19.6396C6.79695 19.6396 6.52832 19.9083 6.52832 20.2396C6.52832 20.571 6.79695 20.8396 7.12832 20.8396Z" fill="#505050"/>
<path d="M13.7839 13.672C16.7119 13.672 19.1039 11.288 19.1039 8.35204C19.1039 5.41604 16.7199 3.04004 13.7839 3.04004C10.8479 3.04004 8.46387 5.42404 8.46387 8.36004C8.46387 11.296 10.8559 13.672 13.7839 13.672ZM13.7839 4.24004C16.0559 4.24004 17.9039 6.08804 17.9039 8.36004C17.9039 10.632 16.0559 12.48 13.7839 12.48C11.5119 12.48 9.66387 10.632 9.66387 8.36004C9.66387 6.08804 11.5199 4.24004 13.7839 4.24004Z" fill="#505050"/>
<path d="M30.064 0.799805C26.08 0.799805 22.832 4.0398 22.832 8.0318C22.832 9.9598 23.608 11.8158 24.976 13.1758L24.24 16.5358C24.184 16.7758 24.288 17.0238 24.488 17.1598C24.592 17.2318 24.712 17.2638 24.824 17.2638C24.944 17.2638 25.056 17.2318 25.16 17.1598L28.32 15.0478C28.888 15.1918 29.472 15.2558 30.056 15.2558C34.04 15.2558 37.288 12.0078 37.288 8.0238C37.288 4.0398 34.048 0.799805 30.064 0.799805ZM30.064 14.0638C29.504 14.0638 28.936 13.9838 28.384 13.8238C28.216 13.7758 28.032 13.7998 27.888 13.9038L25.736 15.3358L26.224 13.0958C26.272 12.8878 26.2 12.6638 26.04 12.5198C24.768 11.3678 24.032 9.7278 24.032 8.0238C24.032 4.6958 26.736 1.9918 30.064 1.9918C33.392 1.9918 36.096 4.6958 36.096 8.0238C36.088 11.3518 33.384 14.0638 30.064 14.0638Z" fill="#505050"/>
<path d="M33.4886 4.96777H26.4086C26.0806 4.96777 25.8086 5.23977 25.8086 5.56777C25.8086 5.89577 26.0806 6.16777 26.4086 6.16777H33.4886C33.8166 6.16777 34.0886 5.89577 34.0886 5.56777C34.0886 5.23977 33.8246 4.96777 33.4886 4.96777Z" fill="#505050"/>
<path d="M33.4886 7.4082H26.4086C26.0806 7.4082 25.8086 7.6802 25.8086 8.0082C25.8086 8.3362 26.0806 8.6082 26.4086 8.6082H33.4886C33.8166 8.6082 34.0886 8.3362 34.0886 8.0082C34.0886 7.6802 33.8246 7.4082 33.4886 7.4082Z" fill="#505050"/>
<path d="M31.6004 9.83984H26.4164C26.0884 9.83984 25.8164 10.1118 25.8164 10.4398C25.8164 10.7678 26.0884 11.0398 26.4164 11.0398H31.6004C31.9284 11.0398 32.2004 10.7678 32.2004 10.4398C32.2004 10.1118 31.9284 9.83984 31.6004 9.83984Z" fill="#505050"/>
</svg>
