<svg width="40" height="40" viewBox="0 0 40 40" fill="none" xmlns="http://www.w3.org/2000/svg">
<path d="M1.81641 22.3677C3.76041 23.1517 5.88041 23.5997 8.11241 23.5997C17.3924 23.5997 24.9124 16.0797 24.9124 6.79966C24.9124 4.70366 24.5124 2.69566 23.8084 0.847656H1.81641V22.3677Z" fill="#E8E8E8"/>
<path d="M30.3604 9.85547H37.5844C37.5924 9.85547 37.5924 9.85547 37.5924 9.86347V30.6395H4.44043V9.85547H11.5844" fill="#D4D4D4"/>
<path d="M15.537 18.847H26.497C28.889 17.135 30.449 14.343 30.449 11.183C30.449 5.97498 26.225 1.75098 21.017 1.75098C15.809 1.75098 11.585 5.97498 11.585 11.183C11.585 14.351 13.145 17.143 15.537 18.847Z" fill="#EBEBEB"/>
<path d="M37.5932 30.6396H4.44922V34.1197H37.5932V30.6396Z" fill="white"/>
<path d="M16.3609 34.127H25.6729L28.3609 38.551H13.6729L16.3609 34.127Z" fill="#CDCDCD"/>
<path d="M31.2006 31.2391C31.532 31.2391 31.8006 30.9704 31.8006 30.6391C31.8006 30.3077 31.532 30.0391 31.2006 30.0391C30.8692 30.0391 30.6006 30.3077 30.6006 30.6391C30.6006 30.9704 30.8692 31.2391 31.2006 31.2391Z" fill="#505050"/>
<path d="M38.1848 9.85537C38.1848 9.68737 38.1128 9.52737 37.9848 9.40737H37.9768C37.8728 9.30337 37.7288 9.24737 37.5768 9.24737H30.8488C29.9528 4.63937 25.8808 1.15137 21.0168 1.15137C16.1528 1.15137 12.0808 4.63937 11.1768 9.24737H4.44082C4.28082 9.24737 4.12882 9.31137 4.01682 9.42337C3.90482 9.53537 3.84082 9.69537 3.84082 9.84737V34.1194C3.84082 34.4474 4.11282 34.7194 4.44082 34.7194H15.2888L13.3288 37.9514H10.7448C10.4168 37.9514 10.1448 38.2234 10.1448 38.5514C10.1448 38.8794 10.4168 39.1514 10.7448 39.1514H31.2808C31.6088 39.1514 31.8808 38.8794 31.8808 38.5514C31.8808 38.2234 31.6088 37.9514 31.2808 37.9514H28.6968L26.7368 34.7194H37.5848C37.9128 34.7194 38.1848 34.4474 38.1848 34.1194V9.85537ZM14.7368 37.9514L16.6968 34.7194H25.3368L27.2968 37.9514H14.7368ZM21.0168 2.35137C25.8888 2.35137 29.8488 6.31137 29.8488 11.1834C29.8488 13.9594 28.5288 16.5834 26.2968 18.2474H15.7368C13.5128 16.5834 12.1928 13.9514 12.1928 11.1834C12.1848 6.31937 16.1448 2.35137 21.0168 2.35137ZM5.04082 33.5194V31.2394H29.6008C29.9288 31.2394 30.2008 30.9674 30.2008 30.6394C30.2008 30.3114 29.9288 30.0394 29.6008 30.0394H5.04082V10.4474H11.0248C11.0088 10.6874 10.9848 10.9354 10.9848 11.1834C10.9848 13.8474 12.0728 16.3834 13.9288 18.2474H12.4968C12.1688 18.2474 11.8968 18.5194 11.8968 18.8474C11.8968 19.1754 12.1688 19.4474 12.4968 19.4474H29.5288C29.8568 19.4474 30.1288 19.1754 30.1288 18.8474C30.1288 18.5194 29.8568 18.2474 29.5288 18.2474H28.0968C29.9608 16.3834 31.0408 13.8474 31.0408 11.1834C31.0408 10.9354 31.0248 10.6954 31.0008 10.4474H36.9768V30.0394H32.8008C32.4648 30.0394 32.2008 30.3114 32.2008 30.6394C32.2008 30.9674 32.4648 31.2394 32.8008 31.2394H36.9848V33.5194H5.04082Z" fill="#505050"/>
<path d="M21.0166 14.5356C20.2566 14.5356 19.6326 13.9196 19.6326 13.1516C19.6326 12.8236 19.3606 12.5516 19.0326 12.5516C18.7046 12.5516 18.4326 12.8236 18.4326 13.1516C18.4326 14.3676 19.2806 15.3836 20.4166 15.6556V16.1516C20.4166 16.4796 20.6886 16.7516 21.0166 16.7516C21.3446 16.7516 21.6166 16.4796 21.6166 16.1516V15.6556C22.7526 15.3836 23.6006 14.3676 23.6006 13.1516C23.6006 11.7276 22.4406 10.5676 21.0166 10.5676C20.2566 10.5676 19.6326 9.95161 19.6326 9.18361C19.6326 8.42361 20.2486 7.79961 21.0166 7.79961C21.7846 7.79961 22.4006 8.41561 22.4006 9.18361C22.4006 9.51161 22.6726 9.78361 23.0006 9.78361C23.3286 9.78361 23.6006 9.51161 23.6006 9.18361C23.6006 7.96761 22.7526 6.95161 21.6166 6.67961V6.19961C21.6166 5.87161 21.3446 5.59961 21.0166 5.59961C20.6886 5.59961 20.4166 5.87161 20.4166 6.19961V6.69561C19.2806 6.96761 18.4326 7.98361 18.4326 9.19961C18.4326 10.6236 19.5926 11.7836 21.0166 11.7836C21.7766 11.7836 22.4006 12.3996 22.4006 13.1676C22.4006 13.9356 21.7766 14.5356 21.0166 14.5356Z" fill="#505050"/>
</svg>
