<svg width="40" height="40" viewBox="0 0 40 40" fill="none" xmlns="http://www.w3.org/2000/svg">
<path d="M17.7363 19.8563V3.28027C8.53634 3.28027 1.07234 10.6803 0.944336 19.8483H17.7363V19.8563Z" fill="#E8E8E8"/>
<path d="M33.0241 33.2318C34.5351 33.2318 35.7601 32.0068 35.7601 30.4958C35.7601 28.9847 34.5351 27.7598 33.0241 27.7598C31.513 27.7598 30.2881 28.9847 30.2881 30.4958C30.2881 32.0068 31.513 33.2318 33.0241 33.2318Z" fill="#A3A3A3"/>
<path d="M38.448 38.3997C38.264 35.5597 35.912 33.3037 33.016 33.3037C30.128 33.3037 27.768 35.5517 27.584 38.3997H38.448Z" fill="#A3A3A3"/>
<path d="M20.1364 33.2318C21.6474 33.2318 22.8724 32.0068 22.8724 30.4958C22.8724 28.9847 21.6474 27.7598 20.1364 27.7598C18.6253 27.7598 17.4004 28.9847 17.4004 30.4958C17.4004 32.0068 18.6253 33.2318 20.1364 33.2318Z" fill="#A3A3A3"/>
<path d="M25.5681 38.3997C25.3841 35.5597 23.0321 33.3037 20.1361 33.3037C17.2481 33.3037 14.8881 35.5517 14.7041 38.3997H25.5681Z" fill="#A3A3A3"/>
<path d="M7.2487 33.2318C8.75975 33.2318 9.98469 32.0068 9.98469 30.4958C9.98469 28.9847 8.75975 27.7598 7.2487 27.7598C5.73764 27.7598 4.5127 28.9847 4.5127 30.4958C4.5127 32.0068 5.73764 33.2318 7.2487 33.2318Z" fill="#A3A3A3"/>
<path d="M12.6804 38.3997C12.4964 35.5597 10.1444 33.3037 7.24841 33.3037C4.36041 33.3037 2.00041 35.5517 1.81641 38.3997H12.6804Z" fill="#A3A3A3"/>
<path d="M20.1365 16.4956C24.2499 16.4956 27.5845 13.161 27.5845 9.04761C27.5845 4.93419 24.2499 1.59961 20.1365 1.59961C16.0231 1.59961 12.6885 4.93419 12.6885 9.04761C12.6885 13.161 16.0231 16.4956 20.1365 16.4956Z" fill="#EBEBEB"/>
<path d="M35.1042 33.0802C35.8642 32.4722 36.3522 31.5442 36.3522 30.4962C36.3522 28.6562 34.8562 27.1602 33.0162 27.1602C31.1762 27.1602 29.6801 28.6562 29.6801 30.4962C29.6801 31.5442 30.1762 32.4642 30.9282 33.0802C28.7522 33.8882 27.1442 35.9202 26.9842 38.3602C26.9762 38.5282 27.0322 38.6882 27.1442 38.8082C27.2562 38.9282 27.4162 39.0002 27.5842 39.0002H38.4402C38.6082 39.0002 38.7682 38.9282 38.8802 38.8082C38.9922 38.6882 39.0482 38.5282 39.0402 38.3602C38.8962 35.9202 37.2882 33.8882 35.1042 33.0802ZM33.0241 28.3602C34.2001 28.3602 35.1602 29.3202 35.1602 30.4962C35.1602 31.6722 34.2001 32.6322 33.0241 32.6322C31.8481 32.6322 30.8882 31.6722 30.8882 30.4962C30.8882 29.3202 31.8481 28.3602 33.0241 28.3602ZM28.2801 37.8002C28.7281 35.5682 30.6961 33.9042 33.0241 33.9042C35.3521 33.9042 37.3282 35.5682 37.7682 37.8002H28.2801Z" fill="#505050"/>
<path d="M22.2243 33.0802C22.9843 32.4722 23.4723 31.5442 23.4723 30.4962C23.4723 28.6562 21.9763 27.1602 20.1363 27.1602C18.2963 27.1602 16.8003 28.6562 16.8003 30.4962C16.8003 31.5442 17.2963 32.4642 18.0483 33.0802C15.8643 33.8882 14.2643 35.9202 14.1043 38.3602C14.0963 38.5282 14.1523 38.6882 14.2643 38.8082C14.3763 38.9282 14.5363 39.0002 14.7043 39.0002H25.5603C25.7283 39.0002 25.8883 38.9282 26.0003 38.8082C26.1123 38.6882 26.1683 38.5282 26.1603 38.3602C26.0083 35.9202 24.4003 33.8882 22.2243 33.0802ZM20.1363 28.3602C21.3123 28.3602 22.2723 29.3202 22.2723 30.4962C22.2723 31.6722 21.3123 32.6322 20.1363 32.6322C18.9603 32.6322 18.0003 31.6722 18.0003 30.4962C18.0003 29.3202 18.9603 28.3602 20.1363 28.3602ZM15.3923 37.8002C15.8403 35.5682 17.8083 33.9042 20.1363 33.9042C22.4643 33.9042 24.4403 35.5682 24.8803 37.8002H15.3923Z" fill="#505050"/>
<path d="M9.33657 33.0802C10.0966 32.4722 10.5846 31.5442 10.5846 30.4962C10.5846 28.6562 9.08857 27.1602 7.24857 27.1602C5.40857 27.1602 3.91257 28.6562 3.91257 30.4962C3.91257 31.5442 4.40857 32.4642 5.16057 33.0802C2.97657 33.8882 1.37657 35.9202 1.21657 38.3602C1.20857 38.5282 1.26457 38.6882 1.37657 38.8082C1.48857 38.9282 1.64857 39.0002 1.81657 39.0002H12.6726C12.8406 39.0002 13.0006 38.9282 13.1126 38.8082C13.2246 38.6882 13.2806 38.5282 13.2726 38.3602C13.1206 35.9202 11.5126 33.8882 9.33657 33.0802ZM7.24857 28.3602C8.42457 28.3602 9.38457 29.3202 9.38457 30.4962C9.38457 31.6722 8.42457 32.6322 7.24857 32.6322C6.07257 32.6322 5.11257 31.6722 5.11257 30.4962C5.12057 29.3202 6.07257 28.3602 7.24857 28.3602ZM2.50457 37.8002C2.95257 35.5682 4.92057 33.9042 7.24857 33.9042C9.57657 33.9042 11.5526 35.5682 11.9926 37.8002H2.50457Z" fill="#505050"/>
<path d="M7.24844 25.08C7.57644 25.08 7.84844 24.808 7.84844 24.48V20.256H19.5364V24.48C19.5364 24.808 19.8084 25.08 20.1364 25.08C20.4644 25.08 20.7364 24.808 20.7364 24.48V20.256H32.4244V24.48C32.4244 24.808 32.6964 25.08 33.0244 25.08C33.3524 25.08 33.6244 24.808 33.6244 24.48V19.656C33.6244 19.328 33.3524 19.056 33.0244 19.056H20.7364V17.064C24.8884 16.752 28.1844 13.28 28.1844 9.048C28.1844 4.608 24.5684 1 20.1364 1C15.6964 1 12.0884 4.608 12.0884 9.048C12.0884 13.28 15.3764 16.752 19.5364 17.064V19.056H7.24844C6.92044 19.056 6.64844 19.328 6.64844 19.656V24.48C6.64844 24.816 6.92044 25.08 7.24844 25.08ZM13.2804 9.048C13.2884 5.28 16.3604 2.2 20.1364 2.192C23.9044 2.2 26.9764 5.28 26.9844 9.048C26.9764 12.816 23.9044 15.888 20.1364 15.896C16.3604 15.888 13.2884 12.816 13.2804 9.048Z" fill="#505050"/>
<path d="M20.1364 14.6001C20.4644 14.6001 20.7364 14.3281 20.7364 14.0001V13.5041C21.8644 13.2321 22.7044 12.2241 22.7044 11.0161C22.7044 9.60009 21.5524 8.44809 20.1364 8.44809C19.3844 8.44809 18.7684 7.83209 18.7684 7.08009C18.7684 6.32809 19.3844 5.71209 20.1364 5.71209C20.8884 5.71209 21.5044 6.32809 21.5044 7.08009C21.5044 7.40809 21.7764 7.68009 22.1044 7.68009C22.4324 7.68009 22.7044 7.40809 22.7044 7.08009C22.7044 5.87209 21.8644 4.86409 20.7364 4.59209V4.09609C20.7364 3.76809 20.4644 3.49609 20.1364 3.49609C19.8084 3.49609 19.5364 3.76809 19.5364 4.09609V4.59209C18.4084 4.86409 17.5684 5.87209 17.5684 7.08009C17.5684 8.49609 18.7204 9.64809 20.1364 9.64809C20.8884 9.64809 21.5044 10.2641 21.5044 11.0161C21.5044 11.7681 20.8884 12.3841 20.1364 12.3841C19.3844 12.3841 18.7684 11.7681 18.7684 11.0161C18.7684 10.6881 18.4964 10.4161 18.1684 10.4161C17.8404 10.4161 17.5684 10.6881 17.5684 11.0161C17.5684 12.2241 18.4084 13.2321 19.5364 13.5041V14.0001C19.5364 14.3281 19.8084 14.6001 20.1364 14.6001Z" fill="#505050"/>
</svg>
