<svg width="40" height="40" viewBox="0 0 40 40" fill="none" xmlns="http://www.w3.org/2000/svg">
<g clip-path="url(#clip0_787_2621)">
<path d="M16.3123 0.856445C15.7843 2.48845 15.4883 4.23245 15.4883 6.04045C15.4883 15.3204 23.0083 22.8404 32.2883 22.8404C34.7443 22.8404 37.0723 22.3044 39.1763 21.3524V0.856445H16.3123Z" fill="#E8E8E8"/>
<path d="M38.2326 35.3438H1.43262V38.5438H38.2326V35.3438Z" fill="#CDCDCD"/>
<path d="M11.3605 17.8477H6.56055V32.9517H11.3605V17.8477Z" fill="#CDCDCD"/>
<path d="M19.048 13.4482H14.248V32.9442H19.048V13.4482Z" fill="#EBEBEB"/>
<path d="M26.7277 19.0244H21.9277V32.9524H26.7277V19.0244Z" fill="#CDCDCD"/>
<path d="M34.4162 11.8477H29.6162V32.9437H34.4162V11.8477Z" fill="#EBEBEB"/>
<path d="M23.6717 13.1999C24.6349 13.1999 25.4157 12.4191 25.4157 11.4559C25.4157 10.4927 24.6349 9.71191 23.6717 9.71191C22.7085 9.71191 21.9277 10.4927 21.9277 11.4559C21.9277 12.4191 22.7085 13.1999 23.6717 13.1999Z" fill="#CDCDCD"/>
<path d="M15.9842 5.85616C16.9474 5.85616 17.7282 5.07535 17.7282 4.11216C17.7282 3.14898 16.9474 2.36816 15.9842 2.36816C15.021 2.36816 14.2402 3.14898 14.2402 4.11216C14.2402 5.07535 15.021 5.85616 15.9842 5.85616Z" fill="#CDCDCD"/>
<path d="M38.6482 34.9201C38.5282 34.8081 38.3842 34.7441 38.2242 34.7441H7.82422C7.49622 34.7441 7.22422 35.0161 7.22422 35.3441C7.22422 35.6801 7.49622 35.9441 7.82422 35.9441H37.6242V37.9441H2.02422V35.9441H4.62422C4.95222 35.9441 5.22422 35.6801 5.22422 35.3441C5.22422 35.0241 4.96022 34.7521 4.63222 34.7441H4.62422H1.42422C1.26422 34.7441 1.11222 34.8081 1.00022 34.9201C0.888219 35.0321 0.824219 35.1841 0.824219 35.3441V38.5441C0.824219 38.7041 0.888219 38.8641 1.00022 38.9681C1.11222 39.0801 1.26422 39.1441 1.42422 39.1441H38.2242C38.3842 39.1441 38.5362 39.0881 38.6482 38.9681C38.7602 38.8561 38.8242 38.7041 38.8242 38.5441V35.3441C38.8242 35.1841 38.7602 35.0321 38.6482 34.9201Z" fill="#505050"/>
<path d="M6.22402 35.9441C6.55539 35.9441 6.82402 35.6755 6.82402 35.3441C6.82402 35.0128 6.55539 34.7441 6.22402 34.7441C5.89265 34.7441 5.62402 35.0128 5.62402 35.3441C5.62402 35.6755 5.89265 35.9441 6.22402 35.9441Z" fill="#505050"/>
<path d="M6.55996 33.544H11.36C11.688 33.544 11.96 33.272 11.96 32.944V17.848C11.96 17.52 11.688 17.248 11.36 17.248H6.55996C6.23196 17.248 5.95996 17.52 5.95996 17.848V32.952C5.95996 33.28 6.23196 33.544 6.55996 33.544ZM7.15996 18.448H10.76V32.352H7.15996V18.448Z" fill="#505050"/>
<path d="M14.2484 12.8477C13.9204 12.8477 13.6484 13.1197 13.6484 13.4477V32.9437C13.6484 33.2717 13.9204 33.5437 14.2484 33.5437H19.0484C19.3764 33.5437 19.6484 33.2717 19.6484 32.9437V13.4477C19.6484 13.1197 19.3764 12.8477 19.0484 12.8477H14.2484ZM18.4484 32.3437H14.8484V14.0477H18.4484V32.3437Z" fill="#505050"/>
<path d="M21.9281 18.4238C21.6001 18.4238 21.3281 18.6958 21.3281 19.0238V32.9518C21.3281 33.2798 21.6001 33.5518 21.9281 33.5518H26.7281C27.0561 33.5518 27.3281 33.2798 27.3281 32.9518V19.0238C27.3281 18.6958 27.0561 18.4238 26.7281 18.4238H21.9281ZM26.1281 32.3438H22.5281V19.6238H26.1281V32.3438Z" fill="#505050"/>
<path d="M29.0166 11.848V32.944C29.0166 33.272 29.2886 33.544 29.6166 33.544H34.4166C34.7446 33.544 35.0166 33.272 35.0166 32.944V11.848C35.0166 11.52 34.7446 11.248 34.4166 11.248H29.6166C29.2806 11.248 29.0166 11.52 29.0166 11.848ZM30.2166 12.448H33.8166V32.344H30.2166V12.448Z" fill="#505050"/>
<path d="M8.30405 12.5761C8.46405 12.5761 8.61605 12.5121 8.73605 12.3921L14.8161 6.12011C15.1601 6.32011 15.5601 6.44811 15.9841 6.44811C16.4401 6.44811 16.8641 6.31211 17.2241 6.08811L21.6321 10.3201C21.4481 10.6561 21.3281 11.0401 21.3281 11.4481C21.3281 12.7361 22.3761 13.7921 23.6721 13.7921C24.9601 13.7921 26.0161 12.7441 26.0161 11.4481C26.0161 10.9281 25.8401 10.4561 25.5521 10.0641L30.9761 3.28011L31.0801 4.96811C31.0961 5.28811 31.3601 5.53611 31.6801 5.53611C31.6961 5.53611 31.7041 5.53611 31.7201 5.53611C32.0481 5.52011 32.3041 5.23211 32.2801 4.90411L32.0961 1.80811C32.0881 1.64811 32.0161 1.50411 31.8961 1.39211C31.7761 1.28011 31.6241 1.23211 31.4641 1.24011L31.3361 1.24811C31.3201 1.24811 31.3041 1.24811 31.2801 1.24811L28.3601 1.42411C28.0321 1.44011 27.7761 1.72811 27.8001 2.05611C27.8241 2.38411 28.1041 2.64011 28.4321 2.61611L30.0481 2.52011L24.6241 9.30411C24.3361 9.17611 24.0161 9.10411 23.6801 9.10411C23.2401 9.10411 22.8241 9.23211 22.4721 9.44811L18.0481 5.20011C18.2241 4.87211 18.3361 4.49611 18.3361 4.09611C18.3361 2.80811 17.2881 1.75211 15.9921 1.75211C14.7041 1.75211 13.6481 2.80011 13.6481 4.09611C13.6481 4.52011 13.7681 4.92011 13.9761 5.26411L7.88005 11.5441C7.64805 11.7841 7.65605 12.1601 7.89605 12.3921C8.00005 12.5201 8.15205 12.5761 8.30405 12.5761ZM24.8081 11.4561C24.8081 12.0881 24.2961 12.6001 23.6641 12.6001C23.0321 12.6001 22.5201 12.0881 22.5201 11.4561C22.5201 10.8241 23.0321 10.3121 23.6641 10.3121C24.2961 10.3121 24.8081 10.8241 24.8081 11.4561ZM15.9841 2.96811C16.6161 2.96811 17.1281 3.48011 17.1281 4.11211C17.1281 4.74411 16.6161 5.25611 15.9841 5.25611C15.3521 5.25611 14.8401 4.74411 14.8401 4.11211C14.8401 3.48011 15.3601 2.96811 15.9841 2.96811Z" fill="#505050"/>
</g>
<defs>
<clipPath id="clip0_787_2621">
<rect width="40" height="40" fill="white"/>
</clipPath>
</defs>
</svg>
