<svg width="40" height="40" viewBox="0 0 40 40" fill="none" xmlns="http://www.w3.org/2000/svg">
<path d="M15.8887 2.30391C15.8887 11.5839 23.4087 19.1039 32.6887 19.1039C34.9607 19.1039 37.1207 18.6479 39.0967 17.8319V1.50391H15.9287C15.9207 1.76791 15.8887 2.03191 15.8887 2.30391Z" fill="#E8E8E8"/>
<path d="M1.64844 3.50391V37.8959H26.8644V32.5679V22.9599V3.50391H1.64844Z" fill="white"/>
<path d="M12.2722 6.09668H4.99219V15.2567H12.2722V6.09668Z" fill="#A3A3A3"/>
<path d="M22.8398 35.2798L27.3518 32.2318L23.1118 29.8398L22.8398 35.2798Z" fill="#E4E4E4"/>
<path d="M36.5523 16.12L35.9043 15.76L32.1283 13.624L23.1203 29.6L23.1123 29.84L27.3523 32.232L27.5523 32.096L36.5523 16.12Z" fill="#A3A3A3"/>
<path d="M36.5521 16.1202L37.8161 13.8722C38.5041 12.6482 38.0721 11.0962 36.8481 10.4082C35.6241 9.72024 34.0721 10.1522 33.3841 11.3762L32.1201 13.6242L35.9041 15.7522L36.5521 16.1202Z" fill="#E4E4E4"/>
<path d="M1.5043 33.8406C1.83567 33.8406 2.1043 33.572 2.1043 33.2406C2.1043 32.9093 1.83567 32.6406 1.5043 32.6406C1.17293 32.6406 0.904297 32.9093 0.904297 33.2406C0.904297 33.572 1.17293 33.8406 1.5043 33.8406Z" fill="#505050"/>
<path d="M4.84023 21.7039H23.3682C23.6962 21.7039 23.9682 21.4319 23.9682 21.1039C23.9682 20.7759 23.6962 20.5039 23.3682 20.5039H4.84023C4.51223 20.5039 4.24023 20.7759 4.24023 21.1039C4.24023 21.4319 4.51223 21.7039 4.84023 21.7039Z" fill="#505050"/>
<path d="M4.84023 24.7439H23.3682C23.6962 24.7439 23.9682 24.4719 23.9682 24.1439C23.9682 23.8159 23.6962 23.5439 23.3682 23.5439H4.84023C4.51223 23.5439 4.24023 23.8159 4.24023 24.1439C4.24023 24.4719 4.51223 24.7439 4.84023 24.7439Z" fill="#505050"/>
<path d="M4.84023 18.6727H23.3682C23.6962 18.6727 23.9682 18.4007 23.9682 18.0727C23.9682 17.7447 23.6962 17.4727 23.3682 17.4727H4.84023C4.51223 17.4727 4.24023 17.7447 4.24023 18.0727C4.24023 18.4007 4.51223 18.6727 4.84023 18.6727Z" fill="#505050"/>
<path d="M4.84023 27.784H17.8082C18.1362 27.784 18.4082 27.512 18.4082 27.184C18.4082 26.856 18.1362 26.584 17.8082 26.584H4.84023C4.51223 26.584 4.24023 26.856 4.24023 27.184C4.24023 27.512 4.51223 27.784 4.84023 27.784Z" fill="#505050"/>
<path d="M4.84023 30.8162H17.8082C18.1362 30.8162 18.4082 30.5442 18.4082 30.2162C18.4082 29.8882 18.1362 29.6162 17.8082 29.6162H4.84023C4.51223 29.6162 4.24023 29.8882 4.24023 30.2162C4.24023 30.5442 4.51223 30.8162 4.84023 30.8162Z" fill="#505050"/>
<path d="M4.84023 33.8563H17.8082C18.1362 33.8563 18.4082 33.5843 18.4082 33.2563C18.4082 32.9283 18.1362 32.6562 17.8082 32.6562H4.84023C4.51223 32.6562 4.24023 32.9283 4.24023 33.2563C4.24023 33.5843 4.51223 33.8563 4.84023 33.8563Z" fill="#505050"/>
<path d="M4.84023 15.8561H12.1202C12.4482 15.8561 12.7202 15.5841 12.7202 15.2561V6.09609C12.7202 5.76809 12.4482 5.49609 12.1202 5.49609H4.84023C4.51223 5.49609 4.24023 5.76809 4.24023 6.09609V15.2561C4.24023 15.5841 4.51223 15.8561 4.84023 15.8561ZM5.44023 6.69609H11.5202V14.6561H5.44023V6.69609Z" fill="#505050"/>
<path d="M38.5923 16.4323L37.3203 15.7123L38.1923 14.1603C39.0403 12.6483 38.5043 10.7283 37.0003 9.8803C36.2723 9.4643 35.4243 9.3683 34.6163 9.5923C33.8083 9.8163 33.1363 10.3443 32.7203 11.0723L31.5523 13.1443L27.3123 20.6643L27.3043 3.5043C27.3043 3.3443 27.2483 3.1923 27.1283 3.0723C27.0163 2.9603 26.8723 2.9043 26.7043 2.9043H1.5043C1.3443 2.9043 1.1923 2.9683 1.0803 3.0723C0.960297 3.1843 0.904297 3.3443 0.904297 3.5043V31.6403C0.904297 31.9683 1.1763 32.2403 1.5043 32.2403C1.8323 32.2403 2.1043 31.9683 2.1043 31.6403V4.0963H25.3203C25.3363 4.1043 25.3523 4.1043 25.3763 4.0963H26.1123L26.1203 22.8003L22.4563 29.3043C22.4083 29.3843 22.3923 29.4643 22.3843 29.5523C22.3843 29.5603 22.3763 29.5603 22.3763 29.5683L22.0963 35.2483C22.0883 35.4723 22.2003 35.6883 22.4003 35.8003C22.4883 35.8483 22.5923 35.8803 22.6963 35.8803C22.8163 35.8803 22.9283 35.8483 23.0323 35.7763L26.1283 33.6883V37.2963H2.1043V34.8403C2.1043 34.5123 1.8323 34.2403 1.5043 34.2403C1.1763 34.2403 0.904297 34.5123 0.904297 34.8403V37.8963C0.904297 38.0563 0.968297 38.2083 1.0803 38.3203C1.1923 38.4323 1.3443 38.4963 1.5043 38.4963H26.7123C26.8803 38.4963 27.0243 38.4323 27.1363 38.3203C27.2563 38.2083 27.3123 38.0563 27.3123 37.8963V32.8803L27.7443 32.5923C27.8243 32.5363 27.8883 32.4723 27.9283 32.3923L36.7363 16.7603L37.4883 17.1843L31.3283 28.1123C31.1683 28.4003 31.2643 28.7683 31.5603 28.9283C31.6563 28.9843 31.7523 29.0083 31.8563 29.0083C32.0643 29.0083 32.2723 28.8963 32.3763 28.7043L38.8323 17.2563C38.9843 16.9603 38.8803 16.6003 38.5923 16.4323ZM33.7683 11.6723C34.0243 11.2243 34.4403 10.8963 34.9363 10.7523C35.4403 10.6163 35.9603 10.6803 36.4083 10.9283C37.3443 11.4563 37.6723 12.6403 37.1443 13.5763L36.2723 15.1203L32.8883 13.2163L33.7683 11.6723ZM23.5203 30.6003L26.2563 32.1443L23.3443 34.1123L23.5203 30.6003ZM27.1763 31.2803L23.7923 29.3763L32.3043 14.2643L35.6883 16.1683L27.1763 31.2803Z" fill="#505050"/>
<path d="M8.48048 8.89608C8.80848 8.89608 9.07248 9.16008 9.07248 9.48808C9.07248 9.81608 9.34448 10.0881 9.67248 10.0881C10.0005 10.0881 10.2725 9.81608 10.2725 9.48808C10.2725 8.71208 9.77648 8.05608 9.08048 7.80808V7.68008C9.08048 7.35208 8.80848 7.08008 8.48048 7.08008C8.15248 7.08008 7.88048 7.34408 7.88048 7.68008V7.80808C7.18448 8.05608 6.68848 8.71208 6.68848 9.48808C6.68848 10.4721 7.48848 11.2801 8.48048 11.2801C8.80848 11.2801 9.07248 11.5441 9.07248 11.8721C9.07248 12.2001 8.80848 12.4641 8.48048 12.4641C8.15248 12.4641 7.88848 12.2001 7.88848 11.8721C7.88848 11.5441 7.61648 11.2721 7.28848 11.2721C6.96048 11.2721 6.68848 11.5441 6.68848 11.8721C6.68848 12.6481 7.18448 13.3041 7.88048 13.5521V13.6801C7.88048 14.0081 8.15248 14.2801 8.48048 14.2801C8.80848 14.2801 9.08048 14.0081 9.08048 13.6801V13.5521C9.76848 13.3041 10.2725 12.6481 10.2725 11.8721C10.2725 10.8881 9.47248 10.0801 8.48048 10.0801C8.15248 10.0801 7.88848 9.81608 7.88848 9.48808C7.88848 9.16008 8.15248 8.89608 8.48048 8.89608Z" fill="#505050"/>
</svg>
