<svg width="40" height="40" viewBox="0 0 40 40" fill="none" xmlns="http://www.w3.org/2000/svg">
<path d="M0.904297 26.1839C3.0643 27.3199 5.5203 27.9679 8.1283 27.9679C16.7443 27.9679 23.7203 20.9839 23.7203 12.3759C23.7203 8.55194 22.3363 5.05594 20.0563 2.33594H0.904297V26.1839Z" fill="#E8E8E8"/>
<path d="M1.69629 12.4072V31.8232H4.32029L33.2483 15.0312V12.4072H1.69629Z" fill="white"/>
<path d="M4.32031 15.0312V34.4392H6.94431L35.8723 17.6552V15.0312H4.32031Z" fill="#A3A3A3"/>
<path d="M38.4963 17.6553H6.94434V37.0713H38.4963V17.6553Z" fill="white"/>
<path d="M10.1445 31.4635V23.2555C11.4725 23.2555 12.5445 22.1835 12.5445 20.8555H32.8965C32.8965 22.1835 33.9685 23.2555 35.2965 23.2555V31.4715C33.9685 31.4715 32.8965 32.5435 32.8965 33.8715H12.5445C12.5445 32.5435 11.4725 31.4635 10.1445 31.4635Z" fill="#A3A3A3"/>
<path d="M22.7204 24.5195C23.3364 24.5195 23.8404 25.0235 23.8404 25.6395C23.8404 25.9675 24.1124 26.2395 24.4404 26.2395C24.7684 26.2395 25.0404 25.9675 25.0404 25.6395C25.0404 24.5675 24.3044 23.6715 23.3204 23.4075V23.0395C23.3204 22.7115 23.0484 22.4395 22.7204 22.4395C22.3924 22.4395 22.1204 22.7115 22.1204 23.0395V23.4155C21.1364 23.6795 20.4004 24.5755 20.4004 25.6475C20.4004 26.9275 21.4404 27.9675 22.7204 27.9675C23.3364 27.9675 23.8404 28.4715 23.8404 29.0875C23.8404 29.7035 23.3364 30.2075 22.7204 30.2075C22.1044 30.2075 21.6004 29.7035 21.6004 29.0875C21.6004 28.7595 21.3284 28.4875 21.0004 28.4875C20.6724 28.4875 20.4004 28.7595 20.4004 29.0875C20.4004 30.1595 21.1364 31.0555 22.1204 31.3195V31.6955C22.1204 32.0235 22.3924 32.2955 22.7204 32.2955C23.0484 32.2955 23.3204 32.0235 23.3204 31.6955V31.3195C24.3044 31.0555 25.0404 30.1595 25.0404 29.0875C25.0404 27.8075 24.0004 26.7675 22.7204 26.7675C22.1044 26.7675 21.6004 26.2635 21.6004 25.6475C21.6004 25.0315 22.1044 24.5195 22.7204 24.5195Z" fill="#505050"/>
<path d="M38.9207 17.2316C38.8087 17.1196 38.6567 17.0556 38.4967 17.0556H36.4727V15.0316C36.4727 14.7036 36.2007 14.4316 35.8727 14.4316H33.8487V12.4076C33.8487 12.0796 33.5767 11.8076 33.2487 11.8076H1.69668C1.36868 11.8076 1.09668 12.0796 1.09668 12.4076V31.8236C1.09668 32.1516 1.36868 32.4236 1.69668 32.4236H3.72068V34.4396C3.72068 34.7676 3.99268 35.0396 4.32068 35.0396H6.34468V37.0636C6.34468 37.2236 6.40868 37.3836 6.52068 37.4956C6.63268 37.5996 6.78468 37.6636 6.94468 37.6636H38.4967C38.6567 37.6636 38.8087 37.6076 38.9207 37.4956C39.0327 37.3756 39.0967 37.2236 39.0967 37.0636V34.4316C39.0967 34.1036 38.8247 33.8316 38.4967 33.8316C38.1607 33.8316 37.8967 34.1036 37.8967 34.4316V36.4716H7.54468V18.2556H35.8727H37.8967V31.2316C37.8967 31.5596 38.1607 31.8316 38.4967 31.8316C38.8247 31.8316 39.0967 31.5596 39.0967 31.2316C39.0967 31.2236 39.0967 31.2236 39.0967 31.2236V17.6556C39.0967 17.4956 39.0327 17.3436 38.9207 17.2316ZM2.29668 31.2236V13.0076H32.6487V14.4316H4.32068C3.99268 14.4316 3.72068 14.7036 3.72068 15.0316V31.2236H2.29668ZM6.94468 17.0556C6.78468 17.0556 6.63268 17.1196 6.52068 17.2316C6.40868 17.3436 6.34468 17.4956 6.34468 17.6556V33.8396H4.92068V15.6316H35.2727V17.0556H6.94468Z" fill="#505050"/>
<path d="M38.4965 33.4314C38.8279 33.4314 39.0965 33.1628 39.0965 32.8314C39.0965 32.5001 38.8279 32.2314 38.4965 32.2314C38.1651 32.2314 37.8965 32.5001 37.8965 32.8314C37.8965 33.1628 38.1651 33.4314 38.4965 33.4314Z" fill="#505050"/>
<path d="M35.2969 22.6559C34.3049 22.6559 33.4969 21.8479 33.4969 20.8559C33.4969 20.5279 33.2249 20.2559 32.8969 20.2559H12.5449C12.2169 20.2559 11.9449 20.5279 11.9449 20.8559C11.9449 21.8479 11.1369 22.6559 10.1449 22.6559C9.81692 22.6559 9.54492 22.9279 9.54492 23.2559V31.4719C9.54492 31.7999 9.81692 32.0719 10.1449 32.0719C11.1369 32.0719 11.9449 32.8799 11.9449 33.8719C11.9449 34.1999 12.2169 34.4719 12.5449 34.4719H32.8969C33.2249 34.4719 33.4969 34.1999 33.4969 33.8719C33.4969 32.8799 34.3049 32.0719 35.2969 32.0719C35.6249 32.0719 35.8969 31.7999 35.8969 31.4719V23.2559C35.8969 22.9199 35.6249 22.6559 35.2969 22.6559ZM34.6969 30.9279C33.5209 31.1679 32.5929 32.0959 32.3609 33.2639H13.0889C12.8489 32.0879 11.9209 31.1599 10.7529 30.9279V23.7919C11.9289 23.5519 12.8569 22.6239 13.0889 21.4559H32.3609C32.6009 22.6319 33.5289 23.5599 34.6969 23.7919V30.9279Z" fill="#505050"/>
</svg>
