<svg width="40" height="40" viewBox="0 0 40 40" fill="none" xmlns="http://www.w3.org/2000/svg">
<g clip-path="url(#clip0_787_2504)">
<path d="M8.80848 8.2963H23.4885C23.0085 5.5123 21.8005 2.9763 20.0485 0.904297H0.896484V24.7523C3.05648 25.8883 5.51248 26.5363 8.12048 26.5363C8.35248 26.5363 8.57648 26.5123 8.80048 26.5043V8.2963H8.80848Z" fill="#E8E8E8"/>
<path d="M20.1045 27.0967C23.9705 27.0967 27.1045 23.9627 27.1045 20.0967C27.1045 16.2307 23.9705 13.0967 20.1045 13.0967C16.2385 13.0967 13.1045 16.2307 13.1045 20.0967C13.1045 23.9627 16.2385 27.0967 20.1045 27.0967Z" fill="#EBEBEB"/>
<path d="M38.5041 22.1931V18.0011L34.2241 17.0891C33.8481 15.3291 33.1521 13.6971 32.2081 12.2331L34.6001 8.56908L31.6321 5.60108L27.9601 8.00108C26.5041 7.04908 24.8641 6.35308 23.1041 5.98508L22.1921 1.70508H18.0001L17.0881 5.98508C15.3281 6.36108 13.6961 7.05708 12.2321 8.00108L8.5681 5.60908L5.6001 8.57708L8.0001 12.2411C7.0481 13.6971 6.3521 15.3371 5.9841 17.0971L1.7041 18.0091V22.2011L5.9841 23.1131C6.3601 24.8731 7.0561 26.5051 8.0001 27.9611L5.6081 31.6251L8.5761 34.5931L12.2401 32.2011C13.6961 33.1531 15.3361 33.8491 17.0881 34.2171L18.0001 38.4971H22.1921L23.1041 34.2171C24.8641 33.8411 26.4961 33.1451 27.9521 32.2011L31.6161 34.5931L34.5841 31.6251L32.1921 27.9611C33.1441 26.5051 33.8401 24.8651 34.2081 23.1051L38.5041 22.1931ZM20.1041 30.2971C14.4721 30.2971 9.9041 25.7291 9.9041 20.0971C9.9041 14.4651 14.4721 9.89708 20.1041 9.89708C25.7361 9.89708 30.3041 14.4651 30.3041 20.0971C30.3041 25.7371 25.7361 30.2971 20.1041 30.2971Z" fill="#A3A3A3"/>
<path d="M9.30469 20.0969C9.30469 26.0489 14.1527 30.8969 20.1047 30.8969C26.0567 30.8969 30.9047 26.0489 30.9047 20.0969C30.9047 14.1449 26.0567 9.29688 20.1047 9.29688C14.1527 9.29688 9.30469 14.1449 9.30469 20.0969ZM29.7047 20.0969C29.7047 25.3929 25.4007 29.6969 20.1047 29.6969C14.8087 29.6969 10.5047 25.3929 10.5047 20.0969C10.5047 14.8009 14.8087 10.4969 20.1047 10.4969C25.4007 10.4969 29.7047 14.8089 29.7047 20.0969Z" fill="#505050"/>
<path d="M12.5049 20.0971C12.5049 24.2891 15.9129 27.6971 20.1049 27.6971C24.2969 27.6971 27.7049 24.2891 27.7049 20.0971C27.7049 15.9051 24.2969 12.4971 20.1049 12.4971C15.9129 12.4971 12.5049 15.9131 12.5049 20.0971ZM26.5049 20.0971C26.5049 23.6251 23.6329 26.4971 20.1049 26.4971C16.5769 26.4971 13.7049 23.6251 13.7049 20.0971C13.7049 16.5691 16.5769 13.6971 20.1049 13.6971C23.6329 13.6971 26.5049 16.5691 26.5049 20.0971Z" fill="#505050"/>
<path d="M22.496 37.1047C22.168 37.0327 21.848 37.2487 21.784 37.5687C21.752 37.7207 21.776 37.8807 21.864 38.0167C21.952 38.1527 22.088 38.2487 22.248 38.2807C22.288 38.2887 22.328 38.2887 22.368 38.2887C22.648 38.2887 22.896 38.0887 22.96 37.8167C23.024 37.4967 22.816 37.1767 22.496 37.1047Z" fill="#505050"/>
<path d="M24.5366 6.9922H24.5446C24.6086 7.0162 24.6726 7.0242 24.7366 7.0242C24.9926 7.0242 25.2166 6.8642 25.2966 6.6162C25.3526 6.4642 25.3366 6.3042 25.2726 6.1602C25.2006 6.0162 25.0806 5.9122 24.9366 5.8562H24.9286C24.6166 5.7522 24.2646 5.9282 24.1686 6.2322C24.1126 6.3842 24.1206 6.5442 24.1926 6.6882C24.2646 6.8322 24.3846 6.9362 24.5366 6.9922Z" fill="#505050"/>
<path d="M21.4245 37.8967H18.4965L17.6885 34.0887C17.6405 33.8567 17.4565 33.6727 17.2245 33.6247C15.5765 33.2807 14.0165 32.6247 12.5765 31.6967C12.3845 31.5687 12.1125 31.5687 11.9205 31.6967L8.66449 33.8167L6.38449 31.5367L8.50449 28.2807C8.64049 28.0807 8.64049 27.8247 8.50449 27.6247C8.02449 26.8887 7.60849 26.0967 7.28049 25.2727C6.97649 24.5367 6.74449 23.7607 6.57649 22.9767C6.52849 22.7447 6.34449 22.5607 6.11249 22.5127L2.30449 21.7047V18.4887L6.11249 17.6807C6.34449 17.6327 6.52849 17.4487 6.57649 17.2167C6.92049 15.5687 7.57649 14.0007 8.50449 12.5687C8.64049 12.3687 8.64049 12.1127 8.50449 11.9127L6.38449 8.65668L8.66449 6.37668L11.9205 8.49668C12.1125 8.62468 12.3765 8.62468 12.5765 8.49668C14.0085 7.56868 15.5765 6.91268 17.2245 6.56868C17.4565 6.51268 17.6405 6.33668 17.6885 6.10468L18.4965 2.29668H21.7125L22.5205 6.10468C22.5685 6.33668 22.7525 6.51268 22.9845 6.56868L23.0645 6.58468C23.3765 6.65668 23.7125 6.44068 23.7765 6.12068C23.8165 5.93668 23.7685 5.74468 23.6405 5.60068L22.7845 1.57668C22.7285 1.29668 22.4805 1.09668 22.2005 1.09668H18.0005C17.7205 1.09668 17.4725 1.29668 17.4165 1.57668L16.5845 5.48068C15.0645 5.84868 13.6005 6.45668 12.2485 7.28868L8.91249 5.10468C8.67249 4.95268 8.35249 4.98468 8.16049 5.18468L5.19249 8.15268C4.99249 8.35268 4.96049 8.66468 5.11249 8.90468L7.28849 12.2487C6.45649 13.6007 5.84849 15.0567 5.48849 16.5847L1.57649 17.4167C1.30449 17.4727 1.10449 17.7207 1.10449 18.0007V22.1927C1.10449 22.4727 1.30449 22.7207 1.57649 22.7767L5.48849 23.6087C5.66449 24.3287 5.88849 25.0407 6.16849 25.7287C6.48049 26.4887 6.85649 27.2407 7.29649 27.9447L5.11249 31.2887C4.96049 31.5287 4.99249 31.8407 5.19249 32.0407L8.16049 35.0087C8.35249 35.2087 8.68049 35.2407 8.91249 35.0887L12.2565 32.9127C13.6085 33.7447 15.0645 34.3527 16.5925 34.7127L17.4245 38.6247C17.4805 38.8967 17.7285 39.0967 18.0085 39.0967H21.4245C21.7525 39.0967 22.0245 38.8247 22.0245 38.4967C22.0245 38.1687 21.7525 37.8967 21.4245 37.8967Z" fill="#505050"/>
<path d="M38.6327 17.4166L34.7287 16.5846C34.3607 15.0566 33.7527 13.5926 32.9207 12.2486L35.0967 8.90462C35.2567 8.66462 35.2247 8.35262 35.0167 8.15262L32.0487 5.18462C31.8567 4.99262 31.5367 4.95262 31.3047 5.10462L27.9607 7.28062C27.4807 6.98462 26.9767 6.72062 26.4727 6.48062C26.1767 6.34462 25.8087 6.48062 25.6727 6.76862C25.5287 7.06462 25.6567 7.42462 25.9607 7.56862C26.5287 7.83262 27.0967 8.14462 27.6407 8.49662C27.8327 8.62462 28.0967 8.62462 28.2887 8.49662L31.5447 6.37662L33.8247 8.65662L31.7047 11.9126C31.5767 12.1126 31.5767 12.3686 31.7047 12.5686C32.6407 14.0006 33.2887 15.5686 33.6407 17.2166C33.6807 17.4486 33.8647 17.6326 34.0967 17.6806L37.9047 18.4886V21.7046L34.0967 22.5126C33.8647 22.5606 33.6887 22.7446 33.6407 22.9766C33.2887 24.6326 32.6327 26.1926 31.7047 27.6246C31.5767 27.8246 31.5767 28.0806 31.7047 28.2806L33.8247 31.5366L31.5447 33.8166L28.2887 31.6966C28.0887 31.5686 27.8247 31.5686 27.6327 31.6966C26.2007 32.6246 24.6327 33.2806 22.9847 33.6246C22.7527 33.6726 22.5687 33.8566 22.5207 34.0886L22.1127 36.0006C22.0807 36.1606 22.1127 36.3206 22.2007 36.4566C22.2887 36.5926 22.4247 36.6806 22.5767 36.7126C22.6167 36.7206 22.6647 36.7286 22.7047 36.7286C22.9847 36.7286 23.2327 36.5286 23.2887 36.2486V36.2406L23.6167 34.7126C25.1447 34.3526 26.6007 33.7446 27.9527 32.9126L31.3047 35.0886C31.5367 35.2406 31.8567 35.2086 32.0487 35.0086L35.0167 32.0406C35.2247 31.8406 35.2567 31.5286 35.0967 31.2886L32.9207 27.9526C33.7527 26.5926 34.3607 25.1366 34.7207 23.6086L38.6327 22.7766C38.9127 22.7206 39.1047 22.4806 39.1047 22.1926V18.0006C39.1047 17.7206 38.9127 17.4726 38.6327 17.4166Z" fill="#505050"/>
<path d="M19.5049 15.5932V16.0012C18.4809 16.2732 17.7129 17.1932 17.7129 18.3052C17.7129 19.6252 18.7849 20.6972 20.1049 20.6972C20.7609 20.6972 21.2969 21.2332 21.2969 21.8892C21.2969 22.5452 20.7609 23.0812 20.1049 23.0812C19.4489 23.0812 18.9129 22.5452 18.9129 21.8892C18.9129 21.5612 18.6409 21.2892 18.3129 21.2892C17.9849 21.2892 17.7129 21.5612 17.7129 21.8892C17.7129 23.0012 18.4809 23.9292 19.5049 24.1932V24.6012C19.5049 24.9292 19.7769 25.2012 20.1049 25.2012C20.4329 25.2012 20.7049 24.9292 20.7049 24.6012V24.1932C21.7289 23.9212 22.4969 23.0012 22.4969 21.8892C22.4969 20.5692 21.4249 19.4972 20.1049 19.4972C19.4489 19.4972 18.9129 18.9612 18.9129 18.3052C18.9129 17.6492 19.4489 17.1132 20.1049 17.1132C20.7609 17.1132 21.2969 17.6492 21.2969 18.3052C21.2969 18.6332 21.5689 18.9052 21.8969 18.9052C22.2249 18.9052 22.4969 18.6332 22.4969 18.3052C22.4969 17.1932 21.7289 16.2652 20.7049 16.0012V15.5932C20.7049 15.2652 20.4329 14.9932 20.1049 14.9932C19.7769 14.9932 19.5049 15.2652 19.5049 15.5932Z" fill="#505050"/>
</g>
<defs>
<clipPath id="clip0_787_2504">
<rect width="40" height="40" fill="white"/>
</clipPath>
</defs>
</svg>
