<svg width="46" height="46" viewBox="0 0 46 46" fill="none" xmlns="http://www.w3.org/2000/svg">
<circle cx="23" cy="23" r="23" fill="#FADC00" fill-opacity="0.33"/>
<circle cx="23" cy="23" r="19" fill="#FADC00" fill-opacity="0.35"/>
<circle cx="23" cy="23" r="15" fill="#FADC00"/>
<path d="M32 19.5V28.75C32 29.612 31.6576 30.4386 31.0481 31.0481C30.4386 31.6576 29.612 32 28.75 32H17.25C16.388 32 15.5614 31.6576 14.9519 31.0481C14.3424 30.4386 14 29.612 14 28.75V19.5H32ZM18.25 26C17.9185 26 17.6005 26.1317 17.3661 26.3661C17.1317 26.6005 17 26.9185 17 27.25C17 27.5815 17.1317 27.8995 17.3661 28.1339C17.6005 28.3683 17.9185 28.5 18.25 28.5C18.5815 28.5 18.8995 28.3683 19.1339 28.1339C19.3683 27.8995 19.5 27.5815 19.5 27.25C19.5 26.9185 19.3683 26.6005 19.1339 26.3661C18.8995 26.1317 18.5815 26 18.25 26ZM23 26C22.6685 26 22.3505 26.1317 22.1161 26.3661C21.8817 26.6005 21.75 26.9185 21.75 27.25C21.75 27.5815 21.8817 27.8995 22.1161 28.1339C22.3505 28.3683 22.6685 28.5 23 28.5C23.3315 28.5 23.6495 28.3683 23.8839 28.1339C24.1183 27.8995 24.25 27.5815 24.25 27.25C24.25 26.9185 24.1183 26.6005 23.8839 26.3661C23.6495 26.1317 23.3315 26 23 26ZM18.25 21.5C17.9185 21.5 17.6005 21.6317 17.3661 21.8661C17.1317 22.1005 17 22.4185 17 22.75C17 23.0815 17.1317 23.3995 17.3661 23.6339C17.6005 23.8683 17.9185 24 18.25 24C18.5815 24 18.8995 23.8683 19.1339 23.6339C19.3683 23.3995 19.5 23.0815 19.5 22.75C19.5 22.4185 19.3683 22.1005 19.1339 21.8661C18.8995 21.6317 18.5815 21.5 18.25 21.5ZM23 21.5C22.6685 21.5 22.3505 21.6317 22.1161 21.8661C21.8817 22.1005 21.75 22.4185 21.75 22.75C21.75 23.0815 21.8817 23.3995 22.1161 23.6339C22.3505 23.8683 22.6685 24 23 24C23.3315 24 23.6495 23.8683 23.8839 23.6339C24.1183 23.3995 24.25 23.0815 24.25 22.75C24.25 22.4185 24.1183 22.1005 23.8839 21.8661C23.6495 21.6317 23.3315 21.5 23 21.5ZM27.75 21.5C27.4185 21.5 27.1005 21.6317 26.8661 21.8661C26.6317 22.1005 26.5 22.4185 26.5 22.75C26.5 23.0815 26.6317 23.3995 26.8661 23.6339C27.1005 23.8683 27.4185 24 27.75 24C28.0815 24 28.3995 23.8683 28.6339 23.6339C28.8683 23.3995 29 23.0815 29 22.75C29 22.4185 28.8683 22.1005 28.6339 21.8661C28.3995 21.6317 28.0815 21.5 27.75 21.5ZM28.75 14C29.612 14 30.4386 14.3424 31.0481 14.9519C31.6576 15.5614 32 16.388 32 17.25V18H14V17.25C14 16.388 14.3424 15.5614 14.9519 14.9519C15.5614 14.3424 16.388 14 17.25 14H28.75Z" fill="#212121"/>
</svg>
