<svg width="46" height="46" viewBox="0 0 46 46" fill="none" xmlns="http://www.w3.org/2000/svg">
<circle cx="23" cy="23" r="23" fill="#FADC00" fill-opacity="0.33"/>
<circle cx="23" cy="23" r="19" fill="#FADC00" fill-opacity="0.35"/>
<circle cx="23" cy="23" r="15" fill="#FADC00"/>
<path d="M24.7784 16.5832L29.4167 21.2215L20.3069 30.3332C20.0531 30.5871 19.7375 30.7703 19.3912 30.8648L14.7015 32.1436C14.5846 32.1753 14.4614 32.1756 14.3444 32.1444C14.2274 32.1132 14.1207 32.0516 14.0351 31.9659C13.9495 31.8803 13.8881 31.7735 13.857 31.6564C13.8259 31.5394 13.8263 31.4162 13.8582 31.2993L15.1369 26.6097C15.2314 26.2633 15.4147 25.9477 15.6686 25.6939L24.7766 16.5832H24.7784ZM31.2776 14.7223C31.8927 15.3374 32.2382 16.1716 32.2382 17.0415C32.2382 17.9114 31.8927 18.7456 31.2776 19.3607L30.3884 20.2498L25.7501 15.6115L26.6392 14.7223C27.2543 14.1073 28.0886 13.7617 28.9584 13.7617C29.8283 13.7617 30.6625 14.1073 31.2776 14.7223V14.7223Z" fill="#212121"/>
</svg>
