<svg width="46" height="46" viewBox="0 0 46 46" fill="none" xmlns="http://www.w3.org/2000/svg">
<circle cx="23" cy="23" r="23" fill="#FADC00" fill-opacity="0.33"/>
<circle cx="23" cy="23" r="19" fill="#FADC00" fill-opacity="0.35"/>
<circle cx="23" cy="23" r="15" fill="#FADC00"/>
<path d="M27.3 15.9C27.048 15.9 26.8064 15.7999 26.6282 15.6218C26.4501 15.4436 26.35 15.202 26.35 14.95C26.35 14.698 26.4501 14.4564 26.6282 14.2782C26.8064 14.1001 27.048 14 27.3 14H31.1C31.352 14 31.5936 14.1001 31.7718 14.2782C31.9499 14.4564 32.05 14.698 32.05 14.95V18.75C32.05 19.002 31.9499 19.2436 31.7718 19.4218C31.5936 19.5999 31.352 19.7 31.1 19.7C30.848 19.7 30.6064 19.5999 30.4282 19.4218C30.2501 19.2436 30.15 19.002 30.15 18.75V17.2433L24.6466 22.7466C24.4685 22.9247 24.2269 23.0248 23.975 23.0248C23.7231 23.0248 23.4815 22.9247 23.3034 22.7466L20.65 20.0933L15.6216 25.1216C15.4425 25.2947 15.2025 25.3905 14.9534 25.3883C14.7043 25.3861 14.4661 25.2862 14.2899 25.1101C14.1138 24.9339 14.0139 24.6957 14.0117 24.4466C14.0095 24.1975 14.1053 23.9575 14.2783 23.7783L19.9784 18.0784C20.1565 17.9003 20.3981 17.8002 20.65 17.8002C20.9019 17.8002 21.1435 17.9003 21.3216 18.0784L23.975 20.7317L28.8067 15.9H27.3ZM15.9 29.2V32.05C15.9 32.302 15.7999 32.5436 15.6218 32.7218C15.4436 32.8999 15.202 33 14.95 33C14.698 33 14.4564 32.8999 14.2782 32.7218C14.1001 32.5436 14 32.302 14 32.05V29.2C14 28.948 14.1001 28.7064 14.2782 28.5282C14.4564 28.3501 14.698 28.25 14.95 28.25C15.202 28.25 15.4436 28.3501 15.6218 28.5282C15.7999 28.7064 15.9 28.948 15.9 29.2ZM20.65 25.4C20.65 25.148 20.5499 24.9064 20.3718 24.7282C20.1936 24.5501 19.952 24.45 19.7 24.45C19.448 24.45 19.2064 24.5501 19.0282 24.7282C18.8501 24.9064 18.75 25.148 18.75 25.4V32.05C18.75 32.302 18.8501 32.5436 19.0282 32.7218C19.2064 32.8999 19.448 33 19.7 33C19.952 33 20.1936 32.8999 20.3718 32.7218C20.5499 32.5436 20.65 32.302 20.65 32.05V25.4ZM24.45 26.35C24.702 26.35 24.9436 26.4501 25.1218 26.6282C25.2999 26.8064 25.4 27.048 25.4 27.3V32.05C25.4 32.302 25.2999 32.5436 25.1218 32.7218C24.9436 32.8999 24.702 33 24.45 33C24.198 33 23.9564 32.8999 23.7782 32.7218C23.6001 32.5436 23.5 32.302 23.5 32.05V27.3C23.5 27.048 23.6001 26.8064 23.7782 26.6282C23.9564 26.4501 24.198 26.35 24.45 26.35ZM30.15 22.55C30.15 22.298 30.0499 22.0564 29.8718 21.8782C29.6936 21.7001 29.452 21.6 29.2 21.6C28.948 21.6 28.7064 21.7001 28.5282 21.8782C28.3501 22.0564 28.25 22.298 28.25 22.55V32.05C28.25 32.302 28.3501 32.5436 28.5282 32.7218C28.7064 32.8999 28.948 33 29.2 33C29.452 33 29.6936 32.8999 29.8718 32.7218C30.0499 32.5436 30.15 32.302 30.15 32.05V22.55Z" fill="#212121"/>
</svg>
