<svg width="25" height="24" viewBox="0 0 25 24" fill="none" xmlns="http://www.w3.org/2000/svg">
<g clip-path="url(#clip0_1670_3603)">
<path d="M19.8125 0.411865V4.68747H24.0881L19.8125 0.411865Z" fill="black"/>
<path d="M12.2188 11.8125V10.1719C12.2188 9.26723 11.4828 8.53125 10.5781 8.53125H2.14062C1.23598 8.53125 0.5 9.26723 0.5 10.1719V11.8125H12.2188Z" fill="black"/>
<path d="M0.5 13.2188V22.3594C0.5 23.264 1.23598 24 2.14062 24H10.5781C11.4828 24 12.2188 23.264 12.2188 22.3594V13.2188H0.5ZM3.54688 22.0078C3.15856 22.0078 2.84375 21.693 2.84375 21.3047C2.84375 20.9164 3.15856 20.6016 3.54688 20.6016C3.93519 20.6016 4.25 20.9164 4.25 21.3047C4.25 21.693 3.93519 22.0078 3.54688 22.0078ZM3.54688 19.4297C3.15856 19.4297 2.84375 19.1149 2.84375 18.7266C2.84375 18.3383 3.15856 18.0234 3.54688 18.0234C3.93519 18.0234 4.25 18.3383 4.25 18.7266C4.25 19.1149 3.93519 19.4297 3.54688 19.4297ZM3.54688 16.6172C3.15856 16.6172 2.84375 16.3024 2.84375 15.9141C2.84375 15.5257 3.15856 15.2109 3.54688 15.2109C3.93519 15.2109 4.25 15.5257 4.25 15.9141C4.25 16.3024 3.93519 16.6172 3.54688 16.6172ZM6.35938 22.0078C5.97106 22.0078 5.65625 21.693 5.65625 21.3047C5.65625 20.9164 5.97106 20.6016 6.35938 20.6016C6.74769 20.6016 7.0625 20.9164 7.0625 21.3047C7.0625 21.693 6.74769 22.0078 6.35938 22.0078ZM6.35938 19.4297C5.97106 19.4297 5.65625 19.1149 5.65625 18.7266C5.65625 18.3383 5.97106 18.0234 6.35938 18.0234C6.74769 18.0234 7.0625 18.3383 7.0625 18.7266C7.0625 19.1149 6.74769 19.4297 6.35938 19.4297ZM6.35938 16.6172C5.97106 16.6172 5.65625 16.3024 5.65625 15.9141C5.65625 15.5257 5.97106 15.2109 6.35938 15.2109C6.74769 15.2109 7.0625 15.5257 7.0625 15.9141C7.0625 16.3024 6.74769 16.6172 6.35938 16.6172ZM9.17188 22.0078C8.78356 22.0078 8.46875 21.693 8.46875 21.3047C8.46875 20.9164 8.78356 20.6016 9.17188 20.6016C9.56019 20.6016 9.875 20.9164 9.875 21.3047C9.875 21.693 9.56019 22.0078 9.17188 22.0078ZM9.17188 19.4297C8.78356 19.4297 8.46875 19.1149 8.46875 18.7266C8.46875 18.3383 8.78356 18.0234 9.17188 18.0234C9.56019 18.0234 9.875 18.3383 9.875 18.7266C9.875 19.1149 9.56019 19.4297 9.17188 19.4297ZM9.17188 16.6172C8.78356 16.6172 8.46875 16.3024 8.46875 15.9141C8.46875 15.5257 8.78356 15.2109 9.17188 15.2109C9.56019 15.2109 9.875 15.5257 9.875 15.9141C9.875 16.3024 9.56019 16.6172 9.17188 16.6172Z" fill="black"/>
<path d="M19.1094 6.09375C18.7211 6.09375 18.4062 5.77894 18.4062 5.39062V0H6.92188C6.53356 0 6.21875 0.314812 6.21875 0.703125V7.125H10.5781C12.2582 7.125 13.625 8.49183 13.625 10.1719V22.3594C13.625 22.9632 13.4477 23.526 13.1435 24H23.7969C24.1852 24 24.5 23.6852 24.5 23.2969V6.09375H19.1094ZM9.73438 2.10938H15.3594C15.7477 2.10938 16.0625 2.42419 16.0625 2.8125C16.0625 3.20081 15.7477 3.51562 15.3594 3.51562H9.73438C9.34606 3.51562 9.03125 3.20081 9.03125 2.8125C9.03125 2.42419 9.34606 2.10938 9.73438 2.10938ZM9.73438 6.32812C9.34606 6.32812 9.03125 6.01331 9.03125 5.625C9.03125 5.23669 9.34606 4.92188 9.73438 4.92188H15.3594C15.7477 4.92188 16.0625 5.23669 16.0625 5.625C16.0625 6.01331 15.7477 6.32812 15.3594 6.32812H9.73438ZM21.1765 17.1947C21.0602 17.8869 20.7119 18.5292 20.196 19.0033C19.7953 19.3714 19.3193 19.619 18.7951 19.7365V20.3906C18.7951 20.7789 18.4803 21.0938 18.092 21.0938C17.7036 21.0938 17.3888 20.7789 17.3888 20.3906V19.799C16.7134 19.7521 16.1734 19.5877 15.3943 19.0781C15.0693 18.8655 14.9782 18.4297 15.1908 18.1048C15.4033 17.7797 15.8391 17.6887 16.1642 17.9013C16.6547 18.2222 16.9532 18.3448 17.3888 18.388V14.8171C16.8536 14.5757 16.4592 14.3455 16.1387 14.0942C15.5015 13.5944 15.2111 12.7243 15.3808 11.8235C15.5664 10.8385 16.251 10.0552 17.1675 9.77911C17.2424 9.75652 17.3159 9.73716 17.3888 9.7192V9.14062C17.3888 8.75231 17.7036 8.4375 18.092 8.4375C18.4803 8.4375 18.7951 8.75231 18.7951 9.14062V9.63764C19.5921 9.75375 20.1524 10.1389 20.4185 10.4444C20.6735 10.7372 20.643 11.1813 20.3502 11.4364C20.0584 11.6905 19.6162 11.6611 19.3607 11.371C19.3475 11.3575 19.161 11.1732 18.7951 11.0734V13.8736C18.9602 13.9355 19.1254 13.9951 19.2871 14.0523C20.002 14.305 20.5546 14.7576 20.885 15.3609C21.1809 15.9013 21.2845 16.5526 21.1765 17.1947Z" fill="black"/>
<path d="M16.7628 12.084C16.6917 12.461 16.7874 12.8158 17.0066 12.9877C17.1179 13.075 17.2473 13.1595 17.3888 13.2416V11.2004C17.0178 11.3916 16.8225 11.7669 16.7628 12.084Z" fill="black"/>
<path d="M18.8184 15.3782C18.8105 15.3754 18.8029 15.3726 18.795 15.3699V18.2621C19.3664 18.0095 19.7041 17.4706 19.7897 16.9616C19.8359 16.687 19.9022 15.7613 18.8184 15.3782Z" fill="black"/>
</g>
<defs>
<clipPath id="clip0_1670_3603">
<rect width="24" height="24" fill="white" transform="translate(0.5)"/>
</clipPath>
</defs>
</svg>
