<svg width="91" height="63" viewBox="0 0 91 63" fill="none" xmlns="http://www.w3.org/2000/svg">
<path fill-rule="evenodd" clip-rule="evenodd" d="M34.5 11C32.2909 11 30.5 12.7909 30.5 15V17.8571H60.5V15C60.5 12.7909 58.7091 11 56.5 11H34.5ZM60.5 21.2856H30.5V31C30.5 33.2091 32.2909 35 34.5 35H56.5C58.7091 35 60.5 33.2091 60.5 31V21.2856Z" fill="#8E8E93"/>
<path opacity="0.65" d="M21.4782 49.12C20.7422 49.12 20.1302 48.984 19.6422 48.712C19.1622 48.44 18.7982 48.06 18.5502 47.572C18.3022 47.084 18.1662 46.516 18.1422 45.868C18.1342 45.54 18.1302 45.188 18.1302 44.812C18.1302 44.436 18.1342 44.076 18.1422 43.732C18.1662 43.084 18.3022 42.516 18.5502 42.028C18.7982 41.54 19.1622 41.16 19.6422 40.888C20.1302 40.616 20.7422 40.48 21.4782 40.48C22.0302 40.48 22.5142 40.556 22.9302 40.708C23.3462 40.86 23.6902 41.064 23.9622 41.32C24.2422 41.576 24.4542 41.864 24.5982 42.184C24.7422 42.496 24.8222 42.82 24.8382 43.156C24.8462 43.228 24.8222 43.288 24.7662 43.336C24.7182 43.384 24.6582 43.408 24.5862 43.408H23.9262C23.8542 43.408 23.7902 43.388 23.7342 43.348C23.6862 43.308 23.6502 43.236 23.6262 43.132C23.4902 42.508 23.2342 42.08 22.8582 41.848C22.4902 41.616 22.0262 41.5 21.4662 41.5C20.8262 41.5 20.3182 41.684 19.9422 42.052C19.5662 42.412 19.3622 42.992 19.3302 43.792C19.3062 44.448 19.3062 45.12 19.3302 45.808C19.3622 46.608 19.5662 47.192 19.9422 47.56C20.3182 47.92 20.8262 48.1 21.4662 48.1C22.0262 48.1 22.4902 47.984 22.8582 47.752C23.2342 47.52 23.4902 47.092 23.6262 46.468C23.6502 46.364 23.6862 46.292 23.7342 46.252C23.7902 46.212 23.8542 46.192 23.9262 46.192H24.5862C24.6582 46.192 24.7182 46.216 24.7662 46.264C24.8222 46.312 24.8462 46.372 24.8382 46.444C24.8222 46.78 24.7422 47.108 24.5982 47.428C24.4542 47.74 24.2422 48.024 23.9622 48.28C23.6902 48.536 23.3462 48.74 22.9302 48.892C22.5142 49.044 22.0302 49.12 21.4782 49.12ZM28.7743 49.12C27.9503 49.12 27.2943 48.868 26.8063 48.364C26.3183 47.852 26.0503 47.156 26.0023 46.276C25.9943 46.172 25.9903 46.04 25.9903 45.88C25.9903 45.712 25.9943 45.576 26.0023 45.472C26.0343 44.904 26.1663 44.408 26.3983 43.984C26.6303 43.552 26.9463 43.22 27.3463 42.988C27.7543 42.756 28.2303 42.64 28.7743 42.64C29.3823 42.64 29.8903 42.768 30.2983 43.024C30.7143 43.28 31.0303 43.644 31.2463 44.116C31.4623 44.588 31.5703 45.14 31.5703 45.772V45.976C31.5703 46.064 31.5423 46.132 31.4863 46.18C31.4383 46.228 31.3743 46.252 31.2943 46.252H27.1423C27.1423 46.26 27.1423 46.276 27.1423 46.3C27.1423 46.324 27.1423 46.344 27.1423 46.36C27.1583 46.688 27.2303 46.996 27.3583 47.284C27.4863 47.564 27.6703 47.792 27.9103 47.968C28.1503 48.144 28.4383 48.232 28.7743 48.232C29.0623 48.232 29.3023 48.188 29.4943 48.1C29.6863 48.012 29.8423 47.916 29.9623 47.812C30.0823 47.7 30.1623 47.616 30.2023 47.56C30.2743 47.456 30.3303 47.396 30.3703 47.38C30.4103 47.356 30.4743 47.344 30.5623 47.344H31.1383C31.2183 47.344 31.2823 47.368 31.3303 47.416C31.3863 47.456 31.4103 47.516 31.4023 47.596C31.3943 47.716 31.3303 47.864 31.2103 48.04C31.0903 48.208 30.9183 48.376 30.6943 48.544C30.4703 48.712 30.1983 48.852 29.8783 48.964C29.5583 49.068 29.1903 49.12 28.7743 49.12ZM27.1423 45.424H30.4303V45.388C30.4303 45.028 30.3623 44.708 30.2263 44.428C30.0983 44.148 29.9103 43.928 29.6623 43.768C29.4143 43.6 29.1183 43.516 28.7743 43.516C28.4303 43.516 28.1343 43.6 27.8863 43.768C27.6463 43.928 27.4623 44.148 27.3343 44.428C27.2063 44.708 27.1423 45.028 27.1423 45.388V45.424ZM33.2932 49C33.2132 49 33.1452 48.976 33.0892 48.928C33.0412 48.872 33.0172 48.804 33.0172 48.724V40.756C33.0172 40.676 33.0412 40.612 33.0892 40.564C33.1452 40.508 33.2132 40.48 33.2932 40.48H33.8572C33.9452 40.48 34.0132 40.508 34.0612 40.564C34.1092 40.612 34.1332 40.676 34.1332 40.756V48.724C34.1332 48.804 34.1092 48.872 34.0612 48.928C34.0132 48.976 33.9452 49 33.8572 49H33.2932ZM38.4072 49.12C37.5832 49.12 36.9272 48.868 36.4392 48.364C35.9512 47.852 35.6832 47.156 35.6352 46.276C35.6272 46.172 35.6232 46.04 35.6232 45.88C35.6232 45.712 35.6272 45.576 35.6352 45.472C35.6672 44.904 35.7992 44.408 36.0312 43.984C36.2632 43.552 36.5792 43.22 36.9792 42.988C37.3872 42.756 37.8632 42.64 38.4072 42.64C39.0152 42.64 39.5232 42.768 39.9312 43.024C40.3472 43.28 40.6632 43.644 40.8792 44.116C41.0952 44.588 41.2032 45.14 41.2032 45.772V45.976C41.2032 46.064 41.1752 46.132 41.1192 46.18C41.0712 46.228 41.0072 46.252 40.9272 46.252H36.7752C36.7752 46.26 36.7752 46.276 36.7752 46.3C36.7752 46.324 36.7752 46.344 36.7752 46.36C36.7912 46.688 36.8632 46.996 36.9912 47.284C37.1192 47.564 37.3032 47.792 37.5432 47.968C37.7832 48.144 38.0712 48.232 38.4072 48.232C38.6952 48.232 38.9352 48.188 39.1272 48.1C39.3192 48.012 39.4752 47.916 39.5952 47.812C39.7152 47.7 39.7952 47.616 39.8352 47.56C39.9072 47.456 39.9632 47.396 40.0032 47.38C40.0432 47.356 40.1072 47.344 40.1952 47.344H40.7712C40.8512 47.344 40.9152 47.368 40.9632 47.416C41.0192 47.456 41.0432 47.516 41.0352 47.596C41.0272 47.716 40.9632 47.864 40.8432 48.04C40.7232 48.208 40.5512 48.376 40.3272 48.544C40.1032 48.712 39.8312 48.852 39.5112 48.964C39.1912 49.068 38.8232 49.12 38.4072 49.12ZM36.7752 45.424H40.0632V45.388C40.0632 45.028 39.9952 44.708 39.8592 44.428C39.7312 44.148 39.5432 43.928 39.2952 43.768C39.0472 43.6 38.7512 43.516 38.4072 43.516C38.0632 43.516 37.7672 43.6 37.5192 43.768C37.2792 43.928 37.0952 44.148 36.9672 44.428C36.8392 44.708 36.7752 45.028 36.7752 45.388V45.424ZM42.914 49C42.834 49 42.766 48.976 42.71 48.928C42.662 48.872 42.638 48.804 42.638 48.724V43.048C42.638 42.968 42.662 42.9 42.71 42.844C42.766 42.788 42.834 42.76 42.914 42.76H43.466C43.546 42.76 43.614 42.788 43.67 42.844C43.726 42.9 43.754 42.968 43.754 43.048V43.576C43.914 43.304 44.134 43.1 44.414 42.964C44.694 42.828 45.03 42.76 45.422 42.76H45.902C45.982 42.76 46.046 42.788 46.094 42.844C46.142 42.892 46.166 42.956 46.166 43.036V43.528C46.166 43.608 46.142 43.672 46.094 43.72C46.046 43.768 45.982 43.792 45.902 43.792H45.182C44.75 43.792 44.41 43.92 44.162 44.176C43.914 44.424 43.79 44.764 43.79 45.196V48.724C43.79 48.804 43.762 48.872 43.706 48.928C43.65 48.976 43.582 49 43.502 49H42.914ZM49.5634 49.12C48.7394 49.12 48.0834 48.868 47.5954 48.364C47.1074 47.852 46.8394 47.156 46.7914 46.276C46.7834 46.172 46.7794 46.04 46.7794 45.88C46.7794 45.712 46.7834 45.576 46.7914 45.472C46.8234 44.904 46.9554 44.408 47.1874 43.984C47.4194 43.552 47.7354 43.22 48.1354 42.988C48.5434 42.756 49.0194 42.64 49.5634 42.64C50.1714 42.64 50.6794 42.768 51.0874 43.024C51.5034 43.28 51.8194 43.644 52.0354 44.116C52.2514 44.588 52.3594 45.14 52.3594 45.772V45.976C52.3594 46.064 52.3314 46.132 52.2754 46.18C52.2274 46.228 52.1634 46.252 52.0834 46.252H47.9314C47.9314 46.26 47.9314 46.276 47.9314 46.3C47.9314 46.324 47.9314 46.344 47.9314 46.36C47.9474 46.688 48.0194 46.996 48.1474 47.284C48.2754 47.564 48.4594 47.792 48.6994 47.968C48.9394 48.144 49.2274 48.232 49.5634 48.232C49.8514 48.232 50.0914 48.188 50.2834 48.1C50.4754 48.012 50.6314 47.916 50.7514 47.812C50.8714 47.7 50.9514 47.616 50.9914 47.56C51.0634 47.456 51.1194 47.396 51.1594 47.38C51.1994 47.356 51.2634 47.344 51.3514 47.344H51.9274C52.0074 47.344 52.0714 47.368 52.1194 47.416C52.1754 47.456 52.1994 47.516 52.1914 47.596C52.1834 47.716 52.1194 47.864 51.9994 48.04C51.8794 48.208 51.7074 48.376 51.4834 48.544C51.2594 48.712 50.9874 48.852 50.6674 48.964C50.3474 49.068 49.9794 49.12 49.5634 49.12ZM47.9314 45.424H51.2194V45.388C51.2194 45.028 51.1514 44.708 51.0154 44.428C50.8874 44.148 50.6994 43.928 50.4514 43.768C50.2034 43.6 49.9074 43.516 49.5634 43.516C49.2194 43.516 48.9234 43.6 48.6754 43.768C48.4354 43.928 48.2514 44.148 48.1234 44.428C47.9954 44.708 47.9314 45.028 47.9314 45.388V45.424ZM54.2263 49C54.1383 49 54.0703 48.976 54.0223 48.928C53.9743 48.872 53.9503 48.804 53.9503 48.724V40.888C53.9503 40.8 53.9743 40.732 54.0223 40.684C54.0703 40.628 54.1383 40.6 54.2263 40.6H57.2743C57.8663 40.6 58.3783 40.696 58.8103 40.888C59.2503 41.08 59.5903 41.368 59.8303 41.752C60.0703 42.128 60.1903 42.6 60.1903 43.168C60.1903 43.736 60.0703 44.208 59.8303 44.584C59.5903 44.96 59.2503 45.244 58.8103 45.436C58.3783 45.628 57.8663 45.724 57.2743 45.724H55.1503V48.724C55.1503 48.804 55.1223 48.872 55.0663 48.928C55.0183 48.976 54.9503 49 54.8623 49H54.2263ZM55.1383 44.716H57.2143C57.8063 44.716 58.2503 44.584 58.5463 44.32C58.8423 44.056 58.9903 43.672 58.9903 43.168C58.9903 42.672 58.8463 42.288 58.5583 42.016C58.2703 41.744 57.8223 41.608 57.2143 41.608H55.1383V44.716ZM63.1163 49.12C62.7163 49.12 62.3523 49.04 62.0243 48.88C61.6963 48.72 61.4323 48.504 61.2323 48.232C61.0323 47.96 60.9323 47.652 60.9323 47.308C60.9323 46.756 61.1563 46.316 61.6043 45.988C62.0523 45.66 62.6363 45.444 63.3563 45.34L65.1443 45.088V44.74C65.1443 44.356 65.0323 44.056 64.8083 43.84C64.5923 43.624 64.2363 43.516 63.7403 43.516C63.3803 43.516 63.0883 43.588 62.8643 43.732C62.6483 43.876 62.4963 44.06 62.4083 44.284C62.3603 44.404 62.2763 44.464 62.1563 44.464H61.6163C61.5283 44.464 61.4603 44.44 61.4123 44.392C61.3723 44.336 61.3523 44.272 61.3523 44.2C61.3523 44.08 61.3963 43.932 61.4843 43.756C61.5803 43.58 61.7243 43.408 61.9163 43.24C62.1083 43.072 62.3523 42.932 62.6483 42.82C62.9523 42.7 63.3203 42.64 63.7523 42.64C64.2323 42.64 64.6363 42.704 64.9643 42.832C65.2923 42.952 65.5483 43.116 65.7323 43.324C65.9243 43.532 66.0603 43.768 66.1403 44.032C66.2283 44.296 66.2723 44.564 66.2723 44.836V48.724C66.2723 48.804 66.2443 48.872 66.1883 48.928C66.1403 48.976 66.0763 49 65.9963 49H65.4443C65.3563 49 65.2883 48.976 65.2403 48.928C65.1923 48.872 65.1683 48.804 65.1683 48.724V48.208C65.0643 48.352 64.9243 48.496 64.7483 48.64C64.5723 48.776 64.3523 48.892 64.0883 48.988C63.8243 49.076 63.5003 49.12 63.1163 49.12ZM63.3683 48.22C63.6963 48.22 63.9963 48.152 64.2683 48.016C64.5403 47.872 64.7523 47.652 64.9043 47.356C65.0643 47.06 65.1443 46.688 65.1443 46.24V45.904L63.7523 46.108C63.1843 46.188 62.7563 46.324 62.4683 46.516C62.1803 46.7 62.0363 46.936 62.0363 47.224C62.0363 47.448 62.1003 47.636 62.2283 47.788C62.3643 47.932 62.5323 48.04 62.7323 48.112C62.9403 48.184 63.1523 48.22 63.3683 48.22ZM68.9605 51.28C68.8965 51.28 68.8405 51.256 68.7925 51.208C68.7445 51.16 68.7205 51.104 68.7205 51.04C68.7205 51.008 68.7245 50.976 68.7325 50.944C68.7405 50.912 68.7565 50.872 68.7805 50.824L69.7045 48.628L67.4125 43.216C67.3725 43.12 67.3525 43.052 67.3525 43.012C67.3525 42.94 67.3765 42.88 67.4245 42.832C67.4725 42.784 67.5325 42.76 67.6045 42.76H68.1925C68.2725 42.76 68.3365 42.78 68.3845 42.82C68.4325 42.86 68.4645 42.908 68.4805 42.964L70.3045 47.332L72.1765 42.964C72.2005 42.908 72.2325 42.86 72.2725 42.82C72.3205 42.78 72.3885 42.76 72.4765 42.76H73.0405C73.1125 42.76 73.1725 42.784 73.2205 42.832C73.2685 42.88 73.2925 42.936 73.2925 43C73.2925 43.04 73.2725 43.112 73.2325 43.216L69.8245 51.076C69.8005 51.132 69.7645 51.18 69.7165 51.22C69.6765 51.26 69.6125 51.28 69.5245 51.28H68.9605Z" fill="#FFFEF1"/>
</svg>
