<svg width="24" height="25" viewBox="0 0 24 25" fill="none" xmlns="http://www.w3.org/2000/svg">
<path d="M6 23.5C5.45 23.5 4.97917 23.3042 4.5875 22.9125C4.19583 22.5208 4 22.05 4 21.5V3.5C4 2.95 4.19583 2.47917 4.5875 2.0875C4.97917 1.69583 5.45 1.5 6 1.5H16C16.55 1.5 17.0208 1.69583 17.4125 2.0875C17.8042 2.47917 18 2.95 18 3.5V7.5H16V6.5H6V18.5H16V17.5H18V21.5C18 22.05 17.8042 22.5208 17.4125 22.9125C17.0208 23.3042 16.55 23.5 16 23.5H6ZM6 20.5V21.5H16V20.5H6ZM14.95 16.5L10.7 12.25L12.1 10.85L14.95 13.7L20.6 8.05L22 9.45L14.95 16.5ZM6 4.5H16V3.5H6V4.5Z" fill="#1D1B20"/>
</svg>
