<svg width="22" height="22" viewBox="0 0 22 22" fill="none" xmlns="http://www.w3.org/2000/svg">
<path d="M5.57171 12.5548C5.88015 12.5548 5.88015 13.024 5.57171 13.024H3.16937C2.85999 13.024 2.85999 12.5548 3.16937 12.5548H5.57171ZM3.16937 10.0901C2.85999 10.0901 2.85999 9.62088 3.16937 9.62088H8.39687C8.7053 9.62088 8.7053 10.0901 8.39687 10.0901H3.16937ZM3.16937 7.15619C2.85999 7.15619 2.85999 6.68697 3.16937 6.68697H5.80843C6.11687 6.68697 6.11687 7.15619 5.80843 7.15619H3.16937ZM13.3248 15.1099C13.0178 15.0912 13.0459 14.6248 13.353 14.6421C13.5456 14.6543 13.7158 14.4682 13.6614 14.359C13.615 14.2648 13.4725 14.3032 13.3305 14.3417C13.0023 14.4321 12.6742 14.5212 12.4576 14.0801C12.3316 13.8237 12.4216 13.5312 12.6236 13.3399L12.5969 13.2856C12.5369 13.1688 12.5903 13.024 12.7126 12.9668C12.8308 12.9138 12.9691 12.964 13.0234 13.0826L13.0459 13.1318C13.1205 13.1196 13.1945 13.1187 13.2667 13.129C13.5709 13.1703 13.5086 13.6324 13.2044 13.5912C13.0103 13.5659 12.8205 13.7585 12.8776 13.8729C12.9241 13.9671 13.0666 13.9287 13.2086 13.8903C13.5367 13.8012 13.8648 13.7121 14.0814 14.1532C14.2075 14.4096 14.1161 14.7035 13.9126 14.8948L13.9408 14.9557C13.9937 15.0701 13.9459 15.207 13.832 15.2628C13.7162 15.3199 13.5756 15.2721 13.5184 15.1563L13.4917 15.1006C13.4341 15.1099 13.3792 15.1128 13.3248 15.1099ZM14.7625 14.0857C14.4901 13.7988 14.5047 13.3137 14.4939 13.2818C14.2867 12.9682 13.9848 12.7488 13.6516 12.6453C12.8837 12.4085 12.0887 12.8271 11.8473 13.5926C11.5923 14.3923 12.0292 15.2787 12.82 15.5646C13.8208 15.927 14.8197 15.1563 14.7625 14.0857ZM19.7373 4.19697L18.9667 4.57572C18.8153 4.65025 18.7539 4.83729 18.827 4.98635L20.2131 7.80213C20.2876 7.95213 20.4737 8.01588 20.6237 7.94182L21.393 7.56307C21.5444 7.48853 21.6067 7.30244 21.5336 7.15244L20.1475 4.33666C20.0734 4.18525 19.8878 4.12244 19.7373 4.19697ZM19.63 7.67557L18.4755 5.33041C18.2922 5.42229 18.1141 5.51369 17.9401 5.60557C17.6945 5.73588 17.4526 5.86713 17.2159 6.00166C17.208 6.00682 17.2 6.01244 17.192 6.01619C16.2723 6.47322 15.377 6.949 14.5042 7.44213C14.043 7.70135 13.5836 7.96947 13.1237 8.24463C13.1144 8.25119 13.105 8.25775 13.0947 8.26338C12.6972 8.50244 12.2987 8.74854 11.9012 8.99932C11.5942 9.23604 11.4016 9.56135 11.2951 9.90307C11.2923 9.91619 11.2886 9.92978 11.283 9.94291C11.2061 10.2101 11.1808 10.4838 11.1953 10.7281C11.2084 10.9367 11.2736 11.3032 11.4212 11.411C11.4372 11.4232 11.4545 11.4242 11.4756 11.4148L12.872 10.7356C12.8814 10.7304 12.8908 10.7248 12.9011 10.721L15.3381 9.53697C15.5308 9.43853 15.7314 9.62088 15.6714 9.81354C15.1558 11.4532 14.9116 12.649 14.9673 13.3282C14.9833 13.5317 15.0391 13.8546 15.2744 13.8199C15.52 13.759 15.7328 13.6165 15.9109 13.3906C16.1064 13.1435 16.2644 12.7995 16.3839 12.3556C16.4266 11.997 16.5991 11.6674 16.9023 11.367L17.1123 11.1823C17.3739 10.9723 17.7091 10.7796 18.1141 10.6015C18.3278 10.466 18.4769 10.2973 18.5631 10.0967C18.6522 9.88807 18.6747 9.63682 18.632 9.34479H18.6334C18.6292 9.31666 18.6306 9.289 18.6362 9.26088C18.7755 8.63088 19.1289 8.07166 19.63 7.67557ZM10.4219 0.721191C8.65749 0.721191 7.22734 2.15088 7.22734 3.91572C7.22734 5.68057 8.65702 7.10979 10.4219 7.10979C11.3641 7.10979 12.2275 6.69635 12.8111 6.03494C13.9351 4.76088 13.8742 2.85119 12.6808 1.65682C12.1023 1.07838 11.3041 0.721191 10.4219 0.721191ZM9.6578 5.35572C9.55562 5.27603 9.53827 5.12979 9.61796 5.0276C9.69765 4.92682 9.8453 4.90807 9.94608 4.98775C10.3633 5.31588 11.0809 5.08197 11.0809 4.6465C11.0809 3.81588 9.29358 4.52697 9.29358 3.18494C9.29358 2.69182 9.70702 2.33041 10.1823 2.24135V1.969C10.1823 1.83729 10.2845 1.73369 10.4256 1.73369V1.7351C10.5583 1.7351 10.6623 1.84291 10.6595 1.97275L10.6544 2.24135C10.9159 2.28775 11.162 2.41666 11.3308 2.61353C11.4147 2.71197 11.4039 2.85916 11.3055 2.94307C11.207 3.02697 11.0598 3.01619 10.9759 2.91775C10.6145 2.49635 9.7628 2.70119 9.7628 3.18494C9.7628 4.01557 11.5501 3.30447 11.5501 4.6465C11.5501 5.14057 11.1344 5.50338 10.6572 5.5901L10.652 5.86385C10.652 6.17228 10.1828 6.17228 10.1828 5.86385V5.5901C9.98827 5.55353 9.8078 5.47385 9.6578 5.35572ZM9.32265 16.4042C9.87812 16.6592 10.4453 17.0937 10.5147 17.6665C10.5292 17.7912 10.5198 17.9163 10.4828 18.0373L11.7091 17.5681L12.8701 16.9953C12.8795 16.9901 12.8903 16.9845 12.9006 16.9807L18.2434 14.3431C18.3362 14.2981 18.3761 14.1823 18.3297 14.0895L17.1775 11.7537C16.9806 11.9651 16.8691 12.1882 16.8451 12.4249C16.8437 12.4367 16.8409 12.4488 16.8386 12.4596C16.6141 13.3076 16.1823 14.0942 15.3559 14.2798C15.3451 14.2826 15.3348 14.2835 15.3241 14.2849C15.2908 14.2878 15.2589 14.2892 15.2284 14.2878C15.1525 15.5768 13.8972 16.4524 12.6601 16.0043C11.6345 15.6335 11.0697 14.4898 11.3992 13.452C11.8286 12.1006 13.4641 11.6834 14.523 12.611C14.583 12.0743 14.7264 11.4031 14.9467 10.6071L13.1064 11.5146C13.097 11.5198 13.0862 11.5254 13.0759 11.5292L10.1116 12.9921C10.1022 12.9973 10.0914 13.0029 10.0811 13.0067L8.29374 13.8888C8.20093 13.9353 8.16109 14.0496 8.20749 14.1424L9.32265 16.4042ZM8.31577 15.9588L8.65609 16.1088L8.58155 15.9588H8.31577ZM2.66968 16.1093L1.49358 16.1145C1.18796 16.1145 0.93671 16.3681 0.938116 16.6751L0.951241 20.5456C0.952647 20.8498 1.20483 21.101 1.51187 21.101L2.68796 21.0968C2.99359 21.0954 3.24483 20.839 3.24343 20.5348L3.2303 16.6657C3.22937 16.3615 2.97812 16.1093 2.66968 16.1093ZM3.69812 16.8654L3.7103 20.3707L4.72937 20.5273L8.62796 21.2262C8.83655 21.2632 9.02921 21.2543 9.21812 21.1559L14.5956 18.3495C15.9203 17.6585 15.4023 16.6554 14.1081 17.1509L9.7178 18.8318C9.66577 18.852 9.60905 18.8529 9.55327 18.8332L6.34702 17.6506C6.05734 17.5442 6.21952 17.1059 6.5078 17.2109L9.61421 18.356C10.5376 17.8048 9.83077 17.1387 9.08405 16.8092L6.50358 15.6692C6.25093 15.5562 5.99218 15.5693 5.75171 15.7053L3.69812 16.8654ZM3.41124 15.9588C3.51765 16.0704 3.60109 16.2059 3.6489 16.3573L4.37687 15.9453C4.35296 15.9532 4.32765 15.9584 4.30093 15.9584H3.41124V15.9588ZM2.04249 15.6453L2.66968 15.6424C2.76249 15.6424 2.85296 15.6546 2.93921 15.6785C2.9603 15.5707 3.05499 15.4896 3.1689 15.4896H4.30093C4.5203 15.4896 4.61827 15.762 4.45233 15.9031L5.52202 15.2984C5.88999 15.0898 6.30483 15.0696 6.69108 15.2398L7.25593 15.4896H8.34952L7.78749 14.3496C7.62812 14.0238 7.76077 13.6296 8.08655 13.4698L8.9903 13.0235H6.68124C6.3728 13.0235 6.3728 12.5543 6.68124 12.5543H9.94046L11.3186 11.8751C10.9028 11.757 10.7537 11.1696 10.7284 10.7548C10.7153 10.5462 10.727 10.3188 10.7697 10.0892H9.42765C9.11921 10.0892 9.11921 9.61994 9.42765 9.61994H10.8986C11.0392 9.2426 11.2745 8.88494 11.6266 8.61822C11.6317 8.61541 11.6373 8.61166 11.6425 8.60744C12.0081 8.37635 12.3784 8.14619 12.7534 7.92025V6.739C12.1211 7.264 11.3078 7.579 10.4214 7.579C9.80359 7.579 9.2214 7.42619 8.7114 7.15666H7.39843C7.08999 7.15666 7.08999 6.68744 7.39843 6.68744H8.02702C7.41296 6.15729 6.98124 5.42932 6.82327 4.60807H2.54499C2.26843 4.60807 2.04249 4.834 2.04249 5.10916V15.6453Z" fill="black"/>
</svg>
