<svg width="24" height="24" viewBox="0 0 24 24" fill="none" xmlns="http://www.w3.org/2000/svg">
<path d="M7.96987 12.4609H7.93017C7.53637 12.4609 7.21598 12.1405 7.21598 11.7467H5.80973C5.80973 12.6866 6.42468 13.4852 7.27322 13.7624V14.8241H8.67947V13.746C9.51501 13.4524 10.1159 12.6558 10.1159 11.7211C10.1159 10.5378 9.15318 9.57514 7.96992 9.57514H7.94432C7.53642 9.57514 7.20459 9.24331 7.20459 8.83541C7.20459 8.4275 7.53647 8.09567 7.94432 8.09567H7.95178C8.36015 8.09567 8.6924 8.42792 8.6924 8.8363H10.0987C10.0987 7.90789 9.50615 7.11542 8.67951 6.81664V5.73242H7.27326V6.79747C6.41775 7.07994 5.79834 7.88647 5.79834 8.83541C5.79834 10.0187 6.76106 10.9814 7.94432 10.9814H7.96992C8.37782 10.9814 8.70965 11.3132 8.70965 11.7211C8.70965 12.129 8.37778 12.4609 7.96987 12.4609Z" fill="black"/>
<path d="M11.7598 5.64844H15.4395V7.05469H11.7598V5.64844Z" fill="black"/>
<path d="M11.7598 8.47266H15.4395V9.87891H11.7598V8.47266Z" fill="black"/>
<path d="M11.7598 11.2969H15.4395V12.7031H11.7598V11.2969Z" fill="black"/>
<path d="M18.3516 12.3545V2.82422H15.5273V0H0V21.1758H2.82422V24H18.1758C21.3873 24 24 21.3873 24 18.1758C24 15.0231 21.482 12.4478 18.3516 12.3545ZM1.40625 19.7695V1.40625H14.1211V2.82422H2.82422V19.7695H1.40625ZM4.23047 22.5938V4.23047H16.9453V12.4828C14.871 12.9307 13.2045 14.4867 12.5983 16.498H6.06248V20.7285H12.9416C13.2924 21.4448 13.7859 22.079 14.3849 22.5938H4.23047ZM12.4651 19.3223H7.46873V17.9043H12.3581C12.3356 18.3791 12.3713 18.8518 12.4651 19.3223ZM18.1758 22.5938C15.7397 22.5938 13.7578 20.6119 13.7578 18.1758C13.7578 15.7397 15.7397 13.7578 18.1758 13.7578C20.6119 13.7578 22.5938 15.7397 22.5938 18.1758C22.5938 20.6119 20.6119 22.5938 18.1758 22.5938Z" fill="black"/>
<path d="M17.4574 18.3845L16.2748 17.0808L15.2333 18.0256L17.3636 20.3742L20.9781 17.0745L20.03 16.0359L17.4574 18.3845Z" fill="black"/>
</svg>
