<svg width="23" height="24" viewBox="0 0 23 24" fill="none" xmlns="http://www.w3.org/2000/svg">
<path d="M18.8777 0.805905C17.9801 1.04642 17.3653 1.99433 17.6941 2.90282L20.5366 10.7566C20.7361 10.5922 20.988 10.498 21.2515 10.498C21.6782 10.4895 22.1371 10.4909 22.5486 10.5163L20.9526 2.02608C20.7971 1.19879 20.0126 0.700758 19.2175 0.750195C19.104 0.757281 18.9899 0.775858 18.8777 0.805905ZM19.375 2.24948C19.5821 2.24948 19.75 2.41733 19.75 2.62444C19.75 2.83156 19.5821 2.99945 19.375 2.99945C19.1679 2.99945 19 2.83154 19 2.62444C19 2.41735 19.1679 2.24948 19.375 2.24948ZM10.6035 4.90523C9.67046 5.31158 9.10251 6.18788 8.81347 6.99921L8.5022 7.87375H13.0256C13.1522 7.53074 13.3275 7.23431 13.8518 6.92966L17.5168 4.61665L16.9888 3.15767C16.8903 2.88536 16.8501 2.61185 16.8562 2.34542L10.6035 4.90523ZM8.12719 8.62371C7.50871 8.62371 7.0716 9.14746 7.00586 9.70626L7.01437 9.65933L6.33321 12.3744H1.37545C0.758686 12.3744 0.248989 12.8819 0.248989 13.4987V16.1259C0.248989 16.7427 0.758686 17.2494 1.37545 17.2494H14.1262C14.743 17.2494 15.2665 16.7436 15.2526 16.1171V13.4987C15.2523 13.4512 15.2427 13.4043 15.2249 13.3602L13.7249 9.6095C13.6441 9.40766 13.5522 9.1876 13.3865 8.98912C13.2208 8.79064 12.9457 8.62367 12.6284 8.62367L8.12719 8.62371ZM8.8728 10.1245H8.87705H10.0013V13.1252H8.27648C8.0288 13.1256 7.84864 12.8902 7.91393 12.6513L8.51452 10.4035C8.5576 10.2406 8.70428 10.1265 8.8728 10.1245ZM10.7515 10.1245H11.9556C12.1064 10.1244 12.2426 10.2147 12.3013 10.3537L13.7214 13.7287C13.7414 13.7749 13.7519 13.8248 13.7522 13.8752V15.3759C13.7514 15.5819 13.5846 15.7487 13.3787 15.7495H11.1279C11.0025 15.7499 10.885 15.6875 10.8152 15.5832L10.7514 15.4873L10.7515 10.1245ZM21.2515 11.248C21.1324 11.248 21.0204 11.3045 20.9497 11.4003L17.5754 15.8989C17.3896 16.1457 17.5655 16.4988 17.8743 16.4995H20.125C21.5728 16.4995 22.7485 15.3229 22.7485 13.8752V11.6245C22.7493 11.4174 22.5821 11.2488 22.375 11.248L21.2515 11.248ZM2.11987 13.8693C2.33041 13.8665 2.50172 14.0382 2.49927 14.2487V15.3759C2.51061 15.8873 1.73779 15.8873 1.74927 15.3759V14.2487C1.74643 14.0416 1.91277 13.8718 2.11987 13.8693ZM3.6206 13.8693C3.83114 13.8665 4.00246 14.0382 4 14.2487V15.3759C4.01134 15.8869 3.23897 15.8869 3.25 15.3759V14.2487C3.24716 14.0416 3.4135 13.8718 3.6206 13.8693ZM5.1184 13.8693C5.32981 13.8651 5.50249 14.0373 5.5 14.2487V15.3759C5.48866 15.8648 4.76098 15.8648 4.74999 15.3759V14.2487C4.74715 14.0425 4.91216 13.873 5.1184 13.8693ZM2.87573 17.9995C1.42797 17.9995 0.248535 19.1767 0.248535 20.6245C0.248535 22.0722 1.42797 23.248 2.87573 23.248H14.5C15.9478 23.248 17.1235 22.0722 17.1235 20.6245C17.1235 19.1767 15.9478 17.9995 14.5 17.9995H2.87573ZM3.62647 19.5002C4.24334 19.5002 4.74998 20.0076 4.74999 20.6245C4.74999 21.2413 4.24336 21.7509 3.62647 21.7509C3.00958 21.7509 2.49927 21.2413 2.49927 20.6245C2.49927 20.0076 3.00961 19.5002 3.62647 19.5002ZM7.00073 19.5002C7.61761 19.5002 8.12426 20.0076 8.12427 20.6245C8.12427 21.2413 7.61761 21.7509 7.00073 21.7509C6.38384 21.7509 5.87354 21.2413 5.87354 20.6245C5.87354 20.0076 6.38386 19.5002 7.00073 19.5002ZM10.375 19.5002C10.9919 19.5002 11.4985 20.0076 11.4985 20.6245C11.4985 21.2413 10.9919 21.7509 10.375 21.7509C9.7581 21.7509 9.25147 21.2413 9.25147 20.6245C9.25148 20.0076 9.75812 19.5002 10.375 19.5002ZM13.7493 19.5002C14.3661 19.5002 14.8765 20.0076 14.8765 20.6245C14.8765 21.2413 14.3662 21.7509 13.7493 21.7509C13.1324 21.7509 12.6257 21.2413 12.6257 20.6245C12.6257 20.0076 13.1324 19.5002 13.7493 19.5002Z" fill="black"/>
</svg>
