<svg width="24" height="25" viewBox="0 0 24 25" fill="none" xmlns="http://www.w3.org/2000/svg">
<path d="M12.0002 3.50383C13.815 3.50387 15.5875 4.05259 17.085 5.07798C18.5824 6.10338 19.7349 7.55754 20.3911 9.24963C21.0473 10.9417 21.1766 12.7927 20.7621 14.5596C20.3475 16.3265 19.4085 17.9268 18.0682 19.1504C16.7279 20.3741 15.0489 21.164 13.2517 21.4164C11.4545 21.6688 9.62289 21.3719 7.99737 20.5648C6.37186 19.7576 5.02834 18.4779 4.14314 16.8936C3.25794 15.3092 2.87242 13.4942 3.03717 11.6868C3.04898 11.556 3.08645 11.4288 3.14742 11.3125C3.2084 11.1962 3.29168 11.093 3.39253 11.0089C3.49337 10.9248 3.6098 10.8613 3.73516 10.8222C3.86053 10.7831 3.99237 10.769 4.12317 10.7808C4.25396 10.7927 4.38115 10.8301 4.49747 10.8911C4.61379 10.9521 4.71695 11.0354 4.80108 11.1362C4.88521 11.237 4.94866 11.3535 4.98779 11.4788C5.02693 11.6042 5.04098 11.736 5.02917 11.8668C4.93301 12.8895 5.06435 13.9208 5.41376 14.8867C5.76317 15.8527 6.322 16.7293 7.05017 17.4538C7.42517 17.8288 7.84217 18.1608 8.29217 18.4418C9.40668 19.1376 10.6945 19.5057 12.0084 19.5039C13.3222 19.5022 14.6091 19.1307 15.7217 18.432C16.8344 17.7333 17.728 16.7355 18.3002 15.5528C18.8725 14.3701 19.1003 13.0503 18.9577 11.7442C18.8151 10.4381 18.3078 9.19848 17.4938 8.16715C16.6799 7.13581 15.592 6.35438 14.3548 5.91223C13.1176 5.47007 11.7809 5.38504 10.4976 5.66685C9.21434 5.94867 8.03628 6.58596 7.09817 7.50583L8.49817 7.50683C8.7545 7.50508 9.00172 7.60184 9.18878 7.77712C9.37583 7.9524 9.48842 8.19282 9.50331 8.44873C9.5182 8.70464 9.43424 8.9565 9.26878 9.15229C9.10331 9.34808 8.86898 9.47285 8.61417 9.50083L8.49817 9.50683H4.49617C4.25123 9.5068 4.01483 9.41688 3.83179 9.25412C3.64876 9.09136 3.53182 8.86708 3.50317 8.62383L3.49617 8.50683V4.50683C3.49441 4.2505 3.59117 4.00327 3.76645 3.81622C3.94173 3.62917 4.18216 3.51658 4.43807 3.50169C4.69398 3.4868 4.94583 3.57076 5.14162 3.73622C5.33741 3.90169 5.46218 4.13602 5.49017 4.39083L5.49617 4.50783V6.28183C6.33589 5.40279 7.3453 4.70333 8.46327 4.22582C9.58124 3.74831 10.7845 3.50269 12.0002 3.50383ZM11.2502 7.50383C11.4314 7.50384 11.6065 7.56948 11.7431 7.6886C11.8797 7.80772 11.9685 7.97228 11.9932 8.15183L12.0002 8.25383V12.5038H14.2502C14.4402 12.5039 14.6231 12.5761 14.762 12.7058C14.9008 12.8355 14.9852 13.0131 14.9982 13.2027C15.0111 13.3923 14.9517 13.5797 14.8317 13.7271C14.7118 13.8745 14.5404 13.9709 14.3522 13.9968L14.2502 14.0038H11.2502C11.0689 14.0038 10.8938 13.9382 10.7572 13.8191C10.6206 13.6999 10.5318 13.5354 10.5072 13.3558L10.5002 13.2538V8.25383C10.5002 8.05492 10.5792 7.86416 10.7198 7.7235C10.8605 7.58285 11.0513 7.50383 11.2502 7.50383Z" fill="#212121"/>
</svg>
