<svg width="18" height="18" viewBox="0 0 18 18" fill="none" xmlns="http://www.w3.org/2000/svg">
<path d="M14.0375 13.7699C13.3313 13.7699 12.6671 13.4949 12.1677 12.9958L9.46791 10.2959C9.27834 10.1058 8.94797 10.1064 8.75849 10.2959L6.04882 13.0056C5.54943 13.5048 4.88521 13.7798 4.17902 13.7798H3.64697L7.06638 17.1991C8.13423 18.2669 9.86565 18.2669 10.9336 17.1991L14.3627 13.7699H14.0375Z" fill="#5ED070"/>
<path d="M4.17911 4.22019C4.8853 4.22019 5.54952 4.49515 6.04891 4.99431L8.75858 7.70445C8.95373 7.89968 9.27236 7.90041 9.46799 7.70422L12.1678 5.00418C12.6672 4.50503 13.3314 4.23006 14.0376 4.23006H14.3628L10.9337 0.80095C9.86573 -0.266983 8.13432 -0.266983 7.06647 0.80095L3.64722 4.2202L4.17911 4.22019Z" fill="#5ED070"/>
<path d="M17.1992 7.06631L15.1269 4.99409C15.0813 5.01236 15.0319 5.02377 14.9797 5.02377H14.0376C13.5505 5.02377 13.0736 5.22134 12.7294 5.56578L10.0297 8.26558C9.77708 8.51823 9.4451 8.64463 9.11344 8.64463C8.78145 8.64463 8.44971 8.51823 8.19715 8.26582L5.48723 5.55592C5.14303 5.2114 4.6662 5.0139 4.1791 5.0139H3.0206C2.97118 5.0139 2.92501 5.00226 2.88142 4.98584L0.80095 7.06631C-0.266983 8.13424 -0.266983 9.86558 0.80095 10.9335L2.88133 13.0139C2.925 12.9975 2.97118 12.9858 3.0206 12.9858H4.1791C4.6662 12.9858 5.14303 12.7883 5.48723 12.4439L8.19689 9.73424C8.68667 9.24488 9.54044 9.24471 10.0297 9.73447L12.7294 12.434C13.0736 12.7785 13.5505 12.976 14.0376 12.976H14.9797C15.0319 12.976 15.0813 12.9874 15.1269 13.0057L17.1992 10.9335C18.267 9.86557 18.267 8.13424 17.1992 7.06631Z" fill="#5ED070"/>
</svg>
