<svg width="52" height="52" viewBox="0 0 52 52" fill="none" xmlns="http://www.w3.org/2000/svg">
<circle cx="26" cy="26" r="25.5" fill="#FEF445" stroke="white"/>
<path d="M38.9182 35.088H14.0814C13.7802 35.0876 13.4914 34.9952 13.2786 34.8312C13.0658 34.6672 12.9463 34.445 12.9463 34.2133V16.0017C12.9463 15.8868 12.9757 15.7731 13.0328 15.6669C13.09 15.5608 13.1738 15.4644 13.2794 15.3832C13.3849 15.3019 13.5103 15.2375 13.6483 15.1935C13.7862 15.1496 13.9341 15.127 14.0834 15.127C14.2328 15.127 14.3807 15.1496 14.5186 15.1935C14.6566 15.2375 14.7819 15.3019 14.8875 15.3832C14.9931 15.4644 15.0769 15.5608 15.134 15.6669C15.1912 15.7731 15.2206 15.8868 15.2206 16.0017V33.3385H38.9162C39.2178 33.3385 39.507 33.4307 39.7203 33.5947C39.9335 33.7588 40.0533 33.9813 40.0533 34.2133C40.0533 34.4453 39.9335 34.6678 39.7203 34.8318C39.507 34.9958 39.2178 35.088 38.9162 35.088H38.9182ZM17.5113 31.5575V21.8754C17.5119 21.6766 17.6148 21.4861 17.7975 21.3455C17.9802 21.2049 18.2279 21.1258 18.4863 21.1254H20.0997C20.3581 21.1258 20.6058 21.2049 20.7885 21.3455C20.9713 21.4861 21.0742 21.6766 21.0747 21.8754V31.5575H17.5113ZM23.2279 31.5575V16.537C23.2285 16.3382 23.3314 16.1476 23.5141 16.0071C23.6968 15.8665 23.9445 15.7874 24.2029 15.787H25.8163C26.0747 15.7874 26.3224 15.8665 26.5051 16.0071C26.6878 16.1476 26.7907 16.3382 26.7913 16.537V31.5575H23.2279ZM28.9445 31.5575V21.8754C28.945 21.6766 29.0479 21.4861 29.2307 21.3455C29.4134 21.2049 29.6611 21.1258 29.9195 21.1254H31.5329C31.7913 21.1258 32.039 21.2049 32.2217 21.3455C32.4044 21.4861 32.5073 21.6766 32.5079 21.8754V31.5575H28.9445ZM34.6631 31.5575V27.2106C34.6637 27.0119 34.7666 26.8213 34.9493 26.6808C35.132 26.5402 35.3797 26.4611 35.6381 26.4606H37.2494C37.5079 26.4611 37.7555 26.5402 37.9383 26.6808C38.121 26.8213 38.2239 27.0119 38.2244 27.2106V31.5575H34.6631Z" fill="black"/>
</svg>
