<svg width="52" height="52" viewBox="0 0 52 52" fill="none" xmlns="http://www.w3.org/2000/svg">
<circle cx="26" cy="26" r="25.5" fill="#FEF445" stroke="white"/>
<path d="M36 19.2143C36 19.2837 35.9731 19.3427 35.9372 19.3801C35.9026 19.4161 35.8643 19.4286 35.8333 19.4286H17.1667C17.1357 19.4286 17.0974 19.4161 17.0628 19.3801C17.0269 19.3427 17 19.2837 17 19.2143C17 19.1448 17.0269 19.0859 17.0628 19.0485C17.0974 19.0124 17.1357 19 17.1667 19H35.8333C35.8643 19 35.9026 19.0124 35.9372 19.0485C35.9731 19.0859 36 19.1448 36 19.2143ZM36 26.5C36 26.5695 35.9731 26.6284 35.9372 26.6658C35.9026 26.7018 35.8643 26.7143 35.8333 26.7143H17.1667C17.1357 26.7143 17.0974 26.7018 17.0628 26.6658C17.0269 26.6284 17 26.5695 17 26.5C17 26.4305 17.0269 26.3716 17.0628 26.3342C17.0974 26.2982 17.1357 26.2857 17.1667 26.2857H35.8333C35.8643 26.2857 35.9026 26.2982 35.9372 26.3342C35.9731 26.3716 36 26.4305 36 26.5ZM35.9372 33.9515C35.9026 33.9876 35.8643 34 35.8333 34H17.1667C17.1357 34 17.0974 33.9876 17.0628 33.9515C17.0269 33.9141 17 33.8552 17 33.7857C17 33.7163 17.0269 33.6573 17.0628 33.6199C17.0974 33.5839 17.1357 33.5714 17.1667 33.5714H35.8333C35.8643 33.5714 35.9026 33.5839 35.9372 33.6199C35.9731 33.6573 36 33.7163 36 33.7857C36 33.8552 35.9731 33.9141 35.9372 33.9515Z" fill="black" stroke="black" stroke-width="2"/>
</svg>
