<svg width="52" height="52" viewBox="0 0 52 52" fill="none" xmlns="http://www.w3.org/2000/svg">
<circle cx="26" cy="26" r="25.5" fill="#FEF445" stroke="white"/>
<path d="M24.6083 29.632C24.9741 29.9985 25.4816 30.2088 26.0003 30.2088C26.5182 30.2088 27.0257 29.9985 27.3923 29.632L33.789 23.2357C34.5581 22.4671 34.5581 21.2204 33.789 20.4517C33.02 19.6827 31.7733 19.6827 31.0051 20.4517V20.4514L27.9691 23.4873V13.9688C27.9691 12.8814 27.0872 12 26.0003 12C24.9126 12 24.0316 12.8814 24.0316 13.9688V23.4869L20.9964 20.4517C20.2274 19.6827 18.9807 19.6827 18.2125 20.4514C17.4435 21.2204 17.4435 22.4671 18.2125 23.2357L24.6083 29.632Z" fill="black"/>
<path d="M37.892 32.834H30.2331C29.5025 34.4456 27.8841 35.5684 26 35.5684C24.1158 35.5684 22.4974 34.4456 21.7677 32.834H14.1089C12.9442 32.834 12 33.7778 12 34.9421V37.6525C12 38.8172 12.9442 39.7609 14.1089 39.7609H37.8919C39.0566 39.7609 39.9999 38.8171 39.9999 37.6525V34.9421C40 33.7778 39.0566 32.834 37.892 32.834Z" fill="black"/>
</svg>
