<svg width="28" height="28" viewBox="0 0 28 28" fill="none" xmlns="http://www.w3.org/2000/svg">
<path d="M11.8125 7.43762V2.47957C11.8552 2.51086 11.896 2.54477 11.9345 2.58111L17.1245 7.87171L17.1272 7.87512H12.25C12.134 7.87497 12.0228 7.82883 11.9408 7.74681C11.8588 7.6648 11.8127 7.55361 11.8125 7.43762ZM15.3237 25.8126H2.1875C1.83952 25.8122 1.5059 25.6738 1.25984 25.4278C1.01379 25.1817 0.875382 24.8481 0.875 24.5001V3.50012C0.875382 3.15214 1.01379 2.81852 1.25984 2.57247C1.5059 2.32641 1.83952 2.188 2.1875 2.18762H10.9375V4.81262H6.125C5.9305 4.81287 5.73848 4.85628 5.56279 4.93971C5.38709 5.02314 5.2321 5.14452 5.10899 5.29509C4.98587 5.44567 4.8977 5.62168 4.85083 5.81045C4.80397 5.99922 4.79957 6.19603 4.83796 6.3867C4.90615 6.68916 5.07656 6.95886 5.32046 7.1503C5.56435 7.34174 5.8668 7.44322 6.1768 7.43762H10.9375C10.9379 7.7856 11.0763 8.11922 11.3223 8.36528C11.5684 8.61134 11.902 8.74974 12.25 8.75012H17.0625C16.4825 8.7508 15.9265 8.98149 15.5165 9.39158C15.1064 9.80167 14.8757 10.3577 14.875 10.9376V24.5001C14.8767 24.975 15.0343 25.4361 15.3237 25.8126ZM10.9375 14.4376H13.5625V10.5001C13.5625 10.2681 13.4703 10.0455 13.3062 9.8814C13.1421 9.71731 12.9196 9.62512 12.6875 9.62512H11.8125C11.5804 9.62512 11.3579 9.71731 11.1938 9.8814C11.0297 10.0455 10.9375 10.2681 10.9375 10.5001V14.4376ZM7.875 14.4376H10.5V12.6876C10.5 12.4556 10.4078 12.233 10.2437 12.0689C10.0796 11.9048 9.85706 11.8126 9.625 11.8126H8.75C8.51794 11.8126 8.29538 11.9048 8.13128 12.0689C7.96719 12.233 7.875 12.4556 7.875 12.6876V14.4376ZM4.8125 14.4376H7.4375V11.8126C7.4375 11.5806 7.34531 11.358 7.18122 11.1939C7.01712 11.0298 6.79456 10.9376 6.5625 10.9376H5.6875C5.45544 10.9376 5.23288 11.0298 5.06878 11.1939C4.90469 11.358 4.8125 11.5806 4.8125 11.8126V14.4376ZM14.4375 22.7501C14.4375 22.6341 14.3914 22.5228 14.3094 22.4408C14.2273 22.3587 14.116 22.3126 14 22.3126H4.375C4.25897 22.3126 4.14769 22.3587 4.06564 22.4408C3.98359 22.5228 3.9375 22.6341 3.9375 22.7501C3.9375 22.8662 3.98359 22.9774 4.06564 23.0595C4.14769 23.1415 4.25897 23.1876 4.375 23.1876H14C14.116 23.1876 14.2273 23.1415 14.3094 23.0595C14.3914 22.9774 14.4375 22.8662 14.4375 22.7501ZM14.4375 21.0001C14.4375 20.8841 14.3914 20.7728 14.3094 20.6908C14.2273 20.6087 14.116 20.5626 14 20.5626H4.375C4.25897 20.5626 4.14769 20.6087 4.06564 20.6908C3.98359 20.7728 3.9375 20.8841 3.9375 21.0001C3.9375 21.1162 3.98359 21.2274 4.06564 21.3095C4.14769 21.3915 4.25897 21.4376 4.375 21.4376H14C14.116 21.4376 14.2273 21.3915 14.3094 21.3095C14.3914 21.2274 14.4375 21.1162 14.4375 21.0001ZM14.4375 19.2501C14.4375 19.1341 14.3914 19.0228 14.3094 18.9408C14.2273 18.8587 14.116 18.8126 14 18.8126H4.375C4.25897 18.8126 4.14769 18.8587 4.06564 18.9408C3.98359 19.0228 3.9375 19.1341 3.9375 19.2501C3.9375 19.3662 3.98359 19.4774 4.06564 19.5595C4.14769 19.6415 4.25897 19.6876 4.375 19.6876H14C14.116 19.6876 14.2273 19.6415 14.3094 19.5595C14.3914 19.4774 14.4375 19.3662 14.4375 19.2501ZM14.4375 15.7501C14.4375 15.6341 14.3914 15.5228 14.3094 15.4408C14.2273 15.3587 14.116 15.3126 14 15.3126H4.375C4.25897 15.3126 4.14769 15.3587 4.06564 15.4408C3.98359 15.5228 3.9375 15.6341 3.9375 15.7501C3.9375 15.8662 3.98359 15.9774 4.06564 16.0595C4.14769 16.1415 4.25897 16.1876 4.375 16.1876H14C14.116 16.1876 14.2273 16.1415 14.3094 16.0595C14.3914 15.9774 14.4375 15.8662 14.4375 15.7501ZM27.125 10.9376V24.5001C27.1246 24.8481 26.9862 25.1817 26.7402 25.4278C26.4941 25.6738 26.1605 25.8122 25.8125 25.8126H17.0625C16.7145 25.8122 16.3809 25.6738 16.1348 25.4278C15.8888 25.1817 15.7504 24.8481 15.75 24.5001V10.9376C15.7504 10.5896 15.8888 10.256 16.1348 10.01C16.3809 9.76391 16.7145 9.6255 17.0625 9.62512H25.8125C26.1605 9.6255 26.4941 9.76391 26.7402 10.01C26.9862 10.256 27.1246 10.5896 27.125 10.9376ZM19.6875 22.3126C19.6872 22.0806 19.595 21.8582 19.4309 21.6942C19.2669 21.5302 19.0445 21.4379 18.8125 21.4376H17.9375C17.7055 21.4379 17.4831 21.5302 17.3191 21.6942C17.155 21.8582 17.0628 22.0806 17.0625 22.3126V23.1876C17.0628 23.4196 17.155 23.642 17.3191 23.806C17.4831 23.9701 17.7055 24.0624 17.9375 24.0626H18.8125C19.0445 24.0624 19.2669 23.9701 19.4309 23.806C19.595 23.642 19.6872 23.4196 19.6875 23.1876V22.3126ZM19.6875 19.2501C19.6872 19.0181 19.595 18.7957 19.4309 18.6317C19.2669 18.4677 19.0445 18.3754 18.8125 18.3751H17.9375C17.7055 18.3754 17.4831 18.4677 17.3191 18.6317C17.155 18.7957 17.0628 19.0181 17.0625 19.2501V20.1251C17.0628 20.3571 17.155 20.5795 17.3191 20.7435C17.4831 20.9076 17.7055 20.9999 17.9375 21.0001H18.8125C19.0445 20.9999 19.2669 20.9076 19.4309 20.7435C19.595 20.5795 19.6872 20.3571 19.6875 20.1251V19.2501ZM19.6875 16.1876C19.6872 15.9556 19.595 15.7332 19.4309 15.5692C19.2669 15.4052 19.0445 15.3129 18.8125 15.3126H17.9375C17.7055 15.3129 17.4831 15.4052 17.3191 15.5692C17.155 15.7332 17.0628 15.9556 17.0625 16.1876V17.0626C17.0628 17.2946 17.155 17.517 17.3191 17.681C17.4831 17.8451 17.7055 17.9374 17.9375 17.9376H18.8125C19.0445 17.9374 19.2669 17.8451 19.4309 17.681C19.595 17.517 19.6872 17.2946 19.6875 17.0626V16.1876ZM22.75 22.3126C22.7497 22.0806 22.6575 21.8582 22.4934 21.6942C22.3294 21.5302 22.107 21.4379 21.875 21.4376H21C20.768 21.4379 20.5456 21.5302 20.3816 21.6942C20.2175 21.8582 20.1253 22.0806 20.125 22.3126V23.1876C20.1253 23.4196 20.2175 23.642 20.3816 23.806C20.5456 23.9701 20.768 24.0624 21 24.0626H21.875C22.107 24.0624 22.3294 23.9701 22.4934 23.806C22.6575 23.642 22.7497 23.4196 22.75 23.1876V22.3126ZM22.75 19.2501C22.7497 19.0181 22.6575 18.7957 22.4934 18.6317C22.3294 18.4677 22.107 18.3754 21.875 18.3751H21C20.768 18.3754 20.5456 18.4677 20.3816 18.6317C20.2175 18.7957 20.1253 19.0181 20.125 19.2501V20.1251C20.1253 20.3571 20.2175 20.5795 20.3816 20.7435C20.5456 20.9076 20.768 20.9999 21 21.0001H21.875C22.107 20.9999 22.3294 20.9076 22.4934 20.7435C22.6575 20.5795 22.7497 20.3571 22.75 20.1251V19.2501ZM22.75 16.1876C22.7497 15.9556 22.6575 15.7332 22.4934 15.5692C22.3294 15.4052 22.107 15.3129 21.875 15.3126H21C20.768 15.3129 20.5456 15.4052 20.3816 15.5692C20.2175 15.7332 20.1253 15.9556 20.125 16.1876V17.0626C20.1253 17.2946 20.2175 17.517 20.3816 17.681C20.5456 17.8451 20.768 17.9374 21 17.9376H21.875C22.107 17.9374 22.3294 17.8451 22.4934 17.681C22.6575 17.517 22.7497 17.2946 22.75 17.0626V16.1876ZM25.8125 19.2501C25.8122 19.0181 25.72 18.7957 25.5559 18.6317C25.3919 18.4677 25.1695 18.3754 24.9375 18.3751H24.0625C23.8305 18.3754 23.6081 18.4677 23.4441 18.6317C23.28 18.7957 23.1878 19.0181 23.1875 19.2501V23.1876C23.1878 23.4196 23.28 23.642 23.4441 23.806C23.6081 23.9701 23.8305 24.0624 24.0625 24.0626H24.9375C25.1695 24.0624 25.3919 23.9701 25.5559 23.806C25.72 23.642 25.8122 23.4196 25.8125 23.1876V19.2501ZM25.8125 16.1876C25.8122 15.9556 25.72 15.7332 25.5559 15.5692C25.3919 15.4052 25.1695 15.3129 24.9375 15.3126H24.0625C23.8305 15.3129 23.6081 15.4052 23.4441 15.5692C23.28 15.7332 23.1878 15.9556 23.1875 16.1876V17.0626C23.1878 17.2946 23.28 17.517 23.4441 17.681C23.6081 17.8451 23.8305 17.9374 24.0625 17.9376H24.9375C25.1695 17.9374 25.3919 17.8451 25.5559 17.681C25.72 17.517 25.8122 17.2946 25.8125 17.0626V16.1876ZM25.8125 12.6876C25.8121 12.3396 25.6737 12.006 25.4277 11.76C25.1816 11.5139 24.848 11.3755 24.5 11.3751H18.375C18.027 11.3755 17.6934 11.5139 17.4473 11.76C17.2013 12.006 17.0629 12.3396 17.0625 12.6876V13.1251C17.0629 13.4731 17.2013 13.8067 17.4473 14.0528C17.6934 14.2988 18.027 14.4372 18.375 14.4376H24.5C24.848 14.4372 25.1816 14.2988 25.4277 14.0528C25.6737 13.8067 25.8121 13.4731 25.8125 13.1251V12.6876ZM21.7609 5.88563V6.5719C21.8365 6.54379 21.9053 6.50025 21.963 6.44406C21.9893 6.41868 22.0103 6.38829 22.0247 6.35468C22.0391 6.32107 22.0466 6.28492 22.0468 6.24837C22.0444 6.16522 22.0153 6.08504 21.9639 6.01971C21.9124 5.95438 21.8412 5.90736 21.7609 5.88563ZM20.868 4.84998C20.8683 5.04095 20.9897 5.13983 21.167 5.20397C21.1872 5.21097 21.2115 5.21709 21.2333 5.22383V4.4985C21.14 4.5026 21.0515 4.54056 20.9843 4.60526C20.917 4.66997 20.8757 4.75698 20.868 4.84998ZM17.9375 5.68762C17.9371 5.07027 18.1001 4.4638 18.4098 3.92975C18.7195 3.39569 19.1649 2.95306 19.7009 2.64675C20.2369 2.34044 20.8444 2.18135 21.4617 2.18563C22.0791 2.18991 22.6843 2.3574 23.216 2.6711C23.7477 2.98481 24.187 3.43358 24.4893 3.97187C24.7915 4.51016 24.9461 5.11883 24.9371 5.73612C24.9282 6.35341 24.7562 6.95736 24.4385 7.48669C24.1208 8.01602 23.6687 8.45191 23.1282 8.75012H19.7468C19.1992 8.44779 18.7425 8.00428 18.4244 7.46571C18.1062 6.92714 17.9381 6.31316 17.9375 5.68762ZM21.2333 5.75325V6.61429C21.0368 6.57777 20.8541 6.48765 20.7056 6.35389C20.6572 6.31588 20.5964 6.29728 20.535 6.30175C20.4736 6.30622 20.4161 6.33342 20.3737 6.37804C20.3477 6.40717 20.3281 6.44145 20.3162 6.47866C20.3043 6.51587 20.3005 6.55516 20.3048 6.59397C20.3092 6.63278 20.3217 6.67024 20.3415 6.7039C20.3613 6.73755 20.388 6.76665 20.4198 6.78929C20.6448 6.99021 20.932 7.1079 21.2333 7.12275V7.37397C21.232 7.40878 21.2378 7.4435 21.2503 7.47603C21.2627 7.50857 21.2817 7.53825 21.3059 7.5633C21.3301 7.58835 21.3591 7.60826 21.3912 7.62183C21.4233 7.6354 21.4578 7.64236 21.4926 7.64228C21.5281 7.64304 21.5633 7.63661 21.5962 7.62339C21.6291 7.61017 21.659 7.59044 21.684 7.56537C21.7091 7.5403 21.7288 7.51042 21.742 7.47753C21.7553 7.44464 21.7617 7.40941 21.7609 7.37397V7.1004C21.9792 7.07354 22.1808 6.97004 22.3297 6.80835C22.4787 6.64666 22.5654 6.43729 22.5744 6.21761C22.5779 6.08759 22.5554 5.95818 22.5082 5.83698C22.4322 5.70122 22.3246 5.58576 22.1945 5.50037C22.0645 5.41497 21.9157 5.36215 21.7609 5.34637V4.53792C21.8965 4.57417 22.0236 4.63688 22.1348 4.72245C22.18 4.75365 22.2352 4.76687 22.2896 4.75952C22.3441 4.75218 22.3938 4.72479 22.4291 4.68273C22.4566 4.65426 22.4774 4.61998 22.4898 4.58241C22.5023 4.54484 22.5061 4.50495 22.5011 4.46569C22.4961 4.42644 22.4823 4.38881 22.4607 4.35561C22.4392 4.32241 22.4104 4.29448 22.3766 4.27388C22.198 4.13204 21.9861 4.03818 21.761 4.00123V3.83848C21.7627 3.80356 21.7572 3.76867 21.7449 3.73595C21.7325 3.70323 21.7136 3.67338 21.6893 3.64825C21.665 3.62311 21.6359 3.60322 21.6036 3.5898C21.5713 3.57637 21.5366 3.56971 21.5016 3.57021C21.4662 3.56947 21.431 3.5759 21.3981 3.58912C21.3652 3.60234 21.3353 3.62208 21.3103 3.64714C21.2852 3.6722 21.2655 3.70207 21.2523 3.73495C21.239 3.76783 21.2326 3.80305 21.2333 3.83848V3.99012C21.1168 3.98896 21.0012 4.01091 20.8933 4.05469C20.7853 4.09847 20.6871 4.16322 20.6043 4.2452C20.5215 4.32717 20.4557 4.42475 20.4109 4.53228C20.366 4.63981 20.3429 4.75517 20.3429 4.87168C20.3429 4.9882 20.366 5.10355 20.4109 5.21109C20.4557 5.31862 20.5215 5.4162 20.6043 5.49817C20.6871 5.58015 20.7853 5.6449 20.8933 5.68868C21.0012 5.73246 21.1168 5.75441 21.2333 5.75325Z" fill="black"/>
</svg>
