<svg width="28" height="28" viewBox="0 0 28 28" fill="none" xmlns="http://www.w3.org/2000/svg">
<g clip-path="url(#clip0_349_3759)">
<path d="M22.6071 0.940019C21.5598 1.22063 20.8427 2.32652 21.2262 3.38642L24.5425 12.5491C24.7752 12.3574 25.069 12.2475 25.3765 12.2475C25.8743 12.2376 26.4097 12.2392 26.8898 12.2688L25.0278 2.36356C24.8463 1.39838 23.9311 0.817348 23.0035 0.875024C22.8711 0.883291 22.7379 0.904964 22.6071 0.940019ZM23.1872 2.62419C23.4289 2.62419 23.6248 2.82002 23.6248 3.06165C23.6248 3.30328 23.4289 3.49916 23.1872 3.49916C22.9456 3.49916 22.7498 3.30326 22.7498 3.06165C22.7498 2.82003 22.9456 2.62419 23.1872 2.62419ZM12.9538 5.72257C11.8653 6.19664 11.2027 7.21899 10.8655 8.16554L10.5023 9.18583H15.7797C15.9273 8.78566 16.1319 8.43983 16.7435 8.0844L21.0194 5.38588L20.4033 3.68375C20.2884 3.36605 20.2416 3.04695 20.2487 2.73612L12.9538 5.72257ZM10.0648 10.0608C9.34326 10.0608 8.83329 10.6718 8.75659 11.3238L8.76652 11.269L7.97184 14.4366H2.18778C1.46822 14.4366 0.873576 15.0287 0.873576 15.7483V18.8134C0.873576 19.5329 1.46822 20.1241 2.18778 20.1241H17.0636C17.7833 20.1241 18.394 19.534 18.3778 18.8031V15.7483C18.3774 15.6929 18.3663 15.6381 18.3454 15.5867L16.5954 11.2109C16.5012 10.9754 16.394 10.7187 16.2006 10.4871C16.0073 10.2555 15.6865 10.0607 15.3163 10.0607L10.0648 10.0608ZM10.9347 11.8117H10.9397H12.2513V15.3125H10.239C9.95002 15.3129 9.73984 15.0384 9.816 14.7597L10.5167 12.1372C10.567 11.9471 10.7381 11.814 10.9347 11.8117ZM13.1265 11.8117H14.5312C14.7073 11.8116 14.8662 11.917 14.9346 12.0791L16.5914 16.0166C16.6147 16.0705 16.627 16.1287 16.6273 16.1875V17.9384C16.6264 18.1787 16.4318 18.3732 16.1915 18.3742H13.5657C13.4193 18.3746 13.2823 18.3019 13.2008 18.1802L13.1264 18.0683L13.1265 11.8117ZM25.3765 13.1225C25.2376 13.1225 25.1069 13.1884 25.0244 13.3002L21.0878 18.5485C20.871 18.8365 21.0762 19.2484 21.4364 19.2492H24.0623C25.7513 19.2492 27.123 17.8766 27.123 16.1875V13.5617C27.1239 13.32 26.9289 13.1234 26.6873 13.1224L25.3765 13.1225ZM3.05627 16.1807C3.3019 16.1774 3.50177 16.3777 3.49891 16.6233V17.9384C3.51214 18.535 2.61051 18.535 2.6239 17.9384V16.6233C2.62059 16.3817 2.81465 16.1835 3.05627 16.1807ZM4.80712 16.1807C5.05276 16.1774 5.25262 16.3777 5.24976 16.6233V17.9384C5.26299 18.5345 4.36189 18.5345 4.37476 17.9384V16.6233C4.37145 16.3817 4.56551 16.1835 4.80712 16.1807ZM6.55456 16.1807C6.8012 16.1757 7.00267 16.3766 6.99976 16.6233V17.9384C6.98653 18.5088 6.13756 18.5088 6.12475 17.9384V16.6233C6.12143 16.3827 6.31395 16.1849 6.55456 16.1807ZM3.9381 20.9992C2.24906 20.9992 0.873047 22.3726 0.873047 24.0617C0.873047 25.7507 2.24906 27.1224 3.9381 27.1224H17.4998C19.1888 27.1224 20.5605 25.7507 20.5605 24.0617C20.5605 22.3726 19.1888 20.9992 17.4998 20.9992H3.9381ZM4.81397 22.75C5.53366 22.75 6.12473 23.342 6.12475 24.0617C6.12475 24.7814 5.53367 25.3759 4.81397 25.3759C4.09426 25.3759 3.49891 24.7814 3.49891 24.0617C3.49891 23.342 4.0943 22.75 4.81397 22.75ZM8.75061 22.75C9.4703 22.75 10.0614 23.342 10.0614 24.0617C10.0614 24.7814 9.4703 25.3759 8.75061 25.3759C8.03091 25.3759 7.43555 24.7814 7.43555 24.0617C7.43555 23.342 8.03092 22.75 8.75061 22.75ZM12.6872 22.75C13.4069 22.75 13.998 23.342 13.998 24.0617C13.998 24.7814 13.407 25.3759 12.6872 25.3759C11.9675 25.3759 11.3765 24.7814 11.3765 24.0617C11.3765 23.342 11.9676 22.75 12.6872 22.75ZM16.6239 22.75C17.3436 22.75 17.939 23.342 17.939 24.0617C17.939 24.7814 17.3436 25.3759 16.6239 25.3759C15.9042 25.3759 15.3131 24.7814 15.3131 24.0617C15.3131 23.342 15.9042 22.75 16.6239 22.75Z" fill="black"/>
</g>
<defs>
<clipPath id="clip0_349_3759">
<rect width="28" height="28" fill="white"/>
</clipPath>
</defs>
</svg>
