<svg width="28" height="22" viewBox="0 0 28 22" fill="none" xmlns="http://www.w3.org/2000/svg">
<path fill-rule="evenodd" clip-rule="evenodd" d="M14.6016 13.0448L12.2271 12.4503C11.9197 12.3736 11.5822 12.4806 11.3786 12.7491L9.57993 15.1195L7.7778 12.7449C7.5881 12.4763 7.24609 12.3383 6.90836 12.4244L4.07187 13.1514C1.64917 13.7724 0 15.8956 0 18.3929V20.9486C0 21.4017 0.367218 21.7689 0.820312 21.7689H14.7402C14.6505 21.5137 14.6016 21.239 14.6016 20.9529V13.0448Z" fill="black"/>
<path fill-rule="evenodd" clip-rule="evenodd" d="M22.4911 11.6904L22.9901 11.9412V10.0156H21.2617V11.9412L21.7558 11.693C21.9786 11.5798 22.2504 11.5702 22.4911 11.6904Z" fill="black"/>
<path fill-rule="evenodd" clip-rule="evenodd" d="M27.1797 10.0156H24.631V13.2676C24.631 13.7207 24.2637 14.0879 23.8106 14.0879C23.6511 14.0879 23.502 14.0422 23.3759 13.9632L22.1262 13.3353L20.8071 13.9982C20.2579 14.2736 19.6243 13.8619 19.6247 13.2676L19.6213 10.0156H17.0625C16.6094 10.0156 16.2422 10.3831 16.2422 10.8359V20.9531C16.2422 21.4062 16.6094 21.7734 17.0625 21.7734H27.1797C27.6328 21.7734 28 21.4062 28 20.9531V10.8359C28 10.3828 27.6328 10.0156 27.1797 10.0156Z" fill="black"/>
<path fill-rule="evenodd" clip-rule="evenodd" d="M15.1035 5.69531C15.1035 8.74585 12.6306 11.2188 9.58008 11.2188C6.52954 11.2188 4.05664 8.74585 4.05664 5.69531C4.05664 2.64478 6.52954 0.171875 9.58008 0.171875C12.6306 0.171875 15.1035 2.64478 15.1035 5.69531Z" fill="black"/>
</svg>
