<svg width="28" height="28" viewBox="0 0 28 28" fill="none" xmlns="http://www.w3.org/2000/svg">
<path d="M12.7588 11.2129C12.1826 11.2129 11.7139 11.8073 11.7139 12.538C11.7139 13.2686 12.1826 13.863 12.7588 13.863C13.335 13.863 13.8038 13.2686 13.8038 12.538C13.8038 11.8073 13.335 11.2129 12.7588 11.2129Z" fill="black"/>
<path d="M7.47563 7.48989C8.05275 7.48989 8.5206 6.89666 8.5206 6.16487C8.5206 5.43308 8.05275 4.83984 7.47563 4.83984C6.89851 4.83984 6.43066 5.43308 6.43066 6.16487C6.43066 6.89666 6.89851 7.48989 7.47563 7.48989Z" fill="black"/>
<path d="M15.8594 0.480469V4.37493H19.7538L15.8594 0.480469Z" fill="black"/>
<path d="M13.2344 21.4375C13.2344 17.323 16.2795 13.9066 20.2344 13.3228V6.01562H15.0391C14.586 6.01562 14.2188 5.64834 14.2188 5.19531V0H0.820312C0.367281 0 0 0.367281 0 0.820312V27.1797C0 27.6327 0.367281 28 0.820312 28H16.521C14.5267 26.5022 13.2344 24.118 13.2344 21.4375ZM12.401 3.96036C12.7491 4.10648 12.9129 4.50712 12.7668 4.85521L8.85478 14.1767C8.70866 14.5249 8.30802 14.6887 7.95988 14.5426C7.61173 14.3964 7.448 13.9958 7.59407 13.6476L11.5061 4.32616C11.6522 3.97808 12.0529 3.81429 12.401 3.96036ZM7.47545 3.47266C8.80551 3.47266 9.88761 4.68037 9.88761 6.16487C9.88761 7.64936 8.80551 8.85708 7.47545 8.85708C6.1454 8.85708 5.0633 7.64936 5.0633 6.16487C5.0633 4.68037 6.1454 3.47266 7.47545 3.47266ZM10.6641 24.6641H4.10156C3.64853 24.6641 3.28125 24.2968 3.28125 23.8438C3.28125 23.3907 3.64853 23.0234 4.10156 23.0234H10.6641C11.1171 23.0234 11.4844 23.3907 11.4844 23.8438C11.4844 24.2968 11.1171 24.6641 10.6641 24.6641ZM10.6641 21.3828H4.10156C3.64853 21.3828 3.28125 21.0155 3.28125 20.5625C3.28125 20.1095 3.64853 19.7422 4.10156 19.7422H10.6641C11.1171 19.7422 11.4844 20.1095 11.4844 20.5625C11.4844 21.0155 11.1171 21.3828 10.6641 21.3828ZM10.6641 18.1016H4.10156C3.64853 18.1016 3.28125 17.7343 3.28125 17.2812C3.28125 16.8282 3.64853 16.4609 4.10156 16.4609H10.6641C11.1171 16.4609 11.4844 16.8282 11.4844 17.2812C11.4844 17.7343 11.1171 18.1016 10.6641 18.1016ZM10.3468 12.5383C10.3468 11.0537 11.4289 9.84599 12.7589 9.84599C14.089 9.84599 15.1711 11.0538 15.1711 12.5383C15.1711 14.0227 14.089 15.2305 12.7589 15.2305C11.4289 15.2305 10.3468 14.0227 10.3468 12.5383Z" fill="black"/>
<path d="M22.0781 22.1128V23.9221C22.3606 23.7242 22.5308 23.4167 22.5802 23.1229C22.6171 22.903 22.633 22.3928 22.0781 22.1128Z" fill="black"/>
<path d="M20.6341 19.9472C20.6584 19.9662 20.6839 19.9851 20.7104 20.0038V18.9395C20.5913 19.0688 20.5219 19.2319 20.4945 19.3771C20.4486 19.6209 20.5034 19.8446 20.6341 19.9472Z" fill="black"/>
<path d="M21.4375 14.875C17.8131 14.875 14.875 17.8131 14.875 21.4375C14.875 25.0619 17.8131 28 21.4375 28C25.0619 28 28 25.0619 28 21.4375C28 17.8131 25.0619 14.875 21.4375 14.875ZM23.9282 23.3495C23.7799 24.232 23.1152 25.1264 22.0779 25.4096V25.8125C22.0779 26.19 21.7719 26.4961 21.3944 26.4961C21.0168 26.4961 20.7108 26.19 20.7108 25.8125V25.4758C20.201 25.4231 19.7859 25.2754 19.2213 24.9061C18.9054 24.6994 18.8168 24.2757 19.0235 23.9597C19.2301 23.6438 19.6538 23.5552 19.9698 23.7619C20.27 23.9583 20.4684 24.0529 20.7108 24.0974V21.5649C20.3244 21.3856 20.032 21.212 19.7908 21.0228C19.2548 20.6024 19.0098 19.8748 19.1513 19.1238C19.3052 18.3074 19.874 17.6576 20.6359 17.4281C20.6611 17.4205 20.6859 17.4139 20.7108 17.407V17.0625C20.7108 16.685 21.0168 16.3789 21.3944 16.3789C21.7719 16.3789 22.0779 16.685 22.0779 17.0625V17.334C22.6752 17.4492 23.0987 17.7477 23.3069 17.9867C23.5549 18.2714 23.5252 18.7032 23.2405 18.9512C22.9579 19.1975 22.5303 19.1699 22.2814 18.8908C22.2687 18.8783 22.2018 18.8163 22.0779 18.7586V20.6486C22.1758 20.6847 22.2734 20.7198 22.3695 20.7538C23.4959 21.152 24.1223 22.1951 23.9282 23.3495Z" fill="black"/>
</svg>
