<svg width="25" height="24" viewBox="0 0 25 24" fill="none" xmlns="http://www.w3.org/2000/svg">
<path d="M6.0836 13.8142C6.44344 13.8142 6.44344 14.3616 6.0836 14.3616H3.28087C2.91993 14.3616 2.91993 13.8142 3.28087 13.8142H6.0836ZM3.28087 10.9387C2.91993 10.9387 2.91993 10.3913 3.28087 10.3913H9.37962C9.73946 10.3913 9.73946 10.9387 9.37962 10.9387H3.28087ZM3.28087 7.5158C2.91993 7.5158 2.91993 6.96838 3.28087 6.96838H6.35977C6.71962 6.96838 6.71962 7.5158 6.35977 7.5158H3.28087ZM15.1289 16.7952C14.7707 16.7733 14.8035 16.2292 15.1617 16.2494C15.3865 16.2636 15.585 16.0465 15.5216 15.9191C15.4674 15.8092 15.3012 15.854 15.1355 15.8988C14.7527 16.0044 14.3699 16.1083 14.1172 15.5937C13.9701 15.2946 14.0751 14.9533 14.3108 14.7302L14.2796 14.6667C14.2096 14.5306 14.272 14.3616 14.4147 14.2949C14.5525 14.2331 14.7138 14.2916 14.7773 14.4299L14.8035 14.4874C14.8905 14.4731 14.9769 14.4721 15.0611 14.4841C15.416 14.5322 15.3433 15.0714 14.9884 15.0233C14.762 14.9938 14.5405 15.2185 14.6072 15.352C14.6613 15.4619 14.8276 15.4171 14.9933 15.3722C15.3761 15.2683 15.7589 15.1644 16.0116 15.679C16.1587 15.9781 16.052 16.321 15.8147 16.5442L15.8475 16.6153C15.9093 16.7487 15.8535 16.9084 15.7206 16.9735C15.5856 17.0402 15.4215 16.9844 15.3548 16.8493L15.3236 16.7842C15.2563 16.7952 15.1924 16.7985 15.1289 16.7952ZM16.8062 15.6003C16.4884 15.2656 16.5054 14.6996 16.4928 14.6624C16.2511 14.2965 15.8989 14.0406 15.5101 13.9197C14.6143 13.6435 13.6868 14.1319 13.4052 15.0249C13.1077 15.9579 13.6174 16.9921 14.5399 17.3256C15.7075 17.7484 16.8729 16.8493 16.8062 15.6003ZM22.6102 4.06338L21.7111 4.50525C21.5345 4.59221 21.4628 4.81041 21.5481 4.98432L23.1652 8.26939C23.2522 8.44439 23.4693 8.51877 23.6443 8.43236L24.5417 7.99049C24.7184 7.90354 24.7911 7.68643 24.7058 7.51143L23.0887 4.22635C23.0023 4.04971 22.7857 3.97643 22.6102 4.06338ZM22.4849 8.12174L21.138 5.38572C20.9241 5.49291 20.7163 5.59955 20.5134 5.70674C20.2269 5.85877 19.9447 6.01189 19.6685 6.16885C19.6592 6.17486 19.6499 6.18143 19.6406 6.1858C18.5677 6.719 17.5231 7.27408 16.5049 7.8494C15.9667 8.15182 15.4308 8.46463 14.8943 8.78565C14.8834 8.7933 14.8724 8.80096 14.8604 8.80752C14.3966 9.08643 13.9318 9.37354 13.4681 9.66611C13.1099 9.94229 12.8851 10.3218 12.7609 10.7205C12.7577 10.7358 12.7533 10.7517 12.7467 10.767C12.657 11.0787 12.6275 11.3981 12.6445 11.683C12.6598 11.9263 12.7358 12.354 12.9081 12.4798C12.9266 12.494 12.9469 12.4951 12.9715 12.4842L14.6006 11.6917C14.6116 11.6857 14.6225 11.6792 14.6345 11.6748L17.4777 10.2934C17.7025 10.1785 17.9366 10.3913 17.8666 10.616C17.265 12.529 16.9801 13.9241 17.0452 14.7165C17.0638 14.9538 17.1288 15.3306 17.4034 15.2902C17.6899 15.2191 17.9382 15.0528 18.146 14.7892C18.3741 14.501 18.5584 14.0996 18.6978 13.5817C18.7476 13.1634 18.9488 12.7789 19.3027 12.4284L19.5477 12.2129C19.8528 11.9679 20.2438 11.7431 20.7163 11.5353C20.9657 11.3773 21.1396 11.1804 21.2402 10.9463C21.3441 10.703 21.3704 10.4099 21.3206 10.0692H21.3223C21.3174 10.0363 21.319 10.0041 21.3256 9.97127C21.488 9.23627 21.9003 8.58385 22.4849 8.12174ZM11.7421 0.00830078C9.68368 0.00830078 8.01516 1.67627 8.01516 3.73525C8.01516 5.79424 9.68313 7.46166 11.7421 7.46166C12.8413 7.46166 13.8487 6.97932 14.5295 6.20768C15.8409 4.72127 15.7699 2.4933 14.3775 1.09986C13.7027 0.42502 12.7713 0.00830078 11.7421 0.00830078ZM10.8507 5.41525C10.7315 5.32229 10.7113 5.15166 10.8042 5.03244C10.8972 4.91486 11.0695 4.89299 11.187 4.98596C11.6738 5.36877 12.511 5.09588 12.511 4.58783C12.511 3.61877 10.4258 4.44838 10.4258 2.88268C10.4258 2.30736 10.9081 1.88572 11.4627 1.78182V1.46408C11.4627 1.31041 11.5819 1.18955 11.7465 1.18955V1.19119C11.9013 1.19119 12.0227 1.31697 12.0194 1.46846L12.0134 1.78182C12.3185 1.83596 12.6056 1.98635 12.8025 2.21604C12.9004 2.33088 12.8878 2.5026 12.773 2.60049C12.6581 2.69838 12.4864 2.6858 12.3885 2.57096C11.9669 2.07932 10.9732 2.3183 10.9732 2.88268C10.9732 3.85174 13.0584 3.02213 13.0584 4.58783C13.0584 5.16424 12.5734 5.58752 12.0166 5.68869L12.0106 6.00807C12.0106 6.36791 11.4632 6.36791 11.4632 6.00807V5.68869C11.2363 5.64604 11.0257 5.55307 10.8507 5.41525ZM10.4597 18.3051C11.1077 18.6026 11.7695 19.1096 11.8504 19.7778C11.8674 19.9233 11.8564 20.0693 11.8132 20.2104L13.2438 19.663L14.5984 18.9947C14.6094 18.9887 14.622 18.9821 14.634 18.9778L20.8673 15.9005C20.9756 15.848 21.022 15.7129 20.9679 15.6046L19.6237 12.8796C19.394 13.1262 19.2638 13.3865 19.2359 13.6627C19.2343 13.6763 19.231 13.6906 19.2283 13.7031C18.9663 14.6924 18.4627 15.6101 17.4985 15.8267C17.4859 15.8299 17.4739 15.831 17.4613 15.8327C17.4225 15.836 17.3853 15.8376 17.3498 15.836C17.2612 17.3399 15.7966 18.3614 14.3534 17.8386C13.1569 17.406 12.4979 16.0717 12.8824 14.8609C13.3833 13.2842 15.2913 12.7975 16.5267 13.8798C16.5967 13.2536 16.7641 12.4705 17.0211 11.5419L14.8741 12.6006C14.8631 12.6067 14.8506 12.6132 14.8385 12.6176L11.3801 14.3244C11.3691 14.3304 11.3566 14.337 11.3445 14.3413L9.2593 15.3706C9.15102 15.4247 9.10454 15.5581 9.15868 15.6664L10.4597 18.3051ZM9.28501 17.7856L9.68204 17.9606L9.59509 17.7856H9.28501ZM2.6979 17.9611L1.32579 17.9671C0.969226 17.9671 0.676101 18.263 0.677741 18.6212L0.693054 23.1367C0.694694 23.4917 0.988913 23.7848 1.34712 23.7848L2.71923 23.7799C3.07579 23.7782 3.36891 23.4791 3.36727 23.1242L3.35196 18.6103C3.35087 18.2553 3.05774 17.9611 2.6979 17.9611ZM3.89774 18.8432L3.91196 22.9328L5.10087 23.1154L9.64923 23.9308C9.89259 23.974 10.1174 23.9636 10.3377 23.8488L16.6115 20.5746C18.157 19.7685 17.5527 18.5982 16.0427 19.1763L10.9207 21.1374C10.86 21.1609 10.7938 21.162 10.7288 21.139L6.98813 19.7592C6.65016 19.6351 6.83938 19.1238 7.17571 19.2463L10.7999 20.5823C11.8772 19.9392 11.0525 19.1621 10.1813 18.7776L7.17079 17.4476C6.87602 17.3158 6.57415 17.3311 6.2936 17.4897L3.89774 18.8432ZM3.56305 17.7856C3.68719 17.9157 3.78454 18.0738 3.84032 18.2504L4.68962 17.7697C4.66173 17.779 4.63219 17.785 4.60102 17.785H3.56305V17.7856ZM1.96618 17.4197L2.6979 17.4164C2.80618 17.4164 2.91173 17.4306 3.01235 17.4585C3.03696 17.3328 3.14743 17.2381 3.28032 17.2381H4.60102C4.85696 17.2381 4.97126 17.5559 4.77766 17.7205L6.02563 17.015C6.45493 16.7717 6.93891 16.7481 7.38954 16.9467L8.04852 17.2381H9.32438L8.66868 15.9081C8.48274 15.5281 8.63751 15.0681 9.01759 14.8817L10.072 14.361H7.37805C7.01821 14.361 7.01821 13.8136 7.37805 13.8136H11.1805L12.7883 13.0212C12.3032 12.8834 12.1293 12.1981 12.0998 11.7142C12.0845 11.4708 12.0981 11.2056 12.1479 10.9376H10.5822C10.2224 10.9376 10.2224 10.3902 10.5822 10.3902H12.2983C12.4624 9.94994 12.7369 9.53268 13.1476 9.2215C13.1536 9.21822 13.1602 9.21385 13.1662 9.20893C13.5927 8.93932 14.0248 8.6708 14.4623 8.40721V7.02908C13.7245 7.64158 12.7757 8.00908 11.7416 8.00908C11.0208 8.00908 10.3416 7.8308 9.74657 7.51635H8.21477C7.85493 7.51635 7.85493 6.96893 8.21477 6.96893H8.94813C8.23173 6.35041 7.72805 5.50111 7.54376 4.54299H2.55243C2.22977 4.54299 1.96618 4.80658 1.96618 5.1276V17.4197Z" fill="black"/>
</svg>
