<svg width="28" height="28" viewBox="0 0 28 28" fill="none" xmlns="http://www.w3.org/2000/svg">
<path d="M7.26764 5.6875H8.98237L8.48236 7.4375H6.76763L7.26764 5.6875ZM11.375 7V12.25H8.3125V13.8188C8.31249 14.0277 8.25055 14.2319 8.1345 14.4056C8.01844 14.5793 7.85349 14.7147 7.66051 14.7946C7.46752 14.8745 7.25517 14.8954 7.05029 14.8547C6.84542 14.8139 6.65723 14.7134 6.50952 14.5657L4.19385 12.25H3.0625C2.48255 12.2493 1.92654 12.0186 1.51646 11.6085C1.10637 11.1985 0.875681 10.6425 0.875 10.0625V3.0625C0.875681 2.48255 1.10637 1.92654 1.51646 1.51646C1.92654 1.10637 2.48255 0.875681 3.0625 0.875H13.5625C14.1425 0.875681 14.6985 1.10637 15.1085 1.51646C15.5186 1.92654 15.7493 2.48255 15.75 3.0625V3.9375H14.4375C13.6256 3.93848 12.8472 4.26145 12.2731 4.83557C11.699 5.40969 11.376 6.18808 11.375 7ZM11.8125 5.25C11.8125 5.19254 11.8012 5.13563 11.7793 5.08254C11.7573 5.02944 11.7251 4.9812 11.6844 4.94057C11.6438 4.89994 11.5956 4.86771 11.5425 4.84574C11.4894 4.82376 11.4325 4.81247 11.375 4.8125H10.1426L10.4833 3.62005C10.5148 3.50856 10.5008 3.38914 10.4443 3.28798C10.3879 3.18682 10.2936 3.11216 10.1822 3.08038C10.0708 3.0486 9.95135 3.06229 9.85002 3.11844C9.74869 3.1746 9.67377 3.26864 9.64166 3.37995L9.23236 4.8125H7.51764L7.85834 3.62005C7.88979 3.50856 7.87576 3.38914 7.81931 3.28798C7.76287 3.18682 7.66861 3.11216 7.55721 3.08038C7.44581 3.0486 7.32635 3.06229 7.22502 3.11844C7.12369 3.1746 7.04877 3.26864 7.01666 3.37995L6.60736 4.8125H5.25C5.13397 4.8125 5.02269 4.85859 4.94064 4.94064C4.85859 5.02269 4.8125 5.13397 4.8125 5.25C4.8125 5.36603 4.85859 5.47731 4.94064 5.55936C5.02269 5.64141 5.13397 5.6875 5.25 5.6875H6.35737L5.85735 7.4375H4.375C4.25897 7.4375 4.14769 7.48359 4.06564 7.56564C3.98359 7.64769 3.9375 7.75897 3.9375 7.875C3.9375 7.99103 3.98359 8.10231 4.06564 8.18436C4.14769 8.26641 4.25897 8.3125 4.375 8.3125H5.60736L5.26666 9.50495C5.23494 9.61656 5.24879 9.7362 5.30518 9.8376C5.36157 9.93901 5.45589 10.0139 5.56745 10.0458C5.60667 10.0568 5.6472 10.0624 5.68794 10.0625C5.78297 10.0624 5.87537 10.0313 5.9512 9.97405C6.02704 9.91679 6.0822 9.83641 6.10834 9.74505L6.51764 8.3125H8.23236L7.89166 9.50495C7.85994 9.61656 7.87379 9.7362 7.93018 9.8376C7.98657 9.93901 8.08089 10.0139 8.19245 10.0458C8.23167 10.0568 8.2722 10.0624 8.31294 10.0625C8.40796 10.0624 8.50037 10.0313 8.5762 9.97405C8.65204 9.91679 8.70719 9.83641 8.73334 9.74505L9.14264 8.3125H10.5C10.616 8.3125 10.7273 8.26641 10.8094 8.18436C10.8914 8.10231 10.9375 7.99103 10.9375 7.875C10.9375 7.75897 10.8914 7.64769 10.8094 7.56564C10.7273 7.48359 10.616 7.4375 10.5 7.4375H9.39263L9.89264 5.6875H11.375C11.4325 5.68753 11.4894 5.67624 11.5425 5.65426C11.5956 5.63229 11.6438 5.60006 11.6844 5.55943C11.7251 5.5188 11.7573 5.47056 11.7793 5.41746C11.8012 5.36437 11.8125 5.30746 11.8125 5.25ZM16.625 9.625V13.5625H17.5009L17.5 9.625H16.625ZM22.3125 10.0625H21C20.926 10.0625 20.8532 10.0438 20.7885 10.008C20.7237 9.97226 20.6691 9.92066 20.6297 9.85804C20.5903 9.79543 20.5674 9.72384 20.5632 9.64999C20.559 9.57613 20.5736 9.50241 20.6057 9.43573C20.9979 8.61798 20.9628 7.91687 20.7535 7.5849C20.7189 7.52979 20.6479 7.4375 20.5625 7.4375C20.5007 7.43202 20.4385 7.43923 20.3797 7.45871C20.3208 7.47818 20.2666 7.50949 20.2203 7.55072C20.1852 7.59185 20.1586 7.63955 20.1421 7.69104C20.1256 7.74253 20.1195 7.79678 20.1241 7.85065C20.1064 8.58841 19.8044 9.2908 19.2812 9.81128C19.0336 10.0868 18.7226 10.2977 18.375 10.4257V12.9251C18.8728 13.3235 19.4876 13.5474 20.125 13.5625H22.3125C22.4285 13.5624 22.5397 13.5163 22.6218 13.4343C22.7038 13.3522 22.7499 13.241 22.75 13.125V10.5C22.7499 10.384 22.7038 10.2728 22.6218 10.1907C22.5397 10.1087 22.4285 10.0626 22.3125 10.0625ZM27.125 7V14C27.1243 14.58 26.8936 15.136 26.4835 15.546C26.0735 15.9561 25.5175 16.1868 24.9375 16.1875H21.1812L18.8655 18.5032C18.7178 18.6509 18.5296 18.7515 18.3247 18.7922C18.1198 18.833 17.9075 18.812 17.7145 18.7321C17.5215 18.6522 17.3565 18.5168 17.2405 18.3431C17.1244 18.1694 17.0625 17.9652 17.0625 17.7563V16.1875H14.4375C13.8575 16.1868 13.3015 15.9561 12.8915 15.546C12.4814 15.136 12.2507 14.58 12.25 14V7C12.2507 6.42005 12.4814 5.86404 12.8915 5.45396C13.3015 5.04387 13.8575 4.81318 14.4375 4.8125H24.9375C25.5175 4.81318 26.0735 5.04387 26.4835 5.45396C26.8936 5.86404 27.1243 6.42005 27.125 7ZM23.625 10.5C23.6246 10.152 23.4862 9.8184 23.2402 9.57234C22.9941 9.32628 22.6605 9.18788 22.3125 9.1875H21.637C21.7585 8.85173 21.8085 8.4943 21.7839 8.13808C21.7594 7.78186 21.6607 7.43469 21.4943 7.11877C21.3999 6.95381 21.2645 6.81597 21.1013 6.71853C20.9381 6.6211 20.7525 6.56736 20.5625 6.5625C20.3815 6.5549 20.2009 6.58539 20.0325 6.65199C19.864 6.7186 19.7114 6.81984 19.5845 6.94916C19.4675 7.07672 19.3776 7.2267 19.3202 7.39003C19.2629 7.55336 19.2393 7.72663 19.2509 7.89935C19.2136 8.39495 18.9986 8.86042 18.6454 9.21014C18.5585 9.30183 18.4621 9.38413 18.3579 9.45568C18.3185 9.25703 18.2115 9.07816 18.0551 8.94951C17.8987 8.82085 17.7025 8.75035 17.5 8.75H16.625C16.393 8.7503 16.1706 8.84258 16.0066 9.00661C15.8426 9.17064 15.7503 9.39303 15.75 9.625V13.5625C15.7503 13.7945 15.8426 14.0169 16.0066 14.1809C16.1706 14.3449 16.393 14.4372 16.625 14.4375H17.5C17.6677 14.4371 17.8318 14.3885 17.9726 14.2974C18.1135 14.2064 18.2252 14.0768 18.2945 13.9241C18.8483 14.2547 19.4801 14.4319 20.125 14.4375H22.3125C22.6605 14.4371 22.9941 14.2987 23.2402 14.0527C23.4862 13.8066 23.6246 13.473 23.625 13.125V10.5ZM3.9375 24.0625C3.64322 24.062 3.34986 24.0297 3.0625 23.9662V25.5938C3.0625 25.9999 3.22383 26.3893 3.51099 26.6765C3.79816 26.9637 4.18764 27.125 4.59375 27.125C4.99986 27.125 5.38934 26.9637 5.67651 26.6765C5.96367 26.3893 6.125 25.9999 6.125 25.5938V24.0756C5.985 24.0669 5.83625 24.0625 5.6875 24.0625H3.9375ZM12.25 18.6113V21.6387C12.516 21.4856 12.7369 21.265 12.8905 20.9992C13.0441 20.7335 13.125 20.4319 13.125 20.125C13.125 19.8181 13.0441 19.5165 12.8905 19.2508C12.7369 18.985 12.516 18.7644 12.25 18.6113ZM15.75 19.6875H14.4375C14.3215 19.6875 14.2102 19.7336 14.1281 19.8156C14.0461 19.8977 14 20.009 14 20.125C14 20.241 14.0461 20.3523 14.1281 20.4344C14.2102 20.5164 14.3215 20.5625 14.4375 20.5625H15.75C15.866 20.5625 15.9773 20.5164 16.0594 20.4344C16.1414 20.3523 16.1875 20.241 16.1875 20.125C16.1875 20.009 16.1414 19.8977 16.0594 19.8156C15.9773 19.7336 15.866 19.6875 15.75 19.6875ZM15.8884 21.8976L14.5759 21.4601C14.5214 21.4418 14.4638 21.4344 14.4064 21.4384C14.349 21.4423 14.293 21.4576 14.2415 21.4832C14.19 21.5088 14.1441 21.5444 14.1064 21.5878C14.0686 21.6312 14.0399 21.6817 14.0216 21.7362C14.0034 21.7908 13.9962 21.8484 14.0003 21.9058C14.0044 21.9632 14.0197 22.0192 14.0455 22.0706C14.0713 22.122 14.1069 22.1679 14.1504 22.2055C14.194 22.2431 14.2445 22.2718 14.2991 22.2899L15.6116 22.7274C15.7215 22.7637 15.8414 22.755 15.9449 22.7032C16.0485 22.6513 16.1272 22.5605 16.1639 22.4506C16.2005 22.3407 16.1921 22.2208 16.1405 22.1172C16.0888 22.0135 15.9982 21.9346 15.8884 21.8976ZM14.4375 18.8125C14.4846 18.8125 14.5313 18.8048 14.5759 18.7899L15.8884 18.3524C15.943 18.3343 15.9935 18.3056 16.0371 18.268C16.0806 18.2304 16.1162 18.1845 16.142 18.1331C16.1678 18.0817 16.1831 18.0257 16.1872 17.9683C16.1913 17.9109 16.1841 17.8533 16.1659 17.7987C16.1476 17.7442 16.1189 17.6937 16.0811 17.6503C16.0434 17.6069 15.9975 17.5713 15.946 17.5457C15.8945 17.5201 15.8385 17.5048 15.7811 17.5009C15.7237 17.4969 15.6661 17.5043 15.6116 17.5226L14.2991 17.9601C14.2006 17.993 14.117 18.0599 14.0633 18.1488C14.0096 18.2376 13.9892 18.3427 14.0058 18.4452C14.0225 18.5477 14.0751 18.6409 14.1541 18.7082C14.2332 18.7755 14.3337 18.8125 14.4375 18.8125ZM5.25 23.1875V17.0625H3.9375C3.12527 17.0625 2.34632 17.3852 1.77199 17.9595C1.19766 18.5338 0.875 19.3128 0.875 20.125C0.875 20.9372 1.19766 21.7162 1.77199 22.2905C2.34632 22.8648 3.12527 23.1875 3.9375 23.1875H5.25ZM11.0563 14.8929C10.9645 14.8674 10.8669 14.8723 10.7781 14.9069C10.6893 14.9415 10.614 15.0039 10.5636 15.0848C10.5162 15.1621 9.39434 16.9015 6.125 17.0481V23.2019C9.39434 23.3485 10.5161 25.0878 10.5624 25.1627C10.6116 25.2447 10.6864 25.3083 10.7752 25.3438C10.8641 25.3793 10.9621 25.3847 11.0543 25.3591C11.1465 25.3336 11.2278 25.2785 11.2857 25.2024C11.3436 25.1262 11.375 25.0332 11.375 24.9375V15.3125C11.3748 15.2174 11.3436 15.125 11.286 15.0492C11.2285 14.9735 11.1478 14.9186 11.0563 14.8929Z" fill="black"/>
</svg>
