<svg width="24" height="26" viewBox="0 0 24 26" fill="none" xmlns="http://www.w3.org/2000/svg">
<path d="M11.9996 2.72735L1.15832 11.0661L0.0908203 9.6836L11.4658 0.933602C11.6188 0.81582 11.8065 0.751953 11.9996 0.751953C12.1927 0.751953 12.3803 0.81582 12.5333 0.933602L23.9083 9.6836L22.8408 11.0661L11.9996 2.72735ZM13.7496 16.4999H10.2496C10.0175 16.4999 9.79495 16.592 9.63085 16.7561C9.46676 16.9202 9.37457 17.1428 9.37457 17.3749V24.3749H14.6246V17.3749C14.6246 17.1428 14.5324 16.9202 14.3683 16.7561C14.2042 16.592 13.9816 16.4999 13.7496 16.4999ZM18.9996 15.6249H21.6246V11.2499L11.9996 3.82985L2.37457 11.2499V21.7499C2.37457 22.446 2.65113 23.1137 3.14342 23.606C3.6357 24.0983 4.30338 24.3749 4.99957 24.3749H7.62457V17.3749C7.62457 16.6787 7.90113 16.011 8.39341 15.5187C8.8857 15.0264 9.55338 14.7499 10.2496 14.7499H13.7496C14.4458 14.7499 15.1134 15.0264 15.6057 15.5187C16.098 16.011 16.3746 16.6787 16.3746 17.3749V24.3749H17.2496V18.2499C17.2496 17.7857 17.4339 17.3406 17.7621 17.0124C18.0903 16.6842 18.5354 16.4999 18.9996 16.4999V15.6249ZM21.6246 16.4999H19.8746V17.3749H18.9996C18.7675 17.3749 18.5449 17.467 18.3809 17.6311C18.2168 17.7952 18.1246 18.0178 18.1246 18.2499V20.8749C18.1246 21.1069 18.2168 21.3295 18.3809 21.4936C18.5449 21.6577 18.7675 21.7499 18.9996 21.7499H21.6246V22.6249H18.1246V24.3749H19.8746V25.2499H21.6246V24.3749H22.4996C22.7316 24.3749 22.9542 24.2827 23.1183 24.1186C23.2824 23.9545 23.3746 23.7319 23.3746 23.4999V20.8749C23.3746 20.6428 23.2824 20.4202 23.1183 20.2561C22.9542 20.092 22.7316 19.9999 22.4996 19.9999H19.8746V19.1249H23.3746V17.3749H21.6246V16.4999Z" fill="black"/>
</svg>
