<svg width="28" height="28" viewBox="0 0 28 28" fill="none" xmlns="http://www.w3.org/2000/svg">
<path d="M14 1.75C11.5772 1.75 9.20877 2.46845 7.19427 3.8145C5.17977 5.16054 3.60965 7.07373 2.68248 9.31213C1.75531 11.5505 1.51272 14.0136 1.98539 16.3899C2.45805 18.7661 3.62475 20.9489 5.33795 22.6621C7.05114 24.3752 9.23388 25.5419 11.6101 26.0146C13.9864 26.4873 16.4495 26.2447 18.6879 25.3175C20.9263 24.3903 22.8395 22.8202 24.1855 20.8057C25.5316 18.7912 26.25 16.4228 26.25 14C26.2464 10.7522 24.9547 7.63842 22.6581 5.34187C20.3616 3.04533 17.2478 1.75356 14 1.75ZM8.09375 11.8212C8.52467 11.8212 8.94591 11.949 9.3042 12.1884C9.6625 12.4278 9.94175 12.7681 10.1067 13.1662C10.2716 13.5643 10.3147 14.0024 10.2306 14.4251C10.1466 14.8477 9.93907 15.2359 9.63436 15.5406C9.32966 15.8453 8.94144 16.0528 8.51881 16.1369C8.09617 16.221 7.6581 16.1778 7.25998 16.0129C6.86187 15.848 6.52159 15.5687 6.28219 15.2104C6.04279 14.8522 5.91501 14.4309 5.91501 14C5.91581 13.4224 6.14561 12.8687 6.55403 12.4603C6.96245 12.0519 7.51616 11.8221 8.09375 11.8212ZM11.8213 14C11.8213 13.5691 11.949 13.1478 12.1884 12.7896C12.4278 12.4313 12.7681 12.152 13.1662 11.9871C13.5643 11.8222 14.0024 11.779 14.4251 11.8631C14.8477 11.9472 15.2359 12.1547 15.5406 12.4594C15.8453 12.7641 16.0528 13.1523 16.1369 13.5749C16.221 13.9976 16.1778 14.4357 16.0129 14.8338C15.848 15.2319 15.5687 15.5722 15.2105 15.8116C14.8522 16.051 14.4309 16.1787 14 16.1787C13.4222 16.1787 12.868 15.9491 12.4595 15.5405C12.0509 15.132 11.8213 14.5778 11.8213 14ZM19.9063 16.1787C19.4753 16.1787 19.0541 16.051 18.6958 15.8116C18.3375 15.5722 18.0583 15.2319 17.8934 14.8338C17.7284 14.4357 17.6853 13.9976 17.7694 13.5749C17.8534 13.1523 18.0609 12.7641 18.3656 12.4594C18.6703 12.1547 19.0586 11.9472 19.4812 11.8631C19.9038 11.779 20.3419 11.8222 20.74 11.9871C21.1381 12.152 21.4784 12.4313 21.7178 12.7896C21.9572 13.1478 22.085 13.5691 22.085 14C22.0851 14.2861 22.0288 14.5695 21.9194 14.8339C21.8099 15.0983 21.6494 15.3385 21.4471 15.5408C21.2447 15.7432 21.0045 15.9036 20.7401 16.0131C20.4758 16.1226 20.1924 16.1788 19.9063 16.1787Z" fill="black"/>
<path d="M8.09379 15.3038C8.35165 15.3038 8.60371 15.2273 8.81811 15.0841C9.03251 14.9408 9.19962 14.7372 9.2983 14.499C9.39697 14.2607 9.42279 13.9986 9.37249 13.7457C9.32218 13.4928 9.19801 13.2605 9.01568 13.0781C8.83335 12.8958 8.60104 12.7716 8.34814 12.7213C8.09524 12.671 7.83309 12.6969 7.59487 12.7955C7.35664 12.8942 7.15302 13.0613 7.00976 13.2757C6.8665 13.4901 6.79004 13.7422 6.79004 14C6.7909 14.3456 6.92853 14.6767 7.17284 14.921C7.41716 15.1653 7.74828 15.3029 8.09379 15.3038Z" fill="black"/>
<path d="M15.3038 14C15.3038 13.7422 15.2273 13.4901 15.0841 13.2757C14.9408 13.0613 14.7372 12.8942 14.499 12.7955C14.2607 12.6969 13.9986 12.671 13.7457 12.7213C13.4928 12.7716 13.2605 12.8958 13.0781 13.0781C12.8958 13.2605 12.7716 13.4928 12.7213 13.7457C12.671 13.9986 12.6969 14.2607 12.7955 14.499C12.8942 14.7372 13.0613 14.9408 13.2757 15.0841C13.4901 15.2273 13.7422 15.3038 14 15.3038C14.3456 15.3029 14.6767 15.1653 14.921 14.921C15.1653 14.6767 15.3029 14.3456 15.3038 14Z" fill="black"/>
<path d="M19.9063 12.6963C19.6484 12.6963 19.3964 12.7728 19.182 12.916C18.9676 13.0593 18.8005 13.2629 18.7018 13.5011C18.6031 13.7393 18.5773 14.0015 18.6276 14.2544C18.6779 14.5073 18.8021 14.7396 18.9844 14.9219C19.1667 15.1043 19.399 15.2284 19.6519 15.2787C19.9048 15.329 20.167 15.3032 20.4052 15.2045C20.6434 15.1059 20.8471 14.9388 20.9903 14.7244C21.1336 14.51 21.21 14.2579 21.21 14C21.2101 13.8288 21.1764 13.6592 21.1109 13.501C21.0454 13.3428 20.9494 13.1991 20.8283 13.078C20.7072 12.9569 20.5635 12.8609 20.4053 12.7954C20.2471 12.7299 20.0775 12.6962 19.9063 12.6963Z" fill="black"/>
</svg>
