<svg width="28" height="18" viewBox="0 0 28 18" fill="none" xmlns="http://www.w3.org/2000/svg">
<path fill-rule="evenodd" clip-rule="evenodd" d="M9.92709 14.1783C9.3444 14.1783 8.87277 14.6499 8.87277 15.2326C8.87277 15.8153 9.3444 16.2869 9.92709 16.2869C10.5098 16.2869 10.9815 15.8153 10.9815 15.2326C10.9815 14.6498 10.5098 14.1783 9.92709 14.1783ZM3.01574 4.81598C2.77413 4.81598 2.57824 4.62009 2.57824 4.37848C2.57824 4.13687 2.77413 3.94098 3.01574 3.94098H10.1159C10.3575 3.94098 10.5534 4.13687 10.5534 4.37848C10.5534 4.62009 10.3575 4.81598 10.1159 4.81598H3.01574ZM2.19538 9.81709C1.95377 9.81709 1.75788 9.6212 1.75788 9.37959C1.75788 9.13798 1.95377 8.94209 2.19538 8.94209H9.29562C9.53723 8.94209 9.73312 9.13798 9.73312 9.37959C9.73312 9.6212 9.53723 9.81709 9.29562 9.81709H2.19538ZM0.922852 7.31656C0.681242 7.31656 0.485352 7.12067 0.485352 6.87906C0.485352 6.63745 0.681242 6.44156 0.922852 6.44156H8.02304C8.26465 6.44156 8.46054 6.63745 8.46054 6.87906C8.46054 7.12067 8.26465 7.31656 8.02304 7.31656H0.922852ZM4.27246 1.5963V3.06603H10.116C10.8405 3.06603 11.4285 3.65398 11.4285 4.37853C11.4285 4.93487 11.0818 5.41059 10.5929 5.60156H18.4291V1.59636C18.4291 1.08022 18.008 0.65918 17.4919 0.65918H5.20959C4.69345 0.659125 4.27246 1.08016 4.27246 1.5963ZM4.27246 14.2954V10.6921H9.29562C10.0202 10.6921 10.6081 10.1041 10.6081 9.37959C10.6081 8.65504 10.0202 8.06709 9.29562 8.06709H8.58134C8.78626 7.97057 8.96219 7.82259 9.09245 7.63982H18.429V15.2325H12.9108C12.9108 13.585 11.5747 12.2489 9.92715 12.2489C8.27963 12.2489 6.94351 13.585 6.94351 15.2325H5.20959C4.69345 15.2326 4.27246 14.8115 4.27246 14.2954ZM25.7475 8.4387L24.4539 5.39266C24.3788 5.21585 24.2147 5.10724 24.0226 5.10724H21.2132C20.9551 5.10724 20.7446 5.31773 20.7446 5.5758V8.29596C20.7446 8.55403 20.9551 8.76452 21.2132 8.76452H25.5319C25.6129 8.76452 25.6826 8.72712 25.7273 8.65952C25.772 8.59198 25.7792 8.51324 25.7475 8.4387ZM19.304 3.66661H24.4828C24.9767 3.66661 25.3979 3.92993 25.5764 4.35037L27.4353 8.72734C27.4903 8.85684 27.5146 8.97556 27.5146 9.11447V14.5297C27.5146 14.9168 27.1989 15.2326 26.8118 15.2326H26.393C26.393 13.5851 25.0569 12.2489 23.4094 12.2489C21.7619 12.2489 20.4257 13.5851 20.4257 15.2326H19.304V3.66661ZM23.4093 14.1783C22.8266 14.1783 22.355 14.6499 22.355 15.2326C22.355 15.8153 22.8266 16.2869 23.4093 16.2869C23.992 16.2869 24.4637 15.8153 24.4637 15.2326C24.4637 14.6498 23.9921 14.1783 23.4093 14.1783ZM23.4094 13.1239C22.2447 13.1239 21.3007 14.068 21.3007 15.2326C21.3007 16.3972 22.2447 17.3412 23.4094 17.3412C24.574 17.3412 25.518 16.3971 25.518 15.2326C25.518 14.068 24.5739 13.1239 23.4094 13.1239ZM9.92715 13.1239C11.0918 13.1239 12.0358 14.068 12.0358 15.2326C12.0358 16.3972 11.0917 17.3412 9.92715 17.3412C8.76258 17.3412 7.81851 16.3971 7.81851 15.2326C7.81845 14.068 8.76252 13.1239 9.92715 13.1239Z" fill="black"/>
</svg>
