<svg width="28" height="28" viewBox="0 0 28 28" fill="none" xmlns="http://www.w3.org/2000/svg">
<g clip-path="url(#clip0_349_3845)">
<path d="M22.5312 0.480469V5.46868H27.5195L22.5312 0.480469Z" fill="black"/>
<path d="M13.6719 13.7812V11.8672C13.6719 10.8118 12.8132 9.95312 11.7578 9.95312H1.91406C0.858648 9.95312 0 10.8118 0 11.8672V13.7812H13.6719Z" fill="black"/>
<path d="M0 15.4219V26.0859C0 27.1414 0.858648 28 1.91406 28H11.7578C12.8132 28 13.6719 27.1414 13.6719 26.0859V15.4219H0ZM3.55469 25.6758C3.10166 25.6758 2.73438 25.3085 2.73438 24.8555C2.73438 24.4024 3.10166 24.0352 3.55469 24.0352C4.00772 24.0352 4.375 24.4024 4.375 24.8555C4.375 25.3085 4.00772 25.6758 3.55469 25.6758ZM3.55469 22.668C3.10166 22.668 2.73438 22.3007 2.73438 21.8477C2.73438 21.3946 3.10166 21.0273 3.55469 21.0273C4.00772 21.0273 4.375 21.3946 4.375 21.8477C4.375 22.3007 4.00772 22.668 3.55469 22.668ZM3.55469 19.3867C3.10166 19.3867 2.73438 19.0194 2.73438 18.5664C2.73438 18.1134 3.10166 17.7461 3.55469 17.7461C4.00772 17.7461 4.375 18.1134 4.375 18.5664C4.375 19.0194 4.00772 19.3867 3.55469 19.3867ZM6.83594 25.6758C6.38291 25.6758 6.01562 25.3085 6.01562 24.8555C6.01562 24.4024 6.38291 24.0352 6.83594 24.0352C7.28897 24.0352 7.65625 24.4024 7.65625 24.8555C7.65625 25.3085 7.28897 25.6758 6.83594 25.6758ZM6.83594 22.668C6.38291 22.668 6.01562 22.3007 6.01562 21.8477C6.01562 21.3946 6.38291 21.0273 6.83594 21.0273C7.28897 21.0273 7.65625 21.3946 7.65625 21.8477C7.65625 22.3007 7.28897 22.668 6.83594 22.668ZM6.83594 19.3867C6.38291 19.3867 6.01562 19.0194 6.01562 18.5664C6.01562 18.1134 6.38291 17.7461 6.83594 17.7461C7.28897 17.7461 7.65625 18.1134 7.65625 18.5664C7.65625 19.0194 7.28897 19.3867 6.83594 19.3867ZM10.1172 25.6758C9.66416 25.6758 9.29688 25.3085 9.29688 24.8555C9.29688 24.4024 9.66416 24.0352 10.1172 24.0352C10.5702 24.0352 10.9375 24.4024 10.9375 24.8555C10.9375 25.3085 10.5702 25.6758 10.1172 25.6758ZM10.1172 22.668C9.66416 22.668 9.29688 22.3007 9.29688 21.8477C9.29688 21.3946 9.66416 21.0273 10.1172 21.0273C10.5702 21.0273 10.9375 21.3946 10.9375 21.8477C10.9375 22.3007 10.5702 22.668 10.1172 22.668ZM10.1172 19.3867C9.66416 19.3867 9.29688 19.0194 9.29688 18.5664C9.29688 18.1134 9.66416 17.7461 10.1172 17.7461C10.5702 17.7461 10.9375 18.1134 10.9375 18.5664C10.9375 19.0194 10.5702 19.3867 10.1172 19.3867Z" fill="black"/>
<path d="M21.7109 7.10938C21.2579 7.10938 20.8906 6.74209 20.8906 6.28906V0H7.49219C7.03916 0 6.67188 0.367281 6.67188 0.820312V8.3125H11.7578C13.7179 8.3125 15.3125 9.90713 15.3125 11.8672V26.0859C15.3125 26.7904 15.1057 27.447 14.7508 28H27.1797C27.6327 28 28 27.6327 28 27.1797V7.10938H21.7109ZM10.7734 2.46094H17.3359C17.789 2.46094 18.1562 2.82822 18.1562 3.28125C18.1562 3.73428 17.789 4.10156 17.3359 4.10156H10.7734C10.3204 4.10156 9.95312 3.73428 9.95312 3.28125C9.95312 2.82822 10.3204 2.46094 10.7734 2.46094ZM10.7734 7.38281C10.3204 7.38281 9.95312 7.01553 9.95312 6.5625C9.95312 6.10947 10.3204 5.74219 10.7734 5.74219H17.3359C17.789 5.74219 18.1562 6.10947 18.1562 6.5625C18.1562 7.01553 17.789 7.38281 17.3359 7.38281H10.7734ZM24.1226 20.0605C23.9869 20.8681 23.5806 21.6174 22.9786 22.1705C22.5112 22.6 21.9558 22.8888 21.3443 23.0259V23.7891C21.3443 24.2421 20.977 24.6094 20.5239 24.6094C20.0709 24.6094 19.7036 24.2421 19.7036 23.7891V23.0988C18.9156 23.0441 18.2856 22.8523 17.3767 22.2578C16.9975 22.0097 16.8913 21.5013 17.1393 21.1222C17.3872 20.743 17.8957 20.6368 18.2749 20.8848C18.8471 21.2592 19.1954 21.4022 19.7036 21.4527V17.2866C19.0792 17.005 18.619 16.7365 18.2452 16.4432C17.5017 15.8601 17.1629 14.845 17.3609 13.7941C17.5775 12.645 18.3762 11.731 19.4454 11.409C19.5328 11.3826 19.6186 11.36 19.7036 11.3391V10.6641C19.7036 10.211 20.0709 9.84375 20.5239 9.84375C20.977 9.84375 21.3443 10.211 21.3443 10.6641V11.2439C22.2742 11.3794 22.9278 11.8287 23.2383 12.1851C23.5358 12.5267 23.5001 13.0449 23.1585 13.3424C22.8181 13.639 22.3023 13.6046 22.0042 13.2661C21.9887 13.2504 21.7712 13.0354 21.3443 12.9189V16.1859C21.5369 16.2581 21.7296 16.3277 21.9183 16.3944C22.7524 16.6892 23.397 17.2172 23.7826 17.9211C24.1277 18.5515 24.2485 19.3114 24.1226 20.0605Z" fill="black"/>
<path d="M18.9733 14.0982C18.8904 14.5381 19.002 14.952 19.2577 15.1526C19.3876 15.2544 19.5386 15.353 19.7037 15.4488V13.0674C19.2709 13.2904 19.043 13.7282 18.9733 14.0982Z" fill="black"/>
<path d="M21.372 17.9413C21.3628 17.9381 21.3539 17.9349 21.3447 17.9316V21.3059C22.0113 21.0111 22.4053 20.3825 22.5052 19.7887C22.559 19.4683 22.6364 18.3883 21.372 17.9413Z" fill="black"/>
</g>
<defs>
<clipPath id="clip0_349_3845">
<rect width="28" height="28" fill="white"/>
</clipPath>
</defs>
</svg>
