<svg width="28" height="28" viewBox="0 0 28 28" fill="none" xmlns="http://www.w3.org/2000/svg">
<g clip-path="url(#clip0_349_3237)">
<path d="M17.2695 14.9214C21.338 14.9214 24.6474 11.6055 24.6474 7.52906C24.6474 3.45286 21.338 0.0273438 17.2695 0.0273438C13.2011 0.0273438 9.8916 3.45286 9.8916 7.52906C9.8916 11.6055 13.2011 14.9214 17.2695 14.9214ZM17.2695 8.35055C15.9134 8.35055 14.8103 7.24524 14.8103 5.8865C14.8103 4.81694 15.4977 3.9139 16.4498 3.57358V2.60097C16.4498 2.14699 16.8164 1.77948 17.2695 1.77948C17.7226 1.77948 18.0892 2.14699 18.0892 2.60097V3.57358C19.0413 3.9139 19.7287 4.81694 19.7287 5.8865C19.7287 6.34049 19.3622 6.70778 18.9091 6.70778C18.456 6.70778 18.0892 6.34049 18.0892 5.8865C18.0892 5.43317 17.7218 5.06501 17.2695 5.06501C16.8173 5.06501 16.4498 5.43317 16.4498 5.8865C16.4498 6.33963 16.8173 6.70778 17.2695 6.70778C18.6256 6.70778 19.7287 7.81309 19.7287 9.17182C19.7287 10.2414 19.0413 11.1444 18.0892 11.4847V12.4574C18.0892 12.9113 17.7226 13.2788 17.2695 13.2788C16.8164 13.2788 16.4498 12.9113 16.4498 12.4574V11.4847C15.4977 11.1444 14.8103 10.2414 14.8103 9.17182C14.8103 8.71784 15.1769 8.35055 15.63 8.35055C16.083 8.35055 16.4498 8.71784 16.4498 9.17182C16.4498 9.62516 16.8173 9.99331 17.2695 9.99331C17.7218 9.99331 18.0892 9.62516 18.0892 9.17182C18.0892 8.7187 17.7218 8.35055 17.2695 8.35055Z" fill="black"/>
<path d="M0.819673 26.4207H4.15348C4.60615 26.4207 4.97315 26.0528 4.97315 25.5992V15.7428C4.97315 14.382 3.87214 13.2788 2.51392 13.2788H0.819673C0.367005 13.2788 0 13.6465 0 14.1001V25.5992C0 26.0528 0.367005 26.4207 0.819673 26.4207Z" fill="black"/>
<path d="M25.8168 20.4412C25.8168 20.4412 17.0399 23.1354 16.4497 23.1354C15.9577 23.1354 15.4495 23.0202 14.974 22.7903L11.9572 21.2625C11.5966 21.0983 11.1866 21.1968 10.9407 21.4924C10.662 21.8539 10.1373 21.9031 9.79316 21.624C9.43235 21.3447 9.36676 20.8353 9.66178 20.474C10.3832 19.5705 11.6457 19.2912 12.6786 19.8004C12.4846 19.7039 15.5473 21.23 15.7118 21.3117C16.5507 21.7321 17.5107 21.3864 17.9087 20.5889C18.3259 19.7529 17.9743 18.749 17.1873 18.3877C17.6269 18.6084 10.5517 15.0555 10.3832 14.9708C9.65537 14.6062 8.86582 14.5223 8.02222 14.7574L6.6123 15.2098V25.1587L10.8425 27.2749C12.8099 28.2771 15.2198 28.2935 17.0561 27.4558C17.22 27.3901 26.9973 23.4804 27.0136 23.4804C27.9155 23.0859 28.2105 21.9526 27.8497 21.3447C27.5218 20.5891 26.653 20.1619 25.8168 20.4412Z" fill="black"/>
</g>
<defs>
<clipPath id="clip0_349_3237">
<rect width="28" height="28" fill="white"/>
</clipPath>
</defs>
</svg>
