<svg width="24" height="23" viewBox="0 0 24 23" fill="none" xmlns="http://www.w3.org/2000/svg">
<g opacity="0.988">
<mask id="path-1-inside-1_528_851" fill="white">
<path fill-rule="evenodd" clip-rule="evenodd" d="M7.6065 0.00108943C12.0356 -0.00181499 16.4646 0.00108943 20.8938 0.00978528C22.1734 0.149145 23.1039 0.789734 23.6851 1.93157C24.1648 3.0516 24.0952 4.13567 23.4764 5.18382C22.8729 6.08447 22.0294 6.59752 20.9459 6.72299C18.3834 6.72347 15.821 6.73507 13.2588 6.75777C11.091 6.97602 9.36054 7.95286 8.06738 9.68827C6.82142 11.4998 6.46198 13.4767 6.98909 15.6188C7.00213 15.6298 7.01664 15.6385 7.03257 15.6449C7.33828 15.6882 7.64552 15.7115 7.95433 15.7145C12.366 15.7202 16.7777 15.7262 21.1894 15.7319C22.3719 15.8945 23.2213 16.5119 23.7373 17.5841C24.1337 18.5593 24.0815 19.5099 23.5808 20.4364C22.9928 21.3872 22.1376 21.9061 21.0155 21.9929C18.5285 22.0046 16.0415 22.0046 13.5545 21.9929C10.8916 21.8487 8.7611 20.7212 7.16301 18.6102C6.73108 18.0017 6.38035 17.3465 6.11081 16.645C3.78547 16.018 2.0492 14.6498 0.901991 12.5405C0.250341 11.2476 -0.0482222 9.87659 0.00631824 8.42737C-0.0612486 5.95606 0.785154 3.86325 2.54551 2.14897C3.97664 0.842396 5.66363 0.126431 7.6065 0.00108943ZM7.55432 1.14894C12.036 1.14035 16.5173 1.14905 20.9981 1.17503C21.7767 1.33338 22.3361 1.77106 22.6764 2.4881C23.0465 3.50945 22.8291 4.38194 22.0242 5.10556C21.6357 5.40516 21.195 5.5675 20.7025 5.59252C18.2328 5.59832 15.7632 5.60413 13.2936 5.60992C10.7144 5.82512 8.65929 6.96428 7.12822 9.02739C5.81642 10.9356 5.34975 13.0342 5.72819 15.3232C3.66578 14.5449 2.25995 13.1187 1.5107 11.0448C1.31045 10.4404 1.1945 9.82012 1.16287 9.18391C1.15127 8.67955 1.15127 8.17519 1.16287 7.67083C1.31795 5.53125 2.23682 3.80659 3.91945 2.4968C5.00294 1.70593 6.21457 1.25665 7.55432 1.14894ZM7.44997 16.8363C12.0183 16.845 16.5865 16.8596 21.1546 16.8797C22.0359 17.0606 22.5895 17.5852 22.8156 18.4537C22.9559 19.3875 22.6282 20.1035 21.8329 20.6016C21.6258 20.7151 21.4054 20.7904 21.172 20.8277C18.5986 20.8565 16.0246 20.8623 13.4501 20.8451C11.0402 20.6567 9.17059 19.564 7.84128 17.5667C7.69714 17.3305 7.5667 17.0871 7.44997 16.8363Z"/>
</mask>
<path fill-rule="evenodd" clip-rule="evenodd" d="M7.6065 0.00108943C12.0356 -0.00181499 16.4646 0.00108943 20.8938 0.00978528C22.1734 0.149145 23.1039 0.789734 23.6851 1.93157C24.1648 3.0516 24.0952 4.13567 23.4764 5.18382C22.8729 6.08447 22.0294 6.59752 20.9459 6.72299C18.3834 6.72347 15.821 6.73507 13.2588 6.75777C11.091 6.97602 9.36054 7.95286 8.06738 9.68827C6.82142 11.4998 6.46198 13.4767 6.98909 15.6188C7.00213 15.6298 7.01664 15.6385 7.03257 15.6449C7.33828 15.6882 7.64552 15.7115 7.95433 15.7145C12.366 15.7202 16.7777 15.7262 21.1894 15.7319C22.3719 15.8945 23.2213 16.5119 23.7373 17.5841C24.1337 18.5593 24.0815 19.5099 23.5808 20.4364C22.9928 21.3872 22.1376 21.9061 21.0155 21.9929C18.5285 22.0046 16.0415 22.0046 13.5545 21.9929C10.8916 21.8487 8.7611 20.7212 7.16301 18.6102C6.73108 18.0017 6.38035 17.3465 6.11081 16.645C3.78547 16.018 2.0492 14.6498 0.901991 12.5405C0.250341 11.2476 -0.0482222 9.87659 0.00631824 8.42737C-0.0612486 5.95606 0.785154 3.86325 2.54551 2.14897C3.97664 0.842396 5.66363 0.126431 7.6065 0.00108943ZM7.55432 1.14894C12.036 1.14035 16.5173 1.14905 20.9981 1.17503C21.7767 1.33338 22.3361 1.77106 22.6764 2.4881C23.0465 3.50945 22.8291 4.38194 22.0242 5.10556C21.6357 5.40516 21.195 5.5675 20.7025 5.59252C18.2328 5.59832 15.7632 5.60413 13.2936 5.60992C10.7144 5.82512 8.65929 6.96428 7.12822 9.02739C5.81642 10.9356 5.34975 13.0342 5.72819 15.3232C3.66578 14.5449 2.25995 13.1187 1.5107 11.0448C1.31045 10.4404 1.1945 9.82012 1.16287 9.18391C1.15127 8.67955 1.15127 8.17519 1.16287 7.67083C1.31795 5.53125 2.23682 3.80659 3.91945 2.4968C5.00294 1.70593 6.21457 1.25665 7.55432 1.14894ZM7.44997 16.8363C12.0183 16.845 16.5865 16.8596 21.1546 16.8797C22.0359 17.0606 22.5895 17.5852 22.8156 18.4537C22.9559 19.3875 22.6282 20.1035 21.8329 20.6016C21.6258 20.7151 21.4054 20.7904 21.172 20.8277C18.5986 20.8565 16.0246 20.8623 13.4501 20.8451C11.0402 20.6567 9.17059 19.564 7.84128 17.5667C7.69714 17.3305 7.5667 17.0871 7.44997 16.8363Z" fill="black"/>
<path d="M7.6065 0.00108943L7.60387 -3.99891L7.47629 -3.99883L7.34898 -3.99061L7.6065 0.00108943ZM20.8938 0.00978528L21.3268 -3.9667L21.1148 -3.98979L20.9016 -3.99021L20.8938 0.00978528ZM23.6851 1.93157L27.3621 0.356857L27.31 0.235071L27.2499 0.117003L23.6851 1.93157ZM23.4764 5.18382L26.7994 7.41043L26.8629 7.31563L26.9209 7.21737L23.4764 5.18382ZM20.9459 6.72299L20.9467 10.723L21.1771 10.7229L21.406 10.6964L20.9459 6.72299ZM13.2588 6.75777L13.2234 2.75793L13.0403 2.75955L12.8581 2.77789L13.2588 6.75777ZM8.06738 9.68827L4.85994 7.29822L4.81462 7.35904L4.77164 7.42154L8.06738 9.68827ZM6.98909 15.6188L3.10495 16.5746L3.41684 17.8421L4.41632 18.6817L6.98909 15.6188ZM7.03257 15.6449L5.53445 19.3538L5.98763 19.5368L6.47155 19.6054L7.03257 15.6449ZM7.95433 15.7145L7.91604 19.7143L7.93258 19.7145L7.94913 19.7145L7.95433 15.7145ZM21.1894 15.7319L21.7344 11.7692L21.4658 11.7322L21.1946 11.7319L21.1894 15.7319ZM23.7373 17.5841L27.4429 16.0779L27.3958 15.9621L27.3416 15.8495L23.7373 17.5841ZM23.5808 20.4364L26.9828 22.5403L27.0442 22.4409L27.0997 22.3382L23.5808 20.4364ZM21.0155 21.9929L21.0342 25.9929L21.1793 25.9922L21.3239 25.981L21.0155 21.9929ZM13.5545 21.9929L13.3382 25.9871L13.4369 25.9924L13.5357 25.9929L13.5545 21.9929ZM7.16301 18.6102L3.90113 20.9254L3.9367 20.9755L3.9738 21.0245L7.16301 18.6102ZM6.11081 16.645L9.84473 15.2104L9.11547 13.3122L7.15212 12.7829L6.11081 16.645ZM0.901991 12.5405L-2.66994 14.3409L-2.64179 14.3967L-2.6119 14.4517L0.901991 12.5405ZM0.00631824 8.42737L4.00349 8.5778L4.00838 8.44795L4.00482 8.31805L0.00631824 8.42737ZM2.54551 2.14897L-0.151441 -0.805093L-0.199018 -0.761657L-0.245171 -0.716712L2.54551 2.14897ZM7.55432 1.14894L7.54665 -2.85105L7.38997 -2.85075L7.23378 -2.83819L7.55432 1.14894ZM20.9981 1.17503L21.7953 -2.74473L21.4122 -2.82264L21.0213 -2.8249L20.9981 1.17503ZM22.6764 2.4881L26.4371 1.12537L26.372 0.945599L26.29 0.772862L22.6764 2.4881ZM22.0242 5.10556L24.4668 8.27315L24.5863 8.18103L24.6985 8.08017L22.0242 5.10556ZM20.7025 5.59252L20.7118 9.59251L20.8087 9.59229L20.9054 9.58737L20.7025 5.59252ZM13.2936 5.60992L13.2842 1.60993L13.1223 1.61031L12.961 1.62377L13.2936 5.60992ZM7.12822 9.02739L3.91611 6.64363L3.87297 6.70175L3.83197 6.7614L7.12822 9.02739ZM5.72819 15.3232L4.31595 19.0656L10.8062 21.5148L9.67462 14.6707L5.72819 15.3232ZM1.5107 11.0448L-2.28632 12.3029L-2.26949 12.3536L-2.25132 12.404L1.5107 11.0448ZM1.16287 9.18391L-2.83608 9.27589L-2.83485 9.32925L-2.8322 9.38257L1.16287 9.18391ZM1.16287 7.67083L-2.82667 7.38166L-2.8338 7.48014L-2.83608 7.57886L1.16287 7.67083ZM3.91945 2.4968L1.56115 -0.734054L1.51122 -0.697606L1.46244 -0.659632L3.91945 2.4968ZM7.44997 16.8363L7.45759 12.8363L1.17046 12.8243L3.82357 18.5242L7.44997 16.8363ZM21.1546 16.8797L21.9589 12.9614L21.5696 12.8815L21.1723 12.8798L21.1546 16.8797ZM22.8156 18.4537L26.7711 17.8591L26.7397 17.6504L26.6865 17.446L22.8156 18.4537ZM21.8329 20.6016L23.756 24.109L23.8577 24.0532L23.956 23.9916L21.8329 20.6016ZM21.172 20.8277L21.2169 24.8274L21.5112 24.8241L21.8019 24.7778L21.172 20.8277ZM13.4501 20.8451L13.1384 24.8329L13.2807 24.844L13.4234 24.845L13.4501 20.8451ZM7.84128 17.5667L4.42694 19.6505L4.46786 19.7176L4.51139 19.783L7.84128 17.5667ZM7.60912 4.00109C12.0347 3.99819 16.4603 4.00109 20.8859 4.00978L20.9016 -3.99021C16.469 -3.99891 12.0365 -4.00182 7.60387 -3.99891L7.60912 4.00109ZM20.4607 3.98627C20.5041 3.991 20.498 3.99481 20.4569 3.9803C20.4136 3.96502 20.3512 3.93629 20.2831 3.88942C20.2149 3.84251 20.1647 3.7936 20.1331 3.75642C20.1031 3.72099 20.1025 3.71101 20.1204 3.74614L27.2499 0.117003C26.0529 -2.23451 23.9407 -3.68205 21.3268 -3.9667L20.4607 3.98627ZM20.0081 3.50628C20.0221 3.53878 20.0164 3.53442 20.0094 3.49653C20.002 3.45691 19.9964 3.39835 20.0009 3.32849C20.0054 3.25862 20.0184 3.20097 20.031 3.16207C20.043 3.12485 20.0494 3.12059 20.0319 3.15027L26.9209 7.21737C28.1882 5.0708 28.3427 2.64661 27.3621 0.356857L20.0081 3.50628ZM20.1535 2.95721C20.1452 2.96953 20.1535 2.95477 20.1835 2.92549C20.2143 2.89539 20.2579 2.85985 20.3125 2.82662C20.3671 2.79342 20.4174 2.77183 20.4554 2.75923C20.4923 2.74701 20.5054 2.74727 20.4858 2.74954L21.406 10.6964C23.6455 10.4371 25.539 9.29144 26.7994 7.41043L20.1535 2.95721ZM20.9452 2.72299C18.3711 2.72348 15.7971 2.73513 13.2234 2.75793L13.2942 10.7576C15.8448 10.735 18.3958 10.7235 20.9467 10.723L20.9452 2.72299ZM12.8581 2.77789C9.5816 3.10776 6.82917 4.65553 4.85994 7.29822L11.2748 12.0783C11.8919 11.2502 12.6004 10.8443 13.6595 10.7377L12.8581 2.77789ZM4.77164 7.42154C2.87606 10.1776 2.30602 13.3278 3.10495 16.5746L10.8732 14.6631C10.6179 13.6256 10.7668 12.8221 11.3631 11.955L4.77164 7.42154ZM4.41632 18.6817C4.75528 18.9664 5.13331 19.1918 5.53445 19.3538L8.53069 11.9361C8.89997 12.0852 9.24899 12.2932 9.56186 12.556L4.41632 18.6817ZM6.47155 19.6054C6.94899 19.673 7.43084 19.7097 7.91604 19.7143L7.99263 11.7147C7.86021 11.7134 7.72758 11.7035 7.59359 11.6845L6.47155 19.6054ZM7.94913 19.7145C12.2254 19.7201 16.9077 19.7263 21.1842 19.7319L21.1946 11.7319C16.6477 11.726 12.5066 11.7204 7.95953 11.7145L7.94913 19.7145ZM20.6445 19.6946C20.673 19.6985 20.539 19.6816 20.3613 19.5524C20.1831 19.4228 20.1232 19.2985 20.133 19.3187L27.3416 15.8495C26.2416 13.5638 24.2404 12.1138 21.7344 11.7692L20.6445 19.6946ZM20.0317 19.0903C20.0336 19.0949 20.0225 19.0687 20.0129 19.0146C20.003 18.9593 19.9971 18.8888 20.0015 18.8093C20.0058 18.7298 20.0194 18.6605 20.0352 18.6068C20.0506 18.5544 20.0644 18.5298 20.0618 18.5345L27.0997 22.3382C28.1682 20.3612 28.2894 18.1606 27.4429 16.0779L20.0317 19.0903ZM20.1788 18.3324C20.1774 18.3347 20.25 18.2241 20.4234 18.119C20.5958 18.0143 20.7218 18.0037 20.7071 18.0048L21.3239 25.981C23.709 25.7965 25.7181 24.5852 26.9828 22.5403L20.1788 18.3324ZM20.9968 17.993C18.5222 18.0045 16.0477 18.0045 13.5732 17.993L13.5357 25.9929C16.0352 26.0046 18.5347 26.0046 21.0342 25.9929L20.9968 17.993ZM13.7707 17.9988C12.2731 17.9177 11.234 17.3607 10.3522 16.1959L3.9738 21.0245C6.28818 24.0817 9.51009 25.7798 13.3382 25.9871L13.7707 17.9988ZM10.4249 16.295C10.188 15.9612 9.99526 15.6023 9.84473 15.2104L2.37689 18.0795C2.76543 19.0908 3.2742 20.0421 3.90113 20.9254L10.4249 16.295ZM7.15212 12.7829C5.87953 12.4398 5.03861 11.7743 4.41588 10.6293L-2.6119 14.4517C-0.940212 17.5253 1.69141 19.5962 5.06949 20.507L7.15212 12.7829ZM4.47393 10.7402C4.12716 10.0522 3.97434 9.35243 4.00349 8.5778L-3.99085 8.27694C-4.07078 10.4007 -3.62648 12.4431 -2.66994 14.3409L4.47393 10.7402ZM4.00482 8.31805C3.96758 6.95576 4.38183 5.94402 5.33619 5.01464L-0.245171 -0.716712C-2.81152 1.78248 -4.09008 4.95637 -3.99219 8.53669L4.00482 8.31805ZM5.24246 5.10302C5.99862 4.41267 6.82399 4.05989 7.86402 3.99279L7.34898 -3.99061C4.50327 -3.80702 1.95465 -2.72788 -0.151441 -0.805093L5.24246 5.10302ZM7.56199 5.14893C12.0334 5.14036 16.5044 5.14904 20.9749 5.17496L21.0213 -2.8249C16.5302 -2.85095 12.0386 -2.85966 7.54665 -2.85105L7.56199 5.14893ZM20.2009 5.09479C20.0551 5.06512 19.8011 4.97921 19.5368 4.77237C19.2723 4.56545 19.1273 4.33912 19.0628 4.20335L26.29 0.772862C25.4094 -1.08226 23.8061 -2.33579 21.7953 -2.74473L20.2009 5.09479ZM18.9157 3.85084C18.8871 3.77183 18.7892 3.42458 18.9096 2.94137C19.0303 2.45691 19.2815 2.19246 19.35 2.13094L24.6985 8.08017C25.5718 7.29504 26.3342 6.23253 26.6723 4.87559C27.0101 3.5199 26.8359 2.22573 26.4371 1.12537L18.9157 3.85084ZM19.5816 1.93797C19.6944 1.85098 19.8422 1.76396 20.0196 1.69861C20.1968 1.63333 20.3629 1.60462 20.4995 1.59768L20.9054 9.58737C22.2066 9.52126 23.4296 9.07298 24.4668 8.27315L19.5816 1.93797ZM20.6931 1.59254C19.4583 1.59543 18.2234 1.59833 16.9886 1.60123C15.7538 1.60413 14.519 1.60703 13.2842 1.60993L13.303 9.60991C14.5378 9.60701 15.7726 9.60411 17.0074 9.60121C18.2422 9.59831 19.477 9.59541 20.7118 9.59251L20.6931 1.59254ZM12.961 1.62377C9.24605 1.93374 6.13798 3.64965 3.91611 6.64363L10.3403 11.4111C11.1806 10.2789 12.1828 9.7165 13.6262 9.59606L12.961 1.62377ZM3.83197 6.7614C1.93308 9.52365 1.23499 12.6686 1.78177 15.9757L9.67462 14.6707C9.4645 13.3999 9.69976 12.3476 10.4245 11.2934L3.83197 6.7614ZM7.14044 11.5808C6.17246 11.2155 5.62487 10.6604 5.27272 9.6857L-2.25132 12.404C-1.10496 15.577 1.15909 17.8743 4.31595 19.0656L7.14044 11.5808ZM5.30772 9.7868C5.22102 9.5251 5.17165 9.26116 5.15793 8.98526L-2.8322 9.38257C-2.78264 10.3791 -2.60011 11.3558 -2.28632 12.3029L5.30772 9.7868ZM5.16181 9.09194C5.15162 8.64889 5.15162 8.20586 5.16181 7.76281L-2.83608 7.57886C-2.84909 8.14453 -2.84909 8.71022 -2.83608 9.27589L5.16181 9.09194ZM5.1524 7.96001C5.22617 6.94227 5.5937 6.26256 6.37647 5.65323L1.46244 -0.659632C-1.12005 1.35062 -2.59027 4.12024 -2.82667 7.38166L5.1524 7.96001ZM6.27776 5.72765C6.76355 5.37306 7.26958 5.18474 7.87486 5.13608L7.23378 -2.83819C5.15955 -2.67144 3.24233 -1.9612 1.56115 -0.734054L6.27776 5.72765ZM7.44236 20.8363C12.0072 20.8449 16.5721 20.8595 21.137 20.8797L21.1723 12.8798C16.601 12.8596 12.0294 12.845 7.45759 12.8363L7.44236 20.8363ZM20.3504 20.7981C20.1931 20.7658 19.8351 20.6493 19.4794 20.3123C19.1233 19.9748 18.9862 19.6215 18.9446 19.4614L26.6865 17.446C26.4188 16.4173 25.8919 15.3675 24.9821 14.5054C24.0729 13.6438 22.9975 13.1746 21.9589 12.9614L20.3504 20.7981ZM18.86 19.0482C18.838 18.9021 18.819 18.505 19.0377 18.0268C19.2573 17.5469 19.5741 17.2965 19.7098 17.2115L23.956 23.9916C24.8871 23.4085 25.7654 22.551 26.3125 21.3552C26.8588 20.1611 26.9334 18.939 26.7711 17.8591L18.86 19.0482ZM19.9099 17.0942C20.1065 16.9863 20.3238 16.9124 20.5421 16.8776L21.8019 24.7778C22.4871 24.6685 23.145 24.4439 23.756 24.109L19.9099 17.0942ZM21.1272 16.8279C18.5777 16.8565 16.0276 16.8622 13.4769 16.8451L13.4234 24.845C16.0216 24.8623 18.6195 24.8566 21.2169 24.8274L21.1272 16.8279ZM13.7618 16.8572C12.5657 16.7637 11.8138 16.316 11.1712 15.3505L4.51139 19.783C6.52738 22.812 9.5147 24.5497 13.1384 24.8329L13.7618 16.8572ZM11.2556 15.4829C11.1895 15.3746 11.1299 15.2632 11.0764 15.1483L3.82357 18.5242C4.00354 18.9109 4.20477 19.2865 4.42694 19.6505L11.2556 15.4829Z" fill="black" mask="url(#path-1-inside-1_528_851)"/>
</g>
<g opacity="0.988">
<mask id="path-3-inside-2_528_851" fill="white">
<path fill-rule="evenodd" clip-rule="evenodd" d="M7.6065 1.00109C12.0356 0.998185 16.4646 1.00109 20.8938 1.00979C22.1734 1.14915 23.1039 1.78973 23.6851 2.93157C24.1648 4.0516 24.0952 5.13567 23.4764 6.18382C22.8729 7.08447 22.0294 7.59752 20.9459 7.72299C18.3834 7.72347 15.821 7.73507 13.2588 7.75777C11.091 7.97602 9.36054 8.95286 8.06738 10.6883C6.82142 12.4998 6.46198 14.4767 6.98909 16.6188C7.00213 16.6298 7.01664 16.6385 7.03257 16.6449C7.33828 16.6882 7.64552 16.7115 7.95433 16.7145C12.366 16.7202 16.7777 16.7262 21.1894 16.7319C22.3719 16.8945 23.2213 17.5119 23.7373 18.5841C24.1337 19.5593 24.0815 20.5099 23.5808 21.4364C22.9928 22.3872 22.1376 22.9061 21.0155 22.9929C18.5285 23.0046 16.0415 23.0046 13.5545 22.9929C10.8916 22.8487 8.7611 21.7212 7.16301 19.6102C6.73108 19.0017 6.38035 18.3465 6.11081 17.645C3.78547 17.018 2.0492 15.6498 0.901991 13.5405C0.250341 12.2476 -0.0482222 10.8766 0.00631824 9.42737C-0.0612486 6.95606 0.785154 4.86325 2.54551 3.14897C3.97664 1.8424 5.66363 1.12643 7.6065 1.00109ZM7.55432 2.14894C12.036 2.14035 16.5173 2.14905 20.9981 2.17503C21.7767 2.33338 22.3361 2.77106 22.6764 3.4881C23.0465 4.50945 22.8291 5.38194 22.0242 6.10556C21.6357 6.40516 21.195 6.5675 20.7025 6.59252C18.2328 6.59832 15.7632 6.60413 13.2936 6.60992C10.7144 6.82512 8.65929 7.96428 7.12822 10.0274C5.81642 11.9356 5.34975 14.0342 5.72819 16.3232C3.66578 15.5449 2.25995 14.1187 1.5107 12.0448C1.31045 11.4404 1.1945 10.8201 1.16287 10.1839C1.15127 9.67955 1.15127 9.17519 1.16287 8.67083C1.31795 6.53125 2.23682 4.80659 3.91945 3.4968C5.00294 2.70593 6.21457 2.25665 7.55432 2.14894ZM7.44997 17.8363C12.0183 17.845 16.5865 17.8596 21.1546 17.8797C22.0359 18.0606 22.5895 18.5852 22.8156 19.4537C22.9559 20.3875 22.6282 21.1035 21.8329 21.6016C21.6258 21.7151 21.4054 21.7904 21.172 21.8277C18.5986 21.8565 16.0246 21.8623 13.4501 21.8451C11.0402 21.6567 9.17059 20.564 7.84128 18.5667C7.69714 18.3305 7.5667 18.0871 7.44997 17.8363Z"/>
</mask>
<path fill-rule="evenodd" clip-rule="evenodd" d="M7.6065 1.00109C12.0356 0.998185 16.4646 1.00109 20.8938 1.00979C22.1734 1.14915 23.1039 1.78973 23.6851 2.93157C24.1648 4.0516 24.0952 5.13567 23.4764 6.18382C22.8729 7.08447 22.0294 7.59752 20.9459 7.72299C18.3834 7.72347 15.821 7.73507 13.2588 7.75777C11.091 7.97602 9.36054 8.95286 8.06738 10.6883C6.82142 12.4998 6.46198 14.4767 6.98909 16.6188C7.00213 16.6298 7.01664 16.6385 7.03257 16.6449C7.33828 16.6882 7.64552 16.7115 7.95433 16.7145C12.366 16.7202 16.7777 16.7262 21.1894 16.7319C22.3719 16.8945 23.2213 17.5119 23.7373 18.5841C24.1337 19.5593 24.0815 20.5099 23.5808 21.4364C22.9928 22.3872 22.1376 22.9061 21.0155 22.9929C18.5285 23.0046 16.0415 23.0046 13.5545 22.9929C10.8916 22.8487 8.7611 21.7212 7.16301 19.6102C6.73108 19.0017 6.38035 18.3465 6.11081 17.645C3.78547 17.018 2.0492 15.6498 0.901991 13.5405C0.250341 12.2476 -0.0482222 10.8766 0.00631824 9.42737C-0.0612486 6.95606 0.785154 4.86325 2.54551 3.14897C3.97664 1.8424 5.66363 1.12643 7.6065 1.00109ZM7.55432 2.14894C12.036 2.14035 16.5173 2.14905 20.9981 2.17503C21.7767 2.33338 22.3361 2.77106 22.6764 3.4881C23.0465 4.50945 22.8291 5.38194 22.0242 6.10556C21.6357 6.40516 21.195 6.5675 20.7025 6.59252C18.2328 6.59832 15.7632 6.60413 13.2936 6.60992C10.7144 6.82512 8.65929 7.96428 7.12822 10.0274C5.81642 11.9356 5.34975 14.0342 5.72819 16.3232C3.66578 15.5449 2.25995 14.1187 1.5107 12.0448C1.31045 11.4404 1.1945 10.8201 1.16287 10.1839C1.15127 9.67955 1.15127 9.17519 1.16287 8.67083C1.31795 6.53125 2.23682 4.80659 3.91945 3.4968C5.00294 2.70593 6.21457 2.25665 7.55432 2.14894ZM7.44997 17.8363C12.0183 17.845 16.5865 17.8596 21.1546 17.8797C22.0359 18.0606 22.5895 18.5852 22.8156 19.4537C22.9559 20.3875 22.6282 21.1035 21.8329 21.6016C21.6258 21.7151 21.4054 21.7904 21.172 21.8277C18.5986 21.8565 16.0246 21.8623 13.4501 21.8451C11.0402 21.6567 9.17059 20.564 7.84128 18.5667C7.69714 18.3305 7.5667 18.0871 7.44997 17.8363Z" fill="black"/>
<path d="M7.6065 1.00109L7.60387 -2.99891L7.47629 -2.99883L7.34898 -2.99061L7.6065 1.00109ZM20.8938 1.00979L21.3268 -2.9667L21.1148 -2.98979L20.9016 -2.99021L20.8938 1.00979ZM23.6851 2.93157L27.3621 1.35686L27.31 1.23507L27.2499 1.117L23.6851 2.93157ZM23.4764 6.18382L26.7994 8.41043L26.8629 8.31563L26.9209 8.21737L23.4764 6.18382ZM20.9459 7.72299L20.9467 11.723L21.1771 11.7229L21.406 11.6964L20.9459 7.72299ZM13.2588 7.75777L13.2234 3.75793L13.0403 3.75955L12.8581 3.77789L13.2588 7.75777ZM8.06738 10.6883L4.85994 8.29822L4.81462 8.35904L4.77164 8.42154L8.06738 10.6883ZM6.98909 16.6188L3.10495 17.5746L3.41684 18.8421L4.41632 19.6817L6.98909 16.6188ZM7.03257 16.6449L5.53445 20.3538L5.98763 20.5368L6.47155 20.6054L7.03257 16.6449ZM7.95433 16.7145L7.91604 20.7143L7.93258 20.7145L7.94913 20.7145L7.95433 16.7145ZM21.1894 16.7319L21.7344 12.7692L21.4658 12.7322L21.1946 12.7319L21.1894 16.7319ZM23.7373 18.5841L27.4429 17.0779L27.3958 16.9621L27.3416 16.8495L23.7373 18.5841ZM23.5808 21.4364L26.9828 23.5403L27.0442 23.4409L27.0997 23.3382L23.5808 21.4364ZM21.0155 22.9929L21.0342 26.9929L21.1793 26.9922L21.3239 26.981L21.0155 22.9929ZM13.5545 22.9929L13.3382 26.9871L13.4369 26.9924L13.5357 26.9929L13.5545 22.9929ZM7.16301 19.6102L3.90113 21.9254L3.9367 21.9755L3.9738 22.0245L7.16301 19.6102ZM6.11081 17.645L9.84473 16.2104L9.11547 14.3122L7.15212 13.7829L6.11081 17.645ZM0.901991 13.5405L-2.66994 15.3409L-2.64179 15.3967L-2.6119 15.4517L0.901991 13.5405ZM0.00631824 9.42737L4.00349 9.5778L4.00838 9.44795L4.00482 9.31805L0.00631824 9.42737ZM2.54551 3.14897L-0.151441 0.194907L-0.199018 0.238343L-0.245171 0.283288L2.54551 3.14897ZM7.55432 2.14894L7.54665 -1.85105L7.38997 -1.85075L7.23378 -1.83819L7.55432 2.14894ZM20.9981 2.17503L21.7953 -1.74473L21.4122 -1.82264L21.0213 -1.8249L20.9981 2.17503ZM22.6764 3.4881L26.4371 2.12537L26.372 1.9456L26.29 1.77286L22.6764 3.4881ZM22.0242 6.10556L24.4668 9.27315L24.5863 9.18103L24.6985 9.08017L22.0242 6.10556ZM20.7025 6.59252L20.7118 10.5925L20.8087 10.5923L20.9054 10.5874L20.7025 6.59252ZM13.2936 6.60992L13.2842 2.60993L13.1223 2.61031L12.961 2.62377L13.2936 6.60992ZM7.12822 10.0274L3.91611 7.64363L3.87297 7.70175L3.83197 7.7614L7.12822 10.0274ZM5.72819 16.3232L4.31595 20.0656L10.8062 22.5148L9.67462 15.6707L5.72819 16.3232ZM1.5107 12.0448L-2.28632 13.3029L-2.26949 13.3536L-2.25132 13.404L1.5107 12.0448ZM1.16287 10.1839L-2.83608 10.2759L-2.83485 10.3293L-2.8322 10.3826L1.16287 10.1839ZM1.16287 8.67083L-2.82667 8.38166L-2.8338 8.48014L-2.83608 8.57886L1.16287 8.67083ZM3.91945 3.4968L1.56115 0.265946L1.51122 0.302394L1.46244 0.340368L3.91945 3.4968ZM7.44997 17.8363L7.45759 13.8363L1.17046 13.8243L3.82357 19.5242L7.44997 17.8363ZM21.1546 17.8797L21.9589 13.9614L21.5696 13.8815L21.1723 13.8798L21.1546 17.8797ZM22.8156 19.4537L26.7711 18.8591L26.7397 18.6504L26.6865 18.446L22.8156 19.4537ZM21.8329 21.6016L23.756 25.109L23.8577 25.0532L23.956 24.9916L21.8329 21.6016ZM21.172 21.8277L21.2169 25.8274L21.5112 25.8241L21.8019 25.7778L21.172 21.8277ZM13.4501 21.8451L13.1384 25.8329L13.2807 25.844L13.4234 25.845L13.4501 21.8451ZM7.84128 18.5667L4.42694 20.6505L4.46786 20.7176L4.51139 20.783L7.84128 18.5667ZM7.60912 5.00109C12.0347 4.99819 16.4603 5.00109 20.8859 5.00978L20.9016 -2.99021C16.469 -2.99891 12.0365 -3.00182 7.60387 -2.99891L7.60912 5.00109ZM20.4607 4.98627C20.5041 4.991 20.498 4.99481 20.4569 4.9803C20.4136 4.96502 20.3512 4.93629 20.2831 4.88942C20.2149 4.84251 20.1647 4.7936 20.1331 4.75642C20.1031 4.72099 20.1025 4.71101 20.1204 4.74614L27.2499 1.117C26.0529 -1.23451 23.9407 -2.68205 21.3268 -2.9667L20.4607 4.98627ZM20.0081 4.50628C20.0221 4.53878 20.0164 4.53442 20.0094 4.49653C20.002 4.45691 19.9964 4.39835 20.0009 4.32849C20.0054 4.25862 20.0184 4.20097 20.031 4.16207C20.043 4.12485 20.0494 4.12059 20.0319 4.15027L26.9209 8.21737C28.1882 6.0708 28.3427 3.64661 27.3621 1.35686L20.0081 4.50628ZM20.1535 3.95721C20.1452 3.96953 20.1535 3.95477 20.1835 3.92549C20.2143 3.89539 20.2579 3.85985 20.3125 3.82662C20.3671 3.79342 20.4174 3.77183 20.4554 3.75923C20.4923 3.74701 20.5054 3.74727 20.4858 3.74954L21.406 11.6964C23.6455 11.4371 25.539 10.2914 26.7994 8.41043L20.1535 3.95721ZM20.9452 3.72299C18.3711 3.72348 15.7971 3.73513 13.2234 3.75793L13.2942 11.7576C15.8448 11.735 18.3958 11.7235 20.9467 11.723L20.9452 3.72299ZM12.8581 3.77789C9.5816 4.10776 6.82917 5.65553 4.85994 8.29822L11.2748 13.0783C11.8919 12.2502 12.6004 11.8443 13.6595 11.7377L12.8581 3.77789ZM4.77164 8.42154C2.87606 11.1776 2.30602 14.3278 3.10495 17.5746L10.8732 15.6631C10.6179 14.6256 10.7668 13.8221 11.3631 12.955L4.77164 8.42154ZM4.41632 19.6817C4.75528 19.9664 5.13331 20.1918 5.53445 20.3538L8.53069 12.9361C8.89997 13.0852 9.24899 13.2932 9.56186 13.556L4.41632 19.6817ZM6.47155 20.6054C6.94899 20.673 7.43084 20.7097 7.91604 20.7143L7.99263 12.7147C7.86021 12.7134 7.72758 12.7035 7.59359 12.6845L6.47155 20.6054ZM7.94913 20.7145C12.2254 20.7201 16.9077 20.7263 21.1842 20.7319L21.1946 12.7319C16.6477 12.726 12.5066 12.7204 7.95953 12.7145L7.94913 20.7145ZM20.6445 20.6946C20.673 20.6985 20.539 20.6816 20.3613 20.5524C20.1831 20.4228 20.1232 20.2985 20.133 20.3187L27.3416 16.8495C26.2416 14.5638 24.2404 13.1138 21.7344 12.7692L20.6445 20.6946ZM20.0317 20.0903C20.0336 20.0949 20.0225 20.0687 20.0129 20.0146C20.003 19.9593 19.9971 19.8888 20.0015 19.8093C20.0058 19.7298 20.0194 19.6605 20.0352 19.6068C20.0506 19.5544 20.0644 19.5298 20.0618 19.5345L27.0997 23.3382C28.1682 21.3612 28.2894 19.1606 27.4429 17.0779L20.0317 20.0903ZM20.1788 19.3324C20.1774 19.3347 20.25 19.2241 20.4234 19.119C20.5958 19.0143 20.7218 19.0037 20.7071 19.0048L21.3239 26.981C23.709 26.7965 25.7181 25.5852 26.9828 23.5403L20.1788 19.3324ZM20.9968 18.993C18.5222 19.0045 16.0477 19.0045 13.5732 18.993L13.5357 26.9929C16.0352 27.0046 18.5347 27.0046 21.0342 26.9929L20.9968 18.993ZM13.7707 18.9988C12.2731 18.9177 11.234 18.3607 10.3522 17.1959L3.9738 22.0245C6.28818 25.0817 9.51009 26.7798 13.3382 26.9871L13.7707 18.9988ZM10.4249 17.295C10.188 16.9612 9.99526 16.6023 9.84473 16.2104L2.37689 19.0795C2.76543 20.0908 3.2742 21.0421 3.90113 21.9254L10.4249 17.295ZM7.15212 13.7829C5.87953 13.4398 5.03861 12.7743 4.41588 11.6293L-2.6119 15.4517C-0.940212 18.5253 1.69141 20.5962 5.06949 21.507L7.15212 13.7829ZM4.47393 11.7402C4.12716 11.0522 3.97434 10.3524 4.00349 9.5778L-3.99085 9.27694C-4.07078 11.4007 -3.62648 13.4431 -2.66994 15.3409L4.47393 11.7402ZM4.00482 9.31805C3.96758 7.95576 4.38183 6.94402 5.33619 6.01464L-0.245171 0.283288C-2.81152 2.78248 -4.09008 5.95637 -3.99219 9.53669L4.00482 9.31805ZM5.24246 6.10302C5.99862 5.41267 6.82399 5.05989 7.86402 4.99279L7.34898 -2.99061C4.50327 -2.80702 1.95465 -1.72788 -0.151441 0.194907L5.24246 6.10302ZM7.56199 6.14893C12.0334 6.14036 16.5044 6.14904 20.9749 6.17496L21.0213 -1.8249C16.5302 -1.85095 12.0386 -1.85966 7.54665 -1.85105L7.56199 6.14893ZM20.2009 6.09479C20.0551 6.06512 19.8011 5.97921 19.5368 5.77237C19.2723 5.56545 19.1273 5.33912 19.0628 5.20335L26.29 1.77286C25.4094 -0.0822636 23.8061 -1.33579 21.7953 -1.74473L20.2009 6.09479ZM18.9157 4.85084C18.8871 4.77183 18.7892 4.42458 18.9096 3.94137C19.0303 3.45691 19.2815 3.19246 19.35 3.13094L24.6985 9.08017C25.5718 8.29504 26.3342 7.23253 26.6723 5.87559C27.0101 4.5199 26.8359 3.22573 26.4371 2.12537L18.9157 4.85084ZM19.5816 2.93797C19.6944 2.85098 19.8422 2.76396 20.0196 2.69861C20.1968 2.63333 20.3629 2.60462 20.4995 2.59768L20.9054 10.5874C22.2066 10.5213 23.4296 10.073 24.4668 9.27315L19.5816 2.93797ZM20.6931 2.59254C19.4583 2.59543 18.2234 2.59833 16.9886 2.60123C15.7538 2.60413 14.519 2.60703 13.2842 2.60993L13.303 10.6099C14.5378 10.607 15.7726 10.6041 17.0074 10.6012C18.2422 10.5983 19.477 10.5954 20.7118 10.5925L20.6931 2.59254ZM12.961 2.62377C9.24605 2.93374 6.13798 4.64965 3.91611 7.64363L10.3403 12.4111C11.1806 11.2789 12.1828 10.7165 13.6262 10.5961L12.961 2.62377ZM3.83197 7.7614C1.93308 10.5237 1.23499 13.6686 1.78177 16.9757L9.67462 15.6707C9.4645 14.3999 9.69976 13.3476 10.4245 12.2934L3.83197 7.7614ZM7.14044 12.5808C6.17246 12.2155 5.62487 11.6604 5.27272 10.6857L-2.25132 13.404C-1.10496 16.577 1.15909 18.8743 4.31595 20.0656L7.14044 12.5808ZM5.30772 10.7868C5.22102 10.5251 5.17165 10.2612 5.15793 9.98526L-2.8322 10.3826C-2.78264 11.3791 -2.60011 12.3558 -2.28632 13.3029L5.30772 10.7868ZM5.16181 10.0919C5.15162 9.64889 5.15162 9.20586 5.16181 8.76281L-2.83608 8.57886C-2.84909 9.14453 -2.84909 9.71022 -2.83608 10.2759L5.16181 10.0919ZM5.1524 8.96001C5.22617 7.94227 5.5937 7.26256 6.37647 6.65323L1.46244 0.340368C-1.12005 2.35062 -2.59027 5.12024 -2.82667 8.38166L5.1524 8.96001ZM6.27776 6.72765C6.76355 6.37306 7.26958 6.18474 7.87486 6.13608L7.23378 -1.83819C5.15955 -1.67144 3.24233 -0.9612 1.56115 0.265946L6.27776 6.72765ZM7.44236 21.8363C12.0072 21.8449 16.5721 21.8595 21.137 21.8797L21.1723 13.8798C16.601 13.8596 12.0294 13.845 7.45759 13.8363L7.44236 21.8363ZM20.3504 21.7981C20.1931 21.7658 19.8351 21.6493 19.4794 21.3123C19.1233 20.9748 18.9862 20.6215 18.9446 20.4614L26.6865 18.446C26.4188 17.4173 25.8919 16.3675 24.9821 15.5054C24.0729 14.6438 22.9975 14.1746 21.9589 13.9614L20.3504 21.7981ZM18.86 20.0482C18.838 19.9021 18.819 19.505 19.0377 19.0268C19.2573 18.5469 19.5741 18.2965 19.7098 18.2115L23.956 24.9916C24.8871 24.4085 25.7654 23.551 26.3125 22.3552C26.8588 21.1611 26.9334 19.939 26.7711 18.8591L18.86 20.0482ZM19.9099 18.0942C20.1065 17.9863 20.3238 17.9124 20.5421 17.8776L21.8019 25.7778C22.4871 25.6685 23.145 25.4439 23.756 25.109L19.9099 18.0942ZM21.1272 17.8279C18.5777 17.8565 16.0276 17.8622 13.4769 17.8451L13.4234 25.845C16.0216 25.8623 18.6195 25.8566 21.2169 25.8274L21.1272 17.8279ZM13.7618 17.8572C12.5657 17.7637 11.8138 17.316 11.1712 16.3505L4.51139 20.783C6.52738 23.812 9.5147 25.5497 13.1384 25.8329L13.7618 17.8572ZM11.2556 16.4829C11.1895 16.3746 11.1299 16.2632 11.0764 16.1483L3.82357 19.5242C4.00354 19.9109 4.20477 20.2865 4.42694 20.6505L11.2556 16.4829Z" fill="black" mask="url(#path-3-inside-2_528_851)"/>
</g>
</svg>
