<svg width="40" height="40" viewBox="0 0 40 40" fill="none" xmlns="http://www.w3.org/2000/svg">
<g clip-path="url(#clip0_766_3987)">
<path d="M0.751953 22.4243C2.69595 23.2083 4.81595 23.6563 7.04795 23.6563C16.328 23.6563 23.848 16.1363 23.848 6.8563C23.848 4.7603 23.448 2.7523 22.744 0.904297H0.751953V22.4243Z" fill="#FEE7B5"/>
<path d="M38.2625 24.8005H33.1906V31.4565C33.1906 32.4405 32.3985 33.2405 31.4065 33.2405H24.4306V38.5125H10.8545V26.2565C7.71855 23.5605 5.79855 19.4885 6.01455 14.9845C6.35855 8.00046 11.9585 2.24846 18.9345 1.73646C26.9505 1.15246 33.6545 7.33646 33.9345 15.1445L38.2625 24.8005Z" fill="white"/>
<path d="M29.7755 15.8407C29.7755 18.9367 28.3915 21.7127 26.1995 23.5847C24.4235 25.0967 22.1195 26.0087 19.6075 26.0087C17.0955 26.0087 14.7915 25.0967 13.0155 23.5847C10.8315 21.7127 9.43945 18.9447 9.43945 15.8407C9.43945 12.7447 10.8235 9.96866 13.0155 8.10466C14.7915 6.59266 17.0955 5.68066 19.6075 5.68066C22.1195 5.68066 24.4235 6.59266 26.1995 8.10466C28.3915 9.96866 29.7755 12.7367 29.7755 15.8407Z" fill="#9BEAF9"/>
<path d="M11.2309 29.8484C11.5622 29.8484 11.8309 29.5798 11.8309 29.2484C11.8309 28.9171 11.5622 28.6484 11.2309 28.6484C10.8995 28.6484 10.6309 28.9171 10.6309 29.2484C10.6309 29.5798 10.8995 29.8484 11.2309 29.8484Z" fill="#505050"/>
<path d="M39.1914 24.5522L34.9114 15.0002C34.8394 13.3842 34.4954 11.8002 33.9034 10.2882L33.8954 10.2722C32.8234 7.59222 30.9994 5.31222 28.6234 3.67222C25.8954 1.78422 22.6634 0.88822 19.2634 1.13622C15.7434 1.40022 12.4314 2.95222 9.93539 5.51222C7.43939 8.07222 5.96739 11.4242 5.79939 14.9522C5.78339 15.1682 5.77539 15.4002 5.77539 15.6802C5.77539 19.8162 7.55139 23.7682 10.6314 26.5282V27.6482C10.6314 27.9762 10.9034 28.2482 11.2314 28.2482C11.5674 28.2482 11.8314 27.9762 11.8314 27.6482C11.8314 27.6402 11.8314 27.6402 11.8314 27.6322V26.2562C11.8314 26.0802 11.7594 25.9122 11.6234 25.8002C8.67139 23.2562 6.97539 19.5682 6.97539 15.6802C6.97539 15.4402 6.98339 15.2242 6.99139 15.0162C7.31139 8.38422 12.7434 2.81622 19.3514 2.33622C19.6794 2.31222 20.0154 2.29622 20.3594 2.29622C25.8474 2.29622 30.7194 5.59222 32.7674 10.6802L32.7754 10.7122C32.7754 10.7122 32.7754 10.7202 32.7834 10.7202C33.3434 12.1362 33.6634 13.6322 33.7194 15.1762L33.7674 15.3922L37.7114 24.1922H33.5674C33.4074 24.1922 33.2554 24.2562 33.1434 24.3682C33.0314 24.4802 32.9674 24.6322 32.9674 24.7922V31.4482C32.9674 32.0962 32.4394 32.6242 31.7914 32.6242H24.8154C24.6554 32.6242 24.5034 32.6882 24.3914 32.8002C24.2794 32.9122 24.2154 33.0722 24.2154 33.2242V37.8962H11.8314V30.8482C11.8314 30.5202 11.5674 30.2482 11.2314 30.2482C10.9034 30.2482 10.6314 30.5202 10.6314 30.8482V38.4962C10.6314 38.6562 10.6954 38.8082 10.8074 38.9202C10.9194 39.0322 11.0794 39.0962 11.2314 39.0962H24.8154C24.9754 39.0962 25.1274 39.0322 25.2394 38.9202C25.3514 38.8082 25.4154 38.6562 25.4154 38.4962V33.8242H31.7914C33.0954 33.8242 34.1674 32.7602 34.1674 31.4482V25.3922H38.6394C38.8474 25.3922 39.0394 25.2882 39.1434 25.1202C39.2554 24.9522 39.2714 24.7282 39.1914 24.5522Z" fill="#505050"/>
<path d="M26.9747 24.0403C29.3827 21.9843 30.7587 19.0003 30.7587 15.8403C30.7587 12.6883 29.3827 9.69627 26.9747 7.64027C25.0307 5.98427 22.5507 5.07227 19.9907 5.07227C17.4307 5.07227 14.9507 5.98427 13.0067 7.64027C10.6067 9.69627 9.22266 12.6803 9.22266 15.8403C9.22266 18.9923 10.5987 21.9843 13.0067 24.0403C14.9507 25.6963 17.4307 26.6083 19.9907 26.6083C22.5507 26.6083 25.0227 25.6963 26.9747 24.0403ZM23.8467 22.5763C24.4627 22.8483 25.0547 23.1843 25.6067 23.5843C24.6947 24.2483 23.6707 24.7363 22.5907 25.0483C22.8467 24.7043 23.0947 24.3043 23.3187 23.8563C23.5107 23.4563 23.6867 23.0243 23.8467 22.5763ZM22.2467 23.3123C21.7507 24.3203 21.1747 24.9843 20.5907 25.2643V21.7843C21.3187 21.8323 22.0307 21.9603 22.7187 22.1603C22.5747 22.5683 22.4147 22.9603 22.2467 23.3123ZM20.5907 20.5763V16.4323H23.6787C23.6387 18.0723 23.4307 19.6403 23.0707 21.0083C22.2707 20.7763 21.4387 20.6243 20.5907 20.5763ZM20.5907 15.2403V11.0963C21.4387 11.0483 22.2707 10.9043 23.0707 10.6643C23.4307 12.0323 23.6387 13.6003 23.6787 15.2403H20.5907ZM20.5907 9.89627V6.41627C21.1747 6.68827 21.7427 7.36027 22.2467 8.36827C22.4227 8.72027 22.5747 9.11227 22.7187 9.52027C22.0307 9.72827 21.3107 9.84827 20.5907 9.89627ZM23.3187 7.83227C23.0947 7.38427 22.8547 6.98427 22.5907 6.63227C23.6707 6.93627 24.6947 7.43227 25.6067 8.09627C25.0547 8.49627 24.4627 8.83227 23.8467 9.10427C23.6867 8.65627 23.5107 8.22427 23.3187 7.83227ZM16.1347 9.10427C15.5187 8.83227 14.9267 8.49627 14.3747 8.09627C15.2867 7.43227 16.3107 6.93627 17.3907 6.63227C17.1347 6.97627 16.8867 7.37627 16.6627 7.83227C16.4707 8.22427 16.2947 8.65627 16.1347 9.10427ZM17.7347 8.36827C18.2307 7.36027 18.8067 6.69627 19.3907 6.41627V9.89627C18.6627 9.84827 17.9507 9.72027 17.2627 9.52027C17.4067 9.11227 17.5587 8.72027 17.7347 8.36827ZM19.3907 11.0963V15.2403H16.3027C16.3427 13.6003 16.5507 12.0323 16.9107 10.6643C17.7107 10.9043 18.5427 11.0483 19.3907 11.0963ZM19.3907 16.4403V20.5843C18.5427 20.6323 17.7107 20.7763 16.9107 21.0163C16.5507 19.6483 16.3427 18.0803 16.3027 16.4403H19.3907ZM19.3907 21.7763V25.2563C18.8067 24.9843 18.2387 24.3123 17.7347 23.3123C17.5587 22.9603 17.4067 22.5683 17.2627 22.1523C17.9507 21.9523 18.6627 21.8243 19.3907 21.7763ZM16.6627 23.8483C16.8867 24.2963 17.1267 24.6963 17.3907 25.0403C16.3107 24.7363 15.2867 24.2403 14.3747 23.5763C14.9267 23.1763 15.5187 22.8403 16.1347 22.5683C16.2947 23.0243 16.4707 23.4563 16.6627 23.8483ZM26.5427 22.7923C25.8227 22.2323 25.0307 21.7763 24.1987 21.4243C24.5987 19.9283 24.8307 18.2163 24.8787 16.4403H29.5267C29.3747 18.8563 28.3107 21.1203 26.5427 22.7923ZM29.5267 15.2403H24.8787C24.8387 13.4563 24.5987 11.7523 24.1987 10.2563C25.0307 9.90427 25.8147 9.44827 26.5427 8.88827C28.3107 10.5603 29.3747 12.8243 29.5267 15.2403ZM13.4307 8.88827C14.1507 9.44027 14.9427 9.90427 15.7747 10.2563C15.3747 11.7523 15.1427 13.4563 15.0947 15.2403H10.4467C10.6067 12.8243 11.6707 10.5603 13.4307 8.88827ZM10.4547 16.4403H15.1027C15.1427 18.2163 15.3827 19.9283 15.7827 21.4243C14.9507 21.7763 14.1667 22.2403 13.4387 22.7923C11.6707 21.1203 10.6067 18.8563 10.4547 16.4403Z" fill="#505050"/>
</g>
<defs>
<clipPath id="clip0_766_3987">
<rect width="40" height="40" fill="white"/>
</clipPath>
</defs>
</svg>
