<svg width="40" height="40" viewBox="0 0 40 40" fill="none" xmlns="http://www.w3.org/2000/svg">
<path d="M39.1044 4.8559C36.2564 2.6319 32.6804 1.2959 28.7844 1.2959C19.5044 1.2959 11.9844 8.8159 11.9844 18.0959C11.9844 19.3359 12.1284 20.5439 12.3844 21.7119H39.1044V4.8559Z" fill="#FEE7B5"/>
<path d="M28.8639 33.6796V1.59961H1.50391V16.4556V32.9996C1.50391 34.2716 1.83191 35.5436 2.55191 36.5916C2.66391 36.7516 2.77591 36.9036 2.88791 37.0156C3.73591 37.8716 4.91191 38.3996 6.21591 38.3996H6.14391H33.5839" fill="white"/>
<path d="M14.941 18.0537L24.957 18.0537L24.957 4.72571L14.941 4.72571L14.941 18.0537Z" fill="#FADC00"/>
<path d="M28.8652 16.4561V33.6801C28.8652 34.9761 29.3932 36.1601 30.2412 37.0161C31.0972 37.8721 32.2732 38.4001 33.5772 38.4001C36.1852 38.4001 38.2972 36.2881 38.2972 33.6801V16.4561H28.8652Z" fill="#9BEAF9"/>
<path d="M38.3043 15.856H36.7843C36.4563 15.856 36.1843 16.128 36.1843 16.456C36.1843 16.784 36.4563 17.056 36.7843 17.056H37.7043V33.68C37.7043 35.952 35.8563 37.8 33.5843 37.8C32.4803 37.8 31.4483 37.376 30.6723 36.592C29.8963 35.808 29.4643 34.784 29.4643 33.68V17.056H33.4483C33.7763 17.056 34.0483 16.784 34.0483 16.456C34.0483 16.128 33.7763 15.856 33.4483 15.856H29.4643V1.6C29.4643 1.272 29.1923 1 28.8643 1H1.5043C1.1683 1 0.904297 1.272 0.904297 1.6V33C0.904297 34.464 1.3043 35.824 2.0483 36.928C2.1923 37.136 2.3203 37.304 2.4563 37.44C3.4323 38.416 4.7283 38.968 6.1043 38.992C6.1203 38.992 6.1283 38.992 6.1443 38.992H33.5843C36.5123 38.992 38.9043 36.608 38.9043 33.672V16.456C38.9043 16.128 38.6323 15.856 38.3043 15.856ZM6.2163 37.8C5.1123 37.8 4.0803 37.376 3.3043 36.592C3.2163 36.504 3.1283 36.392 3.0403 36.256C2.4243 35.344 2.0963 34.216 2.0963 33V2.2H28.2643V16.456V33.68C28.2643 35.104 28.8163 36.44 29.8163 37.44C29.9443 37.568 30.0723 37.688 30.2083 37.792H6.2163V37.8Z" fill="#505050"/>
<path d="M24.9519 4.12012H14.9359C14.6079 4.12012 14.3359 4.39212 14.3359 4.72012V18.0481C14.3359 18.3761 14.6079 18.6481 14.9359 18.6481H24.9519C25.2799 18.6481 25.5519 18.3761 25.5519 18.0481V4.72012C25.5519 4.39212 25.2879 4.12012 24.9519 4.12012ZM24.3519 17.4481H15.5359V5.32012H24.3519V17.4481Z" fill="#505050"/>
<path d="M4.92031 8.52031H11.5283C11.8563 8.52031 12.1283 8.24831 12.1283 7.92031C12.1283 7.59231 11.8563 7.32031 11.5283 7.32031H4.92031C4.58431 7.32031 4.32031 7.59231 4.32031 7.92031C4.32031 8.24831 4.58431 8.52031 4.92031 8.52031Z" fill="#505050"/>
<path d="M4.92031 11.8963H11.5283C11.8563 11.8963 12.1283 11.6243 12.1283 11.2963C12.1283 10.9683 11.8563 10.6963 11.5283 10.6963H4.92031C4.59231 10.6963 4.32031 10.9683 4.32031 11.2963C4.32031 11.6243 4.58431 11.8963 4.92031 11.8963Z" fill="#505050"/>
<path d="M4.92031 15.2723H11.5283C11.8563 15.2723 12.1283 15.0003 12.1283 14.6723C12.1283 14.3443 11.8563 14.0723 11.5283 14.0723H4.92031C4.59231 14.0723 4.32031 14.3443 4.32031 14.6723C4.32031 15.0003 4.58431 15.2723 4.92031 15.2723Z" fill="#505050"/>
<path d="M4.92031 18.6482H11.7283C12.0563 18.6482 12.3283 18.3762 12.3283 18.0482C12.3283 17.7202 12.0563 17.4482 11.7283 17.4482H4.92031C4.59231 17.4482 4.32031 17.7202 4.32031 18.0482C4.32031 18.3762 4.58431 18.6482 4.92031 18.6482Z" fill="#505050"/>
<path d="M24.9523 20.8242H4.92031C4.59231 20.8242 4.32031 21.0962 4.32031 21.4242C4.32031 21.7522 4.59231 22.0242 4.92031 22.0242H24.9603C25.2883 22.0242 25.5603 21.7522 25.5603 21.4242C25.5603 21.0962 25.2883 20.8242 24.9523 20.8242Z" fill="#505050"/>
<path d="M24.9523 24.208H4.92031C4.59231 24.208 4.32031 24.48 4.32031 24.808C4.32031 25.136 4.59231 25.408 4.92031 25.408H24.9603C25.2883 25.408 25.5603 25.136 25.5603 24.808C25.5603 24.48 25.2883 24.208 24.9523 24.208Z" fill="#505050"/>
<path d="M24.9523 27.584H4.92031C4.59231 27.584 4.32031 27.856 4.32031 28.184C4.32031 28.512 4.59231 28.784 4.92031 28.784H24.9603C25.2883 28.784 25.5603 28.512 25.5603 28.184C25.5603 27.856 25.2883 27.584 24.9523 27.584Z" fill="#505050"/>
<path d="M24.9523 30.96H4.92031C4.59231 30.96 4.32031 31.232 4.32031 31.56C4.32031 31.888 4.59231 32.16 4.92031 32.16H24.9603C25.2883 32.16 25.5603 31.888 25.5603 31.56C25.5603 31.232 25.2883 30.96 24.9523 30.96Z" fill="#505050"/>
<path d="M19.944 14.3042C19.304 14.3042 18.784 13.7842 18.784 13.1442C18.784 12.8162 18.512 12.5442 18.184 12.5442C17.856 12.5442 17.584 12.8162 17.584 13.1442C17.584 14.2322 18.336 15.1442 19.344 15.4162V15.8082C19.344 16.1362 19.616 16.4082 19.944 16.4082C20.272 16.4082 20.544 16.1362 20.544 15.8082V15.4162C21.552 15.1522 22.304 14.2402 22.304 13.1442C22.304 11.8402 21.248 10.7842 19.944 10.7842C19.304 10.7842 18.784 10.2642 18.784 9.62416C18.784 8.98416 19.304 8.46416 19.944 8.46416C20.584 8.46416 21.104 8.98416 21.104 9.62416C21.104 9.95216 21.376 10.2242 21.704 10.2242C22.032 10.2242 22.304 9.95216 22.304 9.62416C22.304 8.53616 21.552 7.62416 20.544 7.35216V6.96816C20.544 6.64016 20.272 6.36816 19.944 6.36816C19.616 6.36816 19.344 6.64016 19.344 6.96816V7.36016C18.336 7.62416 17.584 8.53616 17.584 9.63216C17.584 10.9362 18.64 11.9922 19.944 11.9922C20.584 11.9922 21.104 12.5122 21.104 13.1522C21.104 13.7922 20.584 14.3042 19.944 14.3042Z" fill="#505050"/>
<path d="M35.0727 17.0564C35.404 17.0564 35.6727 16.7878 35.6727 16.4564C35.6727 16.1251 35.404 15.8564 35.0727 15.8564C34.7413 15.8564 34.4727 16.1251 34.4727 16.4564C34.4727 16.7878 34.7413 17.0564 35.0727 17.0564Z" fill="#505050"/>
</svg>
