<svg width="40" height="40" viewBox="0 0 40 40" fill="none" xmlns="http://www.w3.org/2000/svg">
<g clip-path="url(#clip0_369_2074)">
<path d="M0.768066 22.4243C2.71207 23.2083 4.83207 23.6563 7.06407 23.6563C16.3441 23.6563 23.8641 16.1363 23.8641 6.8563C23.8641 4.7603 23.4641 2.7523 22.7601 0.904297H0.768066V22.4243Z" fill="#FEE7B5"/>
<path d="M38.6323 16.3681C38.6323 24.4641 32.0723 31.0321 23.9763 31.0321C15.8723 31.0321 9.31226 24.4641 9.31226 16.3681C9.31226 8.27211 15.8803 1.70411 23.9763 1.70411C32.0643 1.69611 38.6323 8.27211 38.6323 16.3681Z" fill="#9BEAF9"/>
<path d="M23.9761 27.4717C17.8561 27.4717 12.8721 22.4877 12.8721 16.3677C12.8721 10.2477 17.8481 5.26367 23.9761 5.26367C30.0961 5.26367 35.0721 10.2477 35.0721 16.3677C35.0721 22.4877 30.0881 27.4717 23.9761 27.4717Z" fill="white"/>
<path d="M11.3361 23.8164L2.91213 32.2324C1.48013 33.6724 1.48013 35.9924 2.91213 37.4164C4.35213 38.8564 6.67213 38.8564 8.09613 37.4164L16.5201 28.9924H16.5281" fill="#FADC00"/>
<path d="M23.9681 1.09668C20.0961 1.09668 16.4001 2.55268 13.5681 5.19268C10.7521 7.82468 9.04011 11.3767 8.75211 15.2007C8.73611 15.3607 8.79211 15.5207 8.89611 15.6407C9.00011 15.7607 9.14411 15.8327 9.30411 15.8487C9.63211 15.8727 9.91211 15.6247 9.94411 15.3047V15.2967C10.4961 8.00868 16.6561 2.29668 23.9681 2.29668C31.7121 2.31268 38.0161 8.62468 38.0321 16.3607C38.0161 24.1047 31.7121 30.4167 23.9681 30.4327C17.0081 30.4327 11.0241 25.2407 10.0481 18.3527C10.0001 18.0327 9.68811 17.7927 9.36811 17.8487C9.20811 17.8727 9.07211 17.9527 8.97611 18.0807C8.87211 18.2087 8.83211 18.3687 8.85611 18.5207C9.11211 20.3527 9.71211 22.1047 10.5921 23.7047L2.48011 31.8167C0.816109 33.4807 0.824109 36.1927 2.48011 37.8487C3.28811 38.6567 4.36011 39.1047 5.49611 39.1047C5.49611 39.1047 5.49611 39.1047 5.50411 39.1047C6.64011 39.1047 7.71211 38.6567 8.51211 37.8487L16.6241 29.7367C18.8561 30.9607 21.3761 31.6327 23.9601 31.6327C32.3761 31.6327 39.2241 24.7847 39.2241 16.3607C39.2321 7.94468 32.3841 1.09668 23.9681 1.09668ZM5.50411 37.9047C4.68011 37.9047 3.91211 37.5847 3.32811 37.0007C2.13611 35.8087 2.13611 33.8567 3.32811 32.6647L3.98411 32.0087L8.32011 36.3447L7.66411 37.0007C7.08811 37.5767 6.32011 37.8967 5.50411 37.9047ZM9.17611 35.4967L4.84011 31.1607L11.2321 24.7687C11.9841 25.9047 12.8801 26.9447 13.9201 27.8567C14.4401 28.3127 15.0001 28.7207 15.5761 29.0967L9.17611 35.4967Z" fill="#505050"/>
<path d="M9.31216 17.449H9.33616C9.49616 17.441 9.64016 17.377 9.75216 17.257C9.86416 17.145 9.92016 16.985 9.91216 16.833C9.90416 16.505 9.64016 16.249 9.31216 16.249H9.29616C9.13616 16.257 8.98416 16.321 8.88016 16.441C8.76816 16.553 8.71216 16.705 8.71216 16.865C8.72816 17.193 8.99216 17.449 9.31216 17.449Z" fill="#505050"/>
<path d="M23.9682 28.073C30.4162 28.073 35.6642 22.825 35.6642 16.369C35.6642 9.91304 30.4162 4.66504 23.9682 4.66504C17.5122 4.66504 12.2642 9.91304 12.2642 16.369C12.2642 22.817 17.5122 28.073 23.9682 28.073ZM23.9682 5.86504C29.7602 5.86504 34.4642 10.577 34.4642 16.369C34.4642 22.161 29.7522 26.873 23.9682 26.873C18.1762 26.873 13.4642 22.161 13.4642 16.369C13.4642 10.577 18.1762 5.86504 23.9682 5.86504Z" fill="#505050"/>
<path d="M23.968 21.4646C22.728 21.4646 21.72 20.4566 21.72 19.2166C21.72 18.8886 21.448 18.6166 21.12 18.6166C20.792 18.6166 20.52 18.8886 20.52 19.2166C20.52 20.9126 21.752 22.3206 23.368 22.6006V23.5286C23.368 23.8566 23.64 24.1286 23.968 24.1286C24.296 24.1286 24.568 23.8566 24.568 23.5286V22.6006C26.184 22.3126 27.416 20.9126 27.416 19.2166C27.416 17.3126 25.872 15.7686 23.968 15.7686C22.728 15.7686 21.72 14.7606 21.72 13.5206C21.72 12.2806 22.728 11.2726 23.968 11.2726C25.208 11.2726 26.216 12.2806 26.216 13.5206C26.216 13.8486 26.488 14.1206 26.816 14.1206C27.144 14.1206 27.416 13.8486 27.416 13.5206C27.416 11.8246 26.184 10.4166 24.568 10.1366V9.20059C24.568 8.87259 24.296 8.60059 23.968 8.60059C23.64 8.60059 23.368 8.87259 23.368 9.20059V10.1286C21.752 10.4166 20.52 11.8166 20.52 13.5126C20.52 15.4166 22.064 16.9606 23.968 16.9606C25.208 16.9606 26.216 17.9686 26.216 19.2086C26.216 20.4486 25.208 21.4646 23.968 21.4646Z" fill="#505050"/>
</g>
<defs>
<clipPath id="clip0_369_2074">
<rect width="40" height="40" fill="white"/>
</clipPath>
</defs>
</svg>
