<svg width="40" height="40" viewBox="0 0 40 40" fill="none" xmlns="http://www.w3.org/2000/svg">
<path d="M12.4725 9.59961C7.98448 9.59961 3.91248 11.3756 0.896484 14.2396V38.0236H24.5765C27.4805 35.0076 29.2725 30.9116 29.2725 26.3916C29.2725 17.1196 21.7525 9.59961 12.4725 9.59961Z" fill="#FEE7B5"/>
<path d="M30.351 35.9833C34.8488 35.9833 38.495 32.3371 38.495 27.8393C38.495 23.3415 34.8488 19.6953 30.351 19.6953C25.8532 19.6953 22.207 23.3415 22.207 27.8393C22.207 32.3371 25.8532 35.9833 30.351 35.9833Z" fill="#E9F4BC"/>
<path d="M30.3514 33.5915C27.1834 33.5915 24.6074 31.0155 24.6074 27.8475C24.6074 24.6795 27.1834 22.1035 30.3514 22.1035C33.5194 22.1035 36.0954 24.6795 36.0954 27.8475C36.1034 31.0075 33.5194 33.5915 30.3514 33.5915Z" fill="#FDE4A1"/>
<path d="M19.3457 18.9816V14.1816H16.1457V18.9816H19.3457Z" fill="white"/>
<path d="M31.9831 6.47949H3.23913C2.39113 6.47949 1.70312 7.15949 1.70312 8.01549V12.4315C1.70312 13.1675 2.22312 13.7995 2.95112 13.9435L16.1511 16.4955V14.1835H19.3511V16.4475L32.2791 13.9435C33.0071 13.7995 33.5271 13.1675 33.5271 12.4315V8.01549C33.5191 7.16749 32.8231 6.47949 31.9831 6.47949Z" fill="#9BEAF9"/>
<path d="M32.2719 13.9435L19.3439 16.4475V18.9835H16.1439V16.4955L2.94392 13.9435C2.93592 13.9435 2.92792 13.9355 2.91992 13.9355V27.4395C2.91992 28.2955 3.60792 28.9835 4.46392 28.9835H22.2959C22.2399 28.6075 22.2079 28.2315 22.2079 27.8395C22.2079 23.3435 25.8559 19.6955 30.3519 19.6955C31.0239 19.6955 31.6719 19.7835 32.2959 19.9355V13.9355C32.2879 13.9355 32.2799 13.9435 32.2719 13.9435Z" fill="#FADC00"/>
<path d="M32.8955 19.4798V14.3598C33.6235 14.0078 34.1195 13.2718 34.1195 12.4318V8.01577C34.1195 7.06377 33.4955 6.27177 32.6315 5.99177C32.5355 5.92777 32.4235 5.87977 32.2955 5.87977H31.9755C31.9675 5.87977 31.9675 5.87977 31.9675 5.87977H24.1195V3.36777C24.1195 2.59977 23.4875 1.96777 22.7195 1.96777H12.4955C11.7275 1.96777 11.0955 2.59977 11.0955 3.36777V5.87977H3.23952C2.06352 5.87977 1.10352 6.83977 1.10352 8.01577V12.4318C1.10352 13.2718 1.59952 14.0078 2.31952 14.3598V27.4398C2.31952 28.6238 3.27952 29.5838 4.46352 29.5838H21.7835C22.5915 33.5758 26.1275 36.5918 30.3515 36.5918C35.1755 36.5918 39.0955 32.6718 39.0955 27.8478C39.0955 23.9038 36.4795 20.5678 32.8955 19.4798ZM2.29552 8.01577C2.30352 7.49577 2.71152 7.07977 3.23952 7.07977H17.3035C17.6315 7.07977 17.9035 6.80777 17.9035 6.47977C17.9035 6.15177 17.6315 5.87977 17.3035 5.87977H12.2955V3.36777C12.2955 3.25577 12.3835 3.16777 12.4955 3.16777H22.7195C22.8315 3.16777 22.9195 3.25577 22.9195 3.36777V5.87977H20.5035C20.1755 5.87977 19.9035 6.15177 19.9035 6.47977C19.9035 6.80777 20.1755 7.07977 20.5035 7.07977H31.9835C32.4955 7.07977 32.9195 7.50377 32.9195 8.01577V12.4318C32.9195 12.8798 32.5995 13.2718 32.1595 13.3598H32.1515C32.1515 13.3598 32.1435 13.3598 32.1435 13.3678L19.9435 15.7278V14.1918C19.9435 13.8638 19.6715 13.5918 19.3435 13.5918H16.1435C15.8155 13.5918 15.5435 13.8638 15.5435 14.1918V15.7758L3.08752 13.3598C3.07152 13.3598 3.06352 13.3518 3.04752 13.3518C2.60752 13.2558 2.29552 12.8718 2.29552 12.4318V8.01577ZM18.7435 14.7838V18.3838H16.7435V14.7838H18.7435ZM4.46352 28.3838C3.94352 28.3838 3.51952 27.9598 3.51952 27.4398V14.6638L15.5435 16.9918V18.9758C15.5435 19.3038 15.8155 19.5758 16.1435 19.5758H19.3435C19.6715 19.5758 19.9435 19.3038 19.9435 18.9758V16.9358L31.6955 14.6558V19.1998C31.2555 19.1278 30.8075 19.0878 30.3515 19.0878C25.5275 19.0878 21.6075 23.0078 21.6075 27.8318C21.6075 28.0158 21.6235 28.1918 21.6315 28.3758H4.46352V28.3838ZM30.3515 35.3918C26.1915 35.3918 22.8075 32.0078 22.8075 27.8478C22.8075 23.6878 26.1915 20.3038 30.3515 20.3038C34.5115 20.3038 37.8955 23.6878 37.8955 27.8478C37.8955 32.0078 34.5115 35.3918 30.3515 35.3918Z" fill="#505050"/>
<path d="M30.3518 21.4961C26.8558 21.4961 24.0078 24.3441 24.0078 27.8401C24.0078 31.3361 26.8558 34.1841 30.3518 34.1841C33.8478 34.1841 36.6958 31.3361 36.6958 27.8401C36.6958 24.3441 33.8558 21.4961 30.3518 21.4961ZM30.3518 32.9921C27.5118 32.9921 25.2078 30.6801 25.2078 27.8481C25.2078 25.0081 27.5118 22.7041 30.3518 22.7041C33.1918 22.7041 35.4958 25.0161 35.4958 27.8481C35.4958 30.6801 33.1918 32.9921 30.3518 32.9921Z" fill="#505050"/>
<path d="M30.3518 25.2873C30.8878 25.2873 31.3278 25.7273 31.3278 26.2633C31.3278 26.5913 31.5998 26.8633 31.9278 26.8633C32.2558 26.8633 32.5278 26.5913 32.5278 26.2633C32.5278 25.2713 31.8558 24.4393 30.9518 24.1833V23.8793C30.9518 23.5513 30.6798 23.2793 30.3518 23.2793C30.0238 23.2793 29.7518 23.5513 29.7518 23.8793V24.1833C28.8478 24.4473 28.1758 25.2713 28.1758 26.2633C28.1758 27.4633 29.1518 28.4393 30.3518 28.4393C30.8878 28.4393 31.3278 28.8793 31.3278 29.4153C31.3278 29.9513 30.8958 30.3993 30.3518 30.3993C29.8078 30.3993 29.3758 29.9593 29.3758 29.4233C29.3758 29.0953 29.1038 28.8233 28.7758 28.8233C28.4478 28.8233 28.1758 29.0953 28.1758 29.4233C28.1758 30.4153 28.8478 31.2473 29.7518 31.5033V31.8073C29.7518 32.1353 30.0238 32.4073 30.3518 32.4073C30.6798 32.4073 30.9518 32.1353 30.9518 31.8073V31.5033C31.8558 31.2393 32.5278 30.4153 32.5278 29.4233C32.5278 28.2233 31.5518 27.2473 30.3518 27.2473C29.8158 27.2473 29.3758 26.8073 29.3758 26.2713C29.3758 25.7353 29.8158 25.2873 30.3518 25.2873Z" fill="#505050"/>
<path d="M18.9027 7.07988C19.2341 7.07988 19.5027 6.81125 19.5027 6.47988C19.5027 6.14851 19.2341 5.87988 18.9027 5.87988C18.5714 5.87988 18.3027 6.14851 18.3027 6.47988C18.3027 6.81125 18.5714 7.07988 18.9027 7.07988Z" fill="#505050"/>
</svg>
