<svg width="40" height="40" viewBox="0 0 40 40" fill="none" xmlns="http://www.w3.org/2000/svg">
<path d="M0.904297 26.1839C3.0643 27.3199 5.5203 27.9679 8.1283 27.9679C16.7443 27.9679 23.7203 20.9839 23.7203 12.3759C23.7203 8.55194 22.3363 5.05594 20.0563 2.33594H0.904297V26.1839Z" fill="#FEE7B5"/>
<path d="M1.69531 12.4072V31.8232H4.31931L33.2473 15.0312V12.4072H1.69531Z" fill="white"/>
<path d="M4.31836 15.0312V34.4392H6.94236L35.8704 17.6552V15.0312H4.31836Z" fill="#5ED070"/>
<path d="M38.4954 17.6553H6.94336V37.0713H38.4954V17.6553Z" fill="white"/>
<path d="M10.1426 31.4635V23.2555C11.4706 23.2555 12.5426 22.1835 12.5426 20.8555H32.8946C32.8946 22.1835 33.9666 23.2555 35.2946 23.2555V31.4715C33.9666 31.4715 32.8946 32.5435 32.8946 33.8715H12.5426C12.5426 32.5435 11.4706 31.4635 10.1426 31.4635Z" fill="#5ED070"/>
<path d="M22.7204 24.5195C23.3364 24.5195 23.8404 25.0235 23.8404 25.6395C23.8404 25.9675 24.1124 26.2395 24.4404 26.2395C24.7684 26.2395 25.0404 25.9675 25.0404 25.6395C25.0404 24.5675 24.3044 23.6715 23.3204 23.4075V23.0395C23.3204 22.7115 23.0484 22.4395 22.7204 22.4395C22.3924 22.4395 22.1204 22.7115 22.1204 23.0395V23.4155C21.1364 23.6795 20.4004 24.5755 20.4004 25.6475C20.4004 26.9275 21.4404 27.9675 22.7204 27.9675C23.3364 27.9675 23.8404 28.4715 23.8404 29.0875C23.8404 29.7035 23.3364 30.2075 22.7204 30.2075C22.1044 30.2075 21.6004 29.7035 21.6004 29.0875C21.6004 28.7595 21.3284 28.4875 21.0004 28.4875C20.6724 28.4875 20.4004 28.7595 20.4004 29.0875C20.4004 30.1595 21.1364 31.0555 22.1204 31.3195V31.6955C22.1204 32.0235 22.3924 32.2955 22.7204 32.2955C23.0484 32.2955 23.3204 32.0235 23.3204 31.6955V31.3195C24.3044 31.0555 25.0404 30.1595 25.0404 29.0875C25.0404 27.8075 24.0004 26.7675 22.7204 26.7675C22.1044 26.7675 21.6004 26.2635 21.6004 25.6475C21.6004 25.0315 22.1044 24.5195 22.7204 24.5195Z" fill="#505050"/>
<path d="M38.9197 17.2316C38.8077 17.1196 38.6557 17.0556 38.4957 17.0556H36.4717V15.0316C36.4717 14.7036 36.1997 14.4316 35.8717 14.4316H33.8477V12.4076C33.8477 12.0796 33.5757 11.8076 33.2477 11.8076H1.6957C1.3677 11.8076 1.0957 12.0796 1.0957 12.4076V31.8236C1.0957 32.1516 1.3677 32.4236 1.6957 32.4236H3.7197V34.4396C3.7197 34.7676 3.9917 35.0396 4.3197 35.0396H6.3437V37.0636C6.3437 37.2236 6.4077 37.3836 6.5197 37.4956C6.6317 37.5996 6.7837 37.6636 6.9437 37.6636H38.4957C38.6557 37.6636 38.8077 37.6076 38.9197 37.4956C39.0317 37.3756 39.0957 37.2236 39.0957 37.0636V34.4316C39.0957 34.1036 38.8237 33.8316 38.4957 33.8316C38.1597 33.8316 37.8957 34.1036 37.8957 34.4316V36.4716H7.5437V18.2556H35.8717H37.8957V31.2316C37.8957 31.5596 38.1597 31.8316 38.4957 31.8316C38.8237 31.8316 39.0957 31.5596 39.0957 31.2316C39.0957 31.2236 39.0957 31.2236 39.0957 31.2236V17.6556C39.0957 17.4956 39.0317 17.3436 38.9197 17.2316ZM2.2957 31.2236V13.0076H32.6477V14.4316H4.3197C3.9917 14.4316 3.7197 14.7036 3.7197 15.0316V31.2236H2.2957ZM6.9437 17.0556C6.7837 17.0556 6.6317 17.1196 6.5197 17.2316C6.4077 17.3436 6.3437 17.4956 6.3437 17.6556V33.8396H4.9197V15.6316H35.2717V17.0556H6.9437Z" fill="#505050"/>
<path d="M38.4965 33.4314C38.8279 33.4314 39.0965 33.1628 39.0965 32.8314C39.0965 32.5001 38.8279 32.2314 38.4965 32.2314C38.1651 32.2314 37.8965 32.5001 37.8965 32.8314C37.8965 33.1628 38.1651 33.4314 38.4965 33.4314Z" fill="#505050"/>
<path d="M35.295 22.6559C34.303 22.6559 33.495 21.8479 33.495 20.8559C33.495 20.5279 33.223 20.2559 32.895 20.2559H12.543C12.215 20.2559 11.943 20.5279 11.943 20.8559C11.943 21.8479 11.135 22.6559 10.143 22.6559C9.81497 22.6559 9.54297 22.9279 9.54297 23.2559V31.4719C9.54297 31.7999 9.81497 32.0719 10.143 32.0719C11.135 32.0719 11.943 32.8799 11.943 33.8719C11.943 34.1999 12.215 34.4719 12.543 34.4719H32.895C33.223 34.4719 33.495 34.1999 33.495 33.8719C33.495 32.8799 34.303 32.0719 35.295 32.0719C35.623 32.0719 35.895 31.7999 35.895 31.4719V23.2559C35.895 22.9199 35.623 22.6559 35.295 22.6559ZM34.695 30.9279C33.519 31.1679 32.591 32.0959 32.359 33.2639H13.087C12.847 32.0879 11.919 31.1599 10.751 30.9279V23.7919C11.927 23.5519 12.855 22.6239 13.087 21.4559H32.359C32.599 22.6319 33.527 23.5599 34.695 23.7919V30.9279Z" fill="#505050"/>
</svg>
