<svg width="40" height="40" viewBox="0 0 40 40" fill="none" xmlns="http://www.w3.org/2000/svg">
<path d="M12.472 9.59961C7.984 9.59961 3.912 11.3756 0.895996 14.2396V38.0236H24.576C27.48 35.0076 29.272 30.9116 29.272 26.3916C29.272 17.1196 21.752 9.59961 12.472 9.59961Z" fill="#FEE7B5"/>
<path d="M30.352 35.9833C34.8498 35.9833 38.496 32.3371 38.496 27.8393C38.496 23.3415 34.8498 19.6953 30.352 19.6953C25.8542 19.6953 22.208 23.3415 22.208 27.8393C22.208 32.3371 25.8542 35.9833 30.352 35.9833Z" fill="#E9F4BC"/>
<path d="M30.3522 33.5915C27.1842 33.5915 24.6082 31.0155 24.6082 27.8475C24.6082 24.6795 27.1842 22.1035 30.3522 22.1035C33.5202 22.1035 36.0962 24.6795 36.0962 27.8475C36.1042 31.0075 33.5202 33.5915 30.3522 33.5915Z" fill="#FDE4A1"/>
<path d="M19.3477 18.9816V14.1816H16.1477V18.9816H19.3477Z" fill="white"/>
<path d="M31.9841 6.47949H3.2401C2.3921 6.47949 1.7041 7.15949 1.7041 8.01549V12.4315C1.7041 13.1675 2.2241 13.7995 2.9521 13.9435L16.1521 16.4955V14.1835H19.3521V16.4475L32.2801 13.9435C33.0081 13.7995 33.5281 13.1675 33.5281 12.4315V8.01549C33.5201 7.16749 32.8241 6.47949 31.9841 6.47949Z" fill="#9BEAF9"/>
<path d="M32.2722 13.9435L19.3442 16.4475V18.9835H16.1442V16.4955L2.94417 13.9435C2.93617 13.9435 2.92817 13.9355 2.92017 13.9355V27.4395C2.92017 28.2955 3.60817 28.9835 4.46417 28.9835H22.2962C22.2402 28.6075 22.2082 28.2315 22.2082 27.8395C22.2082 23.3435 25.8562 19.6955 30.3522 19.6955C31.0242 19.6955 31.6722 19.7835 32.2962 19.9355V13.9355C32.2882 13.9355 32.2802 13.9435 32.2722 13.9435Z" fill="#FADC00"/>
<path d="M32.896 19.4798V14.3598C33.624 14.0078 34.12 13.2718 34.12 12.4318V8.01577C34.12 7.06377 33.496 6.27177 32.632 5.99177C32.536 5.92777 32.424 5.87977 32.296 5.87977H31.976C31.968 5.87977 31.968 5.87977 31.968 5.87977H24.12V3.36777C24.12 2.59977 23.488 1.96777 22.72 1.96777H12.496C11.728 1.96777 11.096 2.59977 11.096 3.36777V5.87977H3.24C2.064 5.87977 1.104 6.83977 1.104 8.01577V12.4318C1.104 13.2718 1.6 14.0078 2.32 14.3598V27.4398C2.32 28.6238 3.28 29.5838 4.464 29.5838H21.784C22.592 33.5758 26.128 36.5918 30.352 36.5918C35.176 36.5918 39.096 32.6718 39.096 27.8478C39.096 23.9038 36.48 20.5678 32.896 19.4798ZM2.296 8.01577C2.304 7.49577 2.712 7.07977 3.24 7.07977H17.304C17.632 7.07977 17.904 6.80777 17.904 6.47977C17.904 6.15177 17.632 5.87977 17.304 5.87977H12.296V3.36777C12.296 3.25577 12.384 3.16777 12.496 3.16777H22.72C22.832 3.16777 22.92 3.25577 22.92 3.36777V5.87977H20.504C20.176 5.87977 19.904 6.15177 19.904 6.47977C19.904 6.80777 20.176 7.07977 20.504 7.07977H31.984C32.496 7.07977 32.92 7.50377 32.92 8.01577V12.4318C32.92 12.8798 32.6 13.2718 32.16 13.3598H32.152C32.152 13.3598 32.144 13.3598 32.144 13.3678L19.944 15.7278V14.1918C19.944 13.8638 19.672 13.5918 19.344 13.5918H16.144C15.816 13.5918 15.544 13.8638 15.544 14.1918V15.7758L3.088 13.3598C3.072 13.3598 3.064 13.3518 3.048 13.3518C2.608 13.2558 2.296 12.8718 2.296 12.4318V8.01577ZM18.744 14.7838V18.3838H16.744V14.7838H18.744ZM4.464 28.3838C3.944 28.3838 3.52 27.9598 3.52 27.4398V14.6638L15.544 16.9918V18.9758C15.544 19.3038 15.816 19.5758 16.144 19.5758H19.344C19.672 19.5758 19.944 19.3038 19.944 18.9758V16.9358L31.696 14.6558V19.1998C31.256 19.1278 30.808 19.0878 30.352 19.0878C25.528 19.0878 21.608 23.0078 21.608 27.8318C21.608 28.0158 21.624 28.1918 21.632 28.3758H4.464V28.3838ZM30.352 35.3918C26.192 35.3918 22.808 32.0078 22.808 27.8478C22.808 23.6878 26.192 20.3038 30.352 20.3038C34.512 20.3038 37.896 23.6878 37.896 27.8478C37.896 32.0078 34.512 35.3918 30.352 35.3918Z" fill="#505050"/>
<path d="M30.3521 21.4961C26.8561 21.4961 24.0081 24.3441 24.0081 27.8401C24.0081 31.3361 26.8561 34.1841 30.3521 34.1841C33.8481 34.1841 36.6961 31.3361 36.6961 27.8401C36.6961 24.3441 33.8561 21.4961 30.3521 21.4961ZM30.3521 32.9921C27.5121 32.9921 25.2081 30.6801 25.2081 27.8481C25.2081 25.0081 27.5121 22.7041 30.3521 22.7041C33.1921 22.7041 35.4961 25.0161 35.4961 27.8481C35.4961 30.6801 33.1921 32.9921 30.3521 32.9921Z" fill="#505050"/>
<path d="M30.352 25.2873C30.888 25.2873 31.328 25.7273 31.328 26.2633C31.328 26.5913 31.6 26.8633 31.928 26.8633C32.256 26.8633 32.528 26.5913 32.528 26.2633C32.528 25.2713 31.856 24.4393 30.952 24.1833V23.8793C30.952 23.5513 30.68 23.2793 30.352 23.2793C30.024 23.2793 29.752 23.5513 29.752 23.8793V24.1833C28.848 24.4473 28.176 25.2713 28.176 26.2633C28.176 27.4633 29.152 28.4393 30.352 28.4393C30.888 28.4393 31.328 28.8793 31.328 29.4153C31.328 29.9513 30.896 30.3993 30.352 30.3993C29.808 30.3993 29.376 29.9593 29.376 29.4233C29.376 29.0953 29.104 28.8233 28.776 28.8233C28.448 28.8233 28.176 29.0953 28.176 29.4233C28.176 30.4153 28.848 31.2473 29.752 31.5033V31.8073C29.752 32.1353 30.024 32.4073 30.352 32.4073C30.68 32.4073 30.952 32.1353 30.952 31.8073V31.5033C31.856 31.2393 32.528 30.4153 32.528 29.4233C32.528 28.2233 31.552 27.2473 30.352 27.2473C29.816 27.2473 29.376 26.8073 29.376 26.2713C29.376 25.7353 29.816 25.2873 30.352 25.2873Z" fill="#505050"/>
<path d="M18.904 7.07988C19.2353 7.07988 19.504 6.81125 19.504 6.47988C19.504 6.14851 19.2353 5.87988 18.904 5.87988C18.5726 5.87988 18.304 6.14851 18.304 6.47988C18.304 6.81125 18.5726 7.07988 18.904 7.07988Z" fill="#505050"/>
</svg>
