<svg width="40" height="40" viewBox="0 0 40 40" fill="none" xmlns="http://www.w3.org/2000/svg">
<g clip-path="url(#clip0_762_3761)">
<path d="M0.960938 16.6885C3.63294 18.7685 6.98494 20.0245 10.6329 20.0245C19.3289 20.0245 26.3769 12.9765 26.3769 4.28048C26.3769 3.12048 26.2409 1.98448 26.0009 0.896484H0.960938V16.6885Z" fill="#FEE7B5"/>
<path d="M12.0566 13.6484C17.8092 13.6484 22.4726 11.3167 22.4726 8.44042C22.4726 5.56412 17.8092 3.23242 12.0566 3.23242C6.30403 3.23242 1.64062 5.56412 1.64062 8.44042C1.64062 11.3167 6.30403 13.6484 12.0566 13.6484Z" fill="#FADC00"/>
<path d="M22.4726 8.43262C22.4726 8.44062 22.4726 8.44062 22.4726 8.43262C22.4726 11.3126 17.8086 13.6406 12.0566 13.6406C6.30462 13.6406 1.64062 11.3126 1.64062 8.44062V13.6486C1.64062 16.5286 6.30462 18.8566 12.0566 18.8566C17.8086 18.8566 22.4726 16.5286 22.4726 13.6486V8.43262Z" fill="white"/>
<path d="M12.0566 18.8486C6.30462 18.8486 1.64062 16.5206 1.64062 13.6406V18.8486C1.64062 21.7286 6.30462 24.0566 12.0566 24.0566C17.8086 24.0566 22.4726 21.7286 22.4726 18.8486V13.6406C22.4726 16.5206 17.8086 18.8486 12.0566 18.8486Z" fill="#FADC00"/>
<path d="M12.0566 24.0566C6.30462 24.0566 1.64062 21.7286 1.64062 18.8486V24.0566C1.64062 26.9366 6.30462 29.2646 12.0566 29.2646C17.8086 29.2646 22.4726 26.9366 22.4726 24.0566V18.8486C22.4726 21.7286 17.8086 24.0566 12.0566 24.0566Z" fill="white"/>
<path d="M12.0566 29.2725C6.30462 29.2725 1.64062 26.9445 1.64062 24.0645V29.2725C1.64062 32.1525 6.30462 34.4805 12.0566 34.4805C17.8086 34.4805 22.4726 32.1525 22.4726 29.2725V24.0645C22.4726 26.9365 17.8086 29.2725 12.0566 29.2725Z" fill="#FADC00"/>
<path d="M28.0254 38.5049C33.778 38.5049 38.4414 33.8414 38.4414 28.0889C38.4414 22.3363 33.778 17.6729 28.0254 17.6729C22.2728 17.6729 17.6094 22.3363 17.6094 28.0889C17.6094 33.8414 22.2728 38.5049 28.0254 38.5049Z" fill="#FDE4A1"/>
<path d="M28.0238 36.1041C23.6078 36.1041 20.0078 32.5121 20.0078 28.0881C20.0078 23.6641 23.6078 20.0801 28.0238 20.0801C32.4398 20.0801 36.0398 23.6721 36.0398 28.0961C36.0398 32.5201 32.4478 36.1041 28.0238 36.1041Z" fill="#5ED070"/>
<path d="M33.4576 19.9132C33.5536 19.9772 33.6736 20.0172 33.7936 20.0172C33.9936 20.0172 34.1776 19.9132 34.2896 19.7452C34.4736 19.4732 34.4016 19.0972 34.1216 18.9132C33.8576 18.7372 33.4656 18.8172 33.2896 19.0812C33.2016 19.2172 33.1696 19.3772 33.2016 19.5372C33.2336 19.6892 33.3216 19.8252 33.4576 19.9132Z" fill="#505050"/>
<path d="M35.457 19.9608C35.217 19.7368 34.825 19.7608 34.601 19.9928C34.497 20.1128 34.441 20.2648 34.449 20.4248C34.457 20.5848 34.529 20.7368 34.641 20.8408C34.649 20.8488 34.649 20.8488 34.657 20.8488C36.681 22.7048 37.841 25.3448 37.841 28.0888C37.833 33.4968 33.433 37.8968 28.033 37.9048C22.625 37.8968 18.225 33.4968 18.217 28.0888C18.225 22.6888 22.625 18.2888 28.033 18.2808C29.465 18.2808 30.849 18.5768 32.145 19.1768C32.441 19.3128 32.809 19.1768 32.945 18.8888C33.081 18.5848 32.945 18.2248 32.649 18.0888C31.193 17.4168 29.641 17.0808 28.033 17.0808C26.249 17.0808 24.569 17.5128 23.073 18.2728V13.6488V8.44081C23.073 8.43281 23.073 8.43281 23.073 8.42481C23.057 5.17681 18.225 2.63281 12.057 2.63281C5.89702 2.63281 1.07302 5.16881 1.04902 8.41681C1.04902 8.42481 1.04102 8.43281 1.04102 8.44081V29.2728C1.04102 32.5288 5.88102 35.0808 12.057 35.0808C14.457 35.0808 16.793 34.6728 18.705 33.9288C20.657 37.0328 24.105 39.1128 28.033 39.1128C34.105 39.1128 39.041 34.1768 39.041 28.0968C39.041 25.0008 37.729 22.0408 35.457 19.9608ZM2.24102 11.1048C4.04102 12.9848 7.71302 14.2488 12.057 14.2488C16.401 14.2488 20.065 12.9848 21.873 11.1048V13.6488C21.873 16.1448 17.377 18.2568 12.057 18.2568C6.73702 18.2568 2.24102 16.1448 2.24102 13.6488V11.1048ZM12.057 3.83281C17.377 3.83281 21.873 5.94481 21.873 8.44081C21.873 10.9368 17.377 13.0488 12.057 13.0488C6.73702 13.0488 2.24102 10.9368 2.24102 8.44081C2.24102 5.94481 6.73702 3.83281 12.057 3.83281ZM12.057 19.4488C16.401 19.4488 20.065 18.1848 21.873 16.3048V18.8488C21.873 18.8808 21.889 18.9128 21.897 18.9528C20.641 19.8008 19.569 20.9048 18.753 22.1848C16.921 23.0088 14.553 23.4568 12.065 23.4568C6.74502 23.4568 2.24902 21.3448 2.24902 18.8488V16.3048C4.04902 18.1928 7.71302 19.4488 12.057 19.4488ZM12.057 24.6568C14.145 24.6568 16.153 24.3528 17.889 23.7928C17.337 25.0888 17.033 26.5048 17.017 28.0008C15.521 28.4328 13.825 28.6648 12.057 28.6648C6.73702 28.6648 2.24102 26.5528 2.24102 24.0568V21.5208C4.04902 23.4008 7.71302 24.6568 12.057 24.6568ZM12.057 33.8728C6.73702 33.8728 2.24102 31.7608 2.24102 29.2648V26.7208C4.04902 28.6008 7.71302 29.8648 12.057 29.8648C13.825 29.8648 15.537 29.6408 17.073 29.2248C17.209 30.5208 17.577 31.7368 18.113 32.8568C16.369 33.5208 14.249 33.8728 12.057 33.8728Z" fill="#505050"/>
<path d="M28.0242 19.4805C23.2722 19.4805 19.4082 23.3445 19.4082 28.0965C19.4082 32.8485 23.2722 36.7125 28.0242 36.7125C32.7762 36.7125 36.6402 32.8405 36.6402 28.0885C36.6402 23.3365 32.7762 19.4805 28.0242 19.4805ZM28.0242 35.5045C23.9362 35.5045 20.6082 32.1765 20.6082 28.0885C20.6082 24.0005 23.9362 20.6725 28.0242 20.6725C32.1122 20.6725 35.4402 24.0005 35.4402 28.0885C35.4402 32.1765 32.1122 35.5045 28.0242 35.5045Z" fill="#505050"/>
<path d="M28.0241 25.1772C28.6641 25.1772 29.1841 25.6972 29.1841 26.3372C29.1841 26.6652 29.4561 26.9372 29.7841 26.9372C30.1121 26.9372 30.3841 26.6652 30.3841 26.3372C30.3841 25.2492 29.6321 24.3372 28.6241 24.0652V23.6732C28.6241 23.3452 28.3521 23.0732 28.0241 23.0732C27.6961 23.0732 27.4241 23.3452 27.4241 23.6732V24.0652C26.4161 24.3292 25.6641 25.2412 25.6641 26.3372C25.6641 27.6412 26.7201 28.6972 28.0241 28.6972C28.6641 28.6972 29.1841 29.2172 29.1841 29.8572C29.1841 30.4972 28.6641 31.0172 28.0241 31.0172C27.3841 31.0172 26.8641 30.4972 26.8641 29.8572C26.8641 29.5292 26.5921 29.2572 26.2641 29.2572C25.9361 29.2572 25.6641 29.5292 25.6641 29.8572C25.6641 30.9452 26.4161 31.8572 27.4241 32.1292V32.5212C27.4241 32.8492 27.6961 33.1212 28.0241 33.1212C28.3521 33.1212 28.6241 32.8492 28.6241 32.5212V32.1292C29.6321 31.8652 30.3841 30.9532 30.3841 29.8572C30.3841 28.5532 29.3281 27.4972 28.0241 27.4972C27.3841 27.4972 26.8641 26.9772 26.8641 26.3372C26.8641 25.6972 27.3841 25.1772 28.0241 25.1772Z" fill="#505050"/>
</g>
<defs>
<clipPath id="clip0_762_3761">
<rect width="40" height="40" fill="white"/>
</clipPath>
</defs>
</svg>
