<svg width="40" height="40" viewBox="0 0 40 40" fill="none" xmlns="http://www.w3.org/2000/svg">
<path d="M39.1051 15.2C37.4731 14.672 35.7291 14.376 33.9211 14.376C24.6411 14.376 17.1211 21.896 17.1211 31.176C17.1211 33.632 17.6571 35.96 18.6091 38.064H39.1051V15.2Z" fill="#FEE7B5"/>
<path d="M33.3922 2.53613H6.40822C5.53622 2.53613 4.82422 3.24813 4.82422 4.12013V22.9041H34.9682V4.12013C34.9682 3.25613 34.2642 2.53613 33.3922 2.53613Z" fill="#9BEAF9"/>
<path d="M38.3039 27.9601H1.50391L4.83191 22.9121H34.9679L38.3039 27.9601Z" fill="#FADC00"/>
<path d="M38.3039 27.96H1.50391V31.16H38.3039V27.96Z" fill="#CDF6FC"/>
<path d="M12.7831 17.2637H10.2871V20.9117H12.7831V17.2637Z" fill="white"/>
<path d="M17.8886 14.8877H15.3926V20.9117H17.8886V14.8877Z" fill="#E9F4BC"/>
<path d="M22.9921 11.7363H20.4961V20.9123H22.9921V11.7363Z" fill="white"/>
<path d="M28.6874 8.16016H26.1914V20.9122H28.6874V8.16016Z" fill="#E9F4BC"/>
<path d="M4.83242 16.0564C5.16379 16.0564 5.43242 15.7878 5.43242 15.4564C5.43242 15.1251 5.16379 14.8564 4.83242 14.8564C4.50105 14.8564 4.23242 15.1251 4.23242 15.4564C4.23242 15.7878 4.50105 16.0564 4.83242 16.0564Z" fill="#505050"/>
<path d="M38.8963 27.9443C38.8963 27.9283 38.8883 27.9123 38.8883 27.8963C38.8803 27.8163 38.8563 27.7363 38.8163 27.6723C38.8083 27.6643 38.8083 27.6483 38.8003 27.6323L35.5683 22.7283V6.94434C35.5763 6.92834 35.5763 6.91234 35.5763 6.90434C35.5763 6.89634 35.5763 6.89634 35.5683 6.88834V4.12034C35.5683 2.92034 34.5923 1.94434 33.3923 1.94434H6.4163C5.2083 1.94434 4.2323 2.92034 4.2323 4.12034V13.8563C4.2323 14.1923 4.5043 14.4563 4.8323 14.4563C5.1603 14.4563 5.4323 14.1923 5.4323 13.8563V4.12034C5.4323 3.58434 5.8723 3.14434 6.4163 3.13634H33.3923C33.9283 3.14434 34.3683 3.58434 34.3683 4.12034V6.90434C34.3683 6.92034 34.3763 6.92834 34.3763 6.94434L34.3683 22.3123H5.4323V17.0563C5.4323 16.7283 5.1603 16.4563 4.8323 16.4563C4.5043 16.4563 4.2403 16.7203 4.2323 17.0483V17.0563V22.7283L1.0003 27.6323C0.992297 27.6403 0.992297 27.6563 0.984297 27.6723C0.944297 27.7443 0.920297 27.8163 0.912297 27.8963C0.912297 27.9123 0.904297 27.9283 0.904297 27.9443C0.904297 27.9523 0.904297 27.9523 0.904297 27.9603V31.1603C0.904297 31.4883 1.1763 31.7603 1.5043 31.7603H38.3043C38.6323 31.7603 38.9043 31.4883 38.9043 31.1603V27.9603C38.9043 27.9523 38.8963 27.9523 38.8963 27.9443ZM5.1523 23.5123H34.6483L37.1843 27.3603H2.6163L5.1523 23.5123ZM37.7043 30.5603H2.1043V28.5603H37.7043V30.5603Z" fill="#505050"/>
<path d="M9.6875 17.2641V20.9121C9.6875 21.2401 9.9595 21.5121 10.2875 21.5121H12.7835C13.1115 21.5121 13.3835 21.2401 13.3835 20.9121V17.2641C13.3835 16.9361 13.1115 16.6641 12.7835 16.6641H10.2875C9.9595 16.6641 9.6875 16.9361 9.6875 17.2641ZM10.8875 17.8641H12.1835V20.3121H10.8875V17.8641Z" fill="#505050"/>
<path d="M15.393 14.2881C15.065 14.2881 14.793 14.5601 14.793 14.8881V20.9121C14.793 21.2401 15.065 21.5121 15.393 21.5121H17.889C18.217 21.5121 18.489 21.2401 18.489 20.9121V14.8881C18.489 14.5601 18.217 14.2881 17.889 14.2881H15.393ZM17.289 20.3121H15.993V15.4881H17.289V20.3121Z" fill="#505050"/>
<path d="M20.4965 11.1367C20.1685 11.1367 19.8965 11.4087 19.8965 11.7367V20.9127C19.8965 21.2407 20.1685 21.5127 20.4965 21.5127H22.9925C23.3205 21.5127 23.5925 21.2407 23.5925 20.9127V11.7367C23.5925 11.4087 23.3205 11.1367 22.9925 11.1367H20.4965ZM22.3925 20.3127H21.0965V12.3367H22.3925V20.3127Z" fill="#505050"/>
<path d="M28.6878 21.5125C29.0158 21.5125 29.2878 21.2405 29.2878 20.9125V8.16055C29.2878 7.83255 29.0158 7.56055 28.6878 7.56055H26.1918C25.8638 7.56055 25.5918 7.83255 25.5918 8.16055V20.9125C25.5918 21.2405 25.8638 21.5125 26.1918 21.5125H28.6878ZM26.7918 8.76055H28.0878V20.3125H26.7918V8.76055Z" fill="#505050"/>
<path d="M11.897 14.1365C12.017 14.2965 12.201 14.3845 12.385 14.3845C12.505 14.3845 12.633 14.3445 12.737 14.2645L22.073 7.43254L21.921 8.40054C21.873 8.72854 22.097 9.03254 22.425 9.08854C22.457 9.09654 22.489 9.09654 22.521 9.09654C22.809 9.09654 23.065 8.88854 23.113 8.58454L23.481 6.18454C23.529 5.85654 23.305 5.55254 22.977 5.49654L20.577 5.12854C20.257 5.08054 19.945 5.30454 19.889 5.63254C19.841 5.96054 20.065 6.26454 20.393 6.32054L21.361 6.47254L12.025 13.3045C11.753 13.4965 11.697 13.8645 11.897 14.1365Z" fill="#505050"/>
</svg>
