<svg width="40" height="40" viewBox="0 0 40 40" fill="none" xmlns="http://www.w3.org/2000/svg">
<path d="M31.8241 35.1043C31.8241 27.4163 25.7121 20.9843 18.0241 20.9043C17.9681 20.9043 17.9041 20.9043 17.8481 20.9043C8.56809 20.9043 1.0481 28.4243 1.0481 37.7043C1.0481 38.1763 1.0801 38.6403 1.1201 39.1043H31.8241V35.1043Z" fill="#FEE7B5"/>
<path d="M9.49614 28.0967H4.74414V32.8487H9.49614V28.0967Z" fill="black"/>
<path d="M20.5363 5.08105H26.4403V38.3051H2.14429V5.08105H8.04829" fill="white"/>
<path d="M20.8002 6.58488H7.78418L8.40818 3.08088H12.7202C12.7202 2.20088 13.4322 1.50488 14.2962 1.50488C15.1682 1.50488 15.8722 2.20888 15.8722 3.08088H20.1842L20.8002 6.58488Z" fill="#C6C6C6"/>
<path d="M9.49614 11.6562H4.74414V16.4083H9.49614V11.6562Z" fill="#9BEAF9"/>
<path d="M9.49614 19.8809H4.74414V24.6329H9.49614V19.8809Z" fill="#9BEAF9"/>
<path d="M9.49614 28.0967H4.74414V32.8487H9.49614V28.0967Z" fill="#9BEAF9"/>
<path d="M30.4883 8.30497V28.977L33.0003 34.009L35.5123 28.977V8.30497C35.5123 6.92097 34.3843 5.79297 33.0003 5.79297C31.6083 5.79297 30.4883 6.92097 30.4883 8.30497Z" fill="#FF9D9C"/>
<path d="M30.4883 28.8164V28.9764L33.0003 34.0084L35.5123 28.9764V28.8164H30.4883Z" fill="white"/>
<path d="M4.1521 32.8481C4.1521 33.1761 4.4241 33.4481 4.7521 33.4481H9.5041C9.8321 33.4481 10.1041 33.1761 10.1041 32.8481V28.0961C10.1041 27.7681 9.8321 27.4961 9.5041 27.4961H4.7521C4.4241 27.4961 4.1521 27.7681 4.1521 28.0961V32.8481ZM5.3521 28.6961H8.9041V32.2481H5.3521V28.6961Z" fill="#505050"/>
<path d="M23.6401 28.7924C23.6401 28.4644 23.3681 28.1924 23.0401 28.1924H12.2721C11.9441 28.1924 11.6721 28.4644 11.6721 28.7924C11.6721 29.1204 11.9441 29.3924 12.2721 29.3924H23.0401C23.3761 29.3924 23.6401 29.1204 23.6401 28.7924Z" fill="#505050"/>
<path d="M12.2721 30.8643C11.9441 30.8643 11.6721 31.1363 11.6721 31.4643C11.6721 31.7923 11.9441 32.0643 12.2721 32.0643H16.9121C17.2401 32.0643 17.5121 31.7923 17.5121 31.4643C17.5121 31.1363 17.2401 30.8643 16.9121 30.8643H12.2721Z" fill="#505050"/>
<path d="M26.4481 35.7684C26.7795 35.7684 27.0481 35.4997 27.0481 35.1684C27.0481 34.837 26.7795 34.5684 26.4481 34.5684C26.1168 34.5684 25.8481 34.837 25.8481 35.1684C25.8481 35.4997 26.1168 35.7684 26.4481 35.7684Z" fill="#505050"/>
<path d="M26.4482 4.48048H21.0482L20.7762 2.96848C20.7202 2.68848 20.4722 2.47248 20.1842 2.47248H16.3922C16.1282 1.54448 15.2642 0.896484 14.2962 0.896484C13.3202 0.896484 12.4642 1.54448 12.2002 2.47248H8.40819C8.11219 2.47248 7.86419 2.68848 7.81619 2.96848L7.54419 4.48048H2.14419C1.98419 4.48048 1.83219 4.54448 1.72019 4.65648C1.60819 4.76848 1.54419 4.92048 1.54419 5.08048V38.2965C1.54419 38.4565 1.60819 38.6085 1.72019 38.7205C1.83219 38.8325 1.98419 38.8965 2.14419 38.8965H26.4482C26.6082 38.8965 26.7602 38.8325 26.8722 38.7205C26.9842 38.6085 27.0482 38.4565 27.0482 38.2965V36.7685C27.0482 36.4405 26.7762 36.1685 26.4482 36.1685C26.1122 36.1685 25.8482 36.4405 25.8482 36.7685V37.6965H2.74419V5.68048H7.33619L7.19219 6.47248C7.16019 6.64848 7.20819 6.82448 7.32819 6.96048C7.44019 7.09648 7.60819 7.17648 7.78419 7.17648H20.8082C20.9842 7.17648 21.1522 7.09648 21.2642 6.96048C21.3762 6.82448 21.4242 6.64848 21.4002 6.47248L21.2562 5.68048H25.8482V33.5685C25.8482 33.9045 26.1122 34.1685 26.4482 34.1685C26.7762 34.1685 27.0482 33.9045 27.0482 33.5685V5.08048C27.0482 4.92048 26.9842 4.76848 26.8722 4.65648C26.7522 4.54448 26.6082 4.48048 26.4482 4.48048ZM8.49619 5.97648L8.91219 3.67248H12.7122C12.8802 3.67248 13.0242 3.61648 13.1362 3.49648C13.2562 3.38448 13.3122 3.24048 13.3122 3.07248C13.3122 2.53648 13.7522 2.09648 14.2962 2.09648C14.8322 2.09648 15.2722 2.53648 15.2722 3.07248C15.2722 3.23248 15.3362 3.39248 15.4482 3.49648C15.5602 3.60848 15.7122 3.67248 15.8722 3.67248H19.6802L20.0882 5.97648H8.49619Z" fill="#505050"/>
<path d="M4.7521 17.0008H9.4961C9.6561 17.0008 9.8081 16.9368 9.9201 16.8248C10.0321 16.7128 10.0961 16.5608 10.0961 16.4008V11.6488C10.0961 11.4888 10.0321 11.3368 9.9201 11.2248C9.8081 11.1128 9.6561 11.0488 9.4961 11.0488H4.7521C4.5921 11.0488 4.4401 11.1128 4.3281 11.2248C4.2161 11.3368 4.1521 11.4888 4.1521 11.6488V16.4008C4.1521 16.5528 4.2161 16.7128 4.3281 16.8248C4.4401 16.9368 4.5921 17.0008 4.7521 17.0008ZM5.3441 12.2488H8.8961V15.8008H5.3441V12.2488Z" fill="#505050"/>
<path d="M12.2721 12.9441H23.0401C23.3761 12.9441 23.6401 12.6721 23.6401 12.3441C23.6401 12.0081 23.3761 11.7441 23.0401 11.7441H12.2721C11.9441 11.7441 11.6721 12.0081 11.6721 12.3441C11.6721 12.6721 11.9441 12.9441 12.2721 12.9441Z" fill="#505050"/>
<path d="M12.2721 15.616H16.9201C17.2481 15.616 17.5201 15.344 17.5201 15.016C17.5201 14.68 17.2481 14.416 16.9201 14.416H12.2721C11.9441 14.416 11.6721 14.68 11.6721 15.016C11.6721 15.344 11.9441 15.616 12.2721 15.616Z" fill="#505050"/>
<path d="M4.1521 24.6245C4.1521 24.7845 4.2161 24.9365 4.3281 25.0485C4.4321 25.1605 4.5921 25.2245 4.7521 25.2245H9.4961C9.6561 25.2245 9.8081 25.1605 9.9201 25.0485C10.0321 24.9365 10.0961 24.7845 10.0961 24.6245V19.8725C10.0961 19.7125 10.0321 19.5605 9.9201 19.4485C9.8081 19.3365 9.6561 19.2725 9.4961 19.2725H4.7521C4.5921 19.2725 4.4321 19.3365 4.3281 19.4485C4.2161 19.5605 4.1521 19.7125 4.1521 19.8725V24.6245ZM5.3441 20.4725H8.8961V24.0245H5.3441V20.4725Z" fill="#505050"/>
<path d="M12.2721 21.1688H23.0401C23.3761 21.1688 23.6401 20.8968 23.6401 20.5688C23.6401 20.2328 23.3761 19.9688 23.0401 19.9688H12.2721C11.9441 19.9688 11.6721 20.2328 11.6721 20.5688C11.6721 20.8968 11.9441 21.1688 12.2721 21.1688Z" fill="#505050"/>
<path d="M12.2721 23.8406H16.9201C17.2481 23.8406 17.5201 23.5686 17.5201 23.2406C17.5201 22.9046 17.2481 22.6406 16.9201 22.6406H12.2721C11.9441 22.6406 11.6721 22.9046 11.6721 23.2406C11.6721 23.5686 11.9441 23.8406 12.2721 23.8406Z" fill="#505050"/>
<path d="M35.5121 25.4969C35.8435 25.4969 36.1121 25.2282 36.1121 24.8969C36.1121 24.5655 35.8435 24.2969 35.5121 24.2969C35.1807 24.2969 34.9121 24.5655 34.9121 24.8969C34.9121 25.2282 35.1807 25.4969 35.5121 25.4969Z" fill="#505050"/>
<path d="M38.7762 10.2244C38.6642 10.1124 38.5122 10.0484 38.3522 10.0484H36.1122V8.30438C36.1122 6.58438 34.7202 5.19238 33.0002 5.19238C31.2882 5.19238 29.8882 6.58438 29.8882 8.30438V28.9844L29.8962 29.0244C29.9042 29.0964 29.9202 29.1684 29.9442 29.2324V29.2484L32.4562 34.2804C32.5602 34.4884 32.7682 34.6084 32.9922 34.6084C33.2242 34.6084 33.4322 34.4884 33.5282 34.2804L36.0482 29.2404V29.2244C36.0802 29.1524 36.1042 29.0724 36.1042 28.9844V26.5044C36.1042 26.1684 35.8402 25.9044 35.5042 25.9044C35.1762 25.9044 34.9042 26.1684 34.9042 26.5044V28.3844H31.0802V11.2484H34.9042V23.2964C34.9042 23.6244 35.1762 23.8964 35.5042 23.8964C35.8402 23.8964 36.1042 23.6244 36.1042 23.2964V11.2484H37.7442V20.4404C37.7442 20.7764 38.0162 21.0404 38.3442 21.0404C38.6722 21.0404 38.9442 20.7764 38.9442 20.4404V10.6484C38.9522 10.4884 38.8882 10.3364 38.7762 10.2244ZM33.0002 32.6644L31.4562 29.5764H34.5362L33.0002 32.6644ZM31.0882 10.0484V8.30438C31.0962 7.24838 31.9522 6.39238 33.0002 6.39238C34.0562 6.39238 34.9122 7.24838 34.9122 8.30438V10.0484H31.0882Z" fill="#505050"/>
</svg>
