<svg width="24" height="24" viewBox="0 0 24 24" fill="none" xmlns="http://www.w3.org/2000/svg">
<path d="M4 12.0123C4 11.7471 4.10532 11.4928 4.29279 11.3053L9.29279 6.30529C9.38503 6.20978 9.49538 6.1336 9.61738 6.08119C9.73939 6.02878 9.87061 6.00119 10.0034 6.00004C10.1362 5.99888 10.2678 6.02418 10.3907 6.07447C10.5136 6.12475 10.6253 6.199 10.7192 6.29289C10.8131 6.38679 10.8873 6.49844 10.9376 6.62133C10.9879 6.74423 11.0132 6.87591 11.012 7.00869C11.0109 7.14147 10.9833 7.27269 10.9309 7.39469C10.8785 7.5167 10.8023 7.62704 10.7068 7.71929L7.41379 11.0123L19.9998 11.0123C20.265 11.0123 20.5194 11.1176 20.7069 11.3052C20.8944 11.4927 20.9998 11.7471 20.9998 12.0123C20.9998 12.2775 20.8944 12.5319 20.7069 12.7194C20.5194 12.9069 20.265 13.0123 19.9998 13.0123L7.41379 13.0123L10.7068 16.3053C10.8889 16.4939 10.9897 16.7465 10.9875 17.0087C10.9852 17.2709 10.88 17.5217 10.6946 17.7071C10.5092 17.8925 10.2584 17.9977 9.99619 18C9.73399 18.0022 9.48139 17.9014 9.29279 17.7193L4.29279 12.7193C4.10532 12.5318 4 12.2775 4 12.0123Z" fill="#212121"/>
</svg>
