<svg width="24" height="24" viewBox="0 0 24 24" fill="none" xmlns="http://www.w3.org/2000/svg">
<path d="M10.4996 3C11.8976 2.99994 13.2678 3.39061 14.4555 4.12792C15.6432 4.86523 16.6012 5.91983 17.2214 7.1727C17.8416 8.42558 18.0993 9.82686 17.9654 11.2184C17.8315 12.61 17.3113 13.9364 16.4636 15.048L21.2066 19.793C21.386 19.973 21.4901 20.2144 21.4978 20.4684C21.5056 20.7223 21.4164 20.9697 21.2484 21.1603C21.0803 21.3508 20.8461 21.4703 20.5931 21.4944C20.3402 21.5185 20.0876 21.4454 19.8866 21.29L19.7926 21.207L15.0476 16.464C14.1006 17.1861 12.9953 17.6723 11.823 17.8824C10.6508 18.0925 9.44543 18.0204 8.30661 17.6721C7.16778 17.3238 6.12826 16.7094 5.27406 15.8795C4.41986 15.0497 3.77555 14.0285 3.39443 12.9002C3.01332 11.7719 2.90636 10.5691 3.0824 9.39131C3.25844 8.2135 3.71243 7.09454 4.4068 6.12703C5.10117 5.15951 6.01595 4.37126 7.07545 3.82749C8.13495 3.28372 9.30871 3.00006 10.4996 3V3ZM10.4996 5C9.04091 5 7.64197 5.57946 6.61052 6.61091C5.57907 7.64236 4.99961 9.04131 4.99961 10.5C4.99961 11.9587 5.57907 13.3576 6.61052 14.3891C7.64197 15.4205 9.04091 16 10.4996 16C11.9583 16 13.3572 15.4205 14.3887 14.3891C15.4201 13.3576 15.9996 11.9587 15.9996 10.5C15.9996 9.04131 15.4201 7.64236 14.3887 6.61091C13.3572 5.57946 11.9583 5 10.4996 5Z" fill="#939393"/>
</svg>
