<svg width="40" height="40" viewBox="0 0 40 40" fill="none" xmlns="http://www.w3.org/2000/svg">
<path d="M39.1034 22.688C36.7834 20.88 33.8714 19.792 30.7034 19.792C23.1514 19.792 17.0234 25.92 17.0234 33.472C17.0234 34.48 17.1434 35.464 17.3514 36.416H39.1034V22.688Z" fill="#FEE7B5"/>
<path d="M11.7441 14.3754H1.49609V4.19141H38.2961V14.3754H28.0401" fill="#5ED070"/>
<path d="M28.0403 11.0875H35.6243V7.47949H28.0403H24.0723H15.7043H11.7443H4.15234V11.0875H11.7443" fill="white"/>
<path d="M28.0403 7.47949V28.3275C28.0403 29.3755 27.1923 30.2155 26.1443 30.2155H13.6323C12.5843 30.2155 11.7363 29.3675 11.7363 28.3275V7.47949H28.0403Z" fill="#E9F4BC"/>
<path d="M14.2637 7.47949V25.8075C15.3117 25.8075 16.1597 26.6635 16.1597 27.6955H23.6237C23.6237 26.6555 24.4717 25.8075 25.5197 25.8075V7.47949H14.2637Z" fill="#FDE4A1"/>
<path d="M11.4555 4.7918C11.7868 4.7918 12.0555 4.52317 12.0555 4.1918C12.0555 3.86043 11.7868 3.5918 11.4555 3.5918C11.1241 3.5918 10.8555 3.86043 10.8555 4.1918C10.8555 4.52317 11.1241 4.7918 11.4555 4.7918Z" fill="#505050"/>
<path d="M38.7203 3.7678C38.6003 3.6558 38.4563 3.5918 38.2963 3.5918H13.0563C12.7283 3.5918 12.4563 3.8638 12.4563 4.1918C12.4563 4.5198 12.7283 4.7918 13.0563 4.7918H37.6963V13.7758H28.6483V11.6878H35.6323C35.9603 11.6878 36.2323 11.4158 36.2323 11.0878V7.4878C36.2323 7.1598 35.9603 6.8878 35.6323 6.8878H4.1603C3.8323 6.8878 3.5603 7.1598 3.5603 7.4878V11.0878C3.5603 11.4158 3.8323 11.6878 4.1603 11.6878H11.1443V13.7758H2.1043V4.7918H9.8643C10.2003 4.7918 10.4643 4.5198 10.4643 4.1918C10.4643 3.8638 10.2003 3.5918 9.8643 3.5918H1.5043C1.3443 3.5918 1.1923 3.6558 1.0803 3.7678C0.960297 3.8798 0.904297 4.0318 0.904297 4.1918V14.3758C0.904297 14.5358 0.968297 14.6878 1.0803 14.7998C1.1923 14.9118 1.3443 14.9758 1.5043 14.9758H11.1523V28.3358C11.1523 29.7118 12.2723 30.8238 13.6483 30.8238H26.1603C27.5363 30.8238 28.6563 29.7038 28.6563 28.3358V14.9758H38.3123C38.4723 14.9758 38.6163 14.9198 38.7363 14.7998C38.8483 14.6878 38.9123 14.5358 38.9123 14.3758V4.1918C38.9043 4.0318 38.8323 3.8798 38.7203 3.7678ZM35.0323 10.4878H28.6483V8.0878H35.0323V10.4878ZM24.9203 8.0798V25.2798C24.0243 25.5038 23.3203 26.2078 23.1043 27.0958H16.6963C16.4723 26.1998 15.7683 25.4958 14.8723 25.2798V8.0798H24.9203ZM4.7603 10.4878V8.0878H11.1443V10.4878H4.7603ZM26.1523 29.6238H13.6403C12.9283 29.6238 12.3443 29.0478 12.3443 28.3358V8.0798H13.6643V25.8078C13.6643 26.1358 13.9363 26.4078 14.2643 26.4078C14.9843 26.4078 15.5603 26.9838 15.5603 27.7038C15.5603 28.0318 15.8323 28.3038 16.1603 28.3038H23.6243C23.9523 28.3038 24.2243 28.0318 24.2243 27.7038C24.2243 26.9918 24.8003 26.4078 25.5203 26.4078C25.8483 26.4078 26.1203 26.1358 26.1203 25.8078V8.0798H27.4483V28.3278C27.4483 29.0478 26.8643 29.6238 26.1523 29.6238Z" fill="#505050"/>
<path d="M16.2641 17.5755H16.5121C16.7681 18.4075 17.5361 19.0155 18.4561 19.0155C19.5841 19.0155 20.4961 18.0955 20.4961 16.9755C20.4961 16.5115 20.8721 16.1355 21.3361 16.1355C21.8001 16.1355 22.1761 16.5115 22.1761 16.9755C22.1761 17.4395 21.8001 17.8155 21.3361 17.8155C21.0081 17.8155 20.7361 18.0875 20.7361 18.4155C20.7361 18.7435 21.0081 19.0155 21.3361 19.0155C22.2561 19.0155 23.0241 18.4075 23.2801 17.5755H23.5201C23.8481 17.5755 24.1201 17.3035 24.1201 16.9755C24.1201 16.6475 23.8481 16.3755 23.5201 16.3755H23.2801C23.0241 15.5435 22.2561 14.9355 21.3361 14.9355C20.2081 14.9355 19.2961 15.8555 19.2961 16.9755C19.2961 17.4395 18.9201 17.8155 18.4561 17.8155C17.9921 17.8155 17.6161 17.4395 17.6161 16.9755C17.6161 16.5115 17.9921 16.1355 18.4561 16.1355C18.7841 16.1355 19.0561 15.8635 19.0561 15.5355C19.0561 15.2075 18.7841 14.9355 18.4561 14.9355C17.5361 14.9355 16.7681 15.5435 16.5121 16.3755H16.2641C15.9361 16.3755 15.6641 16.6475 15.6641 16.9755C15.6641 17.3035 15.9361 17.5755 16.2641 17.5755Z" fill="#505050"/>
</svg>
