<svg width="40" height="40" viewBox="0 0 40 40" fill="none" xmlns="http://www.w3.org/2000/svg">
<path d="M15.752 2.95215C15.224 4.58415 14.928 6.32815 14.928 8.13615C14.928 17.4161 22.448 24.9361 31.728 24.9361C34.184 24.9361 36.512 24.4001 38.616 23.4481V2.95215H15.752Z" fill="#FEE7B5"/>
<path d="M28.2481 9.51992V19.2159H13.3521C12.4721 19.2159 11.7521 19.9279 11.7521 20.8159V25.1679H3.2001C2.3201 25.1679 1.6001 24.4559 1.6001 23.5679V9.51992C1.6001 8.63192 2.3201 7.91992 3.2001 7.91992H26.6561C27.5361 7.91992 28.2481 8.63192 28.2481 9.51992Z" fill="#E9F4BC"/>
<path d="M28.2481 10.8477H1.6001V14.2397H28.2481V10.8477Z" fill="#FADC00"/>
<path d="M38.4002 20.808V34.848C38.4002 35.728 37.6882 36.448 36.8002 36.448H13.3522C12.4722 36.448 11.7522 35.736 11.7522 34.848V20.808C11.7522 19.928 12.4722 19.208 13.3522 19.208H36.8002C37.6882 19.208 38.4002 19.92 38.4002 20.808Z" fill="#9BEAF9"/>
<path d="M20.4322 22.1758H14.7202V27.8878H20.4322V22.1758Z" fill="white"/>
<path d="M5.97598 8.52012C6.31198 8.52012 6.57598 8.25612 6.57598 7.92012C6.57598 7.59212 6.31198 7.32812 5.97598 7.32812C5.64798 7.32812 5.37598 7.59212 5.37598 7.92012C5.37598 8.25612 5.64798 8.52012 5.97598 8.52012Z" fill="#505050"/>
<path d="M36.8 18.6081H28.848V9.52012C28.848 8.31212 27.864 7.32812 26.656 7.32812H7.576C7.248 7.32812 6.976 7.59212 6.976 7.92012C6.976 8.25612 7.248 8.52012 7.576 8.52012H26.656C27.208 8.52012 27.648 8.96012 27.648 9.52012V10.2481H2.2V9.52012C2.2 8.96812 2.648 8.52012 3.2 8.52012H4.376C4.712 8.52012 4.976 8.25612 4.976 7.92012C4.976 7.59212 4.712 7.32812 4.376 7.32812H3.2C1.984 7.32812 1 8.31212 1 9.52012V23.5601C1 24.7761 1.984 25.7601 3.2 25.7601H11.152V34.8481C11.152 36.0561 12.136 37.0481 13.352 37.0481H36.8C38.008 37.0481 39 36.0641 39 34.8481V20.8081C39 19.5921 38.016 18.6081 36.8 18.6081ZM2.2 11.4481H27.648V13.6401H2.2V11.4481ZM3.2 24.5601C2.648 24.5601 2.2 24.1121 2.2 23.5601V14.8401H27.648V18.6081H13.352C12.144 18.6081 11.152 19.5921 11.152 20.8081V24.5601H3.2ZM37.8 34.8481C37.8 35.4001 37.352 35.8481 36.8 35.8481H13.352C12.8 35.8481 12.352 35.4001 12.352 34.8481V20.8081C12.352 20.2561 12.8 19.8081 13.352 19.8081H36.8C37.352 19.8081 37.8 20.2561 37.8 20.8081V34.8481Z" fill="#505050"/>
<path d="M14.7201 28.4882H20.4321C20.7601 28.4882 21.0321 28.2162 21.0321 27.8882V22.1762C21.0321 21.8482 20.7601 21.5762 20.4321 21.5762H14.7201C14.3921 21.5762 14.1201 21.8482 14.1201 22.1762V27.8882C14.1201 28.2162 14.3921 28.4882 14.7201 28.4882ZM15.3201 22.7762H19.8321V27.2882H15.3201V22.7762Z" fill="#505050"/>
<path d="M17.6081 32.7598H14.0641C13.7361 32.7598 13.4641 33.0318 13.4641 33.3598C13.4641 33.6878 13.7361 33.9598 14.0641 33.9598H17.6081C17.9361 33.9598 18.2081 33.6878 18.2081 33.3598C18.2081 33.0318 17.9441 32.7598 17.6081 32.7598Z" fill="#505050"/>
<path d="M23.768 32.7598H20.224C19.896 32.7598 19.624 33.0318 19.624 33.3598C19.624 33.6878 19.896 33.9598 20.224 33.9598H23.768C24.096 33.9598 24.368 33.6878 24.368 33.3598C24.368 33.0318 24.096 32.7598 23.768 32.7598Z" fill="#505050"/>
<path d="M29.9279 32.7598H26.3839C26.0559 32.7598 25.7839 33.0318 25.7839 33.3598C25.7839 33.6878 26.0559 33.9598 26.3839 33.9598H29.9279C30.2559 33.9598 30.5279 33.6878 30.5279 33.3598C30.5279 33.0318 30.2559 32.7598 29.9279 32.7598Z" fill="#505050"/>
<path d="M36.0881 32.7598H32.5441C32.2161 32.7598 31.9441 33.0318 31.9441 33.3598C31.9441 33.6878 32.2161 33.9598 32.5441 33.9598H36.0881C36.4161 33.9598 36.6881 33.6878 36.6881 33.3598C36.6881 33.0318 36.4161 32.7598 36.0881 32.7598Z" fill="#505050"/>
</svg>
