<svg width="32" height="32" viewBox="0 0 32 32" fill="none" xmlns="http://www.w3.org/2000/svg">
<path d="M13.3318 21.3333H18.6651C19.0049 21.3337 19.3318 21.4638 19.5789 21.6971C19.826 21.9304 19.9748 22.2493 19.9947 22.5885C20.0146 22.9278 19.9042 23.2618 19.6861 23.5224C19.468 23.783 19.1586 23.9505 18.8211 23.9907L18.6651 24H13.3318C12.9919 23.9996 12.6651 23.8695 12.4179 23.6362C12.1708 23.4029 12.0221 23.0841 12.0022 22.7448C11.9823 22.4056 12.0927 22.0715 12.3108 21.8109C12.5289 21.5503 12.8383 21.3828 13.1758 21.3427L13.3318 21.3333H18.6651H13.3318ZM10.6651 14.6667H21.3318C21.6716 14.667 21.9985 14.7972 22.2456 15.0305C22.4927 15.2638 22.6414 15.5826 22.6613 15.9219C22.6813 16.2611 22.5709 16.5952 22.3528 16.8558C22.1346 17.1164 21.8252 17.2839 21.4878 17.324L21.3318 17.3333H10.6651C10.3253 17.333 9.9984 17.2028 9.75128 16.9695C9.50417 16.7362 9.35546 16.4174 9.33554 16.0781C9.31563 15.7389 9.42601 15.4048 9.64413 15.1442C9.86225 14.8836 10.1716 14.7161 10.5091 14.676L10.6651 14.6667H21.3318H10.6651ZM6.66511 8H25.3318C25.6716 8.00038 25.9985 8.13051 26.2456 8.3638C26.4927 8.59709 26.6414 8.91594 26.6613 9.25519C26.6813 9.59445 26.5709 9.92851 26.3528 10.1891C26.1346 10.4497 25.8252 10.6172 25.4878 10.6573L25.3318 10.6667H6.66511C6.32527 10.6663 5.9984 10.5362 5.75128 10.3029C5.50417 10.0696 5.35546 9.75073 5.33555 9.41147C5.31563 9.07222 5.42601 8.73816 5.64413 8.47756C5.86225 8.21695 6.17165 8.04947 6.50911 8.00933L6.66511 8H25.3318H6.66511Z" fill="#212121"/>
</svg>
