<svg width="800" height="800" viewBox="0 0 800 800" fill="none" xmlns="http://www.w3.org/2000/svg">
<path fill-rule="evenodd" clip-rule="evenodd" d="M244.734 166.167C258.8 142.033 265.834 130 275.634 121.233C284.301 113.473 294.498 107.614 305.567 104.033C318.067 100 332 100 359.9 100H440.067C468 100 481.934 100 494.434 104.033C505.503 107.614 515.699 113.473 524.367 121.233C534.167 130 541.2 142.033 555.267 166.167L575 200H600C646.667 200 670 200 687.834 209.067C703.509 217.063 716.251 229.817 724.234 245.5C733.334 263.333 733.334 286.667 733.334 333.333V533.333C733.334 580 733.334 603.333 724.234 621.167C716.246 636.837 703.504 649.579 687.834 657.567C670 666.667 646.667 666.667 600 666.667H200C153.334 666.667 130 666.667 112.167 657.567C96.4839 649.584 83.7302 636.842 75.7337 621.167C66.667 603.333 66.667 580 66.667 533.333V333.333C66.667 286.667 66.667 263.333 75.7337 245.5C83.7245 229.812 96.4788 217.057 112.167 209.067C130 200 153.334 200 200 200H225L244.734 166.167ZM400 568.333C441.993 568.333 482.266 551.652 511.959 521.959C541.652 492.265 558.334 451.993 558.334 410C558.334 368.007 541.652 327.735 511.959 298.041C482.266 268.348 441.993 251.667 400 251.667C358.008 251.667 317.735 268.348 288.042 298.041C258.348 327.735 241.667 368.007 241.667 410C241.667 451.993 258.348 492.265 288.042 521.959C317.735 551.652 358.008 568.333 400 568.333ZM490 410C490 433.869 480.518 456.761 463.64 473.64C446.762 490.518 423.87 500 400 500C376.131 500 353.239 490.518 336.361 473.64C319.482 456.761 310 433.869 310 410C310 386.131 319.482 363.239 336.361 346.36C353.239 329.482 376.131 320 400 320C423.87 320 446.762 329.482 463.64 346.36C480.518 363.239 490 386.131 490 410Z" fill="#7F7F7F"/>
</svg>
