<svg width="40" height="40" viewBox="0 0 40 40" fill="none" xmlns="http://www.w3.org/2000/svg">
<path d="M39.1041 4.8559C36.2561 2.6319 32.6801 1.2959 28.7841 1.2959C19.5041 1.2959 11.9841 8.8159 11.9841 18.0959C11.9841 19.3359 12.1281 20.5439 12.3841 21.7119H39.1041V4.8559Z" fill="#FEE7B5"/>
<path d="M28.8641 33.6796V1.59961H1.50415V16.4556V32.9996C1.50415 34.2716 1.83215 35.5436 2.55215 36.5916C2.66415 36.7516 2.77615 36.9036 2.88815 37.0156C3.73615 37.8716 4.91215 38.3996 6.21615 38.3996H6.14415H33.5841" fill="white"/>
<path d="M14.9401 18.0537L24.9561 18.0537L24.9561 4.72571L14.9401 4.72571L14.9401 18.0537Z" fill="#FADC00"/>
<path d="M28.864 16.4561V33.6801C28.864 34.9761 29.392 36.1601 30.24 37.0161C31.096 37.8721 32.272 38.4001 33.576 38.4001C36.184 38.4001 38.296 36.2881 38.296 33.6801V16.4561H28.864Z" fill="#9BEAF9"/>
<path d="M38.3041 15.856H36.7841C36.4561 15.856 36.1841 16.128 36.1841 16.456C36.1841 16.784 36.4561 17.056 36.7841 17.056H37.7041V33.68C37.7041 35.952 35.8561 37.8 33.5841 37.8C32.4801 37.8 31.4481 37.376 30.6721 36.592C29.8961 35.808 29.4641 34.784 29.4641 33.68V17.056H33.4481C33.7761 17.056 34.0481 16.784 34.0481 16.456C34.0481 16.128 33.7761 15.856 33.4481 15.856H29.4641V1.6C29.4641 1.272 29.1921 1 28.8641 1H1.50405C1.16805 1 0.904053 1.272 0.904053 1.6V33C0.904053 34.464 1.30405 35.824 2.04805 36.928C2.19205 37.136 2.32005 37.304 2.45605 37.44C3.43205 38.416 4.72805 38.968 6.10405 38.992C6.12005 38.992 6.12805 38.992 6.14405 38.992H33.5841C36.5121 38.992 38.9041 36.608 38.9041 33.672V16.456C38.9041 16.128 38.6321 15.856 38.3041 15.856ZM6.21605 37.8C5.11205 37.8 4.08005 37.376 3.30405 36.592C3.21605 36.504 3.12805 36.392 3.04005 36.256C2.42405 35.344 2.09605 34.216 2.09605 33V2.2H28.2641V16.456V33.68C28.2641 35.104 28.8161 36.44 29.8161 37.44C29.9441 37.568 30.0721 37.688 30.2081 37.792H6.21605V37.8Z" fill="#505050"/>
<path d="M24.9519 4.12012H14.9359C14.6079 4.12012 14.3359 4.39212 14.3359 4.72012V18.0481C14.3359 18.3761 14.6079 18.6481 14.9359 18.6481H24.9519C25.2799 18.6481 25.5519 18.3761 25.5519 18.0481V4.72012C25.5519 4.39212 25.2879 4.12012 24.9519 4.12012ZM24.3519 17.4481H15.5359V5.32012H24.3519V17.4481Z" fill="#505050"/>
<path d="M4.92007 8.52031H11.5281C11.8561 8.52031 12.1281 8.24831 12.1281 7.92031C12.1281 7.59231 11.8561 7.32031 11.5281 7.32031H4.92007C4.58407 7.32031 4.32007 7.59231 4.32007 7.92031C4.32007 8.24831 4.58407 8.52031 4.92007 8.52031Z" fill="#505050"/>
<path d="M4.92007 11.8963H11.5281C11.8561 11.8963 12.1281 11.6243 12.1281 11.2963C12.1281 10.9683 11.8561 10.6963 11.5281 10.6963H4.92007C4.59207 10.6963 4.32007 10.9683 4.32007 11.2963C4.32007 11.6243 4.58407 11.8963 4.92007 11.8963Z" fill="#505050"/>
<path d="M4.92007 15.2723H11.5281C11.8561 15.2723 12.1281 15.0003 12.1281 14.6723C12.1281 14.3443 11.8561 14.0723 11.5281 14.0723H4.92007C4.59207 14.0723 4.32007 14.3443 4.32007 14.6723C4.32007 15.0003 4.58407 15.2723 4.92007 15.2723Z" fill="#505050"/>
<path d="M4.92007 18.6482H11.7281C12.0561 18.6482 12.3281 18.3762 12.3281 18.0482C12.3281 17.7202 12.0561 17.4482 11.7281 17.4482H4.92007C4.59207 17.4482 4.32007 17.7202 4.32007 18.0482C4.32007 18.3762 4.58407 18.6482 4.92007 18.6482Z" fill="#505050"/>
<path d="M24.9521 20.8242H4.92007C4.59207 20.8242 4.32007 21.0962 4.32007 21.4242C4.32007 21.7522 4.59207 22.0242 4.92007 22.0242H24.9601C25.2881 22.0242 25.5601 21.7522 25.5601 21.4242C25.5601 21.0962 25.2881 20.8242 24.9521 20.8242Z" fill="#505050"/>
<path d="M24.9521 24.208H4.92007C4.59207 24.208 4.32007 24.48 4.32007 24.808C4.32007 25.136 4.59207 25.408 4.92007 25.408H24.9601C25.2881 25.408 25.5601 25.136 25.5601 24.808C25.5601 24.48 25.2881 24.208 24.9521 24.208Z" fill="#505050"/>
<path d="M24.9521 27.584H4.92007C4.59207 27.584 4.32007 27.856 4.32007 28.184C4.32007 28.512 4.59207 28.784 4.92007 28.784H24.9601C25.2881 28.784 25.5601 28.512 25.5601 28.184C25.5601 27.856 25.2881 27.584 24.9521 27.584Z" fill="#505050"/>
<path d="M24.9521 30.96H4.92007C4.59207 30.96 4.32007 31.232 4.32007 31.56C4.32007 31.888 4.59207 32.16 4.92007 32.16H24.9601C25.2881 32.16 25.5601 31.888 25.5601 31.56C25.5601 31.232 25.2881 30.96 24.9521 30.96Z" fill="#505050"/>
<path d="M19.944 14.3042C19.304 14.3042 18.784 13.7842 18.784 13.1442C18.784 12.8162 18.512 12.5442 18.184 12.5442C17.856 12.5442 17.584 12.8162 17.584 13.1442C17.584 14.2322 18.336 15.1442 19.344 15.4162V15.8082C19.344 16.1362 19.616 16.4082 19.944 16.4082C20.272 16.4082 20.544 16.1362 20.544 15.8082V15.4162C21.552 15.1522 22.304 14.2402 22.304 13.1442C22.304 11.8402 21.248 10.7842 19.944 10.7842C19.304 10.7842 18.784 10.2642 18.784 9.62416C18.784 8.98416 19.304 8.46416 19.944 8.46416C20.584 8.46416 21.104 8.98416 21.104 9.62416C21.104 9.95216 21.376 10.2242 21.704 10.2242C22.032 10.2242 22.304 9.95216 22.304 9.62416C22.304 8.53616 21.552 7.62416 20.544 7.35216V6.96816C20.544 6.64016 20.272 6.36816 19.944 6.36816C19.616 6.36816 19.344 6.64016 19.344 6.96816V7.36016C18.336 7.62416 17.584 8.53616 17.584 9.63216C17.584 10.9362 18.64 11.9922 19.944 11.9922C20.584 11.9922 21.104 12.5122 21.104 13.1522C21.104 13.7922 20.584 14.3042 19.944 14.3042Z" fill="#505050"/>
<path d="M35.0722 17.0564C35.4035 17.0564 35.6722 16.7878 35.6722 16.4564C35.6722 16.1251 35.4035 15.8564 35.0722 15.8564C34.7408 15.8564 34.4722 16.1251 34.4722 16.4564C34.4722 16.7878 34.7408 17.0564 35.0722 17.0564Z" fill="#505050"/>
</svg>
