<svg width="40" height="40" viewBox="0 0 40 40" fill="none" xmlns="http://www.w3.org/2000/svg">
<path d="M14.1444 10.6729C9.65636 10.6729 5.58436 12.4489 2.56836 15.3129V39.0968H26.2484C29.1524 36.0808 30.9444 31.9849 30.9444 27.4649C30.9444 18.1929 23.4244 10.6729 14.1444 10.6729Z" fill="#FEE7B5"/>
<path d="M13.0969 35.4969H6.71289V1.50488H32.8169V4.30488" fill="#CDF6FC"/>
<path d="M36.8257 4.30469H13.0977V38.2967H36.8257V4.30469Z" fill="white"/>
<path d="M13.098 27.0322C12.77 27.0322 12.498 27.2962 12.498 27.6322C12.498 27.9602 12.77 28.2242 13.098 28.2242C13.426 28.2242 13.698 27.9602 13.698 27.6322C13.698 27.2962 13.426 27.0322 13.098 27.0322Z" fill="#505050"/>
<path d="M37.2571 3.88048C37.1451 3.76848 36.9851 3.70448 36.8251 3.70448H33.4171V1.49648C33.4171 1.16848 33.1451 0.896484 32.8171 0.896484H6.72109C6.39309 0.896484 6.12109 1.16848 6.12109 1.49648V35.4885C6.12109 35.8165 6.39309 36.0885 6.72109 36.0885H12.5051V38.2965C12.5051 38.4565 12.5691 38.6085 12.6811 38.7205C12.7931 38.8325 12.9451 38.8965 13.1051 38.8965H36.8331C37.0011 38.8965 37.1451 38.8325 37.2571 38.7205C37.3691 38.6085 37.4331 38.4565 37.4331 38.2965V10.8885C37.4331 10.8725 37.4331 10.8645 37.4331 10.8485V4.30448C37.4251 4.14448 37.3611 3.99248 37.2571 3.88048ZM36.2251 37.6965H13.6971V35.4965C13.6971 35.4965 13.6971 35.4965 13.6971 35.4885C13.6971 35.4805 13.6971 35.4885 13.6971 35.4805V29.2245C13.6971 28.8885 13.4251 28.6245 13.0971 28.6245C12.7691 28.6245 12.4971 28.8885 12.4971 29.2245V34.8805H7.32109V2.09648H32.2251V3.70448H13.1051C12.9451 3.70448 12.7931 3.76848 12.6811 3.88048C12.5691 3.99248 12.5051 4.14448 12.5051 4.30448V26.0325C12.5051 26.3605 12.7771 26.6325 13.1051 26.6325C13.4331 26.6325 13.7051 26.3605 13.7051 26.0325V4.90448H36.2331V37.6965H36.2251Z" fill="#505050"/>
<path d="M24.4652 10.616H33.5292C33.8572 10.616 34.1292 10.344 34.1292 10.016C34.1292 9.68802 33.8572 9.41602 33.5292 9.41602H24.4652C24.1372 9.41602 23.8652 9.68802 23.8652 10.016C23.8652 10.344 24.1292 10.616 24.4652 10.616Z" fill="#505050"/>
<path d="M24.4652 14.448H33.5292C33.8572 14.448 34.1292 14.176 34.1292 13.848C34.1292 13.52 33.8572 13.248 33.5292 13.248H24.4652C24.1372 13.248 23.8652 13.52 23.8652 13.848C23.8652 14.176 24.1292 14.448 24.4652 14.448Z" fill="#505050"/>
<path d="M24.4652 18.2723H33.5292C33.8572 18.2723 34.1292 18.0003 34.1292 17.6723C34.1292 17.3443 33.8572 17.0723 33.5292 17.0723H24.4652C24.1372 17.0723 23.8652 17.3443 23.8652 17.6723C23.8652 18.0003 24.1292 18.2723 24.4652 18.2723Z" fill="#505050"/>
<path d="M16.4008 22.1043H33.5288C33.8568 22.1043 34.1288 21.8323 34.1288 21.5043C34.1288 21.1763 33.8568 20.9043 33.5288 20.9043H16.4008C16.0728 20.9043 15.8008 21.1763 15.8008 21.5043C15.8008 21.8323 16.0728 22.1043 16.4008 22.1043Z" fill="#505050"/>
<path d="M16.4008 25.9363H33.5288C33.8568 25.9363 34.1288 25.6643 34.1288 25.3363C34.1288 25.0083 33.8568 24.7363 33.5288 24.7363H16.4008C16.0728 24.7363 15.8008 25.0083 15.8008 25.3363C15.8008 25.6643 16.0728 25.9363 16.4008 25.9363Z" fill="#505050"/>
<path d="M16.4008 29.7684H28.0248C28.3528 29.7684 28.6248 29.4964 28.6248 29.1684C28.6248 28.8404 28.3528 28.5684 28.0248 28.5684H16.4008C16.0728 28.5684 15.8008 28.8404 15.8008 29.1684C15.8008 29.4964 16.0728 29.7684 16.4008 29.7684Z" fill="#505050"/>
<path d="M16.4008 33.2889H28.0248C28.3528 33.2889 28.6248 33.0169 28.6248 32.6889C28.6248 32.3609 28.3528 32.0889 28.0248 32.0889H16.4008C16.0728 32.0889 15.8008 32.3609 15.8008 32.6889C15.8008 33.0169 16.0728 33.2889 16.4008 33.2889Z" fill="#505050"/>
<path d="M18.9135 15.9208C18.3455 15.9208 17.8895 15.4648 17.8895 14.8968C17.8895 14.5688 17.6175 14.2968 17.2895 14.2968C16.9615 14.2968 16.6895 14.5688 16.6895 14.8968C16.6895 15.9128 17.3775 16.7608 18.3135 17.0248V17.3528C18.3135 17.6808 18.5855 17.9528 18.9135 17.9528C19.2415 17.9528 19.5135 17.6808 19.5135 17.3528V17.0248C20.4495 16.7608 21.1375 15.9128 21.1375 14.8968C21.1375 13.6728 20.1375 12.6728 18.9135 12.6728C18.3455 12.6728 17.8895 12.2168 17.8895 11.6488C17.8895 11.0808 18.3455 10.6248 18.9135 10.6248C19.4815 10.6248 19.9375 11.0808 19.9375 11.6488C19.9375 11.9768 20.2095 12.2488 20.5375 12.2488C20.8655 12.2488 21.1375 11.9768 21.1375 11.6488C21.1375 10.6328 20.4495 9.78477 19.5135 9.52077V9.19277C19.5135 8.86477 19.2415 8.59277 18.9135 8.59277C18.5855 8.59277 18.3135 8.86477 18.3135 9.19277V9.52077C17.3775 9.78477 16.6895 10.6328 16.6895 11.6488C16.6895 12.8728 17.6895 13.8728 18.9135 13.8728C19.4815 13.8728 19.9375 14.3288 19.9375 14.8968C19.9375 15.4648 19.4815 15.9208 18.9135 15.9208Z" fill="#505050"/>
</svg>
