<svg width="24" height="25" viewBox="0 0 24 25" fill="none" xmlns="http://www.w3.org/2000/svg">
<path d="M21 12.4877C21 12.7529 20.8947 13.0072 20.7072 13.1947L15.7072 18.1947C15.615 18.2902 15.5046 18.3664 15.3826 18.4188C15.2606 18.4712 15.1294 18.4988 14.9966 18.5C14.8638 18.5011 14.7322 18.4758 14.6093 18.4255C14.4864 18.3753 14.3747 18.301 14.2808 18.2071C14.1869 18.1132 14.1127 18.0016 14.0624 17.8787C14.0121 17.7558 13.9868 17.6241 13.988 17.4913C13.9891 17.3585 14.0167 17.2273 14.0691 17.1053C14.1215 16.9833 14.1977 16.873 14.2932 16.7807L17.5862 13.4877L5.00021 13.4877C4.735 13.4877 4.48064 13.3824 4.29311 13.1948C4.10557 13.0073 4.00021 12.7529 4.00021 12.4877C4.00021 12.2225 4.10557 11.9681 4.29311 11.7806C4.48064 11.5931 4.735 11.4877 5.00021 11.4877L17.5862 11.4877L14.2932 8.19471C14.1111 8.00611 14.0103 7.75351 14.0125 7.49131C14.0148 7.22911 14.12 6.9783 14.3054 6.79289C14.4908 6.60749 14.7416 6.50232 15.0038 6.50004C15.266 6.49776 15.5186 6.59855 15.7072 6.78071L20.7072 11.7807C20.8947 11.9682 21 12.2225 21 12.4877Z" fill="white"/>
</svg>
