<svg width="40" height="40" viewBox="0 0 40 40" fill="none" xmlns="http://www.w3.org/2000/svg">
<g clip-path="url(#clip0_751_3718)">
<path d="M8.80848 8.2963H23.4885C23.0085 5.5123 21.8005 2.9763 20.0485 0.904297H0.896484V24.7523C3.05648 25.8883 5.51248 26.5363 8.12048 26.5363C8.35248 26.5363 8.57648 26.5123 8.80048 26.5043V8.2963H8.80848Z" fill="#FEE7B5"/>
<path d="M20.1035 27.0967C23.9695 27.0967 27.1035 23.9627 27.1035 20.0967C27.1035 16.2307 23.9695 13.0967 20.1035 13.0967C16.2375 13.0967 13.1035 16.2307 13.1035 20.0967C13.1035 23.9627 16.2375 27.0967 20.1035 27.0967Z" fill="#E9F4BC"/>
<path d="M38.5031 22.1931V18.0011L34.2231 17.0891C33.8471 15.3291 33.1511 13.6971 32.2071 12.2331L34.5991 8.56908L31.6311 5.60108L27.9591 8.00108C26.5031 7.04908 24.8631 6.35308 23.1031 5.98508L22.1911 1.70508H17.9991L17.0871 5.98508C15.3271 6.36108 13.6951 7.05708 12.2311 8.00108L8.56713 5.60908L5.59912 8.57708L7.99913 12.2411C7.04712 13.6971 6.35112 15.3371 5.98312 17.0971L1.70312 18.0091V22.2011L5.98312 23.1131C6.35912 24.8731 7.05513 26.5051 7.99913 27.9611L5.60713 31.6251L8.57513 34.5931L12.2391 32.2011C13.6951 33.1531 15.3351 33.8491 17.0871 34.2171L17.9991 38.4971H22.1911L23.1031 34.2171C24.8631 33.8411 26.4951 33.1451 27.9511 32.2011L31.6151 34.5931L34.5831 31.6251L32.1911 27.9611C33.1431 26.5051 33.8391 24.8651 34.2071 23.1051L38.5031 22.1931ZM20.1031 30.2971C14.4711 30.2971 9.90313 25.7291 9.90313 20.0971C9.90313 14.4651 14.4711 9.89708 20.1031 9.89708C25.7351 9.89708 30.3031 14.4651 30.3031 20.0971C30.3031 25.7371 25.7351 30.2971 20.1031 30.2971Z" fill="#5ED070"/>
<path d="M9.30273 20.0969C9.30273 26.0489 14.1507 30.8969 20.1027 30.8969C26.0547 30.8969 30.9027 26.0489 30.9027 20.0969C30.9027 14.1449 26.0547 9.29688 20.1027 9.29688C14.1507 9.29688 9.30273 14.1449 9.30273 20.0969ZM29.7027 20.0969C29.7027 25.3929 25.3987 29.6969 20.1027 29.6969C14.8067 29.6969 10.5027 25.3929 10.5027 20.0969C10.5027 14.8009 14.8067 10.4969 20.1027 10.4969C25.3987 10.4969 29.7027 14.8089 29.7027 20.0969Z" fill="#505050"/>
<path d="M12.5039 20.0971C12.5039 24.2891 15.9119 27.6971 20.1039 27.6971C24.2959 27.6971 27.7039 24.2891 27.7039 20.0971C27.7039 15.9051 24.2959 12.4971 20.1039 12.4971C15.9119 12.4971 12.5039 15.9131 12.5039 20.0971ZM26.5039 20.0971C26.5039 23.6251 23.6319 26.4971 20.1039 26.4971C16.5759 26.4971 13.7039 23.6251 13.7039 20.0971C13.7039 16.5691 16.5759 13.6971 20.1039 13.6971C23.6319 13.6971 26.5039 16.5691 26.5039 20.0971Z" fill="#505050"/>
<path d="M22.4951 37.1047C22.1671 37.0327 21.8471 37.2487 21.7831 37.5687C21.7511 37.7207 21.7751 37.8807 21.8631 38.0167C21.9511 38.1527 22.0871 38.2487 22.2471 38.2807C22.2871 38.2887 22.3271 38.2887 22.3671 38.2887C22.6471 38.2887 22.8951 38.0887 22.9591 37.8167C23.0231 37.4967 22.8151 37.1767 22.4951 37.1047Z" fill="#505050"/>
<path d="M24.5356 6.9922H24.5436C24.6076 7.0162 24.6716 7.0242 24.7356 7.0242C24.9916 7.0242 25.2156 6.8642 25.2956 6.6162C25.3516 6.4642 25.3356 6.3042 25.2716 6.1602C25.1996 6.0162 25.0796 5.9122 24.9356 5.8562H24.9276C24.6156 5.7522 24.2636 5.9282 24.1676 6.2322C24.1116 6.3842 24.1196 6.5442 24.1916 6.6882C24.2636 6.8322 24.3836 6.9362 24.5356 6.9922Z" fill="#505050"/>
<path d="M21.4235 37.8967H18.4955L17.6875 34.0887C17.6395 33.8567 17.4555 33.6727 17.2235 33.6247C15.5755 33.2807 14.0155 32.6247 12.5755 31.6967C12.3835 31.5687 12.1115 31.5687 11.9195 31.6967L8.66352 33.8167L6.38352 31.5367L8.50352 28.2807C8.63952 28.0807 8.63952 27.8247 8.50352 27.6247C8.02352 26.8887 7.60752 26.0967 7.27952 25.2727C6.97552 24.5367 6.74352 23.7607 6.57552 22.9767C6.52752 22.7447 6.34352 22.5607 6.11152 22.5127L2.30352 21.7047V18.4887L6.11152 17.6807C6.34352 17.6327 6.52752 17.4487 6.57552 17.2167C6.91952 15.5687 7.57552 14.0007 8.50352 12.5687C8.63952 12.3687 8.63952 12.1127 8.50352 11.9127L6.38352 8.65668L8.66352 6.37668L11.9195 8.49668C12.1115 8.62468 12.3755 8.62468 12.5755 8.49668C14.0075 7.56868 15.5755 6.91268 17.2235 6.56868C17.4555 6.51268 17.6395 6.33668 17.6875 6.10468L18.4955 2.29668H21.7115L22.5195 6.10468C22.5675 6.33668 22.7515 6.51268 22.9835 6.56868L23.0635 6.58468C23.3755 6.65668 23.7115 6.44068 23.7755 6.12068C23.8155 5.93668 23.7675 5.74468 23.6395 5.60068L22.7835 1.57668C22.7275 1.29668 22.4795 1.09668 22.1995 1.09668H17.9995C17.7195 1.09668 17.4715 1.29668 17.4155 1.57668L16.5835 5.48068C15.0635 5.84868 13.5995 6.45668 12.2475 7.28868L8.91152 5.10468C8.67152 4.95268 8.35152 4.98468 8.15952 5.18468L5.19152 8.15268C4.99152 8.35268 4.95952 8.66468 5.11152 8.90468L7.28752 12.2487C6.45552 13.6007 5.84752 15.0567 5.48752 16.5847L1.57552 17.4167C1.30352 17.4727 1.10352 17.7207 1.10352 18.0007V22.1927C1.10352 22.4727 1.30352 22.7207 1.57552 22.7767L5.48752 23.6087C5.66352 24.3287 5.88752 25.0407 6.16752 25.7287C6.47952 26.4887 6.85552 27.2407 7.29552 27.9447L5.11152 31.2887C4.95952 31.5287 4.99152 31.8407 5.19152 32.0407L8.15952 35.0087C8.35152 35.2087 8.67952 35.2407 8.91152 35.0887L12.2555 32.9127C13.6075 33.7447 15.0635 34.3527 16.5915 34.7127L17.4235 38.6247C17.4795 38.8967 17.7275 39.0967 18.0075 39.0967H21.4235C21.7515 39.0967 22.0235 38.8247 22.0235 38.4967C22.0235 38.1687 21.7515 37.8967 21.4235 37.8967Z" fill="#505050"/>
<path d="M38.6317 17.4166L34.7277 16.5846C34.3597 15.0566 33.7517 13.5926 32.9197 12.2486L35.0957 8.90462C35.2557 8.66462 35.2237 8.35262 35.0157 8.15262L32.0477 5.18462C31.8557 4.99262 31.5357 4.95262 31.3037 5.10462L27.9597 7.28062C27.4797 6.98462 26.9757 6.72062 26.4717 6.48062C26.1757 6.34462 25.8077 6.48062 25.6717 6.76862C25.5277 7.06462 25.6557 7.42462 25.9597 7.56862C26.5277 7.83262 27.0957 8.14462 27.6397 8.49662C27.8317 8.62462 28.0957 8.62462 28.2877 8.49662L31.5437 6.37662L33.8237 8.65662L31.7037 11.9126C31.5757 12.1126 31.5757 12.3686 31.7037 12.5686C32.6397 14.0006 33.2877 15.5686 33.6397 17.2166C33.6797 17.4486 33.8637 17.6326 34.0957 17.6806L37.9037 18.4886V21.7046L34.0957 22.5126C33.8637 22.5606 33.6877 22.7446 33.6397 22.9766C33.2877 24.6326 32.6317 26.1926 31.7037 27.6246C31.5757 27.8246 31.5757 28.0806 31.7037 28.2806L33.8237 31.5366L31.5437 33.8166L28.2877 31.6966C28.0877 31.5686 27.8237 31.5686 27.6317 31.6966C26.1997 32.6246 24.6317 33.2806 22.9837 33.6246C22.7517 33.6726 22.5677 33.8566 22.5197 34.0886L22.1117 36.0006C22.0797 36.1606 22.1117 36.3206 22.1997 36.4566C22.2877 36.5926 22.4237 36.6806 22.5757 36.7126C22.6157 36.7206 22.6637 36.7286 22.7037 36.7286C22.9837 36.7286 23.2317 36.5286 23.2877 36.2486V36.2406L23.6157 34.7126C25.1437 34.3526 26.5997 33.7446 27.9517 32.9126L31.3037 35.0886C31.5357 35.2406 31.8557 35.2086 32.0477 35.0086L35.0157 32.0406C35.2237 31.8406 35.2557 31.5286 35.0957 31.2886L32.9197 27.9526C33.7517 26.5926 34.3597 25.1366 34.7197 23.6086L38.6317 22.7766C38.9117 22.7206 39.1037 22.4806 39.1037 22.1926V18.0006C39.1037 17.7206 38.9117 17.4726 38.6317 17.4166Z" fill="#505050"/>
<path d="M19.5029 15.5932V16.0012C18.4789 16.2732 17.7109 17.1932 17.7109 18.3052C17.7109 19.6252 18.7829 20.6972 20.1029 20.6972C20.7589 20.6972 21.2949 21.2332 21.2949 21.8892C21.2949 22.5452 20.7589 23.0812 20.1029 23.0812C19.4469 23.0812 18.9109 22.5452 18.9109 21.8892C18.9109 21.5612 18.6389 21.2892 18.3109 21.2892C17.9829 21.2892 17.7109 21.5612 17.7109 21.8892C17.7109 23.0012 18.4789 23.9292 19.5029 24.1932V24.6012C19.5029 24.9292 19.7749 25.2012 20.1029 25.2012C20.4309 25.2012 20.7029 24.9292 20.7029 24.6012V24.1932C21.7269 23.9212 22.4949 23.0012 22.4949 21.8892C22.4949 20.5692 21.4229 19.4972 20.1029 19.4972C19.4469 19.4972 18.9109 18.9612 18.9109 18.3052C18.9109 17.6492 19.4469 17.1132 20.1029 17.1132C20.7589 17.1132 21.2949 17.6492 21.2949 18.3052C21.2949 18.6332 21.5669 18.9052 21.8949 18.9052C22.2229 18.9052 22.4949 18.6332 22.4949 18.3052C22.4949 17.1932 21.7269 16.2652 20.7029 16.0012V15.5932C20.7029 15.2652 20.4309 14.9932 20.1029 14.9932C19.7749 14.9932 19.5029 15.2652 19.5029 15.5932Z" fill="#505050"/>
</g>
<defs>
<clipPath id="clip0_751_3718">
<rect width="40" height="40" fill="white"/>
</clipPath>
</defs>
</svg>
