<svg width="40" height="40" viewBox="0 0 40 40" fill="none" xmlns="http://www.w3.org/2000/svg">
<path d="M1.00781 18.856C3.85581 21.08 7.43181 22.416 11.3278 22.416C20.6078 22.416 28.1278 14.896 28.1278 5.616C28.1278 4.376 27.9838 3.168 27.7278 2H1.00781V18.856Z" fill="#FEE7B5"/>
<path d="M22.9676 21.4074V21.1354C21.6396 18.5034 19.7996 16.1594 17.6796 14.7354H9.18361C4.75161 17.7194 1.59961 24.7914 1.59961 29.8314C1.59961 36.3754 6.90361 36.9914 13.4396 36.9914C17.3276 36.9914 20.7676 36.7673 22.9196 35.2233C22.6556 34.9113 22.5116 34.5673 22.5116 34.2233V30.3353C22.5116 30.7113 22.6796 31.0634 22.9756 31.3914V31.3513C22.6796 31.0233 22.5116 30.6633 22.5116 30.2953V26.3994C22.5116 26.7754 22.6796 27.1274 22.9756 27.4554V27.4154C22.6796 27.0874 22.5116 26.7274 22.5116 26.3594V22.4714C22.5036 22.0954 22.6796 21.7434 22.9676 21.4074Z" fill="#5ED070"/>
<path d="M30.4557 25.6479C34.8431 25.6479 38.3997 24.226 38.3997 22.4719C38.3997 20.7178 34.8431 19.2959 30.4557 19.2959C26.0684 19.2959 22.5117 20.7178 22.5117 22.4719C22.5117 24.226 26.0684 25.6479 30.4557 25.6479Z" fill="#E9F4BC"/>
<path d="M13.44 32.5119C17.0895 32.5119 20.048 29.5534 20.048 25.9039C20.048 22.2544 17.0895 19.2959 13.44 19.2959C9.79053 19.2959 6.83203 22.2544 6.83203 25.9039C6.83203 29.5534 9.79053 32.5119 13.44 32.5119Z" fill="#E9F4BC"/>
<path d="M18.2083 11.5361H8.67227C7.79227 11.5361 7.07227 12.2561 7.07227 13.1361C7.07227 14.0161 7.79227 14.7361 8.67227 14.7361H18.2083C19.0883 14.7361 19.8083 14.0161 19.8083 13.1361C19.8083 12.2561 19.0963 11.5361 18.2083 11.5361Z" fill="white"/>
<path d="M30.4557 25.6399C26.0717 25.6399 22.5117 24.2159 22.5117 22.4639V26.3519C22.5117 28.1039 26.0717 29.5279 30.4557 29.5279C34.8397 29.5279 38.3997 28.1039 38.3997 26.3519V22.4639C38.3997 24.2239 34.8397 25.6399 30.4557 25.6399Z" fill="#FDE4A1"/>
<path d="M30.4557 29.5754C26.0717 29.5754 22.5117 28.1514 22.5117 26.3994V30.2874C22.5117 32.0394 26.0717 33.4634 30.4557 33.4634C34.8397 33.4634 38.3997 32.0394 38.3997 30.2874V26.3994C38.3997 28.1514 34.8397 29.5754 30.4557 29.5754Z" fill="#FDE4A1"/>
<path d="M30.4557 33.5041C26.0717 33.5041 22.5117 32.0801 22.5117 30.3281V34.2161C22.5117 35.9681 26.0717 37.3921 30.4557 37.3921C34.8397 37.3921 38.3997 35.9681 38.3997 34.2161V30.3281C38.3997 32.0881 34.8397 33.5041 30.4557 33.5041Z" fill="#FDE4A1"/>
<path d="M17.1112 11.5355L19.5112 5.36755C15.6472 3.44755 10.7832 8.39955 7.36719 5.36755L9.76719 11.5355H17.1112Z" fill="#5ED070"/>
<path d="M14.0401 30.3201V29.9281C15.0481 29.6641 15.8001 28.7521 15.8001 27.6561C15.8001 26.3521 14.7441 25.2961 13.4401 25.2961C12.8001 25.2961 12.2801 24.7761 12.2801 24.1361C12.2801 23.4961 12.8001 22.9761 13.4401 22.9761C14.0801 22.9761 14.6001 23.4961 14.6001 24.1361C14.6001 24.4641 14.8721 24.7361 15.2001 24.7361C15.5281 24.7361 15.8001 24.4641 15.8001 24.1361C15.8001 23.0481 15.0481 22.1361 14.0401 21.8641V21.4721C14.0401 21.1441 13.7681 20.8721 13.4401 20.8721C13.1121 20.8721 12.8401 21.1441 12.8401 21.4721V21.8641C11.8321 22.1281 11.0801 23.0401 11.0801 24.1361C11.0801 25.4401 12.1361 26.4961 13.4401 26.4961C14.0801 26.4961 14.6001 27.0161 14.6001 27.6561C14.6001 28.2961 14.0801 28.8161 13.4401 28.8161C12.8001 28.8161 12.2801 28.2961 12.2801 27.6561C12.2801 27.3281 12.0081 27.0561 11.6801 27.0561C11.3521 27.0561 11.0801 27.3281 11.0801 27.6561C11.0801 28.7441 11.8321 29.6561 12.8401 29.9281V30.3201C12.8401 30.6481 13.1121 30.9201 13.4401 30.9201C13.7681 30.9201 14.0401 30.6481 14.0401 30.3201Z" fill="#505050"/>
<path d="M20.648 25.9041C20.648 21.9281 17.416 18.7041 13.448 18.7041C9.48005 18.7041 6.24805 21.9361 6.24805 25.9041C6.24805 29.8801 9.48005 33.1121 13.448 33.1121C17.416 33.1121 20.648 29.8721 20.648 25.9041ZM7.44005 25.9041C7.44005 22.5921 10.136 19.9041 13.44 19.9041C16.744 19.9041 19.44 22.6001 19.44 25.9041C19.44 29.2161 16.744 31.9121 13.44 31.9121C10.136 31.9121 7.44005 29.2081 7.44005 25.9041Z" fill="#505050"/>
<path d="M39 22.4717C39 20.0237 34.6 18.6957 30.456 18.6957C27.712 18.6957 24.864 19.2797 23.248 20.3837C22.096 18.2237 20.704 16.4317 19.16 15.1197C19.904 14.7677 20.416 14.0157 20.416 13.1437C20.416 11.9277 19.432 10.9437 18.216 10.9437H18L20.08 5.59168C20.192 5.30368 20.064 4.97568 19.784 4.83968C17.776 3.83968 15.624 4.47968 13.552 5.08768C11.296 5.75168 9.352 6.32768 7.776 4.92768C7.56 4.73568 7.256 4.71968 7.024 4.87168C6.792 5.02368 6.704 5.31968 6.808 5.58368L8.888 10.9357H8.672C7.456 10.9357 6.472 11.9197 6.472 13.1357C6.472 14.0077 6.992 14.7597 7.728 15.1117C5.984 16.6157 4.4 18.7437 3.184 21.2397C1.808 24.0877 1.008 27.2157 1 29.8237V29.8957C1 30.2237 1.264 30.4957 1.592 30.4957H1.6C1.928 30.4877 2.2 30.2237 2.2 29.8877C2.192 29.8637 2.192 29.8477 2.192 29.8237C2.176 25.3277 5.112 18.2717 9.368 15.3277H17.496C19.304 16.5917 21.024 18.6797 22.336 21.2157C22.064 21.5917 21.912 22.0077 21.912 22.4637C21.912 22.4637 21.912 26.3677 21.912 26.3757C21.912 26.3837 21.912 26.3837 21.912 26.3917V30.2797C21.912 30.2877 21.912 30.3197 21.912 30.3197V34.2077C21.912 34.4957 21.976 34.7597 22.088 35.0157C20.024 36.1997 16.712 36.3837 13.688 36.3837H13.232C7.824 36.3837 3.968 35.7757 2.728 32.7757C2.6 32.4797 2.232 32.3357 1.936 32.4637C1.632 32.5917 1.496 32.9437 1.624 33.2477C2.44 35.0797 3.952 36.2797 6.24 36.9197C8.408 37.5197 11.096 37.5837 13.448 37.5837C17.016 37.5757 20.408 37.4237 22.824 35.9757C24.328 37.2877 27.456 37.9917 30.456 37.9917C34.6 37.9917 39 36.6717 39 34.2157V22.4717ZM8.552 6.74368C10.24 7.31168 12.088 6.75968 13.888 6.23168C15.624 5.71968 17.272 5.23168 18.744 5.70368L16.712 10.9437H10.184L8.552 6.74368ZM8.672 12.1357H9.768H17.12H18.216C18.768 12.1357 19.216 12.5837 19.216 13.1357C19.216 13.6877 18.768 14.1357 18.216 14.1357H17.688C17.688 14.1357 17.688 14.1357 17.68 14.1357H9.184C9.184 14.1357 9.184 14.1357 9.176 14.1357H8.672C8.12 14.1357 7.672 13.6877 7.672 13.1357C7.672 12.5837 8.12 12.1357 8.672 12.1357ZM30.456 28.9357C26.256 28.9357 23.112 27.5757 23.112 26.3597V24.4637C24.704 25.6237 27.64 26.2397 30.456 26.2397C33.272 26.2397 36.208 25.6237 37.8 24.4637V26.3597C37.8 27.5757 34.656 28.9357 30.456 28.9357ZM37.8 30.2877C37.8 31.5037 34.656 32.8637 30.456 32.8637C26.256 32.8637 23.112 31.5037 23.112 30.2877V28.3997C24.704 29.5597 27.64 30.1757 30.456 30.1757C33.272 30.1757 36.208 29.5677 37.8 28.3997V30.2877ZM37.8 22.4717C37.8 23.6877 34.656 25.0477 30.456 25.0477C26.256 25.0477 23.112 23.6877 23.112 22.4717C23.112 21.2557 26.256 19.8957 30.456 19.8957C34.656 19.8957 37.8 21.2557 37.8 22.4717ZM37.8 34.2237C37.8 35.4397 34.656 36.7997 30.456 36.7997C27.04 36.7997 24.328 35.9037 23.432 34.9197C23.424 34.9037 23.424 34.8957 23.416 34.8797C23.408 34.8637 23.392 34.8557 23.376 34.8477C23.208 34.6397 23.112 34.4317 23.112 34.2317V32.3437C24.704 33.5037 27.64 34.1197 30.456 34.1197C33.272 34.1197 36.208 33.5117 37.8 32.3437V34.2237Z" fill="#505050"/>
<path d="M1.82378 32.0793C2.15178 32.0233 2.37578 31.7193 2.31978 31.3913C2.26378 31.0633 1.95178 30.8393 1.62378 30.8953C1.29578 30.9513 1.07978 31.2633 1.13578 31.5913C1.13578 31.5993 1.13578 31.5993 1.13578 31.6073C1.19178 31.8873 1.43178 32.0873 1.72778 32.0873C1.75978 32.0873 1.79178 32.0873 1.82378 32.0793Z" fill="#505050"/>
</svg>
