<svg width="20" height="20" viewBox="0 0 20 20" fill="none" xmlns="http://www.w3.org/2000/svg">
<path d="M10.4063 2.91699C10.6272 2.91699 10.8392 3.00475 10.9954 3.16098L15.1621 7.32765C15.2417 7.40452 15.3052 7.49647 15.3488 7.59814C15.3925 7.69981 15.4155 7.80916 15.4165 7.91981C15.4174 8.03046 15.3963 8.1402 15.3544 8.24261C15.3125 8.34502 15.2507 8.43807 15.1724 8.51631C15.0942 8.59455 15.0011 8.65643 14.8987 8.69833C14.7963 8.74023 14.6866 8.76132 14.5759 8.76036C14.4653 8.7594 14.3559 8.73641 14.2543 8.69273C14.1526 8.64906 14.0606 8.58557 13.9838 8.50598L11.2396 5.76181V16.2501C11.2396 16.4712 11.1518 16.6831 10.9955 16.8394C10.8392 16.9957 10.6273 17.0835 10.4063 17.0835C10.1853 17.0835 9.97329 16.9957 9.81701 16.8394C9.66073 16.6831 9.57293 16.4712 9.57293 16.2501V5.76181L6.82876 8.50598C6.6716 8.65778 6.46109 8.74177 6.2426 8.73988C6.0241 8.73798 5.81509 8.65034 5.66058 8.49583C5.50608 8.34132 5.41843 8.13231 5.41654 7.91382C5.41464 7.69532 5.49863 7.48482 5.65043 7.32765L9.8171 3.16098C9.97337 3.00475 10.1853 2.91699 10.4063 2.91699Z" fill="#5ED070"/>
</svg>
