<svg width="40" height="40" viewBox="0 0 40 40" fill="none" xmlns="http://www.w3.org/2000/svg">
<path d="M0.904053 26.1839C3.06405 27.3199 5.52005 27.9679 8.12805 27.9679C16.7441 27.9679 23.7201 20.9839 23.7201 12.3759C23.7201 8.55194 22.3361 5.05594 20.0561 2.33594H0.904053V26.1839Z" fill="#FEE7B5"/>
<path d="M1.69604 12.4072V31.8232H4.32005L33.248 15.0312V12.4072H1.69604Z" fill="white"/>
<path d="M4.32007 15.0312V34.4392H6.94407L35.8721 17.6552V15.0312H4.32007Z" fill="#5ED070"/>
<path d="M38.4961 17.6553H6.94409V37.0713H38.4961V17.6553Z" fill="white"/>
<path d="M10.144 31.4635V23.2555C11.472 23.2555 12.544 22.1835 12.544 20.8555H32.896C32.896 22.1835 33.968 23.2555 35.296 23.2555V31.4715C33.968 31.4715 32.896 32.5435 32.896 33.8715H12.544C12.544 32.5435 11.472 31.4635 10.144 31.4635Z" fill="#5ED070"/>
<path d="M22.7199 24.5195C23.3359 24.5195 23.8399 25.0235 23.8399 25.6395C23.8399 25.9675 24.1119 26.2395 24.4399 26.2395C24.7679 26.2395 25.0399 25.9675 25.0399 25.6395C25.0399 24.5675 24.3039 23.6715 23.3199 23.4075V23.0395C23.3199 22.7115 23.0479 22.4395 22.7199 22.4395C22.3919 22.4395 22.1199 22.7115 22.1199 23.0395V23.4155C21.1359 23.6795 20.3999 24.5755 20.3999 25.6475C20.3999 26.9275 21.4399 27.9675 22.7199 27.9675C23.3359 27.9675 23.8399 28.4715 23.8399 29.0875C23.8399 29.7035 23.3359 30.2075 22.7199 30.2075C22.1039 30.2075 21.5999 29.7035 21.5999 29.0875C21.5999 28.7595 21.3279 28.4875 20.9999 28.4875C20.6719 28.4875 20.3999 28.7595 20.3999 29.0875C20.3999 30.1595 21.1359 31.0555 22.1199 31.3195V31.6955C22.1199 32.0235 22.3919 32.2955 22.7199 32.2955C23.0479 32.2955 23.3199 32.0235 23.3199 31.6955V31.3195C24.3039 31.0555 25.0399 30.1595 25.0399 29.0875C25.0399 27.8075 23.9999 26.7675 22.7199 26.7675C22.1039 26.7675 21.5999 26.2635 21.5999 25.6475C21.5999 25.0315 22.1039 24.5195 22.7199 24.5195Z" fill="#505050"/>
<path d="M38.9199 17.2316C38.8079 17.1196 38.6559 17.0556 38.4959 17.0556H36.4719V15.0316C36.4719 14.7036 36.1999 14.4316 35.8719 14.4316H33.8479V12.4076C33.8479 12.0796 33.5759 11.8076 33.2479 11.8076H1.69595C1.36795 11.8076 1.09595 12.0796 1.09595 12.4076V31.8236C1.09595 32.1516 1.36795 32.4236 1.69595 32.4236H3.71995V34.4396C3.71995 34.7676 3.99195 35.0396 4.31995 35.0396H6.34395V37.0636C6.34395 37.2236 6.40795 37.3836 6.51995 37.4956C6.63195 37.5996 6.78395 37.6636 6.94395 37.6636H38.4959C38.6559 37.6636 38.8079 37.6076 38.9199 37.4956C39.0319 37.3756 39.0959 37.2236 39.0959 37.0636V34.4316C39.0959 34.1036 38.8239 33.8316 38.4959 33.8316C38.1599 33.8316 37.8959 34.1036 37.8959 34.4316V36.4716H7.54395V18.2556H35.8719H37.8959V31.2316C37.8959 31.5596 38.1599 31.8316 38.4959 31.8316C38.8239 31.8316 39.0959 31.5596 39.0959 31.2316C39.0959 31.2236 39.0959 31.2236 39.0959 31.2236V17.6556C39.0959 17.4956 39.0319 17.3436 38.9199 17.2316ZM2.29595 31.2236V13.0076H32.6479V14.4316H4.31995C3.99195 14.4316 3.71995 14.7036 3.71995 15.0316V31.2236H2.29595ZM6.94395 17.0556C6.78395 17.0556 6.63195 17.1196 6.51995 17.2316C6.40795 17.3436 6.34395 17.4956 6.34395 17.6556V33.8396H4.91995V15.6316H35.2719V17.0556H6.94395Z" fill="#505050"/>
<path d="M38.496 33.4314C38.8274 33.4314 39.096 33.1628 39.096 32.8314C39.096 32.5001 38.8274 32.2314 38.496 32.2314C38.1646 32.2314 37.896 32.5001 37.896 32.8314C37.896 33.1628 38.1646 33.4314 38.496 33.4314Z" fill="#505050"/>
<path d="M35.2959 22.6559C34.3039 22.6559 33.4959 21.8479 33.4959 20.8559C33.4959 20.5279 33.2239 20.2559 32.8959 20.2559H12.5439C12.2159 20.2559 11.9439 20.5279 11.9439 20.8559C11.9439 21.8479 11.1359 22.6559 10.1439 22.6559C9.81595 22.6559 9.54395 22.9279 9.54395 23.2559V31.4719C9.54395 31.7999 9.81595 32.0719 10.1439 32.0719C11.1359 32.0719 11.9439 32.8799 11.9439 33.8719C11.9439 34.1999 12.2159 34.4719 12.5439 34.4719H32.8959C33.2239 34.4719 33.4959 34.1999 33.4959 33.8719C33.4959 32.8799 34.3039 32.0719 35.2959 32.0719C35.6239 32.0719 35.8959 31.7999 35.8959 31.4719V23.2559C35.8959 22.9199 35.6239 22.6559 35.2959 22.6559ZM34.6959 30.9279C33.5199 31.1679 32.5919 32.0959 32.3599 33.2639H13.0879C12.8479 32.0879 11.9199 31.1599 10.7519 30.9279V23.7919C11.9279 23.5519 12.8559 22.6239 13.0879 21.4559H32.3599C32.5999 22.6319 33.5279 23.5599 34.6959 23.7919V30.9279Z" fill="#505050"/>
</svg>
