<svg width="20" height="20" viewBox="0 0 20 20" fill="none" xmlns="http://www.w3.org/2000/svg">
<path d="M10.427 17.083C10.206 17.083 9.99409 16.9952 9.83782 16.839L5.67115 12.6724C5.59156 12.5955 5.52808 12.5035 5.4844 12.4019C5.44073 12.3002 5.41774 12.1908 5.41678 12.0802C5.41582 11.9695 5.4369 11.8598 5.4788 11.7574C5.5207 11.655 5.58258 11.5619 5.66083 11.4837C5.73907 11.4054 5.83211 11.3436 5.93453 11.3017C6.03694 11.2598 6.14667 11.2387 6.25732 11.2396C6.36797 11.2406 6.47732 11.2636 6.57899 11.3073C6.68066 11.3509 6.77262 11.4144 6.84949 11.494L9.59365 14.2382L9.59365 3.74985C9.59365 3.52884 9.68145 3.31688 9.83773 3.1606C9.99401 3.00432 10.206 2.91652 10.427 2.91652C10.648 2.91652 10.86 3.00432 11.0162 3.1606C11.1725 3.31688 11.2603 3.52884 11.2603 3.74985L11.2603 14.2382L14.0045 11.494C14.1617 11.3422 14.3722 11.2582 14.5907 11.2601C14.8092 11.262 15.0182 11.3497 15.1727 11.5042C15.3272 11.6587 15.4148 11.8677 15.4167 12.0862C15.4186 12.3047 15.3346 12.5152 15.1828 12.6724L11.0162 16.839C10.8599 16.9952 10.648 17.083 10.427 17.083Z" fill="#FF6B6B"/>
</svg>
