<svg width="40" height="40" viewBox="0 0 40 40" fill="none" xmlns="http://www.w3.org/2000/svg">
<path d="M26.7369 34.1516C26.7369 24.8716 19.2169 17.3516 9.93689 17.3516C7.34489 17.3516 4.90489 17.9516 2.71289 18.9996V39.1996H25.9609C26.4649 37.6076 26.7369 35.9116 26.7369 34.1516Z" fill="#FEE7B5"/>
<path d="M36.6894 8.0236C36.6894 11.6876 33.7214 14.6636 30.0574 14.6636C29.4174 14.6636 28.8014 14.5676 28.2174 14.3996L24.8334 16.6556L25.6414 12.9676C24.2894 11.7436 23.4414 9.9836 23.4414 8.0236C23.4414 4.3596 26.4094 1.3916 30.0734 1.3916C33.7214 1.3996 36.6894 4.3676 36.6894 8.0236Z" fill="#5ED070"/>
<path d="M20.4409 18.0401V26.4961C20.4409 27.6721 19.4889 28.6241 18.3129 28.6241H17.2649V38.2001H10.3049V28.6161H9.25691C8.08091 28.6161 7.12891 27.6641 7.12891 26.4881V18.0401C7.12891 16.8641 8.08091 15.9121 9.25691 15.9121H18.3129C19.4889 15.9121 20.4409 16.8641 20.4409 18.0401Z" fill="#FFEF5A"/>
<path d="M9.07422 8.35965C9.07422 5.75165 11.1862 3.63965 13.7942 3.63965C16.4022 3.63965 18.5142 5.75165 18.5142 8.35965C18.5142 10.9676 16.4022 13.0796 13.7942 13.0796C11.1862 13.0716 9.07422 10.9596 9.07422 8.35965Z" fill="#FFEF5A"/>
<path d="M18.3133 15.3115H9.2573C7.7613 15.3115 6.5373 16.5355 6.5293 18.0315V18.6395C6.5293 18.9675 6.8013 19.2395 7.1293 19.2395C7.4653 19.2395 7.7293 18.9675 7.7293 18.6395V18.0315C7.7293 17.1915 8.4173 16.5035 9.2573 16.5035H18.3133C19.1533 16.5035 19.8413 17.1915 19.8413 18.0315V26.4875C19.8413 27.3275 19.1533 28.0155 18.3133 28.0155H17.8653V24.9035C17.8653 24.5755 17.5933 24.3035 17.2653 24.3035C16.9373 24.3035 16.6653 24.5755 16.6653 24.9035V28.6155V37.5915H14.3853V34.2635C14.3853 33.9355 14.1133 33.6635 13.7853 33.6635C13.4573 33.6635 13.1853 33.9355 13.1853 34.2635V37.5915H10.9053V28.6315C10.9053 28.6235 10.9053 28.6235 10.9053 28.6155V24.9035C10.9053 24.5755 10.6333 24.3035 10.3053 24.3035C9.9773 24.3035 9.7053 24.5755 9.7053 24.9035V28.0155H9.2573C8.4173 28.0155 7.7293 27.3275 7.7293 26.4875V21.8395C7.7293 21.5115 7.4653 21.2395 7.1293 21.2395C6.8013 21.2395 6.5293 21.5115 6.5293 21.8395V26.4875C6.5373 27.9915 7.7613 29.2155 9.2573 29.2155H9.7053V38.1915C9.7053 38.3515 9.7693 38.5035 9.8813 38.6155C9.9933 38.7275 10.1533 38.7915 10.3053 38.7915H17.2653C17.4253 38.7915 17.5693 38.7355 17.6893 38.6155C17.8013 38.5035 17.8653 38.3515 17.8653 38.1915V29.2155H18.3133C19.8173 29.2155 21.0413 27.9915 21.0413 26.4875V18.0315C21.0413 16.5355 19.8173 15.3115 18.3133 15.3115Z" fill="#505050"/>
<path d="M7.1293 20.8396C7.46067 20.8396 7.7293 20.571 7.7293 20.2396C7.7293 19.9083 7.46067 19.6396 7.1293 19.6396C6.79793 19.6396 6.5293 19.9083 6.5293 20.2396C6.5293 20.571 6.79793 20.8396 7.1293 20.8396Z" fill="#505050"/>
<path d="M13.7848 13.672C16.7128 13.672 19.1048 11.288 19.1048 8.35204C19.1048 5.41604 16.7208 3.04004 13.7848 3.04004C10.8488 3.04004 8.46484 5.42404 8.46484 8.36004C8.46484 11.296 10.8568 13.672 13.7848 13.672ZM13.7848 4.24004C16.0568 4.24004 17.9048 6.08804 17.9048 8.36004C17.9048 10.632 16.0568 12.48 13.7848 12.48C11.5128 12.48 9.66484 10.632 9.66484 8.36004C9.66484 6.08804 11.5208 4.24004 13.7848 4.24004Z" fill="#505050"/>
<path d="M30.066 0.799805C26.082 0.799805 22.834 4.0398 22.834 8.0318C22.834 9.9598 23.61 11.8158 24.978 13.1758L24.242 16.5358C24.186 16.7758 24.29 17.0238 24.49 17.1598C24.594 17.2318 24.714 17.2638 24.826 17.2638C24.946 17.2638 25.058 17.2318 25.162 17.1598L28.322 15.0478C28.89 15.1918 29.474 15.2558 30.058 15.2558C34.042 15.2558 37.29 12.0078 37.29 8.0238C37.29 4.0398 34.05 0.799805 30.066 0.799805ZM30.066 14.0638C29.506 14.0638 28.938 13.9838 28.386 13.8238C28.218 13.7758 28.034 13.7998 27.89 13.9038L25.738 15.3358L26.226 13.0958C26.274 12.8878 26.202 12.6638 26.042 12.5198C24.77 11.3678 24.034 9.7278 24.034 8.0238C24.034 4.6958 26.738 1.9918 30.066 1.9918C33.394 1.9918 36.098 4.6958 36.098 8.0238C36.09 11.3518 33.386 14.0638 30.066 14.0638Z" fill="#505050"/>
<path d="M33.4886 4.96777H26.4086C26.0806 4.96777 25.8086 5.23977 25.8086 5.56777C25.8086 5.89577 26.0806 6.16777 26.4086 6.16777H33.4886C33.8166 6.16777 34.0886 5.89577 34.0886 5.56777C34.0886 5.23977 33.8246 4.96777 33.4886 4.96777Z" fill="#505050"/>
<path d="M33.4886 7.4082H26.4086C26.0806 7.4082 25.8086 7.6802 25.8086 8.0082C25.8086 8.3362 26.0806 8.6082 26.4086 8.6082H33.4886C33.8166 8.6082 34.0886 8.3362 34.0886 8.0082C34.0886 7.6802 33.8246 7.4082 33.4886 7.4082Z" fill="#505050"/>
<path d="M31.6004 9.83984H26.4164C26.0884 9.83984 25.8164 10.1118 25.8164 10.4398C25.8164 10.7678 26.0884 11.0398 26.4164 11.0398H31.6004C31.9284 11.0398 32.2004 10.7678 32.2004 10.4398C32.2004 10.1118 31.9284 9.83984 31.6004 9.83984Z" fill="#505050"/>
</svg>
