<svg width="40" height="40" viewBox="0 0 40 40" fill="none" xmlns="http://www.w3.org/2000/svg">
<path d="M22.3047 21.9523C22.3047 31.2323 29.8247 38.7523 39.1047 38.7523V5.15234C29.8247 5.15234 22.3047 12.6723 22.3047 21.9523Z" fill="#FEE7B5"/>
<path d="M28.5201 38.3997C33.9193 38.3997 38.2961 34.0228 38.2961 28.6237C38.2961 23.2245 33.9193 18.8477 28.5201 18.8477C23.121 18.8477 18.7441 23.2245 18.7441 28.6237C18.7441 34.0228 23.121 38.3997 28.5201 38.3997Z" fill="#FADC00"/>
<path d="M28.52 35.8956C32.5363 35.8956 35.792 32.6398 35.792 28.6236C35.792 24.6073 32.5363 21.3516 28.52 21.3516C24.5038 21.3516 21.248 24.6073 21.248 28.6236C21.248 32.6398 24.5038 35.8956 28.52 35.8956Z" fill="#FDE4A1"/>
<path d="M26.2881 3.37561V15.0796C26.2881 16.0556 25.4961 16.8476 24.5201 16.8476H3.26409C2.28809 16.8476 1.49609 16.0556 1.49609 15.0796V3.37561C1.49609 2.39161 2.29609 1.59961 3.26409 1.59961H24.5121C25.4881 1.59961 26.2881 2.39961 26.2881 3.37561Z" fill="#5ED070"/>
<path d="M23.9195 5.73577V12.7198C22.9435 12.7198 22.1515 13.5118 22.1515 14.4878H5.62347C5.62347 13.5038 4.83147 12.7198 3.85547 12.7198V5.73577C4.83147 5.73577 5.62347 4.94377 5.62347 3.96777H22.1515C22.1515 4.93577 22.9435 5.73577 23.9195 5.73577Z" fill="white"/>
<path d="M28.5201 18.2402C23.3121 18.2402 18.8881 22.1282 18.2241 27.2882C18.2081 27.4482 18.2481 27.6002 18.3441 27.7282C18.4481 27.8562 18.5841 27.9362 18.7441 27.9602C19.0721 28.0002 19.3761 27.7602 19.4161 27.4402C20.0001 22.8802 23.9121 19.4402 28.5201 19.4402C33.5761 19.4482 37.6961 23.5682 37.7041 28.6242C37.6961 33.6722 33.5761 37.7922 28.5201 37.8002C24.1601 37.8002 20.3681 34.6962 19.5201 30.4242C19.4561 30.1122 19.1361 29.8882 18.8161 29.9602C18.6561 29.9922 18.5201 30.0802 18.4321 30.2082C18.3441 30.3442 18.3121 30.5042 18.3441 30.6642C19.3041 35.4962 23.5841 39.0002 28.5201 39.0002C34.2481 39.0002 38.9041 34.3442 38.9041 28.6242C38.9041 22.8962 34.2481 18.2402 28.5201 18.2402Z" fill="#505050"/>
<path d="M18.7685 29.5604C19.0965 29.5444 19.3605 29.2643 19.3445 28.9363C19.3365 28.6163 19.0725 28.3604 18.7525 28.3604H18.7285C18.5685 28.3604 18.4165 28.4324 18.3125 28.5444C18.2005 28.6644 18.1445 28.8164 18.1445 28.9764C18.1605 29.3044 18.4245 29.5604 18.7445 29.5604C18.7525 29.5604 18.7525 29.5604 18.7685 29.5604Z" fill="#505050"/>
<path d="M28.5204 36.496C32.8644 36.496 36.3924 32.968 36.3924 28.624C36.3924 24.28 32.8644 20.752 28.5204 20.752C24.1764 20.752 20.6484 24.28 20.6484 28.624C20.6484 32.96 24.1764 36.496 28.5204 36.496ZM28.5204 21.952C32.2004 21.952 35.1924 24.944 35.1924 28.624C35.1924 32.304 32.2004 35.296 28.5204 35.296C24.8404 35.296 21.8484 32.304 21.8484 28.624C21.8484 24.944 24.8404 21.952 28.5204 21.952Z" fill="#505050"/>
<path d="M28.5197 31.3364C27.9357 31.3364 27.4637 30.8644 27.4637 30.2804C27.4637 29.9524 27.1917 29.6804 26.8637 29.6804C26.5357 29.6804 26.2637 29.9524 26.2637 30.2804C26.2637 31.3124 26.9677 32.1764 27.9197 32.4484V32.7924C27.9197 33.1204 28.1917 33.3924 28.5197 33.3924C28.8477 33.3924 29.1197 33.1204 29.1197 32.7924V32.4484C30.0717 32.1844 30.7757 31.3204 30.7757 30.2804C30.7757 29.0404 29.7677 28.0244 28.5197 28.0244C27.9357 28.0244 27.4637 27.5524 27.4637 26.9684C27.4637 26.3844 27.9357 25.9124 28.5197 25.9124C29.1037 25.9124 29.5757 26.3844 29.5757 26.9684C29.5757 27.2964 29.8477 27.5684 30.1757 27.5684C30.5037 27.5684 30.7757 27.2964 30.7757 26.9684C30.7757 25.9364 30.0717 25.0724 29.1197 24.8004V24.4564C29.1197 24.1284 28.8477 23.8564 28.5197 23.8564C28.1917 23.8564 27.9197 24.1284 27.9197 24.4564V24.8004C26.9677 25.0644 26.2637 25.9284 26.2637 26.9684C26.2637 28.2084 27.2717 29.2244 28.5197 29.2244C29.1037 29.2244 29.5757 29.6964 29.5757 30.2804C29.5757 30.8644 29.0957 31.3364 28.5197 31.3364Z" fill="#505050"/>
<path d="M13.8875 7.36768C14.3035 7.36768 14.6395 7.70368 14.6395 8.11968C14.6395 8.44768 14.9115 8.71968 15.2395 8.71968C15.5675 8.71968 15.8395 8.44768 15.8395 8.11968C15.8395 7.25568 15.2715 6.52768 14.4875 6.27168V6.07168C14.4875 5.74368 14.2155 5.47168 13.8875 5.47168C13.5595 5.47168 13.2875 5.74368 13.2875 6.07168V6.27168C12.5035 6.52768 11.9355 7.25568 11.9355 8.11968C11.9355 9.19168 12.8075 10.0717 13.8875 10.0717C14.3035 10.0717 14.6395 10.4077 14.6395 10.8237C14.6395 11.2397 14.3035 11.5757 13.8875 11.5757C13.4715 11.5757 13.1355 11.2397 13.1355 10.8237C13.1355 10.4957 12.8635 10.2237 12.5355 10.2237C12.2075 10.2237 11.9355 10.4957 11.9355 10.8237C11.9355 11.6877 12.5035 12.4157 13.2875 12.6717V12.8717C13.2875 13.1997 13.5595 13.4717 13.8875 13.4717C14.2155 13.4717 14.4875 13.1997 14.4875 12.8717V12.6717C15.2715 12.4157 15.8395 11.6877 15.8395 10.8237C15.8395 9.75168 14.9675 8.87168 13.8875 8.87168C13.4715 8.87168 13.1355 8.53568 13.1355 8.11968C13.1355 7.71168 13.4795 7.36768 13.8875 7.36768Z" fill="#505050"/>
<path d="M7.6003 16.848C7.6003 16.528 7.3363 16.256 7.0083 16.256C7.0083 16.248 7.0003 16.248 7.0003 16.248H3.2643C2.6243 16.248 2.1043 15.728 2.1043 15.088V3.376C2.1043 2.728 2.6243 2.2 3.2643 2.2H24.5203C25.1603 2.2 25.6883 2.728 25.6883 3.376V15.08C25.6883 15.728 25.1603 16.248 24.5203 16.248H10.2003C9.8643 16.248 9.6003 16.52 9.6003 16.848C9.6003 17.184 9.8643 17.456 10.2003 17.456L24.5123 17.448C25.8163 17.448 26.8803 16.384 26.8803 15.08V3.376C26.8803 2.064 25.8163 1 24.5123 1H3.2643C1.9603 1 0.904297 2.064 0.904297 3.376V15.088C0.904297 16.392 1.9603 17.448 3.2643 17.448H7.0083C7.3363 17.448 7.6003 17.184 7.6003 16.848Z" fill="#505050"/>
<path d="M8.6 17.448C8.93137 17.448 9.2 17.1794 9.2 16.848C9.2 16.5167 8.93137 16.248 8.6 16.248C8.26863 16.248 8 16.5167 8 16.848C8 17.1794 8.26863 17.448 8.6 17.448Z" fill="#505050"/>
<path d="M22.7519 14.4882C22.7519 13.8402 23.2799 13.3122 23.9199 13.3122C24.2479 13.3122 24.5199 13.0402 24.5199 12.7122V5.73616C24.5199 5.40816 24.2479 5.13616 23.9199 5.13616C23.2719 5.13616 22.7519 4.60816 22.7519 3.96816C22.7519 3.64016 22.4799 3.36816 22.1519 3.36816H5.62386C5.29586 3.36816 5.02386 3.64016 5.02386 3.96816C5.02386 4.61616 4.50386 5.13616 3.85586 5.13616C3.52786 5.13616 3.25586 5.40816 3.25586 5.73616V12.7202C3.25586 13.0482 3.52786 13.3202 3.85586 13.3202C4.49586 13.3202 5.02386 13.8482 5.02386 14.4962C5.02386 14.8242 5.29586 15.0962 5.62386 15.0962H22.1519C22.4799 15.0882 22.7519 14.8242 22.7519 14.4882ZM6.15186 13.8882C5.93586 13.0642 5.28786 12.4082 4.46386 12.1922V6.25616C5.27986 6.04016 5.93586 5.39216 6.15186 4.56016H21.6319C21.8479 5.38416 22.5039 6.04016 23.3279 6.25616V12.1922C22.5039 12.4082 21.8479 13.0642 21.6319 13.8882H6.15186Z" fill="#505050"/>
<path d="M28.8891 9.2797C31.5851 9.2797 33.8331 11.1997 34.3531 13.7437L32.2251 12.4877C31.9451 12.3197 31.5691 12.4157 31.4011 12.7037C31.2331 12.9917 31.3291 13.3597 31.6171 13.5277L34.7611 15.3837C34.8571 15.4397 34.9611 15.4637 35.0651 15.4637C35.2731 15.4637 35.4731 15.3597 35.5851 15.1677L37.4411 12.0237C37.6091 11.7357 37.5131 11.3677 37.2251 11.1997C36.9451 11.0317 36.5691 11.1277 36.4011 11.4157L35.4171 13.0877C34.6331 10.2157 32.0011 8.0957 28.8891 8.0957C28.5611 8.0957 28.2891 8.3677 28.2891 8.6957C28.2891 9.0237 28.5611 9.2797 28.8891 9.2797Z" fill="#505050"/>
<path d="M14.912 30.7277C12.216 30.7277 9.96801 28.8077 9.44801 26.2637L11.576 27.5197C11.864 27.6877 12.232 27.5917 12.4 27.3037C12.568 27.0157 12.472 26.6477 12.184 26.4797L9.04001 24.6237C8.76001 24.4557 8.38401 24.5517 8.21601 24.8397L6.36001 27.9837C6.19201 28.2717 6.28801 28.6397 6.57601 28.8077C6.67201 28.8637 6.77601 28.8877 6.88001 28.8877C7.08801 28.8877 7.28801 28.7837 7.40001 28.5917L8.38401 26.9197C9.16801 29.7917 11.8 31.9117 14.912 31.9117C15.24 31.9117 15.512 31.6397 15.512 31.3117C15.512 30.9837 15.24 30.7277 14.912 30.7277Z" fill="#505050"/>
</svg>
