<svg width="40" height="40" viewBox="0 0 40 40" fill="none" xmlns="http://www.w3.org/2000/svg">
<path d="M1.81641 22.3677C3.76041 23.1517 5.88041 23.5997 8.11241 23.5997C17.3924 23.5997 24.9124 16.0797 24.9124 6.79966C24.9124 4.70366 24.5124 2.69566 23.8084 0.847656H1.81641V22.3677Z" fill="#FEE7B5"/>
<path d="M30.3595 9.85547H37.5835C37.5915 9.85547 37.5915 9.85547 37.5915 9.86347V30.6395H4.43945V9.85547H11.5835" fill="#9BEAF9"/>
<path d="M15.536 18.847H26.496C28.888 17.135 30.448 14.343 30.448 11.183C30.448 5.97498 26.224 1.75098 21.016 1.75098C15.808 1.75098 11.584 5.97498 11.584 11.183C11.584 14.351 13.144 17.143 15.536 18.847Z" fill="#E9F4BC"/>
<path d="M37.5913 30.6396H4.44727V34.1197H37.5913V30.6396Z" fill="white"/>
<path d="M16.3599 34.127H25.6719L28.3599 38.551H13.6719L16.3599 34.127Z" fill="#FADC00"/>
<path d="M31.1996 31.2391C31.531 31.2391 31.7996 30.9704 31.7996 30.6391C31.7996 30.3077 31.531 30.0391 31.1996 30.0391C30.8682 30.0391 30.5996 30.3077 30.5996 30.6391C30.5996 30.9704 30.8682 31.2391 31.1996 31.2391Z" fill="#505050"/>
<path d="M38.1838 9.85537C38.1838 9.68737 38.1118 9.52737 37.9838 9.40737H37.9758C37.8718 9.30337 37.7278 9.24737 37.5758 9.24737H30.8478C29.9518 4.63937 25.8798 1.15137 21.0158 1.15137C16.1518 1.15137 12.0798 4.63937 11.1758 9.24737H4.43984C4.27984 9.24737 4.12784 9.31137 4.01584 9.42337C3.90384 9.53537 3.83984 9.69537 3.83984 9.84737V34.1194C3.83984 34.4474 4.11184 34.7194 4.43984 34.7194H15.2878L13.3278 37.9514H10.7438C10.4158 37.9514 10.1438 38.2234 10.1438 38.5514C10.1438 38.8794 10.4158 39.1514 10.7438 39.1514H31.2798C31.6078 39.1514 31.8798 38.8794 31.8798 38.5514C31.8798 38.2234 31.6078 37.9514 31.2798 37.9514H28.6958L26.7358 34.7194H37.5838C37.9118 34.7194 38.1838 34.4474 38.1838 34.1194V9.85537ZM14.7358 37.9514L16.6958 34.7194H25.3358L27.2958 37.9514H14.7358ZM21.0158 2.35137C25.8878 2.35137 29.8478 6.31137 29.8478 11.1834C29.8478 13.9594 28.5278 16.5834 26.2958 18.2474H15.7358C13.5118 16.5834 12.1918 13.9514 12.1918 11.1834C12.1838 6.31937 16.1438 2.35137 21.0158 2.35137ZM5.03984 33.5194V31.2394H29.5998C29.9278 31.2394 30.1998 30.9674 30.1998 30.6394C30.1998 30.3114 29.9278 30.0394 29.5998 30.0394H5.03984V10.4474H11.0238C11.0078 10.6874 10.9838 10.9354 10.9838 11.1834C10.9838 13.8474 12.0718 16.3834 13.9278 18.2474H12.4958C12.1678 18.2474 11.8958 18.5194 11.8958 18.8474C11.8958 19.1754 12.1678 19.4474 12.4958 19.4474H29.5278C29.8558 19.4474 30.1278 19.1754 30.1278 18.8474C30.1278 18.5194 29.8558 18.2474 29.5278 18.2474H28.0958C29.9598 16.3834 31.0398 13.8474 31.0398 11.1834C31.0398 10.9354 31.0238 10.6954 30.9998 10.4474H36.9758V30.0394H32.7998C32.4638 30.0394 32.1998 30.3114 32.1998 30.6394C32.1998 30.9674 32.4638 31.2394 32.7998 31.2394H36.9838V33.5194H5.03984Z" fill="#505050"/>
<path d="M21.0156 14.5356C20.2556 14.5356 19.6316 13.9196 19.6316 13.1516C19.6316 12.8236 19.3596 12.5516 19.0316 12.5516C18.7036 12.5516 18.4316 12.8236 18.4316 13.1516C18.4316 14.3676 19.2796 15.3836 20.4156 15.6556V16.1516C20.4156 16.4796 20.6876 16.7516 21.0156 16.7516C21.3436 16.7516 21.6156 16.4796 21.6156 16.1516V15.6556C22.7516 15.3836 23.5996 14.3676 23.5996 13.1516C23.5996 11.7276 22.4396 10.5676 21.0156 10.5676C20.2556 10.5676 19.6316 9.95161 19.6316 9.18361C19.6316 8.42361 20.2476 7.79961 21.0156 7.79961C21.7836 7.79961 22.3996 8.41561 22.3996 9.18361C22.3996 9.51161 22.6716 9.78361 22.9996 9.78361C23.3276 9.78361 23.5996 9.51161 23.5996 9.18361C23.5996 7.96761 22.7516 6.95161 21.6156 6.67961V6.19961C21.6156 5.87161 21.3436 5.59961 21.0156 5.59961C20.6876 5.59961 20.4156 5.87161 20.4156 6.19961V6.69561C19.2796 6.96761 18.4316 7.98361 18.4316 9.19961C18.4316 10.6236 19.5916 11.7836 21.0156 11.7836C21.7756 11.7836 22.3996 12.3996 22.3996 13.1676C22.3996 13.9356 21.7756 14.5356 21.0156 14.5356Z" fill="#505050"/>
</svg>
