<svg width="40" height="40" viewBox="0 0 40 40" fill="none" xmlns="http://www.w3.org/2000/svg">
<path d="M39.1041 15.2C37.4721 14.672 35.7281 14.376 33.9201 14.376C24.6401 14.376 17.1201 21.896 17.1201 31.176C17.1201 33.632 17.6561 35.96 18.6081 38.064H39.1041V15.2Z" fill="#FEE7B5"/>
<path d="M33.3922 2.53613H6.40822C5.53622 2.53613 4.82422 3.24813 4.82422 4.12013V22.9041H34.9682V4.12013C34.9682 3.25613 34.2642 2.53613 33.3922 2.53613Z" fill="#9BEAF9"/>
<path d="M38.3042 27.9601H1.50415L4.83215 22.9121H34.9681L38.3042 27.9601Z" fill="#FADC00"/>
<path d="M38.3041 27.96H1.50415V31.16H38.3041V27.96Z" fill="#CDF6FC"/>
<path d="M12.7841 17.2637H10.2881V20.9117H12.7841V17.2637Z" fill="white"/>
<path d="M17.8881 14.8877H15.3921V20.9117H17.8881V14.8877Z" fill="#E9F4BC"/>
<path d="M22.9921 11.7363H20.4961V20.9123H22.9921V11.7363Z" fill="white"/>
<path d="M28.6881 8.16016H26.1921V20.9122H28.6881V8.16016Z" fill="#E9F4BC"/>
<path d="M4.83193 16.0564C5.1633 16.0564 5.43193 15.7878 5.43193 15.4564C5.43193 15.1251 5.1633 14.8564 4.83193 14.8564C4.50056 14.8564 4.23193 15.1251 4.23193 15.4564C4.23193 15.7878 4.50056 16.0564 4.83193 16.0564Z" fill="#505050"/>
<path d="M38.8961 27.9443C38.8961 27.9283 38.8881 27.9123 38.8881 27.8963C38.8801 27.8163 38.8561 27.7363 38.8161 27.6723C38.8081 27.6643 38.8081 27.6483 38.8001 27.6323L35.5681 22.7283V6.94434C35.5761 6.92834 35.5761 6.91234 35.5761 6.90434C35.5761 6.89634 35.5761 6.89634 35.5681 6.88834V4.12034C35.5681 2.92034 34.5921 1.94434 33.3921 1.94434H6.41605C5.20805 1.94434 4.23205 2.92034 4.23205 4.12034V13.8563C4.23205 14.1923 4.50405 14.4563 4.83205 14.4563C5.16005 14.4563 5.43205 14.1923 5.43205 13.8563V4.12034C5.43205 3.58434 5.87205 3.14434 6.41605 3.13634H33.3921C33.9281 3.14434 34.3681 3.58434 34.3681 4.12034V6.90434C34.3681 6.92034 34.3761 6.92834 34.3761 6.94434L34.3681 22.3123H5.43205V17.0563C5.43205 16.7283 5.16005 16.4563 4.83205 16.4563C4.50405 16.4563 4.24005 16.7203 4.23205 17.0483V17.0563V22.7283L1.00005 27.6323C0.992053 27.6403 0.992053 27.6563 0.984053 27.6723C0.944053 27.7443 0.920053 27.8163 0.912053 27.8963C0.912053 27.9123 0.904053 27.9283 0.904053 27.9443C0.904053 27.9523 0.904053 27.9523 0.904053 27.9603V31.1603C0.904053 31.4883 1.17605 31.7603 1.50405 31.7603H38.3041C38.6321 31.7603 38.9041 31.4883 38.9041 31.1603V27.9603C38.9041 27.9523 38.8961 27.9523 38.8961 27.9443ZM5.15205 23.5123H34.6481L37.1841 27.3603H2.61605L5.15205 23.5123ZM37.7041 30.5603H2.10405V28.5603H37.7041V30.5603Z" fill="#505050"/>
<path d="M9.68799 17.2641V20.9121C9.68799 21.2401 9.95999 21.5121 10.288 21.5121H12.784C13.112 21.5121 13.384 21.2401 13.384 20.9121V17.2641C13.384 16.9361 13.112 16.6641 12.784 16.6641H10.288C9.95999 16.6641 9.68799 16.9361 9.68799 17.2641ZM10.888 17.8641H12.184V20.3121H10.888V17.8641Z" fill="#505050"/>
<path d="M15.392 14.2881C15.064 14.2881 14.792 14.5601 14.792 14.8881V20.9121C14.792 21.2401 15.064 21.5121 15.392 21.5121H17.888C18.216 21.5121 18.488 21.2401 18.488 20.9121V14.8881C18.488 14.5601 18.216 14.2881 17.888 14.2881H15.392ZM17.288 20.3121H15.992V15.4881H17.288V20.3121Z" fill="#505050"/>
<path d="M20.496 11.1367C20.168 11.1367 19.896 11.4087 19.896 11.7367V20.9127C19.896 21.2407 20.168 21.5127 20.496 21.5127H22.992C23.32 21.5127 23.592 21.2407 23.592 20.9127V11.7367C23.592 11.4087 23.32 11.1367 22.992 11.1367H20.496ZM22.392 20.3127H21.096V12.3367H22.392V20.3127Z" fill="#505050"/>
<path d="M28.688 21.5125C29.016 21.5125 29.288 21.2405 29.288 20.9125V8.16055C29.288 7.83255 29.016 7.56055 28.688 7.56055H26.192C25.864 7.56055 25.592 7.83255 25.592 8.16055V20.9125C25.592 21.2405 25.864 21.5125 26.192 21.5125H28.688ZM26.792 8.76055H28.088V20.3125H26.792V8.76055Z" fill="#505050"/>
<path d="M11.8961 14.1365C12.0161 14.2965 12.2001 14.3845 12.3841 14.3845C12.5041 14.3845 12.6321 14.3445 12.7361 14.2645L22.0721 7.43254L21.9201 8.40054C21.8721 8.72854 22.0961 9.03254 22.4241 9.08854C22.4561 9.09654 22.4881 9.09654 22.5201 9.09654C22.8081 9.09654 23.0641 8.88854 23.1121 8.58454L23.4801 6.18454C23.5281 5.85654 23.3041 5.55254 22.9761 5.49654L20.5761 5.12854C20.2561 5.08054 19.9441 5.30454 19.8881 5.63254C19.8401 5.96054 20.0641 6.26454 20.3921 6.32054L21.3601 6.47254L12.0241 13.3045C11.7521 13.4965 11.6961 13.8645 11.8961 14.1365Z" fill="#505050"/>
</svg>
