<svg width="40" height="40" viewBox="0 0 40 40" fill="none" xmlns="http://www.w3.org/2000/svg">
<g clip-path="url(#clip0_369_2044)">
<path d="M0.751953 22.4243C2.69595 23.2083 4.81595 23.6563 7.04795 23.6563C16.328 23.6563 23.848 16.1363 23.848 6.8563C23.848 4.7603 23.448 2.7523 22.744 0.904297H0.751953V22.4243Z" fill="#FEE7B5"/>
<path d="M38.2638 24.8005H33.1918V31.4565C33.1918 32.4405 32.3998 33.2405 31.4078 33.2405H24.4318V38.5125H10.8558V26.2565C7.71977 23.5605 5.79977 19.4885 6.01577 14.9845C6.35977 8.00046 11.9598 2.24846 18.9358 1.73646C26.9518 1.15246 33.6558 7.33646 33.9358 15.1445L38.2638 24.8005Z" fill="white"/>
<path d="M29.7757 15.8407C29.7757 18.9367 28.3917 21.7127 26.1997 23.5847C24.4237 25.0967 22.1197 26.0087 19.6077 26.0087C17.0957 26.0087 14.7917 25.0967 13.0157 23.5847C10.8317 21.7127 9.4397 18.9447 9.4397 15.8407C9.4397 12.7447 10.8237 9.96866 13.0157 8.10466C14.7917 6.59266 17.0957 5.68066 19.6077 5.68066C22.1197 5.68066 24.4237 6.59266 26.1997 8.10466C28.3917 9.96866 29.7757 12.7367 29.7757 15.8407Z" fill="#9BEAF9"/>
<path d="M11.2318 29.8484C11.5632 29.8484 11.8318 29.5798 11.8318 29.2484C11.8318 28.9171 11.5632 28.6484 11.2318 28.6484C10.9005 28.6484 10.6318 28.9171 10.6318 29.2484C10.6318 29.5798 10.9005 29.8484 11.2318 29.8484Z" fill="#505050"/>
<path d="M39.1919 24.5522L34.9119 15.0002C34.8399 13.3842 34.4959 11.8002 33.9039 10.2882L33.8959 10.2722C32.8239 7.59222 30.9999 5.31222 28.6239 3.67222C25.8959 1.78422 22.6639 0.88822 19.2639 1.13622C15.7439 1.40022 12.4319 2.95222 9.93588 5.51222C7.43988 8.07222 5.96788 11.4242 5.79988 14.9522C5.78388 15.1682 5.77588 15.4002 5.77588 15.6802C5.77588 19.8162 7.55188 23.7682 10.6319 26.5282V27.6482C10.6319 27.9762 10.9039 28.2482 11.2319 28.2482C11.5679 28.2482 11.8319 27.9762 11.8319 27.6482C11.8319 27.6402 11.8319 27.6402 11.8319 27.6322V26.2562C11.8319 26.0802 11.7599 25.9122 11.6239 25.8002C8.67188 23.2562 6.97588 19.5682 6.97588 15.6802C6.97588 15.4402 6.98388 15.2242 6.99188 15.0162C7.31188 8.38422 12.7439 2.81622 19.3519 2.33622C19.6799 2.31222 20.0159 2.29622 20.3599 2.29622C25.8479 2.29622 30.7199 5.59222 32.7679 10.6802L32.7759 10.7122C32.7759 10.7122 32.7759 10.7202 32.7839 10.7202C33.3439 12.1362 33.6639 13.6322 33.7199 15.1762L33.7679 15.3922L37.7119 24.1922H33.5679C33.4079 24.1922 33.2559 24.2562 33.1439 24.3682C33.0319 24.4802 32.9679 24.6322 32.9679 24.7922V31.4482C32.9679 32.0962 32.4399 32.6242 31.7919 32.6242H24.8159C24.6559 32.6242 24.5039 32.6882 24.3919 32.8002C24.2799 32.9122 24.2159 33.0722 24.2159 33.2242V37.8962H11.8319V30.8482C11.8319 30.5202 11.5679 30.2482 11.2319 30.2482C10.9039 30.2482 10.6319 30.5202 10.6319 30.8482V38.4962C10.6319 38.6562 10.6959 38.8082 10.8079 38.9202C10.9199 39.0322 11.0799 39.0962 11.2319 39.0962H24.8159C24.9759 39.0962 25.1279 39.0322 25.2399 38.9202C25.3519 38.8082 25.4159 38.6562 25.4159 38.4962V33.8242H31.7919C33.0959 33.8242 34.1679 32.7602 34.1679 31.4482V25.3922H38.6399C38.8479 25.3922 39.0399 25.2882 39.1439 25.1202C39.2559 24.9522 39.2719 24.7282 39.1919 24.5522Z" fill="#505050"/>
<path d="M26.9759 24.0403C29.3839 21.9843 30.7599 19.0003 30.7599 15.8403C30.7599 12.6883 29.3839 9.69627 26.9759 7.64027C25.0319 5.98427 22.5519 5.07227 19.9919 5.07227C17.4319 5.07227 14.9519 5.98427 13.0079 7.64027C10.6079 9.69627 9.22388 12.6803 9.22388 15.8403C9.22388 18.9923 10.5999 21.9843 13.0079 24.0403C14.9519 25.6963 17.4319 26.6083 19.9919 26.6083C22.5519 26.6083 25.0239 25.6963 26.9759 24.0403ZM23.8479 22.5763C24.4639 22.8483 25.0559 23.1843 25.6079 23.5843C24.6959 24.2483 23.6719 24.7363 22.5919 25.0483C22.8479 24.7043 23.0959 24.3043 23.3199 23.8563C23.5119 23.4563 23.6879 23.0243 23.8479 22.5763ZM22.2479 23.3123C21.7519 24.3203 21.1759 24.9843 20.5919 25.2643V21.7843C21.3199 21.8323 22.0319 21.9603 22.7199 22.1603C22.5759 22.5683 22.4159 22.9603 22.2479 23.3123ZM20.5919 20.5763V16.4323H23.6799C23.6399 18.0723 23.4319 19.6403 23.0719 21.0083C22.2719 20.7763 21.4399 20.6243 20.5919 20.5763ZM20.5919 15.2403V11.0963C21.4399 11.0483 22.2719 10.9043 23.0719 10.6643C23.4319 12.0323 23.6399 13.6003 23.6799 15.2403H20.5919ZM20.5919 9.89627V6.41627C21.1759 6.68827 21.7439 7.36027 22.2479 8.36827C22.4239 8.72027 22.5759 9.11227 22.7199 9.52027C22.0319 9.72827 21.3119 9.84827 20.5919 9.89627ZM23.3199 7.83227C23.0959 7.38427 22.8559 6.98427 22.5919 6.63227C23.6719 6.93627 24.6959 7.43227 25.6079 8.09627C25.0559 8.49627 24.4639 8.83227 23.8479 9.10427C23.6879 8.65627 23.5119 8.22427 23.3199 7.83227ZM16.1359 9.10427C15.5199 8.83227 14.9279 8.49627 14.3759 8.09627C15.2879 7.43227 16.3119 6.93627 17.3919 6.63227C17.1359 6.97627 16.8879 7.37627 16.6639 7.83227C16.4719 8.22427 16.2959 8.65627 16.1359 9.10427ZM17.7359 8.36827C18.2319 7.36027 18.8079 6.69627 19.3919 6.41627V9.89627C18.6639 9.84827 17.9519 9.72027 17.2639 9.52027C17.4079 9.11227 17.5599 8.72027 17.7359 8.36827ZM19.3919 11.0963V15.2403H16.3039C16.3439 13.6003 16.5519 12.0323 16.9119 10.6643C17.7119 10.9043 18.5439 11.0483 19.3919 11.0963ZM19.3919 16.4403V20.5843C18.5439 20.6323 17.7119 20.7763 16.9119 21.0163C16.5519 19.6483 16.3439 18.0803 16.3039 16.4403H19.3919ZM19.3919 21.7763V25.2563C18.8079 24.9843 18.2399 24.3123 17.7359 23.3123C17.5599 22.9603 17.4079 22.5683 17.2639 22.1523C17.9519 21.9523 18.6639 21.8243 19.3919 21.7763ZM16.6639 23.8483C16.8879 24.2963 17.1279 24.6963 17.3919 25.0403C16.3119 24.7363 15.2879 24.2403 14.3759 23.5763C14.9279 23.1763 15.5199 22.8403 16.1359 22.5683C16.2959 23.0243 16.4719 23.4563 16.6639 23.8483ZM26.5439 22.7923C25.8239 22.2323 25.0319 21.7763 24.1999 21.4243C24.5999 19.9283 24.8319 18.2163 24.8799 16.4403H29.5279C29.3759 18.8563 28.3119 21.1203 26.5439 22.7923ZM29.5279 15.2403H24.8799C24.8399 13.4563 24.5999 11.7523 24.1999 10.2563C25.0319 9.90427 25.8159 9.44827 26.5439 8.88827C28.3119 10.5603 29.3759 12.8243 29.5279 15.2403ZM13.4319 8.88827C14.1519 9.44027 14.9439 9.90427 15.7759 10.2563C15.3759 11.7523 15.1439 13.4563 15.0959 15.2403H10.4479C10.6079 12.8243 11.6719 10.5603 13.4319 8.88827ZM10.4559 16.4403H15.1039C15.1439 18.2163 15.3839 19.9283 15.7839 21.4243C14.9519 21.7763 14.1679 22.2403 13.4399 22.7923C11.6719 21.1203 10.6079 18.8563 10.4559 16.4403Z" fill="#505050"/>
</g>
<defs>
<clipPath id="clip0_369_2044">
<rect width="40" height="40" fill="white"/>
</clipPath>
</defs>
</svg>
