<svg width="40" height="40" viewBox="0 0 40 40" fill="none" xmlns="http://www.w3.org/2000/svg">
<path d="M31.8248 35.1043C31.8248 27.4163 25.7128 20.9843 18.0248 20.9043C17.9688 20.9043 17.9048 20.9043 17.8488 20.9043C8.56883 20.9043 1.04883 28.4243 1.04883 37.7043C1.04883 38.1763 1.08083 38.6403 1.12083 39.1043H31.8248V35.1043Z" fill="#FEE7B5"/>
<path d="M9.49614 28.0967H4.74414V32.8487H9.49614V28.0967Z" fill="black"/>
<path d="M20.5365 5.08105H26.4405V38.3051H2.14453V5.08105H8.04853" fill="white"/>
<path d="M20.8012 6.58488H7.78516L8.40916 3.08088H12.7212C12.7212 2.20088 13.4332 1.50488 14.2972 1.50488C15.1692 1.50488 15.8732 2.20888 15.8732 3.08088H20.1852L20.8012 6.58488Z" fill="#C6C6C6"/>
<path d="M9.49614 11.6562H4.74414V16.4083H9.49614V11.6562Z" fill="#9BEAF9"/>
<path d="M9.49614 19.8809H4.74414V24.6329H9.49614V19.8809Z" fill="#9BEAF9"/>
<path d="M9.49614 28.0967H4.74414V32.8487H9.49614V28.0967Z" fill="#9BEAF9"/>
<path d="M30.4883 8.30497V28.977L33.0003 34.009L35.5123 28.977V8.30497C35.5123 6.92097 34.3843 5.79297 33.0003 5.79297C31.6083 5.79297 30.4883 6.92097 30.4883 8.30497Z" fill="#FF9D9C"/>
<path d="M30.4883 28.8164V28.9764L33.0003 34.0084L35.5123 28.9764V28.8164H30.4883Z" fill="white"/>
<path d="M4.15234 32.8481C4.15234 33.1761 4.42434 33.4481 4.75234 33.4481H9.50434C9.83234 33.4481 10.1043 33.1761 10.1043 32.8481V28.0961C10.1043 27.7681 9.83234 27.4961 9.50434 27.4961H4.75234C4.42434 27.4961 4.15234 27.7681 4.15234 28.0961V32.8481ZM5.35234 28.6961H8.90434V32.2481H5.35234V28.6961Z" fill="#505050"/>
<path d="M23.6418 28.7924C23.6418 28.4644 23.3698 28.1924 23.0418 28.1924H12.2738C11.9458 28.1924 11.6738 28.4644 11.6738 28.7924C11.6738 29.1204 11.9458 29.3924 12.2738 29.3924H23.0418C23.3778 29.3924 23.6418 29.1204 23.6418 28.7924Z" fill="#505050"/>
<path d="M12.2738 30.8643C11.9458 30.8643 11.6738 31.1363 11.6738 31.4643C11.6738 31.7923 11.9458 32.0643 12.2738 32.0643H16.9138C17.2418 32.0643 17.5138 31.7923 17.5138 31.4643C17.5138 31.1363 17.2418 30.8643 16.9138 30.8643H12.2738Z" fill="#505050"/>
<path d="M26.4496 35.7684C26.781 35.7684 27.0496 35.4997 27.0496 35.1684C27.0496 34.837 26.781 34.5684 26.4496 34.5684C26.1182 34.5684 25.8496 34.837 25.8496 35.1684C25.8496 35.4997 26.1182 35.7684 26.4496 35.7684Z" fill="#505050"/>
<path d="M26.4489 4.48048H21.0489L20.7769 2.96848C20.7209 2.68848 20.4729 2.47248 20.1849 2.47248H16.3929C16.1289 1.54448 15.2649 0.896484 14.2969 0.896484C13.3209 0.896484 12.4649 1.54448 12.2009 2.47248H8.40892C8.11292 2.47248 7.86492 2.68848 7.81692 2.96848L7.54492 4.48048H2.14492C1.98492 4.48048 1.83292 4.54448 1.72092 4.65648C1.60892 4.76848 1.54492 4.92048 1.54492 5.08048V38.2965C1.54492 38.4565 1.60892 38.6085 1.72092 38.7205C1.83292 38.8325 1.98492 38.8965 2.14492 38.8965H26.4489C26.6089 38.8965 26.7609 38.8325 26.8729 38.7205C26.9849 38.6085 27.0489 38.4565 27.0489 38.2965V36.7685C27.0489 36.4405 26.7769 36.1685 26.4489 36.1685C26.1129 36.1685 25.8489 36.4405 25.8489 36.7685V37.6965H2.74492V5.68048H7.33692L7.19292 6.47248C7.16092 6.64848 7.20892 6.82448 7.32892 6.96048C7.44092 7.09648 7.60892 7.17648 7.78492 7.17648H20.8089C20.9849 7.17648 21.1529 7.09648 21.2649 6.96048C21.3769 6.82448 21.4249 6.64848 21.4009 6.47248L21.2569 5.68048H25.8489V33.5685C25.8489 33.9045 26.1129 34.1685 26.4489 34.1685C26.7769 34.1685 27.0489 33.9045 27.0489 33.5685V5.08048C27.0489 4.92048 26.9849 4.76848 26.8729 4.65648C26.7529 4.54448 26.6089 4.48048 26.4489 4.48048ZM8.49692 5.97648L8.91292 3.67248H12.7129C12.8809 3.67248 13.0249 3.61648 13.1369 3.49648C13.2569 3.38448 13.3129 3.24048 13.3129 3.07248C13.3129 2.53648 13.7529 2.09648 14.2969 2.09648C14.8329 2.09648 15.2729 2.53648 15.2729 3.07248C15.2729 3.23248 15.3369 3.39248 15.4489 3.49648C15.5609 3.60848 15.7129 3.67248 15.8729 3.67248H19.6809L20.0889 5.97648H8.49692Z" fill="#505050"/>
<path d="M4.75234 17.0008H9.49634C9.65634 17.0008 9.80834 16.9368 9.92034 16.8248C10.0323 16.7128 10.0963 16.5608 10.0963 16.4008V11.6488C10.0963 11.4888 10.0323 11.3368 9.92034 11.2248C9.80834 11.1128 9.65634 11.0488 9.49634 11.0488H4.75234C4.59234 11.0488 4.44034 11.1128 4.32834 11.2248C4.21634 11.3368 4.15234 11.4888 4.15234 11.6488V16.4008C4.15234 16.5528 4.21634 16.7128 4.32834 16.8248C4.44034 16.9368 4.59234 17.0008 4.75234 17.0008ZM5.34434 12.2488H8.89634V15.8008H5.34434V12.2488Z" fill="#505050"/>
<path d="M12.2738 12.9441H23.0418C23.3778 12.9441 23.6418 12.6721 23.6418 12.3441C23.6418 12.0081 23.3778 11.7441 23.0418 11.7441H12.2738C11.9458 11.7441 11.6738 12.0081 11.6738 12.3441C11.6738 12.6721 11.9458 12.9441 12.2738 12.9441Z" fill="#505050"/>
<path d="M12.2738 15.616H16.9218C17.2498 15.616 17.5218 15.344 17.5218 15.016C17.5218 14.68 17.2498 14.416 16.9218 14.416H12.2738C11.9458 14.416 11.6738 14.68 11.6738 15.016C11.6738 15.344 11.9458 15.616 12.2738 15.616Z" fill="#505050"/>
<path d="M4.15234 24.6245C4.15234 24.7845 4.21634 24.9365 4.32834 25.0485C4.43234 25.1605 4.59234 25.2245 4.75234 25.2245H9.49634C9.65634 25.2245 9.80834 25.1605 9.92034 25.0485C10.0323 24.9365 10.0963 24.7845 10.0963 24.6245V19.8725C10.0963 19.7125 10.0323 19.5605 9.92034 19.4485C9.80834 19.3365 9.65634 19.2725 9.49634 19.2725H4.75234C4.59234 19.2725 4.43234 19.3365 4.32834 19.4485C4.21634 19.5605 4.15234 19.7125 4.15234 19.8725V24.6245ZM5.34434 20.4725H8.89634V24.0245H5.34434V20.4725Z" fill="#505050"/>
<path d="M12.2738 21.1688H23.0418C23.3778 21.1688 23.6418 20.8968 23.6418 20.5688C23.6418 20.2328 23.3778 19.9688 23.0418 19.9688H12.2738C11.9458 19.9688 11.6738 20.2328 11.6738 20.5688C11.6738 20.8968 11.9458 21.1688 12.2738 21.1688Z" fill="#505050"/>
<path d="M12.2738 23.8406H16.9218C17.2498 23.8406 17.5218 23.5686 17.5218 23.2406C17.5218 22.9046 17.2498 22.6406 16.9218 22.6406H12.2738C11.9458 22.6406 11.6738 22.9046 11.6738 23.2406C11.6738 23.5686 11.9458 23.8406 12.2738 23.8406Z" fill="#505050"/>
<path d="M35.5121 25.4969C35.8435 25.4969 36.1121 25.2282 36.1121 24.8969C36.1121 24.5655 35.8435 24.2969 35.5121 24.2969C35.1807 24.2969 34.9121 24.5655 34.9121 24.8969C34.9121 25.2282 35.1807 25.4969 35.5121 25.4969Z" fill="#505050"/>
<path d="M38.7767 10.2244C38.6647 10.1124 38.5127 10.0484 38.3527 10.0484H36.1127V8.30438C36.1127 6.58438 34.7207 5.19238 33.0007 5.19238C31.2887 5.19238 29.8887 6.58438 29.8887 8.30438V28.9844L29.8967 29.0244C29.9047 29.0964 29.9207 29.1684 29.9447 29.2324V29.2484L32.4567 34.2804C32.5607 34.4884 32.7687 34.6084 32.9927 34.6084C33.2247 34.6084 33.4327 34.4884 33.5287 34.2804L36.0487 29.2404V29.2244C36.0807 29.1524 36.1047 29.0724 36.1047 28.9844V26.5044C36.1047 26.1684 35.8407 25.9044 35.5047 25.9044C35.1767 25.9044 34.9047 26.1684 34.9047 26.5044V28.3844H31.0807V11.2484H34.9047V23.2964C34.9047 23.6244 35.1767 23.8964 35.5047 23.8964C35.8407 23.8964 36.1047 23.6244 36.1047 23.2964V11.2484H37.7447V20.4404C37.7447 20.7764 38.0167 21.0404 38.3447 21.0404C38.6727 21.0404 38.9447 20.7764 38.9447 20.4404V10.6484C38.9527 10.4884 38.8887 10.3364 38.7767 10.2244ZM33.0007 32.6644L31.4567 29.5764H34.5367L33.0007 32.6644ZM31.0887 10.0484V8.30438C31.0967 7.24838 31.9527 6.39238 33.0007 6.39238C34.0567 6.39238 34.9127 7.24838 34.9127 8.30438V10.0484H31.0887Z" fill="#505050"/>
</svg>
