<svg width="40" height="40" viewBox="0 0 40 40" fill="none" xmlns="http://www.w3.org/2000/svg">
<path d="M15.7441 1.7043C15.7441 10.9843 23.2641 18.5043 32.5441 18.5043C34.8161 18.5043 36.9761 18.0483 38.9521 17.2323V0.904297H15.7841C15.7761 1.1683 15.7441 1.4323 15.7441 1.7043Z" fill="#FEE7B5"/>
<path d="M37.2894 17.1129C36.9614 16.7849 36.5054 16.5689 36.0094 16.5449C34.8734 16.4809 33.9534 17.4649 33.9534 18.6009V24.8649C33.8734 24.5129 33.6974 24.1769 33.4254 23.9129C32.6654 23.1449 31.4254 23.1529 30.6574 23.9129L26.5774 27.993C25.7374 28.833 25.2734 29.9689 25.2734 31.1449V36.121H31.9214V33.8089L37.0334 28.705C37.5694 28.169 37.8734 27.4409 37.8734 26.6889V18.4969C37.8574 17.9609 37.6414 17.4729 37.2894 17.1129Z" fill="white"/>
<path d="M33.5199 36.1123H23.9199V38.4963H33.5199V36.1123Z" fill="#FEE7B5"/>
<path d="M12.9284 27.9851L8.84844 23.9051C8.08844 23.1451 6.84844 23.1371 6.08044 23.9051C5.80844 24.1771 5.63244 24.5131 5.55244 24.8571V18.5931C5.55244 17.4571 4.62444 16.4731 3.49644 16.5371C3.00044 16.5611 2.54444 16.7771 2.21644 17.1051C1.86444 17.4571 1.64844 17.9531 1.64844 18.4891V26.6731C1.64844 27.4331 1.95244 28.1531 2.48844 28.6891L7.60044 33.7931V36.1051H14.2484V31.1291C14.2404 29.9531 13.7684 28.8251 12.9284 27.9851Z" fill="white"/>
<path d="M5.98203 38.5029L15.582 38.5029L15.582 36.1189L5.98203 36.1189L5.98203 38.5029Z" fill="#FEE7B5"/>
<path d="M19.7525 24.2491C25.9778 24.2491 31.0245 19.2024 31.0245 12.9771C31.0245 6.75172 25.9778 1.70508 19.7525 1.70508C13.5271 1.70508 8.48047 6.75172 8.48047 12.9771C8.48047 19.2024 13.5271 24.2491 19.7525 24.2491Z" fill="#E9F4BC"/>
<path d="M19.7536 21.0485C15.3056 21.0485 11.6816 17.4245 11.6816 12.9765C11.6816 8.52848 15.2976 4.89648 19.7536 4.89648C24.2096 4.89648 27.8256 8.52048 27.8256 12.9685C27.8256 17.4165 24.2016 21.0485 19.7536 21.0485Z" fill="#5ED070"/>
<path d="M37.7121 16.6882C37.2641 16.2402 36.6641 15.9682 36.0401 15.9442C35.3601 15.9122 34.7041 16.1522 34.1921 16.6322C33.6561 17.1442 33.3441 17.8562 33.3441 18.6002V23.0962C32.9521 22.8642 32.5041 22.7362 32.0401 22.7362C31.3601 22.7362 30.7121 23.0002 30.2321 23.4882L26.1521 27.5682C25.1921 28.5282 24.6721 29.7922 24.6721 31.1522V35.5282H23.9281C23.6001 35.5282 23.3281 35.8002 23.3281 36.1282V38.5122C23.3281 38.8402 23.6001 39.1122 23.9281 39.1122H33.5281C33.8561 39.1122 34.1281 38.8402 34.1281 38.5122V36.1282C34.1281 35.8002 33.8561 35.5282 33.5281 35.5282H32.5201V34.0642L37.4481 29.1362C38.1041 28.4882 38.4641 27.6162 38.4641 26.6962V18.4962C38.4641 17.8162 38.2001 17.1762 37.7121 16.6882ZM32.9281 37.8962H24.5281V36.7122H25.2721H31.9201H32.9281V37.8962ZM37.2641 26.6802C37.2641 27.2802 37.0321 27.8482 36.6001 28.2722L31.4961 33.3762C31.3841 33.4882 31.3201 33.6402 31.3201 33.8002V35.5122H25.8721V31.1362C25.8721 30.1042 26.2721 29.1362 27.0081 28.4082L31.0881 24.3282C31.3441 24.0722 31.6641 23.9442 32.0481 23.9282C32.4081 23.9282 32.7441 24.0722 33.0081 24.3282C33.1601 24.4802 33.2561 24.6642 33.3281 24.8642C33.2801 25.0002 33.2161 25.1362 33.1201 25.2642C33.0881 25.3122 33.0481 25.3522 32.9681 25.4402L29.9281 29.1522C29.7201 29.4082 29.7521 29.7842 30.0081 30.0002C30.1201 30.0882 30.2561 30.1362 30.3921 30.1362C30.5681 30.1362 30.7361 30.0642 30.8561 29.9202L33.8561 26.2562C33.9441 26.1762 34.0161 26.0802 34.0881 25.9922C34.2961 25.7202 34.4321 25.4162 34.5121 25.0962C34.5201 25.0802 34.5201 25.0722 34.5281 25.0562C34.5361 25.0322 34.5441 25.0082 34.5521 24.9842C34.5601 24.9682 34.5521 24.9442 34.5521 24.9282C34.5521 24.9042 34.5681 24.8802 34.5681 24.8642V18.6002C34.5681 18.1922 34.7361 17.7922 35.0401 17.5042C35.3041 17.2482 35.6561 17.1282 36.0001 17.1442C36.3361 17.1602 36.6481 17.3042 36.8801 17.5362C37.1361 17.8002 37.2801 18.1362 37.2801 18.4962V26.6802H37.2641Z" fill="#505050"/>
<path d="M15.5848 35.5124H14.8408V31.1364C14.8408 29.7844 14.3128 28.5124 13.3608 27.5524L9.28083 23.4724C8.80083 22.9924 8.15283 22.7204 7.47283 22.7204C7.47283 22.7204 7.47283 22.7204 7.46483 22.7204C7.00083 22.7204 6.55283 22.8484 6.16083 23.0804V18.5924C6.16083 17.8564 5.84883 17.1364 5.31283 16.6244C4.80083 16.1444 4.14483 15.8884 3.47283 15.9364C2.84083 15.9684 2.24883 16.2324 1.79283 16.6884C1.31283 17.1764 1.04883 17.8164 1.04883 18.4964V26.6804C1.04883 27.6004 1.40883 28.4724 2.05683 29.1204L6.99283 34.0484V35.5124H5.97683C5.64883 35.5124 5.37683 35.7844 5.37683 36.1124V38.4964C5.37683 38.8244 5.64883 39.0964 5.97683 39.0964H15.5768C15.9048 39.0964 16.1768 38.8244 16.1768 38.4964V36.1124C16.1848 35.7844 15.9128 35.5124 15.5848 35.5124ZM8.01683 33.3844L2.91283 28.2804C2.48883 27.8564 2.24883 27.2884 2.24883 26.6884V18.4964C2.24883 18.1364 2.39283 17.7924 2.64083 17.5364C2.88083 17.2964 3.19283 17.1524 3.52883 17.1364C3.88083 17.1124 4.21683 17.2484 4.48883 17.4964C4.78483 17.7764 4.96083 18.1764 4.96083 18.5924V24.8564C4.96083 24.8804 4.96883 24.8964 4.97683 24.9204C4.97683 24.9364 4.97683 24.9604 4.97683 24.9764C4.98483 25.0004 4.99283 25.0244 5.00083 25.0484C5.00083 25.0564 5.00883 25.0724 5.00883 25.0804C5.08883 25.4004 5.22483 25.7044 5.43283 25.9764C5.50483 26.0724 5.58483 26.1604 5.62483 26.2004L8.66483 29.9124C8.78483 30.0564 8.95283 30.1284 9.12883 30.1284C9.26483 30.1284 9.40083 30.0804 9.51283 29.9924C9.76883 29.7844 9.80883 29.4084 9.59283 29.1444L6.51283 25.3844C6.47283 25.3444 6.43283 25.2964 6.39283 25.2484C6.29683 25.1204 6.23283 24.9844 6.19283 24.8484C6.25683 24.6484 6.36083 24.4644 6.51283 24.3044C6.76883 24.0484 7.10483 23.9044 7.46483 23.9044C7.82483 23.9044 8.16883 24.0484 8.42483 24.3044L12.5048 28.3844C13.2328 29.1124 13.6328 30.0884 13.6328 31.1124V35.4884H8.18483V33.7764C8.19283 33.6484 8.12883 33.4964 8.01683 33.3844ZM14.9848 37.8964H6.57683V36.7124H7.58483H14.2328H14.9768V37.8964H14.9848Z" fill="#505050"/>
<path d="M9.45625 8.33623C9.54425 8.37623 9.64025 8.40023 9.73625 8.40023C9.96025 8.40023 10.1603 8.28023 10.2723 8.08023C10.4163 7.78423 10.3043 7.41623 10.0083 7.27223C9.72025 7.12023 9.34425 7.24023 9.20025 7.52823V7.53623C9.12825 7.67223 9.11225 7.83223 9.16025 7.98423C9.20825 8.13623 9.31225 8.26423 9.45625 8.33623Z" fill="#505050"/>
<path d="M31.6249 12.9687C31.6249 6.42468 26.3049 1.09668 19.7529 1.09668C15.9209 1.09668 12.3049 2.96068 10.0809 6.08868C9.88886 6.36068 9.95286 6.73668 10.2169 6.92868C10.4809 7.11268 10.8729 7.04868 11.0569 6.78468C13.0649 3.97668 16.3129 2.29668 19.7529 2.29668C25.6329 2.31268 30.4169 7.09668 30.4249 12.9687C30.4169 18.8487 25.6329 23.6327 19.7529 23.6487C13.8809 23.6327 9.09686 18.8487 9.08086 12.9687C9.08086 11.7767 9.28086 10.5927 9.67286 9.46468C9.77686 9.15268 9.60886 8.81668 9.29686 8.70468C9.00086 8.60068 8.64086 8.76868 8.53686 9.07268C8.10486 10.3207 7.88086 11.6327 7.88086 12.9687C7.88086 19.5207 13.2089 24.8407 19.7529 24.8487C26.3049 24.8407 31.6249 19.5207 31.6249 12.9687Z" fill="#505050"/>
<path d="M19.7521 21.6489C24.5361 21.6489 28.4241 17.7609 28.4241 12.9769C28.4241 8.19287 24.5361 4.29688 19.7521 4.29688C14.9681 4.29688 11.0801 8.18487 11.0801 12.9689C11.0801 17.7529 14.9681 21.6489 19.7521 21.6489ZM19.7521 5.49688C23.8721 5.49688 27.2241 8.84887 27.2241 12.9689C27.2241 17.0889 23.8721 20.4409 19.7521 20.4409C15.6321 20.4409 12.2801 17.0889 12.2801 12.9689C12.2801 8.84887 15.6321 5.49688 19.7521 5.49688Z" fill="#505050"/>
<path d="M19.7526 15.8883C19.1126 15.8883 18.5926 15.3683 18.5926 14.7283C18.5926 14.4003 18.3206 14.1283 17.9926 14.1283C17.6646 14.1283 17.3926 14.4003 17.3926 14.7283C17.3926 15.8163 18.1446 16.7283 19.1526 17.0003V17.3923C19.1526 17.7203 19.4246 17.9923 19.7526 17.9923C20.0806 17.9923 20.3526 17.7203 20.3526 17.3923V17.0003C21.3606 16.7363 22.1126 15.8243 22.1126 14.7283C22.1126 13.4243 21.0566 12.3683 19.7526 12.3683C19.1126 12.3683 18.5926 11.8483 18.5926 11.2083C18.5926 10.5683 19.1126 10.0483 19.7526 10.0483C20.3926 10.0483 20.9126 10.5683 20.9126 11.2083C20.9126 11.5363 21.1846 11.8083 21.5126 11.8083C21.8406 11.8083 22.1126 11.5363 22.1126 11.2083C22.1126 10.1203 21.3606 9.20834 20.3526 8.93634V8.54434C20.3526 8.21634 20.0806 7.94434 19.7526 7.94434C19.4246 7.94434 19.1526 8.21634 19.1526 8.54434V8.93634C18.1446 9.20034 17.3926 10.1123 17.3926 11.2083C17.3926 12.5123 18.4486 13.5683 19.7526 13.5683C20.3926 13.5683 20.9126 14.0883 20.9126 14.7283C20.9126 15.3683 20.3926 15.8883 19.7526 15.8883Z" fill="#505050"/>
</svg>
