<svg width="24" height="24" viewBox="0 0 24 24" fill="none" xmlns="http://www.w3.org/2000/svg">
<path d="M3 7.75C3 6.784 3.784 6 4.75 6H18.25C19.216 6 20 6.784 20 7.75V16.25C20 16.7141 19.8156 17.1592 19.4874 17.4874C19.1592 17.8156 18.7141 18 18.25 18H4.75C4.28587 18 3.84075 17.8156 3.51256 17.4874C3.18437 17.1592 3 16.7141 3 16.25V7.75ZM6 7.25V8.25C6 8.44891 5.92098 8.63968 5.78033 8.78033C5.63968 8.92098 5.44891 9 5.25 9H4.25V10.5H5.25C5.54547 10.5 5.83806 10.4418 6.11104 10.3287C6.38402 10.2157 6.63206 10.0499 6.84099 9.84099C7.04992 9.63206 7.21566 9.38402 7.32873 9.11104C7.4418 8.83805 7.5 8.54547 7.5 8.25V7.25H6ZM11.5 14.5C12.0967 14.5 12.669 14.2629 13.091 13.841C13.5129 13.419 13.75 12.8467 13.75 12.25C13.75 11.6533 13.5129 11.081 13.091 10.659C12.669 10.2371 12.0967 10 11.5 10C10.9033 10 10.331 10.2371 9.90901 10.659C9.48705 11.081 9.25 11.6533 9.25 12.25C9.25 12.8467 9.48705 13.419 9.90901 13.841C10.331 14.2629 10.9033 14.5 11.5 14.5ZM4.25 15H5.25C5.44891 15 5.63968 15.079 5.78033 15.2197C5.92098 15.3603 6 15.5511 6 15.75V16.75H7.5V15.75C7.5 15.1533 7.26295 14.581 6.84099 14.159C6.41903 13.7371 5.84674 13.5 5.25 13.5H4.25V15ZM17 15.75C17 15.5511 17.079 15.3603 17.2197 15.2197C17.3603 15.079 17.5511 15 17.75 15H18.75V13.5H17.75C17.1533 13.5 16.581 13.7371 16.159 14.159C15.7371 14.581 15.5 15.1533 15.5 15.75V16.75H17V15.75ZM17 8.25V7.25H15.5V8.25C15.5 8.54547 15.5582 8.83805 15.6713 9.11104C15.7843 9.38402 15.9501 9.63206 16.159 9.84099C16.581 10.2629 17.1533 10.5 17.75 10.5H18.75V9H17.75C17.5511 9 17.3603 8.92098 17.2197 8.78033C17.079 8.63968 17 8.44891 17 8.25Z" fill="black"/>
</svg>
