<svg width="34" height="34" viewBox="0 0 34 34" fill="none" xmlns="http://www.w3.org/2000/svg">
<g opacity="0.65">
<path d="M10.5289 10.6944L10.6066 10.6067C10.7799 10.4336 11.0106 10.33 11.2551 10.3157C11.4996 10.3013 11.7409 10.3772 11.9332 10.529L12.0209 10.6067L16.9706 15.5565L21.9203 10.6067C22.0936 10.4336 22.3243 10.33 22.5688 10.3157C22.8133 10.3013 23.0546 10.3772 23.2469 10.529L23.3346 10.6067C23.5077 10.78 23.6113 11.0107 23.6256 11.2552C23.64 11.4997 23.5641 11.741 23.4123 11.9333L23.3346 12.021L18.3848 16.9707L23.3346 21.9205C23.5077 22.0937 23.6113 22.3244 23.6256 22.5689C23.64 22.8134 23.5641 23.0547 23.4123 23.247L23.3346 23.3347C23.1613 23.5078 22.9306 23.6114 22.6861 23.6257C22.4416 23.6401 22.2003 23.5642 22.008 23.4124L21.9203 23.3347L16.9706 18.3849L12.0209 23.3347C11.8476 23.5078 11.6169 23.6114 11.3724 23.6257C11.1279 23.6401 10.8866 23.5642 10.6943 23.4124L10.6066 23.3347C10.4335 23.1614 10.3299 22.9307 10.3156 22.6862C10.3012 22.4417 10.3771 22.2004 10.5289 22.0081L10.6066 21.9205L15.5564 16.9707L10.6066 12.021C10.4335 11.8477 10.3299 11.617 10.3156 11.3725C10.3012 11.128 10.3771 10.8867 10.5289 10.6944L10.6066 10.6067L10.5289 10.6944Z" fill="#212121"/>
</g>
</svg>
