<svg width="40" height="40" viewBox="0 0 40 40" fill="none" xmlns="http://www.w3.org/2000/svg">
<path d="M14.1441 10.6729C9.65612 10.6729 5.58412 12.4489 2.56812 15.3129V39.0968H26.2481C29.1521 36.0808 30.9441 31.9849 30.9441 27.4649C30.9441 18.1929 23.4241 10.6729 14.1441 10.6729Z" fill="#FEE7B5"/>
<path d="M13.0962 35.4969H6.71216V1.50488H32.8162V4.30488" fill="#CDF6FC"/>
<path d="M36.8242 4.30469H13.0962V38.2967H36.8242V4.30469Z" fill="white"/>
<path d="M13.0961 27.0322C12.7681 27.0322 12.4961 27.2962 12.4961 27.6322C12.4961 27.9602 12.7681 28.2242 13.0961 28.2242C13.4241 28.2242 13.6961 27.9602 13.6961 27.6322C13.6961 27.2962 13.4241 27.0322 13.0961 27.0322Z" fill="#505050"/>
<path d="M37.2561 3.88048C37.1441 3.76848 36.9841 3.70448 36.8241 3.70448H33.4161V1.49648C33.4161 1.16848 33.1441 0.896484 32.8161 0.896484H6.72012C6.39212 0.896484 6.12012 1.16848 6.12012 1.49648V35.4885C6.12012 35.8165 6.39212 36.0885 6.72012 36.0885H12.5041V38.2965C12.5041 38.4565 12.5681 38.6085 12.6801 38.7205C12.7921 38.8325 12.9441 38.8965 13.1041 38.8965H36.8321C37.0001 38.8965 37.1441 38.8325 37.2561 38.7205C37.3681 38.6085 37.4321 38.4565 37.4321 38.2965V10.8885C37.4321 10.8725 37.4321 10.8645 37.4321 10.8485V4.30448C37.4241 4.14448 37.3601 3.99248 37.2561 3.88048ZM36.2241 37.6965H13.6961V35.4965C13.6961 35.4965 13.6961 35.4965 13.6961 35.4885C13.6961 35.4805 13.6961 35.4885 13.6961 35.4805V29.2245C13.6961 28.8885 13.4241 28.6245 13.0961 28.6245C12.7681 28.6245 12.4961 28.8885 12.4961 29.2245V34.8805H7.32012V2.09648H32.2241V3.70448H13.1041C12.9441 3.70448 12.7921 3.76848 12.6801 3.88048C12.5681 3.99248 12.5041 4.14448 12.5041 4.30448V26.0325C12.5041 26.3605 12.7761 26.6325 13.1041 26.6325C13.4321 26.6325 13.7041 26.3605 13.7041 26.0325V4.90448H36.2321V37.6965H36.2241Z" fill="#505050"/>
<path d="M24.464 10.616H33.528C33.856 10.616 34.128 10.344 34.128 10.016C34.128 9.68802 33.856 9.41602 33.528 9.41602H24.464C24.136 9.41602 23.864 9.68802 23.864 10.016C23.864 10.344 24.128 10.616 24.464 10.616Z" fill="#505050"/>
<path d="M24.464 14.448H33.528C33.856 14.448 34.128 14.176 34.128 13.848C34.128 13.52 33.856 13.248 33.528 13.248H24.464C24.136 13.248 23.864 13.52 23.864 13.848C23.864 14.176 24.128 14.448 24.464 14.448Z" fill="#505050"/>
<path d="M24.464 18.2723H33.528C33.856 18.2723 34.128 18.0003 34.128 17.6723C34.128 17.3443 33.856 17.0723 33.528 17.0723H24.464C24.136 17.0723 23.864 17.3443 23.864 17.6723C23.864 18.0003 24.128 18.2723 24.464 18.2723Z" fill="#505050"/>
<path d="M16.4 22.1043H33.5281C33.8561 22.1043 34.1281 21.8323 34.1281 21.5043C34.1281 21.1763 33.8561 20.9043 33.5281 20.9043H16.4C16.072 20.9043 15.8 21.1763 15.8 21.5043C15.8 21.8323 16.072 22.1043 16.4 22.1043Z" fill="#505050"/>
<path d="M16.4 25.9363H33.5281C33.8561 25.9363 34.1281 25.6643 34.1281 25.3363C34.1281 25.0083 33.8561 24.7363 33.5281 24.7363H16.4C16.072 24.7363 15.8 25.0083 15.8 25.3363C15.8 25.6643 16.072 25.9363 16.4 25.9363Z" fill="#505050"/>
<path d="M16.4 29.7684H28.024C28.352 29.7684 28.624 29.4964 28.624 29.1684C28.624 28.8404 28.352 28.5684 28.024 28.5684H16.4C16.072 28.5684 15.8 28.8404 15.8 29.1684C15.8 29.4964 16.072 29.7684 16.4 29.7684Z" fill="#505050"/>
<path d="M16.4 33.2889H28.024C28.352 33.2889 28.624 33.0169 28.624 32.6889C28.624 32.3609 28.352 32.0889 28.024 32.0889H16.4C16.072 32.0889 15.8 32.3609 15.8 32.6889C15.8 33.0169 16.072 33.2889 16.4 33.2889Z" fill="#505050"/>
<path d="M18.9122 15.9208C18.3442 15.9208 17.8882 15.4648 17.8882 14.8968C17.8882 14.5688 17.6162 14.2968 17.2882 14.2968C16.9602 14.2968 16.6882 14.5688 16.6882 14.8968C16.6882 15.9128 17.3762 16.7608 18.3122 17.0248V17.3528C18.3122 17.6808 18.5842 17.9528 18.9122 17.9528C19.2402 17.9528 19.5122 17.6808 19.5122 17.3528V17.0248C20.4482 16.7608 21.1362 15.9128 21.1362 14.8968C21.1362 13.6728 20.1362 12.6728 18.9122 12.6728C18.3442 12.6728 17.8882 12.2168 17.8882 11.6488C17.8882 11.0808 18.3442 10.6248 18.9122 10.6248C19.4802 10.6248 19.9362 11.0808 19.9362 11.6488C19.9362 11.9768 20.2082 12.2488 20.5362 12.2488C20.8642 12.2488 21.1362 11.9768 21.1362 11.6488C21.1362 10.6328 20.4482 9.78477 19.5122 9.52077V9.19277C19.5122 8.86477 19.2402 8.59277 18.9122 8.59277C18.5842 8.59277 18.3122 8.86477 18.3122 9.19277V9.52077C17.3762 9.78477 16.6882 10.6328 16.6882 11.6488C16.6882 12.8728 17.6882 13.8728 18.9122 13.8728C19.4802 13.8728 19.9362 14.3288 19.9362 14.8968C19.9362 15.4648 19.4802 15.9208 18.9122 15.9208Z" fill="#505050"/>
</svg>
