<svg width="40" height="40" viewBox="0 0 40 40" fill="none" xmlns="http://www.w3.org/2000/svg">
<path d="M39.0809 21.5366C36.2329 19.3126 32.6569 17.9766 28.7609 17.9766C19.4809 17.9766 11.9609 25.4966 11.9609 34.7766C11.9609 36.0166 12.1049 37.2246 12.3609 38.3926H39.0809V21.5366Z" fill="#FEE7B5"/>
<path d="M38.0814 24.1926C37.6014 22.8486 36.0014 22.2646 34.6894 22.8166L22.1294 28.1446C22.4974 27.8806 22.8014 27.5126 22.9774 27.0646C23.4894 25.8006 22.8814 24.3766 21.6174 23.8646L14.8974 21.1446C13.5214 20.5846 11.9774 20.6006 10.6094 21.1846L4.85742 23.6246L8.12142 31.3206L10.7934 30.1846L19.2014 33.5846C20.0814 33.9446 21.0734 33.9366 21.9454 33.5606L36.7374 27.2806C37.3614 27.0166 37.8174 26.5206 38.0574 25.9446C38.2654 25.4086 38.2974 24.7766 38.0814 24.1926Z" fill="white"/>
<path d="M4.33778 36.1601L1.42578 23.2481L4.18578 22.0801L8.89778 33.1841L4.33778 36.1601Z" fill="#5ED070"/>
<path d="M26.6975 22.0718C32.1806 22.0718 36.6255 17.6269 36.6255 12.1438C36.6255 6.66074 32.1806 2.21582 26.6975 2.21582C21.2144 2.21582 16.7695 6.66074 16.7695 12.1438C16.7695 17.6269 21.2144 22.0718 26.6975 22.0718Z" fill="#FDE4A1"/>
<path d="M38.3937 25.0804C38.0737 24.9924 37.7377 25.1924 37.6577 25.5044C37.6177 25.6564 37.6417 25.8244 37.7217 25.9604C37.8017 26.0964 37.9297 26.1924 38.0817 26.2404C38.1377 26.2484 38.1857 26.2564 38.2417 26.2564C38.5057 26.2564 38.7457 26.0724 38.8177 25.8084C38.9057 25.4884 38.7137 25.1604 38.3937 25.0804Z" fill="#505050"/>
<path d="M37.0009 26.4958C36.8729 26.5918 36.7369 26.6798 36.5849 26.7438L21.7929 33.0158C21.0729 33.3198 20.2409 33.3278 19.5129 33.0318L11.0969 29.6318C10.9529 29.5678 10.7849 29.5758 10.6409 29.6318L8.52095 30.5358L5.72895 23.9438L10.9289 21.7438C12.1449 21.2238 13.5369 21.2158 14.7609 21.7038L21.4809 24.4238C22.1849 24.7118 22.6489 25.3838 22.6489 26.1438C22.6489 26.3758 22.6009 26.6158 22.5049 26.8398C22.3929 27.1278 22.2009 27.3758 21.9609 27.5678C21.7369 27.5918 21.5289 27.5838 21.2969 27.5278C21.2169 27.5118 21.1449 27.4878 21.0569 27.4558L15.2249 25.7438C14.9129 25.6478 14.5689 25.8398 14.4809 26.1438C14.3849 26.4638 14.5689 26.7998 14.8809 26.8958L20.6329 28.5758C20.7529 28.6238 20.8809 28.6638 21.0169 28.6958C21.2649 28.7598 21.5129 28.7918 21.7689 28.7918C21.9529 28.7918 22.1449 28.7678 22.3289 28.7358C22.3529 28.7278 22.3769 28.7118 22.4009 28.7038C22.4169 28.6958 22.4329 28.7038 22.4489 28.6958L35.0169 23.3678C35.2649 23.2638 35.5369 23.2078 35.8089 23.2078C36.6089 23.2078 37.2969 23.6478 37.5769 24.3198C37.6969 24.6158 38.0569 24.7678 38.3609 24.6398C38.5049 24.5838 38.6249 24.4638 38.6889 24.3198C38.7449 24.1758 38.7449 24.0078 38.6889 23.8558C38.2169 22.7358 37.0889 22.0078 35.8089 22.0078C35.3689 22.0078 34.9449 22.0958 34.5449 22.2638L23.7609 26.8398C23.8169 26.6078 23.8489 26.3758 23.8489 26.1438C23.8489 24.8958 23.0969 23.7838 21.9289 23.3118L15.2089 20.5918C13.6969 19.9838 11.9609 19.9918 10.4569 20.6398L5.25695 22.8478L4.83295 21.8398C4.70495 21.5438 4.34495 21.3998 4.04895 21.5278L1.28895 22.6958C1.01695 22.8078 0.872949 23.0958 0.936949 23.3758L3.84095 36.2958C3.88095 36.4878 4.01695 36.6398 4.20095 36.7198C4.27295 36.7438 4.35295 36.7598 4.42495 36.7598C4.54495 36.7598 4.65695 36.7278 4.75295 36.6638L9.32095 33.6878C9.56095 33.5278 9.65695 33.2158 9.54495 32.9518L8.98495 31.6398L10.8809 30.8398L19.0569 34.1438C19.5609 34.3518 20.0889 34.4558 20.6329 34.4558C21.1929 34.4558 21.7449 34.3438 22.2649 34.1198L37.0569 27.8478C37.2969 27.7438 37.5289 27.6078 37.7369 27.4398C38.0009 27.2398 38.0489 26.8638 37.8409 26.5998C37.6489 26.3438 37.2569 26.2958 37.0009 26.4958ZM4.82495 35.1838L2.21695 23.5998L3.96095 22.8638L4.38495 23.8638C4.38495 23.8638 7.65695 31.5758 7.66495 31.5758L8.24895 32.9598L4.82495 35.1838Z" fill="#505050"/>
<path d="M26.7936 22.6802C32.6016 22.6802 37.3296 17.9522 37.3296 12.1442C37.3296 6.33621 32.6016 1.61621 26.7936 1.61621C20.9856 1.61621 16.2656 6.33621 16.2656 12.1442C16.2656 17.9522 20.9856 22.6802 26.7936 22.6802ZM26.7936 2.81621C31.9376 2.81621 36.1296 7.00021 36.1296 12.1442C36.1296 17.2882 31.9456 21.4802 26.7936 21.4802C21.6416 21.4802 17.4576 17.2962 17.4576 12.1442C17.4656 7.00021 21.6496 2.81621 26.7936 2.81621Z" fill="#505050"/>
<path d="M21.9377 13.1845C21.9377 13.5125 22.2097 13.7845 22.5377 13.7845H23.3377C23.5777 14.4805 23.9697 15.1285 24.5217 15.6805C25.4817 16.6405 26.7537 17.1525 28.0497 17.1525C28.5777 17.1525 29.1057 17.0725 29.6177 16.8965C29.9297 16.7925 30.1057 16.4565 30.0017 16.1365C29.8977 15.8245 29.5617 15.6485 29.2417 15.7525C27.8737 16.2005 26.3857 15.8485 25.3617 14.8245C25.0497 14.5125 24.8177 14.1525 24.6417 13.7765H28.3617C28.6897 13.7765 28.9617 13.5045 28.9617 13.1765C28.9617 12.8485 28.6897 12.5765 28.3617 12.5765H24.2977C24.2657 12.2805 24.2657 11.9845 24.2977 11.6965H28.3617C28.6897 11.6965 28.9617 11.4245 28.9617 11.0965C28.9617 10.7685 28.6897 10.4965 28.3617 10.4965H24.6417C24.8257 10.1205 25.0497 9.76055 25.3617 9.44855C26.3857 8.42455 27.8737 8.07255 29.2417 8.52055C29.5537 8.62455 29.8977 8.45655 30.0017 8.13655C30.1057 7.82455 29.9377 7.48055 29.6177 7.37655C27.8177 6.77655 25.8657 7.24855 24.5137 8.59255C23.9617 9.14455 23.5697 9.79255 23.3297 10.4885H22.5297C22.2017 10.4885 21.9297 10.7605 21.9297 11.0885C21.9297 11.4165 22.2017 11.6885 22.5297 11.6885H23.0737C23.0497 11.9845 23.0497 12.2805 23.0737 12.5685H22.5297C22.2097 12.5845 21.9377 12.8565 21.9377 13.1845Z" fill="#505050"/>
</svg>
