<svg width="40" height="40" viewBox="0 0 40 40" fill="none" xmlns="http://www.w3.org/2000/svg">
<path d="M15.7517 2.95215C15.2237 4.58415 14.9277 6.32815 14.9277 8.13615C14.9277 17.4161 22.4477 24.9361 31.7277 24.9361C34.1837 24.9361 36.5117 24.4001 38.6157 23.4481V2.95215H15.7517Z" fill="#FEE7B5"/>
<path d="M28.2476 9.51992V19.2159H13.3516C12.4716 19.2159 11.7516 19.9279 11.7516 20.8159V25.1679H3.19961C2.31961 25.1679 1.59961 24.4559 1.59961 23.5679V9.51992C1.59961 8.63192 2.31961 7.91992 3.19961 7.91992H26.6556C27.5356 7.91992 28.2476 8.63192 28.2476 9.51992Z" fill="#E9F4BC"/>
<path d="M28.2476 10.8477H1.59961V14.2397H28.2476V10.8477Z" fill="#FADC00"/>
<path d="M38.4 20.808V34.848C38.4 35.728 37.688 36.448 36.8 36.448H13.352C12.472 36.448 11.752 35.736 11.752 34.848V20.808C11.752 19.928 12.472 19.208 13.352 19.208H36.8C37.688 19.208 38.4 19.92 38.4 20.808Z" fill="#9BEAF9"/>
<path d="M20.4308 22.1758H14.7188V27.8878H20.4308V22.1758Z" fill="white"/>
<path d="M5.97695 8.52012C6.31295 8.52012 6.57695 8.25612 6.57695 7.92012C6.57695 7.59212 6.31295 7.32812 5.97695 7.32812C5.64895 7.32812 5.37695 7.59212 5.37695 7.92012C5.37695 8.25612 5.64895 8.52012 5.97695 8.52012Z" fill="#505050"/>
<path d="M36.8 18.6081H28.848V9.52012C28.848 8.31212 27.864 7.32812 26.656 7.32812H7.576C7.248 7.32812 6.976 7.59212 6.976 7.92012C6.976 8.25612 7.248 8.52012 7.576 8.52012H26.656C27.208 8.52012 27.648 8.96012 27.648 9.52012V10.2481H2.2V9.52012C2.2 8.96812 2.648 8.52012 3.2 8.52012H4.376C4.712 8.52012 4.976 8.25612 4.976 7.92012C4.976 7.59212 4.712 7.32812 4.376 7.32812H3.2C1.984 7.32812 1 8.31212 1 9.52012V23.5601C1 24.7761 1.984 25.7601 3.2 25.7601H11.152V34.8481C11.152 36.0561 12.136 37.0481 13.352 37.0481H36.8C38.008 37.0481 39 36.0641 39 34.8481V20.8081C39 19.5921 38.016 18.6081 36.8 18.6081ZM2.2 11.4481H27.648V13.6401H2.2V11.4481ZM3.2 24.5601C2.648 24.5601 2.2 24.1121 2.2 23.5601V14.8401H27.648V18.6081H13.352C12.144 18.6081 11.152 19.5921 11.152 20.8081V24.5601H3.2ZM37.8 34.8481C37.8 35.4001 37.352 35.8481 36.8 35.8481H13.352C12.8 35.8481 12.352 35.4001 12.352 34.8481V20.8081C12.352 20.2561 12.8 19.8081 13.352 19.8081H36.8C37.352 19.8081 37.8 20.2561 37.8 20.8081V34.8481Z" fill="#505050"/>
<path d="M14.7191 28.4882H20.4311C20.7591 28.4882 21.0311 28.2162 21.0311 27.8882V22.1762C21.0311 21.8482 20.7591 21.5762 20.4311 21.5762H14.7191C14.3911 21.5762 14.1191 21.8482 14.1191 22.1762V27.8882C14.1191 28.2162 14.3911 28.4882 14.7191 28.4882ZM15.3191 22.7762H19.8311V27.2882H15.3191V22.7762Z" fill="#505050"/>
<path d="M17.6088 32.7598H14.0648C13.7368 32.7598 13.4648 33.0318 13.4648 33.3598C13.4648 33.6878 13.7368 33.9598 14.0648 33.9598H17.6088C17.9368 33.9598 18.2088 33.6878 18.2088 33.3598C18.2088 33.0318 17.9448 32.7598 17.6088 32.7598Z" fill="#505050"/>
<path d="M23.767 32.7598H20.223C19.895 32.7598 19.623 33.0318 19.623 33.3598C19.623 33.6878 19.895 33.9598 20.223 33.9598H23.767C24.095 33.9598 24.367 33.6878 24.367 33.3598C24.367 33.0318 24.095 32.7598 23.767 32.7598Z" fill="#505050"/>
<path d="M29.9272 32.7598H26.3832C26.0552 32.7598 25.7832 33.0318 25.7832 33.3598C25.7832 33.6878 26.0552 33.9598 26.3832 33.9598H29.9272C30.2552 33.9598 30.5272 33.6878 30.5272 33.3598C30.5272 33.0318 30.2552 32.7598 29.9272 32.7598Z" fill="#505050"/>
<path d="M36.0874 32.7598H32.5434C32.2154 32.7598 31.9434 33.0318 31.9434 33.3598C31.9434 33.6878 32.2154 33.9598 32.5434 33.9598H36.0874C36.4154 33.9598 36.6874 33.6878 36.6874 33.3598C36.6874 33.0318 36.4154 32.7598 36.0874 32.7598Z" fill="#505050"/>
</svg>
