<svg width="24" height="24" viewBox="0 0 24 24" fill="none" xmlns="http://www.w3.org/2000/svg">
<path d="M17.0375 16.7696C16.3313 16.7696 15.6671 16.4947 15.1677 15.9955L12.4679 13.2956C12.2783 13.1056 11.948 13.1062 11.7585 13.2956L9.04882 16.0054C8.54943 16.5045 7.88521 16.7795 7.17902 16.7795H6.64697L10.0664 20.1988C11.1342 21.2667 12.8656 21.2667 13.9336 20.1988L17.3627 16.7696H17.0375Z" fill="#5ED070"/>
<path d="M7.17911 7.22019C7.8853 7.22019 8.54952 7.49515 9.04891 7.99431L11.7586 10.7045C11.9537 10.8997 12.2724 10.9004 12.468 10.7042L15.1678 8.00418C15.6672 7.50503 16.3314 7.23006 17.0376 7.23006H17.3628L13.9337 3.80095C12.8657 2.73302 11.1343 2.73302 10.0665 3.80095L6.64722 7.2202L7.17911 7.22019Z" fill="#5ED070"/>
<path d="M20.1992 10.0668L18.1269 7.99458C18.0813 8.01285 18.0319 8.02426 17.9797 8.02426H17.0376C16.5505 8.02426 16.0736 8.22183 15.7294 8.56627L13.0297 11.2661C12.7771 11.5187 12.4451 11.6451 12.1134 11.6451C11.7815 11.6451 11.4497 11.5187 11.1971 11.2663L8.48723 8.5564C8.14303 8.21188 7.6662 8.01439 7.1791 8.01439H6.02059C5.97118 8.01439 5.92501 8.00275 5.88142 7.98633L3.80095 10.0668C2.73302 11.1347 2.73302 12.8661 3.80095 13.934L5.88133 16.0144C5.925 15.998 5.97118 15.9863 6.02059 15.9863H7.1791C7.6662 15.9863 8.14303 15.7888 8.48723 15.4444L11.1969 12.7347C11.6867 12.2454 12.5404 12.2452 13.0297 12.735L15.7294 15.4345C16.0736 15.779 16.5505 15.9765 17.0376 15.9765H17.9797C18.0319 15.9765 18.0813 15.9879 18.1269 16.0062L20.1992 13.934C21.267 12.8661 21.267 11.1347 20.1992 10.0668Z" fill="#5ED070"/>
</svg>
