<svg width="40" height="40" viewBox="0 0 40 40" fill="none" xmlns="http://www.w3.org/2000/svg">
<path d="M39.1042 22.688C36.7842 20.88 33.8722 19.792 30.7042 19.792C23.1522 19.792 17.0242 25.92 17.0242 33.472C17.0242 34.48 17.1442 35.464 17.3522 36.416H39.1042V22.688Z" fill="#FEE7B5"/>
<path d="M11.7441 14.3754H1.49609V4.19141H38.2961V14.3754H28.0401" fill="#5ED070"/>
<path d="M28.0401 11.0875H35.6241V7.47949H28.0401H24.0721H15.7041H11.7441H4.1521V11.0875H11.7441" fill="white"/>
<path d="M28.0401 7.47949V28.3275C28.0401 29.3755 27.1921 30.2155 26.1441 30.2155H13.6321C12.5841 30.2155 11.7361 29.3675 11.7361 28.3275V7.47949H28.0401Z" fill="#E9F4BC"/>
<path d="M14.2642 7.47949V25.8075C15.3122 25.8075 16.1602 26.6635 16.1602 27.6955H23.6242C23.6242 26.6555 24.4722 25.8075 25.5202 25.8075V7.47949H14.2642Z" fill="#FDE4A1"/>
<path d="M11.456 4.7918C11.7873 4.7918 12.056 4.52317 12.056 4.1918C12.056 3.86043 11.7873 3.5918 11.456 3.5918C11.1246 3.5918 10.856 3.86043 10.856 4.1918C10.856 4.52317 11.1246 4.7918 11.456 4.7918Z" fill="#505050"/>
<path d="M38.7201 3.7678C38.6001 3.6558 38.4561 3.5918 38.2961 3.5918H13.0561C12.7281 3.5918 12.4561 3.8638 12.4561 4.1918C12.4561 4.5198 12.7281 4.7918 13.0561 4.7918H37.6961V13.7758H28.6481V11.6878H35.6321C35.9601 11.6878 36.2321 11.4158 36.2321 11.0878V7.4878C36.2321 7.1598 35.9601 6.8878 35.6321 6.8878H4.16005C3.83205 6.8878 3.56005 7.1598 3.56005 7.4878V11.0878C3.56005 11.4158 3.83205 11.6878 4.16005 11.6878H11.1441V13.7758H2.10405V4.7918H9.86405C10.2001 4.7918 10.4641 4.5198 10.4641 4.1918C10.4641 3.8638 10.2001 3.5918 9.86405 3.5918H1.50405C1.34405 3.5918 1.19205 3.6558 1.08005 3.7678C0.960053 3.8798 0.904053 4.0318 0.904053 4.1918V14.3758C0.904053 14.5358 0.968053 14.6878 1.08005 14.7998C1.19205 14.9118 1.34405 14.9758 1.50405 14.9758H11.1521V28.3358C11.1521 29.7118 12.2721 30.8238 13.6481 30.8238H26.1601C27.5361 30.8238 28.6561 29.7038 28.6561 28.3358V14.9758H38.3121C38.4721 14.9758 38.6161 14.9198 38.7361 14.7998C38.8481 14.6878 38.9121 14.5358 38.9121 14.3758V4.1918C38.9041 4.0318 38.8321 3.8798 38.7201 3.7678ZM35.0321 10.4878H28.6481V8.0878H35.0321V10.4878ZM24.9201 8.0798V25.2798C24.0241 25.5038 23.3201 26.2078 23.1041 27.0958H16.6961C16.4721 26.1998 15.7681 25.4958 14.8721 25.2798V8.0798H24.9201ZM4.76005 10.4878V8.0878H11.1441V10.4878H4.76005ZM26.1521 29.6238H13.6401C12.9281 29.6238 12.3441 29.0478 12.3441 28.3358V8.0798H13.6641V25.8078C13.6641 26.1358 13.9361 26.4078 14.2641 26.4078C14.9841 26.4078 15.5601 26.9838 15.5601 27.7038C15.5601 28.0318 15.8321 28.3038 16.1601 28.3038H23.6241C23.9521 28.3038 24.2241 28.0318 24.2241 27.7038C24.2241 26.9918 24.8001 26.4078 25.5201 26.4078C25.8481 26.4078 26.1201 26.1358 26.1201 25.8078V8.0798H27.4481V28.3278C27.4481 29.0478 26.8641 29.6238 26.1521 29.6238Z" fill="#505050"/>
<path d="M16.2641 17.5755H16.5121C16.7681 18.4075 17.5361 19.0155 18.4561 19.0155C19.5841 19.0155 20.4961 18.0955 20.4961 16.9755C20.4961 16.5115 20.8721 16.1355 21.3361 16.1355C21.8001 16.1355 22.1761 16.5115 22.1761 16.9755C22.1761 17.4395 21.8001 17.8155 21.3361 17.8155C21.0081 17.8155 20.7361 18.0875 20.7361 18.4155C20.7361 18.7435 21.0081 19.0155 21.3361 19.0155C22.2561 19.0155 23.0241 18.4075 23.2801 17.5755H23.5201C23.8481 17.5755 24.1201 17.3035 24.1201 16.9755C24.1201 16.6475 23.8481 16.3755 23.5201 16.3755H23.2801C23.0241 15.5435 22.2561 14.9355 21.3361 14.9355C20.2081 14.9355 19.2961 15.8555 19.2961 16.9755C19.2961 17.4395 18.9201 17.8155 18.4561 17.8155C17.9921 17.8155 17.6161 17.4395 17.6161 16.9755C17.6161 16.5115 17.9921 16.1355 18.4561 16.1355C18.7841 16.1355 19.0561 15.8635 19.0561 15.5355C19.0561 15.2075 18.7841 14.9355 18.4561 14.9355C17.5361 14.9355 16.7681 15.5435 16.5121 16.3755H16.2641C15.9361 16.3755 15.6641 16.6475 15.6641 16.9755C15.6641 17.3035 15.9361 17.5755 16.2641 17.5755Z" fill="#505050"/>
</svg>
