<svg width="16" height="16" viewBox="0 0 16 16" fill="none" xmlns="http://www.w3.org/2000/svg">
<g opacity="0.3">
<path d="M8.00125 1.33301C11.6839 1.33301 14.6693 4.31834 14.6693 8.00101C14.6693 11.683 11.6839 14.6683 8.00125 14.6683C4.31859 14.6683 1.33325 11.683 1.33325 8.00101C1.33325 4.31834 4.31859 1.33301 8.00125 1.33301ZM7.99859 6.83301C7.83521 6.83323 7.6776 6.89344 7.55568 7.0022C7.43377 7.11097 7.35604 7.26071 7.33725 7.42301L7.33259 7.50034L7.33459 11.1683L7.33925 11.2463C7.35805 11.4089 7.43599 11.5589 7.55825 11.6677C7.6805 11.7766 7.83851 11.8366 8.00218 11.8365C8.16585 11.8363 8.32374 11.7759 8.44577 11.6669C8.56781 11.5578 8.64545 11.4076 8.66392 11.245L8.66792 11.167L8.66592 7.49967L8.66125 7.42167C8.64198 7.25951 8.56386 7.11007 8.44172 7.00168C8.31957 6.8933 8.16189 6.83351 7.99859 6.83367V6.83301ZM8.00125 4.33367C7.77997 4.33367 7.56776 4.42158 7.41129 4.57804C7.25482 4.73451 7.16692 4.94673 7.16692 5.16801C7.16692 5.38929 7.25482 5.6015 7.41129 5.75797C7.56776 5.91444 7.77997 6.00234 8.00125 6.00234C8.22253 6.00234 8.43475 5.91444 8.59121 5.75797C8.74768 5.6015 8.83559 5.38929 8.83559 5.16801C8.83559 4.94673 8.74768 4.73451 8.59121 4.57804C8.43475 4.42158 8.22253 4.33367 8.00125 4.33367Z" fill="#212121"/>
</g>
</svg>
