<svg width="24" height="24" viewBox="0 0 24 24" fill="none" xmlns="http://www.w3.org/2000/svg">
<path d="M17.75 14C18.0455 14 18.3381 14.0582 18.611 14.1713C18.884 14.2843 19.1321 14.4501 19.341 14.659C19.5499 14.8679 19.7157 15.116 19.8287 15.389C19.9418 15.6619 20 15.9545 20 16.25V17.155C20.0001 17.6956 19.8834 18.2297 19.6578 18.721C19.4322 19.2122 19.1031 19.6488 18.693 20.001C17.127 21.345 14.887 22 11.997 22C9.107 22 6.869 21.344 5.306 20C4.89646 19.6481 4.56775 19.2119 4.34235 18.7212C4.11695 18.2305 4.00017 17.697 4 17.157V16.249C4.00027 15.6524 4.23744 15.0804 4.65936 14.6587C5.08129 14.2369 5.65344 14 6.25 14H17.75ZM11.895 2.008L11.997 2C12.1782 2.00001 12.3533 2.06564 12.4899 2.18477C12.6265 2.30389 12.7154 2.46845 12.74 2.648L12.747 2.75V3.5H16.247C16.8437 3.5 17.416 3.73705 17.838 4.15901C18.2599 4.58097 18.497 5.15326 18.497 5.75V10.255C18.497 10.8517 18.2599 11.424 17.838 11.846C17.416 12.2679 16.8437 12.505 16.247 12.505H7.747C7.15026 12.505 6.57797 12.2679 6.15601 11.846C5.73405 11.424 5.497 10.8517 5.497 10.255V5.75C5.497 5.15326 5.73405 4.58097 6.15601 4.15901C6.57797 3.73705 7.15026 3.5 7.747 3.5H11.247V2.751C11.247 2.56976 11.3126 2.39466 11.4318 2.25807C11.5509 2.12148 11.7154 2.03265 11.895 2.008ZM9.747 6.5C9.41548 6.5 9.09754 6.6317 8.86312 6.86612C8.6287 7.10054 8.497 7.41848 8.497 7.75C8.497 8.08152 8.6287 8.39946 8.86312 8.63388C9.09754 8.8683 9.41548 9 9.747 9C10.0785 9 10.3965 8.8683 10.6309 8.63388C10.8653 8.39946 10.997 8.08152 10.997 7.75C10.997 7.41848 10.8653 7.10054 10.6309 6.86612C10.3965 6.6317 10.0785 6.5 9.747 6.5ZM14.24 6.5C14.0729 6.49527 13.9066 6.5241 13.7509 6.58476C13.5952 6.64543 13.4532 6.73671 13.3334 6.8532C13.2135 6.9697 13.1183 7.10904 13.0532 7.26299C12.9882 7.41694 12.9546 7.58237 12.9546 7.7495C12.9546 7.91663 12.9882 8.08206 13.0532 8.23601C13.1183 8.38996 13.2135 8.5293 13.3334 8.64579C13.4532 8.76229 13.5952 8.85357 13.7509 8.91424C13.9066 8.9749 14.0729 9.00373 14.24 8.999C14.5653 8.9898 14.8741 8.85412 15.1009 8.6208C15.3278 8.38747 15.4546 8.0749 15.4546 7.7495C15.4546 7.4241 15.3278 7.11153 15.1009 6.8782C14.8741 6.64488 14.5653 6.5092 14.24 6.5Z" fill="#212121"/>
</svg>
