<svg width="24" height="24" viewBox="0 0 24 24" fill="none" xmlns="http://www.w3.org/2000/svg">
<path d="M4 5.25C4 4.38805 4.34241 3.5614 4.9519 2.9519C5.5614 2.34241 6.38805 2 7.25 2H16.75C17.612 2 18.4386 2.34241 19.0481 2.9519C19.6576 3.5614 20 4.38805 20 5.25V18.75C20 19.1768 19.9159 19.5994 19.7526 19.9937C19.5893 20.388 19.3499 20.7463 19.0481 21.0481C18.7463 21.3499 18.388 21.5893 17.9937 21.7526C17.5994 21.9159 17.1768 22 16.75 22H7.25C6.8232 22 6.40059 21.9159 6.00628 21.7526C5.61197 21.5893 5.25369 21.3499 4.9519 21.0481C4.65011 20.7463 4.41072 20.388 4.24739 19.9937C4.08406 19.5994 4 19.1768 4 18.75V5.25ZM9 5C8.46957 5 7.96086 5.21071 7.58579 5.58579C7.21071 5.96086 7 6.46957 7 7V8C7 8.53043 7.21071 9.03914 7.58579 9.41421C7.96086 9.78929 8.46957 10 9 10H15C15.5304 10 16.0391 9.78929 16.4142 9.41421C16.7893 9.03914 17 8.53043 17 8V7C17 6.46957 16.7893 5.96086 16.4142 5.58579C16.0391 5.21071 15.5304 5 15 5H9ZM9.5 13.25C9.5 12.9185 9.3683 12.6005 9.13388 12.3661C8.89946 12.1317 8.58152 12 8.25 12C7.91848 12 7.60054 12.1317 7.36612 12.3661C7.1317 12.6005 7 12.9185 7 13.25C7 13.5815 7.1317 13.8995 7.36612 14.1339C7.60054 14.3683 7.91848 14.5 8.25 14.5C8.58152 14.5 8.89946 14.3683 9.13388 14.1339C9.3683 13.8995 9.5 13.5815 9.5 13.25ZM8.25 18.5C8.58152 18.5 8.89946 18.3683 9.13388 18.1339C9.3683 17.8995 9.5 17.5815 9.5 17.25C9.5 16.9185 9.3683 16.6005 9.13388 16.3661C8.89946 16.1317 8.58152 16 8.25 16C7.91848 16 7.60054 16.1317 7.36612 16.3661C7.1317 16.6005 7 16.9185 7 17.25C7 17.5815 7.1317 17.8995 7.36612 18.1339C7.60054 18.3683 7.91848 18.5 8.25 18.5ZM17 13.25C17 12.9185 16.8683 12.6005 16.6339 12.3661C16.3995 12.1317 16.0815 12 15.75 12C15.4185 12 15.1005 12.1317 14.8661 12.3661C14.6317 12.6005 14.5 12.9185 14.5 13.25C14.5 13.5815 14.6317 13.8995 14.8661 14.1339C15.1005 14.3683 15.4185 14.5 15.75 14.5C16.0815 14.5 16.3995 14.3683 16.6339 14.1339C16.8683 13.8995 17 13.5815 17 13.25ZM15.75 18.5C16.0815 18.5 16.3995 18.3683 16.6339 18.1339C16.8683 17.8995 17 17.5815 17 17.25C17 16.9185 16.8683 16.6005 16.6339 16.3661C16.3995 16.1317 16.0815 16 15.75 16C15.4185 16 15.1005 16.1317 14.8661 16.3661C14.6317 16.6005 14.5 16.9185 14.5 17.25C14.5 17.5815 14.6317 17.8995 14.8661 18.1339C15.1005 18.3683 15.4185 18.5 15.75 18.5ZM13.25 13.25C13.25 12.9185 13.1183 12.6005 12.8839 12.3661C12.6495 12.1317 12.3315 12 12 12C11.6685 12 11.3505 12.1317 11.1161 12.3661C10.8817 12.6005 10.75 12.9185 10.75 13.25C10.75 13.5815 10.8817 13.8995 11.1161 14.1339C11.3505 14.3683 11.6685 14.5 12 14.5C12.3315 14.5 12.6495 14.3683 12.8839 14.1339C13.1183 13.8995 13.25 13.5815 13.25 13.25ZM12 18.5C12.3315 18.5 12.6495 18.3683 12.8839 18.1339C13.1183 17.8995 13.25 17.5815 13.25 17.25C13.25 16.9185 13.1183 16.6005 12.8839 16.3661C12.6495 16.1317 12.3315 16 12 16C11.6685 16 11.3505 16.1317 11.1161 16.3661C10.8817 16.6005 10.75 16.9185 10.75 17.25C10.75 17.5815 10.8817 17.8995 11.1161 18.1339C11.3505 18.3683 11.6685 18.5 12 18.5Z" fill="#212121"/>
</svg>
