<svg width="40" height="40" viewBox="0 0 40 40" fill="none" xmlns="http://www.w3.org/2000/svg">
<path d="M17.7354 19.8563V3.28027C8.53536 3.28027 1.07136 10.6803 0.943359 19.8483H17.7354V19.8563Z" fill="#FEE7B5"/>
<path d="M33.0251 33.2318C34.5361 33.2318 35.7611 32.0068 35.7611 30.4958C35.7611 28.9847 34.5361 27.7598 33.0251 27.7598C31.514 27.7598 30.2891 28.9847 30.2891 30.4958C30.2891 32.0068 31.514 33.2318 33.0251 33.2318Z" fill="#5ED070"/>
<path d="M38.448 38.3997C38.264 35.5597 35.912 33.3037 33.016 33.3037C30.128 33.3037 27.768 35.5517 27.584 38.3997H38.448Z" fill="#5ED070"/>
<path d="M20.1364 33.2318C21.6474 33.2318 22.8724 32.0068 22.8724 30.4958C22.8724 28.9847 21.6474 27.7598 20.1364 27.7598C18.6253 27.7598 17.4004 28.9847 17.4004 30.4958C17.4004 32.0068 18.6253 33.2318 20.1364 33.2318Z" fill="#5ED070"/>
<path d="M25.5691 38.3997C25.3851 35.5597 23.0331 33.3037 20.1371 33.3037C17.2491 33.3037 14.8891 35.5517 14.7051 38.3997H25.5691Z" fill="#5ED070"/>
<path d="M7.24772 33.2318C8.75877 33.2318 9.98372 32.0068 9.98372 30.4958C9.98372 28.9847 8.75877 27.7598 7.24772 27.7598C5.73667 27.7598 4.51172 28.9847 4.51172 30.4958C4.51172 32.0068 5.73667 33.2318 7.24772 33.2318Z" fill="#5ED070"/>
<path d="M12.6804 38.3997C12.4964 35.5597 10.1444 33.3037 7.24841 33.3037C4.36041 33.3037 2.00041 35.5517 1.81641 38.3997H12.6804Z" fill="#5ED070"/>
<path d="M20.1355 16.4956C24.2489 16.4956 27.5835 13.161 27.5835 9.04761C27.5835 4.93419 24.2489 1.59961 20.1355 1.59961C16.0221 1.59961 12.6875 4.93419 12.6875 9.04761C12.6875 13.161 16.0221 16.4956 20.1355 16.4956Z" fill="#E9F4BC"/>
<path d="M35.1032 33.0802C35.8632 32.4722 36.3512 31.5442 36.3512 30.4962C36.3512 28.6562 34.8552 27.1602 33.0152 27.1602C31.1752 27.1602 29.6792 28.6562 29.6792 30.4962C29.6792 31.5442 30.1752 32.4642 30.9272 33.0802C28.7512 33.8882 27.1432 35.9202 26.9832 38.3602C26.9752 38.5282 27.0312 38.6882 27.1432 38.8082C27.2552 38.9282 27.4152 39.0002 27.5832 39.0002H38.4392C38.6072 39.0002 38.7672 38.9282 38.8792 38.8082C38.9912 38.6882 39.0472 38.5282 39.0392 38.3602C38.8952 35.9202 37.2872 33.8882 35.1032 33.0802ZM33.0232 28.3602C34.1992 28.3602 35.1592 29.3202 35.1592 30.4962C35.1592 31.6722 34.1992 32.6322 33.0232 32.6322C31.8472 32.6322 30.8872 31.6722 30.8872 30.4962C30.8872 29.3202 31.8472 28.3602 33.0232 28.3602ZM28.2792 37.8002C28.7272 35.5682 30.6952 33.9042 33.0232 33.9042C35.3512 33.9042 37.3272 35.5682 37.7672 37.8002H28.2792Z" fill="#505050"/>
<path d="M22.2243 33.0802C22.9843 32.4722 23.4723 31.5442 23.4723 30.4962C23.4723 28.6562 21.9763 27.1602 20.1363 27.1602C18.2963 27.1602 16.8003 28.6562 16.8003 30.4962C16.8003 31.5442 17.2963 32.4642 18.0483 33.0802C15.8643 33.8882 14.2643 35.9202 14.1043 38.3602C14.0963 38.5282 14.1523 38.6882 14.2643 38.8082C14.3763 38.9282 14.5363 39.0002 14.7043 39.0002H25.5603C25.7283 39.0002 25.8883 38.9282 26.0003 38.8082C26.1123 38.6882 26.1683 38.5282 26.1603 38.3602C26.0083 35.9202 24.4003 33.8882 22.2243 33.0802ZM20.1363 28.3602C21.3123 28.3602 22.2723 29.3202 22.2723 30.4962C22.2723 31.6722 21.3123 32.6322 20.1363 32.6322C18.9603 32.6322 18.0003 31.6722 18.0003 30.4962C18.0003 29.3202 18.9603 28.3602 20.1363 28.3602ZM15.3923 37.8002C15.8403 35.5682 17.8083 33.9042 20.1363 33.9042C22.4643 33.9042 24.4403 35.5682 24.8803 37.8002H15.3923Z" fill="#505050"/>
<path d="M9.3356 33.0802C10.0956 32.4722 10.5836 31.5442 10.5836 30.4962C10.5836 28.6562 9.0876 27.1602 7.2476 27.1602C5.4076 27.1602 3.9116 28.6562 3.9116 30.4962C3.9116 31.5442 4.4076 32.4642 5.1596 33.0802C2.9756 33.8882 1.3756 35.9202 1.2156 38.3602C1.2076 38.5282 1.2636 38.6882 1.3756 38.8082C1.4876 38.9282 1.6476 39.0002 1.8156 39.0002H12.6716C12.8396 39.0002 12.9996 38.9282 13.1116 38.8082C13.2236 38.6882 13.2796 38.5282 13.2716 38.3602C13.1196 35.9202 11.5116 33.8882 9.3356 33.0802ZM7.2476 28.3602C8.4236 28.3602 9.3836 29.3202 9.3836 30.4962C9.3836 31.6722 8.4236 32.6322 7.2476 32.6322C6.0716 32.6322 5.1116 31.6722 5.1116 30.4962C5.1196 29.3202 6.0716 28.3602 7.2476 28.3602ZM2.5036 37.8002C2.9516 35.5682 4.9196 33.9042 7.2476 33.9042C9.5756 33.9042 11.5516 35.5682 11.9916 37.8002H2.5036Z" fill="#505050"/>
<path d="M7.24844 25.08C7.57644 25.08 7.84844 24.808 7.84844 24.48V20.256H19.5364V24.48C19.5364 24.808 19.8084 25.08 20.1364 25.08C20.4644 25.08 20.7364 24.808 20.7364 24.48V20.256H32.4244V24.48C32.4244 24.808 32.6964 25.08 33.0244 25.08C33.3524 25.08 33.6244 24.808 33.6244 24.48V19.656C33.6244 19.328 33.3524 19.056 33.0244 19.056H20.7364V17.064C24.8884 16.752 28.1844 13.28 28.1844 9.048C28.1844 4.608 24.5684 1 20.1364 1C15.6964 1 12.0884 4.608 12.0884 9.048C12.0884 13.28 15.3764 16.752 19.5364 17.064V19.056H7.24844C6.92044 19.056 6.64844 19.328 6.64844 19.656V24.48C6.64844 24.816 6.92044 25.08 7.24844 25.08ZM13.2804 9.048C13.2884 5.28 16.3604 2.2 20.1364 2.192C23.9044 2.2 26.9764 5.28 26.9844 9.048C26.9764 12.816 23.9044 15.888 20.1364 15.896C16.3604 15.888 13.2884 12.816 13.2804 9.048Z" fill="#505050"/>
<path d="M20.1364 14.6001C20.4644 14.6001 20.7364 14.3281 20.7364 14.0001V13.5041C21.8644 13.2321 22.7044 12.2241 22.7044 11.0161C22.7044 9.60009 21.5524 8.44809 20.1364 8.44809C19.3844 8.44809 18.7684 7.83209 18.7684 7.08009C18.7684 6.32809 19.3844 5.71209 20.1364 5.71209C20.8884 5.71209 21.5044 6.32809 21.5044 7.08009C21.5044 7.40809 21.7764 7.68009 22.1044 7.68009C22.4324 7.68009 22.7044 7.40809 22.7044 7.08009C22.7044 5.87209 21.8644 4.86409 20.7364 4.59209V4.09609C20.7364 3.76809 20.4644 3.49609 20.1364 3.49609C19.8084 3.49609 19.5364 3.76809 19.5364 4.09609V4.59209C18.4084 4.86409 17.5684 5.87209 17.5684 7.08009C17.5684 8.49609 18.7204 9.64809 20.1364 9.64809C20.8884 9.64809 21.5044 10.2641 21.5044 11.0161C21.5044 11.7681 20.8884 12.3841 20.1364 12.3841C19.3844 12.3841 18.7684 11.7681 18.7684 11.0161C18.7684 10.6881 18.4964 10.4161 18.1684 10.4161C17.8404 10.4161 17.5684 10.6881 17.5684 11.0161C17.5684 12.2241 18.4084 13.2321 19.5364 13.5041V14.0001C19.5364 14.3281 19.8084 14.6001 20.1364 14.6001Z" fill="#505050"/>
</svg>
