<svg xmlns="http://www.w3.org/2000/svg" viewBox="0 0 24 24">
  <path fill="#FFFEF1" d="M13.9399 4.99982L18.9999 10.0598L9.06187 19.9998C8.78502 20.2768 8.44067 20.4767 8.06287 20.5798L2.94687 21.9748C2.81936 22.0094 2.68497 22.0097 2.55731 21.9757C2.42965 21.9416 2.31324 21.8745 2.21987 21.781C2.1265 21.6876 2.05948 21.5711 2.02558 21.4434C1.99169 21.3157 1.99214 21.1813 2.02687 21.0538L3.42187 15.9378C3.52497 15.56 3.72489 15.2157 4.00187 14.9388L13.9379 4.99982H13.9399ZM21.0299 2.96982C21.7009 3.64082 22.0778 4.55089 22.0778 5.49982C22.0778 6.44875 21.7009 7.35882 21.0299 8.02982L20.0599 8.99982L14.9999 3.93982L15.9699 2.96982C16.6409 2.29883 17.5509 1.92187 18.4999 1.92188C19.4488 1.92188 20.3589 2.29883 21.0299 2.96982V2.96982Z"/>
</svg>
