<svg width="40" height="40" viewBox="0 0 40 40" fill="none" xmlns="http://www.w3.org/2000/svg">
<path d="M39.08 21.5366C36.232 19.3126 32.656 17.9766 28.76 17.9766C19.48 17.9766 11.96 25.4966 11.96 34.7766C11.96 36.0166 12.104 37.2246 12.36 38.3926H39.08V21.5366Z" fill="#FEE7B5"/>
<path d="M38.08 24.1926C37.6 22.8486 36 22.2646 34.688 22.8166L22.128 28.1446C22.496 27.8806 22.8 27.5126 22.976 27.0646C23.488 25.8006 22.88 24.3766 21.616 23.8646L14.896 21.1446C13.52 20.5846 11.976 20.6006 10.608 21.1846L4.85596 23.6246L8.11996 31.3206L10.792 30.1846L19.2 33.5846C20.08 33.9446 21.072 33.9366 21.944 33.5606L36.736 27.2806C37.36 27.0166 37.816 26.5206 38.056 25.9446C38.264 25.4086 38.296 24.7766 38.08 24.1926Z" fill="white"/>
<path d="M4.33607 36.1601L1.42407 23.2481L4.18407 22.0801L8.89607 33.1841L4.33607 36.1601Z" fill="#5ED070"/>
<path d="M26.6961 22.0718C32.1791 22.0718 36.6241 17.6269 36.6241 12.1438C36.6241 6.66074 32.1791 2.21582 26.6961 2.21582C21.213 2.21582 16.7681 6.66074 16.7681 12.1438C16.7681 17.6269 21.213 22.0718 26.6961 22.0718Z" fill="#FDE4A1"/>
<path d="M38.392 25.0804C38.072 24.9924 37.736 25.1924 37.656 25.5044C37.616 25.6564 37.64 25.8244 37.72 25.9604C37.8 26.0964 37.928 26.1924 38.08 26.2404C38.136 26.2484 38.184 26.2564 38.24 26.2564C38.504 26.2564 38.744 26.0724 38.816 25.8084C38.904 25.4884 38.712 25.1604 38.392 25.0804Z" fill="#505050"/>
<path d="M37 26.4958C36.872 26.5918 36.736 26.6798 36.584 26.7438L21.792 33.0158C21.072 33.3198 20.24 33.3278 19.512 33.0318L11.096 29.6318C10.952 29.5678 10.784 29.5758 10.64 29.6318L8.51997 30.5358L5.72797 23.9438L10.928 21.7438C12.144 21.2238 13.536 21.2158 14.76 21.7038L21.48 24.4238C22.184 24.7118 22.648 25.3838 22.648 26.1438C22.648 26.3758 22.6 26.6158 22.504 26.8398C22.392 27.1278 22.2 27.3758 21.96 27.5678C21.736 27.5918 21.528 27.5838 21.296 27.5278C21.216 27.5118 21.144 27.4878 21.056 27.4558L15.224 25.7438C14.912 25.6478 14.568 25.8398 14.48 26.1438C14.384 26.4638 14.568 26.7998 14.88 26.8958L20.632 28.5758C20.752 28.6238 20.88 28.6638 21.016 28.6958C21.264 28.7598 21.512 28.7918 21.768 28.7918C21.952 28.7918 22.144 28.7678 22.328 28.7358C22.352 28.7278 22.376 28.7118 22.4 28.7038C22.416 28.6958 22.432 28.7038 22.448 28.6958L35.016 23.3678C35.264 23.2638 35.536 23.2078 35.808 23.2078C36.608 23.2078 37.296 23.6478 37.576 24.3198C37.696 24.6158 38.056 24.7678 38.36 24.6398C38.504 24.5838 38.624 24.4638 38.688 24.3198C38.744 24.1758 38.744 24.0078 38.688 23.8558C38.216 22.7358 37.088 22.0078 35.808 22.0078C35.368 22.0078 34.944 22.0958 34.544 22.2638L23.76 26.8398C23.816 26.6078 23.848 26.3758 23.848 26.1438C23.848 24.8958 23.096 23.7838 21.928 23.3118L15.208 20.5918C13.696 19.9838 11.96 19.9918 10.456 20.6398L5.25597 22.8478L4.83197 21.8398C4.70397 21.5438 4.34397 21.3998 4.04797 21.5278L1.28797 22.6958C1.01597 22.8078 0.871973 23.0958 0.935973 23.3758L3.83997 36.2958C3.87997 36.4878 4.01597 36.6398 4.19997 36.7198C4.27197 36.7438 4.35197 36.7598 4.42397 36.7598C4.54397 36.7598 4.65597 36.7278 4.75197 36.6638L9.31997 33.6878C9.55997 33.5278 9.65597 33.2158 9.54397 32.9518L8.98397 31.6398L10.88 30.8398L19.056 34.1438C19.56 34.3518 20.088 34.4558 20.632 34.4558C21.192 34.4558 21.744 34.3438 22.264 34.1198L37.056 27.8478C37.296 27.7438 37.528 27.6078 37.736 27.4398C38 27.2398 38.048 26.8638 37.84 26.5998C37.648 26.3438 37.256 26.2958 37 26.4958ZM4.82397 35.1838L2.21597 23.5998L3.95997 22.8638L4.38397 23.8638C4.38397 23.8638 7.65597 31.5758 7.66397 31.5758L8.24797 32.9598L4.82397 35.1838Z" fill="#505050"/>
<path d="M26.7919 22.6802C32.5999 22.6802 37.3279 17.9522 37.3279 12.1442C37.3279 6.33621 32.5999 1.61621 26.7919 1.61621C20.9839 1.61621 16.2639 6.33621 16.2639 12.1442C16.2639 17.9522 20.9839 22.6802 26.7919 22.6802ZM26.7919 2.81621C31.9359 2.81621 36.1279 7.00021 36.1279 12.1442C36.1279 17.2882 31.9439 21.4802 26.7919 21.4802C21.6399 21.4802 17.4559 17.2962 17.4559 12.1442C17.4639 7.00021 21.6479 2.81621 26.7919 2.81621Z" fill="#505050"/>
<path d="M21.936 13.1845C21.936 13.5125 22.208 13.7845 22.536 13.7845H23.336C23.576 14.4805 23.968 15.1285 24.52 15.6805C25.48 16.6405 26.752 17.1525 28.048 17.1525C28.576 17.1525 29.104 17.0725 29.616 16.8965C29.928 16.7925 30.104 16.4565 30 16.1365C29.896 15.8245 29.56 15.6485 29.24 15.7525C27.872 16.2005 26.384 15.8485 25.36 14.8245C25.048 14.5125 24.816 14.1525 24.64 13.7765H28.36C28.688 13.7765 28.96 13.5045 28.96 13.1765C28.96 12.8485 28.688 12.5765 28.36 12.5765H24.296C24.264 12.2805 24.264 11.9845 24.296 11.6965H28.36C28.688 11.6965 28.96 11.4245 28.96 11.0965C28.96 10.7685 28.688 10.4965 28.36 10.4965H24.64C24.824 10.1205 25.048 9.76055 25.36 9.44855C26.384 8.42455 27.872 8.07255 29.24 8.52055C29.552 8.62455 29.896 8.45655 30 8.13655C30.104 7.82455 29.936 7.48055 29.616 7.37655C27.816 6.77655 25.864 7.24855 24.512 8.59255C23.96 9.14455 23.568 9.79255 23.328 10.4885H22.528C22.2 10.4885 21.928 10.7605 21.928 11.0885C21.928 11.4165 22.2 11.6885 22.528 11.6885H23.072C23.048 11.9845 23.048 12.2805 23.072 12.5685H22.528C22.208 12.5845 21.936 12.8565 21.936 13.1845Z" fill="#505050"/>
</svg>
