<svg width="119" height="33" viewBox="0 0 119 33" fill="none" xmlns="http://www.w3.org/2000/svg">
<g clip-path="url(#clip0_1173_3213)">
<path fill-rule="evenodd" clip-rule="evenodd" d="M30.9329 32.6782H20.4794C15.2392 32.6782 10.7477 29.3569 9.03659 24.6961C3.84991 23.4372 0 18.7499 0 13.1517V11.8659C0 5.3303 5.32036 0 11.8438 0H30.6121C33.3659 0 35.5849 2.22319 35.5849 4.9821C35.5849 7.741 33.3659 9.99097 30.6121 9.99097H20.4794C14.6778 9.99097 9.97234 14.7052 9.97234 20.4909C9.97234 21.4551 10.106 22.3658 10.3466 23.2498C10.8278 23.3212 11.3269 23.3569 11.8438 23.3569H30.9329C33.4996 23.3569 35.5849 25.4729 35.5849 28.0175C35.5849 30.589 33.4996 32.6782 30.9329 32.6782ZM10.9883 25.0176C12.6726 28.5533 16.2819 31.0176 20.4794 31.0176H30.9329C32.5906 31.0176 33.9274 29.6783 33.9274 28.0175C33.9274 26.3837 32.5906 25.0444 30.9329 25.0444H11.8438C11.5586 25.0444 11.2735 25.0355 10.9883 25.0176ZM11.8438 1.6607C6.22936 1.6607 1.6576 6.241 1.6576 11.8659V13.1517C1.6576 17.6248 4.54503 21.4284 8.52862 22.8212C8.36821 22.0713 8.28801 21.2945 8.28801 20.4909C8.28801 13.7677 13.7688 8.30349 20.4794 8.30349H30.6121C32.4301 8.30349 33.9274 6.83029 33.9274 4.9821C33.9274 3.16069 32.4301 1.6607 30.6121 1.6607H11.8438Z" fill="black"/>
<path d="M59.0588 8.19641V10.9017C58.3993 10.2589 57.6419 9.70532 56.7863 9.24104C55.4495 8.52676 54.1038 8.16962 52.7492 8.16962C50.6639 8.16962 48.8726 9.05355 47.3754 10.8213C46.6268 11.6964 46.0743 12.6517 45.7178 13.6874C45.3435 14.7231 45.1564 15.8214 45.1564 16.982C45.1564 19.3927 45.9049 21.4642 47.4021 23.1962C48.8815 24.9284 50.6816 25.7944 52.8027 25.7944C53.8008 25.7944 54.8257 25.598 55.8773 25.2052C56.9111 24.7945 57.9716 24.1694 59.0588 23.3302V25.9284C56.6704 27.214 54.5048 27.8569 52.5621 27.8569C50.0489 27.8569 47.8478 26.8837 45.9584 24.9374C43.9265 22.848 42.9106 20.232 42.9106 17.0892C42.9106 14.0535 43.8552 11.4821 45.7445 9.37497C47.6695 7.24998 50.0489 6.1875 52.8829 6.1875C53.9879 6.1875 55.0484 6.35714 56.0644 6.69642C57.0804 7.03571 58.0785 7.5357 59.0588 8.19641Z" fill="black"/>
<path d="M135.094 8.19641V10.9017C134.435 10.2589 133.677 9.70532 132.822 9.24104C131.485 8.52676 130.14 8.16962 128.785 8.16962C126.699 8.16962 124.908 9.05355 123.411 10.8213C122.663 11.6964 122.11 12.6517 121.753 13.6874C121.379 14.7231 121.192 15.8214 121.192 16.982C121.192 19.3927 121.94 21.4642 123.437 23.1962C124.917 24.9284 126.717 25.7944 128.838 25.7944C129.836 25.7944 130.861 25.598 131.913 25.2052C132.947 24.7945 134.007 24.1694 135.094 23.3302V25.9284C132.706 27.214 130.54 27.8569 128.598 27.8569C126.084 27.8569 123.884 26.8837 121.994 24.9374C119.962 22.848 118.946 20.232 118.946 17.0892C118.946 14.0535 119.891 11.4821 121.78 9.37497C123.705 7.24998 126.084 6.1875 128.919 6.1875C130.024 6.1875 131.084 6.35714 132.1 6.69642C133.116 7.03571 134.114 7.5357 135.094 8.19641Z" fill="black"/>
<path d="M76.0892 6.53564H78.0142V27.5087H76.0892V6.53564Z" fill="black"/>
<path fill-rule="evenodd" clip-rule="evenodd" d="M93.1197 19.7677H82.2385C82.2385 21.8213 82.7197 23.3927 83.6821 24.4819C84.6268 25.5533 85.8745 26.089 87.4251 26.089C88.6014 26.089 89.7332 25.7141 90.8205 24.964C91.1236 24.7676 91.4443 24.5266 91.783 24.2409C92.1217 23.9373 92.487 23.5891 92.8792 23.1962V25.5265C92.4514 25.848 92.0504 26.1337 91.6761 26.3837C91.3196 26.6158 90.981 26.8122 90.6601 26.973C89.5372 27.5623 88.4143 27.8568 87.2914 27.8568C85.3487 27.8568 83.7 27.1873 82.3454 25.848C80.8839 24.4373 80.153 22.607 80.153 20.357C80.153 18.2498 80.8126 16.482 82.1315 15.0535C83.4682 13.607 85.117 12.8838 87.0776 12.8838C88.9847 12.8838 90.4998 13.5803 91.6226 14.9731C92.6207 16.241 93.1197 17.8391 93.1197 19.7677ZM82.5058 18.1338H90.874C90.6601 16.9374 90.1967 16.0356 89.4838 15.4284C88.7887 14.8392 87.942 14.5445 86.9439 14.5445C85.8389 14.5445 84.9031 14.8927 84.1367 15.5892C83.4237 16.2141 82.8801 17.0623 82.5058 18.1338Z" fill="black"/>
<path d="M102.905 13.2052V15.1337C102.709 15.0623 102.549 14.9998 102.424 14.9462C102.299 14.9105 102.192 14.8837 102.103 14.8658C102.014 14.848 101.916 14.8302 101.809 14.8123C101.72 14.8123 101.595 14.8123 101.434 14.8123C100.133 14.8123 99.064 15.4373 98.2263 16.6872C97.5133 17.848 97.1569 19.1426 97.1569 20.5711V27.5086H95.2319V13.2052H96.9964L97.1302 15.6695C97.5757 14.9194 97.9946 14.3837 98.3867 14.0624C99.1887 13.4016 100.151 13.0713 101.274 13.0713C101.577 13.0713 101.853 13.0801 102.103 13.098C102.37 13.1159 102.638 13.1516 102.905 13.2052Z" fill="black"/>
<path fill-rule="evenodd" clip-rule="evenodd" d="M117.209 19.7677H106.327C106.327 21.8213 106.799 23.3927 107.744 24.4819C108.706 25.5533 109.963 26.089 111.514 26.089C112.69 26.089 113.821 25.7141 114.91 24.964C115.212 24.7676 115.533 24.5266 115.871 24.2409C116.21 23.9373 116.576 23.5891 116.968 23.1962V25.5265C116.539 25.848 116.139 26.1337 115.765 26.3837C115.408 26.6158 115.07 26.8122 114.749 26.973C113.626 27.5623 112.503 27.8568 111.38 27.8568C109.437 27.8568 107.788 27.1873 106.434 25.848C104.972 24.4373 104.242 22.607 104.242 20.357C104.242 18.2498 104.901 16.482 106.22 15.0535C107.557 13.607 109.206 12.8838 111.166 12.8838C113.073 12.8838 114.589 13.5803 115.711 14.9731C116.709 16.241 117.209 17.8391 117.209 19.7677ZM106.594 18.1338H114.963C114.749 16.9374 114.285 16.0356 113.573 15.4284C112.877 14.8392 112.03 14.5445 111.032 14.5445C109.927 14.5445 108.991 14.8927 108.225 15.5892C107.512 16.2141 106.968 17.0623 106.594 18.1338Z" fill="black"/>
<path fill-rule="evenodd" clip-rule="evenodd" d="M73.9771 19.7677H63.0958C63.0958 21.8213 63.5771 23.3927 64.5395 24.4819C65.4842 25.5533 66.7318 26.089 68.2825 26.089C69.4588 26.089 70.5906 25.7141 71.6779 24.964C71.9809 24.7676 72.3017 24.5266 72.6403 24.2409C72.979 23.9373 73.3444 23.5891 73.7366 23.1962V25.5265C73.3088 25.848 72.9166 26.1337 72.5601 26.3837C72.1859 26.6158 71.8383 26.8122 71.5175 26.973C70.3946 27.5623 69.2717 27.8568 68.1488 27.8568C66.2061 27.8568 64.5574 27.1873 63.2027 25.848C61.7412 24.4373 61.0104 22.607 61.0104 20.357C61.0104 18.2498 61.6699 16.482 62.9888 15.0535C64.3256 13.607 65.9743 12.8838 67.9349 12.8838C69.8421 12.8838 71.3571 13.5803 72.48 14.9731C73.478 16.241 73.9771 17.8391 73.9771 19.7677ZM63.3632 18.1338H71.7313C71.5175 16.9374 71.063 16.0356 70.3679 15.4284C69.6549 14.8392 68.7994 14.5445 67.8013 14.5445C66.6962 14.5445 65.7605 14.8927 64.9941 15.5892C64.2811 16.2141 63.7375 17.0623 63.3632 18.1338Z" fill="black"/>
<path d="M70.2341 11.4374H65.2614V9.80347H70.2341V11.4374Z" fill="black"/>
</g>
<defs>
<clipPath id="clip0_1173_3213">
<rect width="119" height="33" fill="white"/>
</clipPath>
</defs>
</svg>
