<svg width="98" height="99" viewBox="0 0 98 99" fill="none" xmlns="http://www.w3.org/2000/svg">
<g filter="url(#filter0_d_122_2646)">
<circle cx="49" cy="41.5" r="25" fill="#FADC00"/>
<path d="M55.2205 40.5C55.4017 40.5 55.5768 40.5656 55.7134 40.6848C55.85 40.8039 55.9388 40.9684 55.9635 41.148L55.9705 41.25V41.75C55.9706 43.4536 55.3266 45.0942 54.1676 46.3428C53.0086 47.5914 51.4204 48.3556 49.7215 48.482L49.7205 50.75C49.7204 50.94 49.6482 51.1229 49.5185 51.2618C49.3888 51.4006 49.2112 51.4851 49.0216 51.498C48.832 51.511 48.6446 51.4515 48.4972 51.3316C48.3498 51.2117 48.2534 51.0402 48.2275 50.852L48.2205 50.75V48.482C46.562 48.3588 45.0073 47.6278 43.8547 46.429C42.702 45.2302 42.0325 43.648 41.9745 41.986L41.9705 41.75V41.25C41.9705 41.06 42.0427 40.8771 42.1724 40.7382C42.3022 40.5994 42.4798 40.5149 42.6693 40.502C42.8589 40.489 43.0464 40.5485 43.1938 40.6684C43.3412 40.7883 43.4376 40.9598 43.4635 41.148L43.4705 41.25V41.75C43.4703 43.1051 43.9942 44.4077 44.9324 45.3854C45.8706 46.3632 47.1505 46.9402 48.5045 46.996L48.7205 47H49.2205C50.5755 47.0001 51.8782 46.4763 52.8559 45.5381C53.8336 44.5998 54.4107 43.3199 54.4665 41.966L54.4705 41.75V41.25C54.4705 41.0511 54.5495 40.8603 54.6901 40.7197C54.8308 40.579 55.0215 40.5 55.2205 40.5ZM48.9705 31.5C50.0313 31.5 51.0487 31.9214 51.7989 32.6716C52.549 33.4217 52.9705 34.4391 52.9705 35.5V41.5C52.9705 42.5609 52.549 43.5783 51.7989 44.3284C51.0487 45.0786 50.0313 45.5 48.9705 45.5C47.9096 45.5 46.8922 45.0786 46.142 44.3284C45.3919 43.5783 44.9705 42.5609 44.9705 41.5V35.5C44.9705 34.4391 45.3919 33.4217 46.142 32.6716C46.8922 31.9214 47.9096 31.5 48.9705 31.5Z" fill="#212121"/>
</g>
<defs>
<filter id="filter0_d_122_2646" x="0" y="0.5" width="98" height="98" filterUnits="userSpaceOnUse" color-interpolation-filters="sRGB">
<feFlood flood-opacity="0" result="BackgroundImageFix"/>
<feColorMatrix in="SourceAlpha" type="matrix" values="0 0 0 0 0 0 0 0 0 0 0 0 0 0 0 0 0 0 127 0" result="hardAlpha"/>
<feOffset dy="8"/>
<feGaussianBlur stdDeviation="12"/>
<feComposite in2="hardAlpha" operator="out"/>
<feColorMatrix type="matrix" values="0 0 0 0 0 0 0 0 0 0 0 0 0 0 0 0 0 0 0.05 0"/>
<feBlend mode="normal" in2="BackgroundImageFix" result="effect1_dropShadow_122_2646"/>
<feBlend mode="normal" in="SourceGraphic" in2="effect1_dropShadow_122_2646" result="shape"/>
</filter>
</defs>
</svg>
