<svg width="54" height="54" viewBox="0 0 54 54" fill="none" xmlns="http://www.w3.org/2000/svg">
<g clip-path="url(#clip0_200_4724)">
<path d="M23.1078 9.60938L18.1308 17.8906H11.2987L16.2758 9.60938H23.1078Z" fill="#FFDB80"/>
<path d="M40.5564 17.8906H34.1964L28.7349 9.60938H35.0949L40.5564 17.8906Z" fill="#FFDB80"/>
<path d="M14.9922 36.1094C14.0095 36.1094 13.0488 36.4008 12.2317 36.9468C11.4146 37.4927 10.7777 38.2687 10.4017 39.1767C10.0256 40.0846 9.92719 41.0836 10.1189 42.0475C10.3106 43.0113 10.7839 43.8967 11.4788 44.5916C12.1736 45.2865 13.059 45.7597 14.0228 45.9514C14.9867 46.1431 15.9857 46.0447 16.8936 45.6687C17.8016 45.2926 18.5776 44.6557 19.1236 43.8386C19.6695 43.0215 19.9609 42.0609 19.9609 41.0781C19.9599 39.7607 19.4361 38.4974 18.5045 37.5658C17.5729 36.6342 16.3097 36.1104 14.9922 36.1094ZM14.9922 44.3906C14.337 44.3906 13.6966 44.1963 13.1519 43.8324C12.6071 43.4684 12.1826 42.951 11.9318 42.3458C11.6811 41.7405 11.6155 41.0745 11.7433 40.4319C11.8712 39.7893 12.1866 39.1991 12.6499 38.7358C13.1132 38.2726 13.7034 37.9571 14.346 37.8293C14.9885 37.7015 15.6545 37.7671 16.2598 38.0178C16.8651 38.2685 17.3824 38.6931 17.7464 39.2378C18.1104 39.7825 18.3047 40.423 18.3047 41.0781C18.3035 41.9563 17.9542 42.7982 17.3332 43.4191C16.7122 44.0401 15.8704 44.3895 14.9922 44.3906Z" fill="#2D4356"/>
<path d="M18.3047 41.0781C18.3047 41.7333 18.1104 42.3737 17.7464 42.9185C17.3825 43.4632 16.8651 43.8878 16.2598 44.1385C15.6545 44.3892 14.9885 44.4548 14.346 44.327C13.7034 44.1992 13.1132 43.8837 12.6499 43.4204C12.1866 42.9572 11.8712 42.3669 11.7433 41.7244C11.6155 41.0818 11.6811 40.4158 11.9318 39.8105C12.1826 39.2052 12.6071 38.6879 13.1519 38.3239C13.6966 37.9599 14.337 37.7656 14.9922 37.7656C15.8704 37.7668 16.7122 38.1162 17.3332 38.7371C17.9542 39.3581 18.3035 40.2 18.3047 41.0781Z" fill="#D68751"/>
<path d="M44.668 31.0039V40.9414H42.312C42.3081 40.7102 42.2915 40.4793 42.2623 40.2499C42.2257 39.9708 42.1718 39.6942 42.1009 39.4218C41.7359 38.0002 40.9084 36.7404 39.7487 35.8408C38.589 34.9412 37.163 34.453 35.6953 34.453C34.2276 34.453 32.8016 34.9412 31.6419 35.8408C30.4822 36.7404 29.6547 38.0002 29.2898 39.4218C29.2188 39.6942 29.1649 39.9708 29.1283 40.2499C29.0991 40.4793 29.0825 40.7102 29.0786 40.9414H21.6089C21.605 40.7102 21.5884 40.4793 21.5592 40.2499C21.5226 39.9708 21.4687 39.6942 21.3977 39.4218C21.0328 38.0002 20.2053 36.7404 19.0456 35.8408C17.8859 34.9412 16.4599 34.453 14.9922 34.453C13.5245 34.453 12.0985 34.9412 10.9388 35.8408C9.7791 36.7404 8.9516 38.0002 8.58664 39.4218C8.51572 39.6942 8.46179 39.9708 8.42516 40.2499C8.39595 40.4793 8.37936 40.7102 8.37547 40.9414H5.67578V31.0039H44.668Z" fill="#81D9E3"/>
<path d="M35.6953 36.1094C34.7126 36.1094 33.7519 36.4008 32.9348 36.9468C32.1177 37.4927 31.4809 38.2687 31.1048 39.1767C30.7287 40.0846 30.6303 41.0836 30.822 42.0475C31.0138 43.0113 31.487 43.8967 32.1819 44.5916C32.8768 45.2865 33.7621 45.7597 34.726 45.9514C35.6898 46.1431 36.6889 46.0447 37.5968 45.6687C38.5047 45.2926 39.2807 44.6557 39.8267 43.8386C40.3727 43.0215 40.6641 42.0609 40.6641 41.0781C40.663 39.7607 40.1392 38.4974 39.2076 37.5658C38.276 36.6342 37.0128 36.1104 35.6953 36.1094ZM35.6953 44.3906C35.0402 44.3906 34.3997 44.1963 33.855 43.8324C33.3102 43.4684 32.8857 42.951 32.635 42.3458C32.3842 41.7405 32.3187 41.0745 32.4465 40.4319C32.5743 39.7893 32.8898 39.1991 33.353 38.7358C33.8163 38.2726 34.4065 37.9571 35.0491 37.8293C35.6916 37.7015 36.3577 37.7671 36.963 38.0178C37.5682 38.2685 38.0856 38.6931 38.4496 39.2378C38.8135 39.7825 39.0078 40.423 39.0078 41.0781C39.0066 41.9563 38.6573 42.7982 38.0363 43.4191C37.4154 44.0401 36.5735 44.3895 35.6953 44.3906Z" fill="#2D4356"/>
<path d="M39.0078 41.0781C39.0078 41.7333 38.8135 42.3737 38.4496 42.9185C38.0856 43.4632 37.5682 43.8878 36.963 44.1385C36.3577 44.3892 35.6916 44.4548 35.0491 44.327C34.4065 44.1992 33.8163 43.8837 33.353 43.4204C32.8898 42.9572 32.5743 42.3669 32.4465 41.7244C32.3186 41.0818 32.3842 40.4158 32.635 39.8105C32.8857 39.2052 33.3102 38.6879 33.855 38.3239C34.3997 37.9599 35.0402 37.7656 35.6953 37.7656C36.5735 37.7668 37.4154 38.1162 38.0363 38.7371C38.6573 39.3581 39.0066 40.2 39.0078 41.0781Z" fill="#D68751"/>
<path d="M52.6719 26.5859H48.5312C48.3116 26.5859 48.101 26.6732 47.9457 26.8285C47.7904 26.9838 47.7031 27.1944 47.7031 27.4141C47.7031 27.6337 47.7904 27.8443 47.9457 27.9996C48.101 28.1549 48.3116 28.2422 48.5312 28.2422H49.7734V32.3828C49.7545 32.6187 49.6436 32.8377 49.4647 32.9927C49.2858 33.1476 49.0531 33.226 48.817 33.2109H45.6328V19.5469H48.4153C50.2786 19.5469 50.7506 18.433 49.4629 17.0708L44.9082 9.17461C44.5465 8.78927 44.1097 8.4821 43.6247 8.27203C43.1398 8.06195 42.6169 7.95342 42.0884 7.95313H8.60734C8.07816 7.95299 7.55456 8.0613 7.06887 8.27139C6.58318 8.48147 6.1457 8.78887 5.78343 9.17461L1.2246 17.0791C-0.0589892 18.4372 0.408902 19.5469 2.26804 19.5469H5.05468V40.25C5.06436 40.6985 5.25162 41.1248 5.57535 41.4353C5.89908 41.7459 6.33282 41.9152 6.78132 41.9062H8.42515C8.34785 41.3569 8.34785 40.7994 8.42515 40.25H6.78132C6.75616 40.2516 6.73124 40.2442 6.71093 40.2293V31.9687H21.6006L24.2506 35.7574C24.3274 35.8662 24.4291 35.9549 24.5473 36.0162C24.6654 36.0774 24.7966 36.1094 24.9297 36.1094C25.0628 36.1094 25.1939 36.0774 25.3121 36.0162C25.4303 35.9549 25.532 35.8662 25.6087 35.7574L28.2587 31.9687H43.9766V40.2293C43.9563 40.2442 43.9313 40.2516 43.9062 40.25H42.2623C42.3396 40.7994 42.3396 41.3569 42.2623 41.9062H43.9062C44.3547 41.9152 44.7884 41.7459 45.1121 41.4353C45.4359 41.1248 45.6231 40.6985 45.6328 40.25V34.8672H48.817C49.4926 34.8832 50.147 34.6306 50.6367 34.1649C51.1265 33.6992 51.4116 33.0584 51.4297 32.3828V28.2422H52.6719C52.8915 28.2422 53.1021 28.1549 53.2574 27.9996C53.4128 27.8443 53.5 27.6337 53.5 27.4141C53.5 27.1944 53.4128 26.9838 53.2574 26.8285C53.1021 26.6732 52.8915 26.5859 52.6719 26.5859ZM35.0949 9.60938L40.5564 17.8906H34.1964L28.7349 9.60938H35.0949ZM26.7516 9.60938L32.213 17.8906H20.0644L25.0415 9.60938H26.7516ZM23.1078 9.60938L18.1308 17.8906H11.2987L16.2758 9.60938H23.1078ZM2.66554 17.8906L7.10843 10.1932C7.51814 9.81907 8.05251 9.61093 8.60734 9.60938H14.3462L9.36507 17.8906H2.66554ZM11.6797 30.3125H10.0234V26.1719H11.6797V30.3125ZM17.4766 30.3125C17.3128 30.3125 17.1527 30.2639 17.0165 30.1729C16.8803 30.0819 16.7741 29.9526 16.7115 29.8013C16.6488 29.65 16.6324 29.4835 16.6643 29.3228C16.6963 29.1622 16.7752 29.0146 16.891 28.8988C17.0068 28.783 17.1544 28.7041 17.315 28.6722C17.4756 28.6402 17.6421 28.6566 17.7935 28.7193C17.9448 28.782 18.0741 28.8881 18.1651 29.0243C18.2561 29.1605 18.3047 29.3206 18.3047 29.4844C18.304 29.7038 18.2166 29.9141 18.0614 30.0692C17.9063 30.2244 17.696 30.3119 17.4766 30.3125ZM24.9297 33.8362L23.6212 31.9687H26.2381L24.9297 33.8362ZM40.2873 30.3125H31.1034V28.6562H40.2873V30.3125ZM43.9766 30.3125H41.9062V28.6562C41.9087 28.4412 41.8688 28.2277 41.7888 28.0281C41.7087 27.8285 41.5902 27.6466 41.4398 27.4928C41.2895 27.339 41.1103 27.2163 40.9126 27.1317C40.7148 27.0472 40.5023 27.0024 40.2873 27H31.1034C30.8883 27.0024 30.6758 27.0472 30.4781 27.1317C30.2803 27.2163 30.1011 27.339 29.9508 27.4928C29.8005 27.6466 29.6819 27.8285 29.6019 28.0281C29.5218 28.2277 29.4819 28.4412 29.4844 28.6562V30.3125H19.816C19.95 29.9376 19.9919 29.5359 19.9382 29.1414C19.8845 28.7468 19.7368 28.371 19.5075 28.0455C19.2782 27.72 18.974 27.4544 18.6205 27.2711C18.2671 27.0877 17.8747 26.992 17.4766 26.992C17.0784 26.992 16.6861 27.0877 16.3326 27.2711C15.9792 27.4544 15.675 27.72 15.4456 28.0455C15.2163 28.371 15.0686 28.7468 15.0149 29.1414C14.9612 29.5359 15.0031 29.9376 15.1371 30.3125H13.3359V25.7288C13.331 25.4036 13.1976 25.0935 12.9649 24.8662C12.7322 24.6389 12.419 24.5129 12.0937 24.5156H9.60937C9.28409 24.5129 8.97093 24.6389 8.73822 24.8662C8.5055 25.0935 8.37212 25.4036 8.36718 25.7288V30.3125H6.71093V19.5469H43.9766V30.3125ZM42.5398 17.8906L37.0783 9.60938H42.0884C42.642 9.61097 43.1751 9.81917 43.5832 10.1932L48.0219 17.8906H42.5398Z" fill="#2D4356"/>
<path d="M31.1034 28.6562H40.2873V30.3125H31.1034V28.6562Z" fill="#FC785E"/>
<path d="M17.4766 30.3125C17.9339 30.3125 18.3047 29.9417 18.3047 29.4844C18.3047 29.027 17.9339 28.6562 17.4766 28.6562C17.0192 28.6562 16.6484 29.027 16.6484 29.4844C16.6484 29.9417 17.0192 30.3125 17.4766 30.3125Z" fill="#FC785E"/>
<path d="M10.0234 26.1719H11.6797V30.3125H10.0234V26.1719Z" fill="#FC785E"/>
<path d="M26.2382 31.9688L24.9297 33.8362L23.6213 31.9688H26.2382Z" fill="#FC785E"/>
<path d="M14.3463 9.60938L9.36509 17.8906H2.66556L7.10845 10.1932C7.51816 9.81907 8.05252 9.61093 8.60736 9.60938H14.3463Z" fill="#FC785E"/>
<path d="M48.0219 17.8906H42.5398L37.0783 9.60938H42.0884C42.642 9.61097 43.1751 9.81917 43.5832 10.1932L48.0219 17.8906Z" fill="#FC785E"/>
<path d="M32.213 17.8906H20.0645L25.0415 9.60938H26.7516L32.213 17.8906Z" fill="#FC785E"/>
<path d="M6.71094 19.5469V30.3125H8.36719V25.7288C8.37213 25.4036 8.50551 25.0935 8.73822 24.8662C8.97094 24.6389 9.2841 24.5129 9.60938 24.5156H12.0938C12.419 24.5129 12.7322 24.6389 12.9649 24.8662C13.1976 25.0935 13.331 25.4036 13.3359 25.7288V30.3125H15.1371C15.0031 29.9376 14.9612 29.5359 15.0149 29.1414C15.0686 28.7468 15.2163 28.371 15.4456 28.0455C15.675 27.72 15.9792 27.4544 16.3326 27.2711C16.6861 27.0877 17.0784 26.992 17.4766 26.992C17.8747 26.992 18.2671 27.0877 18.6205 27.2711C18.974 27.4544 19.2782 27.72 19.5075 28.0455C19.7368 28.371 19.8846 28.7468 19.9382 29.1414C19.9919 29.5359 19.95 29.9376 19.816 30.3125H29.4844V28.6562C29.4819 28.4412 29.5218 28.2277 29.6019 28.0281C29.6819 27.8285 29.8005 27.6466 29.9508 27.4928C30.1011 27.339 30.2803 27.2163 30.4781 27.1317C30.6758 27.0472 30.8883 27.0024 31.1034 27H40.2873C40.5023 27.0024 40.7148 27.0472 40.9126 27.1317C41.1103 27.2163 41.2895 27.339 41.4398 27.4928C41.5902 27.6466 41.7087 27.8285 41.7888 28.0281C41.8688 28.2277 41.9087 28.4412 41.9062 28.6562V30.3125H43.9766V19.5469H6.71094ZM34.6602 23.7496C34.6896 23.7903 34.7133 23.8349 34.7305 23.8821C34.8952 24.1616 34.9848 24.4789 34.9906 24.8032C34.9964 25.1275 34.9182 25.4478 34.7637 25.733C34.6926 25.8655 34.5869 25.9764 34.4578 26.0536C34.3288 26.1309 34.1812 26.1718 34.0308 26.1719C33.8952 26.1728 33.7614 26.1401 33.6416 26.0766C33.4483 25.9723 33.3039 25.7961 33.2396 25.5861C33.1753 25.3761 33.1962 25.1492 33.2979 24.9545C33.3559 24.8469 33.3559 24.8469 33.2399 24.5984C33.1104 24.3619 33.0315 24.1011 33.008 23.8324C32.9814 23.5237 33.0336 23.2132 33.1596 22.93C33.2856 22.6469 33.4813 22.4003 33.7285 22.2134C33.8998 22.0762 34.1187 22.0126 34.3369 22.0366C34.5551 22.0607 34.7548 22.1705 34.892 22.3418C35.0293 22.5131 35.0929 22.7319 35.0688 22.9501C35.0448 23.1683 34.935 23.368 34.7637 23.5053C34.6809 23.5716 34.656 23.5881 34.656 23.6834C34.656 23.7041 34.6602 23.7248 34.6602 23.7496ZM37.9727 23.7496C38.0021 23.7903 38.0258 23.8349 38.043 23.8821C38.2077 24.1616 38.2973 24.4789 38.3031 24.8032C38.3089 25.1275 38.2307 25.4478 38.0762 25.733C38.0051 25.8655 37.8994 25.9764 37.7703 26.0536C37.6413 26.1309 37.4937 26.1718 37.3433 26.1719C37.2077 26.1728 37.0739 26.1401 36.9541 26.0766C36.7608 25.9723 36.6164 25.7961 36.5521 25.5861C36.4878 25.3761 36.5087 25.1492 36.6104 24.9545C36.6684 24.8469 36.6684 24.8469 36.5524 24.5984C36.4229 24.3619 36.344 24.1011 36.3205 23.8324C36.2939 23.5237 36.3461 23.2132 36.4721 22.93C36.5981 22.6469 36.7938 22.4003 37.041 22.2134C37.2123 22.0762 37.4312 22.0126 37.6494 22.0366C37.8676 22.0607 38.0673 22.1705 38.2045 22.3418C38.3418 22.5131 38.4054 22.7319 38.3813 22.9501C38.3573 23.1683 38.2475 23.368 38.0762 23.5053C37.9934 23.5716 37.9685 23.5881 37.9685 23.6834C37.9685 23.7041 37.9727 23.7248 37.9727 23.7496Z" fill="#E1EBF4"/>
<path d="M34.7306 23.8817C34.8952 24.1612 34.9848 24.4785 34.9906 24.8028C34.9964 25.1271 34.9182 25.4474 34.7637 25.7326C34.6926 25.8651 34.5869 25.976 34.4579 26.0532C34.3288 26.1305 34.1812 26.1714 34.0308 26.1715C33.8952 26.1724 33.7614 26.1397 33.6416 26.0762C33.4483 25.9719 33.3039 25.7956 33.2396 25.5857C33.1753 25.3757 33.1962 25.1488 33.2979 24.9541C33.3559 24.8465 33.3559 24.8465 33.2399 24.598C33.1104 24.3615 33.0315 24.1007 33.0081 23.832C32.9814 23.5233 33.0336 23.2128 33.1596 22.9296C33.2856 22.6465 33.4813 22.3999 33.7285 22.213C33.8998 22.0758 34.1187 22.0122 34.3369 22.0362C34.5551 22.0603 34.7548 22.1701 34.892 22.3414C35.0293 22.5127 35.0929 22.7315 35.0688 22.9497C35.0448 23.1679 34.935 23.3676 34.7637 23.5049C34.6809 23.5712 34.656 23.5877 34.656 23.683C34.656 23.7037 34.6602 23.7244 34.6602 23.7492C34.6896 23.7899 34.7133 23.8345 34.7306 23.8817Z" fill="#2D4356"/>
<path d="M38.0431 23.8817C38.2077 24.1612 38.2973 24.4785 38.3031 24.8028C38.3089 25.1271 38.2307 25.4474 38.0762 25.7326C38.0051 25.8651 37.8994 25.976 37.7704 26.0532C37.6413 26.1305 37.4937 26.1714 37.3433 26.1715C37.2077 26.1724 37.0739 26.1397 36.9541 26.0762C36.7608 25.9719 36.6164 25.7956 36.5521 25.5857C36.4878 25.3757 36.5087 25.1488 36.6104 24.9541C36.6684 24.8465 36.6684 24.8465 36.5524 24.598C36.4229 24.3615 36.344 24.1007 36.3206 23.832C36.2939 23.5233 36.3461 23.2128 36.4721 22.9296C36.5981 22.6465 36.7938 22.3999 37.041 22.213C37.2123 22.0758 37.4312 22.0122 37.6494 22.0362C37.8676 22.0603 38.0673 22.1701 38.2045 22.3414C38.3418 22.5127 38.4054 22.7315 38.3813 22.9497C38.3573 23.1679 38.2475 23.3676 38.0762 23.5049C37.9934 23.5712 37.9685 23.5877 37.9685 23.683C37.9685 23.7037 37.9727 23.7244 37.9727 23.7492C38.0021 23.7899 38.0258 23.8345 38.0431 23.8817Z" fill="#2D4356"/>
<path d="M21.5597 40.25C21.6364 40.7994 21.6364 41.3568 21.5597 41.9062H29.1278C29.0511 41.3568 29.0511 40.7994 29.1278 40.25H21.5597Z" fill="#2D4356"/>
<path opacity="0.45" d="M11.7956 17.0625H18.6276L18.1308 17.8906H11.2987L11.7956 17.0625Z" fill="#AD9359"/>
<path opacity="0.3" d="M18.3047 41.0781C18.3048 41.2165 18.2965 41.3548 18.2798 41.4922C18.1787 40.6916 17.7889 39.9555 17.1836 39.4218C16.5783 38.8882 15.7991 38.5938 14.9922 38.5938C14.1853 38.5938 13.406 38.8882 12.8008 39.4218C12.1955 39.9555 11.8057 40.6916 11.7045 41.4922C11.6879 41.3548 11.6796 41.2165 11.6797 41.0781C11.6797 40.1996 12.0287 39.357 12.6499 38.7358C13.2711 38.1146 14.1137 37.7656 14.9922 37.7656C15.8707 37.7656 16.7133 38.1146 17.3345 38.7358C17.9557 39.357 18.3047 40.1996 18.3047 41.0781Z" fill="#E5D0C3"/>
<path opacity="0.4" d="M18.3047 41.0781C18.3047 41.9567 17.9557 42.7992 17.3345 43.4204C16.7133 44.0416 15.8707 44.3906 14.9922 44.3906C14.1137 44.3906 13.2711 44.0416 12.6499 43.4204C12.0287 42.7992 11.6797 41.9567 11.6797 41.0781C11.6796 40.9397 11.6879 40.8015 11.7045 40.6641C11.8057 41.4646 12.1955 42.2008 12.8008 42.7344C13.406 43.2681 14.1853 43.5625 14.9922 43.5625C15.7991 43.5625 16.5783 43.2681 17.1836 42.7344C17.7889 42.2008 18.1787 41.4646 18.2798 40.6641C18.2965 40.8015 18.3048 40.9397 18.3047 41.0781Z" fill="#72492D"/>
<path opacity="0.3" d="M39.0078 41.0781C39.0079 41.2165 38.9996 41.3548 38.983 41.4922C38.8818 40.6916 38.492 39.9555 37.8867 39.4218C37.2815 38.8882 36.5022 38.5938 35.6953 38.5938C34.8884 38.5938 34.1092 38.8882 33.5039 39.4218C32.8986 39.9555 32.5088 40.6916 32.4077 41.4922C32.391 41.3548 32.3827 41.2165 32.3828 41.0781C32.3828 40.1996 32.7318 39.357 33.353 38.7358C33.9742 38.1146 34.8168 37.7656 35.6953 37.7656C36.5738 37.7656 37.4164 38.1146 38.0376 38.7358C38.6588 39.357 39.0078 40.1996 39.0078 41.0781Z" fill="#E5D0C3"/>
<path opacity="0.4" d="M39.0078 41.0781C39.0078 41.9567 38.6588 42.7992 38.0376 43.4204C37.4164 44.0416 36.5738 44.3906 35.6953 44.3906C34.8168 44.3906 33.9742 44.0416 33.353 43.4204C32.7318 42.7992 32.3828 41.9567 32.3828 41.0781C32.3827 40.9397 32.391 40.8015 32.4077 40.6641C32.5088 41.4646 32.8986 42.2008 33.5039 42.7344C34.1092 43.2681 34.8884 43.5625 35.6953 43.5625C36.5022 43.5625 37.2815 43.2681 37.8867 42.7344C38.492 42.2008 38.8818 41.4646 38.983 40.6641C38.9996 40.8015 39.0079 40.9397 39.0078 41.0781Z" fill="#72492D"/>
<path opacity="0.5" d="M48.0219 17.8906H42.5398L41.9932 17.0625H47.5458L48.0219 17.8906Z" fill="#A54B3F"/>
<path opacity="0.45" d="M40.5564 17.8906H34.1964L33.6498 17.0625H40.0098L40.5564 17.8906Z" fill="#AD9359"/>
<path opacity="0.5" d="M32.213 17.8906H20.0645L20.5613 17.0625H31.6665L32.213 17.8906Z" fill="#A54B3F"/>
<path opacity="0.5" d="M3.14173 17.0625H9.86196L9.36509 17.8906H2.66556L3.14173 17.0625Z" fill="#A54B3F"/>
<path opacity="0.3" d="M48.0219 17.8906H47.5458L43.5832 11.0213C43.1751 10.6473 42.642 10.4391 42.0884 10.4375H37.6248L37.0783 9.60938H42.0884C42.642 9.61097 43.1751 9.81917 43.5832 10.1932L48.0219 17.8906Z" fill="#F9DBD7"/>
<path opacity="0.5" d="M35.6415 10.4375H29.2815L28.7349 9.60938H35.0949L35.6415 10.4375Z" fill="#F9EDD2"/>
<path opacity="0.3" d="M26.7516 9.60938L27.2981 10.4375H24.5446L25.0415 9.60938H26.7516Z" fill="#F9DBD7"/>
<path opacity="0.5" d="M23.1078 9.60938L22.6109 10.4375H15.7789L16.2758 9.60938H23.1078Z" fill="#F9EDD2"/>
<path opacity="0.3" d="M14.3463 9.60938L13.8494 10.4375H8.60736C8.05252 10.4391 7.51816 10.6472 7.10845 11.0213L3.14173 17.8906H2.66556L7.10845 10.1932C7.51816 9.81907 8.05252 9.61093 8.60736 9.60938H14.3463Z" fill="#F9DBD7"/>
<path opacity="0.3" d="M31.1034 28.6562H40.2873V29.4844H31.1034V28.6562Z" fill="#F9DBD7"/>
<path opacity="0.5" d="M18.3047 29.4844C18.3049 29.6115 18.2759 29.737 18.2198 29.8511C18.1637 29.9653 18.082 30.0649 17.9812 30.1424C17.8804 30.2199 17.7631 30.2731 17.6384 30.298C17.5137 30.3228 17.3849 30.3186 17.2621 30.2857C17.1393 30.2528 17.0257 30.192 16.9302 30.1081C16.8346 30.0242 16.7597 29.9194 16.7111 29.8019C16.6626 29.6844 16.6418 29.5573 16.6503 29.4304C16.6588 29.3035 16.6964 29.1803 16.7602 29.0703C16.8327 29.1962 16.9371 29.3007 17.0629 29.3734C17.1886 29.4461 17.3313 29.4844 17.4766 29.4844C17.6218 29.4844 17.7645 29.4461 17.8903 29.3734C18.016 29.3007 18.1204 29.1962 18.1929 29.0703C18.266 29.1961 18.3045 29.3389 18.3047 29.4844Z" fill="#A54B3F"/>
<path opacity="0.3" d="M10.0234 26.1719H11.6797V27H10.0234V26.1719Z" fill="#F9DBD7"/>
<path opacity="0.5" d="M6.71094 19.5469H43.9766V20.375H6.71094V19.5469Z" fill="white"/>
<path opacity="0.5" d="M26.2381 31.9688L24.9297 33.8362L23.6212 31.9688H24.2009L24.9297 33.008L25.6584 31.9688H26.2381Z" fill="#A54B3F"/>
<path opacity="0.25" d="M8.58664 39.4219C8.51572 39.6943 8.46179 39.9709 8.42516 40.25H6.17266C6.17266 40.0305 6.07742 39.8152 5.67578 39.6041C5.54317 39.5317 5.40465 39.4708 5.26172 39.4219H8.58664Z" fill="#0F423C"/>
<path opacity="0.25" d="M21.3977 39.4219H29.2898C29.2188 39.6943 29.1649 39.9709 29.1283 40.25H21.5592C21.5226 39.9709 21.4687 39.6943 21.3977 39.4219Z" fill="#0F423C"/>
<path opacity="0.25" d="M43.9766 39.4014V40.2295C43.7861 40.2378 43.2188 40.2502 42.37 40.2502H42.2623C42.2257 39.9711 42.1718 39.6945 42.1009 39.4221H42.37C43.2188 39.4221 43.7861 39.4096 43.9766 39.4014Z" fill="#0F423C"/>
</g>
<defs>
<clipPath id="clip0_200_4724">
<rect width="53" height="53" fill="white" transform="translate(0.5 0.5)"/>
</clipPath>
</defs>
</svg>
