<svg width="54" height="54" viewBox="0 0 54 54" fill="none" xmlns="http://www.w3.org/2000/svg">
<g clip-path="url(#clip0_264_5483)">
<path d="M45.8949 23.9848C46.5763 23.6609 47.3209 23.4926 48.0738 23.4926H53.0794V14.5457H48.8688C48.1327 14.5457 47.4344 14.2008 46.9928 13.6077C46.4165 12.838 45.4911 11.7653 44.4143 11.1176C42.9168 10.2174 40.1448 10.0702 38.2351 9.292C38.0711 9.2247 37.8986 9.19105 37.7304 9.19105C37.213 9.19105 36.7251 9.49391 36.4979 9.99025C36.2287 10.596 36.439 11.3026 36.9901 11.677C37.0237 11.7022 37.0574 11.7233 37.0952 11.7485H25.4857C25.0987 11.7485 24.7496 11.9041 24.4972 12.1565C24.2448 12.4089 24.0892 12.7622 24.0892 13.145C24.0892 13.919 24.7117 14.5457 25.4857 14.5457C25.4857 14.5457 26.1335 15.53 26.4658 17.0695H26.2597C25.9105 17.0695 25.5951 17.2126 25.3679 17.4397C25.1408 17.6668 24.9978 17.9823 24.9978 18.3314C24.9978 19.0297 25.5614 19.5934 26.2597 19.5934H26.6256C26.5457 20.3884 26.205 21.3053 25.7507 22.3149C25.4899 22.8953 25.1955 23.5095 24.8884 24.1446C24.6655 24.6031 24.4383 25.07 24.2196 25.5495L24.2154 25.5537C24.1607 25.4991 24.106 25.4486 24.0513 25.3981C23.4625 24.8723 22.8273 24.4012 22.1543 23.9806C21.3845 23.4968 20.5601 23.093 19.6978 22.7691C19.3486 22.6345 18.9911 22.5168 18.6294 22.4158V18.9918V17.4776C19.3781 17.12 20.2151 16.7246 20.2151 16.7246C21.3929 16.1652 22.1417 14.9748 22.1417 13.6708V12.4341V10.331V3.58398H17.5651L16.9048 5.21605L15.9163 3.58398H13.6617L12.8624 5.11089L12.0632 3.58398H10.0526V10.331V12.4341V13.6708C10.0526 14.9748 10.8013 16.1652 11.9791 16.7246L13.5649 17.4776V18.9918V21.9405V21.9447C12.4713 22.0414 11.4155 22.2644 10.4101 22.6009L7.57507 15.3491C8.22285 14.7266 8.46681 13.7549 8.12189 12.8716C7.6634 11.6938 6.3384 11.1176 5.16483 11.576C3.99126 12.0345 3.41078 13.3595 3.86927 14.5331C4.2184 15.4207 5.05547 15.9675 5.95562 15.9843L8.79912 23.2529C8.55515 23.3707 8.31539 23.4968 8.07983 23.6272C6.99039 24.233 5.98927 24.9817 5.10594 25.8482H5.10174C4.59697 26.3403 4.13427 26.8661 3.71785 27.4256H3.71364C3.21308 28.0902 2.76721 28.8053 2.39285 29.554C2.02689 30.2775 1.72404 31.0388 1.49269 31.8254C1.25713 32.6162 1.09308 33.4364 1.00054 34.2777C0.945862 34.7741 0.920624 35.2746 0.920624 35.7836C0.920624 38.3495 1.61888 40.7555 2.83451 42.8208C3.25935 43.5443 3.7515 44.2257 4.29412 44.8567H4.29832V44.8609C5.11015 45.8031 6.04816 46.636 7.08713 47.33C7.77697 47.7927 8.51308 48.1965 9.28285 48.5288C10.978 49.2691 12.8498 49.6772 14.8184 49.6772C18.377 49.6772 21.6243 48.3395 24.0808 46.1396V46.1354C24.4552 45.8073 24.8085 45.4498 25.145 45.0754C25.4689 44.7179 25.7759 44.3393 26.062 43.9481C26.184 43.7799 26.3017 43.6116 26.4153 43.4391C26.4405 43.4476 26.4658 43.4518 26.491 43.4602C26.5247 43.4686 29.9444 44.2552 30.5417 46.5813C30.689 47.1618 30.6469 47.6203 30.4198 47.9484C30.0538 48.4699 29.2294 48.6634 28.9475 48.6929C28.4722 48.7391 28.1231 49.1598 28.1651 49.6309C28.2072 50.0768 28.5774 50.4133 29.0232 50.4133L29.1074 50.4091C29.2925 50.3922 30.9413 50.1987 31.8247 48.9453C32.3631 48.1839 32.4893 47.2459 32.2117 46.1564C31.8499 44.7431 30.8909 43.7546 29.8813 43.0774H48.6627C48.974 43.0774 49.26 42.9512 49.4661 42.7451C49.6722 42.539 49.7984 42.2572 49.7984 41.9417C49.7984 41.3149 49.2894 40.8102 48.6627 40.8102H45.2471V40.419C45.2471 40.419 46.6647 37.4787 46.6647 32.2166C46.6647 31.3837 46.5679 30.5761 46.4081 29.7937C46.0085 27.8799 45.2135 26.1174 44.4437 24.5274C44.8181 24.4433 45.184 24.3213 45.5332 24.153L45.8949 23.9848Z" fill="#F7B6AD"/>
<path d="M32.2117 46.1568C32.4893 47.2463 32.3631 48.1843 31.8247 48.9456C30.9413 50.1991 29.2925 50.3926 29.1074 50.4095L29.0232 50.4137C28.5774 50.4137 28.2072 50.0772 28.1652 49.6313C28.1231 49.1602 28.4722 48.7395 28.9475 48.6933C29.2294 48.6638 30.0538 48.4703 30.4198 47.9487C30.6469 47.6206 30.689 47.1622 30.5417 46.5817C29.9444 44.2556 26.5247 43.469 26.491 43.4606C26.4658 43.4522 26.4406 43.448 26.4153 43.4395C26.6593 43.0736 26.8822 42.6908 27.0925 42.2996C27.164 42.165 27.2313 42.0304 27.3029 41.8916C27.8749 42.0599 28.9013 42.4216 29.8813 43.0778C30.8909 43.755 31.8499 44.7435 32.2117 46.1568Z" fill="#F48CA7"/>
<path d="M28.5858 33.916C28.6699 34.5259 28.712 35.1485 28.712 35.7836C28.712 37.5545 28.3797 39.2497 27.7782 40.806C27.4375 39.6451 27.0505 38.5346 26.6172 37.4788C27.4206 36.3851 28.0768 35.199 28.5858 33.916Z" fill="#A84A67"/>
<path d="M27 29.0951V29.0994C26.9537 31.0595 26.3186 32.9145 25.2586 34.6223L25.2544 34.6265C24.6781 33.5665 24.0303 32.5738 23.3236 31.6568C24.35 30.1551 25.145 28.6451 25.6834 27.1182C26.1755 27.7365 26.6172 28.3969 27 29.0951Z" fill="#AF5A72"/>
<path d="M22.1543 23.9805C22.8273 24.4011 23.4625 24.8722 24.0513 25.398C23.3321 26.723 22.4403 28.0859 21.3929 29.4782H21.3887C21.1952 29.2889 20.9933 29.0996 20.7914 28.9187C20.0805 28.2794 19.3276 27.6947 18.52 27.1689C19.7104 26.029 20.9218 24.9605 22.1543 23.9805Z" fill="#EA728C"/>
<path d="M18.6293 22.4161C18.9911 22.517 19.3486 22.6348 19.6978 22.7694C18.0278 23.5013 16.5346 24.3846 15.1928 25.3984C14.3136 25.0282 13.3882 24.7085 12.4166 24.4477V24.4393C13.8257 23.5013 15.4283 22.7147 17.2623 22.1006H17.2665C17.7292 22.1847 18.1835 22.2899 18.6293 22.4161Z" fill="#F48CA7"/>
<path d="M27 29.0996C27.8076 30.5634 28.3544 32.1871 28.5858 33.9159C28.0768 35.1988 27.4206 36.385 26.6172 37.4787C26.2092 36.4775 25.7549 35.5269 25.2544 34.6268L25.2586 34.6225C26.3186 32.9148 26.9537 31.0598 27 29.0996Z" fill="#BA6A7E"/>
<path d="M24.2154 25.5541C24.7412 26.0336 25.2333 26.5594 25.6834 27.1188C25.145 28.6457 24.35 30.1558 23.3237 31.6575C22.7264 30.8793 22.0828 30.1516 21.3887 29.4786H21.3929C22.4403 28.0863 23.3321 26.7234 24.0514 25.3984C24.106 25.4489 24.1607 25.4994 24.2154 25.5541Z" fill="#BA6A7E"/>
<path d="M19.6978 22.7695C20.5601 23.0934 21.3845 23.4972 22.1543 23.981C20.9218 24.961 19.7104 26.0295 18.52 27.1694C17.4937 26.4879 16.3832 25.8948 15.1928 25.3985C16.5346 24.3848 18.0279 23.5014 19.6978 22.7695Z" fill="#BA6A7E"/>
<path d="M14.8184 21.8857C15.6513 21.8857 16.4673 21.9572 17.2623 22.1003C15.4283 22.7144 13.8257 23.501 12.4166 24.439V24.4474C11.0621 24.0688 9.61515 23.7954 8.07983 23.6272C8.31539 23.4968 8.55515 23.3706 8.79912 23.2528C9.3165 23.0046 9.85491 22.7859 10.4102 22.6008C11.4155 22.2643 12.4713 22.0414 13.5649 21.9446C13.9771 21.9026 14.3978 21.8857 14.8184 21.8857Z" fill="#BA6A7E"/>
<path d="M7.82744 34.7197C6.32157 37.8198 5.21109 41.2564 4.29411 44.857C3.75149 44.226 3.25934 43.5446 2.8345 42.8211C3.2972 39.8136 3.95339 36.9491 4.93768 34.3369C5.92617 34.4168 6.88942 34.543 7.82744 34.7197Z" fill="#BA6A7E"/>
<path d="M17.0099 38.5391C17.7965 39.1069 18.5536 39.7379 19.2813 40.4193C16.3159 42.3332 12.8078 43.7213 9.33752 44.4027V44.3985C12.1852 42.4594 14.7679 40.5076 17.0099 38.5391Z" fill="#BA6A7E"/>
<path d="M24.0808 46.1354V46.1396C21.6243 48.3395 18.377 49.6771 14.8184 49.6771C12.8498 49.6771 10.978 49.2691 9.28284 48.5288C14.6796 48.5792 19.1972 47.2038 22.8315 44.4023C23.2563 44.9576 23.6686 45.5381 24.0808 46.1354Z" fill="#BA6A7E"/>
<path d="M19.2813 40.4189C19.9417 41.0331 20.5769 41.6935 21.191 42.3959C17.3716 44.7978 12.5133 46.3962 7.08712 47.33C6.04815 46.6359 5.11013 45.8031 4.29831 44.8608C4.87879 44.8735 5.46767 44.8609 6.06498 44.823C7.1376 44.7599 8.23545 44.6169 9.33752 44.4024C12.8078 43.7209 16.3159 42.3328 19.2813 40.4189Z" fill="#F48CA7"/>
<path d="M48.6627 40.8099C49.2894 40.8099 49.7984 41.3146 49.7984 41.9414C49.7984 42.2569 49.6722 42.5387 49.4661 42.7448C49.26 42.9509 48.974 43.0771 48.6627 43.0771H29.8813C28.9013 42.4209 27.8749 42.0592 27.3029 41.8909C27.4753 41.5376 27.631 41.1758 27.7782 40.8057V40.8099H45.2471H48.6627Z" fill="#604533"/>
<path d="M24.8884 24.145C25.1955 23.5099 25.4899 22.8957 25.7507 22.3153C26.205 21.3057 26.5457 20.3888 26.6256 19.5938H29.5196C29.1705 19.5938 28.855 19.7368 28.6279 19.9639C28.3965 20.1911 28.2577 20.5107 28.2577 20.8557C28.2577 21.5539 28.8213 22.1176 29.5196 22.1176H31.6985C31.3494 22.1176 31.0339 22.2606 30.8067 22.4877C30.5754 22.7149 30.4366 23.0345 30.4366 23.3795C30.4366 24.0777 31.0002 24.6456 31.6985 24.6456H43.3585C43.7244 24.6456 44.0904 24.6077 44.4437 24.5278C45.2135 26.1178 46.0085 27.8803 46.4081 29.7941C46.5679 30.5765 46.6647 31.3841 46.6647 32.217C46.6647 37.4791 45.2471 40.4194 45.2471 40.4194V40.8106H27.7782V40.8064C28.3797 39.25 28.712 37.5549 28.712 35.784C28.712 35.1488 28.6699 34.5263 28.5858 33.9164C28.3544 32.1876 27.8076 30.5639 27 29.1001V29.0959C26.6172 28.3976 26.1756 27.7372 25.6834 27.1189C25.2333 26.5595 24.7412 26.0337 24.2154 25.5541L24.2196 25.5499C24.4383 25.0704 24.6655 24.6035 24.8884 24.145Z" fill="#BC8354"/>
<path d="M40.2416 13.7629C40.2416 13.8933 40.2079 14.0279 40.1364 14.1499C39.9976 14.3938 39.7368 14.5453 39.455 14.5453H29.8182H25.4857C24.7117 14.5453 24.0892 13.9185 24.0892 13.1446C24.0892 12.7618 24.2448 12.4084 24.4972 12.1561C24.7496 11.9037 25.0987 11.748 25.4857 11.748H37.0952C37.865 12.2612 38.7399 12.6861 39.7116 13.0226C40.0397 13.1403 40.2416 13.4432 40.2416 13.7629Z" fill="#604533"/>
<path d="M25.4857 14.5459H29.8183C29.4691 14.5459 29.1537 14.6889 28.9265 14.9161C28.6994 15.1432 28.5564 15.4587 28.5564 15.8078C28.5564 16.5061 29.12 17.0697 29.8183 17.0697H26.4658C26.1335 15.5302 25.4857 14.5459 25.4857 14.5459Z" fill="#BC8354"/>
<path d="M27.7782 40.8057C27.6309 41.1758 27.4753 41.5376 27.3028 41.8909C27.2313 42.0297 27.164 42.1643 27.0925 42.2989C25.1912 36.9316 22.4529 32.8767 18.8859 30.1342C15.1843 27.2949 10.5952 25.8647 5.10593 25.8479C5.98926 24.9814 6.99037 24.2327 8.07982 23.627C9.61513 23.7952 11.0621 24.0686 12.4166 24.4472C13.3882 24.708 14.3136 25.0277 15.1928 25.3978C16.3832 25.8942 17.4936 26.4873 18.52 27.1687C19.3276 27.6945 20.0805 28.2792 20.7914 28.9185C20.9933 29.0994 21.1952 29.2887 21.3887 29.478C22.0828 30.151 22.7263 30.8787 23.3236 31.6569C24.0303 32.5739 24.6781 33.5666 25.2543 34.6266C25.7549 35.5267 26.2092 36.4773 26.6172 37.4785C27.0505 38.5343 27.4374 39.6447 27.7782 40.8057Z" fill="#F48CA7"/>
<path d="M3.71785 27.426C4.13428 26.8666 4.59698 26.3408 5.10174 25.8486H5.10595C10.5952 25.8655 15.1844 27.2956 18.8859 30.1349C22.4529 32.8774 25.1913 36.9324 27.0925 42.2997C26.8822 42.6909 26.6593 43.0736 26.4153 43.4396C26.3017 43.612 26.184 43.7803 26.062 43.9486C21.4013 33.7061 13.2074 29.3988 2.39285 29.5544C2.76722 28.8057 3.21309 28.0906 3.71365 27.426H3.71785Z" fill="#EA728C"/>
<path d="M26.062 43.948C25.7759 44.3392 25.4689 44.7178 25.145 45.0753C19.7272 35.4343 11.7267 31.2785 1.49268 31.8253C1.72403 31.0387 2.02688 30.2774 2.39283 29.5539C13.2074 29.3982 21.4013 33.7055 26.062 43.948Z" fill="#BA6A7E"/>
<path d="M7.82745 34.7198C6.88944 34.5432 5.92618 34.417 4.93769 34.337C3.66317 34.2361 2.35079 34.2151 1.00055 34.2782C1.09309 33.4369 1.25714 32.6166 1.49269 31.8259C11.7267 31.279 19.7272 35.4349 25.145 45.0759C24.8085 45.4502 24.4552 45.8078 24.0808 46.1359C23.6686 45.5386 23.2563 44.9581 22.8315 44.4028C22.3015 43.7004 21.7547 43.0316 21.1952 42.3964H21.191C20.5769 41.694 19.9417 41.0336 19.2813 40.4194C18.5536 39.738 17.7965 39.107 17.0099 38.5392C16.2444 37.9882 15.4536 37.4918 14.6249 37.0543C14.4987 36.987 14.3725 36.9197 14.2463 36.8566C13.2116 36.3393 12.139 35.8976 11.0285 35.5359C9.99372 35.1951 8.92952 34.9217 7.82745 34.7198Z" fill="#AF5A72"/>
<path d="M22.1417 12.4346V13.6712C22.1417 14.9752 21.3929 16.1656 20.2152 16.725C20.2152 16.725 19.3781 17.1204 18.6294 17.478H13.5649L11.9791 16.725C10.8013 16.1656 10.0526 14.9752 10.0526 13.6712V12.4346H22.1417Z" fill="#604533"/>
<path d="M12.059 10.331H10.0526V3.58398H12.0632L12.8625 5.11089L13.6617 3.58398H15.9163L16.9048 5.21605L17.5652 3.58398H22.1417V10.331H20.1352H18.1162H16.0971H14.0781H12.059Z" fill="#FFDBAC"/>
<path d="M21.1952 42.3955C21.7547 43.0307 22.3015 43.6995 22.8315 44.4019C19.1972 47.2034 14.6796 48.5788 9.28284 48.5284C8.51308 48.1961 7.77697 47.7923 7.08713 47.3296C12.5133 46.3957 17.3717 44.7973 21.191 42.3955H21.1952Z" fill="#EA728C"/>
<path d="M18.6294 18.9922V22.4162C18.1835 22.29 17.7292 22.1848 17.2665 22.1007H17.2623C16.4673 21.9577 15.6513 21.8862 14.8184 21.8862C14.3978 21.8862 13.9771 21.903 13.5649 21.945V21.9408V18.9922H18.6294Z" fill="#604533"/>
<path d="M13.5649 17.4775H18.6294V18.9918H13.5649V17.4775Z" fill="#BCB9AD"/>
<path d="M14.6249 37.0537C15.4536 37.4912 16.2444 37.9875 17.0099 38.5386C14.7679 40.5071 12.1852 42.4589 9.33754 44.398V44.4022C8.23548 44.6167 7.13762 44.7597 6.065 44.8228C9.16508 42.1813 12.0548 39.5817 14.6249 37.0537Z" fill="#EA728C"/>
<path d="M14.2463 36.8559C14.3725 36.919 14.4987 36.9863 14.6249 37.0536C12.0548 39.5817 9.16506 42.1812 6.06498 44.8228C5.46767 44.8606 4.87879 44.8733 4.29831 44.8606C4.29831 44.8606 4.29831 44.8606 4.29831 44.8564C6.49402 41.5797 8.7318 38.446 11.0285 35.5352C12.1389 35.8969 13.2116 36.3386 14.2463 36.8559Z" fill="#F48CA7"/>
<path d="M7.57508 15.3495L10.4102 22.6012C9.85492 22.7863 9.31651 23.005 8.79913 23.2532L5.95564 15.9846C5.05548 15.9678 4.21841 15.421 3.86929 14.5334C3.41079 13.3599 3.99127 12.0349 5.16484 11.5764C6.33841 11.1179 7.66341 11.6942 8.12191 12.8719C8.46683 13.7553 8.22286 14.7269 7.57508 15.3495Z" fill="#BCB9AD"/>
<path d="M7.82746 34.7197C8.92952 34.9216 9.99373 35.195 11.0285 35.5358C8.73183 38.4466 6.49405 41.5803 4.29833 44.857H4.29413C5.21111 41.2564 6.32159 37.8198 7.82746 34.7197Z" fill="#EA728C"/>
<path d="M1.00054 34.2779C2.35078 34.2148 3.66316 34.2358 4.93769 34.3368C3.9534 36.9489 3.29721 39.8135 2.83451 42.821C1.61888 40.7557 0.920624 38.3496 0.920624 35.7838C0.920624 35.2748 0.945862 34.7743 1.00054 34.2779Z" fill="#F48CA7"/>
<path d="M22.1417 10.3311V12.4342H10.0526V10.3311H12.059H14.0781H16.0971H18.1162H20.1352H22.1417Z" fill="#BCB9AD"/>
<path d="M46.4081 29.7937C46.0085 27.8798 45.2135 26.1173 44.4437 24.5273C44.0904 24.6073 43.7244 24.6451 43.3585 24.6451H39.1984C39.1984 24.6451 40.128 27.8125 39.1395 30.9C38.2015 33.836 35.5305 36.7005 28.6783 36.7005C28.59 38.1391 28.2745 39.5188 27.7782 40.8059V40.8101H45.2471V40.4189C45.2471 40.4189 46.6647 37.4787 46.6647 32.2166C46.6647 31.3837 46.5679 30.5761 46.4081 29.7937Z" fill="#AD7850"/>
<path d="M53.0794 23.0737H48.0734C47.2628 23.0737 46.4481 23.2571 45.7166 23.6033L45.3557 23.774C44.7344 24.0672 44.0441 24.2224 43.3585 24.2224H31.6993C31.235 24.2224 30.8576 23.8451 30.8576 23.3808C30.8576 22.9164 31.235 22.5391 31.6993 22.5391H36.7554C36.988 22.5391 37.176 22.351 37.176 22.1184C37.176 21.8858 36.988 21.6978 36.7554 21.6978H29.5179C29.0535 21.6978 28.6762 21.3205 28.6762 20.8561C28.6762 20.3917 29.0535 20.0144 29.5179 20.0144H36.7549C36.9876 20.0144 37.1756 19.8264 37.1756 19.5938C37.1756 19.3612 36.9876 19.1731 36.7549 19.1731H26.2584C25.7945 19.1731 25.4172 18.7958 25.4172 18.3315C25.4172 17.8671 25.7945 17.4898 26.2584 17.4898H36.7549C36.9876 17.4898 37.1756 17.3017 37.1756 17.0691C37.1756 16.8365 36.9876 16.6485 36.7549 16.6485H29.8187C29.3547 16.6485 28.9774 16.2712 28.9774 15.8068C28.9774 15.3424 29.3547 14.9651 29.8187 14.9651H39.4546C39.8866 14.9651 40.2879 14.7317 40.5015 14.3565C40.6778 14.0464 40.7072 13.6771 40.5819 13.3431C40.4561 13.0066 40.189 12.7458 39.8496 12.6268C38.8606 12.2802 37.9781 11.8436 37.2256 11.3283C36.8412 11.0658 36.6969 10.5758 36.8824 10.1627C37.0885 9.70339 37.613 9.49139 38.0774 9.6811C38.9578 10.0403 39.9997 10.2675 41.008 10.4866C42.2497 10.7571 43.4224 11.0124 44.196 11.4772C45.2135 12.0888 46.0947 13.111 46.655 13.8609C47.1715 14.552 47.9989 14.9647 48.8697 14.9647H53.0794C53.312 14.9647 53.5 14.7767 53.5 14.5441C53.5 14.3114 53.312 14.1234 53.0794 14.1234H48.8692C48.2631 14.1234 47.6868 13.837 47.3284 13.3574C46.7236 12.5473 45.7637 11.4381 44.6292 10.7558C43.7366 10.2199 42.4983 9.94988 41.1863 9.66427C40.2134 9.45227 39.2081 9.23354 38.395 8.90166C37.5087 8.53949 36.5076 8.94288 36.1147 9.81696C35.8926 10.312 35.9175 10.8627 36.1463 11.3262H25.4861C24.4829 11.3262 23.6669 12.1422 23.6669 13.1454C23.6669 14.0612 24.3492 14.8133 25.2308 14.9386C25.3864 15.2162 25.6986 15.8346 25.9345 16.6805C25.1614 16.8319 24.5759 17.5137 24.5759 18.3306C24.5759 19.2165 25.2657 19.9366 26.1348 20.001C26.0275 20.5087 25.826 21.0694 25.5711 21.673C25.296 21.453 25.0512 21.204 24.8442 20.9175C24.708 20.7291 24.4446 20.6866 24.257 20.8233C24.0686 20.9592 24.0265 21.2221 24.1624 21.4105C24.4564 21.8164 24.8102 22.1676 25.2203 22.465C25.0689 22.7931 24.9065 23.133 24.7374 23.483C24.284 23.0863 23.9003 22.6186 23.6038 22.0587C23.4948 21.8534 23.2395 21.7748 23.0347 21.8841C22.8298 21.9931 22.7512 22.2476 22.8601 22.4533C23.2425 23.1742 23.7493 23.7724 24.3618 24.2628C24.265 24.4635 24.1695 24.6662 24.0728 24.8715C23.5462 24.4239 22.9871 24.0138 22.3991 23.6453C22.3764 23.6285 22.3545 23.6121 22.3297 23.6007C21.5557 23.1216 20.733 22.7149 19.8707 22.3885C19.8572 22.3822 19.8442 22.3771 19.8303 22.3725C19.5724 22.2757 19.3121 22.1849 19.0475 22.1029V17.7421L20.3944 17.1024C21.7122 16.4773 22.5636 15.1304 22.5636 13.6717V10.3327V3.58567C22.5636 3.35306 22.3755 3.16504 22.1429 3.16504H17.5631C17.3914 3.16504 17.2375 3.26894 17.1727 3.42836L16.8286 4.28056L16.2747 3.36736C16.1985 3.24202 16.0622 3.16504 15.915 3.16504H13.6596C13.5031 3.16504 13.3592 3.25211 13.2869 3.39092L12.8612 4.20485L12.4355 3.39092C12.3636 3.25211 12.2197 3.16504 12.0633 3.16504H10.0505C9.8179 3.16504 9.62988 3.35306 9.62988 3.58567V10.3327V13.6717C9.62988 15.1304 10.4812 16.4773 11.7991 17.1024L13.146 17.7421V21.5661C12.2929 21.6658 11.4626 21.8391 10.6617 22.0823L8.06386 15.4425C8.69902 14.6892 8.87779 13.6489 8.51309 12.7164C7.96921 11.3283 6.39856 10.6401 5.01047 11.1836C3.62237 11.7271 2.93548 13.2986 3.4781 14.6867C3.84321 15.6192 4.68069 16.2619 5.65825 16.3835L8.26955 23.0573C8.13368 23.1275 7.99824 23.199 7.86448 23.2735C7.84765 23.284 7.82872 23.2903 7.81358 23.3029C6.72876 23.9141 5.73186 24.662 4.84516 25.5239C4.8216 25.5424 4.80057 25.5617 4.78122 25.5849C4.29371 26.0644 3.8411 26.5784 3.42594 27.1231C3.40911 27.1391 3.39733 27.1589 3.38345 27.1774C2.8707 27.8563 2.41936 28.584 2.03279 29.3496C2.01975 29.3723 2.00629 29.3933 1.99746 29.4181C1.6395 30.1362 1.34001 30.8878 1.10529 31.6681C1.0994 31.6828 1.09646 31.6984 1.09225 31.7144C0.709056 33.0049 0.5 34.3694 0.5 35.7828C0.5 38.4176 1.21844 40.8863 2.46521 43.0093C2.47867 43.0353 2.49002 43.0614 2.50853 43.0841C2.92664 43.7862 3.40364 44.4491 3.93196 45.067C3.93448 45.0716 3.93743 45.0758 3.94037 45.0805C3.94879 45.0935 3.96098 45.104 3.97066 45.1162C3.9858 45.1356 4.00137 45.1528 4.01987 45.1692C4.02829 45.1768 4.03333 45.1873 4.04259 45.1945C4.85525 46.1232 5.78275 46.9494 6.80742 47.6434C6.82593 47.6598 6.84738 47.6707 6.86841 47.6834C7.5633 48.149 8.30152 48.5532 9.07464 48.8935C9.09483 48.9045 9.1146 48.9137 9.13648 48.9213C10.8792 49.6776 12.7998 50.0995 14.8176 50.0995C18.4514 50.0995 21.7715 48.7362 24.2991 46.4972C24.3058 46.493 24.313 46.4917 24.3193 46.4875C24.3391 46.474 24.3508 46.4543 24.3677 46.4379C24.7441 46.1001 25.1034 45.743 25.4428 45.3678C25.4613 45.3488 25.479 45.3312 25.4933 45.3093C25.7982 44.9677 26.0872 44.6119 26.359 44.2421C26.3834 44.2177 26.3998 44.1891 26.417 44.1605C26.4746 44.0806 26.5323 44.0007 26.5882 43.9199C27.2801 44.1155 29.6815 44.9147 30.1346 46.6873C30.2502 47.1407 30.2305 47.484 30.0753 47.7057C29.8229 48.0649 29.1633 48.247 28.9076 48.2748C28.5664 48.3063 28.2581 48.4687 28.039 48.7328C27.8198 48.9966 27.7163 49.3293 27.7479 49.6704C27.8097 50.3338 28.3582 50.8348 29.0434 50.8348H29.0447L29.1465 50.8293C29.3509 50.8099 31.1748 50.5979 32.1709 49.1863C32.7795 48.3223 32.931 47.2674 32.6201 46.0513C32.3484 44.9888 31.7696 44.1542 31.0806 43.4989H48.6627C49.5204 43.4989 50.2178 42.8011 50.2178 41.9434C50.2178 41.0857 49.5204 40.3883 48.6627 40.3883H45.7199C46.0375 39.6341 47.0386 36.9029 47.082 32.5047C48.3018 32.0092 49.1624 31.3093 49.6697 30.3944C49.7824 30.1913 49.7088 29.9351 49.5056 29.8224C49.3021 29.71 49.0459 29.7832 48.9336 29.9864C48.5676 30.6464 47.9417 31.1793 47.0676 31.5869C47.0382 31.0536 46.973 30.5299 46.8788 30.0175C48.1958 29.2953 48.9243 28.4692 49.0308 27.5556C49.1679 26.3778 48.2156 25.5622 48.1748 25.5281C47.9981 25.3792 47.7344 25.4019 47.5846 25.5786C47.4349 25.7548 47.4563 26.0202 47.6317 26.1708C47.6385 26.1763 48.2829 26.7387 48.1945 27.4643C48.1247 28.0389 47.6065 28.6198 46.692 29.1603C46.3017 27.5892 45.6737 26.1271 45.041 24.7954C45.2711 24.7217 45.4974 24.638 45.7153 24.535L46.0766 24.3642C46.6962 24.0706 47.3865 23.9158 48.0734 23.9158H53.0794C53.312 23.9158 53.5 23.7278 53.5 23.4952C53.5 23.2626 53.312 23.0737 53.0794 23.0737ZM28.3704 16.6489H26.7935C26.6126 15.9418 26.3821 15.3677 26.1899 14.9655H28.3704C28.2253 15.2141 28.1361 15.4993 28.1361 15.8072C28.1361 16.1151 28.2253 16.4003 28.3704 16.6489ZM24.5082 13.1463C24.5082 12.607 24.9469 12.1683 25.4861 12.1683H36.9812C37.743 12.66 38.6091 13.0832 39.5711 13.4205C39.675 13.4571 39.7562 13.5362 39.794 13.6384C39.8163 13.6973 39.842 13.8143 39.7701 13.9413C39.7057 14.0544 39.585 14.1247 39.4542 14.1247H29.8187H25.4861C24.9469 14.1243 24.5082 13.6855 24.5082 13.1463ZM26.5722 29.2044C26.5146 30.7553 26.075 32.2927 25.259 33.786C24.8148 33.0318 24.3407 32.3171 23.8368 31.6424C24.6516 30.4209 25.3103 29.1965 25.8012 27.9901C26.0788 28.3804 26.3367 28.7851 26.5722 29.2044ZM28.1534 33.8562C27.7677 34.8178 27.2789 35.7407 26.7001 36.6135C26.3985 35.93 26.0784 35.2692 25.7373 34.6361C26.5154 33.333 27.0299 31.992 27.2671 30.6304C27.6903 31.6492 27.9914 32.7302 28.1534 33.8562ZM28.293 35.7828C28.293 37.0489 28.1138 38.2733 27.7857 39.4364C27.5687 38.7836 27.3361 38.1497 27.0883 37.5347C27.5363 36.9054 27.9355 36.2476 28.2876 35.5674C28.2888 35.6393 28.293 35.7104 28.293 35.7828ZM25.211 44.3507C19.9813 35.3861 12.2113 31.03 2.08327 31.3812C2.25026 30.9 2.44081 30.4293 2.65912 29.9746C2.76217 29.9738 2.86565 29.9725 2.96829 29.9725C13.827 29.9725 21.2259 34.5326 25.5715 43.8922C25.4546 44.0474 25.3351 44.2009 25.211 44.3507ZM24.1435 45.4961C23.8183 45.0317 23.4927 44.5816 23.1663 44.1504C23.1655 44.1496 23.1655 44.1483 23.1651 44.1475C23.1642 44.1467 23.1634 44.1462 23.1625 44.1454C20.5323 40.6752 17.8327 38.2691 14.7953 36.6699C14.7898 36.6674 14.7852 36.664 14.7801 36.6619C14.6653 36.6017 14.5517 36.5391 14.4361 36.481C13.3891 35.9565 12.2984 35.5114 11.1694 35.1417C11.1534 35.1362 11.1387 35.1304 11.1227 35.127C10.1254 34.8027 9.0982 34.5368 8.0403 34.3332C8.03357 34.3295 8.02937 34.3227 8.02179 34.3194C7.94524 34.2819 7.86448 34.2777 7.78582 34.2878C6.86547 34.12 5.92283 33.9976 4.95915 33.921C4.94359 33.9202 4.92844 33.9164 4.9133 33.9172C3.7982 33.8302 2.65449 33.8049 1.48429 33.8407C1.56379 33.2934 1.67694 32.7571 1.82037 32.233C11.8412 31.7871 19.5098 36.0886 24.6238 45.0123C24.4669 45.1776 24.3071 45.3387 24.1435 45.4961ZM8.2523 47.5454C13.387 46.5641 17.7044 45.0161 21.1098 42.9411C21.4867 43.3798 21.8615 43.8392 22.2346 44.3208C18.7703 46.864 14.4382 48.141 9.37708 48.1078C8.99304 47.9374 8.61741 47.7498 8.2523 47.5454ZM5.08829 44.439C7.2411 41.2615 9.24037 38.5001 11.1766 36.0309C12.1175 36.3515 13.0278 36.7296 13.9082 37.162C11.6313 39.3834 9.00776 41.7596 5.90264 44.4096C5.62964 44.4243 5.35791 44.4348 5.08829 44.439ZM7.21207 35.0408C6.03345 37.5612 5.03276 40.4261 4.10274 43.9427C3.80577 43.5544 3.52857 43.1502 3.27493 42.7304C3.75824 39.6526 4.3976 37.0493 5.22331 34.7875C5.89717 34.8494 6.56051 34.9331 7.21207 35.0408ZM10.3235 35.7567C8.72804 37.8026 7.08883 40.0459 5.35665 42.5554C6.17352 39.7178 7.05391 37.3303 8.0668 35.1977C8.83614 35.3512 9.58866 35.5367 10.3235 35.7567ZM14.6956 37.5688C15.2496 37.8725 15.7918 38.209 16.3251 38.5724C14.2829 40.3307 11.8786 42.1566 9.16129 44.0087C8.54969 44.1252 7.94019 44.2182 7.3349 44.288C10.1595 41.8534 12.5781 39.645 14.6956 37.5688ZM17.0305 39.0755C17.5588 39.4692 18.0792 39.8936 18.5919 40.3525C16.3685 41.7204 13.8939 42.7863 11.3801 43.4871C13.4842 41.9871 15.3774 40.509 17.0305 39.0755ZM3.10247 29.135C3.35611 28.69 3.63289 28.2605 3.93364 27.8492C10.4581 27.8672 15.8469 29.8678 19.9489 33.799C20.0305 33.8777 20.1352 33.916 20.24 33.916C20.3506 33.916 20.4608 33.8722 20.5437 33.7864C20.7048 33.6186 20.6989 33.3523 20.5315 33.1916C16.4063 29.2385 11.0457 27.1686 4.59152 27.0201C4.81193 26.7631 5.03949 26.5128 5.27841 26.273C10.5704 26.3193 15.0624 27.7289 18.6298 30.4693C22.0752 33.1159 24.7656 37.0834 26.6307 42.2589C26.4729 42.5453 26.3034 42.8242 26.1259 43.0972C21.6706 33.8748 13.946 29.1843 3.10247 29.135ZM8.17911 24.0626C13.1716 24.6338 17.3212 26.3723 20.5125 29.233C23.579 31.9832 25.8706 35.869 27.3285 40.7812C27.2692 40.9292 27.2078 41.0756 27.1434 41.2211C25.2363 36.2572 22.5476 32.4185 19.143 29.8026C15.6307 27.1042 11.2725 25.6429 6.17815 25.4511C6.79943 24.93 7.4695 24.466 8.17911 24.0626ZM14.8172 22.3069C15.0485 22.3069 15.2786 22.3128 15.5074 22.3245C14.3763 22.8015 13.3163 23.358 12.3426 23.9928C11.4331 23.7484 10.4897 23.5494 9.51336 23.3963C11.1421 22.696 12.9348 22.3069 14.8172 22.3069ZM18.5633 22.8407C17.3456 23.4422 16.1956 24.14 15.1314 24.9257C14.5791 24.7011 14.0116 24.4959 13.4295 24.3104C14.6089 23.6087 15.902 23.0123 17.2964 22.5391C17.7267 22.6198 18.149 22.7204 18.5633 22.8407ZM21.4165 24.0399C20.4377 24.8404 19.4504 25.7102 18.4704 26.6394C17.6977 26.1494 16.8858 25.7077 16.0349 25.3157C17.1723 24.5165 18.4018 23.8144 19.7079 23.2293C20.2989 23.4603 20.8697 23.7311 21.4165 24.0399ZM23.5096 25.4965C22.9131 26.5645 22.1829 27.6881 21.3319 28.8477C21.2461 28.7678 21.1616 28.6854 21.0745 28.6071C20.4781 28.0725 19.8488 27.5774 19.1901 27.1181C20.1861 26.1809 21.1881 25.3039 22.1791 24.5039C22.6431 24.808 23.0873 25.139 23.5096 25.4965ZM23.2913 30.9434C22.8614 30.4142 22.4105 29.9141 21.9414 29.4392C22.7983 28.2786 23.5365 27.1513 24.1485 26.0741C24.5204 26.4316 24.8741 26.8077 25.203 27.2056C24.7479 28.433 24.1073 29.6869 23.2913 30.9434ZM13.9872 17.8969H18.2062V18.5695H13.9872V17.8969ZM10.4712 10.7533H21.7227V12.0135H10.4712V10.7533ZM11.8088 4.00631L12.4889 5.30733C12.6336 5.58495 13.0896 5.58495 13.2339 5.30733L13.9145 4.00631H15.6786L16.5455 5.43479C16.6276 5.57107 16.7773 5.64889 16.9393 5.63627C17.0978 5.62323 17.2354 5.52228 17.2955 5.37421L17.847 4.00631H21.7227V9.91202H20.555V6.60457C20.555 6.37196 20.367 6.18394 20.1344 6.18394C19.9018 6.18394 19.7138 6.37196 19.7138 6.60457V9.91202H18.5364V6.60457C18.5364 6.37196 18.3484 6.18394 18.1158 6.18394C17.8832 6.18394 17.6951 6.37196 17.6951 6.60457V9.91202H16.5178V6.60457C16.5178 6.37196 16.3298 6.18394 16.0971 6.18394C15.8645 6.18394 15.6765 6.37196 15.6765 6.60457V9.91202H14.4987V6.60457C14.4987 6.37196 14.3107 6.18394 14.0781 6.18394C13.8455 6.18394 13.6575 6.37196 13.6575 6.60457V9.91202H12.4801V6.60457C12.4801 6.37196 12.2921 6.18394 12.0595 6.18394C11.8269 6.18394 11.6388 6.37196 11.6388 6.60457V9.91202H10.4712V4.00631H11.8088ZM12.16 16.3427C11.1345 15.856 10.4712 14.8078 10.4712 13.6717V12.8548H21.7227V13.6717C21.7227 14.8074 21.0598 15.8556 20.0339 16.3427L18.5322 17.0557H13.6617L12.16 16.3427ZM13.9872 19.4108H18.2062V21.8745C17.9181 21.8042 17.6266 21.7436 17.3321 21.6915C17.3182 21.6894 17.3052 21.6848 17.2909 21.6839C16.4867 21.543 15.6609 21.4656 14.8172 21.4656C14.5383 21.4656 14.2623 21.4757 13.9872 21.4913V19.4108ZM6.34514 15.8299C6.28331 15.6714 6.13146 15.5658 5.9611 15.5624C5.20438 15.5485 4.53725 15.0837 4.26174 14.3796C3.88737 13.4239 4.36101 12.3412 5.31711 11.9672C6.27363 11.592 7.35593 12.0661 7.72945 13.0226C8.00497 13.7272 7.82998 14.5213 7.284 15.0455C7.16117 15.1632 7.12121 15.3437 7.18347 15.5023L9.86249 22.3502C9.58025 22.4545 9.30347 22.5702 9.02964 22.6918L6.34514 15.8299ZM1.38964 34.6853C2.39833 34.6508 3.38682 34.6626 4.35302 34.7215C3.64551 36.7082 3.07386 38.9413 2.62336 41.5118C1.80271 39.7721 1.34127 37.8304 1.34127 35.7828C1.34127 35.413 1.3602 35.0479 1.38964 34.6853ZM5.26117 45.274C5.52406 45.2677 5.78864 45.2571 6.05448 45.2416C6.05827 45.2416 6.06206 45.2441 6.06584 45.2441C6.07552 45.2441 6.08477 45.2399 6.09444 45.2391C10.5044 44.9732 15.274 43.427 19.2313 40.9465C19.673 41.3709 20.11 41.8227 20.5441 42.3001C17.0461 44.4032 12.5583 45.9445 7.18894 46.8837C6.49741 46.4067 5.85174 45.8683 5.26117 45.274ZM11.6338 48.8754C15.9323 48.5629 19.6587 47.2594 22.7436 44.9909C23.001 45.3379 23.2576 45.6959 23.5146 46.0643C21.1654 48.0548 18.1301 49.2586 14.8172 49.2586C13.7206 49.2586 12.6551 49.1236 11.6338 48.8754ZM31.8049 46.2595C32.0518 47.2265 31.9433 48.0481 31.4827 48.7017C30.6898 49.8252 29.1318 49.9859 29.0872 49.9905L29.0249 49.9939C28.7957 49.9939 28.6064 49.8214 28.5854 49.593C28.5744 49.4761 28.6102 49.3613 28.6855 49.2704C28.7612 49.1791 28.8676 49.1232 28.9909 49.1118C29.4119 49.0668 30.3239 48.8161 30.7643 48.189C31.0667 47.7561 31.129 47.1811 30.9493 46.4791C30.4315 44.455 28.1248 43.5165 27.0681 43.1851C27.2019 42.9647 27.3281 42.7396 27.4501 42.5121C27.4619 42.4923 27.4724 42.4734 27.4808 42.4523C27.4905 42.4343 27.4993 42.4157 27.509 42.3977C28.807 42.8292 31.2085 43.9258 31.8049 46.2595ZM49.3765 41.943C49.3765 42.3371 49.056 42.6572 48.6627 42.6572H30.0046C29.2445 42.1663 28.4722 41.8391 27.8787 41.6346C27.9393 41.5 27.999 41.3654 28.0554 41.2291H48.6627C49.0564 41.2291 49.3765 41.5497 49.3765 41.943ZM45.9206 29.5544C41.9477 31.2344 31.3616 30.1328 31.2518 30.1214C31.0246 30.0949 30.8139 30.264 30.7891 30.4954C30.7643 30.7263 30.9317 30.9333 31.1626 30.9581C31.4158 30.985 34.7599 31.3337 38.3992 31.3337C41.2191 31.3337 44.2128 31.123 46.0876 30.3932C46.1704 30.8912 46.2222 31.3981 46.2377 31.9129C44.9645 32.3289 43.3034 32.5485 41.2591 32.5657C41.0269 32.5678 40.8401 32.7575 40.8423 32.9902C40.8444 33.2211 41.032 33.407 41.2629 33.407H41.2667C43.2672 33.3898 44.9186 33.1895 46.2361 32.8021C46.1368 37.5217 44.8812 40.2104 44.8677 40.2381C44.8446 40.2869 44.8337 40.3378 44.8299 40.3883H28.37C28.863 38.9421 29.1343 37.3942 29.1343 35.7832C29.1343 35.1468 29.0885 34.5213 29.0073 33.9063C29.0073 33.8962 29.0043 33.887 29.0035 33.8769C28.7675 32.1115 28.2123 30.4457 27.392 28.9437C27.3882 28.9331 27.3807 28.9251 27.3756 28.9155C26.9912 28.2151 26.5478 27.5522 26.0557 26.9292C26.0313 26.8821 25.9985 26.8396 25.9572 26.8043C25.5753 26.3315 25.1635 25.8844 24.7256 25.4637C24.8384 25.2219 24.9507 24.9825 25.0638 24.7466C26.1348 25.3754 27.4665 25.7363 29.0678 25.8066C29.0742 25.807 29.0805 25.807 29.0868 25.807C29.3105 25.807 29.4969 25.6307 29.5066 25.4049C29.5167 25.1727 29.337 24.9762 29.1049 24.9661C27.5986 24.9001 26.3855 24.5712 25.4285 23.9898C25.609 23.6163 25.7844 23.2525 25.9476 22.9012C26.4999 23.1784 27.1245 23.385 27.8282 23.5099C27.8535 23.5145 27.8779 23.5166 27.9023 23.5166C28.1025 23.5166 28.2796 23.3732 28.3157 23.1696C28.3565 22.9408 28.2039 22.7225 27.975 22.6821C27.3306 22.5677 26.7733 22.3843 26.2891 22.1369C26.6168 21.376 26.8671 20.6698 26.9857 20.0161H28.0688C27.9237 20.2647 27.8345 20.5499 27.8345 20.8578C27.8345 21.7857 28.5896 22.5407 29.5175 22.5407H30.2498C30.1047 22.7893 30.0155 23.0745 30.0155 23.3824C30.0155 24.3104 30.7706 25.0654 31.6985 25.0654H43.3577C43.6395 25.0654 43.9209 25.0351 44.2006 24.9918C44.866 26.3782 45.537 27.9123 45.9206 29.5544Z" fill="#3A322B"/>
<path d="M24.0875 10.2065H30.1161C30.3487 10.2065 30.5367 10.0185 30.5367 9.78587C30.5367 9.55326 30.3487 9.36523 30.1161 9.36523H24.0875C23.8549 9.36523 23.6669 9.55326 23.6669 9.78587C23.6669 10.0185 23.8549 10.2065 24.0875 10.2065Z" fill="#3A322B"/>
<path d="M28.7137 8.59322H32.1444C32.377 8.59322 32.565 8.4052 32.565 8.17259C32.565 7.93998 32.377 7.75195 32.1444 7.75195H28.7137C28.4811 7.75195 28.293 7.93998 28.293 8.17259C28.293 8.4052 28.4811 8.59322 28.7137 8.59322Z" fill="#3A322B"/>
</g>
<defs>
<clipPath id="clip0_264_5483">
<rect width="53" height="53" fill="white" transform="translate(0.5 0.5)"/>
</clipPath>
</defs>
</svg>
