<svg width="46" height="53" viewBox="0 0 46 53" fill="none" xmlns="http://www.w3.org/2000/svg">
<path d="M23.5227 46.0972H17.0498C9.67559 46.0972 3.69766 40.1192 3.69766 32.745V17.365C3.69766 8.2033 11.1246 0.776367 20.2861 0.776367C29.4478 0.776367 36.8747 8.2033 36.8747 17.365V32.745C36.8748 40.1191 30.8968 46.0972 23.5227 46.0972Z" fill="#606572"/>
<path d="M20.2862 0.776367C19.8501 0.776367 19.4182 0.793447 18.9905 0.826469C27.5466 1.48752 34.2834 8.63941 34.2834 17.365V32.745C34.2834 40.1192 28.3054 46.0972 20.9313 46.0972H23.5227C30.8969 46.0972 36.8748 40.1192 36.8748 32.745V17.365C36.8748 8.2033 29.4478 0.776367 20.2862 0.776367Z" fill="#3B4254"/>
<path d="M34.4944 48.3351H6.03049L6.27054 44.5269C6.4489 41.7008 8.43929 39.317 11.1889 38.638L15.3252 37.6159C15.5298 37.5655 15.6728 37.3826 15.6728 37.1722V27.9141H24.8989V37.1837C24.8989 37.3941 25.043 37.5769 25.2465 37.6272L29.336 38.638C32.0856 39.317 34.076 41.7008 34.2543 44.5269L34.4944 48.3351Z" fill="#F9C295"/>
<path d="M34.2542 44.5269C34.0759 41.7008 32.0855 39.317 29.3359 38.638L25.2464 37.6272C25.0429 37.5769 24.8989 37.3941 24.8989 37.1837V27.9141H22.5525V37.1837C22.5525 37.3941 22.6966 37.5769 22.9001 37.6272L26.9896 38.638C29.7392 39.317 31.7296 41.7008 31.908 44.5269L32.148 48.3351H34.4944L34.2542 44.5269Z" fill="#E8A26A"/>
<path d="M15.6728 35.6532C17.2245 36.4907 18.8277 36.9285 20.2862 36.9285C21.7446 36.9285 23.3475 36.4907 24.899 35.6534V27.9141H15.6729L15.6728 35.6532Z" fill="#E8A26A"/>
<path d="M32.1832 22.9839C30.7515 30.3237 24.8197 34.5477 20.2862 34.5477C16.0162 34.5477 10.5041 30.8005 8.68338 24.2302C16.7983 23.0746 23.6389 15.5508 25.3508 11.1846C25.3508 11.1846 25.3508 20.7994 32.1832 22.9839Z" fill="#F9C295"/>
<path d="M29.0827 21.1475C28.6978 29.1759 23.6295 34.0385 19.5403 34.5103C19.7923 34.5347 20.0414 34.5486 20.2861 34.5486C24.8196 34.5486 30.7514 30.3245 32.1831 22.9848C30.9354 22.5858 29.9163 21.9383 29.0827 21.1475Z" fill="#E8A26A"/>
<path d="M34.0716 4.33235C33.5081 6.40752 32.7244 7.19114 30.6492 7.75478C30.2191 7.87165 30.2191 8.48332 30.6492 8.60009C32.7244 9.16363 33.508 9.94734 34.0716 12.0225C34.1884 12.4526 34.8002 12.4526 34.9169 12.0225C35.4805 9.94734 36.2642 9.16373 38.3394 8.60009C38.7695 8.48332 38.7695 7.87155 38.3394 7.75478C36.2642 7.19114 35.4806 6.40752 34.9169 4.33235C34.8002 3.90224 34.1885 3.90224 34.0716 4.33235Z" fill="#FEE9A1"/>
<path d="M37.5476 37.4819L40.5527 45.7385C40.9849 46.9259 42.2979 47.5382 43.4853 47.106C44.6728 46.6738 45.2851 45.3609 44.8529 44.1734L41.8477 35.9168C41.7032 35.5196 41.264 35.3149 40.8669 35.4595L38.0049 36.5012C37.6077 36.6457 37.403 37.0848 37.5476 37.4819Z" fill="#FD7BA2"/>
<path d="M44.8528 44.1734L41.8476 35.9168C41.7031 35.5196 41.264 35.3149 40.8668 35.4595L39.3741 36.0028C39.6057 35.9186 39.9106 36.1722 40.0551 36.5693L43.0603 44.8259C43.4217 45.8187 43.332 46.7952 42.8886 47.2366C43.0878 47.2202 43.2882 47.1779 43.4852 47.1061C44.6728 46.6737 45.285 45.3607 44.8528 44.1734Z" fill="#E9488E"/>
<path d="M37.8223 36.9625L32.4075 31.9583C31.37 30.9995 31.7153 29.2825 33.0429 28.7993L39.7174 26.37C41.0449 25.8868 42.413 26.9802 42.2347 28.3815L41.3033 35.6955L37.8223 36.9625Z" fill="#FEE9A1"/>
<path d="M39.7174 26.37L38.0257 26.9857C39.0874 26.5994 40.284 27.7552 40.2273 29.1122L39.9312 36.1949L41.3033 35.6955L42.2347 28.3815C42.4131 26.9802 41.045 25.8868 39.7174 26.37Z" fill="#FDCA67"/>
<path d="M8.86941 33.5827V41.0045H2.03189V30.4348C2.03189 30.307 2.06077 30.189 2.11967 30.0863C2.5446 29.3516 4.3788 29.6173 6.21786 30.6792C7.79875 31.5919 8.86941 32.7955 8.86941 33.5827Z" fill="#FF7870"/>
<path d="M6.57788 30.8984V41.0049H8.86941V33.5831C8.86941 32.8573 7.95888 31.7777 6.57788 30.8984Z" fill="#D7352E"/>
<path d="M8.87613 41.0049H2.02505C1.46307 41.0049 1.0076 41.4605 1.0076 42.0223V51.2062C1.0076 51.7681 1.46317 52.2237 2.02505 52.2237H8.87613C9.43802 52.2237 9.89359 51.7681 9.89359 51.2062V42.0223C9.89359 41.4605 9.43812 41.0049 8.87613 41.0049Z" fill="#78BAF6"/>
<path d="M8.87614 41.0049H6.58472C7.1466 41.0049 7.60217 41.4605 7.60217 42.0224V51.2063C7.60217 51.7682 7.1466 52.2238 6.58472 52.2238H8.87624C9.43813 52.2238 9.8937 51.7682 9.8937 51.2063V42.0224C9.89359 41.4604 9.43813 41.0049 8.87614 41.0049Z" fill="#1885DA"/>
<path d="M8.86941 33.5827C8.86941 33.7119 8.84053 33.8297 8.78039 33.9325C8.3567 34.6671 6.52126 34.4014 4.6822 33.3395C3.10121 32.4268 2.03189 31.222 2.03189 30.4348C2.03189 30.307 2.06077 30.189 2.11967 30.0863C2.5446 29.3516 4.3788 29.6173 6.21786 30.6792C7.79875 31.5919 8.86941 32.7955 8.86941 33.5827Z" fill="#FF9794"/>
<path d="M35.6648 38.3599C35.287 38.1576 34.8163 38.2997 34.6138 38.6776C34.285 39.2914 33.9045 39.8756 33.4799 40.4251C32.5063 39.1943 31.1342 38.283 29.522 37.8848L25.6755 36.9343V33.7317C26.8776 33.0257 28.0209 32.1026 29.0334 30.9979C29.3232 30.6818 29.3017 30.1907 28.9856 29.9009C28.6696 29.6113 28.1786 29.6326 27.8886 29.9488C25.7272 32.3071 22.8142 33.7721 20.2862 33.7721C18.86 33.7721 17.4869 33.385 16.2196 32.7225C16.1184 32.6219 15.9895 32.5497 15.8455 32.517C13.0125 30.8886 10.7537 27.8939 9.68955 24.8471C14.0668 23.9809 17.6443 21.496 19.9295 19.4965C21.8909 17.7803 23.6291 15.7657 24.8329 13.8593C25.5198 17.9747 27.4378 21.9058 31.2813 23.4819C30.9402 24.9098 30.4059 26.2566 29.6894 27.4934C29.4744 27.8644 29.601 28.3394 29.9719 28.5543C30.343 28.7693 30.8179 28.6427 31.0328 28.2718C31.8083 26.9333 32.3893 25.4805 32.7663 23.9432C33.1375 24.0265 33.519 24.0905 33.9116 24.1327C34.3387 24.1794 34.7207 23.8701 34.7665 23.4438C34.8124 23.0176 34.5039 22.6348 34.0776 22.5889C33.3659 22.5124 32.6987 22.3578 32.0768 22.1256C32.0763 22.1254 32.0757 22.1252 32.0752 22.125C31.9869 22.092 31.8997 22.0576 31.8132 22.0214C31.8126 22.0212 31.8121 22.0209 31.8115 22.0207C29.3313 20.9843 27.8512 18.763 27.0013 16.2017C26.997 16.1886 26.9926 16.1756 26.9883 16.1624C26.1425 13.5902 26.1278 11.2108 26.1278 11.1861C26.1278 10.8131 25.8621 10.4922 25.4953 10.4228C25.1277 10.3534 24.7644 10.5548 24.6282 10.9023C22.8213 15.5098 15.9988 22.4054 8.57407 23.4628C8.56827 23.4636 8.56268 23.4652 8.55699 23.4662C7.9124 23.5564 7.25248 23.607 6.57808 23.607C6.14932 23.607 5.80171 23.9545 5.80171 24.3833C5.80171 24.8122 6.14932 25.1597 6.57808 25.1597C7.09876 25.1597 7.61551 25.1323 8.12771 25.0806C9.30592 28.7672 11.4432 31.114 13.0736 32.4538C13.6571 32.9333 14.2689 33.3585 14.8966 33.7256V36.9234L11.002 37.8854C10.531 38.002 10.0782 38.1629 9.64597 38.3664V33.5838C9.64597 32.2398 8.00846 30.8176 6.60634 30.0081C5.6334 29.4463 4.61894 29.0676 3.74993 28.9418C2.25351 28.7254 1.66523 29.323 1.4466 29.701C1.32 29.9215 1.25582 30.1688 1.25582 30.4359V40.405C0.651293 40.6938 0.231537 41.3095 0.231537 42.0229V45.6563C0.231537 46.0852 0.579142 46.4327 1.0079 46.4327C1.43667 46.4327 1.78427 46.0852 1.78427 45.6563V44.8514H9.11732V51.2068C9.11732 51.3399 9.00914 51.448 8.87613 51.448H2.02546C1.89244 51.448 1.78427 51.3399 1.78427 51.2068V48.7618C1.78427 48.3329 1.43667 47.9854 1.0079 47.9854C0.579142 47.9854 0.231537 48.3329 0.231537 48.7618V51.2068C0.231537 52.196 1.03627 53.0008 2.02546 53.0008H8.87613C9.86532 53.0008 10.6701 52.196 10.6701 51.2068V49.1123H34.4942C34.7086 49.1123 34.9134 49.0237 35.0602 48.8674C35.207 48.7111 35.2824 48.501 35.2691 48.2872L35.0289 44.4788C34.9695 43.535 34.7314 42.6386 34.3471 41.8237C34.9728 41.0794 35.5224 40.2705 35.9829 39.411C36.185 39.033 36.0428 38.5624 35.6648 38.3599ZM8.09303 40.2286H2.80825L2.80835 32.96C3.27831 33.3667 3.80055 33.7277 4.2939 34.0125C5.35773 34.6267 6.88386 35.2391 8.09303 35.106V40.2286ZM8.08713 33.5345C7.77814 33.6473 6.61369 33.559 5.07037 32.6678C3.57168 31.8026 2.88019 30.8507 2.81384 30.4859C4.14795 29.9993 7.90236 32.4497 8.08713 33.5345ZM1.78396 43.2981V42.0225C1.78396 41.8895 1.89213 41.7813 2.02515 41.7813C9.4143 41.7815 8.83803 41.7815 8.8694 41.7815C8.87074 41.7815 8.87209 41.7813 8.87344 41.7813H8.87592C9.00894 41.7813 9.11711 41.8895 9.11711 42.0225V43.2981H1.78396ZM10.6697 47.5596V44.0785C10.6697 44.0772 10.6699 44.076 10.6699 44.0745C10.6699 44.0731 10.6697 44.0719 10.6697 44.0705V42.0225C10.6697 41.3091 10.2502 40.6936 9.64566 40.4047V40.1402C10.1751 39.7976 10.7547 39.5456 11.3745 39.3922L15.5111 38.3705C16.0633 38.234 16.449 37.7414 16.449 37.1727V34.5007C17.7364 35.0369 19.0478 35.3247 20.2861 35.3247C21.5425 35.3247 22.8474 35.0388 24.1225 34.508V37.1841C24.1225 37.7519 24.5077 38.2443 25.0606 38.3819L29.1495 39.3922C30.6848 39.7715 31.9437 40.7419 32.7033 42.0347C32.7232 42.079 32.7476 42.1217 32.7761 42.1622C33.1769 42.8866 33.4239 43.7061 33.4788 44.5763L33.6669 47.5595H10.6697V47.5596Z" fill="black"/>
<path d="M3.69797 27.4886C4.12673 27.4886 4.47434 27.1411 4.47434 26.7122V17.3647C4.47434 8.64594 11.5676 1.55273 20.2863 1.55273C24.5094 1.55273 28.4799 3.1977 31.4667 6.18444C31.5718 6.28951 31.675 6.39675 31.7772 6.50482C31.436 6.6926 31.0063 6.85294 30.4459 7.00511C29.91 7.15065 29.5501 7.62175 29.5501 8.17722C29.5501 8.73268 29.9101 9.20378 30.4461 9.34932C32.2643 9.84268 32.8289 10.4072 33.3225 12.2263C33.4681 12.7614 33.9391 13.1209 34.4944 13.1209C34.8551 13.1209 35.1796 12.9685 35.4031 12.7152C35.8643 14.2122 36.0984 15.7689 36.0984 17.3647V24.2796C36.0984 24.7085 36.4459 25.056 36.8747 25.056C37.3036 25.056 37.6511 24.7085 37.6511 24.2796V17.3647C37.6511 15.0381 37.1994 12.7858 36.309 10.6629C36.7365 10.0305 37.3674 9.66846 38.543 9.34932L38.5434 9.34912C39.0786 9.20347 39.4381 8.73248 39.4381 8.17722C39.4381 7.62196 39.0786 7.15096 38.5429 7.00511C36.7246 6.51165 36.1601 5.94718 35.6667 4.12862C35.5212 3.59272 35.0501 3.23279 34.4946 3.23279C33.9391 3.23279 33.468 3.59282 33.3225 4.12882C33.1811 4.65013 33.0319 5.05902 32.8597 5.38933C32.7625 5.28727 32.6644 5.18603 32.5649 5.08645C29.2846 1.80635 24.9241 0 20.2863 0C10.7114 0 2.9216 7.78976 2.9216 17.3647V26.7122C2.9216 27.141 3.26921 27.4886 3.69797 27.4886ZM34.4948 5.53374C35.025 6.86837 35.8003 7.64442 37.1334 8.17515C36.1216 8.57203 35.3192 9.15865 34.7511 10.2503C34.7494 10.2536 34.7478 10.2571 34.746 10.2604C34.7452 10.2619 34.7444 10.2635 34.7436 10.2651C34.6556 10.4358 34.5723 10.6199 34.4935 10.8197C33.9626 9.48431 33.1864 8.70836 31.8511 8.17773C32.5357 7.90704 33.0531 7.58128 33.4693 7.1668C33.4721 7.16411 33.4745 7.16111 33.4772 7.15831C33.4809 7.15448 33.4844 7.15076 33.488 7.14693C33.9006 6.73038 34.2256 6.21425 34.4948 5.53374Z" fill="black"/>
<path d="M45.5824 43.9079L42.5772 35.6513C42.4909 35.414 42.3506 35.2067 42.1694 35.0411L43.0047 28.4796C43.1231 27.5508 42.757 26.6472 42.0255 26.0626C41.294 25.4781 40.3319 25.3201 39.4519 25.6405L37.5239 26.3422C37.5219 26.3429 37.5198 26.3432 37.518 26.344L34.7112 27.3656C34.7093 27.3662 34.7076 27.3672 34.7058 27.3678L32.7775 28.0697C31.8976 28.3901 31.262 29.1293 31.0773 30.0472C30.8928 30.9653 31.1931 31.8928 31.8808 32.5284L36.7384 37.0177C36.7059 37.2609 36.7318 37.51 36.8181 37.7472L37.7317 40.2573C37.7318 40.2577 37.7319 40.258 37.732 40.2584C37.7322 40.2586 37.7323 40.2588 37.7324 40.2591L39.8233 46.0038C40.7489 48.5477 44.3239 48.7306 45.4801 46.2508C45.8259 45.5093 45.8624 44.6771 45.5824 43.9079ZM38.4079 37.5757L41.2489 36.5417L41.7665 37.9639L38.9255 38.9979L38.4079 37.5757ZM32.5995 30.3537C32.6777 29.9652 32.9361 29.6646 33.3085 29.529L33.8835 29.3197C33.9582 29.9835 34.208 30.717 34.5983 31.3358L35.474 32.7243C35.6216 32.9584 35.8736 33.0866 36.1314 33.0866C36.2729 33.0866 36.4163 33.0478 36.5448 32.9668C36.9074 32.738 37.0161 32.2586 36.7874 31.8959L35.9117 30.5074C35.4826 29.8271 35.381 29.0629 35.4182 28.7612L37.8735 27.8675C38.0959 28.0747 38.5093 28.7254 38.6178 29.5225L38.8396 31.149C38.8976 31.5738 39.2908 31.8714 39.7136 31.8134C40.1385 31.7555 40.436 31.3641 40.3781 30.9393L40.1564 29.3129C40.0575 28.5879 39.7774 27.8654 39.408 27.309C39.7024 27.2692 40.3675 26.7252 41.0561 27.2757C41.3658 27.5231 41.5146 27.8904 41.4644 28.2835L40.6454 34.7163C40.6307 34.7212 40.6159 34.7247 40.6013 34.73L37.7394 35.7717C37.7248 35.7769 37.7111 35.7839 37.6968 35.7896L32.9345 31.3884C32.6433 31.1193 32.5214 30.7423 32.5995 30.3537ZM42.0639 46.326C41.6979 46.1554 41.4203 45.8524 41.2822 45.4729L39.4566 40.4571L42.2976 39.4231L44.1233 44.439C44.5864 45.7114 43.2715 46.889 42.0639 46.326Z" fill="black"/>
</svg>
