<svg width="54" height="54" viewBox="0 0 54 54" fill="none" xmlns="http://www.w3.org/2000/svg">
<path d="M6.49178 30.1104C6.57789 30.1464 6.6878 30.1523 6.82676 30.1185C7.37117 29.9861 7.92557 29.6849 8.4331 29.4514C9.48573 28.9671 10.5021 28.404 11.4705 27.7679C11.779 27.5653 12.1062 27.3219 12.1872 26.9618C12.2525 26.6713 12.1386 26.369 11.9835 26.1148C11.7686 25.7625 11.4704 25.4614 11.1201 25.2432C10.4939 24.8531 9.96191 24.3201 9.30752 23.9796C8.34581 23.479 7.4048 25.9063 7.12851 26.5757C6.9208 27.0791 6.71956 27.5851 6.52487 28.0936C6.38554 28.4575 6.24817 28.8287 6.21844 29.2173C6.18815 29.6132 6.23005 30.0009 6.49178 30.1104Z" fill="#F7CA49"/>
<path d="M25.2232 24.7834C25.1649 25.4509 25.1277 26.1608 25.4457 26.7542C25.5251 26.8972 25.6311 27.0508 25.6099 27.2204C25.5834 27.4693 25.3026 27.6018 25.0589 27.6813C23.0882 28.3541 21.1175 29.0215 19.1468 29.6944C18.7866 29.8162 18.4104 29.9381 18.0342 29.8904C17.6687 29.8374 17.3455 29.6255 17.1125 29.3288C16.9641 29.1487 16.8476 28.9315 16.7735 28.709C16.5774 28.1368 16.6092 27.5117 16.6569 26.9078C17.0118 22.32 18.1561 17.764 20.2857 13.6901C20.6778 12.9326 21.303 11.4598 22.3254 11.4757C23.2684 11.4916 23.9729 12.5247 24.953 12.6412C25.1332 12.6624 25.3185 12.6677 25.4881 12.7419C25.9701 12.9538 26.0654 13.5895 26.0709 14.1192V14.2623C26.1026 17.7852 25.5199 21.2764 25.2232 24.7834Z" fill="white"/>
<path d="M25.4457 26.7539C25.5251 26.897 25.6311 27.0506 25.6099 27.2201C25.5834 27.4691 25.3026 27.6015 25.059 27.681C23.0882 28.3538 21.1175 29.0213 19.1468 29.6941C18.7866 29.816 18.4104 29.9378 18.0343 29.8901C17.6688 29.8372 17.3455 29.6252 17.1125 29.3286C17.0966 29.0107 17.1178 28.6875 17.1443 28.3697C17.4992 23.7819 18.6436 19.2259 20.7732 15.1467C21.1651 14.3945 21.7956 12.9218 22.8128 12.9376C23.7558 12.9535 24.4604 13.9866 25.4404 14.1031C25.6205 14.1243 25.806 14.1296 25.9754 14.2038C26.0073 14.2197 26.0391 14.2356 26.0709 14.262C26.1026 17.785 25.5199 21.2761 25.2232 24.7832C25.1649 25.4507 25.1278 26.1606 25.4457 26.7539Z" fill="#F7CA49"/>
<path d="M29.2708 21.2799C29.745 21.4709 30.2268 21.6998 30.7377 21.6832C31.0353 21.6735 31.3228 21.5803 31.6113 21.5065C32.4668 21.2876 33.3648 21.2361 34.2396 21.3559C34.6338 21.4098 35.0805 21.5433 35.2335 21.9105C35.3277 22.1367 35.2824 22.3939 35.2356 22.6345C35.1531 23.0587 35.0642 23.4979 34.81 23.8474C34.5558 24.1969 34.0861 24.4295 33.683 24.274C33.2829 24.1196 33.0819 23.6545 32.6996 23.4604C32.2746 23.2447 31.7659 23.4198 31.3164 23.5783C29.4581 24.2334 27.4857 24.5633 25.5154 24.5484C25.0513 24.5449 24.5545 24.5111 24.1865 24.2282C23.8053 23.9351 23.6451 23.4295 23.6274 22.9489C23.5051 19.6098 27.3718 20.5148 29.2708 21.2799Z" fill="#F7CA49"/>
<path d="M20.6037 44.8401C20.5189 47.1075 19.1785 49.2583 17.1761 50.3285C16.3496 50.7734 15.4544 51.0436 14.5379 51.139C13.5631 50.8847 12.7313 50.302 12.0479 49.5603C11.7512 49.2371 11.4811 48.8875 11.2374 48.5167C9.46797 45.8095 11.1897 42.0217 13.8332 40.5861C14.6861 40.1199 15.6344 39.8391 16.6039 39.749C16.7629 39.7861 16.9164 39.8285 17.07 39.8762C17.8753 40.1358 18.6542 40.549 19.1891 41.2006C19.899 42.0694 20.646 43.7276 20.6037 44.8401Z" fill="#7A7979"/>
<path d="M16.517 47.1291C16.3787 47.1291 16.2395 47.1155 16.1032 47.0885C15.8565 47.0398 15.6186 46.8927 15.3962 46.6514C15.3071 46.5546 15.2208 46.4427 15.1403 46.3196C14.9318 46.001 14.9617 45.6416 15.0234 45.3962C15.148 44.9006 15.5048 44.4299 15.9324 44.1972C16.2517 44.0234 16.6194 43.9316 16.9958 43.9316C17.2238 43.9316 17.4458 43.9654 17.6559 44.0321C17.8783 44.1027 18.0496 44.2012 18.1383 44.3097C18.3515 44.5704 18.5506 45.0804 18.5435 45.2706C18.5191 45.9209 18.1189 46.5626 17.5476 46.8675C17.2269 47.0387 16.8704 47.1291 16.517 47.1291C16.5172 47.1291 16.517 47.1291 16.517 47.1291Z" fill="white"/>
<path d="M49.5659 44.687C49.4812 46.9491 48.1462 49.1052 46.1436 50.1701C45.1688 50.6892 44.1093 50.9753 43.0339 51.0124C42.2287 50.7157 41.5347 50.1966 40.9466 49.5608C40.65 49.2377 40.3851 48.888 40.1414 48.5172C38.372 45.8101 40.0937 42.0223 42.732 40.5866C43.7385 40.041 44.8775 39.7443 46.0218 39.7178C46.0271 39.7178 46.0324 39.7231 46.0377 39.7231C46.843 39.9774 47.6217 40.3906 48.1515 41.0422C48.8666 41.911 49.6083 43.5692 49.5659 44.687Z" fill="#7A7979"/>
<path d="M38.711 23.803C38.7216 24.4175 38.6845 25.048 38.4673 25.6254C38.2501 26.2029 37.8317 26.7273 37.2595 26.9498C37.1217 27.0081 37.0158 27.0876 36.8993 27.1458C36.8197 26.6055 36.682 26.081 36.4648 25.5883C36.3006 25.2069 35.8874 25.0056 35.6225 24.693C35.3153 24.3275 35.2146 23.8348 35.1245 23.3633C35.0027 22.7276 34.7855 22.2879 35.4636 22.129C36.1311 21.97 36.878 22.0018 37.5615 21.88C37.6727 21.8588 37.7839 21.8376 37.9005 21.8164C37.9799 21.8641 38.0488 21.9171 38.1177 21.9806C38.5998 22.4257 38.6951 23.1461 38.711 23.803Z" fill="#FD6229"/>
<path d="M51.1552 40.1357C51.1817 40.3529 51.0811 40.586 50.885 40.6708C50.7579 40.7184 50.6201 40.7026 50.493 40.6866C49.8785 40.6125 49.2587 40.5542 48.6388 40.5277C48.6971 40.5277 48.7607 40.5224 48.819 40.4959C49.0149 40.4165 49.1156 40.1781 49.0892 39.9662C49.068 39.7543 48.9514 39.5635 48.819 39.394C48.3263 38.7636 47.6323 38.3186 46.9224 37.9531C45.9582 37.4657 44.9199 37.1001 43.8603 36.8988C45.6351 36.8511 47.4045 37.3226 48.9832 38.1279C49.6983 38.4881 50.3924 38.9331 50.885 39.5688C51.0175 39.7331 51.134 39.9238 51.1552 40.1357Z" fill="white"/>
<path d="M49.0892 39.9664C49.1156 40.1783 49.0149 40.4167 48.819 40.4962C48.7606 40.5227 48.6971 40.528 48.6388 40.528C48.6123 40.528 48.5858 40.528 48.5541 40.5227C47.272 40.4803 45.9847 40.5651 44.7397 40.8671C42.0909 41.508 39.7176 43.198 38.1653 45.4389C36.0357 45.4018 14.845 45.0416 12.7207 45.227C10.7183 45.4072 8.71045 45.7886 6.70792 45.5873C6.58078 45.5766 6.44834 45.5555 6.35819 45.4654C6.35289 45.4654 6.35289 45.4654 6.34771 45.4601C6.25756 45.3595 6.24696 45.2164 6.24166 45.084C6.18345 43.6059 6.13043 42.0855 6.64428 40.6922C6.83506 40.1783 7.09994 39.691 7.3806 39.2142C8.25479 37.7361 9.29841 36.3323 10.6759 35.3151C10.9671 35.1032 11.2744 34.9019 11.4969 34.6158C11.8625 34.1443 11.9207 33.4503 11.6348 32.9206C11.9154 32.6822 12.1645 32.5285 12.53 32.5338C12.9061 32.5391 13.2823 32.5391 13.6637 32.5444C14.612 32.5497 15.5603 32.555 16.5139 32.5656C16.8794 32.5709 17.2502 32.5656 17.621 32.5709C18.4528 32.5868 19.2792 32.6345 20.0686 32.8252H20.0739C20.3441 32.8888 20.6037 32.9682 20.8632 33.0689C20.9533 33.0583 21.0433 33.0477 21.1334 33.0424C21.2818 33.106 21.43 33.1907 21.5624 33.2914C21.9122 33.5616 22.1558 33.9483 22.3836 34.3297C23.0935 35.5217 23.7292 36.7666 24.1212 38.0964C24.3597 38.9175 24.5027 39.781 24.5027 40.6393C24.5027 41.0472 24.4816 41.471 24.3967 41.863C24.3491 42.0802 24.1053 42.5199 24.1902 42.7212C24.3861 43.1768 26.1662 43.1238 26.6164 43.1344C27.2204 43.3304 28.3753 43.2987 28.6985 43.3093C30.5791 43.3728 32.465 43.0497 34.2504 42.4669C34.5471 42.6471 34.9285 42.4457 35.1934 42.218C36.1523 41.4127 36.8092 40.2525 37.0158 39.0129C37.1164 38.4036 37.1058 37.7785 37.1005 37.1587C37.0741 35.1191 37.0528 33.0795 37.0264 31.0452C37.0211 30.5207 37.0317 29.9856 37.0317 29.4453C37.18 30.0916 37.3654 30.7326 37.5721 31.3578C37.731 31.8345 37.9058 32.306 38.1812 32.7193C38.6739 33.4397 39.4421 33.9165 40.0831 34.5151C40.7029 35.0926 41.3122 35.9561 41.6671 36.7243C42.3558 36.6978 43.0445 36.7508 43.7226 36.8726C43.7226 36.8832 43.7279 36.8885 43.7332 36.8991C43.7756 36.8991 43.818 36.8938 43.8603 36.8991C44.9198 37.1004 45.9582 37.4659 46.9224 37.9533C47.6323 38.3189 48.3263 38.7639 48.819 39.3943C48.9514 39.5638 49.0679 39.7545 49.0892 39.9664Z" fill="#FD6229"/>
<path d="M21.1334 33.0424C21.0433 33.0477 20.9533 33.0583 20.8632 33.0689C20.6037 32.9682 20.3441 32.8888 20.0739 32.8252C20.4447 32.8358 20.8049 32.8993 21.1334 33.0424Z" fill="#FD6229"/>
<path d="M38.711 23.803C38.7216 24.4175 38.6845 25.048 38.4673 25.6254C38.2501 26.2029 37.8317 26.7273 37.2595 26.9498C37.1217 27.0081 37.0158 27.0876 36.8993 27.1458C36.8197 26.6055 36.682 26.081 36.4648 25.5883C36.3006 25.2069 35.8874 25.0056 35.6225 24.693C35.3153 24.3275 35.2146 23.8348 35.1245 23.3633C35.0027 22.7276 34.7855 22.2879 35.4636 22.129C36.1311 21.97 36.878 22.0018 37.5615 21.88C37.6727 21.8588 37.7839 21.8376 37.9005 21.8164C37.9799 21.8641 38.0488 21.9171 38.1177 21.9806C38.5998 22.4257 38.6951 23.1461 38.711 23.803Z" fill="#FD6229"/>
<path d="M43.8603 36.8995C43.818 36.8943 43.7756 36.8995 43.7332 36.8995C43.7279 36.889 43.7226 36.8836 43.7226 36.873C43.7703 36.8836 43.8127 36.889 43.8603 36.8995Z" fill="#FD6229"/>
<path d="M45.4195 47.1291C45.2812 47.1291 45.142 47.1155 45.0057 47.0885C44.759 47.0398 44.5211 46.8927 44.2987 46.6514C44.2096 46.5546 44.1233 46.4427 44.0428 46.3196C43.8343 46.001 43.8642 45.6416 43.9259 45.3962C44.0505 44.9006 44.4073 44.4299 44.8349 44.1972C45.1542 44.0234 45.5219 43.9316 45.8983 43.9316C46.1263 43.9316 46.3483 43.9654 46.5583 44.0321C46.7808 44.1027 46.9521 44.2012 47.0408 44.3097C47.254 44.5704 47.453 45.0804 47.446 45.2706C47.4216 45.9209 47.0214 46.5626 46.4501 46.8675C46.1294 47.0387 45.7729 47.1291 45.4195 47.1291C45.4196 47.1291 45.4195 47.1291 45.4195 47.1291Z" fill="white"/>
<path d="M30.1023 5.29837C30.0335 5.37782 29.954 5.45199 29.8693 5.51556C29.0958 6.1142 27.8455 6.00824 27.3423 7.07307C27.0933 7.61345 27.1727 8.24387 27.0986 8.8319C27.0031 9.5418 26.6164 10.257 25.9913 10.5642C25.9119 10.6066 25.8271 10.6384 25.7371 10.6649C25.2179 10.8132 24.6563 10.6808 24.1584 10.4742C23.9094 10.3735 23.6657 10.2517 23.4378 10.1034C23.3002 9.87556 23.1995 9.63185 23.136 9.37227C22.9346 8.50345 23.1942 7.59754 23.4696 6.74462C23.6498 6.18838 23.8458 5.61622 24.2273 5.16593C24.7359 4.56729 25.504 4.26002 26.2615 4.06931C27.3051 3.80443 28.4283 3.73026 29.4454 4.07462C29.6308 4.13819 29.9117 4.27593 30.2029 4.46664C30.3301 4.7527 30.3248 5.03879 30.1023 5.29837Z" fill="#FD6229"/>
<path d="M35.1934 42.9973C35.5165 43.4052 35.5059 44.1045 35.0557 44.3588C34.8119 44.4966 34.51 44.4754 34.2292 44.4489L30.3354 44.0834C29.954 44.0515 29.3024 44.1257 29.0163 43.8396C28.7303 43.5536 28.7408 42.6265 28.7143 42.2504C28.6879 41.8371 28.6985 41.4292 28.7303 41.016C28.8891 39.1671 29.6203 37.3659 30.4996 35.7554C30.95 34.9343 32.142 32.9053 30.8811 32.3596C30.2189 32.0735 29.0799 32.1477 28.3594 32.1159C27.5647 32.0841 26.7701 32.1106 25.986 32.2431C24.8629 32.4285 23.7876 32.8364 22.6697 33.0589C20.6831 33.451 18.1826 32.8894 17.7059 30.5743C17.2767 28.4871 20.1692 27.1838 21.6632 26.4686C22.0393 26.2885 22.4207 26.1137 22.8233 26.0395C23.6551 25.8859 24.4974 26.1508 25.2973 26.4103C26.1873 26.8554 27.3051 27.062 28.2587 27.3692C29.2812 27.703 30.2984 28.0738 31.3367 28.3705C32.6558 28.7519 34.51 29.128 35.3206 30.3836C35.9032 31.2895 35.702 32.4815 35.4106 33.5198C35.0715 34.7383 34.6371 35.9303 34.1127 37.0851C33.514 38.3989 32.7299 39.6068 32.1526 40.9259C32.0677 41.1219 31.9883 41.318 31.9141 41.514C31.8771 41.6093 31.84 41.7259 31.8983 41.8106C31.93 41.8583 31.983 41.8901 32.0359 41.9113C32.5816 42.155 33.2491 42.2186 33.8266 42.3298C34.3351 42.4252 34.8702 42.5947 35.1934 42.9973Z" fill="white"/>
<path d="M34.0915 34.388C33.7524 35.6064 33.318 36.7984 32.7936 37.9533C32.285 39.0711 31.6386 40.1147 31.1088 41.2166C30.4043 41.3067 29.4983 41.2537 28.7303 41.0153C28.8891 39.1665 29.6203 37.3652 30.4996 35.7548C30.95 34.9336 32.142 32.9046 30.881 32.359C30.2188 32.0729 29.0799 32.1471 28.3594 32.1153C27.5647 32.0835 26.7701 32.11 25.986 32.2424C24.8629 32.4279 23.7875 32.8357 22.6697 33.0582C20.6831 33.4503 18.1826 32.8887 17.7058 30.5737C17.4992 29.5618 18.0661 28.7354 18.8819 28.0732C19.4064 27.7765 19.9308 27.5328 20.3441 27.3368C20.7202 27.1567 21.1016 26.9818 21.5042 26.9077C22.3413 26.754 23.1782 27.0189 23.9782 27.2785C24.8683 27.7235 25.986 27.9301 26.9396 28.2374C27.962 28.5711 28.9846 28.942 30.0229 29.2387C31.3367 29.6201 33.1909 29.9962 34.0067 31.2518C34.5841 32.1577 34.3829 33.3496 34.0915 34.388Z" fill="#123BD9"/>
<path d="M51.0148 41.1834C51.0163 41.183 51.0179 41.1829 51.0194 41.1824C51.0407 41.1771 51.0619 41.1718 51.0831 41.1612C51.4859 40.9969 51.735 40.5517 51.6819 40.08C51.6449 39.7196 51.4488 39.4281 51.3057 39.2426C50.6962 38.4582 49.8269 37.96 49.2281 37.6526C47.5586 36.8046 45.7831 36.3594 44.0712 36.3594C44.0659 36.3594 44.0659 36.3594 44.0606 36.3594C43.6631 35.6068 43.0854 34.8383 42.5077 34.2977C42.2957 34.1016 42.0678 33.9161 41.8399 33.7306C41.4 33.3649 40.976 33.0204 40.6897 32.5911C40.4353 32.2201 40.2711 31.7643 40.1386 31.3668C39.7517 30.1902 39.4602 28.9818 39.2641 27.7575C39.3065 27.7363 39.3383 27.7151 39.37 27.6939C39.4178 27.6674 39.4602 27.6409 39.5185 27.6197C40.1863 27.3547 40.7375 26.7611 41.029 25.982C41.2993 25.2771 41.3205 24.5351 41.3046 23.9627C41.294 23.2525 41.1933 22.3621 40.5467 21.7632C40.09 21.3422 39.5432 21.2207 38.9832 21.1802C38.9778 21.1749 38.9725 21.1802 38.9725 21.1802H38.9249C38.4797 21.1749 38.061 21.2491 37.6582 21.3233L37.4674 21.3604C36.948 21.4558 36.418 21.5247 35.888 21.5618C35.884 21.5622 35.8802 21.5622 35.8763 21.5626C35.4229 20.8712 34.4273 20.6269 33.5516 20.8201C33.2594 20.8846 32.9822 20.9785 32.7144 21.0696C32.2765 21.2181 31.8643 21.3597 31.4696 21.3364C31.1888 21.3206 30.8943 21.2202 30.5827 21.1136L30.479 21.0784C29.1092 20.6155 27.689 20.3279 26.2287 20.1995C26.4431 18.1963 26.6277 16.153 26.6002 14.1139C26.5962 13.8155 26.5776 13.0224 26.0893 12.5327C26.0883 12.5285 26.0894 12.5242 26.0883 12.52V12.5147C26.0829 12.4829 26.0723 12.4511 26.0565 12.4193C25.9822 12.255 25.9081 12.1013 25.8975 11.9741C25.871 11.7727 25.9822 11.5342 26.1094 11.2586C26.12 11.2268 26.136 11.2003 26.1466 11.1685C26.9297 11.3774 27.8237 11.4797 28.6004 11.248C29.7135 10.9194 30.5933 9.93894 30.8424 8.74644C31.0649 7.6923 31.0808 6.85004 30.8903 6.19831C31.3087 6.52201 31.8566 6.89623 32.1104 7.09265C32.3416 7.27246 32.6752 7.22963 32.8539 6.99871C33.0335 6.76735 32.9913 6.43455 32.7599 6.25521C32.3003 5.89884 31.1765 5.16664 30.879 4.75527C30.8587 4.72713 30.8301 4.7104 30.8057 4.6875C30.8052 4.68362 30.8057 4.6799 30.8053 4.67601V4.67074C30.8 4.60184 30.7841 4.54351 30.7682 4.47464C30.4819 3.44114 28.9715 2.54544 28.3885 2.34934C27.3762 2.01013 26.2048 1.99952 24.901 2.33342C22.8558 2.85242 22.2603 3.73942 21.7369 5.35974C21.4348 6.28724 21.1593 7.27833 21.3925 8.26943C21.5885 9.10153 22.1504 9.86473 22.9613 10.4265C22.8394 10.6173 22.654 10.824 22.4207 10.8982C22.3783 10.9088 22.3412 10.93 22.3094 10.9459C22.3092 10.946 22.3095 10.9458 22.3094 10.9459C21.0649 10.9586 20.3912 12.2997 19.9369 13.2001L19.8132 13.4426C17.7528 17.3906 16.5134 21.9073 16.1296 26.867C16.0789 27.5217 16.0478 28.2166 16.2701 28.8793C16.4384 29.381 16.7484 29.7966 17.1314 30.0716C17.1314 30.0723 17.1313 30.073 17.1313 30.0736C17.126 30.2697 17.1419 30.4711 17.1843 30.6831C17.3272 31.3872 17.6448 31.9591 18.0787 32.4093C17.6386 32.3765 17.2067 32.3418 16.7986 32.3057C16.4529 32.275 16.12 32.2641 15.7852 32.2501C15.7867 32.2471 15.7888 32.2443 15.7904 32.2413C16.0554 31.7219 16.0341 31.0753 16.0129 30.5029C16.0077 30.2909 15.9971 30.063 16.0023 29.8298C16.0235 28.1391 16.0447 26.4484 16.0554 24.7577C16.066 23.9309 16.0766 22.9027 15.5996 22.0123C15.5147 21.8427 15.3452 21.7367 15.1544 21.7314C12.0515 21.5887 2.5263 21.7611 2.44499 21.7632C2.10604 21.7632 1.89502 22.0563 1.91499 22.3356C2.07932 24.4662 2.04749 26.6233 1.80902 28.7539C1.7931 28.9129 1.76127 29.1037 1.72944 29.3157C1.53341 30.4976 1.17835 32.7024 2.97499 33.0681C3.45724 33.1635 3.92902 33.0946 4.34774 33.0363L4.51194 33.0098C5.9144 32.8213 7.21269 32.9087 8.62474 33.031C8.62655 33.0312 8.62837 33.0314 8.63018 33.0315C8.62966 33.0472 8.62267 33.061 8.62345 33.0769C8.63898 33.3696 8.89233 33.5986 9.18062 33.5782C9.85632 33.5424 10.5105 33.4956 11.1541 33.4498C11.1893 33.4473 11.2234 33.4452 11.2584 33.4427C11.2586 33.4433 11.2588 33.4438 11.259 33.4444C11.3172 33.7359 11.2535 34.0645 11.0734 34.2977C10.9356 34.4726 10.7235 34.6263 10.501 34.7906L10.3632 34.8913C9.10713 35.8135 8.00999 37.1014 6.92346 38.9405C6.65846 39.391 6.36163 39.9263 6.14438 40.5093C5.58785 42.0198 5.65682 43.6628 5.71505 45.1097C5.72035 45.2581 5.73096 45.5708 5.95896 45.8199C6.19213 46.069 6.50474 46.1008 6.65316 46.1167C7.74117 46.2269 8.90741 46.1664 9.99607 46.0585C10.0046 48.7965 12.3876 51.2709 14.726 51.7332C18.7415 52.5277 22.8358 49.9898 23.4611 45.7563C29.2747 45.8199 35.7293 45.9259 38.1564 45.9736C38.3525 45.9789 38.5009 45.8888 38.6016 45.7404C38.7075 45.5867 38.8189 45.4383 38.9408 45.2899V45.2846C38.9422 45.2827 38.9439 45.281 38.9454 45.2791C38.7778 46.559 39.0334 47.791 39.6975 48.8063C41.9619 52.261 45.6535 52.6032 48.7306 50.9605C50.8886 49.8089 52.3422 47.4803 52.4344 45.0285C52.4796 43.819 51.766 42.1744 51.0148 41.1834ZM29.8035 8.52912C29.634 9.34535 29.0457 10.0131 28.2984 10.2304C27.9644 10.3311 27.5669 10.347 27.09 10.2834C27.5326 9.62025 27.623 9.1576 27.6677 8.28535C27.6835 7.91434 27.6994 7.56983 27.8215 7.29952C28.0281 6.85964 28.415 6.70592 29.0297 6.49394C29.2259 6.42504 29.4272 6.35614 29.6234 6.26601C29.6658 6.25013 29.7135 6.22894 29.7559 6.20772C30.0938 6.81857 29.9484 7.84896 29.8035 8.52912ZM22.4207 8.03092C22.2565 7.30483 22.479 6.50452 22.744 5.68303C23.1665 4.39007 23.4739 3.78602 25.1608 3.36162C26.1059 3.11854 27.117 3.04607 28.044 3.35101C28.5316 3.51535 29.6022 4.23614 29.7453 4.75553C29.7506 4.78202 29.7559 4.80324 29.7559 4.82443C29.7559 4.87214 29.74 4.90922 29.7029 4.95162C29.6552 5.00464 29.6075 5.05233 29.544 5.09474C29.3213 5.26964 29.0085 5.38092 28.68 5.49224C28.0493 5.71483 27.2702 5.98513 26.8621 6.85434C26.6447 7.31544 26.629 7.80833 26.6077 8.23763C26.6023 8.41785 26.5971 8.59272 26.5759 8.76233C26.4233 9.8451 25.7054 10.5376 24.4506 10.0131C24.4241 10.0078 24.3922 9.99723 24.3604 9.98132C23.4966 9.62723 22.6405 8.94559 22.4207 8.03092ZM23.9577 10.9618C24.3075 11.1102 24.6466 11.2056 24.9647 11.2374C24.8753 11.4901 24.8123 11.7691 24.8425 12.074C24.4224 11.9546 24.0168 11.6266 23.5777 11.3623C23.6936 11.2356 23.7992 11.0935 23.8941 10.9353C23.9153 10.9459 23.9365 10.9512 23.9577 10.9618ZM18.3397 30.8633C18.2919 30.7414 18.2548 30.6089 18.2231 30.4658C17.8944 28.8546 20.396 27.6621 21.7422 27.0155C22.123 26.8383 22.5154 26.6366 22.919 26.5597C23.6238 26.4325 24.4029 26.6763 25.0972 26.9042C25.4595 27.0824 31.1129 28.8732 31.6744 29.0136C32.8299 29.3316 34.2662 29.7291 34.8757 30.6672C35.0877 31.0011 35.1619 31.3933 35.1619 31.8067C35.1619 32.3314 35.0347 32.8879 34.9022 33.3755C34.5683 34.5627 34.1443 35.7393 33.6302 36.8629C33.0988 38.0384 32.5123 38.93 31.8069 40.4033C31.7911 40.4404 31.7699 40.4775 31.754 40.5146C31.057 40.7884 30.0506 40.7657 29.3107 40.6153C29.5083 39.0358 30.21 37.398 30.9643 36.0096L31.0279 35.8983C31.6109 34.8436 32.2044 33.6405 31.8865 32.713C31.8122 32.4957 31.685 32.3049 31.5208 32.1512C31.5185 32.149 31.5155 32.1475 31.5132 32.1453C31.6997 31.9967 31.7754 31.7425 31.6712 31.5164C31.5485 31.2503 31.2336 31.1344 30.9681 31.2568L30.3105 31.5601C30.2598 31.5835 30.2202 31.6192 30.181 31.6549C30.177 31.6544 30.1733 31.6535 30.1693 31.653C29.9043 31.6212 29.6287 31.6106 29.3584 31.6053H29.3531C29.353 31.6053 29.3527 31.6053 29.3525 31.6053L29.4153 31.557C29.6472 31.3782 29.6904 31.0454 29.5119 30.8135C29.3328 30.5814 29 30.5389 28.7684 30.717L28.1235 31.2133C28.0049 31.3045 27.9371 31.4359 27.9214 31.5735H27.7896C27.2135 31.5735 27.0015 31.5979 26.9457 31.6006C26.9743 31.5557 27.008 31.5142 27.035 31.4683C27.1835 31.2162 27.0992 30.8911 26.8469 30.7429C26.5948 30.5946 26.2698 30.6784 26.1215 30.931C25.9768 31.1769 25.8021 31.4038 25.6029 31.6051C25.5461 31.6625 25.5087 31.7302 25.4834 31.8016C25.2299 31.8545 24.9712 31.9126 24.723 31.9811C24.796 31.8541 24.8795 31.734 24.9818 31.6287C25.1857 31.4188 25.181 31.0834 24.9709 30.8792C24.761 30.6753 24.4256 30.6802 24.2214 30.8901C24.0108 31.1067 23.8371 31.3549 23.7052 31.6277C23.6042 31.8366 23.6569 32.0748 23.8123 32.2299C23.8114 32.2302 23.8104 32.2304 23.8093 32.2307C23.4032 32.3453 23.0072 32.4492 22.6115 32.5332C22.4681 32.539 22.3227 32.5421 22.177 32.5455C22.2585 32.4954 22.3279 32.4229 22.3737 32.3308C22.5036 32.0699 22.6646 31.8254 22.8522 31.6036C23.0414 31.3803 23.0134 31.0456 22.7901 30.8567C22.5665 30.6673 22.2324 30.6952 22.0432 30.9188C21.8005 31.2056 21.5924 31.5216 21.425 31.8582C21.2982 32.1132 21.3984 32.4181 21.6449 32.5548C21.2531 32.5564 20.8577 32.5509 20.4603 32.5391C20.4328 32.5336 20.4064 32.5268 20.3815 32.5225L20.8034 31.8394C20.9573 31.5904 20.8802 31.2638 20.631 31.1101C20.382 30.9553 20.0555 31.0332 19.9017 31.2824L19.4214 32.0604C19.4086 32.0811 19.4067 32.1044 19.3971 32.1261C19.3963 32.1256 19.3953 32.1252 19.3944 32.1247C19.2464 32.0349 19.1036 31.9291 18.9766 31.8128C19.0133 31.7767 19.0461 31.7358 19.0718 31.6882C19.1895 31.4714 19.3396 31.2747 19.5182 31.1039C19.7296 30.9012 19.7371 30.5659 19.5348 30.3544C19.3321 30.143 18.9968 30.136 18.7853 30.3379C18.6175 30.4986 18.4741 30.6801 18.3427 30.8702C18.3418 30.8678 18.3405 30.8657 18.3397 30.8633ZM35.0766 24.8608C35.5996 25.298 36.0031 25.8802 36.2065 26.53C36.3793 27.0823 36.4213 27.6791 36.4547 28.346C36.6249 31.7622 36.5729 35.2246 36.3004 38.6372C36.2375 39.4252 36.1656 40.1302 35.9218 40.7779C35.6949 41.3803 35.3168 41.8471 34.8759 42.1083C34.5467 41.9439 34.2035 41.86 33.9269 41.8078C33.7839 41.7813 33.6355 41.7548 33.4871 41.7336C33.1479 41.6753 32.7981 41.617 32.48 41.5163C32.5331 41.3891 32.5861 41.2619 32.6391 41.14C33.1933 39.8603 33.9902 38.644 34.5947 37.3028C35.13 36.1262 35.5753 34.9019 35.9197 33.6617C36.2219 32.5858 36.4816 31.2025 35.7661 30.0948C34.9393 28.8175 33.2857 28.3617 31.9554 27.9907C31.4749 27.8667 25.8166 26.0662 25.7632 26.0435C25.7017 25.718 25.7101 25.3522 25.7394 24.9708C25.8241 24.9687 25.91 24.9668 25.9934 24.9646C27.6103 24.9232 29.2826 24.8803 30.8925 24.3748L31.1466 24.2933C31.7299 24.1031 32.2796 23.924 32.7141 24.1016C32.8748 24.1673 33.0371 24.2923 33.2092 24.425C33.4149 24.5834 33.6478 24.763 33.9333 24.8831C34.2665 25.0236 34.6876 25.0308 35.0766 24.8608ZM27.0298 40.324C26.9631 39.0448 26.8515 37.6937 26.2982 36.4706C25.7579 35.2762 24.8566 34.3294 23.943 33.4992C24.1047 33.4817 24.2672 33.465 24.4243 33.4431C24.6464 33.4121 24.8146 33.2471 24.864 33.0416C25.2721 32.9303 25.6696 32.8349 26.0723 32.766C26.756 32.6494 27.4928 32.6123 28.3354 32.6441C28.5104 32.6547 28.7065 32.6547 28.9132 32.6547C29.5121 32.66 30.2594 32.6706 30.6728 32.8455C30.8159 32.9091 30.8583 32.9886 30.8847 33.0575C31.0756 33.6193 30.3919 34.8542 30.1004 35.3842L30.0368 35.5008C28.945 37.4936 28.346 39.2797 28.2029 40.9704V41.0181C28.1659 41.4792 28.1606 41.8926 28.1871 42.2848C28.2038 42.6241 28.2079 42.7122 28.2187 42.8265C27.9951 42.8156 27.7746 42.8073 27.5404 42.7898C27.3189 42.7729 27.0937 42.7561 26.8588 42.7421C27.087 41.966 27.072 41.1296 27.0298 40.324ZM31.3353 41.7177C31.3353 41.8396 31.3671 41.9721 31.4572 42.1046C31.5419 42.2371 31.6744 42.3378 31.8175 42.3961C32.2999 42.6081 32.8352 42.6982 33.3122 42.7777C33.4553 42.7989 33.5931 42.8254 33.7309 42.8519C34.2662 42.9526 34.6 43.101 34.7803 43.3289C34.865 43.4349 34.9075 43.6098 34.881 43.7529C34.8703 43.8006 34.8492 43.8695 34.7962 43.896C34.6849 43.9596 34.4411 43.9384 34.2768 43.9225L30.3813 43.5568C30.2806 43.5462 30.164 43.5462 30.0421 43.5409C29.8619 43.5409 29.4803 43.5356 29.4008 43.4773C29.2947 43.3183 29.2629 42.6611 29.2523 42.4438C29.2523 42.3537 29.2471 42.2742 29.2418 42.2159C29.2312 42.0463 29.2259 41.8661 29.2312 41.6753C29.9777 41.8165 30.7492 41.8154 31.3353 41.7177ZM4.36352 31.9604L4.19402 31.9869C3.82835 32.0399 3.48377 32.0876 3.18694 32.0293C2.70468 31.9286 2.57749 31.4357 2.63585 30.6036V30.5983C2.63611 30.5935 2.63714 30.5875 2.6374 30.5826C2.68424 30.7378 2.79241 30.8722 2.95649 30.9313C3.26652 31.0428 3.56671 31.1857 3.84879 31.3554C4.10203 31.5077 4.42672 31.4235 4.57625 31.175C4.72738 30.9243 4.64664 30.5985 4.39587 30.4476C4.05427 30.2418 3.69093 30.069 3.31569 29.9339C3.06479 29.8438 2.79811 29.9606 2.67622 30.1891C2.67712 30.1819 2.67712 30.1762 2.67816 30.169C2.67816 30.169 2.67816 30.169 2.67816 30.1637C2.69938 29.9517 2.73121 29.7291 2.77352 29.4853C2.79474 29.3687 2.81066 29.2521 2.82657 29.1461C2.82696 29.1434 2.82709 29.1413 2.82761 29.1386C2.86772 29.1842 2.91301 29.2265 2.96943 29.2572C3.21838 29.3922 3.43136 29.5892 3.58586 29.8273C3.68731 29.9836 3.85733 30.0687 4.03098 30.0687C4.12984 30.0687 4.22973 30.041 4.31901 29.9833C4.5646 29.8239 4.63447 29.4958 4.47506 29.2502C4.22455 28.8643 3.87881 28.5445 3.4751 28.3255C3.28916 28.2246 3.07165 28.2501 2.91146 28.3668C2.93255 28.2031 2.94821 28.0394 2.95895 27.8705C3.23223 28.0003 3.48907 28.1777 3.70076 28.3931C3.80428 28.4986 3.94144 28.5514 4.0786 28.5514C4.21265 28.5514 4.34696 28.5007 4.45022 28.3993C4.6588 28.1943 4.66165 27.8587 4.45643 27.6498C4.1376 27.3253 3.76546 27.0662 3.35062 26.8794C3.24426 26.8316 3.13285 26.8308 3.02714 26.8529C3.02727 26.8488 3.02765 26.8447 3.02791 26.8406C3.03852 26.5915 3.04913 26.3424 3.05974 26.0933C3.05987 26.0881 3.05987 26.0831 3.06 26.0779C3.12185 26.1589 3.19988 26.2286 3.30378 26.2635C3.43809 26.3085 3.5605 26.4014 3.64021 26.5181C3.8057 26.7607 4.13606 26.8217 4.37672 26.6574C4.61869 26.4923 4.6808 26.1626 4.51595 25.9208C4.30555 25.6126 3.99527 25.3776 3.64176 25.2589C3.42994 25.1877 3.20648 25.2591 3.07035 25.419V25.4149C3.08627 24.5457 3.06505 23.6818 3.01213 22.8232C3.5103 22.8232 4.00316 22.8179 4.49602 22.8126C4.4999 22.8125 4.50379 22.8125 4.5078 22.8124C4.59229 23.0015 4.69218 23.1839 4.8221 23.3436C4.92665 23.4724 5.07959 23.5392 5.23357 23.5392C5.35106 23.5392 5.46933 23.5004 5.56767 23.4204C5.75904 23.2648 5.8042 23.0061 5.70586 22.7916C8.73756 22.7343 11.8565 22.6573 14.7834 22.7755C15.0113 23.3797 15.006 24.1005 14.9954 24.7471C14.9847 26.4378 14.9635 28.1285 14.9423 29.8192C14.9371 30.0683 14.9477 30.3121 14.9529 30.54C14.9954 31.7378 14.969 32.024 14.0519 32.1406C12.5256 32.3314 11.0097 32.1936 9.40396 32.0399C7.67139 31.8778 6.0742 31.725 4.36352 31.9604ZM14.9314 50.6934C14.6625 50.6403 14.4007 50.5553 14.1445 50.446C14.3735 50.2579 14.5662 50.026 14.7006 49.7587C14.8321 49.497 14.7265 49.1785 14.4651 49.047C14.2035 48.9158 13.8849 49.0214 13.7534 49.2825C13.6271 49.5341 13.3922 49.7359 13.1248 49.8226C13.1211 49.8238 13.1186 49.8269 13.1149 49.8282C12.9798 49.7217 12.8462 49.6093 12.7162 49.485C12.9209 49.2846 13.1805 49.1371 13.4592 49.0719C13.7441 49.0053 13.9214 48.7204 13.8546 48.4352C13.7884 48.1503 13.504 47.9725 13.218 48.0398C12.7694 48.1445 12.3518 48.3776 12.0153 48.6935C11.9101 48.5555 11.8076 48.4119 11.7085 48.2623L12.2778 48.0344C12.5495 47.9254 12.6815 47.6169 12.5726 47.3452C12.4636 47.074 12.1567 46.9412 11.8834 47.0505L11.2445 47.3062C11.0913 46.8341 11.0426 46.3713 11.0539 45.9416C11.1116 45.9363 11.1746 45.9259 11.2323 45.9206C11.7412 45.8623 12.2553 45.804 12.7694 45.7563C13.1368 45.7196 14.11 45.7177 14.4537 45.7139C14.4474 46.0417 14.525 46.3471 14.697 46.61C15.0091 47.0873 15.4433 47.4981 16.0005 47.6084C16.171 47.642 16.3447 47.6591 16.517 47.6591C16.957 47.6591 17.3998 47.5471 17.797 47.3351C18.4035 47.0115 18.8549 46.3909 19.0114 45.7139C19.0667 45.7143 21.4629 45.7332 22.3923 45.7457C21.7865 49.2603 18.3476 51.3696 14.9314 50.6934ZM15.5119 45.7033C16.213 45.7033 17.019 45.7086 17.8982 45.7086C17.7754 45.9985 17.5654 46.2572 17.2981 46.3999C16.959 46.5813 16.5727 46.6411 16.2062 46.5686C15.9547 46.5185 15.7254 46.2458 15.5838 46.0295C15.5186 45.9296 15.5056 45.8126 15.5119 45.7033ZM12.674 44.7016C10.4729 44.9038 8.67606 45.2463 6.76974 45.062C6.75913 44.744 6.74335 44.4313 6.73791 44.1133C6.73791 44.1091 6.73817 44.1049 6.73804 44.1007C7.07779 44.2011 7.38044 44.2323 7.7327 44.1766C8.02202 44.1316 8.21974 43.8604 8.17445 43.5713C8.12968 43.2817 7.85536 43.0858 7.56914 43.1295C7.36082 43.1616 7.13696 43.1376 6.93951 43.0604C6.87662 43.036 6.81193 43.0275 6.74852 43.0273C6.74852 43.0254 6.74839 43.0234 6.74852 43.0215C6.75396 42.8893 6.76444 42.7571 6.77492 42.6249L7.31501 42.7908C7.5994 42.8775 7.89225 42.716 7.97725 42.4396C8.06317 42.1599 7.90583 41.8633 7.62608 41.7774L7.02827 41.5939C6.99644 41.5843 6.965 41.5884 6.93317 41.5849C6.93356 41.5832 6.93369 41.5815 6.93407 41.5799C7.02309 41.1798 7.12426 40.932 7.15663 40.8326H7.16194C7.1622 40.8319 7.16258 40.8311 7.16284 40.8304C7.20645 40.8629 7.25109 40.8948 7.30544 40.9133L8.02202 41.1573C8.3004 41.2526 8.60072 41.1024 8.69462 40.8268C8.78907 40.5497 8.64105 40.2487 8.36414 40.1542L7.64652 39.9097C7.63099 39.9044 7.61547 39.9075 7.59994 39.9037C7.62938 39.8506 7.69373 39.7257 7.84035 39.4811C7.90919 39.3646 7.97803 39.2481 8.04687 39.1369C8.0853 39.1988 8.13498 39.2546 8.19929 39.2979L8.73706 39.6597C8.98191 39.8243 9.3105 39.7568 9.47279 39.5158C9.63609 39.2728 9.57139 38.9436 9.32865 38.7803L8.7914 38.4185C8.72282 38.3724 8.64739 38.3488 8.57079 38.3379C8.57117 38.3374 8.57143 38.3368 8.57182 38.3363C8.60477 38.2846 8.65342 38.2158 8.69423 38.1588C8.8988 38.3227 9.11683 38.4702 9.35479 38.5746C9.62653 38.6932 9.93662 38.567 10.053 38.3018C10.1705 38.0337 10.0483 37.7211 9.78024 37.6036C9.62134 37.534 9.4759 37.4344 9.34029 37.3234C9.51279 37.1082 9.65849 36.9539 9.79136 36.8094C9.94974 36.9692 10.1268 37.1087 10.3196 37.2222C10.573 37.3717 10.8979 37.2853 11.0452 37.0348C11.194 36.7825 11.1099 36.4577 10.8578 36.3092C10.7517 36.2465 10.6565 36.1674 10.5677 36.0812C10.6358 36.0236 10.7088 35.9611 10.7819 35.9036H10.7872C10.7893 35.9018 10.7915 35.9005 10.7937 35.8987C10.8338 35.9327 10.8741 35.9668 10.9251 35.9883L11.5703 36.2595C11.8418 36.3744 12.1519 36.2446 12.2644 35.9769C12.378 35.7072 12.2514 35.3964 11.9818 35.2828L11.7158 35.1709C11.7843 35.1023 11.8529 35.0234 11.916 34.9443C12.2606 34.4938 12.3984 33.9214 12.3241 33.3702C12.3241 33.3702 12.3241 33.3703 12.3241 33.3702C13.769 33.2778 15.1862 33.2269 16.7049 33.3616C17.8868 33.4662 19.1498 33.561 20.3991 33.5997C20.4013 33.6015 20.403 33.6034 20.4066 33.6034C21.0744 33.7253 21.79 33.7306 22.4896 33.6299C23.5498 34.5491 24.7366 35.5902 25.3324 36.9075C25.8096 37.9626 25.9098 39.2011 25.9714 40.3794C26.0213 41.3374 26.0317 42.2572 25.6161 42.9774C25.5221 43.1402 25.5213 43.3405 25.6142 43.504C25.7069 43.6673 25.8792 43.7695 26.0671 43.7724C26.5715 43.7799 27.0239 43.8138 27.4612 43.8466C27.7832 43.8708 28.102 43.8871 28.4244 43.898C28.4248 43.8991 28.4252 43.9003 28.4256 43.9013C28.484 44.0232 28.5528 44.1292 28.6429 44.214C29.014 44.585 29.5969 44.5956 30.0262 44.6009C30.1216 44.6062 30.2117 44.6062 30.2859 44.6115L32.48 44.8182C25.4469 44.7122 14.2163 44.5638 12.674 44.7016ZM37.8967 44.9083C37.4515 44.903 36.5028 44.8818 35.2202 44.8606C35.2519 44.85 35.2838 44.8341 35.3156 44.8182C35.6922 44.6075 35.9463 44.1938 35.9463 43.6628C35.9463 43.3713 35.8668 43.0745 35.7184 42.8254C35.7169 42.823 35.7153 42.8212 35.7137 42.8187C36.2283 42.4251 36.6476 41.8581 36.9137 41.1516C37.2059 40.3753 37.2903 39.5593 37.3571 38.7216C37.6334 35.2636 37.6857 31.755 37.5131 28.2932C37.4774 27.5797 37.428 26.8838 37.2183 26.2133C36.9527 25.3647 36.4241 24.605 35.7392 24.0364C35.7489 23.9553 35.7498 23.8721 35.7383 23.7874C35.699 23.4973 35.4317 23.2923 35.1418 23.3337C35.0347 23.3483 34.9451 23.4002 34.8696 23.4666C34.8199 23.4416 34.7725 23.4124 34.7218 23.3894C34.4553 23.269 34.1411 23.386 34.02 23.6528C34.0132 23.6678 34.0147 23.6837 34.0094 23.699C33.9586 23.6616 33.9086 23.6257 33.8564 23.5855C33.6465 23.4235 33.4085 23.2403 33.1152 23.1202C32.3221 22.796 31.5234 23.0561 30.8188 23.2853L30.5755 23.3635C29.1069 23.8244 27.5101 23.8653 25.9659 23.9051C24.8037 23.9354 23.6024 23.9665 22.5212 23.5972C22.3556 23.5408 22.125 23.4499 22.038 23.3135C21.9702 23.2072 21.9503 23.009 21.933 22.8343L21.6457 19.9539C21.4943 18.4341 21.4206 17.0899 22.0549 16.0315C22.2107 15.7719 22.3786 15.6073 22.5409 15.5553C22.6472 15.5219 22.7676 15.5685 22.7839 15.5985C22.9156 15.8428 23.2303 15.9789 23.4831 15.8656C23.7367 15.752 23.8749 15.4963 23.7797 15.2354C23.5654 14.6477 22.8641 14.3385 22.2176 14.5458C21.8007 14.6791 21.4402 14.9956 21.1457 15.4865C20.2793 16.9318 20.4594 18.7392 20.5909 20.059L20.8781 22.9393C20.9045 23.203 20.9405 23.5641 21.1444 23.8837C21.4105 24.3008 21.8626 24.4926 22.1791 24.6005C22.9943 24.8789 23.849 24.9616 24.6754 24.9775C24.6596 25.2071 24.6531 25.4383 24.6609 25.6689C24.0572 25.4996 23.3954 25.3938 22.7281 25.5156C22.2669 25.6004 21.8535 25.7912 21.4348 25.9926L21.2865 26.0615C20.1209 26.6178 18.2196 27.5236 17.461 28.9113C17.3811 28.7944 17.3172 28.6672 17.2753 28.5424C17.1161 28.0675 17.1425 27.5176 17.1865 26.9488C17.5589 22.1324 18.7589 17.7535 20.7532 13.9332L20.8833 13.6775C21.1996 13.051 21.7272 12.0045 22.308 12.0045C22.3105 12.0045 22.3131 12.0047 22.3157 12.0047C22.648 12.0102 23.0013 12.2436 23.3755 12.4907C23.8048 12.7746 24.2918 13.0963 24.8883 13.1682L25.0032 13.1809C25.1127 13.1921 25.216 13.2027 25.2755 13.2285C25.4372 13.2992 25.5338 13.6268 25.5402 14.1278C25.5454 14.5154 25.5352 14.9047 25.5259 15.2939C25.4969 15.289 25.4706 15.2766 25.4403 15.2766H24.9611C24.6684 15.2766 24.4311 15.5139 24.4311 15.8066C24.4311 16.0993 24.6684 16.3366 24.9611 16.3366H25.4403C25.457 16.3366 25.471 16.3286 25.4873 16.3271C25.4859 16.3564 25.4841 16.3858 25.4825 16.4151C25.3759 16.3653 25.2552 16.3433 25.1324 16.3733L24.4137 16.5535C24.1298 16.6246 23.9572 16.9124 24.0286 17.1963C24.0889 17.437 24.3048 17.5974 24.5421 17.5974C24.5848 17.5974 24.6283 17.5922 24.6715 17.5814L25.3901 17.4018C25.404 17.3983 25.4139 17.3886 25.4271 17.3841C25.3597 18.3016 25.268 19.2162 25.1706 20.1241C24.9683 20.1125 24.7844 20.0904 24.6541 20.0174C24.4678 19.9125 24.369 19.6268 24.451 19.4291C24.5633 19.1587 24.4352 18.8487 24.165 18.7363C23.8949 18.6243 23.5846 18.7524 23.4722 19.0223C23.1847 19.7141 23.4823 20.575 24.1355 20.9417C24.2493 21.0055 24.3655 21.0487 24.4826 21.083C24.4383 21.2685 24.4203 21.4603 24.4321 21.6495C24.4505 21.9437 24.7058 22.165 24.9942 22.1454C25.2864 22.1273 25.5084 21.8755 25.49 21.5833C25.4821 21.4556 25.5118 21.3287 25.5594 21.2097C25.7788 21.2215 25.9975 21.2399 26.2162 21.26C26.0895 21.4373 26.0072 21.6452 25.9853 21.8623C25.9561 22.1534 26.1683 22.4132 26.4597 22.4427C26.4778 22.4445 26.4957 22.4453 26.5133 22.4453C26.7822 22.4453 27.0125 22.2416 27.0402 21.9684C27.0441 21.9282 27.0629 21.8866 27.0901 21.8568C27.2125 21.7235 27.2442 21.5464 27.207 21.3824C27.2682 21.3916 27.3295 21.3998 27.3906 21.4097C27.3886 21.4162 27.3837 21.4209 27.382 21.4275L27.262 21.9073C27.191 22.1912 27.3639 22.479 27.6478 22.5499C27.691 22.5607 27.734 22.5656 27.7767 22.5656C28.0143 22.5656 28.2303 22.4049 28.2904 22.164L28.4099 21.6858C28.4164 21.6599 28.411 21.6349 28.4136 21.6092C28.9953 21.7402 29.5729 21.891 30.1394 22.0825C30.5646 22.2276 30.959 22.3694 31.4098 22.3948C32.303 22.4467 33.058 22.0143 33.7793 21.8553C34.0591 21.7934 34.3724 21.8092 34.6208 21.8918C34.5737 21.971 34.5524 22.0659 34.5524 22.166C34.563 22.4575 34.8121 22.6854 35.1036 22.6748C36.0164 22.6292 36.5764 22.5994 37.6529 22.4045C37.92 22.3543 38.1458 22.3093 38.3525 22.2826C38.3531 22.2825 38.3538 22.2825 38.3544 22.2824C38.2765 23.0519 38.5542 23.8516 39.1375 24.3816C39.239 24.4737 39.3666 24.5192 39.4936 24.5192C39.638 24.5192 39.7816 24.4608 39.8862 24.3456C40.0829 24.129 40.0668 23.7939 39.8502 23.5969C39.5084 23.2865 39.3514 22.7763 39.4205 22.3138C39.4213 22.3141 39.4223 22.3142 39.4231 22.3144C39.5821 22.3674 39.7199 22.4416 39.8259 22.537C40.1015 22.7967 40.2287 23.2419 40.2446 23.9839C40.2552 24.4609 40.2393 25.0757 40.0378 25.611C39.8577 26.0986 39.5185 26.4802 39.1316 26.6286C39.015 26.6763 38.9196 26.7293 38.8242 26.7876C38.7924 26.8088 38.75 26.8353 38.75 26.8406C38.5857 26.8194 38.4214 26.8724 38.2994 26.989C38.1828 27.1056 38.1246 27.2752 38.1511 27.4395C38.3419 28.8811 38.6758 30.3174 39.1369 31.7007C39.2906 32.1671 39.4814 32.7024 39.81 33.19C40.1863 33.7412 40.6844 34.1546 41.1721 34.5468C41.3788 34.7217 41.5908 34.8913 41.7869 35.0715C42.2321 35.4849 42.6825 36.0785 43.0165 36.6721C43.017 36.6729 43.0173 36.6737 43.0177 36.6745C42.7533 36.7686 42.5147 36.8814 42.3162 36.9838C41.0293 37.6479 39.8821 38.6054 38.9991 39.7529C38.8205 39.9847 38.864 40.3175 39.0959 40.4961C39.1921 40.5704 39.306 40.6061 39.4188 40.6061C39.5507 40.6061 39.6748 40.5459 39.775 40.4514L39.7824 40.5248C39.8099 40.7981 40.0402 41.002 40.3093 41.002C40.3269 41.002 40.3448 41.0013 40.3626 40.9995C40.6538 40.9702 40.8662 40.7106 40.8372 40.4192L40.7643 39.6895C40.756 39.6065 40.7255 39.5332 40.6844 39.4671C40.7939 39.3605 40.9049 39.2557 41.0198 39.1548C41.0212 39.2168 41.026 39.2787 41.0218 39.3409C41.0016 39.6328 41.2218 39.8859 41.514 39.9061C41.5264 39.9068 41.5388 39.9074 41.551 39.9074C41.8271 39.9074 42.0598 39.6936 42.0792 39.4138C42.1017 39.0878 42.0722 38.7612 41.9909 38.4436C41.988 38.4319 41.9795 38.4235 41.9758 38.4121C42.1161 38.3192 42.2649 38.2413 42.41 38.1566C42.4098 38.1731 42.4124 38.1896 42.4099 38.2058C42.3677 38.4957 42.5683 38.7645 42.8579 38.807C42.884 38.8106 42.9096 38.8124 42.9353 38.8124C43.194 38.8124 43.4205 38.6227 43.459 38.359C43.4927 38.1269 43.4583 37.8947 43.3817 37.6745C43.7072 37.5587 43.9874 37.5134 44.2414 37.5425C44.2465 37.587 44.2477 37.6317 44.2649 37.6753C44.3938 38.0029 44.6339 38.278 44.9406 38.4506C45.0229 38.497 45.1119 38.5187 45.1999 38.5187C45.3852 38.5187 45.5651 38.4214 45.6624 38.2485C45.8035 37.9977 45.7164 37.6828 45.471 37.536C45.4746 37.5334 45.4757 37.536 45.4757 37.536C46.5728 37.7003 47.6805 38.0607 48.7458 38.6013C49.2546 38.8557 49.986 39.2744 50.4683 39.8892C50.5 39.9316 50.5902 40.0482 50.6167 40.1648C50.5955 40.1648 50.5743 40.1595 50.5584 40.1595C48.2688 39.8733 46.3237 39.9369 44.6171 40.3503C41.9777 40.9916 39.545 42.6452 37.8967 44.9083ZM48.2316 50.0252C46.8564 50.7594 45.336 50.9908 43.8335 50.6934C43.8017 50.6872 43.7708 50.6774 43.7392 50.6704L44.3203 50.3604C44.5786 50.2224 44.6761 49.9015 44.5384 49.6433C44.4008 49.3853 44.0801 49.2879 43.8213 49.4251L42.9228 49.9044C42.781 49.98 42.6937 50.112 42.6612 50.2575C42.453 50.1425 42.2497 50.0082 42.0516 49.8548C42.0607 49.8523 42.0699 49.8533 42.0789 49.8503L43.1565 49.4911C43.4345 49.3987 43.5846 49.0988 43.4922 48.8211C43.4 48.5432 43.0991 48.3925 42.8222 48.4854L41.7435 48.8446C41.5522 48.9085 41.4283 49.0729 41.3958 49.2586C41.377 49.2386 41.3575 49.2208 41.3388 49.2005C41.2771 49.1336 41.2187 49.0576 41.1584 48.9866C41.3948 48.9003 41.6233 48.792 41.8344 48.6596C42.0823 48.5038 42.1571 48.1767 42.0015 47.9288C41.846 47.6814 41.5192 47.6069 41.2707 47.7616C41.0361 47.9089 40.7701 48.0099 40.4985 48.0727C40.3563 47.8322 40.2414 47.59 40.1597 47.3487L40.6227 47.4932C40.906 47.5812 41.2003 47.422 41.2868 47.1454C41.374 46.8662 41.2184 46.5688 40.939 46.4814L40.0891 46.2164C40.0448 46.2025 40.0005 46.2046 39.9561 46.2026C39.9475 45.9566 39.9565 45.7194 39.9827 45.4965L40.1947 45.7669C40.3753 45.9976 40.7093 46.0375 40.9387 45.8572C41.1693 45.6765 41.2096 45.3435 41.029 45.1132L40.3419 44.2369C40.3311 44.223 40.3153 44.2165 40.3034 44.204C40.3871 43.9844 40.4868 43.7708 40.5962 43.5616C40.7159 43.4629 40.8405 43.3641 40.96 43.2653C40.9603 43.2651 40.9606 43.265 40.9608 43.2648C40.9691 43.3192 40.9792 43.3739 41.0055 43.4256C41.1126 43.636 41.1845 43.8609 41.2195 44.0938C41.2631 44.3848 41.5363 44.5836 41.8222 44.5392C42.1115 44.4959 42.3111 44.226 42.2676 43.9364C42.2158 43.5907 42.1092 43.2574 41.9506 42.9453C41.9012 42.8484 41.8216 42.7819 41.7333 42.7324C41.7371 42.73 41.7406 42.7271 41.7444 42.7247C41.8452 42.6611 41.9459 42.5922 42.0519 42.5339H42.0572C42.058 42.5335 42.0588 42.533 42.0596 42.5326C42.1384 42.758 42.2376 42.9752 42.3713 43.1741C42.5347 43.4168 42.8642 43.481 43.1071 43.3177C43.3498 43.1541 43.4143 42.8249 43.2507 42.5819C43.1467 42.4274 43.0685 42.2579 43.0181 42.0781C43.0138 42.0628 43.0028 42.0519 42.9974 42.0374C42.9984 42.0368 42.9995 42.0363 43.0006 42.0357C43.2285 41.9297 43.4617 41.8343 43.6949 41.7495C43.6962 41.749 43.6976 41.7486 43.6989 41.7481C43.7027 41.7627 43.7 41.7774 43.7052 41.7919C43.7494 41.9174 43.7745 42.0478 43.7794 42.18C43.7906 42.4746 44.0392 42.701 44.3291 42.6899C44.6215 42.6787 44.8498 42.4326 44.8389 42.1402C44.8298 41.9006 44.7846 41.6643 44.7041 41.4378C44.7025 41.4333 44.6988 41.4305 44.6971 41.4261C44.7552 41.4102 44.808 41.3997 44.8662 41.3838C45.0782 41.3308 45.2902 41.2884 45.5128 41.246C45.5138 41.2458 45.515 41.2457 45.516 41.2455C45.5184 41.2767 45.5131 41.3072 45.5213 41.3385L45.6611 41.8723C45.7234 42.1107 45.9382 42.2683 46.1735 42.2683C46.2177 42.2683 46.263 42.2629 46.3078 42.251C46.5912 42.1769 46.7607 41.8874 46.6864 41.6042L46.5566 41.1083C46.5565 41.1083 46.5567 41.1083 46.5566 41.1083C47.4297 41.0236 48.3771 41.0235 49.4033 41.1079C49.6704 41.2826 49.8988 41.479 50.0799 41.7005C50.7214 42.4846 51.4111 44.0281 51.3749 44.9887C51.297 47.0709 50.0631 49.0478 48.2316 50.0252Z" fill="black"/>
<path d="M12.7059 27.0787C12.7906 26.6918 12.7004 26.273 12.4354 25.8385C12.1759 25.4145 11.8207 25.0541 11.4019 24.7944C11.1529 24.6407 10.9197 24.4605 10.6706 24.2697C10.326 23.9994 9.96566 23.7237 9.55225 23.5065C9.26603 23.358 8.95341 23.3422 8.65127 23.4535C7.5526 23.8518 6.76341 25.9776 6.0278 27.9055C5.83348 28.4131 5.67792 28.8726 5.67792 29.4213C5.67792 30.0361 5.88469 30.4283 6.2875 30.5979C6.40408 30.6455 6.52597 30.6721 6.65316 30.6721C6.74853 30.6721 6.84933 30.6562 6.95 30.635C7.54218 30.4918 8.13458 30.1786 8.65658 29.9301C9.72719 29.4372 10.7766 28.8595 11.7623 28.2076C12.0434 28.0274 12.5679 27.6776 12.7059 27.0787ZM7.86688 29.1298C7.50652 29.3047 7.13542 29.4849 6.74853 29.5855C6.73792 29.522 6.73274 29.416 6.74853 29.257C6.76975 28.9549 6.88103 28.6475 7.01896 28.2818C7.35504 27.4186 7.73497 26.4407 8.13654 25.6067C8.97554 26.1029 9.7378 26.7141 10.3998 27.4304C10.4945 27.5329 10.621 27.583 10.7502 27.5927C10.7502 27.5927 10.7502 27.5927 10.7502 27.5927C9.74222 28.2277 8.86734 28.6751 7.86688 29.1298ZM11.2854 27.2536H11.2804C11.3473 27.0725 11.3182 26.8625 11.1782 26.711C10.4554 25.9288 9.62342 25.2606 8.70911 24.7155C8.70924 24.7153 8.7095 24.7151 8.70963 24.7149C8.85792 24.5453 8.97463 24.4764 9.06469 24.4499C9.39335 24.6195 9.70066 24.858 10.024 25.1071C10.2837 25.3085 10.5487 25.5099 10.8402 25.6901C11.121 25.865 11.3596 26.1088 11.5291 26.3897C11.6459 26.5752 11.6935 26.7395 11.6722 26.8455C11.6404 26.9939 11.4391 27.1476 11.2854 27.2536Z" fill="black"/>
<path d="M16.7134 38.4345C14.2922 38.5504 11.782 39.7499 9.64514 41.8119C9.43449 42.0153 9.42854 42.3507 9.63169 42.5614C9.8351 42.7728 10.171 42.778 10.3811 42.5748C12.3329 40.6911 14.5999 39.5967 16.7642 39.4934C19.2529 39.3666 21.6237 40.6854 22.5235 42.6809C22.6437 42.9474 22.9568 43.0668 23.2246 42.9462C23.4914 42.8258 23.6102 42.5119 23.4898 42.2451C22.4153 39.8622 19.6261 38.2944 16.7134 38.4345Z" fill="black"/>
<path d="M46.7212 43.5247C46.0269 43.3074 45.2213 43.3816 44.58 43.7314C44.0235 44.0335 43.573 44.6218 43.414 45.2684C43.1175 46.4299 44.0683 47.4466 44.9033 47.6057C45.5287 47.7329 46.1594 47.6216 46.7 47.3354C47.4314 46.9432 47.9455 46.1217 47.9772 45.2896C47.9917 44.7845 47.6365 43.8297 46.7212 43.5247ZM46.2018 46.3973C45.8626 46.5828 45.4704 46.6411 45.11 46.5669C44.8478 46.5177 44.3015 46.065 44.4422 45.5228C44.5269 45.173 44.7867 44.8232 45.0888 44.6642C45.4916 44.4416 45.9844 44.4045 46.3979 44.537C46.7488 44.6498 46.8994 45.1088 46.9172 45.2525C46.9014 45.7136 46.6046 46.1853 46.2018 46.3973Z" fill="black"/>
<path d="M4.25975 23.3283C4.08998 23.09 3.75925 23.0338 3.52065 23.2036C3.28205 23.3734 3.22641 23.7044 3.39591 23.9427L3.78047 24.4836C3.9495 24.7211 4.27954 24.7788 4.51957 24.6088C4.75818 24.4393 4.81433 24.1083 4.64483 23.8697L4.25975 23.3283Z" fill="black"/>
</svg>
