<svg width="54" height="54" viewBox="0 0 54 54" fill="none" xmlns="http://www.w3.org/2000/svg">
<g clip-path="url(#clip0_200_4549)">
<path d="M20.0644 24.4814H16.4072V28.1387H20.0644V24.4814Z" fill="#6DE3EE"/>
<path d="M20.0644 26.5859H16.4072V28.1387H20.0644V26.5859Z" fill="#50D2DF"/>
<path d="M26.1118 27.9316H14.8742V31.9346H26.1118V27.9316Z" fill="#FA9942"/>
<path d="M26.1118 29.9355H14.8742V31.9344H26.1118V29.9355Z" fill="#F27E03"/>
<path d="M47.846 49.4053H6.15402V52.724H47.846V49.4053Z" fill="#C1DDDB"/>
<path d="M47.846 49.4053H6.15402V51.3037H47.846V49.4053Z" fill="#A4BEBD"/>
<path d="M40.816 26.751H29.8928V31.7256H40.816V26.751Z" fill="#A4BEBD"/>
<path d="M40.816 29.9365H29.8928V31.7258H40.816V29.9365Z" fill="#708C8A"/>
<path d="M49.1254 33.0996H4.87457V49.958H49.1254V33.0996Z" fill="#FA9942"/>
<path d="M49.1254 33.0996H4.87457V35.7124H49.1254V33.0996Z" fill="#F27E03"/>
<path d="M18.0891 49.9577H12.3406L4.87457 42.4916V36.7432L18.0891 49.9577Z" fill="#6DE3EE"/>
<path d="M32.9922 49.958H27.2438L10.3854 33.0996H16.1339L18.7467 35.7124L32.9922 49.958Z" fill="#6DE3EE"/>
<path d="M18.7467 35.7124H12.9983L10.3854 33.0996H16.1339L18.7467 35.7124Z" fill="#50D2DF"/>
<path d="M47.8952 49.958H42.1468L27.9014 35.7124L25.2886 33.0996H31.0369L33.6497 35.7124L47.8952 49.958Z" fill="#6DE3EE"/>
<path d="M31.0369 33.0996L33.6497 35.7124H27.9014L25.2886 33.0996H31.0369Z" fill="#50D2DF"/>
<path d="M49.1254 36.285V42.0334L40.1916 33.0996H45.94L48.5529 35.7124L49.1254 36.285Z" fill="#6DE3EE"/>
<path d="M48.5529 35.7124H42.8045L40.1916 33.0996H45.94L48.5529 35.7124Z" fill="#50D2DF"/>
<path d="M9.56394 12.9404H7.42096V32.5495H9.56394V12.9404Z" fill="#C1DDDB"/>
<path d="M9.56394 12.9404H7.42096V15.3064H9.56394V12.9404Z" fill="#A4BEBD"/>
<path d="M9.56394 29.9355H7.42096V32.5494H9.56394V29.9355Z" fill="#A4BEBD"/>
<path d="M9.56394 18.3916H7.42096V27.148H9.56394V18.3916Z" fill="#A4BEBD"/>
<path d="M46.579 12.9404H44.4361V32.5495H46.579V12.9404Z" fill="#C1DDDB"/>
<path d="M46.579 12.9404H44.4361V15.3064H46.579V12.9404Z" fill="#A4BEBD"/>
<path d="M46.579 29.9355H44.4361V32.5494H46.579V29.9355Z" fill="#A4BEBD"/>
<path d="M49.1254 1.27637H4.87457V7.82094H49.1254V1.27637Z" fill="#C1DDDB"/>
<path d="M49.1254 4.83887H4.87457V7.82095H49.1254V4.83887Z" fill="#A4BEBD"/>
<path d="M50.8012 6.1875H3.19885V13.9589H50.8012V6.1875Z" fill="#6DE3EE"/>
<path d="M19.0663 6.1875H11.1325V13.9589H19.0663V6.1875Z" fill="#FA9942"/>
<path d="M34.9337 6.1875H27V13.9589H34.9337V6.1875Z" fill="#FA9942"/>
<path d="M50.8012 6.1875H42.8675V13.9589H50.8012V6.1875Z" fill="#FA9942"/>
<path d="M50.6674 31.2852H3.33258V34.3643H50.6674V31.2852Z" fill="#C1DDDB"/>
<path d="M11.4942 19.7393H5.43365V25.7998H11.4942V19.7393Z" fill="#A4F5F9"/>
<path d="M50.8011 14.7353C51.2299 14.7353 51.5775 14.3877 51.5775 13.9589V6.18736C51.5775 5.75859 51.2299 5.41099 50.8011 5.41099H49.9018V1.27637C49.9018 0.847605 49.5542 0.5 49.1254 0.5H4.87456C4.4458 0.5 4.0982 0.847605 4.0982 1.27637V5.41099H3.19885C2.77009 5.41099 2.42249 5.75859 2.42249 6.18736V13.9588C2.42249 14.3876 2.77009 14.7352 3.19885 14.7352H6.64499V18.9632H5.43365C5.00489 18.9632 4.65728 19.3108 4.65728 19.7395V25.8C4.65728 26.2288 5.00489 26.5764 5.43365 26.5764H6.64499V30.5086H3.33259C2.90383 30.5086 2.55623 30.8562 2.55623 31.2849V34.3641C2.55623 34.7929 2.90383 35.1405 3.33259 35.1405H4.09799V49.9577C4.09799 50.3865 4.44559 50.7341 4.87436 50.7341H5.37755V52.7236C5.37755 53.1524 5.72515 53.5 6.15391 53.5H47.8463C48.275 53.5 48.6226 53.1524 48.6226 52.7236V50.7341H49.1258C49.5546 50.7341 49.9022 50.3865 49.9022 49.9577V46.339C49.9022 45.9102 49.5546 45.5626 49.1258 45.5626C48.6971 45.5626 48.3495 45.9102 48.3495 46.339V49.1813H48.2167L34.1758 35.1405H41.1347L48.3496 42.3553V43.2013C48.3496 43.6301 48.6972 43.9777 49.1259 43.9777C49.5547 43.9777 49.9023 43.6301 49.9023 43.2013V35.1405H50.6677C51.0965 35.1405 51.4441 34.7929 51.4441 34.3641V31.2849C51.4441 30.8562 51.0965 30.5086 50.6677 30.5086H47.3553V14.7353H50.8011ZM50.0248 13.1825H43.6438V6.96372H50.0248V13.1825ZM41.5927 30.5086V26.7513C41.5927 26.3225 41.2451 25.9749 40.8163 25.9749H38.5535V23.6209H39.8313C40.26 23.6209 40.6076 23.2733 40.6076 22.8446C40.6076 22.4158 40.26 22.0682 39.8313 22.0682H35.6683C35.2395 22.0682 34.8919 22.4158 34.8919 22.8446C34.8919 23.2733 35.2395 23.6209 35.6683 23.6209H37.0007V25.9749H34.7452C34.3165 25.9749 33.9689 26.3225 33.9689 26.7513C33.9689 27.18 34.3165 27.5276 34.7452 27.5276H40.0399V30.5086H30.6696V27.5276H31.6076C32.0363 27.5276 32.3839 27.18 32.3839 26.7513C32.3839 26.3225 32.0363 25.9749 31.6076 25.9749H29.8933C29.4645 25.9749 29.1169 26.3225 29.1169 26.7513V30.5086H26.8884V27.9316C26.8884 27.5029 26.5408 27.1553 26.112 27.1553H20.8408V24.4812C20.8408 24.0524 20.4932 23.7048 20.0644 23.7048H16.4069C15.9782 23.7048 15.6306 24.0524 15.6306 24.4812V27.1553H14.8743C14.4455 27.1553 14.0979 27.5029 14.0979 27.9316V30.5086H10.34V26.5764H11.4942C11.9229 26.5764 12.2705 26.2288 12.2705 25.8V19.7395C12.2705 19.3108 11.9229 18.9632 11.4942 18.9632H10.34V14.7352H29.1922C29.621 14.7352 29.9686 14.3876 29.9686 13.9588C29.9686 13.53 29.621 13.1824 29.1922 13.1824H27.7764V6.96372H34.1574V13.1824H32.33C31.9013 13.1824 31.5536 13.53 31.5536 13.9588C31.5536 14.3876 31.9013 14.7352 32.33 14.7352H43.6601V30.5085L41.5927 30.5086ZM19.2881 27.1553H17.1833V25.2575H19.2881V27.1553ZM15.6506 28.708H25.3358V30.5086H15.6506V28.708ZM18.2899 6.96372V13.1824H11.9089V6.96372H18.2899ZM19.8426 13.1825V6.96372H26.2236V13.1824L19.8426 13.1825ZM35.7101 13.1825V6.96372H42.0911V13.1824L35.7101 13.1825ZM5.65093 2.05273H48.3491V5.41099H5.65093V2.05273ZM3.97522 6.96372H10.3562V13.1824H3.97522V6.96372ZM8.19773 14.7353H8.78725V18.9633H8.19773V14.7353ZM6.21002 20.5159H10.7178V25.0237H6.21002V20.5159ZM8.19773 26.5764H8.78725V30.5086H8.19773V26.5764ZM11.3282 35.1405L25.3691 49.1813H18.4103L5.65062 36.4217V35.1405H11.3282ZM26.2328 35.1405C26.2375 35.1453 26.2415 35.1506 26.2463 35.1554L40.2723 49.1813H33.3134L19.2726 35.1405H26.2328ZM17.0767 35.1405L31.1176 49.1813H27.5651L13.5242 35.1405H17.0767ZM12.6619 49.1813L5.65072 42.1701V38.6176L16.2145 49.1813H12.6619ZM5.65062 49.1813V44.366L10.466 49.1813H5.65062ZM6.93018 51.9473V50.7341H47.0698V51.9473H6.93018ZM46.0207 49.1813H42.4681L28.4273 35.1405H31.9797L46.0207 49.1813ZM43.3304 35.1405H46.883L48.3494 36.6069V40.1594L43.3304 35.1405ZM49.891 33.5877H4.10896V32.0613H49.891V33.5877ZM45.8023 30.5086H45.2127V14.7353H45.8023V30.5086Z" fill="black"/>
</g>
<defs>
<clipPath id="clip0_200_4549">
<rect width="53" height="53" fill="white" transform="translate(0.5 0.5)"/>
</clipPath>
</defs>
</svg>
