<svg width="54" height="54" viewBox="0 0 54 54" fill="none" xmlns="http://www.w3.org/2000/svg">
<g clip-path="url(#clip0_264_4994)">
<path d="M20.375 35.8337V46.8753H17.0625C17.0625 45.704 16.5972 44.5806 15.7689 43.7523C14.9406 42.924 13.8172 42.4587 12.6458 42.4587H2.70834V33.6253L6.02084 31.417H15.9583V24.792H20.375V35.8337Z" fill="#CCD3EB"/>
<path d="M20.375 17.0625V24.7917H8.22916C8.22916 24.7917 10.4375 17.0625 20.375 17.0625Z" fill="#ADB5D5"/>
<path d="M15.9583 24.792V31.417H6.02084L8.22918 24.792H15.9583Z" fill="#3EE1F0"/>
<path d="M52.3958 42.459V46.8757H47.9792C47.9792 45.7043 47.5138 44.5809 46.6856 43.7526C45.8573 42.9243 44.7339 42.459 43.5625 42.459H52.3958Z" fill="#E0523A"/>
<path d="M2.70832 42.459H12.6458C11.4745 42.459 10.3511 42.9243 9.52277 43.7526C8.69448 44.5809 8.22916 45.7043 8.22916 46.8757H1.60416V42.459H2.70832Z" fill="#E0523A"/>
<path d="M20.375 42.459H43.5625C42.3911 42.459 41.2677 42.9243 40.4394 43.7526C39.6112 44.5809 39.1458 45.7043 39.1458 46.8757H20.375V42.459Z" fill="#E0523A"/>
<path d="M12.6458 51.2923C15.0851 51.2923 17.0625 49.3149 17.0625 46.8757C17.0625 44.4364 15.0851 42.459 12.6458 42.459C10.2066 42.459 8.22916 44.4364 8.22916 46.8757C8.22916 49.3149 10.2066 51.2923 12.6458 51.2923Z" fill="#7989AF"/>
<path d="M43.5625 51.2923C46.0018 51.2923 47.9792 49.3149 47.9792 46.8757C47.9792 44.4364 46.0018 42.459 43.5625 42.459C41.1233 42.459 39.1458 44.4364 39.1458 46.8757C39.1458 49.3149 41.1233 51.2923 43.5625 51.2923Z" fill="#7989AF"/>
<path d="M51.2917 15.959V35.834H20.375V15.959H51.2917ZM46.875 31.4173V20.3757H24.7917V31.4173H46.875Z" fill="#FF6A46"/>
<path d="M43.5625 28.1045V31.417H36.9375V28.1045H40.25H43.5625Z" fill="#CCD3EB"/>
<path d="M46.875 20.375V31.4167H43.5625V28.1042H40.25H36.9375V31.4167H24.7917V20.375H46.875Z" fill="#BCA47E"/>
<path d="M51.2917 35.834V42.459H43.5625H20.375V35.834H23.6875H25.8958H28.1042H47.9792H51.2917Z" fill="#F9D124"/>
<path d="M42.4583 11.542H43.0104C43.0104 12.7134 42.5451 13.8368 41.7168 14.665C40.8885 15.4933 39.7651 15.9587 38.5938 15.9587H33.0729C32.4927 15.9594 31.9181 15.8456 31.3819 15.6239C30.8457 15.4022 30.3585 15.0769 29.9482 14.6667C29.538 14.2564 29.2127 13.7692 28.991 13.233C28.7693 12.6969 28.6555 12.1222 28.6563 11.542H42.4583Z" fill="#EEA97C"/>
<path d="M41.7185 4.00086C42.5441 4.83156 43.0083 5.95452 43.0104 7.12565H28.6562C28.6562 5.95428 29.1216 4.83088 29.9499 4.0026C30.7781 3.17431 31.9015 2.70898 33.0729 2.70898H38.5938C39.7649 2.71108 40.8878 3.17534 41.7185 4.00086Z" fill="#EEA97C"/>
<path d="M42.4583 7.125C43.0435 7.12675 43.6042 7.35997 44.0179 7.77374C44.4317 8.1875 44.6649 8.74818 44.6667 9.33333C44.6623 9.91768 44.4283 10.4769 44.0151 10.8901C43.6019 11.3033 43.0427 11.5373 42.4583 11.5417H29.2083C28.6232 11.5399 28.0625 11.3067 27.6487 10.8929C27.235 10.4792 27.0017 9.91848 27 9.33333C27.0043 8.74899 27.2384 8.1898 27.6516 7.7766C28.0648 7.36339 28.624 7.12933 29.2083 7.125H42.4583Z" fill="#E0523A"/>
<path d="M20.375 35.8337V46.8753H17.0625C17.0625 45.704 16.5972 44.5806 15.7689 43.7523C14.9406 42.924 13.8172 42.4587 12.6458 42.4587H2.70834V33.6253L6.02084 31.417H15.9583V24.792H20.375V35.8337Z" fill="#CCD3EB"/>
<path d="M20.375 17.0625V24.7917H8.22916C8.22916 24.7917 10.4375 17.0625 20.375 17.0625Z" fill="#ADB5D5"/>
<path d="M15.9583 24.792V31.417H6.02084L8.22918 24.792H15.9583Z" fill="#3EE1F0"/>
<path d="M52.3958 42.459V46.8757H47.9792C47.9792 45.7043 47.5138 44.5809 46.6856 43.7526C45.8573 42.9243 44.7339 42.459 43.5625 42.459H52.3958Z" fill="#E0523A"/>
<path d="M2.70832 42.459H12.6458C11.4745 42.459 10.3511 42.9243 9.52277 43.7526C8.69448 44.5809 8.22916 45.7043 8.22916 46.8757H1.60416V42.459H2.70832Z" fill="#E0523A"/>
<path d="M20.375 42.459H43.5625C42.3911 42.459 41.2677 42.9243 40.4394 43.7526C39.6112 44.5809 39.1458 45.7043 39.1458 46.8757H20.375V42.459Z" fill="#E0523A"/>
<path d="M12.6458 51.2923C15.0851 51.2923 17.0625 49.3149 17.0625 46.8757C17.0625 44.4364 15.0851 42.459 12.6458 42.459C10.2066 42.459 8.22916 44.4364 8.22916 46.8757C8.22916 49.3149 10.2066 51.2923 12.6458 51.2923Z" fill="#7989AF"/>
<path d="M43.5625 51.2923C46.0018 51.2923 47.9792 49.3149 47.9792 46.8757C47.9792 44.4364 46.0018 42.459 43.5625 42.459C41.1233 42.459 39.1458 44.4364 39.1458 46.8757C39.1458 49.3149 41.1233 51.2923 43.5625 51.2923Z" fill="#7989AF"/>
<path d="M51.2917 15.959V35.834H20.375V15.959H51.2917ZM46.875 31.4173V20.3757H24.7917V31.4173H46.875Z" fill="#FF6A46"/>
<path d="M46.875 20.375V31.4167H43.5625V28.1042H40.25H36.9375V31.4167H24.7917V20.375H46.875Z" fill="#BCA47E"/>
<path d="M42.4583 7.125C43.0435 7.12675 43.6042 7.35997 44.0179 7.77374C44.4317 8.1875 44.6649 8.74818 44.6667 9.33333C44.6623 9.91768 44.4283 10.4769 44.0151 10.8901C43.6019 11.3033 43.0427 11.5373 42.4583 11.5417H29.2083C28.6232 11.5399 28.0625 11.3067 27.6487 10.8929C27.235 10.4792 27.0017 9.91848 27 9.33333C27.0043 8.74899 27.2384 8.1898 27.6516 7.7766C28.0648 7.36339 28.624 7.12933 29.2083 7.125H42.4583Z" fill="#E0523A"/>
<path d="M42.4583 11.542H43.0104C43.0104 12.7134 42.5451 13.8368 41.7168 14.665C40.8885 15.4933 39.7651 15.9587 38.5938 15.9587H33.0729C32.4927 15.9594 31.9181 15.8456 31.3819 15.6239C30.8457 15.4022 30.3585 15.0769 29.9482 14.6667C29.538 14.2564 29.2127 13.7692 28.991 13.233C28.7693 12.6969 28.6555 12.1222 28.6563 11.542H42.4583Z" fill="#EEA97C"/>
<path d="M42.4583 7.12565H28.6562C28.6562 5.95428 29.1216 4.83089 29.9499 4.0026C30.7781 3.17431 31.9015 2.70899 33.0729 2.70899H38.5938C39.174 2.70826 39.7486 2.82201 40.2848 3.04371C40.821 3.26541 41.3082 3.59071 41.7184 4.00098C42.1287 4.41125 42.454 4.89843 42.6757 5.43461C42.8974 5.97079 43.0111 6.54545 43.0104 7.12565H42.4583Z" fill="#EEA97C"/>
<path d="M33.0729 3.81315H38.5938C39.5725 3.80689 40.5248 4.13025 41.2974 4.73115C42.0699 5.33205 42.6177 6.1755 42.8525 7.12565H43.0104C43.0111 6.54545 42.8974 5.97079 42.6757 5.43461C42.454 4.89843 42.1287 4.41125 41.7184 4.00098C41.3082 3.59071 40.821 3.26541 40.2848 3.04371C39.7486 2.82201 39.174 2.70826 38.5938 2.70899H33.0729C31.9015 2.70899 30.7781 3.17431 29.9499 4.0026C29.1216 4.83089 28.6562 5.95428 28.6562 7.12565H28.8119C29.0542 6.17912 29.6043 5.33999 30.3756 4.74032C31.147 4.14066 32.0959 3.81449 33.0729 3.81315Z" fill="#F4BC92"/>
<path d="M42.4583 7.12503H29.2083C28.9184 7.12349 28.6311 7.18038 28.3636 7.29231C28.0961 7.40423 27.8539 7.5689 27.6515 7.77649C27.5171 7.91122 27.4016 8.0635 27.3081 8.2292H44.3586C44.1658 7.89527 43.889 7.61765 43.5556 7.42393C43.2222 7.23021 42.8439 7.12716 42.4583 7.12503Z" fill="#FF6A46"/>
<path d="M29.2083 11.5417H42.4583C42.7483 11.5432 43.0356 11.4863 43.3031 11.3744C43.5706 11.2625 43.8128 11.0978 44.0152 10.8902C44.1496 10.7555 44.2651 10.6032 44.3586 10.4375H27.3081C27.5008 10.7714 27.7777 11.0491 28.1111 11.2428C28.4445 11.4365 28.8228 11.5395 29.2083 11.5417Z" fill="#E0523A"/>
<path d="M27 9.33398C27.0024 9.72293 27.1087 10.1042 27.3081 10.4382H44.3586C44.5587 10.1045 44.6652 9.72305 44.6667 9.33398H27Z" fill="#F9D124"/>
<path d="M42.3877 12.6462C42.5925 12.3009 42.7496 11.9294 42.8547 11.542H28.8141C28.9129 11.9276 29.0614 12.2988 29.2558 12.6462H42.3877Z" fill="#D2885F"/>
<path d="M29.279 6.02148C29.0742 6.36676 28.917 6.73819 28.8119 7.12565H42.8525C42.7538 6.74001 42.6053 6.36884 42.4109 6.02148H29.279Z" fill="#D2885F"/>
<path d="M42.8547 12.6462C42.8901 12.5081 42.9188 12.3701 42.9409 12.2277C42.9848 12.0017 43.0081 11.7722 43.0104 11.542H42.8547C42.7999 11.7414 42.7317 11.937 42.6505 12.1272C42.5731 12.3052 42.4853 12.4785 42.3877 12.6462C42.0059 13.3159 41.454 13.8728 40.7878 14.2606C40.1215 14.6484 39.3646 14.8533 38.5938 14.8545H33.0729C31.9018 14.8524 30.7788 14.3881 29.9481 13.5626C29.6796 13.2887 29.4483 12.9805 29.2602 12.6462C29.1665 12.4786 29.0828 12.3057 29.0096 12.1283L29.0019 12.1117C28.9272 11.926 28.8646 11.7357 28.8141 11.542H28.6562C28.6592 11.7714 28.6824 12.0002 28.7258 12.2255C28.8797 13.2668 29.4041 14.2176 30.2026 14.9034C31.0012 15.5892 32.0203 15.9639 33.0729 15.9587H38.5938C39.5708 15.9573 40.5197 15.6312 41.291 15.0315C42.0624 14.4318 42.6125 13.5927 42.8547 12.6462Z" fill="#D2885F"/>
<path d="M42.8525 7.12565H43.0104C43.0054 6.75235 42.9523 6.38124 42.8525 6.02148H42.4109C42.6053 6.36884 42.7538 6.74001 42.8525 7.12565Z" fill="#F4BC92"/>
<path d="M28.8119 7.12565C28.9171 6.73819 29.0742 6.36676 29.279 6.02148H28.8119C28.7133 6.38143 28.661 6.75248 28.6562 7.12565H28.8119Z" fill="#F4BC92"/>
<path d="M44.3575 8.22974C44.1717 7.90991 43.9086 7.64186 43.5923 7.4502C43.9073 7.6435 44.1701 7.91118 44.3575 8.22974Z" fill="#E0523A"/>
<path d="M44.6667 9.33398C44.6656 9.52063 44.6396 9.7063 44.5894 9.88607C44.6384 9.70604 44.6643 9.52054 44.6667 9.33398Z" fill="#E0523A"/>
<path d="M38.4922 9.33366H44.6667C44.6643 8.94472 44.5579 8.56349 44.3586 8.22949H36.1226C36.8817 8.6602 37.6741 9.02944 38.4922 9.33366Z" fill="#FF6A46"/>
<path d="M44.3641 10.4251C44.4495 10.2781 44.5166 10.1212 44.564 9.95801C44.5154 10.1208 44.4483 10.2775 44.3641 10.4251Z" fill="#E0523A"/>
<path d="M41.7185 5.10438C40.8879 4.27886 39.7649 3.81459 38.5938 3.8125H33.0729C32.5353 3.81413 32.0026 3.91521 31.5017 4.11062C31.9948 4.79753 32.5507 5.43702 33.1624 6.02083H42.4064C42.2184 5.68645 41.9871 5.37831 41.7185 5.10438Z" fill="#F4BC92"/>
<path d="M42.8525 6.02148C42.889 6.15951 42.9155 6.30084 42.9409 6.44217C42.9189 6.30048 42.8894 6.16006 42.8525 6.02148Z" fill="#F4BC92"/>
<path d="M33.0729 3.81321H38.5938C39.7649 3.81531 40.8879 4.27957 41.7186 5.10509C41.9871 5.37903 42.2184 5.68717 42.4064 6.02155H42.8481C42.6135 5.07214 42.0663 4.22923 41.2947 3.62841C40.523 3.02759 39.5717 2.70378 38.5938 2.70905H33.0729C32.3264 2.71381 31.5935 2.90957 30.9441 3.27769C31.1174 3.56367 31.3063 3.83861 31.5017 4.11134C32.0026 3.91592 32.5353 3.81485 33.0729 3.81321Z" fill="#F1D0B3"/>
<path d="M36.1226 8.22917H44.3575C44.1701 7.91061 43.9073 7.64293 43.5923 7.44963C43.568 7.43527 43.5426 7.42312 43.5183 7.40987C43.3919 7.33881 43.2587 7.28037 43.1208 7.23542C43.0778 7.22217 43.0369 7.20671 42.9927 7.19567C42.8182 7.15002 42.6387 7.12628 42.4583 7.125H34.4597C34.9896 7.52863 35.545 7.89746 36.1226 8.22917Z" fill="#FF9877"/>
<path d="M44.5894 9.88574C44.5828 9.91114 44.5739 9.93543 44.5662 9.95972C44.5739 9.93322 44.5828 9.90893 44.5894 9.88574Z" fill="#F9D124"/>
<path d="M44.3641 10.4249C44.4491 10.2774 44.5169 10.1207 44.5662 9.95784C44.5739 9.93355 44.5828 9.90926 44.5894 9.88386C44.6394 9.7048 44.6654 9.51989 44.6667 9.33398H38.4922C40.3731 10.0293 42.359 10.3982 44.3641 10.4249Z" fill="#FDF781"/>
<path d="M42.6604 6.54817C42.5874 6.36723 42.5025 6.19129 42.4064 6.02148H33.1624C33.5731 6.4143 34.0063 6.78298 34.4598 7.12565H42.8514C42.801 6.93194 42.7383 6.74164 42.6637 6.5559L42.6604 6.54817Z" fill="#EEA97C"/>
<path d="M42.9409 6.44238C42.982 6.66802 43.0053 6.89656 43.0104 7.12586C43.0075 6.89643 42.9842 6.6677 42.9409 6.44238Z" fill="#F4BC92"/>
<path d="M42.4064 6.02148C42.5025 6.19129 42.5874 6.36723 42.6604 6.54817V6.5559C42.735 6.74164 42.7977 6.93194 42.8481 7.12565H43.0104C43.0052 6.89635 42.982 6.66781 42.9409 6.44217C42.9155 6.30084 42.889 6.15951 42.8525 6.02148H42.4109H42.4064Z" fill="#F4BC92"/>
<path d="M45.7708 20.375H25.8958H24.7917V31.4167H25.8958V21.4792H45.7708V31.4167H46.875V20.375H45.7708Z" fill="#9A6948"/>
<path d="M23.6875 19.2715H47.9792V20.3757H23.6875V19.2715Z" fill="#FBB40A"/>
<path d="M23.6875 31.417H47.9792V32.5212H23.6875V31.417Z" fill="#FBB40A"/>
<path d="M23.6875 20.375H24.7917V31.4167H23.6875V20.375Z" fill="#E0523A"/>
<path d="M46.875 20.375H47.9792V31.4167H46.875V20.375Z" fill="#E0523A"/>
<path d="M20.375 34.7295H51.2917V35.8337H20.375V34.7295Z" fill="#E0523A"/>
<path d="M51.2917 35.834V42.459H43.5625H20.375V35.834H23.6875H25.8958H28.1042H47.9792H51.2917Z" fill="#F9D124"/>
<path d="M20.375 35.834H51.2917V36.9382H20.375V35.834Z" fill="#EF8900"/>
<path d="M20.375 41.3545H51.2917V42.4587H20.375V41.3545Z" fill="#EF8900"/>
<path d="M20.375 39.1465H51.2917V40.2507H20.375V39.1465Z" fill="#EF8900"/>
<path d="M47.3675 44.667C47.7639 45.3357 47.975 46.098 47.9792 46.8753H52.3958V44.667H47.3675Z" fill="#B54333"/>
<path d="M20.375 46.8753H39.1458C39.15 46.098 39.3611 45.3357 39.7575 44.667H20.375V46.8753Z" fill="#B54333"/>
<path d="M1.60416 46.8753H8.22916C8.23333 46.098 8.44447 45.3357 8.84086 44.667H1.60416V46.8753Z" fill="#B54333"/>
<path d="M43.5625 28.1045V31.417H36.9375V28.1045H40.25H43.5625Z" fill="#CCD3EB"/>
<path d="M36.9375 30.3125H43.5625V31.4167H36.9375V30.3125Z" fill="#7989AF"/>
<path d="M35.8333 23.6875H44.6667V25.8958H35.8333V23.6875Z" fill="#CCD3EB"/>
<path d="M39.1458 25.8965H41.3542V28.1048H39.1458V25.8965Z" fill="#CCD3EB"/>
<path d="M35.8333 24.792H44.6667V25.8962H35.8333V24.792Z" fill="#ADB5D5"/>
<path d="M39.1458 25.8965H41.3542V27.0007H39.1458V25.8965Z" fill="#96A1C3"/>
<path d="M36.9375 28.1045H43.5625V29.2087H36.9375V28.1045Z" fill="#DEE3F3"/>
<path d="M18.1667 17.216C18.4372 17.1807 18.7187 17.1542 18.9992 17.1299C18.7143 17.152 18.4368 17.1807 18.1667 17.216Z" fill="#ADB5D5"/>
<path d="M18.9992 17.1299C19.4409 17.0956 19.8936 17.0625 20.375 17.0625C19.8925 17.0625 19.4409 17.0912 18.9992 17.1299Z" fill="#7989AF"/>
<path d="M18.9992 17.1299C18.7176 17.1541 18.4372 17.1806 18.1667 17.216V18.1667C18.1667 20.6058 16.1891 23.6875 13.75 23.6875H8.68076C8.50302 24.0438 8.35207 24.4129 8.22916 24.7917H20.375V17.0625C19.8936 17.0625 19.4453 17.0956 18.9992 17.1299Z" fill="#7989AF"/>
<path d="M18.1667 24.792H20.375V27.0003H18.1667V24.792Z" fill="#ADB5D5"/>
<path d="M15.9583 33.6253V31.417H6.02084L2.70834 33.6253V35.8337L6.02084 33.6253H15.9583Z" fill="#DEE3F3"/>
<path d="M17.0625 44.6667C17.0625 43.4953 16.5972 42.3719 15.7689 41.5436C14.9406 40.7153 13.8172 40.25 12.6458 40.25H2.70834V42.4583H12.6458C13.8172 42.4583 14.9406 42.9237 15.7689 43.7519C16.5972 44.5802 17.0625 45.7036 17.0625 46.875H18.1667V44.6667H17.0625Z" fill="#ADB5D5"/>
<path d="M18.1667 46.875H20.375V44.6667V42.4583V38.0417V35.8333V27H18.1667V46.875Z" fill="#ADB5D5"/>
<path d="M15.9583 24.792H18.1667V25.8962H15.9583V24.792Z" fill="#ADB5D5"/>
<path d="M18.1667 24.792H20.375V25.8962H18.1667V24.792Z" fill="#96A1C3"/>
<path d="M18.1667 44.667H20.375V46.8753H18.1667V44.667Z" fill="#96A1C3"/>
<path d="M15.9583 31.3507V24.792H8.32965C8.71638 26.5654 9.67002 28.1647 11.0464 29.348C12.4227 30.5314 14.147 31.2344 15.9583 31.3507Z" fill="#3AD6FF"/>
<path d="M15.9583 31.3507C14.147 31.2344 12.4227 30.5314 11.0464 29.348C9.67001 28.1647 8.71637 26.5654 8.32964 24.792H8.22916L7.30829 27.5524C7.62798 29.0213 8.37027 30.3646 9.44375 31.417H15.9583V31.3507Z" fill="#3EE1F0"/>
<path d="M7.3083 27.5527L6.02084 31.4173H9.44376C8.37028 30.365 7.62799 29.0216 7.3083 27.5527Z" fill="#93F9F7"/>
<path d="M43.5625 50.1875C45.3919 50.1875 46.875 48.7044 46.875 46.875C46.875 45.0456 45.3919 43.5625 43.5625 43.5625C41.7331 43.5625 40.25 45.0456 40.25 46.875C40.25 48.7044 41.7331 50.1875 43.5625 50.1875Z" fill="#415372"/>
<path d="M12.6458 50.1875C14.4753 50.1875 15.9583 48.7044 15.9583 46.875C15.9583 45.0456 14.4753 43.5625 12.6458 43.5625C10.8164 43.5625 9.33334 45.0456 9.33334 46.875C9.33334 48.7044 10.8164 50.1875 12.6458 50.1875Z" fill="#415372"/>
<path d="M43.5625 49.0837C44.7821 49.0837 45.7708 48.095 45.7708 46.8753C45.7708 45.6557 44.7821 44.667 43.5625 44.667C42.3429 44.667 41.3542 45.6557 41.3542 46.8753C41.3542 48.095 42.3429 49.0837 43.5625 49.0837Z" fill="#586889"/>
<path d="M12.6458 49.0837C13.8655 49.0837 14.8542 48.095 14.8542 46.8753C14.8542 45.6557 13.8655 44.667 12.6458 44.667C11.4262 44.667 10.4375 45.6557 10.4375 46.8753C10.4375 48.095 11.4262 49.0837 12.6458 49.0837Z" fill="#586889"/>
<path d="M35.8333 24.792H34.7292V27.0003H38.0417V28.1045H39.1458V25.8962H35.8333V24.792Z" fill="#9A6948"/>
<path d="M35.8333 29.209H36.9375V31.4173H35.8333V29.209Z" fill="#9A6948"/>
<path d="M12.5277 33.625H6.02084L2.70834 35.8333V39.868C6.58868 38.9464 10.0468 36.7478 12.5277 33.625Z" fill="#DEE3F3"/>
<path d="M15.9583 27.9778C16.2528 27.3028 16.5171 26.609 16.7511 25.8965H15.9583V27.9778Z" fill="#DEE3F3"/>
<path d="M18.0861 19.0363C18.1269 18.4357 18.1567 17.8306 18.1601 17.2178C16.1593 17.3981 14.2379 18.0873 12.5787 19.2199C10.9195 20.3524 9.57765 21.8906 8.68079 23.6882H13.75C15.9065 23.6882 17.6985 21.28 18.0861 19.0363Z" fill="#CCD3EB"/>
<path d="M18.1667 18.1675V17.2168H18.16C18.16 17.8296 18.1269 18.4314 18.0861 19.0354C18.1374 18.7489 18.1644 18.4585 18.1667 18.1675Z" fill="#ADB5D5"/>
<path d="M52.3958 43.1734V42.459H48.7013C49.9104 42.7538 51.1415 42.9945 52.3958 43.1734Z" fill="#FF6A46"/>
<path d="M23.6875 20.3757V19.2715H47.9792V32.5215H31.1086C31.8616 33.2944 32.6544 34.0287 33.4759 34.7298H51.2917V15.959H22.166C22.53 17.714 23.0389 19.4357 23.6875 21.1066V20.3757Z" fill="#FF9877"/>
<path d="M25.8958 21.4795V25.6919C27.0869 27.7398 28.4875 29.6585 30.0751 31.417H35.8333V29.2087H36.9375V28.1045H38.0417V27.0003H34.7292V24.792H35.8333V23.6878H44.6667V25.8962H41.3542V28.1045H43.5625V31.417H45.7708V21.4795H25.8958Z" fill="#E4CC9E"/>
<path d="M45.7708 20.375H24.7917V23.6025C25.1373 24.3103 25.5005 25.0103 25.8958 25.6916V21.4792H45.7708V31.4167H46.875V20.375H45.7708Z" fill="#AF7A58"/>
<path d="M25.8958 20.3757H45.7708H46.875H47.9792V19.2715H23.6875V20.3757H24.7917H25.8958Z" fill="#F9D124"/>
<path d="M47.9792 31.417H30.0751C30.4064 31.7913 30.7553 32.1612 31.1086 32.5212H47.9792V31.417Z" fill="#F9D124"/>
<path d="M24.7917 20.375H23.6875V21.106C24.0188 21.9562 24.3931 22.7854 24.7917 23.6025V20.375Z" fill="#FF6A46"/>
<path d="M46.875 20.375H47.9792V31.4167H46.875V20.375Z" fill="#FF6A46"/>
<path d="M34.8396 35.8337H51.2917V34.7295H33.4759C33.922 35.1086 34.3766 35.4766 34.8396 35.8337Z" fill="#FF6A46"/>
<path d="M45.0222 41.3542H51.2917V40.25H42.2541C43.1562 40.6541 44.0804 41.0229 45.0222 41.3542Z" fill="#FDF781"/>
<path d="M40.0071 39.1458H51.2917V36.9375H36.3644C37.5348 37.7437 38.751 38.4811 40.0071 39.1458Z" fill="#FDF781"/>
<path d="M34.8396 35.834C35.3343 36.2149 35.8433 36.5815 36.36 36.9382H51.2917V35.834H34.8396Z" fill="#FBB40A"/>
<path d="M48.7013 42.4587H51.2917V41.3545H45.0222C46.2292 41.7843 47.4571 42.1528 48.7013 42.4587Z" fill="#FBB40A"/>
<path d="M42.2541 40.2507H51.2917V39.1465H40.0071C40.7414 39.5363 41.4889 39.9084 42.2541 40.2507Z" fill="#FBB40A"/>
<path d="M36.9375 29.209H43.5625V30.3132H36.9375V29.209Z" fill="#DEE3F3"/>
<path d="M36.9375 30.3125H43.5625V31.4167H36.9375V30.3125Z" fill="#ADB5D5"/>
<path d="M35.8333 23.6875H44.6667V24.7917H35.8333V23.6875Z" fill="#DEE3F3"/>
<path d="M39.1458 28.1042H40.25H41.3542V27H39.1458V28.1042Z" fill="#DEE3F3"/>
<path d="M39.1458 25.8962H41.3542H44.6667V24.792H35.8333V25.8962H39.1458Z" fill="#CCD3EB"/>
<path d="M39.1458 25.8965H41.3542V27.0007H39.1458V25.8965Z" fill="#96A1C3"/>
<path d="M43.5625 28.1045H41.3542H40.25H39.1458H38.0417H36.9375V29.2087H43.5625V28.1045Z" fill="#DEE3F3"/>
<path d="M8.22916 24.7925C8.22916 24.7925 8.23799 24.7605 8.25455 24.7119C8.23689 24.7638 8.22916 24.7925 8.22916 24.7925Z" fill="#7989AF"/>
<path d="M15.9583 24.7922H17.0779C17.6152 22.9142 17.9531 20.9849 18.0861 19.0361C17.6985 21.2798 15.9064 23.688 13.75 23.688H8.68076L8.65757 23.7388C8.50384 24.0547 8.36926 24.3795 8.25455 24.7115C8.23799 24.7601 8.22916 24.7922 8.22916 24.7922H15.9583Z" fill="#ADB5D5"/>
<path d="M12.5277 33.6253C13.1043 32.9223 13.6374 32.1848 14.1243 31.417H6.02084L2.70834 33.6253V35.8337L6.02084 33.6253H12.5277Z" fill="#F6FAFD"/>
<path d="M15.9583 24.792V25.8962H16.7511C16.8715 25.5351 16.972 25.1619 17.0824 24.792H15.9583Z" fill="#ADB5D5"/>
<path d="M15.9583 24.792H8.32965C8.63882 26.297 9.37005 27.6829 10.4378 28.7877C11.5056 29.8924 12.8659 30.6704 14.3595 31.0305C14.9636 30.0518 15.4979 29.0315 15.9583 27.9775V24.792Z" fill="#3EE1F0"/>
<path d="M9.44375 31.417H14.121C14.2027 31.2911 14.2767 31.1586 14.3562 31.0305C12.8632 30.6698 11.5036 29.8916 10.4365 28.7869C9.3693 27.6822 8.63856 26.2966 8.32964 24.792H8.22916L7.30829 27.5524C7.62798 29.0213 8.37027 30.3646 9.44375 31.417Z" fill="#93F9F7"/>
<path d="M7.3083 27.5527L6.02084 31.4173H9.44376C8.37028 30.365 7.62799 29.0216 7.3083 27.5527Z" fill="#D6FBFD"/>
<path d="M39.1458 27.0003V25.8962H35.8333V24.792H34.7292V27.0003H38.0417V28.1045H39.1458V27.0003Z" fill="#AF7A58"/>
<path d="M36.9375 29.209H35.8333V31.4173H36.9375V30.3132V29.209Z" fill="#AF7A58"/>
<path d="M40.943 7.82884C41.6545 7.11735 41.4283 5.73764 40.4379 4.74716C39.4474 3.75669 38.0677 3.53053 37.3562 4.24201C36.6447 4.9535 36.8709 6.33321 37.8613 7.32369C38.8518 8.31416 40.2315 8.54033 40.943 7.82884Z" fill="#F6FAFD"/>
<path d="M48.8757 19.0821C49.2315 18.7264 49.1185 18.0367 48.6235 17.5416C48.1285 17.0466 47.4388 16.9337 47.0831 17.2895C46.7273 17.6452 46.8402 18.3349 47.3353 18.8299C47.8303 19.3249 48.52 19.4378 48.8757 19.0821Z" fill="#F6FAFD"/>
<path d="M48.8691 38.96C49.2248 38.6043 49.1119 37.9146 48.6169 37.4196C48.1219 36.9246 47.4322 36.8116 47.0765 37.1674C46.7207 37.5231 46.8336 38.2128 47.3286 38.7078C47.8237 39.2029 48.5133 39.3158 48.8691 38.96Z" fill="#F6FAFD"/>
<path d="M12.4305 29.0089C12.7862 28.6531 12.6733 27.9634 12.1783 27.4684C11.6833 26.9734 10.9936 26.8605 10.6378 27.2162C10.2821 27.572 10.395 28.2616 10.89 28.7567C11.3851 29.2517 12.0747 29.3646 12.4305 29.0089Z" fill="#F6FAFD"/>
<path d="M15.7452 21.2794C16.1009 20.9236 15.988 20.2339 15.493 19.7389C14.998 19.2439 14.3083 19.131 13.9526 19.4867C13.5968 19.8425 13.7097 20.5322 14.2048 21.0272C14.6998 21.5222 15.3895 21.6351 15.7452 21.2794Z" fill="#F6FAFD"/>
<path d="M45.9253 18.0514C46.1034 17.8733 46.0471 17.5283 45.7996 17.2808C45.5521 17.0333 45.2071 16.977 45.029 17.1551C44.8509 17.3332 44.9072 17.6782 45.1547 17.9257C45.4022 18.1732 45.7472 18.2295 45.9253 18.0514Z" fill="#F0F8FE"/>
<path d="M10.6052 26.8864C10.7833 26.7083 10.7271 26.3633 10.4795 26.1157C10.232 25.8682 9.88702 25.812 9.70893 25.99C9.53084 26.1681 9.58712 26.5131 9.83463 26.7607C10.0821 27.0082 10.4272 27.0644 10.6052 26.8864Z" fill="#F0F8FE"/>
<path d="M45.9275 36.8151C46.1056 36.637 46.0493 36.292 45.8018 36.0445C45.5543 35.7969 45.2093 35.7407 45.0312 35.9188C44.8531 36.0968 44.9094 36.4419 45.1569 36.6894C45.4044 36.9369 45.7494 36.9932 45.9275 36.8151Z" fill="#F0F8FE"/>
<path d="M42.6128 9.22132C42.7909 9.04324 42.7346 8.69822 42.4871 8.45071C42.2396 8.2032 41.8946 8.14692 41.7165 8.32501C41.5384 8.50309 41.5947 8.84811 41.8422 9.09562C42.0897 9.34313 42.4347 9.39941 42.6128 9.22132Z" fill="#F0F8FE"/>
<path d="M11.5417 45.7715H13.75V47.9798H11.5417V45.7715Z" fill="#24283B"/>
<path d="M42.4583 45.7715H44.6667V47.9798H42.4583V45.7715Z" fill="#24283B"/>
<path d="M52.3958 41.3546V15.9587C52.3958 15.6659 52.2795 15.385 52.0724 15.178C51.8654 14.9709 51.5845 14.8546 51.2917 14.8546H42.9817C43.5618 14.0878 43.9287 13.1811 44.045 12.2266C44.3178 12.0828 44.5675 11.8989 44.7859 11.6812C45.0996 11.3763 45.3485 11.0112 45.5177 10.6079C45.687 10.2045 45.7731 9.77115 45.7708 9.33372C45.7688 8.74211 45.6078 8.16192 45.3048 7.6538C45.0018 7.14567 44.5678 6.72827 44.0483 6.44522C43.8949 5.10822 43.2535 3.87486 42.2469 2.98158C41.2404 2.0883 39.9395 1.59796 38.5938 1.60456H33.0729C31.7312 1.60875 30.4372 2.10235 29.4335 2.99275C28.4299 3.88316 27.7857 5.10918 27.6216 6.44081C27.3489 6.58466 27.0991 6.76851 26.8807 6.98627C26.5671 7.29115 26.3182 7.65621 26.1489 8.05957C25.9797 8.46293 25.8936 8.8963 25.8958 9.33372C25.8979 9.92533 26.0589 10.5055 26.3619 11.0137C26.6649 11.5218 27.0988 11.9392 27.6183 12.2222C27.737 13.178 28.1048 14.0858 28.685 14.8546H20.375C20.0822 14.8546 19.8013 14.9709 19.5942 15.178C19.3872 15.385 19.2708 15.6659 19.2708 15.9587V16.0139C9.86223 16.566 7.34583 23.9187 7.18352 24.4376V24.4431L5.09333 30.7082L2.09552 32.7067C1.94434 32.8076 1.8204 32.9442 1.73468 33.1045C1.64897 33.2647 1.60414 33.4437 1.60417 33.6254V41.3546C1.31132 41.3546 1.03047 41.4709 0.823403 41.678C0.616332 41.885 0.5 42.1659 0.5 42.4587L0.5 46.8754C0.5 47.1682 0.616332 47.4491 0.823403 47.6562C1.03047 47.8632 1.31132 47.9796 1.60417 47.9796H7.23542C7.48884 49.2276 8.16593 50.3496 9.15196 51.1556C10.138 51.9615 11.3723 52.4018 12.6458 52.4018C13.9193 52.4018 15.1537 51.9615 16.1397 51.1556C17.1257 50.3496 17.8028 49.2276 18.0562 47.9796H38.1521C38.4055 49.2276 39.0826 50.3496 40.0686 51.1556C41.0547 51.9615 42.289 52.4018 43.5625 52.4018C44.836 52.4018 46.0703 51.9615 47.0564 51.1556C48.0424 50.3496 48.7195 49.2276 48.9729 47.9796H52.3958C52.6887 47.9796 52.9695 47.8632 53.1766 47.6562C53.3837 47.4491 53.5 47.1682 53.5 46.8754V42.4587C53.5 42.1659 53.3837 41.885 53.1766 41.678C52.9695 41.4709 52.6887 41.3546 52.3958 41.3546ZM43.5625 9.33372C43.5629 9.48106 43.5331 9.62691 43.475 9.7623C43.4169 9.89769 43.3317 10.0198 43.2246 10.121C43.1246 10.2224 43.0052 10.3026 42.8736 10.357C42.742 10.4115 42.6008 10.439 42.4583 10.4379H29.2083C28.9155 10.4379 28.6346 10.3216 28.4276 10.1145C28.2205 9.90742 28.1042 9.62657 28.1042 9.33372C28.1038 9.18639 28.1336 9.04054 28.1917 8.90515C28.2498 8.76976 28.335 8.64769 28.442 8.54645C28.5421 8.4451 28.6615 8.36483 28.7931 8.3104C28.9247 8.25597 29.0659 8.22848 29.2083 8.22956H42.4583C42.7512 8.22956 43.032 8.34589 43.2391 8.55296C43.4462 8.76003 43.5625 9.04088 43.5625 9.33372ZM33.0729 3.81289H38.5938C39.4697 3.81311 40.3102 4.15913 40.9324 4.77572C41.2819 5.12836 41.5495 5.55358 41.7163 6.02122H29.9492C30.1784 5.37583 30.6017 4.81714 31.1609 4.42178C31.7202 4.02641 32.388 3.81373 33.0729 3.81289ZM30.7343 13.8917C30.3848 13.5391 30.1171 13.1139 29.9503 12.6462H41.7174C41.4882 13.2916 41.065 13.8503 40.5057 14.2457C39.9465 14.641 39.2786 14.8537 38.5938 14.8546H33.0729C32.197 14.8543 31.3565 14.5083 30.7343 13.8917ZM21.4792 17.0629H50.1875V41.3546H21.4792V17.0629ZM21.4792 43.5629H39.1745C38.6726 44.213 38.3235 44.9678 38.1532 45.7712H21.4792V43.5629ZM19.2708 18.2201V23.6879H9.92958C10.9896 21.7854 13.6175 18.5988 19.2708 18.2201ZM14.8542 25.8962V30.3129H7.55342L9.02527 25.8962H14.8542ZM2.70833 43.5629H8.25787C7.75556 44.2129 7.40609 44.9677 7.23542 45.7712H2.70833V43.5629ZM12.6458 50.1879C11.9907 50.1879 11.3502 49.9936 10.8055 49.6296C10.2608 49.2657 9.8362 48.7483 9.58548 48.143C9.33477 47.5377 9.26917 46.8717 9.39698 46.2292C9.52479 45.5866 9.84028 44.9964 10.3035 44.5331C10.7668 44.0698 11.357 43.7544 11.9996 43.6265C12.6422 43.4987 13.3082 43.5643 13.9135 43.815C14.5188 44.0658 15.0361 44.4903 15.4001 45.0351C15.7641 45.5798 15.9583 46.2202 15.9583 46.8754C15.9583 47.7539 15.6093 48.5965 14.9881 49.2177C14.3669 49.8389 13.5244 50.1879 12.6458 50.1879ZM19.2708 45.7712H18.0562C17.8 44.5251 17.1219 43.4054 16.1364 42.6009C15.1508 41.7963 13.9181 41.3562 12.6458 41.3546H3.8125V34.2161L6.35208 32.5212H15.9583C16.2512 32.5212 16.532 32.4049 16.7391 32.1978C16.9462 31.9907 17.0625 31.7099 17.0625 31.4171V25.8962H19.2708V45.7712ZM43.5625 50.1879C42.9073 50.1879 42.2669 49.9936 41.7222 49.6296C41.1774 49.2657 40.7529 48.7483 40.5021 48.143C40.2514 47.5377 40.1858 46.8717 40.3136 46.2292C40.4415 45.5866 40.7569 44.9964 41.2202 44.5331C41.6835 44.0698 42.2737 43.7544 42.9163 43.6265C43.5588 43.4987 44.2249 43.5643 44.8301 43.815C45.4354 44.0658 45.9528 44.4903 46.3167 45.0351C46.6807 45.5798 46.875 46.2202 46.875 46.8754C46.875 47.7539 46.526 48.5965 45.9048 49.2177C45.2836 49.8389 44.441 50.1879 43.5625 50.1879ZM51.2917 45.7712H48.9729C48.8026 44.9678 48.4535 44.213 47.9516 43.5629H51.2917V45.7712Z" fill="#24283B"/>
<path d="M24.7917 32.5215H46.875C47.1678 32.5215 47.4487 32.4052 47.6558 32.1981C47.8628 31.991 47.9792 31.7102 47.9792 31.4173V20.3757C47.9792 20.0828 47.8628 19.802 47.6558 19.5949C47.4487 19.3878 47.1678 19.2715 46.875 19.2715H24.7917C24.4988 19.2715 24.218 19.3878 24.0109 19.5949C23.8038 19.802 23.6875 20.0828 23.6875 20.3757V31.4173C23.6875 31.7102 23.8038 31.991 24.0109 32.1981C24.218 32.4052 24.4988 32.5215 24.7917 32.5215ZM42.4583 29.209V30.3132H38.0417V29.209H42.4583ZM25.8958 21.4798H45.7708V30.3132H44.6667V28.1048C44.6667 27.812 44.5503 27.5311 44.3433 27.3241C44.1362 27.117 43.8553 27.0007 43.5625 27.0007H41.3542V25.8965H44.6667V23.6882H35.8333V25.8965H39.1458V27.0007H36.9375C36.6447 27.0007 36.3638 27.117 36.1567 27.3241C35.9497 27.5311 35.8333 27.812 35.8333 28.1048V30.3132H25.8958V21.4798Z" fill="#24283B"/>
<path d="M23.6875 34.7295H25.8958V36.9378H23.6875V34.7295Z" fill="#24283B"/>
<path d="M28.1042 34.7295H47.9792V36.9378H28.1042V34.7295Z" fill="#24283B"/>
<path d="M13.75 34.7295H17.0625V36.9378H13.75V34.7295Z" fill="#24283B"/>
</g>
<defs>
<clipPath id="clip0_264_4994">
<rect width="53" height="53" fill="white" transform="translate(0.5 0.5)"/>
</clipPath>
</defs>
</svg>
