<svg width="54" height="54" viewBox="0 0 54 54" fill="none" xmlns="http://www.w3.org/2000/svg">
<path fill-rule="evenodd" clip-rule="evenodd" d="M53.2167 18.8304C52.8853 19.3647 52.3012 19.6896 51.6724 19.6894C51.3263 19.6891 50.9873 19.5909 50.6947 19.4061L27 4.48387L3.30535 19.4061C2.45245 19.9461 1.32328 19.6925 0.783281 18.8396C0.24328 17.9867 0.496934 16.8575 1.34983 16.3175L26.0222 0.783006C26.6202 0.408269 27.3798 0.408269 27.9778 0.783006L52.6502 16.3175C53.0586 16.5755 53.3478 16.9853 53.454 17.4566C53.5603 17.9279 53.4749 18.4221 53.2167 18.8304Z" fill="#E64C3C"/>
<path fill-rule="evenodd" clip-rule="evenodd" d="M51.6724 19.6889V50.7579C51.6724 52.2719 50.4451 53.4993 48.9311 53.4993H5.06899C3.55496 53.4993 2.32761 52.2719 2.32761 50.7579V19.6889C2.6739 19.6899 3.01321 19.5916 3.30537 19.4056L27 4.4834L50.6947 19.4056C50.9874 19.5904 51.3263 19.6886 51.6724 19.6889Z" fill="#F5EFCA"/>
<path fill-rule="evenodd" clip-rule="evenodd" d="M10.5517 10.5241V4.155C10.5517 3.65033 10.9608 3.24121 11.4655 3.24121H16.0345C16.5392 3.24121 16.9483 3.65033 16.9483 4.155V6.49431L10.5517 10.5241Z" fill="#C03A2B"/>
<path fill-rule="evenodd" clip-rule="evenodd" d="M27.4752 37.6908L24.88 40.2677L22.5681 37.9558C21.0458 38.1334 19.5297 37.5772 18.4835 36.4572C16.7016 34.6753 16.4092 32.071 17.8347 30.6455C18.1045 30.3763 18.4242 30.1621 18.7759 30.015C20.5118 29.425 22.4323 29.9285 23.6555 31.2943C24.7713 32.3394 25.3271 33.8508 25.1542 35.3698L27.4752 37.6908Z" fill="#7F8C8D"/>
<path fill-rule="evenodd" clip-rule="evenodd" d="M37.0609 48.0444C37.0691 48.5312 36.8775 49.0002 36.5309 49.342C35.8125 50.0458 34.6632 50.0458 33.9448 49.342L28.8002 44.1882L31.3862 41.6113L36.5309 46.756C36.8758 47.0953 37.0672 47.5607 37.0609 48.0444Z" fill="#7F8C8D"/>
<path fill-rule="evenodd" clip-rule="evenodd" d="M35.4252 37.5902L31.3862 41.6109L28.8002 44.1878L27.8041 45.1838C27.0823 45.8966 25.9216 45.8966 25.1998 45.1838L21.0147 49.3416C20.6683 49.6871 20.1971 49.8783 19.7079 49.8716C19.1601 49.877 18.6381 49.6394 18.2824 49.2228C17.6776 48.4461 17.7565 47.3382 18.4652 46.655L24.88 40.2676L27.4752 37.6907L34.8586 30.3347C34.9595 30.2351 35.086 30.1655 35.2241 30.1336C35.5082 30.0684 35.8036 30.1801 35.9734 30.4169C37.5906 32.6143 37.3575 35.6641 35.4252 37.5902Z" fill="#95A5A5"/>
<path fill-rule="evenodd" clip-rule="evenodd" d="M40.7069 20.603C40.7069 23.6311 38.2522 26.0858 35.2241 26.0858C32.5413 25.3853 29.7711 25.0775 27 25.172C24.2289 25.0775 21.4587 25.3853 18.7759 26.0858C16.4562 26.0865 14.3872 24.6273 13.6091 22.442C12.8311 20.2567 13.5124 17.8183 15.3106 16.3529C17.1087 14.8875 19.6345 14.7122 21.6178 15.9153C22.1181 13.3383 24.3749 11.4775 27 11.4775C29.6251 11.4775 31.8819 13.3383 32.3822 15.9153C34.0751 14.8892 36.1895 14.8553 37.9144 15.8266C39.6392 16.7979 40.7066 18.6235 40.7069 20.603Z" fill="white"/>
<path fill-rule="evenodd" clip-rule="evenodd" d="M35.2242 26.0857V30.1338C35.086 30.1657 34.9595 30.2353 34.8586 30.3349L27.4752 37.6909L25.1542 35.3699C25.3271 33.8508 24.7713 32.3395 23.6555 31.2943C22.4323 29.9285 20.5118 29.425 18.7759 30.015V26.0857C21.4587 25.3853 24.2289 25.0775 27 25.1719C29.7712 25.0775 32.5413 25.3853 35.2242 26.0857Z" fill="#ECF0F1"/>
</svg>
