<svg width="54" height="54" viewBox="0 0 54 54" fill="none" xmlns="http://www.w3.org/2000/svg">
<path fill-rule="evenodd" clip-rule="evenodd" d="M6.18714 14.5557L5.11575 28.5942V30.2736H15.6866V28.5942L14.6152 14.5557H6.18714Z" fill="#DEA368"/>
<path fill-rule="evenodd" clip-rule="evenodd" d="M6.18714 14.5557L5.11575 28.5942V30.2736H12.2705V28.5942L11.1992 14.5557H6.18714Z" fill="#E6B17C"/>
<path fill-rule="evenodd" clip-rule="evenodd" d="M5.07071 9.45312H15.7316V11.6437L14.6152 14.5557H6.18713L5.07071 11.6437V9.45312Z" fill="#C45B00"/>
<path fill-rule="evenodd" clip-rule="evenodd" d="M5.07071 9.45312H12.3156V11.6437L11.1991 14.5557H6.18713L5.07071 11.6437V9.45312Z" fill="#D76A00"/>
<path fill-rule="evenodd" clip-rule="evenodd" d="M5.07071 11.6436L6.18713 14.5556H14.6152L15.7315 11.6436H5.07071Z" fill="#D76A00"/>
<path fill-rule="evenodd" clip-rule="evenodd" d="M5.07071 11.6436L6.18713 14.5556H11.1991L12.3155 11.6436H5.07071Z" fill="#E37500"/>
<path fill-rule="evenodd" clip-rule="evenodd" d="M5.0258 28.5947H15.7765C16.3095 28.5947 16.7456 29.0309 16.7456 29.5639V51.8789H4.05658V29.5639C4.05658 29.0308 4.49269 28.5947 5.0258 28.5947Z" fill="#F2C496"/>
<path fill-rule="evenodd" clip-rule="evenodd" d="M5.0258 28.5947H12.3605C12.8935 28.5947 13.3296 29.0309 13.3296 29.5639V51.8789H4.05658V29.5639C4.05658 29.0308 4.49269 28.5947 5.0258 28.5947Z" fill="#FDD7AD"/>
<path fill-rule="evenodd" clip-rule="evenodd" d="M23.0603 6.00039H24.5025C24.3211 5.67639 24.2173 5.30373 24.2173 4.90778C24.2173 1.58669 30.239 0.919533 30.9007 4.61649C33.053 2.79669 35.7556 5.04494 34.4695 7.35023H36.2366C37.138 7.35023 37.8755 8.08778 37.8755 8.9892C37.8755 9.89061 37.1381 10.6283 36.2366 10.6283H29.7564C28.9556 10.6283 28.3025 11.2814 28.3025 12.0821V13.4404H25.6974V12.0821C25.6974 11.2813 25.0443 10.6283 24.2435 10.6283H23.0603C21.7877 10.6283 20.7464 9.587 20.7464 8.31438C20.7464 7.04176 21.7876 6.00039 23.0603 6.00039Z" fill="#CFCFFF"/>
<path fill-rule="evenodd" clip-rule="evenodd" d="M28.3518 2.18066C29.5669 2.39536 30.6424 3.17338 30.9007 4.6169C33.0529 2.7971 35.7556 5.04536 34.4695 7.35065H36.2367C37.1381 7.35065 37.8755 8.0882 37.8755 8.98961C37.8755 9.89103 37.1381 10.6287 36.2367 10.6287H29.7564C28.9556 10.6287 28.3025 11.2818 28.3025 12.0826V13.4408H27.1419V12.0826C27.1419 11.2818 26.4888 10.6287 25.688 10.6287H24.5047C23.2321 10.6287 22.1909 9.58741 22.1909 8.31479C22.1909 7.04217 23.232 6.00091 24.5047 6.00091H25.9469C25.7656 5.6769 25.6617 5.30414 25.6617 4.9083C25.6617 3.38931 26.9215 2.42579 28.3518 2.18077V2.18066Z" fill="#E9E9FF"/>
<path fill-rule="evenodd" clip-rule="evenodd" d="M41.0857 10.3417H42.1678C42.9114 10.3417 43.5199 9.73337 43.5199 8.98971C43.5199 8.24606 42.9114 7.6377 42.1678 7.6377H41.0857C40.342 7.6377 39.7337 8.24616 39.7337 8.98971C39.7337 9.73337 40.342 10.3417 41.0857 10.3417Z" fill="#CFCFFF"/>
<path d="M42.1619 7.6377H42.1679C42.9141 7.6377 43.52 8.24347 43.52 8.98971C43.52 9.73596 42.9142 10.3417 42.1679 10.3417H42.1619C41.4158 10.3417 40.81 9.73596 40.81 8.98982C40.81 8.24347 41.4158 7.6377 42.1619 7.6377Z" fill="#E9E9FF"/>
<path fill-rule="evenodd" clip-rule="evenodd" d="M24.3853 14.5361L21.9426 51.8794H27.0003H32.0581L29.6154 14.5361H24.3853Z" fill="#DEA368"/>
<path fill-rule="evenodd" clip-rule="evenodd" d="M24.3853 14.5361L21.9426 51.8794H27.0003H29.9619L27.5191 14.5361H24.3853Z" fill="#E6B17C"/>
<path fill-rule="evenodd" clip-rule="evenodd" d="M40.4395 23.8232L39.5328 35.703H49.7708L48.8643 23.8232H40.4395Z" fill="#DEA368"/>
<path fill-rule="evenodd" clip-rule="evenodd" d="M40.4395 23.8232L39.5328 35.703H46.7137L45.8071 23.8232H40.4395Z" fill="#E6B17C"/>
<path d="M39.3686 34.1045H49.9352V51.8689H39.3686V34.1045Z" fill="#F2C496"/>
<path d="M39.3686 34.1045H46.8781V51.8689H39.3686V34.1045Z" fill="#FDD7AD"/>
<path d="M49.561 22.043H39.7427C39.5256 22.043 39.3496 22.2189 39.3496 22.436V24.3383C39.3496 24.5554 39.5256 24.7314 39.7427 24.7314H49.561C49.7781 24.7314 49.9541 24.5554 49.9541 24.3383V22.436C49.9541 22.2189 49.7781 22.043 49.561 22.043Z" fill="#C45B00"/>
<path d="M46.7304 22.043H39.7427C39.5256 22.043 39.3496 22.2189 39.3496 22.436V24.3383C39.3496 24.5554 39.5256 24.7314 39.7427 24.7314H46.7304C46.9475 24.7314 47.1234 24.5554 47.1234 24.3383V22.436C47.1234 22.2189 46.9475 22.043 46.7304 22.043Z" fill="#E37500"/>
<path fill-rule="evenodd" clip-rule="evenodd" d="M27.4275 51.8685H41.9499V33.9117L34.3829 29.543L27.4275 33.5587V51.8685Z" fill="#2A92FA"/>
<path fill-rule="evenodd" clip-rule="evenodd" d="M27.4275 51.8685H34.3829V29.543L27.4275 33.5587V51.8685Z" fill="#0E82F5"/>
<path fill-rule="evenodd" clip-rule="evenodd" d="M15.1847 41.1553V33.7441L27.4275 26.6758V38.1028L15.1847 41.1553Z" fill="#0062D9"/>
<path fill-rule="evenodd" clip-rule="evenodd" d="M23.8387 28.7477L27.4275 26.6758V36.8005H23.8387V28.7477Z" fill="#004CBD"/>
<path fill-rule="evenodd" clip-rule="evenodd" d="M13.5166 51.8686H34.3829V38.9355L27.4275 35.5205H20.2502L13.5166 38.8265V51.8686Z" fill="#70C1F9"/>
<path fill-rule="evenodd" clip-rule="evenodd" d="M23.8387 51.8686H34.3829V38.9355L27.4275 35.5205H23.8387V51.8686Z" fill="#4EB1FC"/>
<path d="M20.4721 41.9395H27.4275V51.8692H20.4721V41.9395Z" fill="#F0F0FF"/>
<path d="M1.63898 49.0439H52.3616V51.8788H1.63898V49.0439Z" fill="#BA8047"/>
<path d="M29.855 13.4404H24.1458C23.9201 13.4404 23.7371 13.6234 23.7371 13.8491V15.2223C23.7371 15.4481 23.9201 15.631 24.1458 15.631H29.855C30.0807 15.631 30.2636 15.4481 30.2636 15.2223V13.8491C30.2636 13.6234 30.0807 13.4404 29.855 13.4404Z" fill="#C45B00"/>
<path d="M27.7782 13.4404H24.1458C23.9201 13.4404 23.7371 13.6234 23.7371 13.8491V15.2223C23.7371 15.4481 23.9201 15.631 24.1458 15.631H27.7782C28.0039 15.631 28.1869 15.4481 28.1869 15.2223V13.8491C28.1869 13.6234 28.0039 13.4404 27.7782 13.4404Z" fill="#E37500"/>
<path d="M43.7046 27.2842H45.6127V31.5546H43.7046V27.2842Z" fill="#BA8047"/>
<path d="M36.9402 35.0684H39.541V37.6692H36.9402V35.0684Z" fill="#F0F0FF"/>
<path d="M36.9402 39.6104H39.541V42.2112H36.9402V39.6104Z" fill="#F0F0FF"/>
<path d="M36.9402 44.1514H39.541V46.7522H36.9402V44.1514Z" fill="#F0F0FF"/>
<path d="M43.7046 27.2842H44.2789V31.5546H43.7046V27.2842Z" fill="#AB733A"/>
<path fill-rule="evenodd" clip-rule="evenodd" d="M37.458 46.2355H39.0255V44.6693H37.458V46.2355ZM36.4227 46.7531V44.1516C36.4227 43.866 36.6544 43.6341 36.9403 43.6341H39.5431C39.829 43.6341 40.0607 43.8661 40.0607 44.1516V46.7531C40.0607 47.0387 39.829 47.2705 39.5431 47.2705H36.9403C36.6544 47.2705 36.4227 47.0387 36.4227 46.7531ZM37.458 41.6931H39.0255V40.128H37.458V41.6931ZM36.4227 42.2107V39.6104C36.4227 39.3238 36.6544 39.0928 36.9403 39.0928H39.5431C39.829 39.0928 40.0607 39.3238 40.0607 39.6104V42.2107C40.0607 42.4963 39.829 42.7283 39.5431 42.7283H36.9403C36.6544 42.7283 36.4227 42.4962 36.4227 42.2107ZM37.458 37.1518H39.0255V35.5857H37.458V37.1518ZM36.4227 37.6694V35.0681C36.4227 34.7823 36.6544 34.5506 36.9403 34.5506H39.5431C39.829 34.5506 40.0607 34.7824 40.0607 35.0681V37.6694C40.0607 37.9552 39.829 38.187 39.5431 38.187H36.9403C36.6544 38.187 36.4227 37.9552 36.4227 37.6694ZM44.2213 31.037H45.0938V27.8013H44.2213V31.037ZM43.186 31.5546V27.2837C43.186 26.9979 43.4177 26.7661 43.7036 26.7661H45.6114C45.8973 26.7661 46.1289 26.9979 46.1289 27.2837V31.5546C46.1289 31.8404 45.8973 32.0722 45.6114 32.0722H43.7036C43.4177 32.0722 43.186 31.8403 43.186 31.5546ZM40.248 8.98935C40.248 9.44989 40.6226 9.82368 41.086 9.82368H42.1655C42.624 9.82368 42.9986 9.44989 42.9986 8.99028C42.9986 8.53067 42.624 8.15594 42.1655 8.15594H41.086C40.6225 8.15594 40.248 8.52974 40.248 8.98935ZM39.2128 8.98935C39.2128 7.95937 40.0557 7.12068 41.086 7.12068H42.1655C43.1958 7.12068 44.0338 7.95926 44.0338 8.99028C44.0338 10.0213 43.1957 10.8587 42.1655 10.8587H41.086C40.0557 10.8587 39.2128 10.0204 39.2128 8.98935ZM51.8422 49.5612H2.15768V51.3614H51.8423V49.5612H51.8422ZM4.57301 48.526H12.9928V38.8318C12.9928 38.634 13.1061 38.4539 13.2836 38.367L14.6639 37.6901V33.7471C14.6639 33.5618 14.7625 33.391 14.9202 33.299L16.2266 32.5443V29.5641C16.2266 29.3145 16.0244 29.1117 15.778 29.1117H5.02662C4.77518 29.1117 4.57312 29.3145 4.57312 29.5641L4.57301 48.526ZM5.58861 9.97078V11.1272H15.216V9.97078H5.58861ZM5.67235 28.0767H15.1272L14.1363 15.0741H6.66817L5.67235 28.0767ZM14.2596 14.0389L14.9792 12.1623H5.82524L6.54499 14.0389H14.2596ZM24.0201 28.0455L27.1701 26.228C27.3278 26.1358 27.525 26.1358 27.6876 26.228C27.8454 26.32 27.9439 26.4908 27.9439 26.6761V32.6654L30.1968 31.3642L29.201 16.1486H24.7989L24.0201 28.0455ZM24.2567 15.1134H29.7481V13.9581H24.2567V15.1134ZM26.2137 12.0826V12.9231H27.7862V12.0826C27.7862 10.9956 28.6686 10.1116 29.758 10.1116H36.2353C36.8564 10.1116 37.3593 9.60837 37.3593 8.98955C37.3593 8.37074 36.8564 7.86848 36.2353 7.86848H32.5086C32.2227 7.86848 31.991 7.63764 31.991 7.3509C31.991 7.06416 32.2227 6.83332 32.5086 6.83332H34.1403C34.4952 5.96183 34.1305 5.23815 33.6768 4.86228C33.1494 4.42648 32.1931 4.20506 31.2318 5.01341C31.0938 5.13246 30.9016 5.16765 30.7241 5.10451C30.5515 5.0425 30.4233 4.89137 30.3889 4.70918C30.1078 3.12446 28.634 2.53339 27.2981 2.65222C26.0658 2.76216 24.7348 3.51441 24.7348 4.90886C24.7348 5.20202 24.8087 5.49269 24.9566 5.74848C25.0453 5.90893 25.0453 6.10447 24.9516 6.26295C24.8579 6.42247 24.6854 6.51967 24.503 6.51967H23.0636C22.0727 6.51967 21.2644 7.32492 21.2644 8.31567C21.2644 9.30642 22.0728 10.1117 23.0636 10.1117H24.2418C25.3312 10.1117 26.2136 10.9957 26.2136 12.0827L26.2137 12.0826ZM26.9088 27.5727V35.0073H20.249C20.1701 35.0073 20.0912 35.0248 20.0173 35.0601L15.6991 37.182V34.0465L26.9088 27.5727ZM27.9439 41.9457C27.9439 41.659 27.7123 41.4282 27.4264 41.4282H20.4708C20.1849 41.4282 19.9533 41.659 19.9533 41.9457V48.5262H14.0279V39.154L20.3673 36.0422H27.308L33.8692 39.2637V48.5262H27.9439V41.9457ZM26.9088 42.4633H20.9884V48.5262H26.9088V42.4633ZM27.9439 33.8601L34.3869 30.1418L41.4361 34.2142V48.5262H34.9044V38.9408C34.9044 38.7429 34.7911 38.5627 34.6136 38.4759L27.9439 35.2016V33.8601ZM40.3121 32.3686L40.8543 25.2488H48.4605L49.1014 33.59H42.3579C42.3184 33.5415 42.2692 33.4989 42.2149 33.4668L40.3121 32.3686ZM39.8734 24.2135H49.4465V22.5594H39.8734V24.2135ZM49.4269 48.5262V34.6252H42.4713V48.5262H49.4269ZM52.8775 49.0438V51.8791C52.8775 52.1648 52.6459 52.3967 52.36 52.3967H1.64011C1.3542 52.3967 1.12253 52.1648 1.12253 51.8791V49.0438C1.12253 48.7581 1.3542 48.5262 1.64011 48.5262H3.53796V29.5643C3.53796 28.8811 4.0013 28.3055 4.63233 28.1317L5.66262 14.633L4.58802 11.8299C4.56339 11.7699 4.55355 11.7077 4.55355 11.6447V9.4532C4.55355 9.16739 4.78522 8.93562 5.07113 8.93562H15.7337C16.0196 8.93562 16.2512 9.1675 16.2512 9.4532V11.6447C16.2512 11.7077 16.2364 11.7699 16.2168 11.8299L15.1421 14.633L16.1724 28.1317C16.7984 28.3055 17.2618 28.8811 17.2618 29.5643V31.9471L22.9405 28.6677L23.7686 16.0668C23.4433 15.9209 23.2215 15.5979 23.2215 15.222V13.8495C23.2215 13.338 23.6355 12.923 24.1433 12.923H25.1784V12.0825C25.1784 11.5659 24.7594 11.1466 24.2418 11.1466H23.0636C21.5009 11.1466 20.2291 9.87658 20.2291 8.31546C20.2291 6.75434 21.5009 5.4842 23.0636 5.4842H23.7636C23.7192 5.29487 23.6995 5.10234 23.6995 4.90866C23.6995 2.86443 25.5185 1.7711 27.2093 1.62121C28.7424 1.4856 30.5269 2.12202 31.2022 3.78965C32.3705 3.16659 33.5684 3.4348 34.3324 4.06293C35.0521 4.65318 35.5303 5.68409 35.2346 6.83312H36.2352C37.4233 6.83312 38.3944 7.80088 38.3944 8.98945C38.3944 10.178 37.4233 11.1466 36.2352 11.1466H29.7578C29.2403 11.1466 28.8212 11.5659 28.8212 12.0825V12.923H29.8564C30.3641 12.923 30.7782 13.338 30.7782 13.8495V15.222C30.7782 15.5979 30.5564 15.9209 30.236 16.0668L31.1972 30.7878L34.1254 29.0963C34.2881 29.0041 34.4852 29.0041 34.643 29.0963L39.3162 31.7938L39.8189 25.2485H39.745C39.2471 25.2485 38.838 24.8398 38.838 24.3375V22.4339C38.838 21.9319 39.2471 21.5241 39.745 21.5241H49.5696C50.0724 21.5241 50.4816 21.9319 50.4816 22.4339V24.3375C50.4816 24.8398 50.0724 25.2485 49.5696 25.2485H49.5006L50.1414 33.6292C50.3288 33.7058 50.4618 33.8911 50.4618 34.1075V48.5261H52.3597C52.6456 48.5261 52.8772 48.758 52.8772 49.0437L52.8775 49.0438ZM7.7379 25.321C7.45696 25.3044 7.23513 25.0603 7.25479 24.7745L7.61461 18.4507C7.63428 18.1651 7.87589 17.9466 8.1618 17.9643C8.44771 17.9797 8.66457 18.225 8.64977 18.5098L8.28498 24.8334C8.27018 25.1088 8.04348 25.3221 7.7674 25.3221C7.75757 25.3221 7.74784 25.321 7.7379 25.321ZM13.0322 25.3221C12.7611 25.3221 12.5343 25.1088 12.5146 24.8334L12.1548 18.5098C12.135 18.2249 12.352 17.9797 12.6379 17.9643C12.9238 17.9466 13.1703 18.1651 13.1851 18.4507L13.5499 24.7745C13.5647 25.0603 13.3478 25.3044 13.0618 25.321C13.052 25.321 13.042 25.3221 13.0322 25.3221ZM9.88223 24.8046V18.4807C9.88223 18.194 10.1139 17.9631 10.3998 17.9631C10.6857 17.9631 10.9174 18.194 10.9174 18.4807V24.8046C10.9174 25.0904 10.6857 25.3221 10.3998 25.3221C10.1139 25.3221 9.88223 25.0904 9.88223 24.8046Z" fill="black"/>
</svg>
