<svg width="50" height="51" viewBox="0 0 50 51" fill="none" xmlns="http://www.w3.org/2000/svg">
<path d="M26.4989 8.09305L25.323 5.74945L20.0561 2.82617L18.8884 3.99383L21.8117 9.2607L24.1553 10.4366L35.8658 22.1472L38.2094 19.8027L26.4989 8.09305Z" fill="#FF6243"/>
<path d="M20.0561 4.48242L25.323 7.4057L26.4989 9.7493L37.3813 20.6309L38.2094 19.8027L26.4989 8.09305L25.323 5.74945L20.0561 2.82617L18.8884 3.99383L19.4797 5.0588L20.0561 4.48242Z" fill="#FF5023"/>
<path d="M25.4869 19.4496C24.3216 19.2744 23.1306 19.413 22.0365 19.8511C20.9425 20.2891 19.985 21.0109 19.2627 21.942C18.5403 22.8732 18.0792 23.98 17.9269 25.1486C17.7745 26.3172 17.9363 27.5052 18.3957 28.5905L22.7409 24.2453L25.6691 24.8308L26.2546 27.759L21.9094 32.1042C22.9947 32.5636 24.1828 32.7255 25.3513 32.5731C26.5199 32.4207 27.6268 31.9596 28.5579 31.2372C29.489 30.5149 30.2108 29.5574 30.6489 28.4634C31.0869 27.3694 31.2255 26.1784 31.0503 25.013C30.9592 24.4832 30.9942 23.9393 31.1525 23.4255C31.3107 22.9118 31.5878 22.4425 31.9612 22.0557L38.1183 15.8937C38.5051 15.5203 38.9744 15.2433 39.4882 15.085C40.0019 14.9268 40.5457 14.8917 41.0756 14.9827C42.2403 15.1575 43.4306 15.0187 44.524 14.5809C45.6173 14.143 46.5743 13.4218 47.2965 12.4914C48.0187 11.561 48.48 10.455 48.6329 9.28716C48.7859 8.11934 48.625 6.93186 48.1668 5.84685L43.8216 10.192L40.8934 9.60654L40.3079 6.67829L44.6531 2.33312C43.5678 1.87371 42.3798 1.71187 41.2112 1.86426C40.0426 2.01665 38.9358 2.47776 38.0046 3.2001C37.0735 3.92245 36.3517 4.87993 35.9136 5.97395C35.4756 7.06797 35.337 8.25898 35.5122 9.42435C35.6032 9.95418 35.5682 10.498 35.4099 11.0118C35.2517 11.5255 34.9747 11.9948 34.6013 12.3816L32.6966 14.2863L30.353 16.6299L28.4483 18.5346C28.0615 18.9093 27.5917 19.1875 27.0772 19.3465C26.5626 19.5055 26.0177 19.5409 25.4869 19.4496Z" fill="#FF9811"/>
<path d="M48.1668 5.84668L46.8873 7.12613C47.0721 8.0195 47.0693 8.94152 46.879 9.83373C46.6887 10.7259 46.3152 11.5689 45.782 12.3092C45.2488 13.0494 44.5677 13.6708 43.7818 14.134C42.9958 14.5972 42.1222 14.8921 41.2163 14.9999C42.3727 15.1495 43.5481 14.9912 44.6238 14.541C45.6994 14.0909 46.6372 13.3648 47.3423 12.4361C48.0475 11.5075 48.495 10.4092 48.6398 9.25217C48.7846 8.09516 48.6214 6.92044 48.1668 5.84668Z" fill="#EE8700"/>
<path d="M39.4193 14.9879C38.8895 14.8969 38.3457 14.9319 37.8319 15.0902C37.3181 15.2484 36.8489 15.5255 36.4621 15.8988L30.3 22.0559C29.9266 22.4427 29.6495 22.912 29.4913 23.4257C29.333 23.9395 29.298 24.4833 29.3891 25.0132C29.5231 25.8891 29.4792 26.783 29.2601 27.6416C29.041 28.5002 28.6511 29.3059 28.1138 30.0105C27.5765 30.7151 26.9027 31.3042 26.1326 31.7426C25.3626 32.1811 24.5121 32.4599 23.6319 32.5624C24.6494 32.6975 25.6842 32.5941 26.6548 32.2603C27.6254 31.9266 28.505 31.3716 29.2241 30.6393C29.9432 29.907 30.4821 29.0175 30.7982 28.041C31.1143 27.0646 31.1989 26.028 31.0453 25.0132C30.9542 24.4833 30.9892 23.9395 31.1475 23.4257C31.3058 22.912 31.5828 22.4427 31.9563 22.0559L38.1183 15.8939C38.5917 15.4352 39.1938 15.1321 39.8441 15.0252C39.7025 15.0144 39.5601 15.0086 39.4193 14.9879Z" fill="#EE8700"/>
<path d="M42.408 31.0297C43.0292 31.6509 43.8718 31.9999 44.7504 31.9999C45.6289 31.9999 46.4715 31.6509 47.0927 31.0297C47.714 30.4085 48.063 29.5659 48.063 28.6874C48.063 27.8088 47.714 26.9662 47.0927 26.345L41.7215 20.9746L37.0376 25.6585L42.408 31.0297Z" fill="#005ECE"/>
<path d="M37.0376 25.659L41.7215 20.9751C42.0322 20.6646 42.2067 20.2433 42.2068 19.804C42.2069 19.3648 42.0325 18.9435 41.7219 18.6328C41.4114 18.3221 40.9901 18.1475 40.5508 18.1475C40.1115 18.1474 39.6902 18.3218 39.3796 18.6324L34.6949 23.3171C34.5411 23.4709 34.4191 23.6535 34.3359 23.8545C34.2527 24.0554 34.2099 24.2708 34.2099 24.4883C34.21 24.7058 34.2529 24.9212 34.3361 25.1221C34.4194 25.3231 34.5414 25.5057 34.6953 25.6594C34.8491 25.8132 35.0317 25.9352 35.2327 26.0184C35.4336 26.1016 35.649 26.1444 35.8665 26.1443C36.084 26.1443 36.2994 26.1014 36.5003 26.0181C36.7013 25.9349 36.8838 25.8128 37.0376 25.659Z" fill="#006DF0"/>
<path d="M7.60938 49.5156H14.2344V47.0312V37.0938V34.6094H7.60938V36.2656V47.8594V49.5156Z" fill="#006DF0"/>
<path d="M0.984375 36.2656H7.60938V47.8594H0.984375V36.2656Z" fill="#004FAC"/>
<path d="M48.4194 36.5968C48.2569 36.3145 48.0403 36.067 47.7821 35.8685C47.5239 35.6699 47.2291 35.5242 46.9146 35.4396C46.6001 35.355 46.2719 35.3332 45.949 35.3754C45.626 35.4177 45.3145 35.5232 45.0323 35.6859L36.1963 40.7871H36.1921C36.0745 40.3775 35.8531 40.0051 35.5493 39.7063C35.2454 39.4074 34.8695 39.192 34.458 39.0812L22.1024 35.7687C21.2873 35.5504 20.43 35.5432 19.6114 35.748L14.2344 37.0937V47.0312L16.4976 48.1632C17.1876 48.5078 17.9483 48.6873 18.7195 48.6874H31.1223C31.9943 48.6887 32.8512 48.4602 33.6067 48.0249L47.5192 39.9921C48.0887 39.6611 48.5034 39.1175 48.6722 38.4808C48.8411 37.8441 48.7501 37.1665 48.4194 36.5968Z" fill="#FFBCAB"/>
<path d="M5.125 36.2656H7.60938V47.8594H5.125V36.2656Z" fill="#00479B"/>
<path d="M42.7848 20.8666C43.0064 20.4049 43.0794 19.8859 42.994 19.381C42.9086 18.8761 42.6689 18.41 42.3078 18.0468C41.8345 17.5954 41.2055 17.3435 40.5514 17.3435C39.8973 17.3435 39.2683 17.5954 38.7949 18.0468L38.2103 18.6323L37.3821 17.8042L38.7071 16.4792C39.0019 16.1966 39.3596 15.988 39.7509 15.8708C40.1421 15.7536 40.5555 15.7311 40.9572 15.8051C42.111 15.974 43.2883 15.872 44.3959 15.5072C45.5035 15.1424 46.511 14.5248 47.3387 13.7033C48.3912 12.6555 49.1057 11.3163 49.3898 9.85849C49.674 8.40071 49.5148 6.89122 48.9328 5.52477C48.88 5.39981 48.7973 5.28974 48.692 5.20424C48.5867 5.11874 48.4619 5.06042 48.3288 5.03441C48.1957 5.0084 48.0582 5.0155 47.9284 5.05509C47.7986 5.09467 47.6806 5.16553 47.5846 5.26143L43.55 9.29274L41.599 8.90269L41.2072 6.94997L45.2386 2.91783C45.335 2.8219 45.4063 2.70369 45.4463 2.57365C45.4862 2.4436 45.4934 2.30573 45.4674 2.17221C45.4414 2.03869 45.3828 1.91364 45.297 1.80812C45.2112 1.70259 45.1006 1.61983 44.9752 1.56716C43.7544 1.04894 42.4175 0.865845 41.1023 1.03677C39.7872 1.2077 38.5414 1.72646 37.4937 2.53952C36.4459 3.35258 35.6341 4.43049 35.1419 5.66202C34.6498 6.89355 34.4952 8.23409 34.694 9.54532C34.7667 9.94663 34.7435 10.3594 34.6262 10.75C34.5089 11.1406 34.3009 11.498 34.0191 11.7928L32.6941 13.1178L27.1772 7.60005L26.0625 5.37654C25.988 5.22734 25.8703 5.10409 25.7246 5.02293L20.4586 2.10213C20.3012 2.01468 20.1197 1.98087 19.9414 2.00582C19.7632 2.03078 19.5979 2.11314 19.4706 2.24043L18.303 3.40808C18.1759 3.53529 18.0936 3.70042 18.0687 3.87851C18.0437 4.0566 18.0774 4.23797 18.1647 4.39521L21.088 9.66208C21.1688 9.80792 21.2917 9.92597 21.4407 10.0008L23.6651 11.1163L29.1812 16.6332L27.8562 17.9582C27.5615 18.2409 27.2037 18.4494 26.8125 18.5666C26.4213 18.6838 26.0078 18.7063 25.6062 18.6323C24.2956 18.4355 22.9562 18.5916 21.7259 19.0843C20.4956 19.5771 19.4188 20.3887 18.6064 21.4358C17.7939 22.4829 17.2752 23.7276 17.1035 25.0417C16.9319 26.3559 17.1135 27.692 17.6297 28.9127C17.6825 29.0376 17.7652 29.1477 17.8705 29.2332C17.9759 29.3187 18.1006 29.377 18.2337 29.403C18.3669 29.429 18.5044 29.4219 18.6341 29.3824C18.7639 29.3428 18.8819 29.2719 18.9779 29.176L23.0109 25.1447L24.9619 25.5348L25.352 27.4866L21.3207 31.5188C21.2248 31.6147 21.1539 31.7328 21.1143 31.8625C21.0747 31.9923 21.0676 32.1298 21.0936 32.2629C21.1196 32.3961 21.178 32.5208 21.2635 32.6261C21.349 32.7315 21.459 32.8142 21.584 32.867C22.8048 33.3852 24.1417 33.5683 25.4569 33.3974C26.7721 33.2264 28.0178 32.7077 29.0656 31.8946C30.1133 31.0816 30.9251 30.0037 31.4173 28.7721C31.9094 27.5406 32.064 26.2 31.8652 24.8888C31.7925 24.4875 31.8157 24.0747 31.933 23.6841C32.0503 23.2935 32.2584 22.9362 32.5401 22.6413L33.8651 21.3163L34.6932 22.1444L34.1094 22.7316C33.692 23.1441 33.4346 23.6914 33.383 24.276C33.3314 24.8606 33.489 25.4445 33.8277 25.9238C34.1664 26.403 34.6642 26.7465 35.2325 26.893C35.8008 27.0396 36.4026 26.9797 36.9308 26.7239L41.8217 31.6157C42.2062 32.0002 42.6627 32.3053 43.1651 32.5134C43.6674 32.7215 44.2059 32.8287 44.7497 32.8287C45.2935 32.8288 45.8319 32.7217 46.3343 32.5136C46.8368 32.3056 47.2933 32.0006 47.6778 31.6161C48.0623 31.2316 48.3674 30.7751 48.5755 30.2728C48.7837 29.7704 48.8908 29.2319 48.8908 28.6881C48.8909 28.1443 48.7838 27.6059 48.5758 27.1035C48.3677 26.6011 48.0627 26.1445 47.6782 25.76L42.7848 20.8666ZM24.7408 9.84841C24.6784 9.78559 24.6063 9.7333 24.5272 9.69355L22.4121 8.63272L19.9153 4.13435L20.1969 3.85279L24.6944 6.34958L25.7553 8.46379C25.7947 8.54333 25.847 8.61581 25.9101 8.67827L31.5215 14.2905L30.3489 15.4623L24.7408 9.84841ZM31.3766 21.4695C30.9102 21.9468 30.5636 22.5278 30.3651 23.1649C30.1666 23.802 30.1218 24.4771 30.2346 25.1348C30.3721 26.0461 30.2906 26.9771 29.9966 27.8506C29.7027 28.7242 29.2048 29.5151 28.5443 30.1579C27.8838 30.8007 27.0796 31.2768 26.1984 31.5469C25.3172 31.817 24.3844 31.8732 23.4771 31.7109L26.8443 28.3446C26.9402 28.2484 27.011 28.1301 27.0504 28.0002C27.0898 27.8702 27.0967 27.7325 27.0703 27.5993L26.4807 24.6718C26.449 24.5106 26.37 24.3624 26.2537 24.2462C26.1375 24.13 25.9894 24.051 25.8281 24.0193L22.9007 23.4338C22.7675 23.4075 22.6298 23.4143 22.4998 23.4538C22.3699 23.4932 22.2516 23.564 22.1554 23.6599L18.7891 27.0262C18.6271 26.1192 18.6834 25.1867 18.9535 24.3058C19.2235 23.4249 19.6994 22.621 20.3418 21.9606C20.9843 21.3002 21.7748 20.8022 22.6479 20.508C23.521 20.2138 24.4516 20.1318 25.3627 20.2687C26.0206 20.3774 26.6948 20.3308 27.3314 20.1326C27.9681 19.9345 28.5496 19.5903 29.0297 19.1276L35.1901 12.968C35.6565 12.4907 36.0031 11.9097 36.2016 11.2726C36.4001 10.6355 36.4448 9.96039 36.3321 9.30268C36.1945 8.39134 36.2761 7.46034 36.57 6.58681C36.864 5.71328 37.3618 4.92236 38.0224 4.27957C38.6829 3.63678 39.487 3.16062 40.3682 2.89055C41.2494 2.62047 42.1823 2.56425 43.0896 2.72654L39.7224 6.09286C39.6265 6.18903 39.5557 6.30731 39.5163 6.43728C39.4769 6.56726 39.47 6.70493 39.4963 6.83818L40.0818 9.7656C40.1139 9.92579 40.1927 10.0729 40.3082 10.1884C40.4238 10.304 40.5709 10.3827 40.7311 10.4148L43.6585 11.0003C43.7917 11.0267 43.9294 11.0198 44.0594 10.9804C44.1894 10.941 44.3076 10.8702 44.4038 10.7743L47.7735 7.41124C47.9354 8.31823 47.8791 9.25077 47.6091 10.1317C47.3391 11.0125 46.8631 11.8165 46.2207 12.4769C45.5782 13.1373 44.7878 13.6352 43.9146 13.9294C43.0415 14.2236 42.1109 14.3057 41.1998 14.1687C40.5416 14.0604 39.8672 14.1076 39.2305 14.3065C38.5938 14.5053 38.0124 14.8504 37.5329 15.314L31.3766 21.4695ZM36.2145 18.9752L37.0426 19.8033L35.865 20.9751L35.0369 20.147L36.2145 18.9752ZM35.2845 25.0735C35.1292 24.9182 35.042 24.7076 35.042 24.488C35.042 24.2684 35.1292 24.0578 35.2845 23.9025L39.9692 19.2178C40.0461 19.1409 40.1375 19.08 40.238 19.0384C40.3385 18.9968 40.4462 18.9754 40.555 18.9754C40.6638 18.9755 40.7715 18.9969 40.8719 19.0386C40.9724 19.0802 41.0637 19.1413 41.1406 19.2182C41.2175 19.2952 41.2785 19.3865 41.32 19.487C41.3616 19.5875 41.383 19.6952 41.383 19.804C41.3829 19.9128 41.3615 20.0205 41.3198 20.121C41.2782 20.2214 41.2171 20.3127 41.1402 20.3896L36.4546 25.0743C36.2967 25.2259 36.0862 25.3105 35.8673 25.3104C35.6484 25.3102 35.4381 25.2253 35.2804 25.0735H35.2845ZM46.5114 30.4447C46.0449 30.9097 45.4132 31.1708 44.7545 31.1708C44.0959 31.1708 43.4641 30.9097 42.9977 30.4447L38.2119 25.659L41.7257 22.1461L46.5114 26.931C46.7421 27.1617 46.9252 27.4356 47.05 27.737C47.1749 28.0385 47.2392 28.3616 47.2392 28.6878C47.2392 29.0141 47.1749 29.3372 47.05 29.6387C46.9252 29.9401 46.7421 30.214 46.5114 30.4447Z" fill="black"/>
<path d="M49.1382 36.1828C48.9214 35.806 48.6325 35.4756 48.288 35.2105C47.9435 34.9454 47.5501 34.7509 47.1303 34.6379C46.7106 34.5249 46.2727 34.4958 45.8416 34.5521C45.4106 34.6085 44.9949 34.7492 44.6183 34.9663L36.5432 39.6278C36.1034 38.9667 35.4387 38.4874 34.6725 38.2788L22.3169 34.9663C21.3658 34.7113 20.3654 34.7027 19.4102 34.9415L15.0625 36.0329V34.6094C15.0625 34.3897 14.9753 34.1791 14.8199 34.0238C14.6646 33.8685 14.454 33.7812 14.2344 33.7812H7.60938C7.38974 33.7812 7.17911 33.8685 7.0238 34.0238C6.8685 34.1791 6.78125 34.3897 6.78125 34.6094V35.4375H0.984375C0.764743 35.4375 0.554106 35.5247 0.398802 35.6801C0.243499 35.8354 0.15625 36.046 0.15625 36.2656V47.8594C0.15625 48.079 0.243499 48.2896 0.398802 48.4449C0.554106 48.6003 0.764743 48.6875 0.984375 48.6875H6.78125V49.5156C6.78125 49.7353 6.8685 49.9459 7.0238 50.1012C7.17911 50.2565 7.38974 50.3438 7.60938 50.3438H14.2344C14.454 50.3438 14.6646 50.2565 14.8199 50.1012C14.9753 49.9459 15.0625 49.7353 15.0625 49.5156V48.3712L16.1275 48.9036C16.9326 49.3053 17.8198 49.5147 18.7195 49.5156H31.1223C32.1399 49.5152 33.1394 49.2473 34.0208 48.7388L47.9333 40.706C48.6905 40.2638 49.2421 39.5401 49.4679 38.6927C49.6936 37.8454 49.5751 36.9431 49.1382 36.1828ZM1.8125 47.0312V37.0938H6.78125V47.0312H1.8125ZM13.4062 48.6875H8.4375V35.4375H13.4062V48.6875ZM47.1027 39.275L33.1902 47.3078C32.5607 47.6713 31.8467 47.8627 31.1198 47.8627H18.7195C18.0771 47.8617 17.4436 47.712 16.8686 47.4254L15.0625 46.5195V37.7413L19.811 36.5538C20.4936 36.384 21.2082 36.3899 21.8879 36.5712L34.2435 39.8837C34.4573 39.9366 34.6584 40.0315 34.835 40.163C35.0116 40.2945 35.1603 40.4599 35.2722 40.6495C35.3842 40.8391 35.4572 41.0492 35.487 41.2674C35.5168 41.4855 35.5028 41.7075 35.4458 41.9202C35.3888 42.1329 35.29 42.3321 35.1551 42.5061C35.0202 42.6802 34.8519 42.8256 34.6602 42.9338C34.4684 43.0421 34.257 43.111 34.0383 43.1366C33.8196 43.1621 33.598 43.1438 33.3864 43.0827L23.5094 40.4344C23.2976 40.3788 23.0724 40.4093 22.8831 40.5193C22.6937 40.6293 22.5557 40.8098 22.4991 41.0213C22.4425 41.2328 22.4719 41.4582 22.581 41.648C22.6901 41.8378 22.87 41.9768 23.0812 42.0343L32.9566 44.6843C33.2381 44.7598 33.5281 44.7982 33.8195 44.7986C34.2769 44.8021 34.7299 44.7097 35.1493 44.5273C35.5687 44.3449 35.9453 44.0766 36.2547 43.7398C36.564 43.403 36.7994 43.005 36.9455 42.5716C37.0916 42.1382 37.1453 41.679 37.103 41.2236L45.4439 36.4081C45.8256 36.1976 46.2739 36.1431 46.6948 36.2562C47.1158 36.3692 47.4765 36.6409 47.7014 37.0142C47.9193 37.394 47.9787 37.8444 47.8666 38.2677C47.7545 38.6909 47.48 39.0529 47.1027 39.275Z" fill="black"/>
</svg>
