<svg width="54" height="54" viewBox="0 0 54 54" fill="none" xmlns="http://www.w3.org/2000/svg">
<path d="M36.1094 2.98438H17.8906C16.9759 2.98438 16.2344 3.7259 16.2344 4.64062V37.7656C16.2344 38.6803 16.9759 39.4219 17.8906 39.4219H36.1094C37.0241 39.4219 37.7656 38.6803 37.7656 37.7656V4.64062C37.7656 3.7259 37.0241 2.98438 36.1094 2.98438Z" fill="#5798F7"/>
<path d="M32.7969 29.4844H21.2031C20.2884 29.4844 19.5469 30.2259 19.5469 31.1406V32.7969C19.5469 33.7116 20.2884 34.4531 21.2031 34.4531H32.7969C33.7116 34.4531 34.4531 33.7116 34.4531 32.7969V31.1406C34.4531 30.2259 33.7116 29.4844 32.7969 29.4844Z" fill="#A2CBF4"/>
<path d="M21.2031 2.98438V4.64062C21.2031 5.07989 21.3776 5.50116 21.6882 5.81177C21.9988 6.12238 22.4201 6.29687 22.8594 6.29688H31.1406C31.5799 6.29687 32.0011 6.12238 32.3118 5.81177C32.6224 5.50116 32.7969 5.07989 32.7969 4.64062V2.98438H21.2031Z" fill="#77ACF9"/>
<path d="M16.2344 37.7656V24.5156C16.2344 23.6371 15.8854 22.7945 15.2642 22.1733C14.643 21.5521 13.8004 21.2031 12.9219 21.2031H12.0938L11.2656 34.4531L2.15625 42.7344L9.60938 51.8438L17.8906 42.7344H22.3154C22.7504 42.7344 23.1812 42.6487 23.5831 42.4822C23.9849 42.3158 24.3501 42.0718 24.6577 41.7642L27 39.4219H17.8906C17.4514 39.4219 17.0301 39.2474 16.7195 38.9368C16.4089 38.6262 16.2344 38.2049 16.2344 37.7656Z" fill="#FCDCC8"/>
<path d="M38.9073 10.1274L37.452 11.5827C37.2889 11.7459 37.1595 11.9395 37.0712 12.1527C36.9829 12.3658 36.9375 12.5942 36.9375 12.8249C36.9375 14.39 38.8297 15.1738 39.9364 14.0671L41.3917 12.6118C41.7211 12.2824 41.9062 11.8355 41.9062 11.3696C41.9062 9.80455 40.014 9.02075 38.9073 10.1274Z" fill="#FCDCC8"/>
<path d="M32.9471 40.25C32.6064 42.0916 32.8416 43.9934 33.6206 45.6965C34.3996 47.3997 35.6845 48.8213 37.3005 49.768C38.9165 50.7146 40.7849 51.1402 42.6515 50.9868C44.518 50.8334 46.2919 50.1085 47.7317 48.9108C49.1714 47.7131 50.2071 46.1007 50.6976 44.2933C51.1881 42.4858 51.1097 40.5711 50.4729 38.8098C49.8362 37.0486 48.6721 35.5263 47.1392 34.4504C45.6063 33.3744 43.7791 32.7971 41.9062 32.7969C40.0307 32.7939 38.2004 33.3725 36.6674 34.4531L30.3125 34.4531L32.9471 40.25Z" fill="#EFB465"/>
<path d="M22.8594 25.3438H26.1719V27H22.8594V25.3438Z" fill="#85B4FA"/>
<path d="M27.8281 25.3438H31.1406V27H27.8281V25.3438Z" fill="#85B4FA"/>
<path d="M33.625 10.4375V14.5781H31.1406V22.0312H22.8594V14.5781H20.375V10.4375H25.3437V11.2656C25.3437 11.7049 25.5182 12.1262 25.8288 12.4368C26.1394 12.7474 26.5607 12.9219 27 12.9219C27.4392 12.9219 27.8605 12.7474 28.1711 12.4368C28.4817 12.1262 28.6562 11.7049 28.6562 11.2656V10.4375H33.625Z" fill="#EFB465"/>
<path d="M36.9375 39.4219L38.2801 44.7923C38.3697 45.1507 38.5765 45.4688 38.8676 45.6961C39.1588 45.9234 39.5175 46.0469 39.8869 46.0469H43.9256C44.2949 46.0469 44.6537 45.9234 44.9448 45.6961C45.236 45.4688 45.4428 45.1507 45.5324 44.7923L46.875 39.4219H36.9375Z" fill="#FFE8DE"/>
<path d="M35.5158 44.6299L41.3118 38.8339L42.4828 40.0049L36.6868 45.8009L35.5158 44.6299Z" fill="#EFC8B4"/>
<path d="M41.312 40.0078L42.4829 38.8368L48.279 44.6328L47.108 45.8038L41.312 40.0078Z" fill="#EFC8B4"/>
<path d="M38.9073 14.2681L37.452 15.7234C37.2889 15.8865 37.1595 16.0801 37.0712 16.2933C36.9829 16.5064 36.9375 16.7349 36.9375 16.9656C36.9375 18.5306 38.8297 19.3144 39.9364 18.2077L41.3917 16.7524C41.7211 16.423 41.9062 15.9762 41.9062 15.5102C41.9062 13.9452 40.014 13.1614 38.9073 14.2681Z" fill="#FCDCC8"/>
<path d="M38.9073 18.4087L37.452 19.864C37.2889 20.0271 37.1595 20.2208 37.0712 20.4339C36.9829 20.647 36.9375 20.8755 36.9375 21.1062C36.9375 22.6712 38.8297 23.455 39.9364 22.3484L41.3917 20.8931C41.7211 20.5636 41.9062 20.1168 41.9062 19.6509C41.9062 18.0858 40.014 17.302 38.9073 18.4087Z" fill="#FCDCC8"/>
<path d="M38.9073 22.5493L37.452 24.0046C37.2889 24.1677 37.1595 24.3614 37.0712 24.5745C36.9829 24.7877 36.9375 25.0161 36.9375 25.2468C36.9375 26.8119 38.8297 27.5957 39.9364 26.489L41.3917 25.0337C41.7211 24.7042 41.9062 24.2574 41.9062 23.7915C41.9062 22.2264 40.014 21.4426 38.9073 22.5493Z" fill="#FCDCC8"/>
<path d="M36.1094 38.5938H47.7031V40.25H36.1094V38.5938Z" fill="#EFC8B4"/>
<path d="M41.9062 31.9688C40.7779 31.9677 39.6577 32.1591 38.5937 32.5348V27.8424C38.6327 27.8442 38.6717 27.8453 38.7106 27.8453C39.048 27.8442 39.3819 27.7761 39.6929 27.645C40.0038 27.5139 40.2856 27.3224 40.522 27.0816L41.9772 25.6263C42.2374 25.3653 42.4391 25.0519 42.5687 24.7069C42.6983 24.3619 42.7529 23.9933 42.7288 23.6255C42.7048 23.2578 42.6027 22.8994 42.4294 22.5742C42.256 22.249 42.0154 21.9644 41.7234 21.7395L41.9772 21.4857C42.2379 21.2242 42.4398 20.9102 42.5693 20.5645C42.6989 20.2189 42.7532 19.8495 42.7286 19.4812C42.704 19.1128 42.6011 18.754 42.4267 18.4286C42.2523 18.1032 42.0105 17.8188 41.7174 17.5943L41.9772 17.3345C42.2373 17.0737 42.4388 16.7605 42.5684 16.4157C42.698 16.071 42.7528 15.7026 42.7289 15.335C42.7051 14.9675 42.6033 14.6092 42.4303 14.2841C42.2573 13.9589 42.017 13.6743 41.7255 13.4492L41.9772 13.1974C42.2778 12.8969 42.4997 12.5268 42.6231 12.12C42.7465 11.7132 42.7676 11.2823 42.6847 10.8654C42.6018 10.4484 42.4173 10.0584 42.1476 9.7298C41.878 9.4012 41.5314 9.14418 41.1387 8.98151C40.724 8.80442 40.2696 8.74102 39.8223 8.79784C39.375 8.85466 38.951 9.02965 38.5937 9.30479V4.64063C38.593 3.98196 38.331 3.35049 37.8652 2.88474C37.3995 2.41899 36.768 2.157 36.1094 2.15625H17.8906C17.2319 2.157 16.6005 2.41899 16.1347 2.88474C15.669 3.35049 15.407 3.98196 15.4062 4.64063V21.2054C14.6905 20.6656 13.8183 20.3741 12.9219 20.375H12.0937C11.883 20.375 11.6803 20.4553 11.5267 20.5996C11.3732 20.7438 11.2804 20.9412 11.2672 21.1515L10.46 34.0663L1.59918 42.1216L2.71329 43.3472L11.8227 35.0659C11.982 34.921 12.0787 34.7197 12.0921 34.5048L12.8717 22.0313H12.9219C13.5805 22.032 14.212 22.294 14.6777 22.7597C15.1435 23.2255 15.4055 23.857 15.4062 24.5156V37.7656C15.407 38.4243 15.669 39.0558 16.1347 39.5215C16.6005 39.9873 17.2319 40.2492 17.8906 40.25H25.0007L24.0721 41.1786C23.8419 41.41 23.5682 41.5935 23.2666 41.7184C22.9651 41.8433 22.6418 41.9072 22.3154 41.9063H17.8906C17.7752 41.9063 17.6611 41.9304 17.5556 41.977C17.4501 42.0237 17.3555 42.0919 17.2779 42.1773L8.99661 51.2866L10.2221 52.4009L18.257 43.5625H22.3154C22.8594 43.564 23.3982 43.4576 23.9008 43.2494C24.4034 43.0412 24.8597 42.7354 25.2433 42.3497L27.343 40.25H32.0375L32.0882 40.3617C31.7723 42.3687 32.0791 44.4242 32.9673 46.2515C33.8555 48.0788 35.2823 49.5899 37.0556 50.5814C38.829 51.5729 40.8636 51.997 42.8853 51.7967C44.9071 51.5964 46.819 50.7813 48.3633 49.4611C49.9076 48.141 51.0102 46.3792 51.5225 44.4132C52.0349 42.4472 51.9324 40.3714 51.2288 38.4654C50.5253 36.5594 49.2545 34.9149 47.5876 33.7533C45.9207 32.5917 43.9379 31.9689 41.9062 31.9688ZM38.0376 12.1684L39.4929 10.713C39.5753 10.6262 39.6746 10.5571 39.7846 10.5099C39.8946 10.4627 40.0131 10.4383 40.1328 10.4383C40.2604 10.4388 40.3867 10.4637 40.5048 10.5117C40.6759 10.58 40.8223 10.6985 40.9247 10.8517C41.027 11.0048 41.0805 11.1854 41.0781 11.3696C41.0784 11.4916 41.0546 11.6125 41.0079 11.7252C40.9612 11.8379 40.8926 11.9402 40.8061 12.0262L39.3508 13.4815C39.221 13.6114 39.0555 13.6998 38.8754 13.7356C38.6953 13.7715 38.5086 13.7531 38.3389 13.6828C38.1692 13.6125 38.0242 13.4935 37.9221 13.3408C37.8201 13.1881 37.7656 13.0086 37.7656 12.8249C37.7653 12.7029 37.7891 12.5821 37.8358 12.4694C37.8825 12.3567 37.9511 12.2544 38.0376 12.1684ZM38.0376 16.3054L38.9374 15.4057C39.5363 15.3493 40.0961 15.0838 40.5188 14.6558C40.6864 14.7255 40.8292 14.8438 40.9289 14.9955C41.0286 15.1472 41.0806 15.3252 41.0781 15.5067C41.0784 15.6287 41.0546 15.7496 41.0079 15.8623C40.9612 15.975 40.8926 16.0773 40.8061 16.1633L39.3508 17.6187C39.2209 17.7486 39.0555 17.837 38.8753 17.8728C38.6952 17.9086 38.5085 17.8902 38.3388 17.8199C38.1691 17.7496 38.0241 17.6306 37.9221 17.4779C37.8201 17.3252 37.7656 17.1457 37.7656 16.962C37.7653 16.84 37.7891 16.7192 37.8358 16.6065C37.8825 16.4938 37.9511 16.3915 38.0376 16.3054ZM38.0376 20.4567L38.9526 19.5416C39.5411 19.4825 40.0909 19.2214 40.5085 18.8027C40.6786 18.8711 40.8241 18.9894 40.9257 19.1421C41.0274 19.2947 41.0805 19.4745 41.0781 19.6579C41.0784 19.7799 41.0546 19.9007 41.0079 20.0135C40.9612 20.1262 40.8926 20.2285 40.8061 20.3146L39.3508 21.7698C39.221 21.8997 39.0555 21.9881 38.8754 22.024C38.6953 22.0598 38.5086 22.0414 38.3389 21.9711C38.1692 21.9009 38.0242 21.7818 37.9221 21.6291C37.8201 21.4764 37.7656 21.2969 37.7656 21.1133C37.7653 20.9913 37.7891 20.8704 37.8358 20.7577C37.8825 20.645 37.9511 20.5427 38.0376 20.4567ZM38.0376 24.5973L38.9412 23.6937C39.5375 23.6366 40.0949 23.3721 40.5163 22.9464C40.6845 23.0159 40.8279 23.1342 40.9281 23.2861C41.0283 23.4381 41.0805 23.6165 41.0781 23.7985C41.0784 23.9205 41.0546 24.0414 41.0079 24.1541C40.9612 24.2668 40.8926 24.3691 40.8061 24.4552L39.3508 25.9105C39.221 26.0403 39.0555 26.1288 38.8754 26.1646C38.6953 26.2004 38.5086 26.182 38.3389 26.1118C38.1692 26.0415 38.0242 25.9225 37.9221 25.7698C37.8201 25.6171 37.7656 25.4375 37.7656 25.2539C37.7653 25.1319 37.7891 25.0111 37.8358 24.8983C37.8825 24.7856 37.9511 24.6833 38.0376 24.5973ZM22.0312 3.8125H31.9687V4.64063C31.9685 4.86018 31.8812 5.07067 31.7259 5.22592C31.5707 5.38117 31.3602 5.4685 31.1406 5.46875H22.8594C22.6398 5.4685 22.4293 5.38117 22.2741 5.22592C22.1188 5.07067 22.0315 4.86018 22.0312 4.64063V3.8125ZM17.8906 38.5938C17.6711 38.5935 17.4606 38.5062 17.3053 38.3509C17.1501 38.1957 17.0627 37.9852 17.0625 37.7656V4.64063C17.0627 4.42107 17.1501 4.21058 17.3053 4.05533C17.4606 3.90008 17.6711 3.81275 17.8906 3.8125H20.375V4.64063C20.3757 5.29929 20.6377 5.93076 21.1035 6.39651C21.5692 6.86226 22.2007 7.12425 22.8594 7.125H31.1406C31.7993 7.12425 32.4307 6.86226 32.8965 6.39651C33.3622 5.93076 33.6242 5.29929 33.625 4.64063V3.8125H36.1094C36.3289 3.81275 36.5394 3.90008 36.6947 4.05533C36.8499 4.21058 36.9372 4.42107 36.9375 4.64063V10.9261L36.8665 10.9971C36.6257 11.2366 36.4348 11.5215 36.3048 11.8352C36.1749 12.1489 36.1084 12.4853 36.1094 12.8249C36.1053 13.2227 36.1948 13.6158 36.3707 13.9727C36.5465 14.3295 36.8037 14.6399 37.1216 14.8791L36.8665 15.1342C36.6257 15.3737 36.4348 15.6585 36.3048 15.9723C36.1749 16.286 36.1084 16.6224 36.1094 16.962C36.1053 17.3615 36.1956 17.7563 36.3729 18.1143C36.5502 18.4723 36.8094 18.7834 37.1297 19.0223L36.8665 19.2855C36.6257 19.5249 36.4348 19.8098 36.3048 20.1235C36.1749 20.4373 36.1084 20.7737 36.1094 21.1133C36.1053 21.5114 36.195 21.905 36.3712 22.2621C36.5474 22.6192 36.8052 22.9299 37.1236 23.1689L36.8665 23.4261C36.6205 23.6726 36.4268 23.9661 36.2968 24.2891C36.1668 24.6121 36.1032 24.958 36.1098 25.3061C36.1165 25.6543 36.1932 25.9975 36.3354 26.3153C36.4776 26.6331 36.6823 26.9191 36.9375 27.156V33.2996C36.7595 33.4028 36.5836 33.5104 36.4113 33.625H30.3125C30.1739 33.625 30.0376 33.6598 29.916 33.7261C29.7943 33.7925 29.6913 33.8883 29.6163 34.0048C29.5412 34.1212 29.4966 34.2547 29.4866 34.3929C29.4765 34.5311 29.5012 34.6696 29.5586 34.7957L31.2847 38.5938H17.8906ZM41.9062 50.1875C40.6914 50.1863 39.4917 49.9181 38.392 49.4019C37.2923 48.8857 36.3195 48.1341 35.5425 47.2003C34.7654 46.2665 34.2031 45.1733 33.8954 43.9981C33.5876 42.8229 33.5419 41.5944 33.7616 40.3996C33.7921 40.2332 33.771 40.0614 33.701 39.9074L31.5985 35.2813H36.6674C36.8381 35.2812 37.0046 35.2285 37.1442 35.1302C38.209 34.382 39.4351 33.8951 40.7232 33.7093C42.0112 33.5234 43.3249 33.6437 44.5578 34.0604C45.7907 34.4772 46.908 35.1786 47.8191 36.1078C48.7303 37.037 49.4096 38.1679 49.802 39.4087C50.1944 40.6495 50.2889 41.9654 50.0778 43.2495C49.8666 44.5337 49.3558 45.75 48.5868 46.7999C47.8177 47.8497 46.8121 48.7036 45.6514 49.2921C44.4907 49.8807 43.2076 50.1875 41.9062 50.1875Z" fill="#0F3C68"/>
<path d="M20.375 32.7969V31.1406C20.3753 30.9211 20.4626 30.7106 20.6178 30.5553C20.7731 30.4001 20.9836 30.3128 21.2031 30.3125H32.7969C33.0164 30.3128 33.2269 30.4001 33.3822 30.5553C33.5374 30.7106 33.6247 30.9211 33.625 31.1406V31.9688H35.2812V31.1406C35.2805 30.482 35.0185 29.8505 34.5528 29.3847C34.087 28.919 33.4555 28.657 32.7969 28.6562H21.2031C20.5445 28.657 19.913 28.919 19.4472 29.3847C18.9815 29.8505 18.7195 30.482 18.7188 31.1406V32.7969C18.7195 33.4555 18.9815 34.087 19.4472 34.5528C19.913 35.0185 20.5445 35.2805 21.2031 35.2812H27.8281V33.625H21.2031C20.9836 33.6247 20.7731 33.5374 20.6178 33.3822C20.4626 33.2269 20.3753 33.0164 20.375 32.7969Z" fill="#0F3C68"/>
<path d="M22.8594 25.3438H26.1719V27H22.8594V25.3438Z" fill="#0F3C68"/>
<path d="M27.8281 25.3438H31.1406V27H27.8281V25.3438Z" fill="#0F3C68"/>
<path d="M20.375 15.4062H22.0312V22.0312C22.0313 22.2509 22.1185 22.4615 22.2738 22.6168C22.4291 22.7721 22.6397 22.8594 22.8594 22.8594H31.1406C31.3603 22.8594 31.5709 22.7721 31.7262 22.6168C31.8815 22.4615 31.9687 22.2509 31.9688 22.0312V15.4062H33.625C33.8446 15.4062 34.0553 15.319 34.2106 15.1637C34.3659 15.0084 34.4531 14.7978 34.4531 14.5781V10.4375C34.4531 10.2179 34.3659 10.0072 34.2106 9.85193C34.0553 9.69663 33.8446 9.60938 33.625 9.60938H28.6562C28.4366 9.60938 28.226 9.69663 28.0707 9.85193C27.9154 10.0072 27.8281 10.2179 27.8281 10.4375V11.2656C27.8281 11.4853 27.7409 11.6959 27.5856 11.8512C27.4303 12.0065 27.2196 12.0938 27 12.0938C26.7804 12.0938 26.5697 12.0065 26.4144 11.8512C26.2591 11.6959 26.1719 11.4853 26.1719 11.2656V10.4375C26.1719 10.2179 26.0846 10.0072 25.9293 9.85193C25.774 9.69663 25.5634 9.60938 25.3438 9.60938H20.375C20.1554 9.60938 19.9447 9.69663 19.7894 9.85193C19.6341 10.0072 19.5469 10.2179 19.5469 10.4375V14.5781C19.5469 14.7978 19.6341 15.0084 19.7894 15.1637C19.9447 15.319 20.1554 15.4062 20.375 15.4062ZM21.2031 11.2656H24.5156C24.5156 11.9245 24.7774 12.5564 25.2433 13.0223C25.7092 13.4883 26.3411 13.75 27 13.75C27.6589 13.75 28.2908 13.4883 28.7567 13.0223C29.2226 12.5564 29.4844 11.9245 29.4844 11.2656H32.7969V13.75H31.1406C30.921 13.75 30.7104 13.8373 30.5551 13.9926C30.3998 14.1479 30.3125 14.3585 30.3125 14.5781V21.2031H23.6875V14.5781C23.6875 14.3585 23.6002 14.1479 23.4449 13.9926C23.2896 13.8373 23.079 13.75 22.8594 13.75H21.2031V11.2656Z" fill="#0F3C68"/>
<path d="M48.5312 40.25V38.5938H35.2812V40.25H36.2909L37.0141 43.1428L35.5238 44.6331L36.6949 45.8044L37.4834 45.0159C37.6211 45.5484 37.932 46.0201 38.3671 46.3566C38.8022 46.6931 39.3368 46.8755 39.8869 46.875H43.9256C44.4757 46.8755 45.0103 46.6931 45.4454 46.3566C45.8805 46.0201 46.1913 45.5484 46.3291 45.0159L47.1175 45.8044L48.2887 44.6331L46.7984 43.1428L47.5216 40.25H48.5312ZM37.9981 40.25H39.9069L38.3799 41.777L37.9981 40.25ZM44.729 44.5915C44.6843 44.7707 44.581 44.9299 44.4354 45.0436C44.2898 45.1573 44.1103 45.2189 43.9256 45.2188H39.8869C39.7021 45.2189 39.5227 45.1573 39.3771 45.0436C39.2315 44.9299 39.1281 44.7707 39.0835 44.5915L38.8484 43.6509L41.9062 40.5931L44.9641 43.6509L44.729 44.5915ZM45.4326 41.777L43.9055 40.25H45.8143L45.4326 41.777Z" fill="#0F3C68"/>
</svg>
