<svg width="54" height="54" viewBox="0 0 54 54" fill="none" xmlns="http://www.w3.org/2000/svg">
<g clip-path="url(#clip0_200_4481)">
<path d="M49.0147 11.1162H4.98532V48.8011H49.0147V11.1162Z" fill="#E9EAEB"/>
<path d="M49.0147 11.1162H43.4248V48.8011H49.0147V11.1162Z" fill="#B9BBC1"/>
<path d="M49.1682 11.1163H4.83182V4.93005C4.83182 4.43576 5.23242 4.03516 5.72671 4.03516H48.2733C48.7676 4.03516 49.1682 4.43576 49.1682 4.93005V11.1163Z" fill="#FDC74F"/>
<path d="M48.2733 4.03516H43.5783V8.69222H49.1682V4.93005C49.1682 4.43576 48.7675 4.03516 48.2733 4.03516Z" fill="#FCA629"/>
<path d="M4.98555 22.3341C2.95913 22.3341 1.31644 20.6914 1.31644 18.665V15.6758H8.65456V18.665C8.65456 20.6914 7.01187 22.3341 4.98555 22.3341Z" fill="#E60D28"/>
<path d="M12.3237 22.3341C10.2972 22.3341 8.65454 20.6914 8.65454 18.665V15.6758H15.9927V18.665C15.9928 20.6914 14.3501 22.3341 12.3237 22.3341Z" fill="#F2F2F2"/>
<path d="M19.6619 22.3341C17.6355 22.3341 15.9928 20.6914 15.9928 18.665V15.6758H23.3309V18.665C23.3309 20.6914 21.6882 22.3341 19.6619 22.3341Z" fill="#E60D28"/>
<path d="M27 22.3341C24.9736 22.3341 23.3309 20.6914 23.3309 18.665V15.6758H30.669V18.665C30.6691 20.6914 29.0264 22.3341 27 22.3341Z" fill="#F2F2F2"/>
<path d="M34.3382 22.3341C32.3118 22.3341 30.6691 20.6914 30.6691 18.665V15.6758H38.0072V18.665C38.0072 20.6914 36.3645 22.3341 34.3382 22.3341Z" fill="#E60D28"/>
<path d="M41.6763 22.3341C39.6499 22.3341 38.0072 20.6914 38.0072 18.665V15.6758H45.3453V18.665C45.3455 20.6914 43.7028 22.3341 41.6763 22.3341Z" fill="#F2F2F2"/>
<path d="M49.0144 22.3341C46.988 22.3341 45.3453 20.6914 45.3453 18.665V15.6758H52.6835V18.665C52.6836 20.6914 51.0409 22.3341 49.0144 22.3341Z" fill="#E60D28"/>
<path d="M8.65456 15.6764H1.31644L4.8281 8.69238H11.1629L8.65456 15.6764Z" fill="#FC502A"/>
<path d="M15.9928 15.6764H8.65454L11.1629 8.69238H17.4978L15.9928 15.6764Z" fill="white"/>
<path d="M23.3309 15.6764H15.9928L17.4978 8.69238H23.8326L23.3309 15.6764Z" fill="#FC502A"/>
<path d="M30.6691 15.6764H23.3309L23.8326 8.69238H30.1674L30.6691 15.6764Z" fill="white"/>
<path d="M38.0072 15.6764H30.6691L30.1674 8.69238H36.5022L38.0072 15.6764Z" fill="#FC502A"/>
<path d="M45.3455 15.6764H38.0072L36.5022 8.69238H42.8371L45.3455 15.6764Z" fill="white"/>
<path d="M52.6836 15.6764H45.3455L42.8371 8.69238H49.1719L52.6836 15.6764Z" fill="#FC502A"/>
<path d="M51.0478 45.3584H2.95208C2.02654 45.3584 1.27637 46.1087 1.27637 47.0342V49.4899C1.27637 49.7522 1.48909 49.9649 1.7514 49.9649H52.2486C52.5109 49.9649 52.7236 49.7522 52.7236 49.4899V47.0342C52.7236 46.1087 51.9734 45.3584 51.0478 45.3584Z" fill="#8B8996"/>
<path d="M51.0479 45.3584H47.1166V49.9648H52.2487C52.511 49.9648 52.7237 49.7522 52.7237 49.4898V47.0341C52.7236 46.1087 51.9734 45.3584 51.0479 45.3584Z" fill="#706F7F"/>
<path d="M44.6778 40.4333H22.0778C21.7091 40.4333 21.4102 40.1344 21.4102 39.7656V27.3298C21.4102 26.9611 21.7091 26.6621 22.0778 26.6621H44.6778C45.0465 26.6621 45.3455 26.9611 45.3455 27.3298V39.7656C45.3455 40.1345 45.0465 40.4333 44.6778 40.4333Z" fill="#00C6C8"/>
<path d="M44.6778 26.6621H39.7383V40.4333H44.6778C45.0465 40.4333 45.3454 40.1344 45.3454 39.7656V27.3298C45.3454 26.961 45.0465 26.6621 44.6778 26.6621Z" fill="#0FB0C0"/>
<path d="M18.236 45.3585H7.92487V27.3298C7.92487 26.9611 8.22382 26.6621 8.59254 26.6621H17.5683C17.937 26.6621 18.236 26.9611 18.236 27.3298V45.3585Z" fill="#00C6C8"/>
<path d="M17.5683 26.6621H12.6288V45.3586H18.2359V27.3298C18.2359 26.961 17.937 26.6621 17.5683 26.6621Z" fill="#0FB0C0"/>
<path d="M15.3545 37.2227C15.7833 37.2227 16.1309 36.8751 16.1309 36.4463V35.0488C16.1309 34.6201 15.7833 34.2725 15.3545 34.2725C14.9257 34.2725 14.5781 34.6201 14.5781 35.0488V36.4463C14.5781 36.8751 14.9257 37.2227 15.3545 37.2227Z" fill="black"/>
<path d="M51.0479 44.582H49.7909V23.0416C51.8731 22.673 53.46 20.8517 53.46 18.6653V15.6762C53.46 15.661 53.4586 15.6461 53.4578 15.6311C53.4572 15.6227 53.4572 15.6143 53.4565 15.6059C53.4537 15.5753 53.4495 15.5452 53.4433 15.5158C53.443 15.514 53.4423 15.5123 53.4419 15.5107C53.4358 15.4824 53.4278 15.4549 53.4187 15.4279C53.4165 15.421 53.4138 15.4142 53.4113 15.4075C53.4027 15.3843 53.3932 15.3617 53.3825 15.3397C53.3805 15.3356 53.3793 15.3314 53.3773 15.3275L49.9445 8.50072V4.93005C49.9445 4.00855 49.1948 3.25879 48.2733 3.25879H12.9691C12.5403 3.25879 12.1927 3.60639 12.1927 4.03516C12.1927 4.46392 12.5403 4.81152 12.9691 4.81152H48.2733C48.3386 4.81152 48.3918 4.86473 48.3918 4.93005V7.91585H5.60819V4.93005C5.60819 4.86473 5.66139 4.81152 5.72671 4.81152H9.3568C9.78556 4.81152 10.1332 4.46392 10.1332 4.03516C10.1332 3.60639 9.78556 3.25879 9.3568 3.25879H5.72671C4.80521 3.25879 4.05545 4.00855 4.05545 4.93005V8.50072L0.62277 15.3275C0.620803 15.3315 0.619457 15.3357 0.617594 15.3397C0.606932 15.3617 0.597408 15.3843 0.588816 15.4075C0.586332 15.4143 0.583641 15.421 0.581363 15.4279C0.572254 15.4549 0.564283 15.4824 0.558176 15.5107C0.557762 15.5123 0.557244 15.514 0.55683 15.5158C0.550619 15.5453 0.546271 15.5753 0.54358 15.6059C0.542855 15.6143 0.542855 15.6227 0.542338 15.6311C0.54151 15.6461 0.540061 15.661 0.540061 15.6762V18.6653C0.540061 20.8516 2.12696 22.673 4.20917 23.0416V44.582H2.95208C1.59996 44.582 0.5 45.6821 0.5 47.0342V49.4898C0.5 50.1798 1.06137 50.7412 1.7514 50.7412H52.2486C52.9386 50.7412 53.5 50.1798 53.5 49.4898V47.0342C53.5 45.6821 52.4 44.582 51.0479 44.582ZM51.9072 18.6654C51.9072 20.2605 50.6095 21.5582 49.0145 21.5582C47.4194 21.5582 46.1217 20.2605 46.1217 18.6654V16.4527H51.9072V18.6654ZM48.6933 9.46859L51.4242 14.8998H45.8915L43.9408 9.46859H48.6933ZM42.2909 9.46859L44.2416 14.8998H38.6341L37.4637 9.46859H42.2909ZM44.5691 16.4526V18.6653C44.5691 20.2604 43.2714 21.5581 41.6763 21.5581C40.0813 21.5581 38.7836 20.2604 38.7836 18.6653V16.4526H44.5691ZM35.8753 9.46859L37.0458 14.8998H31.3918L31.0016 9.46859H35.8753ZM37.2309 16.4526V18.6653C37.2309 20.2604 35.9332 21.5581 34.3382 21.5581C32.7433 21.5581 31.4455 20.2604 31.4455 18.6653V16.4526H37.2309ZM24.5552 9.46859H29.4447L29.8349 14.8998H24.165L24.5552 9.46859ZM24.1073 16.4526H29.8927V18.6653C29.8927 20.2604 28.5951 21.5581 27 21.5581C25.4049 21.5581 24.1073 20.2604 24.1073 18.6653V16.4526ZM27 23.1108C28.5221 23.1108 29.8675 22.3416 30.6691 21.1718C31.4707 22.3416 32.8161 23.1108 34.3382 23.1108C35.8603 23.1108 37.2057 22.3416 38.0072 21.1718C38.8089 22.3416 40.1542 23.1108 41.6763 23.1108C43.1984 23.1108 44.5438 22.3416 45.3455 21.1718C46.0075 22.138 47.0409 22.8297 48.2382 23.0416V44.582H19.0123V27.3297C19.0123 26.5334 18.3645 25.8856 17.5683 25.8856H8.59254C7.7963 25.8856 7.1485 26.5334 7.1485 27.3297V44.582H5.76191V23.0416C6.95917 22.8297 7.99256 22.138 8.65465 21.1718C9.45627 22.3416 10.8017 23.1108 12.3238 23.1108C13.8459 23.1108 15.1912 22.3416 15.9929 21.1718C16.7945 22.3416 18.1399 23.1108 19.6619 23.1108C21.1839 23.1108 22.5294 22.3416 23.331 21.1718C24.1325 22.3416 25.4779 23.1108 27 23.1108ZM17.4596 27.4384V44.582H8.70123V27.4384H17.4596ZM9.43091 18.6654V16.4527H15.2164V18.6654C15.2164 20.2605 13.9187 21.5582 12.3237 21.5582C10.7286 21.5582 9.43091 20.2604 9.43091 18.6654ZM18.1247 9.46859H22.9984L22.6082 14.8998H16.9542L18.1247 9.46859ZM16.7691 16.4526H22.5545V18.6653C22.5545 20.2604 21.2568 21.5581 19.6618 21.5581C18.0667 21.5581 16.7691 20.2604 16.7691 18.6653V16.4526ZM16.5362 9.46859L15.3658 14.8998H9.75833L11.709 9.46859H16.5362ZM5.30675 9.46859H10.0592L8.1085 14.8998H2.5758L5.30675 9.46859ZM2.09279 18.6654V16.4527H7.87828V18.6654C7.87828 20.2605 6.58061 21.5582 4.98554 21.5582C3.39047 21.5582 2.09279 20.2604 2.09279 18.6654ZM51.9473 49.1885H2.05273V47.0341C2.05273 46.5382 2.45613 46.1348 2.95208 46.1348H51.0478C51.5438 46.1348 51.9472 46.5382 51.9472 47.0341V49.1885H51.9473Z" fill="black"/>
<path d="M20.6338 27.3298V39.7657C20.6338 40.562 21.2816 41.2098 22.0778 41.2098H44.6777C45.4739 41.2098 46.1217 40.562 46.1217 39.7657V27.3298C46.1217 26.5335 45.4739 25.8857 44.6777 25.8857H35.1839C34.7552 25.8857 34.4076 26.2333 34.4076 26.6621C34.4076 27.0909 34.7552 27.4385 35.1839 27.4385H44.5691V39.6569H22.1865V27.4385H31.5288C31.9576 27.4385 32.3052 27.0909 32.3052 26.6621C32.3052 26.2333 31.9576 25.8857 31.5288 25.8857H22.0778C21.2816 25.8857 20.6338 26.5334 20.6338 27.3298Z" fill="black"/>
</g>
<defs>
<clipPath id="clip0_200_4481">
<rect width="53" height="53" fill="white" transform="translate(0.5 0.5)"/>
</clipPath>
</defs>
</svg>
