<svg width="54" height="54" viewBox="0 0 54 54" fill="none" xmlns="http://www.w3.org/2000/svg">
<path d="M22.648 10.3136C23.5925 8.48509 24.8243 7.24352 25.3994 7.5404C23.5709 6.59592 21.3228 7.31246 20.3783 9.14117C19.4338 10.9697 20.1504 13.2178 21.9791 14.1623C21.4039 13.8654 21.7035 12.1421 22.648 10.3136Z" fill="#89AADB"/>
<path d="M25.3994 7.54004C25.9746 7.83713 25.675 9.56025 24.7305 11.3888C23.786 13.2172 22.5542 14.4588 21.9791 14.1619C23.8076 15.1064 26.0557 14.3899 27.0002 12.5612C27.9447 10.7327 27.2279 8.48472 25.3994 7.54004Z" fill="#4B67B0"/>
<path d="M24.7382 11.3782C25.6829 9.54855 25.9822 7.82446 25.4068 7.52736C24.8313 7.23026 23.599 8.47265 22.6544 10.3023C21.7097 12.132 21.4104 13.8561 21.9858 14.1532C22.5612 14.4503 23.7935 13.2079 24.7382 11.3782Z" fill="#6287C5"/>
<path d="M23.6891 15.3027C21.2348 15.3027 19.238 13.3059 19.238 10.8516C19.238 8.39721 21.2348 6.40039 23.6891 6.40039C26.1435 6.40039 28.1403 8.39721 28.1403 10.8516C28.1403 13.3059 26.1435 15.3027 23.6891 15.3027ZM23.6891 7.84961C22.0339 7.84961 20.6872 9.19635 20.6872 10.8516C20.6872 12.5068 22.0339 13.8535 23.6891 13.8535C25.3444 13.8535 26.6911 12.5068 26.6911 10.8516C26.6911 9.19635 25.3444 7.84961 23.6891 7.84961Z" fill="#1C2D6B"/>
<path d="M28.7817 31.5538L24.4343 21.3037C23.9481 20.1576 23.1372 19.1789 22.1014 18.4883L20.8756 17.6709C19.4928 21.3981 16.1114 28.7725 16.1114 28.7725L18.4989 35.695L18.5546 36.8263L18.7206 36.9372L21.3975 46.8749H24.3976L22.9809 35.6952L18.3047 29.4843L21.2791 23.403L26.6549 32.6196C26.8685 32.9858 27.2604 33.2109 27.6844 33.2109C28.5382 33.2111 29.115 32.3399 28.7817 31.5538Z" fill="#4B67B0"/>
<path d="M18.7185 16.2549C16.9936 15.276 14.9009 15.1506 13.0618 15.9387L7.54114 18.3047L6.50391 25.5628C6.39543 26.3215 6.98422 27.0002 7.75065 27.0002C8.35104 27.0002 8.86779 26.5764 8.9856 25.9878L10.0255 20.789L14.1309 19.8417L11.2675 27L8.78333 46.875H12.5099L13.1364 43.7424L13.9492 27C13.9492 27 16.9281 19.5173 18.7185 16.2549Z" fill="#89AADB"/>
<path d="M16.1114 28.773C16.1114 28.773 19.493 21.3986 20.8756 17.6714L19.11 16.4942C18.9821 16.4089 18.8513 16.33 18.7188 16.2549C16.9283 19.5173 13.9494 27.0002 13.9494 27.0002L13.1366 43.7426L14.9945 34.4533L15.3771 34.7084L15.6524 34.892L18.5546 36.8268L18.4989 35.6955L16.1114 28.773Z" fill="#6287C5"/>
<path d="M24.3978 47.5994H21.3977C21.07 47.5994 20.7833 47.3795 20.6982 47.0632L18.0921 37.3886L15.4928 35.656L13.2206 47.0168C13.1529 47.3555 12.8554 47.5992 12.5101 47.5992H8.78351C8.57566 47.5992 8.37794 47.51 8.24026 47.3541C8.1028 47.1982 8.03862 46.9909 8.06449 46.7847L10.5489 26.9097C10.5565 26.8482 10.5721 26.788 10.5952 26.7304L12.9438 20.8588L10.6447 21.3894L9.69652 26.1296C9.51164 27.0536 8.69346 27.7244 7.75105 27.7244C7.1755 27.7244 6.62935 27.4751 6.25214 27.0404C5.87514 26.6056 5.70558 26.0296 5.78694 25.4599L6.82417 18.2018C6.85999 17.9515 7.02354 17.7378 7.25604 17.6382L12.7769 15.2725C14.9905 14.3235 17.5084 14.5551 19.5123 15.8909L22.5037 17.8852C23.6606 18.6566 24.5589 19.7406 25.1017 21.0207L29.4492 31.2708C29.7009 31.8644 29.6388 32.5395 29.2827 33.0772C28.9266 33.6148 28.3295 33.9355 27.6848 33.9355C27.006 33.9355 26.3716 33.5712 26.0294 32.9846L21.3356 24.9373L19.1512 29.4034L23.56 35.2595C23.6359 35.3601 23.6842 35.4792 23.6999 35.6042L25.1166 46.7839C25.1427 46.9903 25.0789 47.198 24.9415 47.3541C24.8038 47.51 24.6059 47.5994 24.3978 47.5994ZM21.953 46.1502H23.5755L22.2863 35.9771L17.726 29.92C17.5621 29.7022 17.5341 29.4109 17.654 29.1657L20.6284 23.0844C20.7458 22.8443 20.9857 22.6884 21.2528 22.6786C21.5219 22.6701 21.7706 22.807 21.9052 23.0376L27.2809 32.2542C27.3644 32.3971 27.519 32.4861 27.6844 32.4861C27.9109 32.4861 28.0322 32.3397 28.0739 32.2768C28.1157 32.2139 28.203 32.0449 28.1144 31.8364L23.767 21.5863C23.3349 20.5677 22.6198 19.7046 21.6992 19.0908L18.7078 17.0964C17.1128 16.0331 15.1089 15.8493 13.3471 16.6041L8.20072 18.8098L7.22126 25.6646C7.19124 25.875 7.28689 26.0218 7.34672 26.0907C7.40634 26.1597 7.53822 26.2752 7.75064 26.2752C8.00466 26.2752 8.22515 26.0944 8.27505 25.8454L9.31496 20.6466C9.37086 20.3673 9.58514 20.1466 9.86256 20.0827L13.968 19.1353C14.2311 19.0746 14.5057 19.1649 14.6812 19.3699C14.8568 19.5746 14.904 19.8601 14.8038 20.1104L11.9751 27.1822L9.60419 46.1502H11.9159L14.2837 34.3107C14.3311 34.0736 14.4936 33.8759 14.717 33.7834C14.9404 33.6906 15.1951 33.7157 15.3963 33.8498L19.1229 36.334C19.269 36.4315 19.3748 36.5787 19.4206 36.7485L21.953 46.1502Z" fill="#1C2D6B"/>
<path d="M37.2592 36.4811C37.181 36.4811 37.1013 36.4682 37.0232 36.4413L4.40439 25.201C4.02594 25.0706 3.82491 24.6581 3.95534 24.2799C4.08557 23.9014 4.49818 23.7002 4.87643 23.8309L37.4952 35.0712C37.8737 35.2016 38.0747 35.614 37.9443 35.9923C37.8408 36.2927 37.5598 36.4811 37.2592 36.4811Z" fill="#1C2D6B"/>
<path d="M45.0885 31.9263C44.6755 30.481 43.3544 29.4844 41.8512 29.4844C41.1827 29.4844 40.55 29.6837 40.0161 30.0314C40.237 30.4634 40.4065 31.1255 40.4827 31.9263L41.9065 46.875H49.3596L45.0885 31.9263Z" fill="#D3BA2A"/>
<path d="M37.1447 36.962C37.5155 36.962 37.8447 36.2496 37.9615 35.1942L38.1797 33.2236L37.5251 35.1942C37.1743 36.2498 36.187 36.962 35.0746 36.962C33.9151 36.962 32.8372 37.5587 32.2215 38.5412L27 46.8753H34.4531L36.1936 38.5412C36.3988 37.5587 36.7582 36.962 37.1447 36.962Z" fill="#EDE49D"/>
<path d="M40.0161 30.0312C39.3916 30.4377 38.9026 31.0476 38.6561 31.7896L38.1797 33.2233L37.9615 35.1938C37.8445 36.2494 37.5155 36.9616 37.1447 36.9616C36.7582 36.9616 36.399 37.5583 36.1936 38.5409L34.4531 46.8751H41.9065L40.4827 31.9264C40.4065 31.1254 40.237 30.4633 40.0161 30.0312Z" fill="#EEE045"/>
<path d="M49.3596 47.5996H27C26.7365 47.5996 26.4936 47.4566 26.3661 47.2259C26.2383 46.9953 26.246 46.7137 26.3859 46.4903L31.6077 38.1563C32.3605 36.9545 33.6565 36.2371 35.0748 36.2371C35.8765 36.2371 36.5847 35.7262 36.8375 34.9653L37.9685 31.5611C38.5252 29.8856 40.0856 28.7598 41.8512 28.7598C43.6683 28.7598 45.286 29.98 45.7852 31.7271L50.0562 46.676C50.1188 46.8947 50.0749 47.1299 49.938 47.3114C49.8012 47.4928 49.5869 47.5996 49.3596 47.5996ZM28.3091 46.1504H48.399L44.3919 32.1253C44.0695 30.9969 43.0246 30.209 41.8514 30.209C40.7113 30.209 39.7034 30.9361 39.344 32.018L38.213 35.4222C37.7631 36.7764 36.5021 37.6863 35.075 37.6863C34.1593 37.6863 33.3223 38.1497 32.8362 38.9256L28.3091 46.1504Z" fill="#1C2D6B"/>
</svg>
