<svg width="54" height="54" viewBox="0 0 54 54" fill="none" xmlns="http://www.w3.org/2000/svg">
<path d="M45.7384 8.2615C40.7332 3.25641 34.0784 0.5 27 0.5C19.9216 0.5 13.2668 3.25641 8.2616 8.2615C3.25652 13.2668 0.5 19.9215 0.5 27C0.5 34.0785 3.25652 40.7332 8.2616 45.7385C13.2668 50.7436 19.9216 53.5 27 53.5C34.0784 53.5 40.7332 50.7436 45.7384 45.7385C50.7435 40.7332 53.5 34.0785 53.5 27C53.5 19.9215 50.7435 13.2668 45.7384 8.2615Z" fill="#008ADF"/>
<path d="M45.7384 8.2615C40.7332 3.25641 34.0784 0.5 27 0.5V53.5C34.0784 53.5 40.7332 50.7436 45.7384 45.7385C50.7435 40.7332 53.5 34.0785 53.5 27C53.5 19.9215 50.7435 13.2668 45.7384 8.2615Z" fill="#0065A3"/>
<path d="M27 22.1211C24.3097 22.1211 22.121 24.3099 22.121 27.0002C22.121 29.6905 24.3097 31.8793 27 31.8793C29.6903 31.8793 31.8791 29.6905 31.8791 27.0002C31.8791 24.3099 29.6903 22.1211 27 22.1211Z" fill="#E7F0EF"/>
<path d="M40.3052 22.1211C37.6149 22.1211 35.4262 24.3099 35.4262 27.0002C35.4262 29.6905 37.6149 31.8793 40.3052 31.8793C42.9954 31.8793 45.1843 29.6905 45.1843 27.0002C45.1843 24.3099 42.9954 22.1211 40.3052 22.1211Z" fill="#C5E1E6"/>
<path d="M13.6948 22.1211C11.0046 22.1211 8.81583 24.3099 8.81583 27.0002C8.81583 29.6905 11.0046 31.8793 13.6948 31.8793C16.3851 31.8793 18.5739 29.6905 18.5739 27.0002C18.5739 24.3099 16.3851 22.1211 13.6948 22.1211Z" fill="#E7F0EF"/>
<path d="M27 22.1211V31.8793C29.6903 31.8793 31.8791 29.6905 31.8791 27.0002C31.8791 24.3099 29.6903 22.1211 27 22.1211Z" fill="#C5E1E6"/>
</svg>
