<svg width="54" height="54" viewBox="0 0 54 54" fill="none" xmlns="http://www.w3.org/2000/svg">
<path d="M27 51.0156C40.2635 51.0156 51.0156 40.2635 51.0156 27C51.0156 13.7365 40.2635 2.98438 27 2.98438C13.7365 2.98438 2.98438 13.7365 2.98438 27C2.98438 40.2635 13.7365 51.0156 27 51.0156Z" fill="#006DF0"/>
<path d="M27 2.9844C22.2502 2.98443 17.607 4.39294 13.6577 7.03181C9.7084 9.67068 6.63028 13.4214 4.81261 17.8097C2.99494 22.1979 2.51935 27.0266 3.44598 31.6852C4.37262 36.3437 6.65986 40.6229 10.0185 43.9816L43.9815 10.0185C41.754 7.78509 39.107 6.01392 36.1927 4.80677C33.2785 3.59963 30.1544 2.9803 27 2.9844Z" fill="#2488FF"/>
<path d="M27 30.3125C28.8294 30.3125 30.3125 28.8294 30.3125 27C30.3125 25.1706 28.8294 23.6875 27 23.6875C25.1706 23.6875 23.6875 25.1706 23.6875 27C23.6875 28.8294 25.1706 30.3125 27 30.3125Z" fill="#FFCD00"/>
<path d="M36.9375 30.3125C38.7669 30.3125 40.25 28.8294 40.25 27C40.25 25.1706 38.7669 23.6875 36.9375 23.6875C35.1081 23.6875 33.625 25.1706 33.625 27C33.625 28.8294 35.1081 30.3125 36.9375 30.3125Z" fill="#FFCD00"/>
<path d="M17.0625 30.3125C18.8919 30.3125 20.375 28.8294 20.375 27C20.375 25.1706 18.8919 23.6875 17.0625 23.6875C15.2331 23.6875 13.75 25.1706 13.75 27C13.75 28.8294 15.2331 30.3125 17.0625 30.3125Z" fill="#FFCD00"/>
<path d="M25.3437 7.19042C25.1241 7.19899 24.9101 7.11995 24.7487 6.97071C24.5874 6.82146 24.4919 6.61423 24.4833 6.39459C24.4748 6.17496 24.5538 5.96092 24.703 5.79956C24.8523 5.6382 25.0595 5.54274 25.2792 5.53417C25.8489 5.49194 26.4286 5.46875 27 5.46875C27.2196 5.46875 27.4303 5.556 27.5856 5.7113C27.7409 5.86661 27.8281 6.07724 27.8281 6.29688C27.8281 6.51651 27.7409 6.72714 27.5856 6.88245C27.4303 7.03775 27.2196 7.125 27 7.125C26.4717 7.125 25.9367 7.1457 25.4092 7.18794L25.3437 7.19042Z" fill="#F1F2F2"/>
<path d="M6.29687 27.828C6.07724 27.828 5.8666 27.7407 5.7113 27.5854C5.55599 27.4301 5.46874 27.2195 5.46874 26.9998C5.46138 22.1862 7.07014 17.5095 10.0372 13.7191C13.0043 9.92873 17.158 7.24411 21.8325 6.09548C22.0459 6.04277 22.2714 6.07698 22.4596 6.19058C22.6477 6.30418 22.7831 6.48788 22.8358 6.70125C22.8885 6.91462 22.8543 7.1402 22.7407 7.32835C22.6271 7.5165 22.4434 7.65181 22.23 7.70452C17.9154 8.76508 14.0816 11.2431 11.3428 14.7417C8.60402 18.2402 7.11877 22.5568 7.12499 26.9998C7.12499 27.2195 7.03775 27.4301 6.88244 27.5854C6.72714 27.7407 6.5165 27.828 6.29687 27.828Z" fill="#F1F2F2"/>
</svg>
