<svg width="54" height="53" viewBox="0 0 54 53" fill="none" xmlns="http://www.w3.org/2000/svg">
<g clip-path="url(#clip0_264_5370)">
<path d="M40.25 35.6094H31.9688V28.9844H40.25V35.6094Z" fill="#E6F0FF"/>
<path d="M27 26.5H45.2188C46.5908 26.5 47.7031 25.3877 47.7031 24.0156C47.7031 22.6435 46.5908 21.5312 45.2188 21.5312H27C25.6279 21.5312 24.5156 22.6435 24.5156 24.0156C24.5156 25.3877 25.6279 26.5 27 26.5Z" fill="#EBBB96"/>
<path d="M46.875 52.1719H25.3438V35.6094H46.875V52.1719Z" fill="#F1F6FF"/>
<path d="M46.875 37.2656H26.1719C25.8942 37.2673 25.6172 37.2923 25.3438 37.3402V52.1719H46.875V37.2656Z" fill="#E6F0FF"/>
<path d="M52.6719 52.1719H46.875V35.6094C48.4124 35.6094 49.8869 36.2201 50.974 37.3072C52.0611 38.3944 52.6719 39.8688 52.6719 41.4062V52.1719Z" fill="white"/>
<path d="M48.5312 37.2656H46.875V52.1719H52.6719V41.4063C52.6729 40.2738 52.3405 39.1662 51.7161 38.2215C50.7714 37.597 49.6637 37.2646 48.5312 37.2656Z" fill="#F1F6FF"/>
<path d="M25.3438 52.1719H19.5469V41.4062C19.5469 39.8688 20.1576 38.3944 21.2447 37.3072C22.3319 36.2201 23.8063 35.6094 25.3438 35.6094V52.1719Z" fill="white"/>
<path d="M21.2031 42.2341V52.1716H25.3438V37.3398C24.1866 37.5349 23.1358 38.1334 22.3779 39.0293C21.6199 39.9252 21.2038 41.0606 21.2031 42.2341Z" fill="#F1F6FF"/>
<path d="M27.8281 11.7514V15.7341H44.3906V11.7514C45.4771 11.1256 46.2865 10.112 46.6564 8.91402C47.0263 7.71607 46.9292 6.42253 46.3846 5.29321C45.8401 4.16389 44.8884 3.28243 43.7207 2.82586C42.5531 2.3693 41.2559 2.37144 40.0898 2.83187C39.6288 2.21028 39.0287 1.70527 38.3375 1.35732C37.6463 1.00936 36.8832 0.828125 36.1094 0.828125C35.3355 0.828125 34.5724 1.00936 33.8812 1.35732C33.19 1.70527 32.5899 2.21028 32.129 2.83187C30.9631 2.37275 29.6667 2.37148 28.4998 2.82832C27.333 3.28517 26.3821 4.16632 25.8379 5.29502C25.2936 6.42372 25.1963 7.71647 25.5654 8.91393C25.9346 10.1114 26.7428 11.125 27.8281 11.7514Z" fill="#F1F6FF"/>
<path d="M41.746 4.48812C41.2851 3.86653 40.685 3.36152 39.9938 3.01357C39.3026 2.66561 38.5395 2.48437 37.7656 2.48438C36.9918 2.48437 36.2287 2.66561 35.5375 3.01357C34.8463 3.36152 34.2462 3.86653 33.7852 4.48812C33.207 4.25903 32.5907 4.14103 31.9688 4.14031C29.2246 4.14031 27 5.53677 27 8.28093C27 10.1194 28.0007 10.8919 29.4844 11.7514V15.7341H44.3906V11.7514C44.9646 11.4214 45.4667 10.9798 45.867 10.4525C46.2674 9.92515 46.5579 9.32292 46.7215 8.68138C46.8851 8.03984 46.9184 7.37201 46.8194 6.71738C46.7204 6.06275 46.4911 5.43462 46.1452 4.87013C45.4921 4.4688 44.7544 4.2253 43.9908 4.15899C43.2271 4.09267 42.4585 4.20537 41.746 4.48812Z" fill="#E6F0FF"/>
<path d="M46.0469 19.0469H26.1719V15.7344H46.0469V19.0469Z" fill="#F1F6FF"/>
<path d="M27.8281 17.3906H46.0469V19.0469H27.8281V17.3906Z" fill="#E6F0FF"/>
<path d="M31.9688 33.0376C33.2658 33.6407 34.679 33.9531 36.1094 33.9531C37.5398 33.9531 38.9529 33.6407 40.25 33.0376V28.9844H31.9688V33.0376Z" fill="#D7E4F7"/>
<path d="M36.1094 32.2969C35.0219 32.2969 33.945 32.0827 32.9403 31.6665C31.9355 31.2503 31.0226 30.6403 30.2536 29.8714C29.4847 29.1024 28.8747 28.1894 28.4585 27.1847C28.0423 26.18 27.8281 25.1031 27.8281 24.0156V19.0469H44.3906V24.0156C44.3906 26.2119 43.5181 28.3183 41.9651 29.8714C40.4121 31.4244 38.3057 32.2969 36.1094 32.2969Z" fill="#FADCC8"/>
<path d="M36.9375 32.2555C38.9802 32.0502 40.8738 31.0935 42.2509 29.5709C43.6281 28.0484 44.3907 26.0686 44.3906 24.0156V19.0469H29.4844V24.0156C29.4843 26.0686 30.2469 28.0484 31.6241 29.5709C33.0012 31.0935 34.8948 32.0502 36.9375 32.2555Z" fill="#F0CDB4"/>
<path d="M1.32812 44.8291C1.32812 49.4639 7.26032 49.6875 14.5781 49.6875C21.8959 49.6875 27.8281 49.4639 27.8281 44.8291C27.8281 40.1944 21.8959 36.4375 14.5781 36.4375C7.26032 36.4375 1.32812 40.1945 1.32812 44.8291Z" fill="#CD9D67"/>
<path d="M16.2344 38.0937C8.91665 38.0937 2.98437 41.8508 2.98437 46.4854C2.97596 47.1075 3.11382 47.7229 3.38684 48.282C5.7354 49.5872 9.86385 49.6874 14.5781 49.6874C21.8958 49.6874 27.8281 49.4638 27.8281 44.8292C27.8022 43.4972 27.3325 42.2119 26.4934 41.1771C23.4948 39.0718 19.8968 37.9904 16.2344 38.0937Z" fill="#BE8959"/>
<path d="M12.9219 41.4062V36.51C13.4656 36.4669 14.016 36.4375 14.5781 36.4375C15.1403 36.4375 15.6906 36.4669 16.2344 36.51V41.4062C16.2344 41.8455 16.0599 42.2668 15.7493 42.5774C15.4387 42.888 15.0174 43.0625 14.5781 43.0625C14.1389 43.0625 13.7176 42.888 13.407 42.5774C13.0964 42.2668 12.9219 41.8455 12.9219 41.4062Z" fill="#F5DFB7"/>
<path d="M16.2344 38.0938C15.1246 38.0957 14.0168 38.1877 12.9219 38.3689V41.4062C12.9219 41.8455 13.0964 42.2668 13.407 42.5774C13.7176 42.888 14.1389 43.0625 14.5781 43.0625C15.0174 43.0625 15.4387 42.888 15.7493 42.5774C16.0599 42.2668 16.2344 41.8455 16.2344 41.4062V38.0938Z" fill="#F1D29A"/>
<path d="M7.125 43.0625C6.68574 43.0625 6.26446 42.888 5.95385 42.5773C5.64325 42.2667 5.46875 41.8455 5.46875 41.4062V38.7458C6.51066 38.1302 7.62281 37.6421 8.78125 37.292V41.4062C8.78125 41.8455 8.60675 42.2667 8.29615 42.5773C7.98554 42.888 7.56426 43.0625 7.125 43.0625Z" fill="#F5DFB7"/>
<path d="M5.4873 41.5899C5.53323 42.0104 5.73868 42.3972 6.06133 42.6707C6.38398 42.9442 6.79924 43.0835 7.22153 43.0599C7.64383 43.0363 8.04099 42.8516 8.33117 42.5439C8.62136 42.2362 8.78245 41.8289 8.78125 41.4059V39.5479C7.58348 40.0526 6.47206 40.7416 5.4873 41.5899Z" fill="#F1D29A"/>
<path d="M23.6875 38.7458V41.4062C23.6875 41.8455 23.513 42.2667 23.2024 42.5773C22.8918 42.888 22.4705 43.0625 22.0312 43.0625C21.592 43.0625 21.1707 42.888 20.8601 42.5773C20.5495 42.2667 20.375 41.8455 20.375 41.4062V37.292C21.5334 37.6421 22.6456 38.1302 23.6875 38.7458Z" fill="#F5DFB7"/>
<path d="M22.0312 43.0626C22.4705 43.0626 22.8918 42.8881 23.2024 42.5775C23.513 42.2669 23.6875 41.8456 23.6875 41.4063V39.5483C22.6208 39.0943 21.511 38.749 20.375 38.5176V41.4063C20.375 41.8456 20.5495 42.2669 20.8601 42.5775C21.1707 42.8881 21.592 43.0626 22.0312 43.0626Z" fill="#F1D29A"/>
<path d="M27.8281 52.1719H1.32812V48.8594H27.8281V52.1719Z" fill="#BBC2CC"/>
<path d="M2.98438 50.5156H27.8281V52.1719H2.98438V50.5156Z" fill="#A7AEBB"/>
<path d="M46.875 34.7812H41.0781V31.6406C42.6664 30.6017 43.8923 29.0946 44.5861 27.3281H45.2188C46.0973 27.3281 46.9398 26.9791 47.561 26.3579C48.1823 25.7367 48.5312 24.8941 48.5312 24.0156C48.5312 23.1371 48.1823 22.2945 47.561 21.6733C46.9398 21.0521 46.0973 20.7031 45.2188 20.7031V19.875H46.0469C46.2665 19.875 46.4771 19.7877 46.6324 19.6324C46.7878 19.4771 46.875 19.2665 46.875 19.0469V15.7344C46.875 15.5147 46.7878 15.3041 46.6324 15.1488C46.4771 14.9935 46.2665 14.9062 46.0469 14.9062H45.2188V12.2051C46.2315 11.5004 46.9928 10.4907 47.3918 9.32318C47.7908 8.15563 47.8066 6.8912 47.437 5.71404C47.0673 4.53688 46.3315 3.50847 45.3367 2.7786C44.3419 2.04872 43.1401 1.65551 41.9062 1.65623C41.3852 1.65615 40.8667 1.72717 40.3649 1.86732C39.8233 1.27867 39.1654 0.808783 38.4329 0.487368C37.7005 0.165953 36.9093 0 36.1094 0C35.3095 0 34.5183 0.165953 33.7858 0.487368C33.0533 0.808783 32.3955 1.27867 31.8539 1.86732C31.3521 1.72711 30.8335 1.6561 30.3125 1.65623C29.0787 1.65551 27.8768 2.04872 26.882 2.7786C25.8872 3.50847 25.1514 4.53688 24.7818 5.71404C24.4121 6.8912 24.4279 8.15563 24.8269 9.32318C25.2259 10.4907 25.9872 11.5004 27 12.2051V14.9062H26.1719C25.9522 14.9062 25.7416 14.9935 25.5863 15.1488C25.431 15.3041 25.3437 15.5147 25.3437 15.7344V19.0469C25.3437 19.2665 25.431 19.4771 25.5863 19.6324C25.7416 19.7877 25.9522 19.875 26.1719 19.875H27V20.7031C26.1215 20.7031 25.2789 21.0521 24.6577 21.6733C24.0365 22.2945 23.6875 23.1371 23.6875 24.0156C23.6875 24.8941 24.0365 25.7367 24.6577 26.3579C25.2789 26.9791 26.1215 27.3281 27 27.3281H27.6327C28.3265 29.0946 29.5524 30.6017 31.1406 31.6406V34.7812H25.3437C23.6642 34.7863 22.0492 35.4289 20.8253 36.5791C18.8067 35.93 16.6985 35.6028 14.5781 35.6094C6.81528 35.6094 0.499998 39.7451 0.499998 44.8291C0.482708 45.4175 0.582282 46.0035 0.792958 46.5531C1.00363 47.1027 1.32123 47.6051 1.72736 48.0312H1.32812C1.10849 48.0312 0.897854 48.1185 0.742551 48.2738C0.587247 48.4291 0.499998 48.6397 0.499998 48.8594V52.1719C0.499998 52.3915 0.587247 52.6021 0.742551 52.7574C0.897854 52.9127 1.10849 53 1.32812 53H52.6719C52.8915 53 53.1021 52.9127 53.2574 52.7574C53.4128 52.6021 53.5 52.3915 53.5 52.1719V41.4062C53.498 39.6498 52.7993 37.9659 51.5574 36.7239C50.3154 35.4819 48.6314 34.7832 46.875 34.7812ZM46.875 24.0156C46.8746 24.4547 46.6999 24.8758 46.3894 25.1863C46.0789 25.4968 45.6579 25.6714 45.2188 25.6719H45.0605C45.1637 25.1258 45.2167 24.5714 45.2188 24.0156V22.3594C45.6579 22.3598 46.0789 22.5344 46.3894 22.8449C46.6999 23.1555 46.8746 23.5765 46.875 24.0156ZM26.1719 7.45311C26.1706 6.77834 26.3346 6.11353 26.6495 5.51674C26.9643 4.91994 27.4206 4.40932 27.9783 4.02947C28.5359 3.64962 29.1782 3.41209 29.8488 3.33763C30.5195 3.26318 31.1981 3.35405 31.8256 3.60232C31.9946 3.66882 32.1808 3.67789 32.3555 3.62814C32.5303 3.57838 32.6838 3.47256 32.7924 3.32697C33.1763 2.8087 33.6763 2.38759 34.2524 2.09743C34.8284 1.80728 35.4644 1.65614 36.1094 1.65614C36.7544 1.65614 37.3904 1.80728 37.9664 2.09743C38.5424 2.38759 39.0424 2.8087 39.4263 3.32697C39.5351 3.47247 39.6886 3.57822 39.8632 3.62797C40.0379 3.67772 40.2241 3.66871 40.3932 3.60232C41.0206 3.35405 41.6993 3.26318 42.3699 3.33763C43.0406 3.41209 43.6828 3.64962 44.2405 4.02947C44.7982 4.40932 45.2544 4.91994 45.5693 5.51674C45.8842 6.11353 46.0481 6.77834 46.0469 7.45311C46.0445 8.17912 45.852 8.89185 45.4886 9.52034C45.1251 10.1488 44.6034 10.6712 43.9753 11.0353C43.8498 11.1081 43.7455 11.2126 43.6731 11.3384C43.6006 11.4641 43.5625 11.6067 43.5625 11.7518V14.9062H28.6562V11.7518C28.6563 11.6067 28.6181 11.4641 28.5457 11.3384C28.4732 11.2126 28.369 11.1081 28.2434 11.0353C27.6153 10.6712 27.0936 10.1488 26.7302 9.52034C26.3667 8.89185 26.1742 8.17912 26.1719 7.45311ZM27 25.6719C26.5607 25.6719 26.1395 25.4974 25.8289 25.1868C25.5182 24.8761 25.3437 24.4549 25.3437 24.0156C25.3437 23.5763 25.5182 23.1551 25.8289 22.8445C26.1395 22.5339 26.5607 22.3594 27 22.3594V24.0156C27.0021 24.5714 27.055 25.1258 27.1583 25.6719H27ZM27 18.2187V16.5625H45.2188V18.2187H27ZM28.6562 24.0156V19.875H43.5625V24.0156C43.5625 25.9923 42.7773 27.888 41.3795 29.2858C39.9818 30.6835 38.0861 31.4687 36.1094 31.4687C34.1327 31.4687 32.2369 30.6835 30.8392 29.2858C29.4415 27.888 28.6562 25.9923 28.6562 24.0156ZM39.4219 32.4923V34.7812H32.7969V32.4923C34.9246 33.3359 37.2941 33.3359 39.4219 32.4923ZM24.5156 36.5147V38.3052C23.9084 37.9131 23.2727 37.5669 22.6139 37.2693C23.1886 36.8886 23.8363 36.6316 24.5156 36.5147ZM21.2031 38.4424C21.7715 38.6607 22.3247 38.9164 22.8594 39.2076V41.4062C22.8594 41.6259 22.7721 41.8365 22.6168 41.9918C22.4615 42.1471 22.2509 42.2344 22.0312 42.2344C21.8116 42.2344 21.601 42.1471 21.4457 41.9918C21.2904 41.8365 21.2031 41.6259 21.2031 41.4062V38.4424ZM13.75 37.2913C14.0249 37.2802 14.2986 37.2658 14.5781 37.2658C14.8576 37.2658 15.1313 37.2802 15.4062 37.2913V41.4062C15.4062 41.6259 15.319 41.8365 15.1637 41.9918C15.0084 42.1471 14.7978 42.2344 14.5781 42.2344C14.3585 42.2344 14.1479 42.1471 13.9925 41.9918C13.8372 41.8365 13.75 41.6259 13.75 41.4062V37.2913ZM6.29687 39.2076C6.8315 38.9164 7.38479 38.6607 7.95312 38.4424V41.4062C7.95312 41.6259 7.86587 41.8365 7.71057 41.9918C7.55527 42.1471 7.34463 42.2344 7.125 42.2344C6.90537 42.2344 6.69473 42.1471 6.53943 41.9918C6.38412 41.8365 6.29687 41.6259 6.29687 41.4062V39.2076ZM27 51.3437H2.15625V49.6875H27V51.3437ZM24.2435 48.0312H4.91275C3.0122 47.4108 2.15625 46.4213 2.15625 44.8291C2.20338 43.9375 2.45129 43.0679 2.88147 42.2855C3.31165 41.503 3.91299 40.8278 4.64062 40.3103V41.4062C4.64062 42.0651 4.90237 42.697 5.36828 43.1629C5.83419 43.6289 6.4661 43.8906 7.125 43.8906C7.7839 43.8906 8.41581 43.6289 8.88172 43.1629C9.34763 42.697 9.60937 42.0651 9.60937 41.4062V37.9015C10.4254 37.6836 11.2555 37.5221 12.0937 37.4181V41.4062C12.0937 42.0651 12.3555 42.697 12.8214 43.1629C13.2873 43.6289 13.9192 43.8906 14.5781 43.8906C15.237 43.8906 15.8689 43.6289 16.3348 43.1629C16.8008 42.697 17.0625 42.0651 17.0625 41.4062V37.4181C17.9007 37.5221 18.7308 37.6836 19.5469 37.9015V41.4062C19.5469 42.0651 19.8086 42.697 20.2745 43.1629C20.7404 43.6289 21.3724 43.8906 22.0312 43.8906C22.6901 43.8906 23.3221 43.6289 23.788 43.1629C24.2539 42.697 24.5156 42.0651 24.5156 41.4062V40.3103C25.2433 40.8278 25.8446 41.503 26.2748 42.2855C26.705 43.0679 26.9529 43.9375 27 44.8291C27 46.4213 26.144 47.4108 24.2435 48.0312ZM46.0469 51.3437H28.6562V48.8594C28.6562 48.6397 28.569 48.4291 28.4137 48.2738C28.2584 48.1185 28.0478 48.0312 27.8281 48.0312H27.4289C27.835 47.6051 28.1526 47.1027 28.3633 46.5531C28.574 46.0035 28.6735 45.4175 28.6562 44.8291C28.6234 43.8351 28.3859 42.8586 27.9584 41.9607C27.5309 41.0627 26.9227 40.2627 26.1719 39.6105V36.4375H46.0469V51.3437ZM51.8438 51.3437H47.7031V36.512C48.8597 36.7083 49.9097 37.3072 50.6674 38.2028C51.4251 39.0984 51.8418 40.2331 51.8438 41.4062V51.3437Z" fill="black"/>
<path d="M39.4219 26.5C39.4219 26.2804 39.3346 26.0697 39.1793 25.9144C39.024 25.7591 38.8134 25.6719 38.5938 25.6719C38.3741 25.6719 38.1635 25.7591 38.0082 25.9144C37.8529 26.0697 37.7656 26.2804 37.7656 26.5C37.7656 26.9393 37.5911 27.3605 37.2805 27.6711C36.9699 27.9818 36.5486 28.1562 36.1094 28.1562C35.6701 28.1562 35.2488 27.9818 34.9382 27.6711C34.6276 27.3605 34.4531 26.9393 34.4531 26.5C34.4531 26.2804 34.3659 26.0697 34.2106 25.9144C34.0553 25.7591 33.8446 25.6719 33.625 25.6719C33.4054 25.6719 33.1947 25.7591 33.0394 25.9144C32.8841 26.0697 32.7969 26.2804 32.7969 26.5C32.7969 27.3785 33.1459 28.2211 33.7671 28.8423C34.3883 29.4635 35.2308 29.8125 36.1094 29.8125C36.9879 29.8125 37.8305 29.4635 38.4517 28.8423C39.0729 28.2211 39.4219 27.3785 39.4219 26.5Z" fill="black"/>
<path d="M40.25 23.1875C40.7074 23.1875 41.0781 22.8167 41.0781 22.3594C41.0781 21.902 40.7074 21.5312 40.25 21.5312C39.7926 21.5312 39.4219 21.902 39.4219 22.3594C39.4219 22.8167 39.7926 23.1875 40.25 23.1875Z" fill="black"/>
<path d="M31.9688 23.1875C32.4261 23.1875 32.7969 22.8167 32.7969 22.3594C32.7969 21.902 32.4261 21.5312 31.9688 21.5312C31.5114 21.5312 31.1406 21.902 31.1406 22.3594C31.1406 22.8167 31.5114 23.1875 31.9688 23.1875Z" fill="black"/>
<path d="M36.1094 42.2344C36.5667 42.2344 36.9375 41.8636 36.9375 41.4062C36.9375 40.9489 36.5667 40.5781 36.1094 40.5781C35.652 40.5781 35.2812 40.9489 35.2812 41.4062C35.2812 41.8636 35.652 42.2344 36.1094 42.2344Z" fill="black"/>
<path d="M36.1094 47.2031C36.5667 47.2031 36.9375 46.8324 36.9375 46.375C36.9375 45.9176 36.5667 45.5469 36.1094 45.5469C35.652 45.5469 35.2812 45.9176 35.2812 46.375C35.2812 46.8324 35.652 47.2031 36.1094 47.2031Z" fill="black"/>
<path d="M17.0625 27.3281H13.6809C12.821 27.3291 11.9965 27.6711 11.3885 28.2791C10.7805 28.8872 10.4384 29.7116 10.4375 30.5715V33.125C10.4375 33.3446 10.5247 33.5553 10.6801 33.7106C10.8354 33.8659 11.046 33.9531 11.2656 33.9531C11.4853 33.9531 11.6959 33.8659 11.8512 33.7106C12.0065 33.5553 12.0938 33.3446 12.0938 33.125V30.5715C12.0943 30.1507 12.2617 29.7473 12.5592 29.4498C12.8567 29.1523 13.2601 28.9849 13.6809 28.9844H17.0625C17.941 28.9844 18.7836 28.6354 19.4048 28.0142C20.026 27.393 20.375 26.5504 20.375 25.6719C20.375 24.7933 20.026 23.9508 19.4048 23.3296C18.7836 22.7084 17.941 22.3594 17.0625 22.3594H14.5781C14.3585 22.3594 14.1479 22.4466 13.9926 22.6019C13.8372 22.7572 13.75 22.9679 13.75 23.1875C13.75 23.4071 13.8372 23.6178 13.9926 23.7731C14.1479 23.9284 14.3585 24.0156 14.5781 24.0156H17.0625C17.5018 24.0156 17.923 24.1901 18.2336 24.5007C18.5443 24.8113 18.7188 25.2326 18.7188 25.6719C18.7188 26.1111 18.5443 26.5324 18.2336 26.843C17.923 27.1536 17.5018 27.3281 17.0625 27.3281Z" fill="black"/>
<path d="M7.95312 24.0156H11.2656C11.4853 24.0156 11.6959 23.9284 11.8512 23.7731C12.0065 23.6178 12.0938 23.4071 12.0938 23.1875C12.0938 22.9679 12.0065 22.7572 11.8512 22.6019C11.6959 22.4466 11.4853 22.3594 11.2656 22.3594H7.95312C7.29423 22.3594 6.66232 22.0976 6.19641 21.6317C5.7305 21.1658 5.46875 20.5339 5.46875 19.875C5.46875 19.2161 5.7305 18.5842 6.19641 18.1183C6.66232 17.6524 7.29423 17.3906 7.95312 17.3906H11.2656C11.4853 17.3906 11.6959 17.3034 11.8512 17.1481C12.0065 16.9928 12.0938 16.7821 12.0938 16.5625C12.0938 16.3429 12.0065 16.1322 11.8512 15.9769C11.6959 15.8216 11.4853 15.7344 11.2656 15.7344H7.95312C6.85496 15.7344 5.80178 16.1706 5.02526 16.9471C4.24874 17.7237 3.8125 18.7768 3.8125 19.875C3.8125 20.9732 4.24874 22.0263 5.02526 22.8029C5.80178 23.5794 6.85496 24.0156 7.95312 24.0156Z" fill="black"/>
<path d="M14.5781 15.7344C14.3585 15.7344 14.1479 15.8216 13.9926 15.9769C13.8372 16.1322 13.75 16.3429 13.75 16.5625C13.75 16.7821 13.8372 16.9928 13.9926 17.1481C14.1479 17.3034 14.3585 17.3906 14.5781 17.3906C15.6763 17.3906 16.7295 16.9544 17.506 16.1779C18.2825 15.4013 18.7188 14.3482 18.7188 13.25C18.7188 12.1518 18.2825 11.0987 17.506 10.3221C16.7295 9.54562 15.6763 9.10938 14.5781 9.10938C14.3585 9.10938 14.1479 9.19662 13.9926 9.35193C13.8372 9.50723 13.75 9.71787 13.75 9.9375C13.75 10.1571 13.8372 10.3678 13.9926 10.5231C14.1479 10.6784 14.3585 10.7656 14.5781 10.7656C15.237 10.7656 15.8689 11.0274 16.3348 11.4933C16.8008 11.9592 17.0625 12.5911 17.0625 13.25C17.0625 13.9089 16.8008 14.5408 16.3348 15.0067C15.8689 15.4726 15.237 15.7344 14.5781 15.7344Z" fill="black"/>
</g>
<defs>
<clipPath id="clip0_264_5370">
<rect width="53" height="53" fill="white" transform="translate(0.5)"/>
</clipPath>
</defs>
</svg>
