<svg width="54" height="53" viewBox="0 0 54 53" fill="none" xmlns="http://www.w3.org/2000/svg">
<path d="M40.9597 50.1238H3.14999L3.57441 43.9675C4.97849 34.9913 12.488 33.7801 18.7187 31.8711L22.0503 34.2416L25.3893 31.8711C31.1987 33.6509 39.1022 34.8269 40.5336 43.9675L40.9597 50.1238Z" fill="#EDEBF2"/>
<path d="M22.0688 27.9082H18.6012L18.7194 31.8733L22.0543 34.2429L25.4183 31.8733L25.5365 27.9082H22.0688Z" fill="#F6CCAF"/>
<path d="M25.5392 27.9062L25.4199 31.8709L22.0511 34.2414L20.7841 33.3396C22.6888 32.1712 23.9781 30.1642 24.0262 27.9062H25.5392Z" fill="#F3BA93"/>
<path d="M30.5635 33.4023V33.4046L27.2106 37.9054L22.0543 34.2425L25.3893 31.873C26.6808 32.2622 29.8657 33.2218 30.5635 33.4023Z" fill="#C6C3D8"/>
<path d="M40.9597 50.1238H3.14999L3.57441 43.9675C4.97849 34.9913 12.488 33.7801 18.7187 31.8711L22.0503 34.2416L25.3893 31.8711C31.1987 33.6509 39.1022 34.8269 40.5336 43.9675L40.9597 50.1238Z" fill="#EDEBF2"/>
<path d="M30.5635 33.4023V33.4046L27.2106 37.9054L22.0543 34.2425L25.3893 31.873C26.6808 32.2622 29.8657 33.2218 30.5635 33.4023Z" fill="#C6C3D8"/>
<path d="M40.9597 50.1238H38.672L38.2993 44.7128C36.9352 36.0045 29.8149 34.6408 24.049 32.8847C24.0284 32.8833 24.0082 32.8782 23.9893 32.8698V32.8624L25.3905 31.8711C31.2996 33.7186 39.1075 34.8213 40.5349 43.9675L40.9597 50.1238Z" fill="#DCD8E6"/>
<path d="M30.5626 33.4061L29.6459 34.6362C28.2333 34.0616 28.3002 34.1798 24.0486 32.8847C24.028 32.8833 24.0078 32.8782 23.989 32.8698V32.8624L25.3901 31.8711C28.193 32.7471 30.4846 33.3801 30.5626 33.4061Z" fill="#B4B0CC"/>
<path d="M24.0486 32.8847C24.028 32.8832 24.0078 32.8782 23.989 32.8698V32.8623C24.0113 32.8698 24.0262 32.8772 24.0486 32.8847Z" fill="#DCD8E6"/>
<path d="M22.0543 34.2425C20.7681 35.155 18.1807 36.9922 16.8958 37.9052L13.5451 33.4023C14.2407 33.2218 17.4278 32.262 18.7194 31.873L22.0543 34.2425Z" fill="#C6C3D8"/>
<path d="M18.7795 50.1246L20.7769 37.9059L19.4661 36.0802L22.0543 34.2432L24.6404 36.0802L23.3294 37.9059L25.327 50.1246H18.7795Z" fill="#DB5669"/>
<path d="M15.1659 23.3378C9.93989 22.6635 10.812 18.9645 11.8777 16.4248C12.6985 17.267 13.6927 17.9204 14.7914 18.3398L15.1659 23.3378Z" fill="#F6CCAF"/>
<path d="M32.1909 16.3336C31.815 16.5793 29.6714 17.9869 29.3463 18.1928C28.2228 18.759 26.6243 15.7094 26.513 15.6202C22.2617 17.9543 16.7416 14.5547 16.7416 14.5547L14.7914 18.3399C13.6927 17.9205 12.6985 17.267 11.8777 16.4249C9.64571 9.57968 15.8547 3.13904 23.0331 4.19283C25.6502 4.48691 28.2696 5.75767 29.3682 9.27099C31.1651 9.16592 33.5283 10.1461 32.1909 16.3336Z" fill="#374F68"/>
<path d="M29.3463 18.1927C29.3463 18.2043 28.9883 22.8625 28.9607 23.3375C28.7695 26.6598 26.2268 29.4924 22.1726 29.7178C18.4096 29.7831 15.4393 26.8412 15.1659 23.3375L14.7914 18.3394L16.7416 14.5547C16.7416 14.5547 22.2613 17.9543 26.5126 15.6203C26.6244 15.7093 28.2228 18.759 29.3463 18.1927Z" fill="#FFDEC7"/>
<path d="M29.3477 18.1943C29.3477 18.2017 28.99 22.8599 28.9602 23.3369C28.7664 26.661 26.2249 29.4932 22.1704 29.7168C20.7805 29.7431 19.4156 29.3454 18.2575 28.5765C19.0344 28.8533 19.8551 28.9872 20.6797 28.9715C24.7342 28.7479 27.2758 25.9157 27.4695 22.5916C27.4994 22.1444 27.7751 17.9852 27.8124 17.4639C28.2968 18.0079 28.8782 18.4328 29.3477 18.1943Z" fill="#FFCCA8"/>
<path d="M32.1874 16.3314C31.8147 16.5774 29.6682 17.986 29.3477 18.1947C28.7911 18.473 28.2298 17.8819 27.8124 17.4643C27.8502 17.4643 30.6653 15.6069 30.6967 15.5861C31.4644 12.0384 31.0176 10.205 30.1527 9.30273C31.7551 9.5491 33.3426 11.0174 32.1874 16.3314Z" fill="#2C4054"/>
<path d="M28.9607 23.338C29.0069 22.5436 29.3461 18.1996 29.3463 18.1932C29.6598 17.9949 31.8279 16.5713 32.1909 16.334C32.1909 16.3363 32.1932 16.3384 32.1932 16.3407C33.9716 20.0132 33.1297 22.8831 28.9607 23.338Z" fill="#F3BA93"/>
<path d="M50.85 13.7605C50.8893 23.2986 39.2592 28.1943 32.4628 21.6722C33.4819 20.2145 32.9701 17.9457 32.1932 16.3398C32.1815 16.2564 33.9696 9.75364 30.0263 9.27074C34.8962 -1.27606 50.6904 1.98075 50.85 13.7605Z" fill="#FFCC66"/>
<path d="M41.5485 9.17586C41.3026 9.18331 41.0715 9.18331 41.0641 9.18331V9.1684C41.3795 9.1712 41.3712 9.14604 41.5485 9.17586Z" fill="#EDEBF2"/>
<path d="M50.85 13.7596C50.8873 23.0909 39.7597 27.9801 32.9107 22.0773C44.3245 27.2788 54.3201 12.8141 44.955 4.11523C48.2712 5.76983 50.7904 9.10138 50.85 13.7596Z" fill="#FFC247"/>
<path d="M29.6198 23.8876C30.8577 23.6767 31.8293 23.2458 32.5271 22.604C39.9431 28.9009 51.6759 23.4024 51.5952 13.6517C51.4694 1.6072 35.5842 -2.41397 29.7416 8.0642C28.5822 5.3378 26.3173 3.70443 23.1199 3.34481C15.4334 2.2019 8.89024 9.2305 11.0953 16.2489C9.48732 19.761 10.3905 23.3244 14.5068 23.8874C14.6782 24.9407 15.0657 25.9471 15.6451 26.8434C16.2244 27.7396 16.983 28.5062 17.873 29.0949L17.9538 31.2377L15.2017 32.1577C14.7338 32.24 14.0553 32.3952 13.3726 32.5717C10.6839 33.1572 8.23638 34.5454 6.35401 36.5525C4.47164 38.5596 3.24315 41.091 2.83116 43.8117L2.40613 49.9648C2.3924 50.1621 2.45761 50.3568 2.5874 50.506C2.7172 50.6552 2.90095 50.7467 3.09823 50.7605C3.29552 50.7742 3.49018 50.709 3.63938 50.5792C3.78859 50.4494 3.88013 50.2656 3.89385 50.0684L4.31164 43.9764C5.04019 39.2407 8.55754 35.3155 13.25 34.1478L16.2985 38.243C16.3678 38.3364 16.458 38.4122 16.5619 38.4644C16.6658 38.5165 16.7805 38.5435 16.8968 38.5432C17.2093 38.6398 18.8222 37.2907 19.2938 37.0094L19.993 37.9825L18.0089 50.1118C17.8568 51.0684 19.3144 51.3186 19.4806 50.352L21.5143 37.9183C21.6394 37.4476 20.8194 36.6633 20.5102 36.1462L22.0543 35.0496L23.5986 36.1462C23.3191 36.6149 22.4581 37.4723 22.5945 37.9182L24.6272 50.352C24.7918 51.313 26.2515 51.0742 26.0989 50.1118L24.1148 37.9823L24.814 37.0092L26.7802 38.4055C26.939 38.5182 27.1355 38.5644 27.3279 38.534C27.5202 38.5037 27.693 38.3994 27.8094 38.2432L30.8588 34.1473C33.1394 34.7235 35.201 35.9558 36.7884 37.6917C38.3757 39.4276 39.4192 41.5909 39.7897 43.9138L40.2141 50.067C40.2208 50.1647 40.2466 50.2601 40.2902 50.3478C40.3337 50.4355 40.3941 50.5137 40.468 50.5781C40.5418 50.6424 40.6275 50.6916 40.7203 50.7228C40.8131 50.754 40.9112 50.7666 41.0089 50.7599C41.1065 50.7533 41.202 50.7274 41.2896 50.6838C41.3773 50.6403 41.4556 50.5799 41.5199 50.5061C41.5843 50.4323 41.6335 50.3465 41.6647 50.2537C41.6959 50.1609 41.7085 50.0628 41.7018 49.9651L41.2702 43.7501C40.848 41.0423 39.6165 38.5257 37.7374 36.5309C35.8584 34.5361 33.4198 33.1564 30.7421 32.5733L30.7398 32.5727C30.0554 32.3952 29.3751 32.2394 28.9062 32.1574L26.1543 31.2374L26.2353 29.1007C27.13 28.5138 27.8928 27.7473 28.4754 26.8499C29.0581 25.9524 29.4477 24.9437 29.6198 23.8876ZM19.4502 31.3718L19.3941 29.8754C20.577 30.3121 21.8483 30.4554 23.0988 30.2931C23.5897 30.2154 24.073 30.0958 24.5436 29.9358C24.6005 29.9145 24.6567 29.8944 24.7146 29.8754L24.6578 31.3717L22.0541 33.2209L19.4502 31.3718ZM29.7716 22.3422C29.78 22.2528 30.0591 18.59 30.0643 18.5086L31.8512 17.3397C32.9748 20.3246 31.8323 21.9763 29.7716 22.3424V22.3422ZM39.9563 3.49201C42.6485 3.49648 45.2289 4.56871 47.1315 6.47343C49.034 8.37816 50.1033 10.9598 50.1047 13.652C50.1761 22.1966 39.8571 26.9686 33.4065 21.4108C34.1433 19.7173 33.694 17.7681 32.9735 16.1389C33.4774 13.629 33.8622 9.98741 31.0992 8.68653C31.9809 7.11191 33.2663 5.80067 34.823 4.88778C36.3798 3.97489 38.1516 3.49332 39.9563 3.49263V3.49201ZM12.5843 10.9208C14.0051 6.70959 18.1683 4.25886 22.9488 4.82664C25.8937 5.15789 27.814 6.6921 28.658 9.38661C28.7125 9.55625 28.8256 9.701 28.9769 9.79502C29.1283 9.88905 29.3081 9.92623 29.4844 9.89994C32.4645 9.78038 31.9312 13.8128 31.5209 15.7734L29.0251 17.4042C28.8851 17.3681 28.3918 17.1138 27.314 15.3748C27.0435 14.853 26.655 14.6191 26.1537 14.8579C22.3376 16.9512 17.1824 13.8412 17.1313 13.8106C17.0438 13.7576 16.9463 13.723 16.8449 13.7091C16.7435 13.6953 16.6404 13.7023 16.5418 13.7297C16.4432 13.7572 16.3513 13.8046 16.2717 13.869C16.1921 13.9333 16.1266 14.0133 16.0791 14.1039L14.4487 17.27C13.7506 16.9277 13.1107 16.4775 12.5527 15.9359C12.1739 14.3951 11.8848 13.0187 12.5843 10.9208ZM12.1849 17.5854C12.767 18.0447 13.4043 18.4294 14.0819 18.7305L14.3517 22.3385C12.2015 21.8417 11.2248 20.4573 12.1849 17.5848V17.5854ZM15.9091 23.1752L15.5512 18.3855L17.0521 15.4687C18.6541 16.2897 22.6878 17.9884 26.2405 16.4709C26.7487 17.2723 27.5878 18.4729 28.5449 18.8104C28.5339 18.9533 28.5097 19.2523 28.2174 23.1718V23.1724C28.1364 24.1468 27.8272 25.0884 27.3149 25.9211C26.8025 26.7539 26.1014 27.4544 25.2683 27.966C25.2308 27.9806 25.1947 27.9985 25.1604 28.0195C25.103 28.0453 25.0508 28.072 24.9948 28.0992C24.9917 28.1007 24.9887 28.1025 24.9856 28.104C24.1904 28.5482 23.3048 28.8062 22.3955 28.8586C21.4862 28.9111 20.5768 28.7565 19.7359 28.4067L19.7335 28.4055C19.4837 28.301 19.2214 28.1596 18.9675 28.0236L18.966 28.0265C18.9361 28.0099 18.9053 27.995 18.8736 27.982C18.0366 27.47 17.332 26.768 16.817 25.9328C16.3019 25.0976 15.9909 24.1529 15.9091 23.1751V23.1752ZM19.0328 35.3666L19.0316 35.3673L19.0306 35.3682L17.0591 36.7687L14.8167 33.7574C15.4137 33.71 17.9959 32.7862 18.5964 32.5946L20.7666 34.1357L19.0328 35.3666ZM28.5998 33.6172C28.7878 33.649 29.0296 33.6989 29.2914 33.7569L27.0495 36.7687L23.3415 34.1356L25.5115 32.5946L28.487 33.5895C28.5238 33.6017 28.5616 33.611 28.5998 33.6174V33.6172Z" fill="#082032"/>
<path d="M38.9795 14.3941H40.8711C41.9381 14.4131 41.9384 15.9986 40.8711 16.0179H37.5515C36.5779 16.0212 36.5761 17.505 37.5515 17.5085H39.2078V19.4243C39.2078 19.6219 39.2863 19.8115 39.4261 19.9513C39.5659 20.0911 39.7554 20.1696 39.9531 20.1696C40.1508 20.1696 40.3403 20.0911 40.4801 19.9513C40.6199 19.8115 40.6984 19.6219 40.6984 19.4243V17.5085C43.8471 17.6224 44.0187 13.0091 40.8709 12.9034H38.9795C38.7642 12.903 38.5578 12.8173 38.4056 12.6651C38.2534 12.5128 38.1677 12.3064 38.1674 12.0911C38.0986 11.5348 38.3603 10.9776 38.9927 10.9717L42.1734 10.9163C43.1588 10.8749 43.1182 9.44349 42.1471 9.42569L40.6979 9.45105V7.41914C40.6979 7.32127 40.6786 7.22435 40.6412 7.13392C40.6037 7.0435 40.5488 6.96133 40.4796 6.89213C40.4104 6.82292 40.3282 6.76802 40.2378 6.73056C40.1474 6.69311 40.0505 6.67383 39.9526 6.67383C39.8547 6.67383 39.7578 6.69311 39.6674 6.73056C39.5769 6.76802 39.4948 6.82292 39.4256 6.89213C39.3564 6.96133 39.3015 7.0435 39.264 7.13392C39.2265 7.22435 39.2073 7.32127 39.2073 7.41914V9.47713C35.9691 9.28501 35.7638 14.3055 38.9795 14.3941Z" fill="#082032"/>
<path d="M11.085 42.4697C10.8873 42.4697 10.6977 42.5482 10.558 42.688C10.4182 42.8278 10.3397 43.0174 10.3397 43.215V50.016C10.3397 50.2137 10.4182 50.4033 10.558 50.543C10.6977 50.6828 10.8873 50.7613 11.085 50.7613C11.2826 50.7613 11.4722 50.6828 11.612 50.543C11.7518 50.4033 11.8303 50.2137 11.8303 50.016V43.215C11.8303 43.1172 11.811 43.0202 11.7736 42.9298C11.7361 42.8394 11.6812 42.7572 11.612 42.688C11.5428 42.6188 11.4606 42.5639 11.3702 42.5265C11.2798 42.489 11.1828 42.4697 11.085 42.4697Z" fill="#082032"/>
<path d="M32.6227 42.4697C32.425 42.4697 32.2354 42.5482 32.0956 42.688C31.9559 42.8278 31.8773 43.0174 31.8773 43.215V50.016C31.8773 50.2137 31.9559 50.4033 32.0956 50.543C32.2354 50.6828 32.425 50.7613 32.6227 50.7613C32.8203 50.7613 33.0099 50.6828 33.1497 50.543C33.2895 50.4033 33.368 50.2137 33.368 50.016V43.215C33.368 43.0174 33.2895 42.8278 33.1497 42.688C33.0099 42.5482 32.8203 42.4697 32.6227 42.4697Z" fill="#082032"/>
</svg>
