<svg width="54" height="53" viewBox="0 0 54 53" fill="none" xmlns="http://www.w3.org/2000/svg">
<g clip-path="url(#clip0_200_5255)">
<path d="M51.6885 1.55371H26.4153C25.8435 1.55371 25.3801 2.01715 25.3801 2.58887V7.22005C27.1197 8.15852 28.3019 9.99727 28.3019 12.1125V17.0729C29.3409 17.3869 30.0975 18.3514 30.0975 19.4929V20.5137C30.0975 21.9101 28.9656 23.0419 27.5693 23.0419H25.829V24.5378C25.829 25.2833 25.6677 25.9907 25.3801 26.629V32.5073L32.0696 34.6606C34.2089 35.3493 35.6595 37.3399 35.6595 39.5874V39.6532H38.3391L40.121 37.8712C40.8188 37.1734 41.9503 37.1734 42.6481 37.8712C43.3459 38.569 43.3459 39.7005 42.6481 40.3983L41.5789 41.4674H51.6885C52.2602 41.4674 52.7236 41.0039 52.7236 40.4322V2.58887C52.7236 2.01715 52.2602 1.55371 51.6885 1.55371Z" fill="#FEF0AE"/>
<path d="M51.6885 1.55371H48.2207C48.7924 1.55371 49.2559 2.01715 49.2559 2.58887V40.4323C49.2559 41.004 48.7924 41.4675 48.2207 41.4675H51.6885C52.2602 41.4675 52.7236 41.004 52.7236 40.4323V2.58887C52.7236 2.01715 52.2602 1.55371 51.6885 1.55371Z" fill="#FEE97D"/>
<path d="M23.0438 9.66873V14.4918H23.7588C24.8433 14.4918 25.7256 15.3741 25.7256 16.4586V17.068H27.5693C27.8246 17.068 28.0706 17.108 28.3019 17.1814V12.1123C28.3019 9.04402 25.8145 6.55664 22.7462 6.55664H21.8103C22.5745 7.37162 23.0438 8.46609 23.0438 9.66873Z" fill="#A44F3E"/>
<path d="M32.0697 34.661L24.17 32.1182V38.6599L18.468 35.0405L12.7661 38.6599V32.1182L4.86629 34.661C2.72683 35.3497 1.27637 37.3403 1.27637 39.5879V50.4111C1.27637 50.9829 1.73981 51.4463 2.31152 51.4463H31.2116V43.6161C31.2116 41.4276 32.9857 39.6536 35.1741 39.6536H35.6595V39.5879C35.6595 37.3403 34.209 35.3497 32.0697 34.661Z" fill="#596C76"/>
<path d="M32.1758 41.0265C32.9024 40.1857 33.9757 39.6529 35.1742 39.6529H35.6596V39.5872C35.6596 37.3397 34.2091 35.3491 32.0697 34.6604L30.7128 34.2236C31.629 35.1678 32.1758 36.4495 32.1758 37.8287V41.0265Z" fill="#465A61"/>
<path d="M8.45436 37.8062C8.29298 38.0237 8.32662 38.3289 8.53148 38.5061L11.494 41.0682L12.8695 39.8786V31.8545L8.45436 37.8062Z" fill="#7A8C98"/>
<path d="M28.4074 38.5036C28.611 38.3275 28.6457 38.0247 28.4871 37.8072L24.0665 31.7432V39.8788L25.4419 41.0684L28.4074 38.5036Z" fill="#7A8C98"/>
<path d="M12.8695 39.8779L8.4644 43.6877C8.28925 43.8393 8.23604 44.0887 8.33418 44.2985L11.6774 51.4455H12.8695V39.8779Z" fill="#7A8C98"/>
<path d="M28.4682 43.6848L24.0665 39.8779V51.4455H25.1596L28.5961 44.3006C28.6972 44.09 28.6449 43.8377 28.4682 43.6848Z" fill="#7A8C98"/>
<path d="M12.766 51.4464H24.1699V38.4819L18.8196 35.0856C18.7141 35.0187 18.5925 34.9834 18.4679 34.9834C18.3432 34.9834 18.2216 35.0187 18.1163 35.0856L12.766 38.4818V51.4464Z" fill="#F2FBFF"/>
<path d="M18.7749 40.1881C18.6954 40.2759 18.5865 40.3242 18.468 40.3242C18.3496 40.3242 18.2406 40.2758 18.1611 40.1881L17.0726 38.9863L15.6075 51.4456H21.3287L19.8635 38.9863L18.7749 40.1881Z" fill="#0593FC"/>
<path d="M18.4679 34.918L15.153 37.0221L18.0843 40.2583C18.2898 40.4851 18.6461 40.4851 18.8516 40.2583L21.7828 37.022L18.4679 34.918Z" fill="#26A6FE"/>
<path d="M9.36654 17.0682H11.2104V16.4588C11.2104 15.3743 12.0926 14.492 13.1772 14.492H23.1475V9.66894C23.1475 7.09627 21.0619 5.01074 18.4893 5.01074H13.2923C10.7196 5.01074 8.63406 7.09627 8.63406 9.66894V17.1816C8.86521 17.1082 9.11127 17.0682 9.36654 17.0682Z" fill="#BB5D4C"/>
<path d="M23.6523 30.8205L21.2975 29.4609C21.2189 29.465 21.1397 29.467 21.06 29.467H15.8759C15.7962 29.467 15.717 29.465 15.6383 29.4609L13.2836 30.8205C12.9633 31.0054 12.766 31.3472 12.766 31.717V38.6594L18.4679 35.04L24.1699 38.6594V31.717C24.1699 31.3471 23.9726 31.0054 23.6523 30.8205Z" fill="white"/>
<path d="M20.7312 29.532H16.2046C15.8262 29.532 15.4581 29.4883 15.1037 29.4082V31.2146C15.1037 31.3716 15.175 31.5201 15.2976 31.6184L18.1442 33.9002C18.3334 34.0518 18.6025 34.0518 18.7916 33.9002L21.6383 31.6184C21.7609 31.5201 21.8322 31.3716 21.8322 31.2146V29.4082C21.4777 29.4883 21.1095 29.532 20.7312 29.532Z" fill="#F89580"/>
<path d="M11.1067 16.9648H9.36654C7.97022 16.9648 6.83838 18.0968 6.83838 19.493V20.5139C6.83838 21.9102 7.97032 23.042 9.36654 23.042H11.1068V16.9648H11.1067Z" fill="#F89580"/>
<path d="M27.5693 16.9648H25.829V23.042H27.5693C28.9656 23.042 30.0975 21.9101 30.0975 20.5139V19.493C30.0975 18.0968 28.9657 16.9648 27.5693 16.9648Z" fill="#F89580"/>
<path d="M23.7588 14.3887H13.177C12.0336 14.3887 11.1067 15.3156 11.1067 16.459V24.5381C11.1067 27.3535 13.3891 29.6359 16.2046 29.6359H20.7312C23.5466 29.6359 25.829 27.3535 25.829 24.5381V16.459C25.8291 15.3156 24.9021 14.3887 23.7588 14.3887Z" fill="#FFCEBF"/>
<path d="M23.7588 14.3887H21.1228C22.2662 14.3887 23.1931 15.3156 23.1931 16.459V24.5381C23.1931 27.3535 20.9107 29.6359 18.0953 29.6359H20.7313C23.5467 29.6359 25.8291 27.3535 25.8291 24.5381V16.459C25.8291 15.3156 24.9022 14.3887 23.7588 14.3887Z" fill="#FFB09E"/>
<path d="M45.1723 15.1206C46.3889 11.7336 44.6294 8.00163 41.2424 6.78504C37.8554 5.56845 34.1235 7.32793 32.9069 10.7149C31.6903 14.1019 33.4498 17.8339 36.8368 19.0505C40.2238 20.2671 43.9557 18.5076 45.1723 15.1206Z" fill="#00F2A6"/>
<path d="M39.0519 6.40332C38.4519 6.40332 37.8715 6.48603 37.3198 6.63789C40.0779 7.39676 42.1048 9.9212 42.1048 12.9206C42.1048 15.9199 40.0779 18.4444 37.3198 19.2032C37.8715 19.3551 38.4519 19.4378 39.0519 19.4378C42.6512 19.4378 45.5691 16.5199 45.5691 12.9207C45.5691 9.32143 42.6512 6.40332 39.0519 6.40332Z" fill="#0ED290"/>
<path d="M38.3407 51.4463H31.2116V43.6709H39.3758V50.4111C39.3758 50.9828 38.9124 51.4463 38.3407 51.4463Z" fill="#7A8C98"/>
<path d="M36.7305 43.6709V50.4111C36.7305 50.9828 36.267 51.4463 35.6953 51.4463H38.3407C38.9124 51.4463 39.3758 50.9828 39.3758 50.4111V43.6709H36.7305Z" fill="#596C76"/>
<path d="M42.648 37.871C41.9502 37.1732 40.8188 37.1732 40.121 37.871L38.3391 39.6529H35.1741C32.9857 39.6529 31.2116 41.427 31.2116 43.6154V43.6702H39.3758L42.6479 40.398C43.3458 39.7002 43.3458 38.5688 42.648 37.871Z" fill="#FFCEBF"/>
<path d="M42.648 37.871C41.9502 37.1732 40.8188 37.1732 40.121 37.871L40.077 37.915C40.733 38.6155 40.7209 39.7143 40.0373 40.398L36.7651 43.6702H39.3759L42.648 40.398C43.3458 39.7002 43.3458 38.5688 42.648 37.871Z" fill="#FFB09E"/>
<path d="M45.7258 21.9971H32.3781C31.9493 21.9971 31.6017 22.3447 31.6017 22.7734C31.6017 23.2022 31.9493 23.5498 32.3781 23.5498H45.7258C46.1545 23.5498 46.5021 23.2022 46.5021 22.7734C46.5021 22.3447 46.1545 21.9971 45.7258 21.9971Z" fill="black"/>
<path d="M45.7258 25.2402H32.3781C31.9493 25.2402 31.6017 25.5878 31.6017 26.0166C31.6017 26.4454 31.9493 26.793 32.3781 26.793H45.7258C46.1545 26.793 46.5021 26.4454 46.5021 26.0166C46.5021 25.5878 46.1545 25.2402 45.7258 25.2402Z" fill="black"/>
<path d="M45.7258 28.4844H32.3781C31.9493 28.4844 31.6017 28.832 31.6017 29.2607C31.6017 29.6895 31.9493 30.0371 32.3781 30.0371H45.7258C46.1545 30.0371 46.5021 29.6895 46.5021 29.2607C46.5021 28.832 46.1545 28.4844 45.7258 28.4844Z" fill="black"/>
<path d="M41.6992 31.7275H32.3781C31.9493 31.7275 31.6017 32.0751 31.6017 32.5039C31.6017 32.9327 31.9493 33.2803 32.3781 33.2803H41.6992C42.128 33.2803 42.4756 32.9327 42.4756 32.5039C42.4756 32.0751 42.128 31.7275 41.6992 31.7275Z" fill="black"/>
<path d="M16.0046 19.1998V17.709C16.0046 17.2802 15.657 16.9326 15.2282 16.9326C14.7994 16.9326 14.4518 17.2802 14.4518 17.709V19.1998C14.4518 19.6286 14.7994 19.9762 15.2282 19.9762C15.657 19.9762 16.0046 19.6286 16.0046 19.1998Z" fill="black"/>
<path d="M21.7078 19.9762C22.1365 19.9762 22.4841 19.6286 22.4841 19.1998V17.709C22.4841 17.2802 22.1365 16.9326 21.7078 16.9326C21.279 16.9326 20.9314 17.2802 20.9314 17.709V19.1998C20.9314 19.6286 21.2789 19.9762 21.7078 19.9762Z" fill="black"/>
<path d="M18.4679 22.9057C18.8967 22.9057 19.2443 22.5581 19.2443 22.1294C19.2443 21.7006 18.8967 21.353 18.4679 21.353C18.3601 21.353 18.2724 21.2652 18.2724 21.1575C18.2724 21.0497 18.3602 20.9619 18.4679 20.9619C18.8967 20.9619 19.2443 20.6143 19.2443 20.1855C19.2443 19.7568 18.8967 19.4092 18.4679 19.4092C17.504 19.4092 16.7197 20.1935 16.7197 21.1575C16.7197 22.1214 17.504 22.9057 18.4679 22.9057Z" fill="black"/>
<path d="M18.4679 27.1293C19.2849 27.149 20.1394 26.8068 20.7551 26.2102C21.2838 25.6979 21.574 25.0648 21.5723 24.4276C21.5711 23.9995 21.2237 23.6533 20.7959 23.6533C20.7952 23.6533 20.7944 23.6533 20.7937 23.6533C20.365 23.6545 20.0183 24.003 20.0194 24.4318C20.0199 24.6403 19.8943 24.8821 19.6744 25.0952C19.3536 25.406 18.9022 25.5906 18.4942 25.5767C18.4767 25.5761 18.4591 25.5761 18.4415 25.5767C18.0343 25.5921 17.582 25.406 17.2613 25.0952C17.0415 24.8822 16.9158 24.6403 16.9163 24.4319C16.9175 24.003 16.5709 23.6546 16.1421 23.6533C16.1414 23.6533 16.1407 23.6533 16.14 23.6533C15.7122 23.6533 15.3648 23.9995 15.3636 24.4275C15.3618 25.0647 15.652 25.6978 16.1806 26.2102C16.7793 26.7904 17.6023 27.1302 18.3998 27.1302C18.4225 27.1301 18.4453 27.1298 18.4679 27.1293Z" fill="black"/>
<path d="M33.5296 14.4879C33.4127 14.0754 32.9833 13.8357 32.571 13.9525C32.1585 14.0694 31.9188 14.4986 32.0356 14.9111C32.9201 18.0333 35.8054 20.214 39.052 20.214C43.0737 20.214 46.3455 16.9421 46.3455 12.9205C46.3455 8.89877 43.0737 5.62695 39.052 5.62695C35.8402 5.62695 32.9635 7.7777 32.0563 10.8572C31.9352 11.2685 32.1704 11.7001 32.5817 11.8212C32.9928 11.9423 33.4247 11.7073 33.5457 11.2959C34.2596 8.87227 36.5239 7.17969 39.0519 7.17969C42.2174 7.17969 44.7927 9.75495 44.7927 12.9205C44.7927 16.086 42.2174 18.6612 39.0519 18.6612C36.4964 18.6612 34.2255 16.945 33.5296 14.4879Z" fill="black"/>
<path d="M38.5087 15.5791C38.7074 15.5791 38.9061 15.5033 39.0577 15.3516L42.3887 12.0206C42.6919 11.7174 42.6919 11.2258 42.3887 10.9227C42.0855 10.6195 41.5939 10.6195 41.2908 10.9227L38.5089 13.7047L36.813 12.0089C36.5098 11.7057 36.0182 11.7057 35.7151 12.0089C35.4119 12.3121 35.4119 12.8037 35.7151 13.1068L37.9599 15.3516C38.1114 15.5033 38.3101 15.5791 38.5087 15.5791Z" fill="black"/>
<path d="M51.6885 0.777344H26.4153C25.4165 0.777344 24.6038 1.59004 24.6038 2.58887V6.05902C24.0162 5.87828 23.3925 5.78056 22.7463 5.78056H22.2806C21.3006 4.8248 19.9629 4.23435 18.4893 4.23435H13.2923C10.2956 4.23435 7.85768 6.67225 7.85768 9.66892V10.6619C7.85768 11.0907 8.20529 11.4383 8.63405 11.4383C9.06281 11.4383 9.41042 11.0907 9.41042 10.6619V9.66892C9.41042 7.52843 11.1518 5.78709 13.2923 5.78709H18.4893C20.6298 5.78709 22.3711 7.52843 22.3711 9.66892V13.6121H13.1772C11.6988 13.6121 10.4805 14.7451 10.3437 16.1883H9.41042V14.285C9.41042 13.8562 9.06281 13.5086 8.63405 13.5086C8.20529 13.5086 7.85768 13.8562 7.85768 14.285V16.5545C6.79251 17.1036 6.062 18.2142 6.062 19.4929V20.5137C6.062 22.3359 7.54445 23.8183 9.36653 23.8183H10.3305V24.5378C10.3305 26.82 11.6395 28.8009 13.5454 29.773L12.8954 30.1482C12.3856 30.4426 12.0529 30.9692 11.9985 31.5492L4.62841 33.9216C2.15904 34.7165 0.5 36.9935 0.5 39.5875V50.4108C0.5 51.4096 1.3127 52.2223 2.31152 52.2223H4.91536C5.34412 52.2223 5.69172 51.8747 5.69172 51.446C5.69172 51.0172 5.34412 50.6696 4.91536 50.6696H2.31152C2.16888 50.6696 2.05273 50.5535 2.05273 50.4108V39.5875C2.05273 37.6702 3.27898 35.9873 5.10417 35.3997L10.5805 33.6369L7.83087 37.3434C7.42985 37.8842 7.51453 38.6526 8.02372 39.0929L10.3073 41.0679L7.95664 43.1009C7.52074 43.4781 7.38689 44.1059 7.63109 44.6278L10.4573 50.6695H8.5384C8.10964 50.6695 7.76203 51.0171 7.76203 51.4459C7.76203 51.8746 8.10964 52.2222 8.5384 52.2222H38.3407C39.3395 52.2222 40.1522 51.4095 40.1522 50.4107V43.992L41.9005 42.2437H51.6885C52.6873 42.2437 53.5 41.431 53.5 40.4322V2.58887C53.5 1.59004 52.6873 0.777344 51.6885 0.777344ZM10.3304 22.2656H9.36642C8.40042 22.2656 7.61463 21.4797 7.61463 20.5138V19.493C7.61463 18.527 8.40052 17.7412 9.36642 17.7412H10.3304V22.2656ZM11.9896 50.2811L9.12037 44.1473L11.9896 41.6657V50.2811ZM11.9896 39.6129L11.494 40.0415L9.22098 38.0757L11.9896 34.3435V39.6129ZM27.5255 12.1126V16.1884H26.5923C26.4607 14.7993 25.3269 13.698 23.9237 13.6173V9.66892C23.9237 8.85198 23.7414 8.07716 23.4171 7.38133C25.7358 7.70854 27.5255 9.70505 27.5255 12.1126ZM27.5693 17.7411C28.5353 17.7411 29.3211 18.5269 29.3211 19.4929V20.5137C29.3211 21.4797 28.5352 22.2655 27.5693 22.2655H26.6054V17.7411H27.5693ZM11.8831 24.5379V16.4588C11.8831 15.7453 12.4635 15.1649 13.177 15.1649H23.7587C24.4723 15.1649 25.0527 15.7453 25.0527 16.4588V24.5379C25.0527 26.9208 23.114 28.8594 20.7312 28.8594H16.2046C13.8217 28.8594 11.8831 26.9207 11.8831 24.5379ZM27.7194 38.0717L25.4419 40.0415L24.9463 39.6129V34.2677L27.7194 38.0717ZM21.0558 30.4027V31.0905L18.4679 33.165L15.88 31.0907V30.4028C15.9875 30.4087 16.0957 30.4122 16.2046 30.4122H20.7312C20.8402 30.4121 20.9484 30.4086 21.0558 30.4027ZM13.5423 31.7171C13.5423 31.625 13.5919 31.5391 13.6717 31.493L14.3273 31.1146V31.2149C14.3273 31.6096 14.504 31.9777 14.812 32.2245L17.6586 34.5063C17.6891 34.5307 17.7204 34.5535 17.7523 34.5748L13.5423 37.2472V31.7171ZM14.9169 50.6696H13.5423V39.0863L15.0873 38.1056L16.2442 39.3829L14.9169 50.6696ZM16.4803 50.6696L17.6299 40.8947C17.8625 41.0925 18.1595 41.2045 18.4679 41.2044C18.7764 41.2044 19.0734 41.0924 19.3059 40.8946L20.4554 50.6696H16.4803ZM18.4679 39.525L16.4176 37.2612L18.468 35.9596L20.5185 37.2611L18.4679 39.525ZM23.3935 50.6696H22.0189L20.6917 39.3829L21.8484 38.1057L23.3935 39.0865V50.6696ZM23.3935 37.2472L19.1835 34.5748C19.2154 34.5535 19.2468 34.5307 19.2772 34.5063L22.1238 32.2246C22.432 31.9777 22.6087 31.6097 22.6087 31.2149V31.1146L23.2642 31.493C23.344 31.5391 23.3936 31.625 23.3936 31.7171L23.3935 37.2472ZM24.6038 30.6597C24.4565 30.4542 24.266 30.2785 24.0406 30.1484L23.3906 29.7731C23.8298 29.5491 24.2368 29.271 24.6038 28.9485V30.6597ZM24.9463 41.6658L27.8104 44.1429L24.9463 50.0982V41.6658ZM30.4354 43.6157V50.6696H26.3944L29.2956 44.6376C29.5481 44.1125 29.4168 43.4794 28.976 43.0981L26.6287 41.068L28.9151 39.0904C29.4202 38.6537 29.5077 37.8889 29.1143 37.3494L26.4239 33.659L31.8316 35.3997C33.4318 35.9148 34.5714 37.272 34.8282 38.8909C32.3763 39.0688 30.4354 41.1192 30.4354 43.6157ZM38.5994 50.4108C38.5994 50.5535 38.4833 50.6696 38.3407 50.6696H31.988V44.447H38.5994V50.4108ZM42.099 39.8494L39.0542 42.8942H32.0704C32.3982 41.4838 33.6655 40.4296 35.1741 40.4296H38.3391C38.545 40.4296 38.7425 40.3478 38.888 40.2022L40.6699 38.4204C41.0639 38.0265 41.7049 38.0264 42.0989 38.4204C42.2898 38.6112 42.3948 38.8649 42.3948 39.1349C42.3948 39.4048 42.2899 39.6585 42.099 39.8494ZM51.9473 40.4323C51.9473 40.575 51.8311 40.6911 51.6885 40.6911H43.4209C43.7623 40.2463 43.9478 39.7049 43.9478 39.1349C43.9478 38.4502 43.6811 37.8064 43.197 37.3224C42.1976 36.323 40.5714 36.3231 39.5721 37.3224L38.0176 38.8769H36.3938C36.1219 36.5851 34.5485 34.643 32.3076 33.9217L26.1566 31.9418V26.788C26.4455 26.0948 26.6055 25.3348 26.6055 24.5379V23.8184H27.5694C29.3916 23.8184 30.874 22.3359 30.874 20.5138V19.493C30.874 18.2143 30.1435 17.1038 29.0784 16.5546V12.1126C29.0784 9.87626 27.912 7.90843 26.1566 6.78156V2.58887C26.1566 2.44622 26.2727 2.33008 26.4153 2.33008H51.6885C51.8311 2.33008 51.9473 2.44622 51.9473 2.58887V40.4323Z" fill="black"/>
<path d="M45.7258 31.7275H44.1836C43.7548 31.7275 43.4072 32.0751 43.4072 32.5039C43.4072 32.9327 43.7548 33.2803 44.1836 33.2803H45.7258C46.1545 33.2803 46.5021 32.9327 46.5021 32.5039C46.5021 32.0751 46.1545 31.7275 45.7258 31.7275Z" fill="black"/>
</g>
<defs>
<clipPath id="clip0_200_5255">
<rect width="53" height="53" fill="white" transform="translate(0.5)"/>
</clipPath>
</defs>
</svg>
