<svg width="54" height="54" viewBox="0 0 54 54" fill="none" xmlns="http://www.w3.org/2000/svg">
<path fill-rule="evenodd" clip-rule="evenodd" d="M8.31491 28.2969L25.7809 15.3154L43.2469 28.2969V48.8749C43.2469 50.8038 41.6736 52.377 39.7447 52.377H11.8172C9.88824 52.377 8.31491 50.8038 8.31491 48.8749V28.2969Z" fill="#4EB1FC"/>
<path fill-rule="evenodd" clip-rule="evenodd" d="M12.1092 25.4769L25.781 15.3154L43.247 28.2969V48.8749C43.247 50.8037 41.6738 52.377 39.7448 52.377H15.6113C13.6824 52.377 12.1091 50.8037 12.1091 48.8749L12.1092 25.4769Z" fill="#70C1F9"/>
<path fill-rule="evenodd" clip-rule="evenodd" d="M25.7809 17.3207C26.0384 17.3207 26.2959 17.4034 26.5181 17.5685L43.247 30.0021H48.3243C49.0143 30.0021 49.6008 29.5783 49.8175 28.9234C50.0342 28.2683 49.8163 27.5786 49.2626 27.1669L28.3273 11.6069C27.5595 11.0363 26.6702 10.751 25.7809 10.751C24.8916 10.751 24.0023 11.0364 23.2345 11.6069L2.2995 27.1668C1.7458 27.5784 1.52779 28.2682 1.74455 28.9232C1.96131 29.5783 2.54773 30.0021 3.23777 30.0021H8.315L25.0436 17.5686C25.2659 17.4034 25.5234 17.3207 25.7809 17.3208V17.3207Z" fill="#ED1717"/>
<path fill-rule="evenodd" clip-rule="evenodd" d="M45.8918 30.0021H48.3241C49.0142 30.0021 49.6007 29.5783 49.8174 28.9233C50.0341 28.2682 49.8161 27.5785 49.2625 27.1669L29.0786 12.1654C28.2913 11.5803 27.255 11.5803 26.4678 12.1654L4.74258 28.3125C4.35719 28.5991 4.20543 29.0791 4.35636 29.5349C4.41764 29.7202 4.52157 29.8788 4.65541 30.002H8.315L26.3661 16.5857C26.5883 16.4205 26.8458 16.3377 27.1032 16.3377C27.3606 16.3377 27.6182 16.4205 27.8404 16.5857L45.8918 30.0021Z" fill="#FF3838"/>
<path fill-rule="evenodd" clip-rule="evenodd" d="M14.9974 47.7677V44.7256C15.0035 41.0327 15.1705 40.1372 16.6552 39.2667C18.2046 38.3584 20.6312 37.9291 22.469 37.1738H29.0927C30.9306 37.9291 33.3572 38.3584 34.9066 39.2667C36.3913 40.1372 36.5583 41.0327 36.5643 44.7256V47.7677C36.5644 48.5965 36.227 49.3098 35.5864 49.8357L34.0191 51.122H17.5428L15.9755 49.8357C15.3348 49.3099 14.9974 48.5965 14.9974 47.7677Z" fill="#ED1717"/>
<path fill-rule="evenodd" clip-rule="evenodd" d="M29.0928 37.1738C30.9307 37.9291 33.3572 38.3584 34.9065 39.2667C36.3912 40.1372 36.5582 41.0327 36.5642 44.7256V47.7677C36.5643 48.5965 36.227 49.3098 35.5863 49.8357L34.019 51.122H19.0955L17.5282 49.8357C16.8875 49.3099 16.5502 48.5965 16.5503 47.7677V44.7256C16.5564 41.0327 16.7234 40.1372 18.2081 39.2667C19.7574 38.3584 22.184 37.9291 24.0218 37.1738H29.0928Z" fill="#FF3838"/>
<path fill-rule="evenodd" clip-rule="evenodd" d="M22.4691 37.1737C22.9178 38.6263 24.2606 39.6169 25.781 39.6169C27.3013 39.6169 28.6441 38.6264 29.0929 37.1737C28.3472 36.7702 27.8594 36.2332 27.8594 35.4095V34.4014H23.7027V35.4095C23.7027 36.2332 23.2148 36.7702 22.4692 37.1737H22.4691Z" fill="#E6B17C"/>
<path fill-rule="evenodd" clip-rule="evenodd" d="M23.2353 38.5032C23.8769 39.1969 24.7913 39.6169 25.781 39.6169C27.3013 39.6169 28.6441 38.6264 29.0929 37.1737C28.3472 36.7702 27.8594 36.2332 27.8594 35.4095V34.4014H24.8155V36.4188C24.8155 37.1991 23.9593 38.0706 23.2353 38.5032Z" fill="#F2C496"/>
<path d="M32.6235 41.6904H18.9383C18.7335 41.6904 18.5674 41.8565 18.5674 42.0613V51.3143C18.5674 51.5191 18.7335 51.6852 18.9383 51.6852H32.6235C32.8283 51.6852 32.9944 51.5191 32.9944 51.3143V42.0613C32.9944 41.8565 32.8283 41.6904 32.6235 41.6904Z" fill="#D1D1F0"/>
<path d="M32.6234 41.6904H19.7664C19.5616 41.6904 19.3955 41.8565 19.3955 42.0613V51.3143C19.3955 51.5191 19.5616 51.6852 19.7664 51.6852H32.6234C32.8282 51.6852 32.9943 51.5191 32.9943 51.3143V42.0613C32.9943 41.8565 32.8282 41.6904 32.6234 41.6904Z" fill="#F3F3FF"/>
<path d="M33.5744 50.6768H17.9876C17.742 50.6768 17.5428 50.8759 17.5428 51.1216V51.952C17.5428 52.1976 17.742 52.3968 17.9876 52.3968H33.5744C33.82 52.3968 34.0192 52.1976 34.0192 51.952V51.1216C34.0192 50.8759 33.82 50.6768 33.5744 50.6768Z" fill="#A3A3CC"/>
<path d="M25.781 47.3877C26.5474 47.3877 27.1686 46.8486 27.1686 46.1836C27.1686 45.5186 26.5474 44.9795 25.781 44.9795C25.0146 44.9795 24.3934 45.5186 24.3934 46.1836C24.3934 46.8486 25.0146 47.3877 25.781 47.3877Z" fill="#70C1F9"/>
<path d="M48.6835 15.0661C49.0204 10.3352 45.4584 6.22699 40.7275 5.89009C35.9966 5.55318 31.8884 9.11521 31.5515 13.8461C31.2146 18.577 34.7766 22.6852 39.5075 23.0221C44.2384 23.359 48.3466 19.797 48.6835 15.0661Z" fill="#4EB1FC"/>
<path fill-rule="evenodd" clip-rule="evenodd" d="M40.1199 5.84375C44.865 5.84375 48.7117 9.69039 48.7117 14.4355C48.7117 19.1807 44.865 23.0273 40.1199 23.0273C39.5052 23.0273 38.906 22.9623 38.3278 22.8397C35.4498 21.3329 33.464 18.136 33.464 14.4355C33.464 10.7351 35.4498 7.5382 38.3278 6.03153C38.9059 5.90886 39.5052 5.84375 40.1199 5.84375Z" fill="#70C1F9"/>
<path fill-rule="evenodd" clip-rule="evenodd" d="M46.5928 7.37292C46.9768 7.75686 46.9768 8.37919 46.5928 8.76313C46.2089 9.14697 45.5865 9.14697 45.2026 8.76313C44.8187 8.37919 44.8187 7.75686 45.2026 7.37292C45.5865 6.98898 46.2089 6.98898 46.5928 7.37292Z" fill="#FDC72E"/>
<path fill-rule="evenodd" clip-rule="evenodd" d="M25.7809 35.9541C20.1914 35.5916 18.7153 24.5029 25.7809 24.5029C32.8465 24.5029 31.3704 35.5916 25.7809 35.9541Z" fill="#F2C496"/>
<path fill-rule="evenodd" clip-rule="evenodd" d="M25.7809 35.9541C25.4019 35.9296 25.0426 35.8541 24.7029 35.7378C22.0541 33.1295 21.5174 27.052 24.3506 24.678C24.7821 24.5651 25.2574 24.5029 25.7809 24.5029C32.8466 24.5029 31.3704 35.5916 25.7809 35.9541Z" fill="#FDD7AD"/>
<path d="M33.5743 50.6768H18.8157C18.5701 50.6768 18.3709 50.8759 18.3709 51.1216V51.952C18.3709 52.1976 18.5701 52.3968 18.8157 52.3968H33.5743C33.8199 52.3968 34.0191 52.1976 34.0191 51.952V51.1216C34.0191 50.8759 33.8199 50.6768 33.5743 50.6768Z" fill="#BCBEE2"/>
<path fill-rule="evenodd" clip-rule="evenodd" d="M25.7816 45.4972C26.2537 45.4972 26.6498 45.8104 26.6498 46.1831C26.6498 46.5557 26.2537 46.8695 25.7816 46.8695C25.3095 46.8695 24.9134 46.5547 24.9134 46.1831C24.9134 45.8114 25.3094 45.4972 25.7816 45.4972ZM25.7816 47.9046C26.8326 47.9046 27.6855 47.1324 27.6855 46.1831C27.6855 45.2337 26.8325 44.4619 25.7816 44.4619C24.7307 44.4619 23.8777 45.2341 23.8777 46.1831C23.8777 47.132 24.7307 47.9046 25.7816 47.9046ZM44.7797 5.38684C44.7493 5.10207 44.9575 4.84866 45.2417 4.81926C46.3891 4.70043 47.4299 5.04617 48.1763 5.79148C48.9226 6.53576 49.2679 7.57806 49.146 8.72698C49.1207 8.99301 48.8973 9.19104 48.6333 9.19197C48.6181 9.19197 48.5978 9.19093 48.5826 9.18897C48.2982 9.15998 48.0901 8.90513 48.1155 8.62036C48.2019 7.7883 47.9632 7.04402 47.4454 6.52354C46.9224 6.00265 46.1762 5.76353 45.3435 5.84831C45.0591 5.87719 44.8053 5.67109 44.7799 5.38684H44.7797ZM49.613 4.35468C48.557 3.29562 47.0694 2.80619 45.4295 2.97379C45.1451 3.0037 44.9371 3.25763 44.9675 3.54188C44.9979 3.82665 45.2518 4.03389 45.5361 4.00387C46.8612 3.86785 48.0442 4.2521 48.8818 5.08623C49.7145 5.91984 50.1003 7.10841 49.9633 8.43092C49.9328 8.7158 50.141 8.96962 50.4253 8.99953C50.4405 9.00005 50.4608 9.0016 50.476 9.0016C50.7399 9.0016 50.9633 8.80358 50.9939 8.53651C51.1615 6.89765 50.6689 5.41272 49.613 4.35468ZM52.8369 8.34718C53.0552 6.21786 52.4206 4.28968 51.0498 2.91789C49.6789 1.54506 47.7497 0.910409 45.6174 1.12924C45.333 1.15812 45.1299 1.41308 45.1554 1.69734C45.1858 1.98117 45.4396 2.18779 45.724 2.15881C47.5415 1.97248 49.1713 2.50155 50.3186 3.64943C51.466 4.7968 51.994 6.4281 51.8063 8.24159C51.7758 8.52636 51.984 8.77977 52.2683 8.80917C52.2885 8.81072 52.3038 8.81176 52.3241 8.81176C52.5829 8.81176 52.8114 8.61425 52.8369 8.34718ZM49.349 28.7572C49.2018 29.2045 48.821 29.4823 48.3488 29.4823H43.4343L26.8275 17.1391C26.5178 16.9101 26.1574 16.7888 25.7816 16.7888C25.4059 16.7888 25.0454 16.9101 24.7358 17.1391L8.12898 29.4823H3.21437C2.74731 29.4823 2.3614 29.2045 2.21421 28.7572C2.06701 28.31 2.20913 27.8576 2.58479 27.5774L23.5427 12.0021C24.2078 11.5086 24.9795 11.2477 25.7816 11.2477C26.5837 11.2477 27.3555 11.5086 28.0205 12.0021L31.0058 14.2218V14.435C31.0058 19.4618 35.0928 23.5503 40.119 23.5503C41.1091 23.5503 42.0636 23.3925 42.9521 23.1005L48.9784 27.5774C49.3541 27.8576 49.4963 28.31 49.3491 28.7572H49.349ZM39.7586 51.8789C41.4086 51.8789 42.749 50.5381 42.749 48.891V30.2605L26.2132 17.9701C26.0812 17.8736 25.934 17.8243 25.7816 17.8243C25.6293 17.8243 25.482 17.8736 25.3501 17.9701L8.81426 30.2605V48.891C8.81426 50.5381 10.1546 51.8789 11.8046 51.8789H17.0238V51.3661L15.6479 50.235C14.8864 49.6085 14.4802 48.7545 14.4802 47.7671V44.7249C14.4853 41.167 14.5817 39.8835 16.3942 38.8194C17.3741 38.2467 18.6585 37.8594 19.9024 37.4857C20.7046 37.2445 21.5322 36.9952 22.248 36.7043C22.8573 36.3698 23.1466 35.9966 23.1821 35.5057C21.4052 34.1675 20.4304 31.662 20.5066 29.3549C20.5522 27.8735 21.0142 26.59 21.8317 25.6416C22.7658 24.5577 24.1316 23.9845 25.7815 23.9845C27.4314 23.9845 28.7972 24.5576 29.7315 25.6416C30.5488 26.59 31.0108 27.8734 31.0566 29.3549C31.1326 31.662 30.1579 34.1674 28.381 35.5057C28.4165 35.9967 28.7059 36.3698 29.3151 36.7043C30.0309 36.9953 30.8585 37.2446 31.6607 37.4857C32.9045 37.8594 34.1941 38.2467 35.1689 38.8194C36.9814 39.8835 37.0779 41.167 37.0829 44.7239V47.7671C37.0829 48.7545 36.6767 49.6085 35.9152 50.235L34.5393 51.3661V51.8789H39.7586ZM18.0595 51.1945H33.5038V51.8789H18.0595V51.1945ZM32.4782 50.1593V42.2072H19.0851V50.1593H32.4782ZM24.1317 36.0676C24.6241 36.29 25.1673 36.4322 25.7461 36.4702C25.7613 36.4712 25.7715 36.4712 25.7816 36.4712C25.7918 36.4712 25.8019 36.4712 25.8172 36.4702C26.396 36.4321 26.9392 36.29 27.4316 36.0676C27.5839 36.5845 27.9241 37.0231 28.4572 37.3907C27.98 38.4269 26.9494 39.0986 25.7816 39.0986C24.6138 39.0986 23.5832 38.4269 23.106 37.3907C23.6391 37.0231 23.9793 36.5845 24.1316 36.0676H24.1317ZM25.7817 35.435C27.3454 35.3202 28.3405 34.2882 28.9041 33.4382C29.6605 32.2944 30.0666 30.8186 30.021 29.3878C29.9906 28.3628 29.5844 25.0195 25.7817 25.0195C21.9791 25.0195 21.5729 28.3628 21.5424 29.3878C21.4968 30.8185 21.9029 32.2944 22.6594 33.4382C23.2229 34.2881 24.218 35.3202 25.7817 35.435ZM22.1771 37.8421C21.5424 38.0741 20.8621 38.2787 20.2021 38.4777C19.0141 38.8336 17.7905 39.2022 16.9173 39.7124C15.6937 40.4308 15.521 41.0406 15.516 44.726V47.7671C15.516 48.4439 15.7799 49.0053 16.3029 49.4349L17.4198 50.3487C17.5772 50.2299 17.7752 50.1593 17.9884 50.1593H18.0493V42.0615C18.0493 41.5705 18.4504 41.172 18.9378 41.172H32.6253C33.1128 41.172 33.5138 41.5705 33.5138 42.0615V50.1593H33.5748C33.788 50.1593 33.986 50.2299 34.1485 50.3487L35.2603 49.4349C35.7833 49.0054 36.0473 48.4439 36.0473 47.7671V44.7249C36.0422 41.0406 35.8695 40.4308 34.646 39.7124C33.7778 39.2022 32.5492 38.8336 31.3612 38.4777C30.7012 38.2786 30.0209 38.0741 29.3862 37.8421C28.7414 39.2321 27.3504 40.1338 25.7816 40.1338C24.2128 40.1338 22.8218 39.2321 22.1771 37.8421ZM34.3669 8.76963C33.0418 10.1145 32.1838 11.9173 32.0568 13.9178H35.0928C35.1437 12.4216 35.3924 10.9914 35.8189 9.73636C35.3061 9.46225 34.8187 9.14021 34.3669 8.76963ZM45.8968 7.6029C45.7749 7.6029 45.6582 7.65166 45.5718 7.73944C45.3891 7.92069 45.3891 8.21561 45.5718 8.39687C45.7496 8.57916 46.049 8.57916 46.2268 8.39687C46.3182 8.30908 46.3638 8.1918 46.3638 8.06789C46.3638 7.94399 46.3182 7.82618 46.2268 7.73944V7.7384C46.1404 7.65155 46.0237 7.6029 45.8968 7.6029ZM45.8765 20.1015C47.1965 18.7581 48.0544 16.9538 48.1815 14.9524H45.1454C45.0997 16.4496 44.8509 17.8788 44.4245 19.1333C44.9373 19.408 45.4196 19.7319 45.8765 20.1015ZM43.7695 20.6655C43.4852 21.2006 43.1654 21.6636 42.8252 22.0495C43.6478 21.7556 44.4143 21.3301 45.0896 20.7991C44.7595 20.5406 44.4092 20.3097 44.0437 20.1066C43.9574 20.298 43.866 20.4853 43.7695 20.6655ZM36.1997 20.1055C35.8342 20.3086 35.4839 20.5406 35.1539 20.8001C35.8291 21.3301 36.5907 21.7556 37.4182 22.0495C37.0781 21.6637 36.7582 21.2007 36.4738 20.6655C36.3774 20.4853 36.286 20.298 36.1997 20.1055ZM39.6014 14.9524H36.1287C36.1794 16.3141 36.4028 17.5935 36.7634 18.6956C37.6671 18.3398 38.6216 18.1265 39.6014 18.0706V14.9523V14.9524ZM39.6014 10.8004C38.6215 10.7446 37.6671 10.5323 36.7634 10.1764C36.4029 11.2776 36.1795 12.5571 36.1287 13.9177H39.6014V10.8004ZM39.6014 6.55242V9.76307C38.7484 9.70831 37.9209 9.52094 37.134 9.20967C37.7635 7.79523 38.6368 6.81442 39.6014 6.55242ZM36.1997 8.76652C36.2861 8.57409 36.3775 8.38631 36.4738 8.20557C36.7582 7.66946 37.078 7.20747 37.4182 6.82157C36.5906 7.11555 35.8291 7.541 35.1539 8.071C35.4839 8.33041 35.8342 8.56342 36.1997 8.76652ZM44.4651 8.5127C44.3281 8.60203 44.1859 8.68785 44.0437 8.76756C43.9574 8.57512 43.866 8.38631 43.7695 8.20547C43.4801 7.66729 43.1654 7.20333 42.8201 6.81691C43.3938 7.02 43.9472 7.29008 44.465 7.6236C44.3787 7.91252 44.3787 8.22265 44.465 8.5126L44.4651 8.5127ZM40.637 6.55242V9.76307C41.4951 9.70924 42.3226 9.52291 43.1095 9.21122C42.4799 7.79627 41.6067 6.81432 40.637 6.55242ZM40.637 13.9177H44.1097C44.064 12.558 43.8356 11.2797 43.475 10.1785C42.5764 10.5354 41.6219 10.7455 40.637 10.8004V13.9177ZM40.637 18.0706C41.6169 18.1264 42.5764 18.3396 43.475 18.6966C43.8355 17.5943 44.0639 16.3145 44.1097 14.9523H40.637V18.0706ZM40.637 22.3186C41.6068 22.0571 42.48 21.0751 43.1044 19.6628C42.3226 19.351 41.4899 19.1622 40.637 19.1078V22.3186ZM39.6014 22.3186V19.1078C38.7484 19.1622 37.9209 19.351 37.134 19.6628C37.7635 21.0751 38.6368 22.0571 39.6014 22.3186ZM46.4807 9.45097C46.2928 9.52808 46.0949 9.56773 45.8969 9.56773C45.6176 9.56773 45.3435 9.49009 45.0998 9.33679C44.8815 9.48098 44.653 9.61452 44.4246 9.73739C44.851 10.9924 45.0998 12.4217 45.1455 13.9178H48.1816C48.08 12.2901 47.486 10.7334 46.4808 9.45107L46.4807 9.45097ZM35.0929 14.9524H32.0569C32.1838 16.9527 33.0419 18.7566 34.367 20.1015C34.8188 19.7308 35.3062 19.4079 35.819 19.1333C35.3925 17.8788 35.1438 16.4497 35.0929 14.9524ZM49.5929 26.7463L44.0792 22.6456C47.1305 21.1707 49.2375 18.0448 49.2375 14.4351C49.2375 12.3597 48.5318 10.3532 47.2372 8.74178C47.3438 8.53465 47.3996 8.30567 47.3996 8.0681C47.3996 7.66749 47.2423 7.29028 46.9579 7.00707C46.6735 6.72426 46.2979 6.56785 45.8968 6.56785C45.6124 6.56785 45.3383 6.64963 45.0997 6.79983C43.6172 5.83061 41.9062 5.31935 40.1191 5.31935C35.5803 5.31935 31.803 8.66 31.1176 13.013L28.6401 11.1711C27.7973 10.5441 26.8072 10.2125 25.7817 10.2125C24.7562 10.2125 23.7712 10.5441 22.9233 11.1711L1.97053 26.7463C1.22925 27.2935 0.945 28.211 1.22925 29.0827C1.51868 29.9539 2.30054 30.5174 3.21437 30.5174H7.77858V48.891C7.77858 51.1092 9.58597 52.9136 11.8046 52.9136H39.7586C41.9772 52.9136 43.7846 51.1092 43.7846 48.891V30.5174H48.3488C49.2677 30.5174 50.0445 29.9539 50.334 29.0827C50.6234 28.211 50.334 27.2935 49.5927 26.7463H49.5929Z" fill="black"/>
</svg>
