<svg width="54" height="54" viewBox="0 0 54 54" fill="none" xmlns="http://www.w3.org/2000/svg">
<g clip-path="url(#clip0_264_4809)">
<path d="M45.5219 16.0075H8.47797V2.86186C8.47797 1.97955 9.19287 1.26465 10.0748 1.26465H43.9251C44.807 1.26465 45.5219 1.97955 45.5219 2.86186V16.0075Z" fill="#FCE270"/>
<path d="M43.9251 1.26465H39.1011C39.983 1.26465 40.6979 1.97955 40.6979 2.86186V16.0075H45.5219V2.86186C45.5219 1.97955 44.807 1.26465 43.9251 1.26465Z" fill="#FFBE7C"/>
<path d="M6.3385 52.7196V19.3428H47.6614V52.7196H6.3385Z" fill="#FEEBCA"/>
<path d="M6.3385 19.3428V24.4009H24.6466C34.5384 24.4009 42.5572 32.4197 42.5572 42.3119V52.7196H47.6618V19.3428H6.3385Z" fill="#F9D9AF"/>
<path d="M43.9251 1.26465H10.0748C9.19287 1.26465 8.47797 1.97955 8.47797 2.86186V4.94955H45.5219V2.86186C45.5219 1.97955 44.807 1.26465 43.9251 1.26465Z" fill="#FF5876"/>
<path d="M43.9251 1.26465H39.1011C39.983 1.26465 40.6979 1.97955 40.6979 2.86186V4.94955H45.5219V2.86186C45.5219 1.97955 44.807 1.26465 43.9251 1.26465Z" fill="#ED4A79"/>
<path d="M22.9313 49.6807H9.4937C9.22965 49.6807 9.01575 49.8946 9.01575 50.1586V52.7198H23.4092V50.1586C23.4092 49.8946 23.1953 49.6807 22.9313 49.6807Z" fill="#D5E0F2"/>
<path d="M20.9261 29.6602H11.4993C10.9639 29.6602 10.5297 30.094 10.5297 30.6298V49.6807H21.8957V30.6298C21.8957 30.094 21.4615 29.6602 20.9261 29.6602Z" fill="#FF5876"/>
<path d="M52.7247 16.5968H1.27515L5.33934 10.5884C5.96407 9.66489 7.0065 9.11133 8.12172 9.11133H45.8786C46.9934 9.11133 48.0358 9.66489 48.6605 10.5884L52.7247 16.5968Z" fill="#FF5876"/>
<path d="M47.0197 16.5968H6.98022L10.1431 10.5884C10.6291 9.66489 11.4403 9.11133 12.308 9.11133H41.6919C42.5596 9.11133 43.3707 9.66489 43.8568 10.5884L47.0197 16.5968Z" fill="#E4EEF9"/>
<path d="M41.2838 16.5968H12.7298L14.9853 10.5884C15.3322 9.66489 15.9104 9.11133 16.5295 9.11133H37.4841C38.1028 9.11133 38.6814 9.66489 39.0279 10.5884L41.2838 16.5968Z" fill="#FF5876"/>
<path d="M35.595 16.5968H18.4187L19.7753 10.5884C19.9839 9.66489 20.3321 9.11133 20.7041 9.11133H33.3095C33.6815 9.11133 34.0297 9.66489 34.2383 10.5884L35.595 16.5968Z" fill="#E4EEF9"/>
<path d="M29.8592 16.5968H24.1545L24.6049 10.5884C24.6745 9.66489 24.7901 9.11133 24.9135 9.11133H29.0998C29.2235 9.11133 29.3391 9.66489 29.4083 10.5884L29.8592 16.5968Z" fill="#FF5876"/>
<path d="M1.27716 16.5898V19.9545C1.27716 21.5335 2.55695 22.8137 4.13597 22.8137C5.71498 22.8137 6.99477 21.5335 6.99477 19.9545V16.5898H1.27716Z" fill="#E4EEF9"/>
<path d="M6.99478 16.5898V19.9545C6.99478 21.5335 8.27498 22.8137 9.85399 22.8137C11.433 22.8137 12.7128 21.5335 12.7128 19.9545V16.5898H6.99478Z" fill="#FF5876"/>
<path d="M12.7128 16.5898V19.9545C12.7128 21.5335 13.993 22.8137 15.572 22.8137C17.151 22.8137 18.4308 21.5335 18.4308 19.9545V16.5898H12.7128Z" fill="#E4EEF9"/>
<path d="M18.4308 16.5898V19.9545C18.4308 21.5335 19.711 22.8137 21.29 22.8137C22.869 22.8137 24.1488 21.5335 24.1488 19.9545V16.5898H18.4308Z" fill="#FF5876"/>
<path d="M24.1488 16.5898V19.9545C24.1488 21.5335 25.4286 22.8137 27.0076 22.8137C28.5867 22.8137 29.8668 21.5335 29.8668 19.9545V16.5898H24.1488Z" fill="#E4EEF9"/>
<path d="M29.8669 16.5898V19.9545C29.8669 21.5335 31.1466 22.8137 32.7257 22.8137C34.3047 22.8137 35.5849 21.5335 35.5849 19.9545V16.5898H29.8669Z" fill="#FF5876"/>
<path d="M35.5844 16.5898V19.9545C35.5844 21.5335 36.8646 22.8137 38.4437 22.8137C40.0227 22.8137 41.3025 21.5335 41.3025 19.9545V16.5898H35.5844Z" fill="#E4EEF9"/>
<path d="M41.3025 16.5898V19.9545C41.3025 21.5335 42.5827 22.8137 44.1617 22.8137C45.7407 22.8137 47.0205 21.5335 47.0205 19.9545V16.5898H41.3025Z" fill="#FF5876"/>
<path d="M47.0205 16.5898V19.9545C47.0205 21.5335 48.3003 22.8137 49.8793 22.8137C51.4583 22.8137 52.7385 21.5335 52.7385 19.9545V16.5898H47.0205Z" fill="#E4EEF9"/>
<path d="M45.6194 43.6199H32.9808C32.0993 43.6199 31.3844 42.9054 31.3844 42.0235V41.2504C31.3844 41.1618 31.4564 41.0898 31.5449 41.0898H47.0557C47.1442 41.0898 47.2162 41.1618 47.2162 41.2504V42.0235C47.2158 42.905 46.5013 43.6199 45.6194 43.6199Z" fill="#10C6FF"/>
<path d="M36.7219 41.0898C36.7219 39.267 37.918 37.7891 39.3935 37.7891C40.8694 37.7891 42.0655 39.267 42.0655 41.0898" fill="#91A0B5"/>
<path d="M52.7082 51.9399H51.559V36.0329C51.559 35.6039 51.2112 35.2562 50.7826 35.2562C50.3536 35.2562 50.0058 35.6039 50.0058 36.0329V46.0444H45.7087C44.9639 46.0444 44.3582 46.6255 44.3582 47.3396V51.9399H42.651C42.6991 51.7628 42.7274 51.5776 42.7274 51.3856C42.7274 50.9565 42.3797 50.6088 41.9511 50.6088C41.522 50.6088 41.1743 50.9565 41.1743 51.3856C41.1743 51.6912 40.9256 51.9399 40.6199 51.9399C40.3142 51.9399 40.0655 51.6912 40.0655 51.3856V44.395H45.6064C46.9145 44.395 47.9788 43.3308 47.9788 42.0227V41.2495C47.9788 40.7332 47.5587 40.313 47.0419 40.313H42.7662C42.5066 38.7292 41.4699 37.4708 40.1456 37.115C40.0797 36.7531 39.7635 36.4785 39.3822 36.4785C39.0013 36.4785 38.6851 36.7531 38.6192 37.115C37.2949 37.4708 36.2577 38.7292 35.9985 40.313H31.536C31.0193 40.313 30.5991 40.7332 30.5991 41.2495V42.0227C30.5991 43.3308 31.6634 44.395 32.9715 44.395H38.5124V51.3856C38.5124 51.6912 38.2637 51.9399 37.958 51.9399C37.6523 51.9399 37.4037 51.6912 37.4037 51.3856C37.4037 50.9565 37.0559 50.6088 36.6269 50.6088C36.1983 50.6088 35.8505 50.9565 35.8505 51.3856C35.8505 51.5776 35.8784 51.7628 35.9269 51.9399H34.4066V47.3396C34.4066 46.6255 33.8008 46.0444 33.056 46.0444H28.7589V36.0329C28.7589 35.6039 28.4112 35.2562 27.9821 35.2562C27.5535 35.2562 27.2058 35.6039 27.2058 36.0329V51.9399H24.1792V50.1563C24.1792 49.4645 23.6163 48.902 22.9248 48.902H22.666V38.0276C22.666 37.599 22.3183 37.2513 21.8897 37.2513C21.4607 37.2513 21.1129 37.599 21.1129 38.0276V48.902H11.3028V30.6327C11.3028 30.5264 11.3893 30.4399 11.4957 30.4399H20.92C21.0264 30.4399 21.1129 30.5264 21.1129 30.6327V34.4038C21.1129 34.8324 21.4607 35.1801 21.8893 35.1801C22.3183 35.1801 22.666 34.8324 22.666 34.4038V30.6327C22.666 29.6704 21.8828 28.8867 20.92 28.8867H11.4957C10.5329 28.8867 9.74967 29.6704 9.74967 30.6327V48.902H9.49088C8.79943 48.902 8.23656 49.4645 8.23656 50.1563V51.9399H7.11326V47.5187C7.11326 47.0901 6.76551 46.7423 6.33649 46.7423C5.90787 46.7423 5.56012 47.0897 5.56012 47.5187V51.9399H1.27637C0.847747 51.9399 0.5 52.2877 0.5 52.7163C0.5 53.1453 0.847747 53.4931 1.27637 53.4931H52.7082C53.1372 53.4931 53.4849 53.1453 53.4849 52.7163C53.4849 52.2877 53.1372 51.9399 52.7082 51.9399ZM39.3826 38.5662C40.2236 38.5662 40.9385 39.3005 41.1848 40.313H37.58C37.8266 39.3005 38.5411 38.5662 39.3826 38.5662ZM32.1519 42.0227V41.8658H46.4261V42.0227C46.4261 42.4747 46.0585 42.8423 45.6068 42.8423H32.9715C32.5194 42.8423 32.1519 42.4747 32.1519 42.0227ZM45.9113 47.5971H50.0058V51.9399H45.9113V47.5971ZM28.7589 47.5971H32.8538V51.9399H28.7589V47.5971ZM9.7897 51.9399V50.4547H22.6264V51.9399H9.7897Z" fill="black"/>
<path d="M53.2686 16.0447L49.2897 10.1625C48.5991 9.14111 47.4972 8.4909 46.2858 8.36758V2.87317C46.2858 1.56467 45.2211 0.5 43.9126 0.5H10.0723C8.76343 0.5 7.69917 1.56467 7.69917 2.87317V8.36758C6.48731 8.4909 5.38544 9.14111 4.69479 10.1625L0.666588 16.1183C0.591781 16.2133 0.538406 16.3265 0.514549 16.4503C0.511719 16.464 0.510506 16.4778 0.508484 16.4915C0.506462 16.504 0.504845 16.5166 0.503632 16.5299C0.501205 16.5554 0.500397 16.5813 0.500397 16.6072V19.9609C0.500397 21.9649 2.13076 23.5957 4.13476 23.5957C4.64061 23.5957 5.1222 23.4913 5.56012 23.3041V43.8774C5.56012 44.306 5.90786 44.6538 6.33689 44.6538C6.76551 44.6538 7.11325 44.306 7.11325 43.8774V22.347C7.78004 23.1112 8.7598 23.5957 9.85156 23.5957C11.0104 23.5957 12.0436 23.0498 12.7096 22.2022C13.3755 23.0498 14.4087 23.5957 15.5676 23.5957C16.7264 23.5957 17.7596 23.0498 18.426 22.2022C19.0915 23.0498 20.1251 23.5957 21.2839 23.5957C22.4428 23.5957 23.476 23.0498 24.1419 22.2022C24.8079 23.0498 25.8411 23.5957 27.0003 23.5957C28.1592 23.5957 29.1924 23.0498 29.8583 22.2022C30.5243 23.0498 31.5574 23.5957 32.7163 23.5957C33.8756 23.5957 34.9088 23.0498 35.5747 22.2022C36.2407 23.0498 37.2738 23.5957 38.4327 23.5957C39.5916 23.5957 40.6248 23.0498 41.2907 22.2022C41.9567 23.0498 42.9902 23.5957 44.1491 23.5957C45.232 23.5957 46.2053 23.1189 46.8717 22.3648V37.2553C46.8717 37.6839 47.2194 38.0316 47.648 38.0316C48.0771 38.0316 48.4248 37.6839 48.4248 37.2553V23.2968C48.8668 23.4885 49.3536 23.5957 49.8655 23.5957C51.8695 23.5957 53.4999 21.9649 53.4999 19.9609V16.5971C53.4999 16.3811 53.4113 16.1854 53.2686 16.0447ZM12.3048 9.89726H14.4398C14.3727 10.0323 14.3108 10.1746 14.2542 10.3247L12.1912 15.8207H8.2685L10.8273 10.9591C11.1774 10.2943 11.7298 9.89726 12.3048 9.89726ZM43.1572 10.9591L45.7164 15.8207H41.8071L39.7441 10.3247C39.6879 10.1746 39.6256 10.0323 39.5585 9.89726H41.6797C42.2551 9.89726 42.8075 10.2943 43.1572 10.9591ZM38.2904 10.8701L40.1484 15.8207H36.2039L34.986 10.4266C34.95 10.2668 34.9019 10.0853 34.84 9.89726H37.4736C37.6911 9.89726 38.0393 10.2017 38.2904 10.8701ZM33.4713 10.7686L34.612 15.8207H30.5704L30.1745 10.5394C30.1584 10.3275 30.1422 10.1095 30.1179 9.89726H33.1502C33.2274 10.0097 33.3597 10.2753 33.4713 10.7686ZM28.6259 10.6554L29.0132 15.8207H24.985L25.3724 10.6554C25.3983 10.3142 25.427 10.0695 25.4529 9.89726H28.5458C28.5717 10.0695 28.6004 10.3142 28.6259 10.6554ZM23.8237 10.5394L23.4279 15.8207H19.3863L20.5274 10.7686C20.6386 10.2753 20.7708 10.0097 20.8481 9.89726H23.8803C23.8565 10.1095 23.8399 10.3275 23.8237 10.5394ZM19.0127 10.4266L17.7943 15.8207H13.8498L15.7083 10.8705C15.9594 10.2017 16.3075 9.89726 16.5251 9.89726H19.1586C19.0964 10.0853 19.0487 10.2668 19.0127 10.4266ZM48.0039 11.0323L51.2424 15.8207H47.4713L44.5312 10.2357C44.4694 10.1176 44.4015 10.0056 44.3307 9.89726H45.8652C46.7237 9.89726 47.5231 10.3218 48.0039 11.0323ZM10.0723 2.05314H43.9126C44.3651 2.05314 44.7326 2.4211 44.7326 2.87317V4.1841H40.1189C39.6903 4.1841 39.3425 4.53144 39.3425 4.96046C39.3425 5.38949 39.6903 5.73683 40.1189 5.73683H44.7326V8.34453H9.2519V5.73683H36.2694C36.6984 5.73683 37.0458 5.38908 37.0458 4.96046C37.0458 4.53144 36.6984 4.18369 36.2694 4.18369H9.2519V2.87317C9.2519 2.4207 9.61986 2.05314 10.0723 2.05314ZM5.98105 11.0323C6.46183 10.3214 7.26125 9.89726 8.11929 9.89726H9.65383C9.58307 10.0056 9.51554 10.1176 9.45327 10.2357L6.51319 15.8207H2.74215L5.98105 11.0323ZM2.05313 19.9609V17.3807H6.21679V19.9609C6.21679 21.1089 5.28273 22.0429 4.13476 22.0429C2.98719 22.0429 2.05313 21.1089 2.05313 19.9609ZM9.85116 22.0425C8.70319 22.0425 7.76952 21.1089 7.76952 19.9609V17.3807H11.9332V19.9609C11.9328 21.1089 10.9991 22.0425 9.85116 22.0425ZM15.5676 22.0425C14.4196 22.0425 13.4859 21.1089 13.4859 19.9609V17.3807H17.6492V19.9609C17.6492 21.1089 16.7151 22.0425 15.5676 22.0425ZM21.2839 22.0425C20.136 22.0425 19.2023 21.1089 19.2023 19.9609V17.3807H23.3656V19.9609C23.3656 21.1089 22.4315 22.0425 21.2839 22.0425ZM26.9999 22.0425C25.852 22.0425 24.9183 21.1089 24.9183 19.9609V17.3807H29.082V19.9609C29.082 21.1089 28.1479 22.0425 26.9999 22.0425ZM32.7163 22.0425C31.5684 22.0425 30.6347 21.1089 30.6347 19.9609V17.3807H34.7984V19.9609C34.7984 21.1089 33.8643 22.0425 32.7163 22.0425ZM38.4327 22.0425C37.2848 22.0425 36.3511 21.1089 36.3511 19.9609V17.3807H40.5144V19.9609C40.5144 21.1089 39.5803 22.0425 38.4327 22.0425ZM44.1487 22.0425C43.0012 22.0425 42.0671 21.1089 42.0671 19.9609V17.3807H46.2308V19.9609C46.2308 21.1089 45.2967 22.0425 44.1487 22.0425ZM49.8651 22.0425C48.7176 22.0425 47.7835 21.1089 47.7835 19.9609V17.3807H51.9472V19.9609C51.9472 21.1089 51.0131 22.0425 49.8651 22.0425Z" fill="black"/>
<path d="M19.762 39.8936C19.762 40.3222 19.4142 40.6699 18.9852 40.6699C18.5566 40.6699 18.2088 40.3222 18.2088 39.8936C18.2088 39.4645 18.5566 39.1172 18.9852 39.1172C19.4142 39.1172 19.762 39.4645 19.762 39.8936Z" fill="black"/>
</g>
<defs>
<clipPath id="clip0_264_4809">
<rect width="53" height="53" fill="white" transform="translate(0.5 0.5)"/>
</clipPath>
</defs>
</svg>
