<svg width="54" height="54" viewBox="0 0 54 54" fill="none" xmlns="http://www.w3.org/2000/svg">
<g clip-path="url(#clip0_200_5089)">
<path d="M28.9908 18.9138V18.8016C28.9908 17.7727 29.3495 16.8279 29.9477 16.084L21.0221 20.2884C21.318 20.5532 21.5062 20.9364 21.5062 21.3624V22.4395L28.9908 18.9138Z" fill="#FFE177"/>
<path d="M19.3148 30.9122V42.0685C19.3458 42.0672 19.3763 42.0638 19.4076 42.0638H22.2271V30.9122C22.2271 29.4586 23.4054 28.2803 24.8591 28.2803H21.9468C20.4932 28.2803 19.3148 29.4587 19.3148 30.9122Z" fill="#01C0FA"/>
<path d="M17.3579 44.1133V44.6051L17.7831 45.3594H20.2703V44.1132C20.2703 43.0125 21.1385 42.117 22.2272 42.0681V42.0635H19.4077C18.2755 42.0635 17.3579 42.9812 17.3579 44.1133Z" fill="#7CA1B1"/>
<path d="M50.2375 41.1367H48.47V35.8838H50.2375C50.8092 35.8838 51.2727 36.3473 51.2727 36.9191V40.1014C51.2727 40.6732 50.8092 41.1367 50.2375 41.1367Z" fill="#FFD15B"/>
<path d="M5.92277 36.1836L9.27877 32.1435C8.24703 31.2912 6.71681 31.3475 5.75133 32.313C4.72559 33.3387 4.72559 35.0017 5.75133 36.0274C5.80651 36.0826 5.86396 36.1342 5.92277 36.1836Z" fill="#FFD15B"/>
<path d="M34.8742 47.0076L34.1948 47.9256C34.9747 50.6966 37.5188 52.7287 40.539 52.7287C44.1796 52.7287 47.1309 49.7773 47.1309 46.1367C47.1309 45.1852 46.9278 44.2818 46.565 43.4648L34.8742 47.0076Z" fill="#7CA1B1"/>
<path d="M38.0841 48.4348C37.5572 47.8721 37.2204 47.1293 37.1789 46.3096L34.8742 47.008L34.1948 47.9259C34.9747 50.6969 37.5188 52.729 40.539 52.729C41.1858 52.729 41.8101 52.6343 42.4007 52.4607C40.4053 51.8741 38.804 50.369 38.0841 48.4348Z" fill="#678D98"/>
<path d="M37.1789 46.3089C37.2689 48.0844 38.7417 49.5011 40.5391 49.5011C42.3943 49.5011 43.9037 47.9917 43.9037 46.1365C43.9037 45.5078 43.7299 44.919 43.4285 44.415L37.1789 46.3089Z" fill="#CBE5E8"/>
<path d="M39.4426 45.623L37.1789 46.309C37.2689 48.0845 38.7417 49.5011 40.5391 49.5011C41.3946 49.5011 42.1761 49.1797 42.7703 48.6519C41.0374 48.6417 39.6107 47.3149 39.4426 45.623Z" fill="#A8D3D8"/>
<path d="M13.4903 47.0078H3.32159C3.74802 50.2366 6.50927 52.7289 9.85451 52.7289C12.348 52.7289 14.5177 51.3441 15.6377 49.3018L13.4903 47.0078Z" fill="#7CA1B1"/>
<path d="M6.81871 47.0078H3.32159C3.74802 50.2366 6.50927 52.7289 9.85451 52.7289C10.4603 52.7289 11.0468 52.6465 11.604 52.4935C9.08407 51.8018 7.168 49.6523 6.81871 47.0078Z" fill="#678D98"/>
<path d="M6.60483 47.0078C6.98963 48.4422 8.30038 49.5015 9.85451 49.5015C11.4086 49.5015 12.7194 48.4422 13.1042 47.0078H6.60483Z" fill="#CBE5E8"/>
<path d="M6.25479 39.2773C3.58413 40.6216 1.70026 43.3075 1.49797 46.4454C1.4784 46.7496 1.7191 47.0076 2.02388 47.0076H13.4903L6.25479 39.2773Z" fill="#FE646F"/>
<path d="M4.96837 46.4455C5.11238 44.2114 6.10933 42.207 7.63521 40.7522L6.25479 39.2773C3.58413 40.6216 1.70026 43.3075 1.49797 46.4454C1.4784 46.7496 1.7191 47.0076 2.02388 47.0076H5.49429C5.18951 47.0077 4.9487 46.7496 4.96837 46.4455Z" fill="#FD4755"/>
<path d="M30.7542 38.15L27.6643 45.3599H17.7829L12.4422 35.884L18.5868 26.7171H15.9454C15.32 26.7171 14.7856 26.3133 14.5866 25.7539L5.31062 36.9208C4.97157 37.3289 4.98927 37.9256 5.35182 38.3129L16.4613 50.182C16.6571 50.3912 16.9307 50.5098 17.2172 50.5098H31.7608C32.089 50.5098 32.3977 50.3542 32.593 50.0904L34.8742 47.0079L47.7349 43.1107C48.1714 42.9784 48.4699 42.5761 48.4699 42.1199V38.15H30.7542Z" fill="#FB2B3A"/>
<path d="M34.2617 38.1504H30.7543L27.6643 45.3603H30.1478C30.769 45.3603 31.3304 44.9901 31.5751 44.4191L34.2617 38.1504Z" fill="#E41F2D"/>
<path d="M15.9454 26.7171C15.32 26.7171 14.7856 26.3133 14.5866 25.7539L11.82 29.0844C11.6936 30.4446 11.3477 31.8966 10.7642 33.3474C10.6211 33.7032 10.4669 34.0483 10.3044 34.3837L16.6727 26.7172H15.9454V26.7171Z" fill="#E41F2D"/>
<path d="M19.3476 50.1818L8.23815 38.3127C8.1105 38.1762 8.02654 38.0137 7.98493 37.8428C7.44711 38.427 6.88134 38.9279 6.30325 39.329L6.20303 39.222L16.4614 50.1817C16.6572 50.3909 16.9308 50.5095 17.2173 50.5095H20.1036C19.817 50.5096 19.5434 50.391 19.3476 50.1818Z" fill="#E41F2D"/>
<path d="M10.7642 33.347C11.3477 31.8963 11.6936 30.4441 11.82 29.084L5.31074 36.9203C4.97169 37.3284 4.98939 37.925 5.35194 38.3124L6.30325 39.3287C8.05367 38.1145 9.69631 36.0019 10.7642 33.347Z" fill="#FFE177"/>
<path d="M14.5022 25.2739V21.3625C14.5022 21.3522 14.5036 21.3423 14.5038 21.332H13.3636C12.8009 21.332 12.3405 21.7925 12.3405 22.3553V24.2813C12.3405 24.8441 12.801 25.3044 13.3636 25.3044H14.5038C14.5036 25.2941 14.5022 25.2841 14.5022 25.2739Z" fill="#FFD15B"/>
<path d="M45.8853 38.1497H29.1074C28.6633 38.1497 28.364 37.6957 28.5389 37.2876L29.7346 34.4977C30.2848 33.2141 31.5469 32.3818 32.9435 32.3818H42.3941C44.3222 32.3818 45.8852 33.9449 45.8852 35.8729L45.8853 38.1497Z" fill="#8EBAC5"/>
<path d="M32.9498 37.2876L34.1456 34.4977C34.6957 33.2141 35.9579 32.3818 37.3545 32.3818H32.9435C31.5469 32.3818 30.2848 33.2141 29.7346 34.4977L28.5389 37.2876C28.364 37.6957 28.6633 38.1497 29.1074 38.1497H33.5183C33.0743 38.1497 32.775 37.6957 32.9498 37.2876Z" fill="#7CA1B1"/>
<path d="M50.0026 15.5928H37.161C37.1611 15.5992 37.1619 15.6055 37.1619 15.612V30.276C37.1619 31.4388 36.2193 32.3815 35.0565 32.3815H51.5817V17.172C51.5817 16.2998 50.8748 15.5928 50.0026 15.5928Z" fill="#FB2B3A"/>
<path d="M37.1619 25.4374H40.8456V15.612C40.8456 15.6055 40.8447 15.5993 40.8446 15.5928H37.161C37.1611 15.5992 37.1619 15.6055 37.1619 15.612V25.4374Z" fill="#E41F2D"/>
<path d="M37.1619 25.4375V30.2762C37.1619 31.4391 36.2192 32.3818 35.0563 32.3818H51.5816V25.4376L37.1619 25.4375Z" fill="#FE646F"/>
<path d="M37.1619 25.4375V30.2762C37.1619 31.439 36.2193 32.3817 35.0565 32.3817H38.7402C39.903 32.3817 40.8456 31.439 40.8456 30.2762V25.4375H37.1619Z" fill="#FD4755"/>
<path d="M33.3322 14.4598H36.0096C36.0448 14.4598 36.0794 14.462 36.1138 14.4651V10.6538H34.9966V10.6523C34.9962 10.6532 34.9959 10.6538 34.9955 10.6546L32.8255 12.3637C32.5843 12.5537 32.2861 12.657 31.9791 12.657H31.5163V14.8578C32.069 14.603 32.6838 14.4598 33.3322 14.4598Z" fill="#FFCEBF"/>
<path d="M32.4897 4.62891H28.0274C28.0257 4.62891 28.0245 4.63025 28.0245 4.6318V7.14118C28.0243 7.1418 28.0242 7.14231 28.024 7.14283L27.2761 8.19373C26.8774 8.75401 27.1098 9.53967 27.7491 9.793L28.0228 9.90149C28.0234 9.90232 28.0239 9.90305 28.0245 9.90387V10.974C28.0245 11.9039 28.7782 12.6577 29.7081 12.6577H31.9793C32.2863 12.6577 32.5845 12.5543 32.8257 12.3644L34.9957 10.6517L32.4897 4.62891Z" fill="#FFCEBF"/>
<path d="M33.8374 7.86816C32.4948 8.46365 31.5579 9.80721 31.5579 11.3705C31.5579 11.8222 31.6367 12.2554 31.7803 12.6578H31.9792C32.2862 12.6578 32.5844 12.5545 32.8256 12.3645L34.9956 10.6554L33.8374 7.86816Z" fill="#FE646F"/>
<path d="M35.2558 1.27637H30.2723C29.031 1.27637 28.0246 2.28274 28.0246 3.52413V4.62875H32.4898L34.9969 10.6542H36.2171C36.4474 10.6542 36.671 10.5774 36.8526 10.4358L37.583 9.86676C38.2478 9.34892 38.6364 8.55343 38.6364 7.71083V4.65681C38.6363 2.78992 37.1228 1.27637 35.2558 1.27637Z" fill="#FB2B3A"/>
<path d="M36.0098 14.46H33.3323C30.9345 14.46 28.9908 16.4037 28.9908 18.8014V18.9136L32.3095 17.3503C33.1019 16.9808 34.0437 17.3236 34.4132 18.116C34.7827 18.9084 34.4399 19.8502 33.6475 20.2196L28.9908 22.4131V28.28H37.1619V15.6122C37.1619 14.9758 36.646 14.46 36.0098 14.46Z" fill="#FFE177"/>
<path d="M36.0029 14.46H33.3323C30.9345 14.46 28.9908 16.4037 28.9908 18.8014V18.9136L31.8392 17.5719C32.3696 15.7732 34.0324 14.46 36.0029 14.46Z" fill="#FFD15B"/>
<path d="M28.9908 28.28H31.6614V21.1553L28.9908 22.4133V28.28Z" fill="#FFD15B"/>
<path d="M24.8591 28.2803C23.4054 28.2803 22.2271 29.4586 22.2271 30.9122V42.0685C22.2581 42.0672 22.2886 42.0638 22.3199 42.0638H26.5531V32.382H35.0564C36.2193 32.382 37.162 31.4393 37.162 30.2764V28.2803H24.8591Z" fill="#01C0FA"/>
<path d="M23.9735 30.9122C23.9735 29.4586 25.1518 28.2803 26.6054 28.2803H24.8591C23.4054 28.2803 22.2271 29.4586 22.2271 30.9122V42.0685C22.2581 42.0672 22.2886 42.0638 22.3199 42.0638H23.9735V30.9122Z" fill="#08A9F1"/>
<path d="M20.2702 45.3594H26.5531V42.0635H22.3199C21.1878 42.0635 20.2702 42.9811 20.2702 44.1132V45.3594Z" fill="#7CA1B1"/>
<path d="M24.9114 42.0635H22.3199C21.1878 42.0635 20.2702 42.9811 20.2702 44.1132V45.3594H22.8617V44.1132C22.8617 42.9812 23.7795 42.0635 24.9114 42.0635Z" fill="#678D98"/>
<path d="M17.8033 24.9512C17.8033 23.8756 18.6753 23.0036 19.751 23.0036C19.9042 23.0036 20.0525 23.0231 20.1956 23.0566L21.5062 22.4393V21.3622C21.5062 20.5685 20.8567 19.9189 20.0629 19.9189H15.9455C15.1517 19.9189 14.5022 20.5684 14.5022 21.3622V25.2736C14.5022 26.0674 15.1516 26.7169 15.9455 26.7169H18.9327C18.2664 26.4074 17.8033 25.7342 17.8033 24.9512Z" fill="#FE646F"/>
<path d="M17.1002 25.2736V21.3622C17.1002 20.5685 17.7496 19.9189 18.5434 19.9189H15.9455C15.1518 19.9189 14.5023 20.5684 14.5023 21.3622V25.2736C14.5023 26.0674 15.1517 26.7169 15.9455 26.7169H18.5434C17.7496 26.7168 17.1002 26.0674 17.1002 25.2736Z" fill="#FD4755"/>
<path d="M34.4133 18.1165C34.0438 17.3241 33.1019 16.9814 32.3096 17.3508L20.1957 23.057C21.0568 23.2584 21.6988 24.0292 21.6988 24.9517C21.6988 25.3344 21.5869 25.6902 21.3962 25.9912L33.6477 20.2203C34.4399 19.8508 34.7828 18.9089 34.4133 18.1165Z" fill="#FFC344"/>
<path d="M23.3377 23.2237L34.3706 18.0357C33.9762 17.302 33.0741 16.9941 32.3095 17.3506L20.1956 23.0567C21.0566 23.2581 21.6987 24.0289 21.6987 24.9514C21.6987 25.3341 21.5868 25.6899 21.3961 25.991L23.5466 24.9779L23.0825 23.8959C22.9727 23.6398 23.0854 23.3425 23.3377 23.2237Z" fill="#FEB137"/>
<path d="M19.751 26.8992C20.8266 26.8992 21.6986 26.0272 21.6986 24.9515C21.6986 23.8759 20.8266 23.0039 19.751 23.0039C18.6753 23.0039 17.8033 23.8759 17.8033 24.9515C17.8033 26.0272 18.6753 26.8992 19.751 26.8992Z" fill="#FFCEBF"/>
<path d="M19.6911 24.9516C19.6911 24.2186 20.0965 23.5809 20.6949 23.2484C20.4152 23.0931 20.0936 23.0039 19.7511 23.0039C18.6754 23.0039 17.8034 23.8759 17.8034 24.9515C17.8034 26.0272 18.6753 26.8993 19.751 26.8993C20.0936 26.8993 20.4152 26.8101 20.6948 26.6548C20.0965 26.3224 19.6911 25.6846 19.6911 24.9516Z" fill="#FFB09E"/>
<path d="M31.0547 7.4429V6.92703C31.0191 5.89891 29.5371 5.89974 29.5018 6.92703V7.4429C29.5374 8.47102 31.0194 8.47029 31.0547 7.4429Z" fill="black"/>
<path d="M52.5087 31.6056H52.3582V22.7064C52.3226 21.6782 50.8406 21.6791 50.8053 22.7064V24.6613H37.9384V16.3696H50.0026C50.4452 16.3696 50.8054 16.7298 50.8054 17.1724V19.0829C50.841 20.1111 52.323 20.1102 52.3583 19.0829V17.1724C52.3583 15.8735 51.3015 14.8167 50.0026 14.8167H37.7645C37.5844 14.4212 37.2752 14.0972 36.8903 13.8986V11.2988C37.047 11.2361 37.1956 11.1529 37.3296 11.0486L38.06 10.4795C38.9197 9.80979 39.4126 8.80072 39.4126 7.71101V4.65699C39.4128 2.36482 37.5479 0.5 35.2558 0.5H30.2723C28.6047 0.5 27.2481 1.85661 27.2481 3.52421V3.85238H26.1747C25.1465 3.888 25.1474 5.36997 26.1747 5.40527H27.2481V6.89398L26.6435 7.74362C26.0042 8.59409 26.3098 9.92378 27.2481 10.4135V10.9739C27.2481 12.3304 28.3517 13.434 29.7081 13.434H30.7401V14.3916C30.2604 14.6746 29.8312 15.0335 29.4681 15.4518L21.0918 19.3975C20.7839 19.2356 20.4343 19.1429 20.063 19.1429H15.9456C15.0065 19.1429 14.2036 19.73 13.8799 20.5556H13.3638C12.3715 20.5556 11.5641 21.3629 11.5641 22.3552V24.2812C11.5641 25.2548 12.3416 26.0483 13.308 26.078L11.2199 28.5918C11.2195 28.5923 11.2191 28.5928 11.2185 28.5934L9.11997 31.1197C7.83676 30.478 6.26089 30.7053 5.20223 31.7641C3.99025 32.976 3.886 34.8819 4.88823 36.214L4.71338 36.4245C4.12566 37.132 4.15641 38.1719 4.78491 38.8434L5.01909 39.0936C2.53395 40.7049 0.914901 43.4196 0.722963 46.3955C0.699773 46.7542 0.827524 47.1103 1.0733 47.3724C1.31876 47.6341 1.66515 47.7842 2.02377 47.7842H2.67319C4.02876 53.8341 12.0459 55.5582 15.749 50.5571L15.8944 50.7125C16.2356 51.0771 16.7178 51.2862 17.2171 51.2862H31.7607C32.3325 51.2862 32.8769 51.0118 33.217 50.5522L33.9896 49.5082C35.7493 53.1156 40.6356 54.6353 44.1409 52.5645C44.5148 52.3546 44.6478 51.8813 44.4378 51.5074C44.228 51.1336 43.7546 51.0007 43.3807 51.2105C40.3311 52.9969 36.1634 51.3994 35.0553 48.0683L35.3454 47.6763L36.5656 47.3065C37.0711 49.0323 38.6641 50.278 40.5392 50.278C43.28 50.3228 45.3495 47.5038 44.4904 44.905L46.0942 44.419C46.5626 45.901 46.3902 47.5837 45.6342 48.9412C45.427 49.3167 45.5634 49.789 45.9389 49.9962C46.3073 50.2014 46.7856 50.0704 46.9939 49.6914C47.9507 47.9725 48.1712 45.8452 47.5797 43.9689L47.9601 43.8535C48.7295 43.6205 49.2464 42.9237 49.2464 42.1197V41.9131H50.2374C51.2364 41.9131 52.0491 41.1004 52.0491 40.1014V36.919C52.0491 35.9201 51.2364 35.1073 50.2374 35.1073H49.2464V33.1583H52.5087C53.5368 33.1228 53.5361 31.6409 52.5087 31.6056ZM42.3942 33.1585C43.8911 33.1585 45.1089 34.3762 45.1089 35.8731V37.3734H29.347L30.4483 34.8037C30.8767 33.8043 31.8561 33.1584 32.9435 33.1584H42.3942V33.1585ZM23.0035 41.2874V30.9123C23.0035 29.8891 23.8359 29.0568 24.859 29.0568H28.9908H36.3854V30.2764C36.3854 31.0089 35.7897 31.6049 35.0573 31.6055H35.0564C35.0561 31.6055 35.0557 31.6055 35.0553 31.6055H26.5529C26.1241 31.6055 25.7765 31.9531 25.7765 32.3819V41.2873H23.0035V41.2874ZM25.7766 42.8405V44.5834H21.0466V44.1136C21.0466 43.4422 21.5693 42.8919 22.2289 42.8449C22.2396 42.8449 22.2505 42.8447 22.2614 42.8442C22.2788 42.8435 25.7766 42.8405 25.7766 42.8405ZM27.3295 33.1585H29.6504C29.3968 33.4664 29.1834 33.8128 29.0209 34.192L27.8252 36.9821C27.64 37.4143 27.684 37.9068 27.9429 38.2994C28.2018 38.6919 28.6371 38.9263 29.1073 38.9263H29.5767L27.3295 44.1698V33.1585ZM28.8009 3.52421C28.8009 2.71287 29.4609 2.05289 30.2722 2.05289H35.2557C36.6916 2.05289 37.8598 3.22108 37.8598 4.65699V7.71101C37.8598 8.3185 37.5849 8.88106 37.1056 9.25448L36.3753 9.82346C36.3302 9.85855 36.2739 9.87791 36.2169 9.87791H35.5146L33.2065 4.33067C33.086 4.04121 32.8032 3.85249 32.4896 3.85249H28.8009V3.52421ZM33.3067 12.9738L35.2618 11.4307H35.3375V13.6837H33.3322C32.9762 13.6837 32.6286 13.7205 32.2928 13.7901V13.4093C32.6607 13.3544 33.0125 13.2055 33.3067 12.9738ZM32.3344 11.3702C32.3344 10.4369 32.7626 9.57096 33.4671 8.99929L34.0527 10.4066L32.3597 11.7428C32.3446 11.6195 32.3344 11.4955 32.3344 11.3702ZM29.7081 11.8811C29.2079 11.8811 28.801 11.4742 28.801 10.9739V9.9039C28.801 9.74354 28.7497 9.58473 28.6572 9.45377C28.5702 9.33057 28.4492 9.23533 28.309 9.17973L28.0351 9.07124C27.9237 9.02703 27.8825 8.93769 27.868 8.88841C27.8534 8.83903 27.8394 8.74172 27.9088 8.64409L28.6567 7.5932C28.7015 7.53015 28.7366 7.46089 28.7609 7.38759C28.7874 7.30819 28.801 7.22506 28.801 7.1413V5.40538H31.9718L32.8536 7.52477C31.4325 8.45195 30.6086 10.1665 30.8108 11.8812L29.7081 11.8811ZM33.3322 15.2367H36.0096C36.214 15.2367 36.3802 15.401 36.3846 15.6044V15.6054C36.3847 15.613 36.3851 15.6204 36.3854 15.628V27.504H29.7672V22.9062L33.9757 20.9238C35.8668 20.0568 35.7444 17.2628 33.7855 16.5683C33.1933 16.3527 32.5526 16.3807 31.9786 16.6483L29.9797 17.5899C30.4767 16.2189 31.7918 15.2367 33.3322 15.2367ZM28.3346 17.7022C28.2837 17.9339 28.2489 18.1715 28.2306 18.4137L22.2753 21.2189C22.2618 21.0082 22.2189 20.8059 22.1504 20.6152L28.3346 17.7022ZM32.6376 18.0543C32.8329 17.9633 33.052 17.9537 33.2544 18.0274C33.4569 18.1011 33.6185 18.2492 33.7095 18.4444C33.8974 18.8475 33.7224 19.3283 33.3167 19.5175L22.456 24.6334C22.3905 24.0726 22.154 23.5634 21.8001 23.1594L32.6376 18.0543ZM21.9134 26.6056L28.2144 23.6375V27.5038H24.8591H21.9469C20.0674 27.5038 18.5385 29.0327 18.5385 30.9121V34.353C18.5741 35.3812 20.0561 35.3803 20.0914 34.353V30.9123C20.0914 29.8891 20.9238 29.0568 21.9469 29.0568L22.0311 29.0118C21.6649 29.5551 21.4508 30.2091 21.4508 30.9123V41.2874H20.0913V37.9765C20.0556 36.9483 18.5737 36.9492 18.5384 37.9765V41.4266C17.938 41.6216 17.425 42.0118 17.0753 42.5229L13.3534 35.9193L18.9582 27.5576C20.0218 27.9037 21.2798 27.4715 21.9134 26.6056ZM19.7977 42.8412C19.6038 43.224 19.4937 43.6561 19.4937 44.1137V44.5835H18.2367L18.1343 44.4018V44.1138C18.1343 43.4424 18.657 42.8921 19.3166 42.8451C19.3273 42.8451 19.3839 42.8425 19.4013 42.8414L19.7977 42.8412ZM19.751 26.1227C19.1052 26.1227 18.5798 25.5973 18.5798 24.9515C18.6387 23.3999 20.8636 23.4004 20.9222 24.9515C20.9223 25.5973 20.3969 26.1227 19.751 26.1227ZM15.2798 21.3393C15.2921 20.9823 15.5855 20.6957 15.9454 20.6957H20.0629C20.4306 20.6957 20.7297 20.9948 20.7297 21.3625V21.947L20.0884 22.2491C18.0832 21.9608 16.4443 24.0735 17.2136 25.9406H15.9454C15.6661 25.9406 15.4268 25.7678 15.3277 25.5237C15.3213 25.503 15.3144 25.4825 15.3063 25.4623C15.2907 25.4096 15.2818 25.3542 15.2799 25.297L15.2801 21.3473C15.2801 21.3447 15.2798 21.342 15.2798 21.3393ZM13.1169 24.2811V22.3551C13.1169 22.2213 13.23 22.1084 13.3637 22.1084H13.7257V24.5279H13.3637C13.23 24.5279 13.1169 24.4148 13.1169 24.2811ZM10.436 31.9657C10.3198 32.3304 10.1899 32.6946 10.0438 33.0576C9.17805 35.2101 7.86709 37.0774 6.39143 38.2872L5.91873 37.7821C5.8238 37.6808 5.81914 37.5236 5.90797 37.4168L10.436 31.9657ZM6.30033 32.8623C6.78069 32.3844 7.44688 32.2146 8.07518 32.3776L5.93343 34.9559C5.61271 34.2704 5.73508 33.4275 6.30033 32.8623ZM2.29439 46.2314C2.53933 43.7579 3.96488 41.527 6.10001 40.2483L11.7001 46.2314H2.29439ZM11.8494 47.7843C10.8545 49.0295 8.85401 49.0291 7.85943 47.7843H11.8494ZM9.85449 51.9525C7.25308 51.9525 4.996 50.213 4.27919 47.7843H6.05653C7.3916 50.9206 11.8628 51.125 13.4808 48.1338L14.6671 49.4012C13.5901 50.9873 11.7929 51.9525 9.85449 51.9525ZM40.5391 48.7252C39.3626 48.7252 38.3637 47.941 38.0518 46.8562L42.0584 45.6421L43.0058 45.355C43.5501 46.9817 42.2576 48.7534 40.5391 48.7252ZM47.6936 42.1199C47.6936 42.2347 47.6198 42.3342 47.5098 42.3675L34.649 46.2648C34.4893 46.3132 34.3494 46.4118 34.25 46.5459L31.9688 49.6284C31.9203 49.6941 31.8425 49.7333 31.7608 49.7333H17.2172C17.1458 49.7333 17.077 49.7034 17.0282 49.6513L7.45537 39.4239C9.0975 38.0473 10.5398 35.986 11.4846 33.6371C12.049 32.2336 12.4105 30.8102 12.5655 29.402L14.5579 27.0035C14.9383 27.3093 15.4206 27.4934 15.9454 27.4934H17.1316L11.7973 35.4516C11.634 35.6951 11.6219 36.0098 11.7658 36.2651L17.1065 45.7409C17.2441 45.985 17.5026 46.1361 17.7829 46.1361H27.6642C27.9748 46.1361 28.2555 45.951 28.3779 45.6656L31.2662 38.9262H47.6935V42.1199H47.6936ZM47.6936 37.3735H46.6618V35.8732C46.6618 34.8429 46.2948 33.8968 45.6846 33.1586H47.6936V37.3735ZM50.2374 36.6604C50.3801 36.6604 50.4963 36.7766 50.4963 36.9193V40.1016C50.4963 40.2443 50.3801 40.3605 50.2374 40.3605H49.2464V36.6604H50.2374ZM50.8053 31.6056H37.6123C37.8201 31.2076 37.9383 30.7557 37.9383 30.2765V26.2143H50.8053V31.6056Z" fill="black"/>
</g>
<defs>
<clipPath id="clip0_200_5089">
<rect width="53" height="53" fill="white" transform="translate(0.5 0.5)"/>
</clipPath>
</defs>
</svg>
