<svg width="1380" height="1266" viewBox="0 0 1380 1266" fill="none" xmlns="http://www.w3.org/2000/svg">
<path opacity="0.988" fill-rule="evenodd" clip-rule="evenodd" d="M437.363 0.0626406C692.03 -0.104359 946.693 0.0626406 1201.36 0.562641C1274.94 8.57564 1328.44 45.4086 1361.86 111.063C1389.44 175.463 1385.44 237.796 1349.86 298.063C1315.16 349.849 1266.66 379.349 1204.36 386.563C1057.02 386.591 909.683 387.258 762.363 388.563C637.718 401.112 538.218 457.279 463.863 557.063C392.222 661.226 371.555 774.893 401.863 898.063C402.613 898.693 403.447 899.193 404.363 899.563C421.941 902.053 439.607 903.393 457.363 903.563C711.03 903.893 964.693 904.233 1218.36 904.563C1286.35 913.913 1335.19 949.413 1364.86 1011.06C1387.65 1067.13 1384.65 1121.79 1355.86 1175.06C1322.05 1229.73 1272.88 1259.57 1208.36 1264.56C1065.36 1265.23 922.363 1265.23 779.363 1264.56C626.251 1256.27 503.751 1191.44 411.863 1070.06C387.028 1035.07 366.861 997.403 351.363 957.063C217.659 921.013 117.826 842.343 51.8633 721.063C14.3943 646.724 -2.77271 567.891 0.36329 484.563C-3.52171 342.466 45.1453 222.132 146.363 123.563C228.651 48.4366 325.651 7.26964 437.363 0.0626406ZM434.363 66.0626C692.054 65.5686 949.723 66.0686 1207.36 67.5626C1252.13 76.6676 1284.29 101.834 1303.86 143.063C1325.14 201.789 1312.64 251.956 1266.36 293.563C1244.02 310.79 1218.68 320.124 1190.36 321.563C1048.36 321.896 906.363 322.23 764.363 322.563C616.064 334.937 497.897 400.437 409.863 519.063C334.436 628.784 307.603 749.451 329.363 881.063C210.777 836.313 129.944 754.31 86.8633 635.063C75.3493 600.311 68.6823 564.644 66.8633 528.063C66.1963 499.063 66.1963 470.063 66.8633 441.063C75.7803 318.04 128.614 218.874 225.363 143.563C287.662 98.0886 357.329 72.2556 434.363 66.0626ZM428.363 968.063C691.035 968.563 953.703 969.403 1216.36 970.563C1267.03 980.963 1298.86 1011.12 1311.86 1061.06C1319.93 1114.75 1301.09 1155.92 1255.36 1184.56C1243.45 1191.09 1230.78 1195.42 1217.36 1197.56C1069.39 1199.22 921.393 1199.55 773.363 1198.56C634.796 1187.73 527.296 1124.9 450.863 1010.06C442.575 996.483 435.075 982.483 428.363 968.063Z" fill="black"/>
</svg>
